<?xml version="1.0" encoding="UTF-8" standalone="no"?><!DOCTYPE svg PUBLIC "-//W3C//DTD SVG 1.1//EN" "http://www.w3.org/Graphics/SVG/1.1/DTD/svg11.dtd"><svg width="100%" height="100%" viewBox="0 0 2953 2079" version="1.1" xmlns="http://www.w3.org/2000/svg" xmlns:xlink="http://www.w3.org/1999/xlink" xml:space="preserve" xmlns:serif="http://www.serif.com/" style="fill-rule:evenodd;clip-rule:evenodd;stroke-linejoin:round;stroke-miterlimit:2;"><g><g transform="matrix(0.722687,0,0,1,-56.8794,0)"><g transform="matrix(451.249,0,0,451.249,4088.75,1262.11)"></g><text x="185.89px" y="1262.11px" style="font-family:'AzonixRegular', 'Azonix';font-size:451.249px;">Twinkle Tron</text></g><path d="M2513.06,998.764l18.964,73.795l61.368,0l-49.648,45.608l18.964,73.796l-49.648,-45.608l-49.648,45.608l18.964,-73.796l-49.648,-45.608l61.368,0l18.964,-73.795Z"/><path d="M146.615,1473.8c-7.648,1.093 -15.221,-2.658 -18.988,-9.403l-36.29,-64.951c-1.291,-2.314 -3.506,-3.974 -6.089,-4.564l-72.526,-16.598c-7.527,-1.727 -13.246,-7.943 -14.341,-15.587c-1.095,-7.644 2.649,-15.215 9.389,-18.985l64.951,-36.29c2.314,-1.291 3.973,-3.506 4.563,-6.089l16.471,-72.012c1.497,-6.916 6.694,-12.47 13.496,-14.423c8.258,-2.221 17.038,1.488 21.203,8.956l36.291,64.951c1.291,2.314 3.505,3.974 6.089,4.563l72.526,16.599c7.527,1.727 13.246,7.942 14.341,15.587c1.094,7.644 -2.65,15.215 -9.389,18.985l-64.951,36.29c-2.314,1.291 -3.973,3.506 -4.563,6.089l-16.598,72.527c-1.722,7.531 -7.938,13.257 -15.585,14.355Z" style="fill-rule:nonzero;"/><path d="M1865.68,1455.26c-8.886,-0.689 -16.472,-6.814 -19.02,-15.355l-24.557,-82.248c-0.873,-2.929 -2.95,-5.354 -5.711,-6.667l-77.5,-36.898c-8.042,-3.834 -12.921,-12.269 -12.235,-21.151c0.686,-8.883 6.803,-16.468 15.338,-19.022l82.248,-24.557c2.929,-0.873 5.354,-2.95 6.667,-5.711l36.626,-76.953c3.422,-7.412 10.668,-12.36 18.817,-12.852c9.856,-0.427 18.812,5.953 21.628,15.408l24.557,82.248c0.873,2.929 2.951,5.354 5.711,6.667l77.5,36.898c8.042,3.834 12.921,12.269 12.235,21.152c-0.686,8.882 -6.803,16.467 -15.338,19.021l-82.248,24.558c-2.929,0.872 -5.354,2.95 -6.667,5.71l-36.898,77.5c-3.829,8.049 -12.266,12.936 -21.153,12.252Z" style="fill-rule:nonzero;"/><path d="M391.353,920.397c-6.312,-6.342 -8.075,-15.969 -4.422,-24.136l35.154,-78.666c1.254,-2.801 1.261,-6.006 0.019,-8.812l-34.821,-78.814c-3.61,-8.182 -1.801,-17.795 4.536,-24.105c6.337,-6.31 15.957,-8.078 24.124,-4.434l78.666,35.155c2.8,1.253 6.005,1.26 8.811,0.019l78.248,-34.584c7.457,-3.399 16.21,-2.422 22.733,2.539c7.781,6.127 10.419,16.845 6.372,25.883l-35.155,78.666c-1.253,2.801 -1.26,6.006 -0.018,8.812l34.821,78.814c3.61,8.181 1.801,17.794 -4.536,24.104c-6.337,6.311 -15.957,8.079 -24.124,4.435l-78.666,-35.155c-2.8,-1.254 -6.005,-1.26 -8.811,-0.019l-78.814,34.822c-8.183,3.618 -17.802,1.814 -24.117,-4.524Z" style="fill-rule:nonzero;"/><path d="M2948.76,1019.13c-8.283,0.188 -15.869,-4.772 -19.018,-12.435l-30.354,-73.791c-1.08,-2.629 -3.226,-4.679 -5.901,-5.636l-75.109,-26.929c-7.794,-2.799 -13.091,-10.147 -13.281,-18.427c-0.19,-8.279 4.762,-15.863 12.419,-19.017l73.792,-30.355c2.628,-1.079 4.678,-3.226 5.635,-5.901l26.728,-74.577c2.477,-7.173 8.719,-12.424 16.21,-13.635c9.077,-1.311 17.953,3.758 21.436,12.242l30.354,73.791c1.079,2.628 3.226,4.678 5.901,5.636l75.109,26.929c7.794,2.799 13.09,10.147 13.281,18.426c0.19,8.279 -4.763,15.864 -12.42,19.018l-73.791,30.354c-2.628,1.08 -4.678,3.226 -5.636,5.901l-26.928,75.109c-2.794,7.801 -10.144,13.104 -18.427,13.297Z" style="fill-rule:nonzero;"/></g></svg>