%TF.GenerationSoftware,KiCad,Pcbnew,8.0.6*%
%TF.CreationDate,2024-11-14T14:47:25+01:00*%
%TF.ProjectId,TwinkleTron,5477696e-6b6c-4655-9472-6f6e2e6b6963,rev?*%
%TF.SameCoordinates,Original*%
%TF.FileFunction,Paste,Top*%
%TF.FilePolarity,Positive*%
%FSLAX46Y46*%
G04 Gerber Fmt 4.6, Leading zero omitted, Abs format (unit mm)*
G04 Created by KiCad (PCBNEW 8.0.6) date 2024-11-14 14:47:25*
%MOMM*%
%LPD*%
G01*
G04 APERTURE LIST*
G04 Aperture macros list*
%AMRoundRect*
0 Rectangle with rounded corners*
0 $1 Rounding radius*
0 $2 $3 $4 $5 $6 $7 $8 $9 X,Y pos of 4 corners*
0 Add a 4 corners polygon primitive as box body*
4,1,4,$2,$3,$4,$5,$6,$7,$8,$9,$2,$3,0*
0 Add four circle primitives for the rounded corners*
1,1,$1+$1,$2,$3*
1,1,$1+$1,$4,$5*
1,1,$1+$1,$6,$7*
1,1,$1+$1,$8,$9*
0 Add four rect primitives between the rounded corners*
20,1,$1+$1,$2,$3,$4,$5,0*
20,1,$1+$1,$4,$5,$6,$7,0*
20,1,$1+$1,$6,$7,$8,$9,0*
20,1,$1+$1,$8,$9,$2,$3,0*%
%AMFreePoly0*
4,1,9,3.862500,-0.866500,0.737500,-0.866500,0.737500,-0.450000,-0.737500,-0.450000,-0.737500,0.450000,0.737500,0.450000,0.737500,0.866500,3.862500,0.866500,3.862500,-0.866500,3.862500,-0.866500,$1*%
G04 Aperture macros list end*
%ADD10RoundRect,0.237500X0.237500X-0.250000X0.237500X0.250000X-0.237500X0.250000X-0.237500X-0.250000X0*%
%ADD11RoundRect,0.237500X-0.237500X0.250000X-0.237500X-0.250000X0.237500X-0.250000X0.237500X0.250000X0*%
%ADD12RoundRect,0.237500X0.250000X0.237500X-0.250000X0.237500X-0.250000X-0.237500X0.250000X-0.237500X0*%
%ADD13RoundRect,0.112500X0.112500X-0.187500X0.112500X0.187500X-0.112500X0.187500X-0.112500X-0.187500X0*%
%ADD14RoundRect,0.050000X-0.285000X-0.100000X0.285000X-0.100000X0.285000X0.100000X-0.285000X0.100000X0*%
%ADD15RoundRect,0.237500X0.237500X-0.300000X0.237500X0.300000X-0.237500X0.300000X-0.237500X-0.300000X0*%
%ADD16RoundRect,0.237500X-0.300000X-0.237500X0.300000X-0.237500X0.300000X0.237500X-0.300000X0.237500X0*%
%ADD17RoundRect,0.237500X-0.237500X0.300000X-0.237500X-0.300000X0.237500X-0.300000X0.237500X0.300000X0*%
%ADD18RoundRect,0.150000X0.150000X-0.512500X0.150000X0.512500X-0.150000X0.512500X-0.150000X-0.512500X0*%
%ADD19RoundRect,0.175000X-0.325000X0.175000X-0.325000X-0.175000X0.325000X-0.175000X0.325000X0.175000X0*%
%ADD20RoundRect,0.150000X-0.150000X0.200000X-0.150000X-0.200000X0.150000X-0.200000X0.150000X0.200000X0*%
%ADD21RoundRect,0.237500X-0.250000X-0.237500X0.250000X-0.237500X0.250000X0.237500X-0.250000X0.237500X0*%
%ADD22RoundRect,0.250000X0.800000X-0.450000X0.800000X0.450000X-0.800000X0.450000X-0.800000X-0.450000X0*%
%ADD23RoundRect,0.225000X0.425000X0.225000X-0.425000X0.225000X-0.425000X-0.225000X0.425000X-0.225000X0*%
%ADD24FreePoly0,180.000000*%
%ADD25RoundRect,0.150000X0.587500X0.150000X-0.587500X0.150000X-0.587500X-0.150000X0.587500X-0.150000X0*%
%ADD26RoundRect,0.237500X0.300000X0.237500X-0.300000X0.237500X-0.300000X-0.237500X0.300000X-0.237500X0*%
%ADD27RoundRect,0.250000X0.450000X-0.400000X0.450000X0.400000X-0.450000X0.400000X-0.450000X-0.400000X0*%
%ADD28RoundRect,0.250000X-0.450000X-0.800000X0.450000X-0.800000X0.450000X0.800000X-0.450000X0.800000X0*%
%ADD29RoundRect,0.150000X0.150000X-0.825000X0.150000X0.825000X-0.150000X0.825000X-0.150000X-0.825000X0*%
%ADD30RoundRect,0.150000X0.825000X0.150000X-0.825000X0.150000X-0.825000X-0.150000X0.825000X-0.150000X0*%
%ADD31R,0.700000X0.700000*%
%ADD32R,1.500000X0.900000*%
%ADD33R,4.240000X3.810000*%
%ADD34R,1.450000X0.600000*%
%ADD35R,1.450000X0.300000*%
%ADD36RoundRect,0.250000X0.625000X-0.400000X0.625000X0.400000X-0.625000X0.400000X-0.625000X-0.400000X0*%
%ADD37RoundRect,0.112500X-0.187500X-0.112500X0.187500X-0.112500X0.187500X0.112500X-0.187500X0.112500X0*%
%ADD38RoundRect,0.250000X0.650000X-1.000000X0.650000X1.000000X-0.650000X1.000000X-0.650000X-1.000000X0*%
%ADD39RoundRect,0.200000X-0.800000X0.200000X-0.800000X-0.200000X0.800000X-0.200000X0.800000X0.200000X0*%
%ADD40RoundRect,0.250000X0.850000X-0.375000X0.850000X0.375000X-0.850000X0.375000X-0.850000X-0.375000X0*%
G04 APERTURE END LIST*
D10*
%TO.C,R10*%
X19900000Y-41070000D03*
X19900000Y-39245000D03*
%TD*%
D11*
%TO.C,R15*%
X11750000Y-37450000D03*
X11750000Y-39275000D03*
%TD*%
D12*
%TO.C,R4*%
X27800000Y-7700000D03*
X25975000Y-7700000D03*
%TD*%
D13*
%TO.C,D5*%
X17930000Y-34970000D03*
X17930000Y-32870000D03*
%TD*%
D14*
%TO.C,U7*%
X25460000Y-22990000D03*
X25460000Y-23490000D03*
X25460000Y-23990000D03*
X25460000Y-24490000D03*
X26940000Y-24490000D03*
X26940000Y-23990000D03*
X26940000Y-23490000D03*
X26940000Y-22990000D03*
%TD*%
D15*
%TO.C,C8*%
X24910000Y-43072500D03*
X24910000Y-41347500D03*
%TD*%
D16*
%TO.C,C2*%
X1325000Y-8950000D03*
X3050000Y-8950000D03*
%TD*%
D11*
%TO.C,R5*%
X4620000Y-14627500D03*
X4620000Y-16452500D03*
%TD*%
%TO.C,R7*%
X1400000Y-28250000D03*
X1400000Y-30075000D03*
%TD*%
D17*
%TO.C,C16*%
X11170000Y-21647500D03*
X11170000Y-23372500D03*
%TD*%
D18*
%TO.C,U4*%
X19650000Y-32310000D03*
X20600000Y-32310000D03*
X21550000Y-32310000D03*
X21550000Y-30035000D03*
X20600000Y-30035000D03*
X19650000Y-30035000D03*
%TD*%
D12*
%TO.C,R13*%
X26940000Y-25870000D03*
X25115000Y-25870000D03*
%TD*%
D10*
%TO.C,R16*%
X28410000Y-26812500D03*
X28410000Y-24987500D03*
%TD*%
D19*
%TO.C,D1*%
X27712500Y-9100000D03*
D20*
X26012500Y-9100000D03*
X26012500Y-11100000D03*
X27912500Y-11100000D03*
%TD*%
D21*
%TO.C,R2*%
X30487500Y-8100000D03*
X32312500Y-8100000D03*
%TD*%
D22*
%TO.C,D10*%
X2170000Y-24007500D03*
X2170000Y-19607500D03*
%TD*%
D13*
%TO.C,D6*%
X13550000Y-39275000D03*
X13550000Y-37175000D03*
%TD*%
D23*
%TO.C,U8*%
X7870000Y-24640000D03*
D24*
X7782500Y-23140000D03*
D23*
X7870000Y-21640000D03*
%TD*%
D25*
%TO.C,Q1*%
X6437500Y-41130000D03*
X6437500Y-39230000D03*
X4562500Y-40180000D03*
%TD*%
D10*
%TO.C,R14*%
X15250000Y-39275000D03*
X15250000Y-37450000D03*
%TD*%
D26*
%TO.C,C6*%
X21542500Y-34017500D03*
X19817500Y-34017500D03*
%TD*%
D17*
%TO.C,C10*%
X7000000Y-27675000D03*
X7000000Y-29400000D03*
%TD*%
D27*
%TO.C,D9*%
X17650000Y-41000000D03*
X17650000Y-38100000D03*
%TD*%
D28*
%TO.C,D8*%
X11950000Y-26120000D03*
X16350000Y-26120000D03*
%TD*%
D11*
%TO.C,R12*%
X31650000Y-22175000D03*
X31650000Y-24000000D03*
%TD*%
D29*
%TO.C,U6*%
X8540000Y-34350000D03*
X9810000Y-34350000D03*
X11080000Y-34350000D03*
X12350000Y-34350000D03*
X13620000Y-34350000D03*
X14890000Y-34350000D03*
X16160000Y-34350000D03*
X16160000Y-29400000D03*
X14890000Y-29400000D03*
X13620000Y-29400000D03*
X12350000Y-29400000D03*
X11080000Y-29400000D03*
X9810000Y-29400000D03*
X8540000Y-29400000D03*
%TD*%
D12*
%TO.C,R17*%
X23352500Y-35940000D03*
X21527500Y-35940000D03*
%TD*%
D15*
%TO.C,C9*%
X18050000Y-30035000D03*
X18050000Y-28310000D03*
%TD*%
D30*
%TO.C,U5*%
X32725000Y-42800000D03*
X32725000Y-41530000D03*
X32725000Y-40260000D03*
X32725000Y-38990000D03*
X27775000Y-38990000D03*
X27775000Y-40260000D03*
X27775000Y-41530000D03*
X27775000Y-42800000D03*
%TD*%
D26*
%TO.C,C14*%
X18512500Y-36460000D03*
X16787500Y-36460000D03*
%TD*%
D11*
%TO.C,R18*%
X20050000Y-35937500D03*
X20050000Y-37762500D03*
%TD*%
D17*
%TO.C,C15*%
X9670000Y-21647500D03*
X9670000Y-23372500D03*
%TD*%
D31*
%TO.C,U1*%
X14960000Y-12550000D03*
X14960000Y-13650000D03*
X14960000Y-14750000D03*
X16060000Y-12550000D03*
X16060000Y-13650000D03*
X16060000Y-14750000D03*
X17160000Y-12550000D03*
X17160000Y-13650000D03*
X17160000Y-14750000D03*
D32*
X6350000Y-7450000D03*
X6350000Y-8950000D03*
X6350000Y-10450000D03*
X6350000Y-11950000D03*
X6350000Y-13450000D03*
X6350000Y-14950000D03*
X6350000Y-16450000D03*
X6350000Y-17950000D03*
X6350000Y-19450000D03*
X23850000Y-19450000D03*
X23850000Y-17950000D03*
X23850000Y-16450000D03*
X23850000Y-14950000D03*
X23850000Y-13450000D03*
X23850000Y-11950000D03*
X23850000Y-10450000D03*
X23850000Y-8950000D03*
X23850000Y-7450000D03*
%TD*%
D10*
%TO.C,R9*%
X8362500Y-41130000D03*
X8362500Y-39305000D03*
%TD*%
D26*
%TO.C,C13*%
X18112500Y-22390000D03*
X16387500Y-22390000D03*
%TD*%
D12*
%TO.C,R1*%
X34112500Y-20250000D03*
X32287500Y-20250000D03*
%TD*%
D13*
%TO.C,D2*%
X1600000Y-46690000D03*
X1600000Y-44590000D03*
%TD*%
D26*
%TO.C,C12*%
X18112500Y-23850000D03*
X16387500Y-23850000D03*
%TD*%
D33*
%TO.C,F2*%
X26480000Y-46650000D03*
X32850000Y-46650000D03*
%TD*%
D34*
%TO.C,J1*%
X29905000Y-17450000D03*
X29905000Y-16650000D03*
D35*
X29905000Y-15450000D03*
X29905000Y-14450000D03*
X29905000Y-13950000D03*
X29905000Y-12950000D03*
D34*
X29905000Y-11750000D03*
X29905000Y-10950000D03*
X29905000Y-10950000D03*
X29905000Y-11750000D03*
D35*
X29905000Y-12450000D03*
X29905000Y-13450000D03*
X29905000Y-14950000D03*
X29905000Y-15950000D03*
D34*
X29905000Y-16650000D03*
X29905000Y-17450000D03*
%TD*%
D36*
%TO.C,F1*%
X28780000Y-35580000D03*
X28780000Y-32480000D03*
%TD*%
D37*
%TO.C,D4*%
X21580000Y-37720000D03*
X23680000Y-37720000D03*
%TD*%
D38*
%TO.C,D3*%
X25160000Y-33070000D03*
X25160000Y-29070000D03*
%TD*%
D13*
%TO.C,D7*%
X10050000Y-39275000D03*
X10050000Y-37175000D03*
%TD*%
D26*
%TO.C,C17*%
X5462500Y-26400000D03*
X3737500Y-26400000D03*
%TD*%
D16*
%TO.C,C5*%
X21580000Y-41070000D03*
X23305000Y-41070000D03*
%TD*%
%TO.C,C3*%
X2920000Y-28595000D03*
X4645000Y-28595000D03*
%TD*%
D10*
%TO.C,R6*%
X4600000Y-10775000D03*
X4600000Y-8950000D03*
%TD*%
D16*
%TO.C,C1*%
X1337500Y-10520000D03*
X3062500Y-10520000D03*
%TD*%
D39*
%TO.C,SW1*%
X2190000Y-13750000D03*
X2190000Y-17950000D03*
%TD*%
D16*
%TO.C,C4*%
X2837500Y-7450000D03*
X4562500Y-7450000D03*
%TD*%
D40*
%TO.C,L1*%
X20750000Y-27895000D03*
X20750000Y-25745000D03*
%TD*%
D12*
%TO.C,R3*%
X4502500Y-12350000D03*
X2677500Y-12350000D03*
%TD*%
D21*
%TO.C,R8*%
X2920000Y-30085000D03*
X4745000Y-30085000D03*
%TD*%
D12*
%TO.C,R11*%
X23405000Y-39500000D03*
X21580000Y-39500000D03*
%TD*%
M02*
