%TF.GenerationSoftware,KiCad,Pcbnew,8.0.6*%
%TF.CreationDate,2024-11-14T14:47:25+01:00*%
%TF.ProjectId,TwinkleTron,5477696e-6b6c-4655-9472-6f6e2e6b6963,rev?*%
%TF.SameCoordinates,Original*%
%TF.FileFunction,Legend,Bot*%
%TF.FilePolarity,Positive*%
%FSLAX46Y46*%
G04 Gerber Fmt 4.6, Leading zero omitted, Abs format (unit mm)*
G04 Created by KiCad (PCBNEW 8.0.6) date 2024-11-14 14:47:25*
%MOMM*%
%LPD*%
G01*
G04 APERTURE LIST*
G04 Aperture macros list*
%AMRoundRect*
0 Rectangle with rounded corners*
0 $1 Rounding radius*
0 $2 $3 $4 $5 $6 $7 $8 $9 X,Y pos of 4 corners*
0 Add a 4 corners polygon primitive as box body*
4,1,4,$2,$3,$4,$5,$6,$7,$8,$9,$2,$3,0*
0 Add four circle primitives for the rounded corners*
1,1,$1+$1,$2,$3*
1,1,$1+$1,$4,$5*
1,1,$1+$1,$6,$7*
1,1,$1+$1,$8,$9*
0 Add four rect primitives between the rounded corners*
20,1,$1+$1,$2,$3,$4,$5,0*
20,1,$1+$1,$4,$5,$6,$7,0*
20,1,$1+$1,$6,$7,$8,$9,0*
20,1,$1+$1,$8,$9,$2,$3,0*%
%AMFreePoly0*
4,1,19,0.550000,-0.750000,0.000000,-0.750000,0.000000,-0.744911,-0.071157,-0.744911,-0.207708,-0.704816,-0.327430,-0.627875,-0.420627,-0.520320,-0.479746,-0.390866,-0.500000,-0.250000,-0.500000,0.250000,-0.479746,0.390866,-0.420627,0.520320,-0.327430,0.627875,-0.207708,0.704816,-0.071157,0.744911,0.000000,0.744911,0.000000,0.750000,0.550000,0.750000,0.550000,-0.750000,0.550000,-0.750000,
$1*%
%AMFreePoly1*
4,1,19,0.000000,0.744911,0.071157,0.744911,0.207708,0.704816,0.327430,0.627875,0.420627,0.520320,0.479746,0.390866,0.500000,0.250000,0.500000,-0.250000,0.479746,-0.390866,0.420627,-0.520320,0.327430,-0.627875,0.207708,-0.704816,0.071157,-0.744911,0.000000,-0.744911,0.000000,-0.750000,-0.550000,-0.750000,-0.550000,0.750000,0.000000,0.750000,0.000000,0.744911,0.000000,0.744911,
$1*%
G04 Aperture macros list end*
%ADD10C,0.000000*%
%ADD11C,0.300000*%
%ADD12C,0.150000*%
%ADD13C,0.350000*%
%ADD14C,0.120000*%
%ADD15R,2.600000X2.600000*%
%ADD16C,2.600000*%
%ADD17C,2.500000*%
%ADD18C,2.250000*%
%ADD19C,1.900000*%
%ADD20R,1.900000X2.000000*%
%ADD21O,1.700000X1.700000*%
%ADD22R,1.700000X1.700000*%
%ADD23RoundRect,0.250200X0.649800X-0.649800X0.649800X0.649800X-0.649800X0.649800X-0.649800X-0.649800X0*%
%ADD24C,1.800000*%
%ADD25C,0.650000*%
%ADD26O,2.100000X1.000000*%
%ADD27O,1.600000X1.000000*%
%ADD28R,2.000000X2.000000*%
%ADD29C,2.000000*%
%ADD30R,1.500000X1.500000*%
%ADD31C,1.500000*%
%ADD32RoundRect,0.237500X-0.237500X0.300000X-0.237500X-0.300000X0.237500X-0.300000X0.237500X0.300000X0*%
%ADD33FreePoly0,270.000000*%
%ADD34R,1.500000X1.000000*%
%ADD35FreePoly1,270.000000*%
G04 APERTURE END LIST*
D10*
G36*
X6438720Y-8788491D02*
G01*
X6443901Y-8788876D01*
X6449098Y-8789485D01*
X6457580Y-8791107D01*
X6465861Y-8793288D01*
X6473919Y-8796006D01*
X6481732Y-8799244D01*
X6489279Y-8802985D01*
X6496534Y-8807210D01*
X6503478Y-8811898D01*
X6510088Y-8817034D01*
X6516343Y-8822598D01*
X6522218Y-8828571D01*
X6527694Y-8834937D01*
X6532747Y-8841674D01*
X6537356Y-8848765D01*
X6541497Y-8856193D01*
X6545149Y-8863939D01*
X6548291Y-8871982D01*
X6713599Y-9325305D01*
X6714787Y-9328316D01*
X6716125Y-9331246D01*
X6717609Y-9334090D01*
X6719236Y-9336842D01*
X6720998Y-9339499D01*
X6722894Y-9342056D01*
X6724918Y-9344507D01*
X6727063Y-9346848D01*
X6729330Y-9349076D01*
X6731707Y-9351183D01*
X6734196Y-9353165D01*
X6736790Y-9355020D01*
X6739484Y-9356742D01*
X6742274Y-9358325D01*
X6745156Y-9359765D01*
X6748123Y-9361057D01*
X7198586Y-9543440D01*
X7207174Y-9547311D01*
X7215351Y-9551779D01*
X7223098Y-9556813D01*
X7230393Y-9562380D01*
X7237215Y-9568445D01*
X7243543Y-9574978D01*
X7249355Y-9581945D01*
X7254627Y-9589315D01*
X7259342Y-9597055D01*
X7263474Y-9605132D01*
X7267004Y-9613513D01*
X7269911Y-9622167D01*
X7272174Y-9631060D01*
X7273767Y-9640160D01*
X7274674Y-9649433D01*
X7274871Y-9658851D01*
X7274698Y-9663568D01*
X7274345Y-9668251D01*
X7273818Y-9672893D01*
X7273116Y-9677489D01*
X7272245Y-9682035D01*
X7271206Y-9686527D01*
X7270000Y-9690962D01*
X7268634Y-9695336D01*
X7267109Y-9699644D01*
X7265427Y-9703882D01*
X7263591Y-9708048D01*
X7261606Y-9712136D01*
X7259472Y-9716143D01*
X7257194Y-9720065D01*
X7254773Y-9723896D01*
X7252213Y-9727634D01*
X7249516Y-9731275D01*
X7246686Y-9734816D01*
X7243724Y-9738251D01*
X7240635Y-9741577D01*
X7237421Y-9744789D01*
X7234083Y-9747885D01*
X7230627Y-9750859D01*
X7227054Y-9753708D01*
X7223368Y-9756429D01*
X7219569Y-9759016D01*
X7215662Y-9761466D01*
X7211651Y-9763777D01*
X7207535Y-9765941D01*
X7203322Y-9767957D01*
X7199011Y-9769821D01*
X7194605Y-9771526D01*
X6738051Y-9938078D01*
X6735040Y-9939264D01*
X6732110Y-9940605D01*
X6729267Y-9942089D01*
X6726514Y-9943714D01*
X6723857Y-9945477D01*
X6721301Y-9947372D01*
X6718851Y-9949395D01*
X6716508Y-9951543D01*
X6714282Y-9953807D01*
X6712174Y-9956187D01*
X6710190Y-9958675D01*
X6708336Y-9961269D01*
X6706615Y-9963963D01*
X6705032Y-9966752D01*
X6703593Y-9969634D01*
X6702300Y-9972602D01*
X6519917Y-10423066D01*
X6516050Y-10431659D01*
X6511586Y-10439844D01*
X6506558Y-10447598D01*
X6500994Y-10454902D01*
X6494929Y-10461731D01*
X6488398Y-10468066D01*
X6481431Y-10473884D01*
X6474062Y-10479164D01*
X6466320Y-10483884D01*
X6458243Y-10488022D01*
X6449858Y-10491559D01*
X6441203Y-10494471D01*
X6432307Y-10496739D01*
X6423204Y-10498337D01*
X6413926Y-10499249D01*
X6404506Y-10499447D01*
X6399785Y-10499273D01*
X6395099Y-10498920D01*
X6390456Y-10498389D01*
X6385858Y-10497685D01*
X6381310Y-10496811D01*
X6376816Y-10495770D01*
X6372380Y-10494563D01*
X6368005Y-10493193D01*
X6363695Y-10491666D01*
X6359455Y-10489981D01*
X6355289Y-10488144D01*
X6351200Y-10486154D01*
X6347192Y-10484018D01*
X6343272Y-10481736D01*
X6339439Y-10479312D01*
X6335700Y-10476749D01*
X6332060Y-10474049D01*
X6328520Y-10471215D01*
X6325085Y-10468249D01*
X6321760Y-10465157D01*
X6318547Y-10461939D01*
X6315452Y-10458598D01*
X6312479Y-10455137D01*
X6309632Y-10451562D01*
X6306912Y-10447870D01*
X6304326Y-10444068D01*
X6301878Y-10440159D01*
X6299571Y-10436143D01*
X6297408Y-10432026D01*
X6295395Y-10427807D01*
X6293534Y-10423493D01*
X6291831Y-10419084D01*
X6125278Y-9962530D01*
X6124091Y-9959519D01*
X6122754Y-9956588D01*
X6121269Y-9953746D01*
X6119643Y-9950993D01*
X6117879Y-9948336D01*
X6115984Y-9945780D01*
X6113961Y-9943329D01*
X6111815Y-9940988D01*
X6109549Y-9938760D01*
X6107171Y-9936652D01*
X6104682Y-9934670D01*
X6102088Y-9932815D01*
X6099394Y-9931095D01*
X6096604Y-9929512D01*
X6093723Y-9928070D01*
X6090755Y-9926779D01*
X5640292Y-9744396D01*
X5631705Y-9740524D01*
X5623527Y-9736056D01*
X5615780Y-9731022D01*
X5608485Y-9725456D01*
X5601663Y-9719391D01*
X5595335Y-9712858D01*
X5589524Y-9705890D01*
X5584252Y-9698520D01*
X5579537Y-9690781D01*
X5575404Y-9682703D01*
X5571874Y-9674321D01*
X5568968Y-9665668D01*
X5566704Y-9656775D01*
X5565111Y-9647676D01*
X5564205Y-9638402D01*
X5564007Y-9628989D01*
X5564180Y-9624267D01*
X5564533Y-9619584D01*
X5565060Y-9614943D01*
X5565763Y-9610347D01*
X5566633Y-9605800D01*
X5567673Y-9601308D01*
X5568878Y-9596873D01*
X5570245Y-9592499D01*
X5571769Y-9588191D01*
X5573451Y-9583952D01*
X5575287Y-9579787D01*
X5577272Y-9575699D01*
X5579406Y-9571692D01*
X5581684Y-9567771D01*
X5584105Y-9563939D01*
X5586666Y-9560201D01*
X5589363Y-9556559D01*
X5592192Y-9553019D01*
X5595155Y-9549584D01*
X5598243Y-9546259D01*
X5601458Y-9543046D01*
X5604795Y-9539951D01*
X5608252Y-9536977D01*
X5611825Y-9534128D01*
X5615511Y-9531406D01*
X5619310Y-9528819D01*
X5623216Y-9526369D01*
X5627228Y-9524058D01*
X5631343Y-9521894D01*
X5635556Y-9519878D01*
X5639867Y-9518016D01*
X5644274Y-9516310D01*
X6100827Y-9349758D01*
X6103838Y-9348571D01*
X6106768Y-9347232D01*
X6109611Y-9345748D01*
X6112364Y-9344121D01*
X6115021Y-9342358D01*
X6117578Y-9340463D01*
X6120027Y-9338441D01*
X6122370Y-9336293D01*
X6124596Y-9334029D01*
X6126704Y-9331649D01*
X6128689Y-9329160D01*
X6130542Y-9326566D01*
X6132264Y-9323873D01*
X6133847Y-9321082D01*
X6135285Y-9318201D01*
X6136577Y-9315233D01*
X6318961Y-8864770D01*
X6321024Y-8859961D01*
X6323273Y-8855277D01*
X6328304Y-8846301D01*
X6334010Y-8837867D01*
X6340346Y-8830003D01*
X6347268Y-8822733D01*
X6354729Y-8816083D01*
X6362685Y-8810083D01*
X6371089Y-8804753D01*
X6379899Y-8800124D01*
X6389068Y-8796219D01*
X6398551Y-8793066D01*
X6408303Y-8790691D01*
X6418279Y-8789119D01*
X6428434Y-8788376D01*
X6438720Y-8788491D01*
G37*
G36*
X10850894Y-34000426D02*
G01*
X10869488Y-34002276D01*
X10899878Y-34007538D01*
X10929584Y-34014810D01*
X10958528Y-34024014D01*
X10986628Y-34035090D01*
X11013808Y-34047978D01*
X11039980Y-34062610D01*
X11065070Y-34078920D01*
X11088994Y-34096848D01*
X11111674Y-34116324D01*
X11133028Y-34137288D01*
X11152978Y-34159678D01*
X11171440Y-34183420D01*
X11188340Y-34208458D01*
X11203594Y-34234722D01*
X11217116Y-34262152D01*
X11228836Y-34290678D01*
X11847388Y-35899140D01*
X11851816Y-35909818D01*
X11856778Y-35920198D01*
X11862256Y-35930260D01*
X11868232Y-35939986D01*
X11874694Y-35949366D01*
X11881622Y-35958376D01*
X11889002Y-35967004D01*
X11896810Y-35975230D01*
X11905040Y-35983042D01*
X11913664Y-35990418D01*
X11922676Y-35997342D01*
X11932052Y-36003804D01*
X11941780Y-36009784D01*
X11951842Y-36015262D01*
X11962220Y-36020224D01*
X11972900Y-36024652D01*
X13592818Y-36647844D01*
X13623722Y-36661132D01*
X13653202Y-36676578D01*
X13681180Y-36694072D01*
X13707578Y-36713494D01*
X13732318Y-36734728D01*
X13755320Y-36757660D01*
X13776506Y-36782178D01*
X13795792Y-36808168D01*
X13813108Y-36835510D01*
X13828370Y-36864096D01*
X13841498Y-36893806D01*
X13852418Y-36924526D01*
X13861052Y-36956140D01*
X13867310Y-36988536D01*
X13871126Y-37021596D01*
X13872416Y-37055212D01*
X13872092Y-37072074D01*
X13871126Y-37088820D01*
X13869530Y-37105428D01*
X13867310Y-37121882D01*
X13864484Y-37138170D01*
X13861052Y-37154276D01*
X13857026Y-37170188D01*
X13852418Y-37185890D01*
X13847240Y-37201370D01*
X13841498Y-37216610D01*
X13835204Y-37231598D01*
X13828370Y-37246320D01*
X13820998Y-37260762D01*
X13813108Y-37274906D01*
X13804702Y-37288740D01*
X13795792Y-37302248D01*
X13786388Y-37315418D01*
X13776506Y-37328238D01*
X13766144Y-37340688D01*
X13755320Y-37352756D01*
X13744040Y-37364426D01*
X13732318Y-37375692D01*
X13720160Y-37386528D01*
X13707578Y-37396922D01*
X13694582Y-37406870D01*
X13681180Y-37416344D01*
X13667384Y-37425338D01*
X13653202Y-37433838D01*
X13638644Y-37441824D01*
X13623722Y-37449284D01*
X13608446Y-37456206D01*
X13592818Y-37462574D01*
X11972900Y-38085764D01*
X11962220Y-38090192D01*
X11951842Y-38095158D01*
X11941780Y-38100636D01*
X11932054Y-38106612D01*
X11922676Y-38113074D01*
X11913664Y-38120000D01*
X11905040Y-38127378D01*
X11896810Y-38135190D01*
X11889002Y-38143416D01*
X11881624Y-38152044D01*
X11874694Y-38161052D01*
X11868236Y-38170430D01*
X11862256Y-38180160D01*
X11856778Y-38190218D01*
X11851820Y-38200598D01*
X11847388Y-38211278D01*
X11224196Y-39831198D01*
X11210926Y-39862124D01*
X11195494Y-39891630D01*
X11178020Y-39919634D01*
X11158606Y-39946062D01*
X11137378Y-39970824D01*
X11114450Y-39993852D01*
X11089934Y-40015062D01*
X11063948Y-40034376D01*
X11036600Y-40051712D01*
X11008012Y-40066994D01*
X10978294Y-40080150D01*
X10947568Y-40091084D01*
X10915942Y-40099736D01*
X10883534Y-40106012D01*
X10850458Y-40109844D01*
X10816832Y-40111142D01*
X10799958Y-40110812D01*
X10783206Y-40109844D01*
X10766592Y-40108238D01*
X10750128Y-40106012D01*
X10733834Y-40103174D01*
X10717722Y-40099736D01*
X10701804Y-40095702D01*
X10686096Y-40091084D01*
X10670610Y-40085898D01*
X10655364Y-40080150D01*
X10640376Y-40073844D01*
X10625652Y-40066994D01*
X10611206Y-40059618D01*
X10597064Y-40051712D01*
X10583226Y-40043294D01*
X10569716Y-40034376D01*
X10556546Y-40024962D01*
X10543730Y-40015062D01*
X10531278Y-40004688D01*
X10519214Y-39993852D01*
X10507542Y-39982562D01*
X10496282Y-39970824D01*
X10485446Y-39958652D01*
X10475058Y-39946062D01*
X10465116Y-39933048D01*
X10455644Y-39919634D01*
X10446660Y-39905828D01*
X10438170Y-39891630D01*
X10430190Y-39877062D01*
X10422738Y-39862124D01*
X10415826Y-39846834D01*
X10409468Y-39831198D01*
X9786272Y-38211278D01*
X9781844Y-38200598D01*
X9776886Y-38190218D01*
X9771408Y-38180160D01*
X9765428Y-38170430D01*
X9758966Y-38161052D01*
X9752040Y-38152044D01*
X9744662Y-38143416D01*
X9736854Y-38135190D01*
X9728624Y-38127378D01*
X9720000Y-38120000D01*
X9710988Y-38113074D01*
X9701610Y-38106612D01*
X9691884Y-38100636D01*
X9681822Y-38095158D01*
X9671444Y-38090192D01*
X9660764Y-38085764D01*
X8040846Y-37462574D01*
X8009942Y-37449284D01*
X7980462Y-37433838D01*
X7952484Y-37416344D01*
X7926086Y-37396922D01*
X7901346Y-37375692D01*
X7878344Y-37352756D01*
X7857158Y-37328238D01*
X7837872Y-37302248D01*
X7820556Y-37274906D01*
X7805294Y-37246320D01*
X7792166Y-37216610D01*
X7781246Y-37185890D01*
X7772612Y-37154276D01*
X7766354Y-37121882D01*
X7762538Y-37088820D01*
X7761248Y-37055212D01*
X7761572Y-37038342D01*
X7762538Y-37021596D01*
X7764134Y-37004992D01*
X7766354Y-36988536D01*
X7769180Y-36972246D01*
X7772612Y-36956140D01*
X7776638Y-36940228D01*
X7781246Y-36924526D01*
X7786424Y-36909046D01*
X7792166Y-36893806D01*
X7798460Y-36878818D01*
X7805294Y-36864096D01*
X7812666Y-36849654D01*
X7820556Y-36835510D01*
X7828962Y-36821676D01*
X7837872Y-36808168D01*
X7847276Y-36794998D01*
X7857158Y-36782178D01*
X7867520Y-36769728D01*
X7878344Y-36757660D01*
X7889624Y-36745990D01*
X7901346Y-36734728D01*
X7913504Y-36723892D01*
X7926086Y-36713494D01*
X7939082Y-36703548D01*
X7952484Y-36694072D01*
X7966280Y-36685078D01*
X7980462Y-36676578D01*
X7995020Y-36668592D01*
X8009942Y-36661132D01*
X8025218Y-36654214D01*
X8040846Y-36647844D01*
X9660764Y-36024652D01*
X9671444Y-36020224D01*
X9681822Y-36015262D01*
X9691884Y-36009784D01*
X9701612Y-36003804D01*
X9710988Y-35997342D01*
X9720000Y-35990418D01*
X9728624Y-35983042D01*
X9736854Y-35975230D01*
X9744662Y-35967004D01*
X9752040Y-35958376D01*
X9758970Y-35949366D01*
X9765428Y-35939986D01*
X9771408Y-35930260D01*
X9776886Y-35920198D01*
X9781844Y-35909818D01*
X9786272Y-35899140D01*
X10409468Y-34279222D01*
X10416534Y-34261918D01*
X10424274Y-34245054D01*
X10441680Y-34212688D01*
X10461530Y-34182216D01*
X10483664Y-34153738D01*
X10507928Y-34127346D01*
X10534154Y-34103136D01*
X10562190Y-34081212D01*
X10591868Y-34061658D01*
X10623038Y-34044580D01*
X10655538Y-34030066D01*
X10689204Y-34018216D01*
X10723880Y-34009126D01*
X10759404Y-34002888D01*
X10795626Y-33999606D01*
X10832366Y-33999370D01*
X10850894Y-34000426D01*
G37*
G36*
X25859995Y-22385271D02*
G01*
X25895398Y-22388951D01*
X25930478Y-22395522D01*
X25965054Y-22404988D01*
X25998937Y-22417347D01*
X26031948Y-22432616D01*
X26063883Y-22450782D01*
X26079401Y-22460960D01*
X26094579Y-22471859D01*
X26118266Y-22491611D01*
X26140357Y-22512762D01*
X26160821Y-22535205D01*
X26179618Y-22558847D01*
X26196713Y-22583598D01*
X26212062Y-22609356D01*
X26225636Y-22636026D01*
X26237391Y-22663514D01*
X26247294Y-22691721D01*
X26255305Y-22720553D01*
X26261387Y-22749918D01*
X26265505Y-22779711D01*
X26267622Y-22809844D01*
X26267700Y-22840216D01*
X26265696Y-22870732D01*
X26261582Y-22901297D01*
X25993033Y-24603542D01*
X25991529Y-24615003D01*
X25990636Y-24626473D01*
X25990349Y-24637926D01*
X25990662Y-24649337D01*
X25991568Y-24660692D01*
X25993063Y-24671959D01*
X25995140Y-24683121D01*
X25997789Y-24694149D01*
X26001010Y-24705029D01*
X26004791Y-24715729D01*
X26009133Y-24726231D01*
X26014022Y-24736515D01*
X26019457Y-24746558D01*
X26025432Y-24756333D01*
X26031939Y-24765819D01*
X26038974Y-24774994D01*
X27130268Y-26124652D01*
X27150388Y-26151612D01*
X27168195Y-26179729D01*
X27183678Y-26208868D01*
X27196828Y-26238887D01*
X27207636Y-26269646D01*
X27216091Y-26301007D01*
X27222179Y-26332833D01*
X27225887Y-26364984D01*
X27227212Y-26397321D01*
X27226136Y-26429708D01*
X27222650Y-26462002D01*
X27216747Y-26494066D01*
X27208417Y-26525762D01*
X27197639Y-26556946D01*
X27184414Y-26587485D01*
X27168723Y-26617242D01*
X27160011Y-26631683D01*
X27150802Y-26645703D01*
X27141116Y-26659288D01*
X27130966Y-26672427D01*
X27120375Y-26685120D01*
X27109349Y-26697352D01*
X27097907Y-26709120D01*
X27086065Y-26720414D01*
X27073841Y-26731231D01*
X27061248Y-26741558D01*
X27048303Y-26751391D01*
X27035024Y-26760724D01*
X27021419Y-26769545D01*
X27007514Y-26777849D01*
X26993317Y-26785627D01*
X26978847Y-26792870D01*
X26964117Y-26799573D01*
X26949149Y-26805735D01*
X26933951Y-26811336D01*
X26918543Y-26816375D01*
X26902939Y-26820842D01*
X26887154Y-26824737D01*
X26871207Y-26828042D01*
X26855114Y-26830753D01*
X26838885Y-26832870D01*
X26822542Y-26834374D01*
X26806097Y-26835265D01*
X26789565Y-26835535D01*
X26772964Y-26835172D01*
X26756312Y-26834172D01*
X26739621Y-26832528D01*
X26722903Y-26830229D01*
X25008418Y-26559969D01*
X24996955Y-26558463D01*
X24985484Y-26557575D01*
X24974031Y-26557288D01*
X24962620Y-26557601D01*
X24951267Y-26558508D01*
X24940000Y-26560000D01*
X24928842Y-26562077D01*
X24917809Y-26564728D01*
X24906934Y-26567948D01*
X24896230Y-26571731D01*
X24885725Y-26576067D01*
X24875443Y-26580960D01*
X24865399Y-26586396D01*
X24855626Y-26592367D01*
X24846142Y-26598878D01*
X24836964Y-26605911D01*
X23487305Y-27697207D01*
X23460350Y-27717354D01*
X23432232Y-27735191D01*
X23403097Y-27750707D01*
X23373070Y-27763887D01*
X23342305Y-27774717D01*
X23310935Y-27783196D01*
X23279099Y-27789307D01*
X23246937Y-27793040D01*
X23214585Y-27794380D01*
X23182186Y-27793320D01*
X23149872Y-27789855D01*
X23117795Y-27783961D01*
X23086080Y-27775641D01*
X23054876Y-27764872D01*
X23024315Y-27751652D01*
X22994546Y-27735963D01*
X22980097Y-27727241D01*
X22966074Y-27718026D01*
X22952488Y-27708328D01*
X22939343Y-27698169D01*
X22926651Y-27687564D01*
X22914417Y-27676531D01*
X22902648Y-27665078D01*
X22891354Y-27653225D01*
X22880536Y-27640990D01*
X22870206Y-27628390D01*
X22860379Y-27615434D01*
X22851053Y-27602140D01*
X22842230Y-27588529D01*
X22833936Y-27574612D01*
X22826161Y-27560402D01*
X22818920Y-27545924D01*
X22812221Y-27531186D01*
X22806072Y-27516205D01*
X22800475Y-27500995D01*
X22795446Y-27485578D01*
X22790983Y-27469965D01*
X22787100Y-27454169D01*
X22783802Y-27438210D01*
X22781101Y-27422113D01*
X22778998Y-27405871D01*
X22777502Y-27389519D01*
X22776624Y-27373070D01*
X22776371Y-27356529D01*
X22776744Y-27339923D01*
X22777759Y-27323260D01*
X22779418Y-27306563D01*
X22781730Y-27289843D01*
X23051986Y-25575353D01*
X23053492Y-25563890D01*
X23054388Y-25552421D01*
X23054673Y-25540972D01*
X23054359Y-25529556D01*
X23053452Y-25518203D01*
X23051958Y-25506939D01*
X23049882Y-25495778D01*
X23047233Y-25484750D01*
X23044012Y-25473869D01*
X23040232Y-25463168D01*
X23035891Y-25452664D01*
X23031000Y-25442379D01*
X23025565Y-25432340D01*
X23019590Y-25422565D01*
X23013085Y-25413075D01*
X23006050Y-25403901D01*
X21914755Y-24054244D01*
X21894636Y-24027283D01*
X21876829Y-23999166D01*
X21861346Y-23970027D01*
X21848196Y-23940008D01*
X21837386Y-23909252D01*
X21828933Y-23877888D01*
X21822845Y-23846062D01*
X21819137Y-23813911D01*
X21817812Y-23781574D01*
X21818888Y-23749187D01*
X21822374Y-23716893D01*
X21828277Y-23684829D01*
X21836607Y-23653133D01*
X21847384Y-23621950D01*
X21860610Y-23591410D01*
X21876297Y-23561659D01*
X21885013Y-23547212D01*
X21894222Y-23533192D01*
X21903906Y-23519611D01*
X21914057Y-23506469D01*
X21924649Y-23493775D01*
X21935675Y-23481543D01*
X21947117Y-23469775D01*
X21958959Y-23458481D01*
X21971183Y-23447664D01*
X21983776Y-23437337D01*
X21996721Y-23427504D01*
X22010000Y-23418171D01*
X22023605Y-23409350D01*
X22037510Y-23401046D01*
X22051707Y-23393268D01*
X22066177Y-23386025D01*
X22080907Y-23379321D01*
X22095875Y-23373160D01*
X22111073Y-23367559D01*
X22126481Y-23362520D01*
X22142085Y-23358053D01*
X22157868Y-23354161D01*
X22173815Y-23350856D01*
X22189910Y-23348142D01*
X22206138Y-23346026D01*
X22222482Y-23344521D01*
X22238927Y-23343630D01*
X22255459Y-23343360D01*
X22272060Y-23343723D01*
X22288712Y-23344723D01*
X22305401Y-23346370D01*
X22322120Y-23348667D01*
X24036606Y-23618926D01*
X24048069Y-23620431D01*
X24059538Y-23621323D01*
X24070991Y-23621610D01*
X24082406Y-23621295D01*
X24093757Y-23620387D01*
X24105023Y-23618897D01*
X24116180Y-23616821D01*
X24127213Y-23614171D01*
X24138088Y-23610951D01*
X24148792Y-23607168D01*
X24159298Y-23602830D01*
X24169581Y-23597935D01*
X24179623Y-23592502D01*
X24189398Y-23586527D01*
X24198882Y-23580017D01*
X24208055Y-23572984D01*
X25557717Y-22481692D01*
X25572488Y-22470239D01*
X25587623Y-22459504D01*
X25618880Y-22440177D01*
X25651307Y-22423713D01*
X25684715Y-22410117D01*
X25718924Y-22399393D01*
X25753741Y-22391540D01*
X25788983Y-22386571D01*
X25824462Y-22384476D01*
X25859995Y-22385271D01*
G37*
G36*
X28154577Y-8182630D02*
G01*
X28162015Y-8183370D01*
X28174171Y-8185475D01*
X28186053Y-8188384D01*
X28197631Y-8192066D01*
X28208871Y-8196496D01*
X28219743Y-8201651D01*
X28230212Y-8207504D01*
X28240248Y-8214028D01*
X28249817Y-8221199D01*
X28258889Y-8228990D01*
X28267431Y-8237375D01*
X28275411Y-8246331D01*
X28282796Y-8255828D01*
X28289556Y-8265843D01*
X28295657Y-8276349D01*
X28301066Y-8287321D01*
X28305754Y-8298731D01*
X28553175Y-8942116D01*
X28554946Y-8946387D01*
X28556931Y-8950539D01*
X28559122Y-8954564D01*
X28561513Y-8958454D01*
X28564097Y-8962206D01*
X28566869Y-8965810D01*
X28569821Y-8969262D01*
X28572944Y-8972552D01*
X28576236Y-8975677D01*
X28579685Y-8978627D01*
X28583290Y-8981397D01*
X28587041Y-8983982D01*
X28590932Y-8986374D01*
X28594957Y-8988565D01*
X28599108Y-8990550D01*
X28603380Y-8992321D01*
X29251347Y-9241598D01*
X29263709Y-9246913D01*
X29275501Y-9253091D01*
X29286692Y-9260089D01*
X29297251Y-9267858D01*
X29307147Y-9276351D01*
X29316348Y-9285524D01*
X29324822Y-9295331D01*
X29332537Y-9305727D01*
X29339463Y-9316664D01*
X29345568Y-9328098D01*
X29350819Y-9339982D01*
X29355187Y-9352270D01*
X29358641Y-9364916D01*
X29361144Y-9377874D01*
X29362670Y-9391098D01*
X29363186Y-9404545D01*
X29363057Y-9411289D01*
X29362670Y-9417987D01*
X29362032Y-9424630D01*
X29361144Y-9431212D01*
X29360013Y-9437727D01*
X29358641Y-9444170D01*
X29357030Y-9450534D01*
X29355187Y-9456815D01*
X29353116Y-9463007D01*
X29350819Y-9469103D01*
X29348301Y-9475098D01*
X29345568Y-9480987D01*
X29342619Y-9486764D01*
X29339463Y-9492422D01*
X29336101Y-9497955D01*
X29332537Y-9503358D01*
X29328775Y-9508626D01*
X29324822Y-9513754D01*
X29320677Y-9518734D01*
X29316348Y-9523562D01*
X29311836Y-9528230D01*
X29307147Y-9532736D01*
X29302284Y-9537070D01*
X29297251Y-9541228D01*
X29292053Y-9545207D01*
X29286692Y-9548997D01*
X29281173Y-9552594D01*
X29275501Y-9555994D01*
X29269677Y-9559189D01*
X29263709Y-9562173D01*
X29257598Y-9564942D01*
X29251347Y-9567489D01*
X28603380Y-9816765D01*
X28599108Y-9818536D01*
X28594957Y-9820522D01*
X28590932Y-9822714D01*
X28587041Y-9825104D01*
X28583290Y-9827689D01*
X28579685Y-9830459D01*
X28576236Y-9833410D01*
X28572944Y-9836535D01*
X28569821Y-9839826D01*
X28566869Y-9843277D01*
X28564097Y-9846880D01*
X28561514Y-9850631D01*
X28559122Y-9854523D01*
X28556931Y-9858546D01*
X28554948Y-9862698D01*
X28553175Y-9866970D01*
X28303898Y-10514938D01*
X28298590Y-10527309D01*
X28292417Y-10539111D01*
X28285428Y-10550313D01*
X28277662Y-10560884D01*
X28269171Y-10570789D01*
X28260000Y-10580000D01*
X28250193Y-10588484D01*
X28239799Y-10596210D01*
X28228860Y-10603144D01*
X28217425Y-10609257D01*
X28205537Y-10614519D01*
X28193247Y-10618893D01*
X28180597Y-10622354D01*
X28167633Y-10624864D01*
X28154403Y-10626397D01*
X28140953Y-10626916D01*
X28134204Y-10626784D01*
X28127503Y-10626397D01*
X28120857Y-10625754D01*
X28114272Y-10624864D01*
X28107754Y-10623729D01*
X28101309Y-10622354D01*
X28094942Y-10620740D01*
X28088659Y-10618893D01*
X28082465Y-10616818D01*
X28076366Y-10614519D01*
X28070371Y-10611997D01*
X28064481Y-10609257D01*
X28058703Y-10606306D01*
X28053046Y-10603144D01*
X28047511Y-10599777D01*
X28042107Y-10596210D01*
X28036839Y-10592444D01*
X28031713Y-10588484D01*
X28026732Y-10584334D01*
X28021906Y-10580000D01*
X28017237Y-10575484D01*
X28012733Y-10570789D01*
X28008399Y-10565920D01*
X28004244Y-10560884D01*
X28000267Y-10555678D01*
X27996478Y-10550313D01*
X27992885Y-10544790D01*
X27989489Y-10539111D01*
X27986297Y-10533284D01*
X27983316Y-10527309D01*
X27980551Y-10521193D01*
X27978008Y-10514938D01*
X27728729Y-9866970D01*
X27726958Y-9862698D01*
X27724975Y-9858546D01*
X27722784Y-9854523D01*
X27720392Y-9850631D01*
X27717807Y-9846880D01*
X27715037Y-9843277D01*
X27712085Y-9839826D01*
X27708962Y-9836535D01*
X27705670Y-9833410D01*
X27702221Y-9830459D01*
X27698616Y-9827689D01*
X27694865Y-9825104D01*
X27690974Y-9822714D01*
X27686949Y-9820522D01*
X27682798Y-9818536D01*
X27678526Y-9816765D01*
X27030559Y-9567489D01*
X27018197Y-9562173D01*
X27006405Y-9555994D01*
X26995214Y-9548997D01*
X26984655Y-9541228D01*
X26974759Y-9532736D01*
X26965558Y-9523562D01*
X26957084Y-9513754D01*
X26949369Y-9503358D01*
X26942443Y-9492422D01*
X26936338Y-9480987D01*
X26931087Y-9469103D01*
X26926719Y-9456815D01*
X26923265Y-9444170D01*
X26920762Y-9431212D01*
X26919236Y-9417987D01*
X26918720Y-9404545D01*
X26918849Y-9397797D01*
X26919236Y-9391098D01*
X26919874Y-9384457D01*
X26920762Y-9377874D01*
X26921893Y-9371358D01*
X26923265Y-9364916D01*
X26924876Y-9358551D01*
X26926719Y-9352270D01*
X26928790Y-9346078D01*
X26931087Y-9339982D01*
X26933605Y-9333987D01*
X26936338Y-9328098D01*
X26939287Y-9322322D01*
X26942443Y-9316664D01*
X26945805Y-9311130D01*
X26949369Y-9305727D01*
X26953131Y-9300459D01*
X26957084Y-9295331D01*
X26961229Y-9290351D01*
X26965558Y-9285524D01*
X26970070Y-9280856D01*
X26974759Y-9276351D01*
X26979622Y-9272017D01*
X26984655Y-9267858D01*
X26989853Y-9263879D01*
X26995214Y-9260089D01*
X27000733Y-9256491D01*
X27006405Y-9253091D01*
X27012229Y-9249897D01*
X27018197Y-9246913D01*
X27024308Y-9244146D01*
X27030559Y-9241598D01*
X27678526Y-8992321D01*
X27682798Y-8990550D01*
X27686949Y-8988565D01*
X27690974Y-8986374D01*
X27694865Y-8983982D01*
X27698616Y-8981397D01*
X27702221Y-8978627D01*
X27705670Y-8975677D01*
X27708962Y-8972552D01*
X27712085Y-8969262D01*
X27715037Y-8965810D01*
X27717809Y-8962206D01*
X27720392Y-8958454D01*
X27722784Y-8954564D01*
X27724975Y-8950539D01*
X27726958Y-8946387D01*
X27728729Y-8942116D01*
X27978008Y-8294149D01*
X27980834Y-8287227D01*
X27983930Y-8280482D01*
X27990893Y-8267535D01*
X27998833Y-8255346D01*
X28007686Y-8243955D01*
X28017392Y-8233398D01*
X28027882Y-8223714D01*
X28039097Y-8214945D01*
X28050968Y-8207123D01*
X28063436Y-8200292D01*
X28076436Y-8194486D01*
X28089902Y-8189746D01*
X28103773Y-8186110D01*
X28117982Y-8183615D01*
X28132471Y-8182302D01*
X28147166Y-8182208D01*
X28154577Y-8182630D01*
G37*
G36*
X3318590Y-28623088D02*
G01*
X3332721Y-28624817D01*
X3346646Y-28627680D01*
X3360292Y-28631666D01*
X3373590Y-28636753D01*
X3386464Y-28642923D01*
X3398843Y-28650161D01*
X3410654Y-28658444D01*
X3421828Y-28667760D01*
X3432286Y-28678085D01*
X3437228Y-28683624D01*
X3441964Y-28689406D01*
X3449071Y-28699490D01*
X3455416Y-28709949D01*
X3460999Y-28720740D01*
X3465814Y-28731820D01*
X3469857Y-28743153D01*
X3473121Y-28754694D01*
X3475604Y-28766404D01*
X3477300Y-28778241D01*
X3478206Y-28790165D01*
X3478317Y-28802134D01*
X3477627Y-28814110D01*
X3476133Y-28826047D01*
X3473832Y-28837909D01*
X3470717Y-28849652D01*
X3466783Y-28861235D01*
X3462030Y-28872618D01*
X3182041Y-29502513D01*
X3180273Y-29506785D01*
X3178741Y-29511125D01*
X3177444Y-29515520D01*
X3176384Y-29519961D01*
X3175558Y-29524442D01*
X3174970Y-29528950D01*
X3174617Y-29533478D01*
X3174498Y-29538013D01*
X3174617Y-29542550D01*
X3174969Y-29547074D01*
X3175560Y-29551582D01*
X3176384Y-29556062D01*
X3177444Y-29560505D01*
X3178741Y-29564901D01*
X3180273Y-29569239D01*
X3182041Y-29573512D01*
X3463958Y-30207960D01*
X3468941Y-30220459D01*
X3472910Y-30233166D01*
X3475875Y-30246027D01*
X3477848Y-30258987D01*
X3478840Y-30271990D01*
X3478860Y-30284983D01*
X3477917Y-30297909D01*
X3476022Y-30310716D01*
X3473185Y-30323347D01*
X3469417Y-30335749D01*
X3464727Y-30347865D01*
X3459127Y-30359643D01*
X3452627Y-30371027D01*
X3445234Y-30381960D01*
X3436962Y-30392389D01*
X3427819Y-30402263D01*
X3422959Y-30406940D01*
X3417949Y-30411403D01*
X3412801Y-30415649D01*
X3407518Y-30419675D01*
X3402112Y-30423482D01*
X3396586Y-30427068D01*
X3390947Y-30430429D01*
X3385202Y-30433567D01*
X3379359Y-30436481D01*
X3373425Y-30439167D01*
X3367405Y-30441626D01*
X3361308Y-30443858D01*
X3355138Y-30445857D01*
X3348906Y-30447626D01*
X3342616Y-30449162D01*
X3336275Y-30450462D01*
X3329890Y-30451527D01*
X3323469Y-30452358D01*
X3317017Y-30452948D01*
X3310542Y-30453301D01*
X3304050Y-30453411D01*
X3297548Y-30453282D01*
X3291045Y-30452908D01*
X3284546Y-30452289D01*
X3278057Y-30451427D01*
X3271586Y-30450316D01*
X3265140Y-30448957D01*
X3258725Y-30447351D01*
X3252348Y-30445492D01*
X3246018Y-30443382D01*
X3239739Y-30441019D01*
X3233518Y-30438399D01*
X2599071Y-30156482D01*
X2594798Y-30154714D01*
X2590459Y-30153183D01*
X2586063Y-30151887D01*
X2581621Y-30150825D01*
X2577141Y-30150001D01*
X2572633Y-30149411D01*
X2568108Y-30149058D01*
X2563570Y-30148940D01*
X2559036Y-30149059D01*
X2554508Y-30149412D01*
X2550000Y-30150000D01*
X2545522Y-30150825D01*
X2541078Y-30151886D01*
X2536684Y-30153182D01*
X2532346Y-30154715D01*
X2528072Y-30156482D01*
X1893624Y-30438399D01*
X1881123Y-30443394D01*
X1868412Y-30447374D01*
X1855549Y-30450353D01*
X1842583Y-30452336D01*
X1829575Y-30453336D01*
X1816577Y-30453365D01*
X1803644Y-30452429D01*
X1790831Y-30450543D01*
X1778193Y-30447711D01*
X1765784Y-30443947D01*
X1753657Y-30439262D01*
X1741874Y-30433665D01*
X1730482Y-30427167D01*
X1719540Y-30419775D01*
X1709101Y-30411504D01*
X1699224Y-30402360D01*
X1694545Y-30397495D01*
X1690080Y-30392483D01*
X1685835Y-30387329D01*
X1681808Y-30382043D01*
X1678002Y-30376632D01*
X1674417Y-30371102D01*
X1671056Y-30365459D01*
X1667919Y-30359710D01*
X1665007Y-30353863D01*
X1662320Y-30347924D01*
X1659864Y-30341902D01*
X1657637Y-30335800D01*
X1655638Y-30329627D01*
X1653873Y-30323391D01*
X1652340Y-30317097D01*
X1651041Y-30310753D01*
X1649979Y-30304365D01*
X1649155Y-30297940D01*
X1648567Y-30291484D01*
X1648219Y-30285007D01*
X1648111Y-30278512D01*
X1648246Y-30272007D01*
X1648625Y-30265500D01*
X1649248Y-30259001D01*
X1650117Y-30252507D01*
X1651231Y-30246035D01*
X1652596Y-30239589D01*
X1654210Y-30233172D01*
X1656073Y-30226794D01*
X1658190Y-30220461D01*
X1660560Y-30214182D01*
X1663185Y-30207960D01*
X1945100Y-29573511D01*
X1946869Y-29569238D01*
X1948402Y-29564900D01*
X1949698Y-29560506D01*
X1950759Y-29556062D01*
X1951583Y-29551582D01*
X1952172Y-29547076D01*
X1952525Y-29542548D01*
X1952644Y-29538014D01*
X1952526Y-29533476D01*
X1952173Y-29528951D01*
X1951583Y-29524443D01*
X1950759Y-29519963D01*
X1949697Y-29515521D01*
X1948401Y-29511125D01*
X1946870Y-29506786D01*
X1945102Y-29502513D01*
X1663185Y-28868066D01*
X1658202Y-28855566D01*
X1654233Y-28842859D01*
X1651268Y-28829998D01*
X1649295Y-28817038D01*
X1648302Y-28804036D01*
X1648283Y-28791042D01*
X1649226Y-28778115D01*
X1651122Y-28765309D01*
X1653958Y-28752678D01*
X1657726Y-28740276D01*
X1662417Y-28728159D01*
X1668017Y-28716382D01*
X1674516Y-28704998D01*
X1681909Y-28694066D01*
X1690181Y-28683635D01*
X1699321Y-28673765D01*
X1704184Y-28669085D01*
X1709195Y-28664622D01*
X1714342Y-28660377D01*
X1719624Y-28656350D01*
X1725032Y-28652542D01*
X1730557Y-28648957D01*
X1736197Y-28645596D01*
X1741941Y-28642457D01*
X1747784Y-28639543D01*
X1753719Y-28636857D01*
X1759739Y-28634398D01*
X1765835Y-28632167D01*
X1772005Y-28630168D01*
X1778237Y-28628399D01*
X1784528Y-28626863D01*
X1790868Y-28625562D01*
X1797253Y-28624498D01*
X1803675Y-28623667D01*
X1810127Y-28623076D01*
X1816601Y-28622724D01*
X1823093Y-28622614D01*
X1829594Y-28622744D01*
X1836097Y-28623118D01*
X1842597Y-28623736D01*
X1849086Y-28624598D01*
X1855557Y-28625709D01*
X1862003Y-28627067D01*
X1868418Y-28628674D01*
X1874795Y-28630533D01*
X1881125Y-28632643D01*
X1887402Y-28635008D01*
X1893624Y-28637626D01*
X2528072Y-28919543D01*
X2532345Y-28921311D01*
X2536683Y-28922843D01*
X2541079Y-28924140D01*
X2545522Y-28925200D01*
X2550002Y-28926024D01*
X2554510Y-28926615D01*
X2559034Y-28926967D01*
X2563571Y-28927086D01*
X2568106Y-28926967D01*
X2572634Y-28926614D01*
X2577142Y-28926026D01*
X2581622Y-28925199D01*
X2586064Y-28924140D01*
X2590459Y-28922843D01*
X2594797Y-28921309D01*
X2599070Y-28919541D01*
X3233519Y-28637626D01*
X3240411Y-28634730D01*
X3247370Y-28632150D01*
X3261449Y-28627919D01*
X3275682Y-28624914D01*
X3289997Y-28623119D01*
X3304325Y-28622518D01*
X3318590Y-28623088D01*
G37*
G36*
X31043890Y-11836695D02*
G01*
X31073811Y-11840716D01*
X31103393Y-11846951D01*
X31132497Y-11855388D01*
X31160999Y-11866003D01*
X31188767Y-11878790D01*
X31215667Y-11893744D01*
X31241583Y-11910843D01*
X31266372Y-11930071D01*
X31278234Y-11940416D01*
X31289621Y-11951154D01*
X31300534Y-11962249D01*
X31310961Y-11973699D01*
X31320908Y-11985492D01*
X31330360Y-11997598D01*
X31339314Y-12010019D01*
X31347776Y-12022726D01*
X31355734Y-12035709D01*
X31363180Y-12048954D01*
X31370116Y-12062439D01*
X31376540Y-12076149D01*
X31382437Y-12090077D01*
X31387815Y-12104196D01*
X31392662Y-12118500D01*
X31396974Y-12132966D01*
X31400740Y-12147585D01*
X31403978Y-12162334D01*
X31406663Y-12177205D01*
X31408797Y-12192174D01*
X31410370Y-12207235D01*
X31411391Y-12222366D01*
X31411842Y-12237550D01*
X31411729Y-12252777D01*
X31411044Y-12268030D01*
X31409779Y-12283287D01*
X31407935Y-12298541D01*
X31405504Y-12313771D01*
X31402481Y-12328967D01*
X31398869Y-12344101D01*
X31394649Y-12359165D01*
X31389829Y-12374152D01*
X30863806Y-13905486D01*
X30860566Y-13915771D01*
X30857891Y-13926162D01*
X30855769Y-13936640D01*
X30854208Y-13947177D01*
X30853207Y-13957752D01*
X30852750Y-13968346D01*
X30852851Y-13978929D01*
X30853495Y-13989488D01*
X30854693Y-14000000D01*
X30856433Y-14010450D01*
X30858716Y-14020803D01*
X30861550Y-14031043D01*
X30864912Y-14041149D01*
X30868820Y-14051097D01*
X30873264Y-14060861D01*
X30878241Y-14070430D01*
X31662181Y-15487157D01*
X31670313Y-15502578D01*
X31677721Y-15518223D01*
X31690411Y-15550074D01*
X31700286Y-15582531D01*
X31707366Y-15615424D01*
X31711674Y-15648592D01*
X31713251Y-15681850D01*
X31712109Y-15715031D01*
X31708285Y-15747967D01*
X31701798Y-15780480D01*
X31692681Y-15812410D01*
X31680965Y-15843575D01*
X31666664Y-15873804D01*
X31649822Y-15902929D01*
X31630448Y-15930783D01*
X31608585Y-15957181D01*
X31596723Y-15969788D01*
X31584251Y-15981969D01*
X31562267Y-16000527D01*
X31539257Y-16017397D01*
X31515318Y-16032562D01*
X31490557Y-16045999D01*
X31465048Y-16057696D01*
X31438897Y-16067628D01*
X31412199Y-16075774D01*
X31385041Y-16082121D01*
X31357520Y-16086650D01*
X31329736Y-16089341D01*
X31301772Y-16090171D01*
X31273735Y-16089130D01*
X31245708Y-16086193D01*
X31217791Y-16081341D01*
X31190081Y-16074556D01*
X31162668Y-16065828D01*
X29642305Y-15543356D01*
X29632023Y-15540119D01*
X29621627Y-15537440D01*
X29611151Y-15535319D01*
X29600620Y-15533758D01*
X29590042Y-15532750D01*
X29579449Y-15532301D01*
X29568855Y-15532401D01*
X29558301Y-15533045D01*
X29547785Y-15534245D01*
X29537344Y-15535984D01*
X29526992Y-15538272D01*
X29516751Y-15541095D01*
X29506642Y-15544462D01*
X29496693Y-15548369D01*
X29486926Y-15552811D01*
X29477359Y-15557786D01*
X28060636Y-16341733D01*
X28032608Y-16355850D01*
X28003892Y-16367654D01*
X27974615Y-16377159D01*
X27944905Y-16384377D01*
X27914899Y-16389324D01*
X27884714Y-16392013D01*
X27854492Y-16392449D01*
X27824353Y-16390649D01*
X27794431Y-16386625D01*
X27764849Y-16380392D01*
X27735745Y-16371959D01*
X27707245Y-16361342D01*
X27679473Y-16348554D01*
X27652573Y-16333600D01*
X27626660Y-16316500D01*
X27601861Y-16297266D01*
X27590006Y-16286928D01*
X27578620Y-16276191D01*
X27567707Y-16265095D01*
X27557281Y-16253639D01*
X27547338Y-16241854D01*
X27537883Y-16229744D01*
X27528927Y-16217326D01*
X27520467Y-16204614D01*
X27512511Y-16191635D01*
X27505064Y-16178393D01*
X27498127Y-16164906D01*
X27491701Y-16151195D01*
X27485803Y-16137265D01*
X27480427Y-16123147D01*
X27475581Y-16108846D01*
X27471270Y-16094376D01*
X27467498Y-16079759D01*
X27464263Y-16065010D01*
X27461582Y-16050139D01*
X27459446Y-16035169D01*
X27457869Y-16020107D01*
X27456849Y-16004974D01*
X27456395Y-15989792D01*
X27456514Y-15974567D01*
X27457195Y-15959314D01*
X27458463Y-15944054D01*
X27460309Y-15928802D01*
X27462735Y-15913572D01*
X27465758Y-15898379D01*
X27469375Y-15883240D01*
X27473587Y-15868176D01*
X27478411Y-15853187D01*
X28004437Y-14321857D01*
X28007675Y-14311569D01*
X28010349Y-14301180D01*
X28012466Y-14290700D01*
X28014032Y-14280166D01*
X28015036Y-14269589D01*
X28015489Y-14258998D01*
X28015389Y-14248412D01*
X28014742Y-14237844D01*
X28013544Y-14227340D01*
X28011804Y-14216892D01*
X28009519Y-14206539D01*
X28006694Y-14196301D01*
X28003325Y-14186191D01*
X27999423Y-14176245D01*
X27994979Y-14166481D01*
X27990006Y-14156911D01*
X27206059Y-12740185D01*
X27191913Y-12712157D01*
X27180081Y-12683436D01*
X27170547Y-12654154D01*
X27163304Y-12624433D01*
X27158335Y-12594415D01*
X27155625Y-12564222D01*
X27155172Y-12533984D01*
X27156951Y-12503832D01*
X27160960Y-12473895D01*
X27167184Y-12444298D01*
X27175604Y-12415172D01*
X27186210Y-12386660D01*
X27198993Y-12358872D01*
X27213942Y-12331948D01*
X27231035Y-12306013D01*
X27250274Y-12281203D01*
X27260627Y-12269345D01*
X27271362Y-12257954D01*
X27282476Y-12247045D01*
X27293939Y-12236615D01*
X27305733Y-12226671D01*
X27317854Y-12217218D01*
X27330281Y-12208262D01*
X27343001Y-12199804D01*
X27355994Y-12191852D01*
X27369245Y-12184403D01*
X27382737Y-12177470D01*
X27396461Y-12171055D01*
X27410396Y-12165158D01*
X27424525Y-12159790D01*
X27438839Y-12154949D01*
X27453312Y-12150641D01*
X27467937Y-12146876D01*
X27482697Y-12143656D01*
X27497578Y-12140977D01*
X27512554Y-12138852D01*
X27527624Y-12137279D01*
X27542765Y-12136273D01*
X27557958Y-12135830D01*
X27573184Y-12135956D01*
X27588450Y-12136655D01*
X27603712Y-12137928D01*
X27618965Y-12139788D01*
X27634202Y-12142234D01*
X27649399Y-12145268D01*
X27664542Y-12148899D01*
X27679614Y-12153128D01*
X27694604Y-12157959D01*
X29225936Y-12683980D01*
X29236223Y-12687223D01*
X29246612Y-12689902D01*
X29257086Y-12692019D01*
X29267626Y-12693583D01*
X29278203Y-12694585D01*
X29288791Y-12695039D01*
X29299381Y-12694937D01*
X29309939Y-12694291D01*
X29320455Y-12693098D01*
X29330897Y-12691358D01*
X29341251Y-12689069D01*
X29351491Y-12686246D01*
X29361595Y-12682873D01*
X29371545Y-12678972D01*
X29381313Y-12674532D01*
X29390881Y-12669554D01*
X30807602Y-11885607D01*
X30835631Y-11871490D01*
X30864348Y-11859689D01*
X30893624Y-11850185D01*
X30923334Y-11842967D01*
X30953341Y-11838015D01*
X30983526Y-11835330D01*
X31013752Y-11834896D01*
X31043890Y-11836695D01*
G37*
G36*
X9005247Y-14980981D02*
G01*
X9034241Y-14983427D01*
X9063218Y-14988345D01*
X9077668Y-14991750D01*
X9092060Y-14995791D01*
X9115272Y-15004159D01*
X9137665Y-15014015D01*
X9159190Y-15025287D01*
X9179790Y-15037918D01*
X9199414Y-15051846D01*
X9218000Y-15067010D01*
X9235502Y-15083346D01*
X9251859Y-15100793D01*
X9267021Y-15119288D01*
X9280933Y-15138771D01*
X9293539Y-15159182D01*
X9304787Y-15180452D01*
X9314624Y-15202526D01*
X9322993Y-15225336D01*
X9329836Y-15248826D01*
X9335106Y-15272928D01*
X9598985Y-16626077D01*
X9600991Y-16635105D01*
X9603457Y-16643972D01*
X9606375Y-16652661D01*
X9609733Y-16661152D01*
X9613520Y-16669440D01*
X9617728Y-16677502D01*
X9622343Y-16685325D01*
X9627351Y-16692890D01*
X9632750Y-16700188D01*
X9638520Y-16707197D01*
X9644658Y-16713904D01*
X9651147Y-16720297D01*
X9657981Y-16726361D01*
X9665148Y-16732073D01*
X9672634Y-16737425D01*
X9680433Y-16742397D01*
X10870106Y-17458412D01*
X10892609Y-17473174D01*
X10913689Y-17489439D01*
X10933300Y-17507108D01*
X10951399Y-17526077D01*
X10967940Y-17546242D01*
X10982877Y-17567505D01*
X10996163Y-17589764D01*
X11007747Y-17612920D01*
X11017590Y-17636866D01*
X11025644Y-17661507D01*
X11031859Y-17686738D01*
X11036194Y-17712458D01*
X11038606Y-17738565D01*
X11039036Y-17764956D01*
X11037450Y-17791533D01*
X11033796Y-17818196D01*
X11031198Y-17831436D01*
X11028111Y-17844495D01*
X11024547Y-17857358D01*
X11020512Y-17870012D01*
X11016022Y-17882453D01*
X11011081Y-17894665D01*
X11005699Y-17906641D01*
X10999887Y-17918372D01*
X10993657Y-17929849D01*
X10987016Y-17941058D01*
X10979975Y-17951991D01*
X10972545Y-17962641D01*
X10964731Y-17972995D01*
X10956550Y-17983043D01*
X10948006Y-17992774D01*
X10939110Y-18002178D01*
X10929871Y-18011246D01*
X10920306Y-18019973D01*
X10910412Y-18028343D01*
X10900208Y-18036347D01*
X10889700Y-18043975D01*
X10878899Y-18051221D01*
X10867816Y-18058070D01*
X10856459Y-18064510D01*
X10844839Y-18070543D01*
X10832963Y-18076145D01*
X10820844Y-18081314D01*
X10808491Y-18086041D01*
X10795911Y-18090310D01*
X10783120Y-18094115D01*
X10770123Y-18097447D01*
X10756926Y-18100292D01*
X9394107Y-18366233D01*
X9385078Y-18368238D01*
X9376212Y-18370709D01*
X9367523Y-18373628D01*
X9359030Y-18376984D01*
X9350744Y-18380773D01*
X9342681Y-18384977D01*
X9334863Y-18389592D01*
X9327294Y-18394604D01*
X9320000Y-18400000D01*
X9312988Y-18405771D01*
X9306276Y-18411905D01*
X9299886Y-18418398D01*
X9293823Y-18425232D01*
X9288109Y-18432396D01*
X9282762Y-18439885D01*
X9277786Y-18447683D01*
X8561771Y-19637358D01*
X8547020Y-19659880D01*
X8530763Y-19680982D01*
X8513107Y-19700618D01*
X8494140Y-19718741D01*
X8473974Y-19735301D01*
X8452713Y-19750258D01*
X8430451Y-19763562D01*
X8407295Y-19775170D01*
X8383341Y-19785028D01*
X8358696Y-19793097D01*
X8333453Y-19799334D01*
X8307727Y-19803679D01*
X8281610Y-19806103D01*
X8255205Y-19806545D01*
X8228614Y-19804969D01*
X8201942Y-19801321D01*
X8188694Y-19798716D01*
X8175631Y-19795627D01*
X8162764Y-19792053D01*
X8150102Y-19788012D01*
X8137660Y-19783513D01*
X8125443Y-19778567D01*
X8113462Y-19773176D01*
X8101729Y-19767356D01*
X8090249Y-19761120D01*
X8079036Y-19754473D01*
X8068104Y-19747422D01*
X8057455Y-19739980D01*
X8047098Y-19732163D01*
X8037055Y-19723969D01*
X8027322Y-19715414D01*
X8017918Y-19706512D01*
X8008850Y-19697265D01*
X8000128Y-19687685D01*
X7991759Y-19677783D01*
X7983760Y-19667569D01*
X7976132Y-19657053D01*
X7968891Y-19646242D01*
X7962046Y-19635147D01*
X7955610Y-19623784D01*
X7949586Y-19612150D01*
X7943987Y-19600266D01*
X7938826Y-19588141D01*
X7934110Y-19575776D01*
X7929847Y-19563190D01*
X7926051Y-19550386D01*
X7922730Y-19537380D01*
X7919892Y-19524177D01*
X7653946Y-18161357D01*
X7651942Y-18152327D01*
X7649478Y-18143460D01*
X7646558Y-18134776D01*
X7643199Y-18126279D01*
X7639412Y-18117992D01*
X7635206Y-18109934D01*
X7630592Y-18102111D01*
X7625583Y-18094546D01*
X7620184Y-18087248D01*
X7614415Y-18080237D01*
X7608277Y-18073529D01*
X7601787Y-18067134D01*
X7594954Y-18061076D01*
X7587787Y-18055361D01*
X7580301Y-18050008D01*
X7572502Y-18045036D01*
X6382829Y-17329022D01*
X6360327Y-17314258D01*
X6339247Y-17297994D01*
X6319635Y-17280325D01*
X6301536Y-17261355D01*
X6284994Y-17241193D01*
X6270057Y-17219928D01*
X6256772Y-17197668D01*
X6245189Y-17174512D01*
X6235345Y-17150567D01*
X6227291Y-17125924D01*
X6221076Y-17100694D01*
X6216740Y-17074975D01*
X6214329Y-17048868D01*
X6213899Y-17022476D01*
X6215486Y-16995899D01*
X6219138Y-16969242D01*
X6221736Y-16955997D01*
X6224825Y-16942937D01*
X6228388Y-16930078D01*
X6232424Y-16917421D01*
X6236913Y-16904979D01*
X6241854Y-16892768D01*
X6247236Y-16880791D01*
X6253048Y-16869059D01*
X6259278Y-16857584D01*
X6265919Y-16846375D01*
X6272960Y-16835440D01*
X6280389Y-16824791D01*
X6288203Y-16814438D01*
X6296384Y-16804391D01*
X6304928Y-16794659D01*
X6313825Y-16785254D01*
X6323063Y-16776186D01*
X6332629Y-16767459D01*
X6342524Y-16759089D01*
X6352727Y-16751085D01*
X6363235Y-16743458D01*
X6374035Y-16736213D01*
X6385119Y-16729366D01*
X6396476Y-16722922D01*
X6408096Y-16716891D01*
X6419972Y-16711286D01*
X6432090Y-16706118D01*
X6444444Y-16701391D01*
X6457024Y-16697121D01*
X6469815Y-16693317D01*
X6482811Y-16689990D01*
X6496010Y-16687142D01*
X7858828Y-16421198D01*
X7867857Y-16419194D01*
X7876723Y-16416726D01*
X7885411Y-16413809D01*
X7893905Y-16410449D01*
X7902190Y-16406660D01*
X7910253Y-16402456D01*
X7918072Y-16397843D01*
X7925641Y-16392832D01*
X7932935Y-16387436D01*
X7939946Y-16381663D01*
X7946658Y-16375527D01*
X7953049Y-16369034D01*
X7959111Y-16362203D01*
X7964826Y-16355037D01*
X7970173Y-16347548D01*
X7975145Y-16339750D01*
X8691163Y-15150077D01*
X8699134Y-15137426D01*
X8707575Y-15125215D01*
X8725785Y-15102133D01*
X8745657Y-15080884D01*
X8767051Y-15061522D01*
X8789834Y-15044100D01*
X8813859Y-15028669D01*
X8838993Y-15015292D01*
X8865090Y-15004009D01*
X8892019Y-14994885D01*
X8919641Y-14987964D01*
X8947811Y-14983305D01*
X8976393Y-14980961D01*
X9005247Y-14980981D01*
G37*
G36*
X25616071Y-34064289D02*
G01*
X25641296Y-34066418D01*
X25666505Y-34070697D01*
X25679076Y-34073659D01*
X25691598Y-34077174D01*
X25711792Y-34084454D01*
X25731275Y-34093030D01*
X25750001Y-34102836D01*
X25767923Y-34113824D01*
X25784996Y-34125942D01*
X25801166Y-34139135D01*
X25816393Y-34153347D01*
X25830623Y-34168525D01*
X25843815Y-34184617D01*
X25855918Y-34201566D01*
X25866886Y-34219325D01*
X25876672Y-34237829D01*
X25885230Y-34257033D01*
X25892509Y-34276879D01*
X25898463Y-34297314D01*
X25903049Y-34318283D01*
X26132623Y-35495523D01*
X26134367Y-35503376D01*
X26136515Y-35511092D01*
X26139052Y-35518651D01*
X26141974Y-35526038D01*
X26145268Y-35533249D01*
X26148930Y-35540262D01*
X26152945Y-35547069D01*
X26157303Y-35553651D01*
X26162000Y-35560000D01*
X26167018Y-35566098D01*
X26172359Y-35571932D01*
X26178005Y-35577496D01*
X26183950Y-35582770D01*
X26190185Y-35587740D01*
X26196699Y-35592396D01*
X26203483Y-35596722D01*
X27238499Y-36219654D01*
X27258077Y-36232496D01*
X27276416Y-36246645D01*
X27293479Y-36262018D01*
X27309224Y-36278522D01*
X27323615Y-36296066D01*
X27336610Y-36314563D01*
X27348168Y-36333930D01*
X27358247Y-36354075D01*
X27366811Y-36374908D01*
X27373817Y-36396346D01*
X27379224Y-36418296D01*
X27382996Y-36440673D01*
X27385094Y-36463386D01*
X27385468Y-36486346D01*
X27384088Y-36509468D01*
X27380908Y-36532667D01*
X27378650Y-36544184D01*
X27375963Y-36555543D01*
X27372862Y-36566734D01*
X27369351Y-36577744D01*
X27365445Y-36588567D01*
X27361147Y-36599193D01*
X27356464Y-36609611D01*
X27351409Y-36619817D01*
X27345989Y-36629802D01*
X27340211Y-36639553D01*
X27334084Y-36649065D01*
X27327622Y-36658331D01*
X27320823Y-36667340D01*
X27313706Y-36676082D01*
X27306273Y-36684547D01*
X27298533Y-36692728D01*
X27290494Y-36700619D01*
X27282171Y-36708211D01*
X27273564Y-36715493D01*
X27264687Y-36722457D01*
X27255545Y-36729094D01*
X27246149Y-36735398D01*
X27236507Y-36741355D01*
X27226626Y-36746959D01*
X27216517Y-36752207D01*
X27206186Y-36757082D01*
X27195641Y-36761578D01*
X27184894Y-36765690D01*
X27173949Y-36769405D01*
X27162820Y-36772716D01*
X27151513Y-36775614D01*
X27140032Y-36778089D01*
X25954380Y-37009459D01*
X25946524Y-37011203D01*
X25938812Y-37013352D01*
X25931251Y-37015891D01*
X25923862Y-37018811D01*
X25916654Y-37022107D01*
X25909639Y-37025765D01*
X25902837Y-37029779D01*
X25896253Y-37034139D01*
X25889906Y-37038836D01*
X25883804Y-37043857D01*
X25877967Y-37049193D01*
X25872407Y-37054841D01*
X25867132Y-37060787D01*
X25862162Y-37067018D01*
X25857510Y-37073534D01*
X25853180Y-37080319D01*
X25230248Y-38115336D01*
X25217416Y-38134930D01*
X25203271Y-38153288D01*
X25187911Y-38170372D01*
X25171409Y-38186139D01*
X25153867Y-38200548D01*
X25135368Y-38213560D01*
X25116000Y-38225134D01*
X25095855Y-38235233D01*
X25075014Y-38243810D01*
X25053573Y-38250830D01*
X25031613Y-38256254D01*
X25009231Y-38260037D01*
X24986509Y-38262145D01*
X24963535Y-38262528D01*
X24940402Y-38261158D01*
X24917198Y-38257984D01*
X24905673Y-38255719D01*
X24894307Y-38253031D01*
X24883113Y-38249921D01*
X24872098Y-38246406D01*
X24861273Y-38242492D01*
X24850644Y-38238189D01*
X24840222Y-38233499D01*
X24830012Y-38228436D01*
X24820026Y-38223009D01*
X24810269Y-38217226D01*
X24800758Y-38211092D01*
X24791494Y-38204618D01*
X24782484Y-38197816D01*
X24773746Y-38190688D01*
X24765278Y-38183247D01*
X24757096Y-38175501D01*
X24749208Y-38167456D01*
X24741620Y-38159122D01*
X24734338Y-38150506D01*
X24727378Y-38141620D01*
X24720743Y-38132472D01*
X24714443Y-38123066D01*
X24708488Y-38113412D01*
X24702889Y-38103527D01*
X24697647Y-38093405D01*
X24692775Y-38083066D01*
X24688288Y-38072517D01*
X24684184Y-38061760D01*
X24680475Y-38050811D01*
X24677172Y-38039671D01*
X24674282Y-38028356D01*
X24671814Y-38016869D01*
X24440441Y-36831214D01*
X24438698Y-36823358D01*
X24436553Y-36815644D01*
X24434014Y-36808088D01*
X24431092Y-36800698D01*
X24427795Y-36793488D01*
X24424138Y-36786478D01*
X24420122Y-36779673D01*
X24415765Y-36773090D01*
X24411068Y-36766740D01*
X24406050Y-36760640D01*
X24400709Y-36754805D01*
X24395063Y-36749242D01*
X24389118Y-36743971D01*
X24382883Y-36738999D01*
X24376369Y-36734341D01*
X24369585Y-36730016D01*
X23334569Y-36107085D01*
X23314991Y-36094241D01*
X23296652Y-36080091D01*
X23279589Y-36064719D01*
X23263844Y-36048215D01*
X23249453Y-36030675D01*
X23236458Y-36012174D01*
X23224900Y-35992807D01*
X23214821Y-35972662D01*
X23206257Y-35951830D01*
X23199251Y-35930390D01*
X23193844Y-35908440D01*
X23190072Y-35886063D01*
X23187974Y-35863352D01*
X23187600Y-35840391D01*
X23188980Y-35817268D01*
X23192159Y-35794078D01*
X23194418Y-35782554D01*
X23197105Y-35771191D01*
X23200205Y-35760005D01*
X23203715Y-35748993D01*
X23207623Y-35738169D01*
X23211921Y-35727545D01*
X23216604Y-35717125D01*
X23221661Y-35706919D01*
X23227079Y-35696934D01*
X23232857Y-35687183D01*
X23238984Y-35677671D01*
X23245446Y-35668405D01*
X23252244Y-35659398D01*
X23259362Y-35650656D01*
X23266795Y-35642189D01*
X23274535Y-35634008D01*
X23282574Y-35626117D01*
X23290897Y-35618525D01*
X23299504Y-35611243D01*
X23308381Y-35604280D01*
X23317521Y-35597645D01*
X23326919Y-35591342D01*
X23336561Y-35585384D01*
X23346442Y-35579778D01*
X23356551Y-35574531D01*
X23366882Y-35569656D01*
X23377427Y-35565158D01*
X23388174Y-35561046D01*
X23399119Y-35557332D01*
X23410246Y-35554022D01*
X23421555Y-35551128D01*
X23433036Y-35548650D01*
X24618688Y-35317279D01*
X24626544Y-35315535D01*
X24634256Y-35313389D01*
X24641815Y-35310850D01*
X24649206Y-35307927D01*
X24656414Y-35304631D01*
X24663429Y-35300974D01*
X24670231Y-35296960D01*
X24676815Y-35292600D01*
X24683160Y-35287906D01*
X24689262Y-35282882D01*
X24695101Y-35277545D01*
X24700661Y-35271896D01*
X24705936Y-35265953D01*
X24710906Y-35259717D01*
X24715558Y-35253202D01*
X24719883Y-35246419D01*
X25342820Y-34211403D01*
X25349754Y-34200396D01*
X25357096Y-34189774D01*
X25372939Y-34169693D01*
X25390229Y-34151205D01*
X25408840Y-34134360D01*
X25428661Y-34119202D01*
X25449563Y-34105778D01*
X25471430Y-34094140D01*
X25494136Y-34084324D01*
X25517563Y-34076385D01*
X25541594Y-34070365D01*
X25566102Y-34066310D01*
X25590970Y-34064272D01*
X25616071Y-34064289D01*
G37*
G36*
X23979272Y-49462050D02*
G01*
X23997866Y-49463900D01*
X24028256Y-49469162D01*
X24057962Y-49476434D01*
X24086906Y-49485638D01*
X24115006Y-49496714D01*
X24142186Y-49509602D01*
X24168358Y-49524234D01*
X24193448Y-49540544D01*
X24217372Y-49558472D01*
X24240052Y-49577948D01*
X24261406Y-49598912D01*
X24281356Y-49621302D01*
X24299818Y-49645044D01*
X24316718Y-49670082D01*
X24331972Y-49696346D01*
X24345494Y-49723776D01*
X24357214Y-49752302D01*
X24975766Y-51360764D01*
X24980194Y-51371442D01*
X24985156Y-51381822D01*
X24990634Y-51391884D01*
X24996610Y-51401610D01*
X25003072Y-51410990D01*
X25010000Y-51420000D01*
X25017380Y-51428628D01*
X25025188Y-51436854D01*
X25033418Y-51444666D01*
X25042042Y-51452042D01*
X25051054Y-51458966D01*
X25060430Y-51465428D01*
X25070158Y-51471408D01*
X25080220Y-51476886D01*
X25090598Y-51481848D01*
X25101278Y-51486276D01*
X26721196Y-52109468D01*
X26752100Y-52122756D01*
X26781580Y-52138202D01*
X26809558Y-52155696D01*
X26835956Y-52175118D01*
X26860696Y-52196352D01*
X26883698Y-52219284D01*
X26904884Y-52243802D01*
X26924170Y-52269792D01*
X26941486Y-52297134D01*
X26956748Y-52325720D01*
X26969876Y-52355430D01*
X26980796Y-52386150D01*
X26989430Y-52417764D01*
X26995688Y-52450160D01*
X26999504Y-52483220D01*
X27000794Y-52516836D01*
X27000470Y-52533698D01*
X26999504Y-52550444D01*
X26997908Y-52567052D01*
X26995688Y-52583506D01*
X26992862Y-52599794D01*
X26989430Y-52615900D01*
X26985404Y-52631812D01*
X26980796Y-52647514D01*
X26975618Y-52662994D01*
X26969876Y-52678234D01*
X26963582Y-52693222D01*
X26956748Y-52707944D01*
X26949376Y-52722386D01*
X26941486Y-52736530D01*
X26933080Y-52750364D01*
X26924170Y-52763872D01*
X26914766Y-52777042D01*
X26904884Y-52789862D01*
X26894522Y-52802312D01*
X26883698Y-52814380D01*
X26872418Y-52826050D01*
X26860696Y-52837316D01*
X26848538Y-52848152D01*
X26835956Y-52858546D01*
X26822960Y-52868494D01*
X26809558Y-52877968D01*
X26795762Y-52886962D01*
X26781580Y-52895462D01*
X26767022Y-52903448D01*
X26752100Y-52910908D01*
X26736824Y-52917830D01*
X26721196Y-52924198D01*
X25101278Y-53547388D01*
X25090598Y-53551816D01*
X25080220Y-53556782D01*
X25070158Y-53562260D01*
X25060432Y-53568236D01*
X25051054Y-53574698D01*
X25042042Y-53581624D01*
X25033418Y-53589002D01*
X25025188Y-53596814D01*
X25017380Y-53605040D01*
X25010002Y-53613668D01*
X25003072Y-53622676D01*
X24996614Y-53632054D01*
X24990634Y-53641784D01*
X24985156Y-53651842D01*
X24980198Y-53662222D01*
X24975766Y-53672902D01*
X24352574Y-55292822D01*
X24339304Y-55323748D01*
X24323872Y-55353254D01*
X24306398Y-55381258D01*
X24286984Y-55407686D01*
X24265756Y-55432448D01*
X24242828Y-55455476D01*
X24218312Y-55476686D01*
X24192326Y-55496000D01*
X24164978Y-55513336D01*
X24136390Y-55528618D01*
X24106672Y-55541774D01*
X24075946Y-55552708D01*
X24044320Y-55561360D01*
X24011912Y-55567636D01*
X23978836Y-55571468D01*
X23945210Y-55572766D01*
X23928336Y-55572436D01*
X23911584Y-55571468D01*
X23894970Y-55569862D01*
X23878506Y-55567636D01*
X23862212Y-55564798D01*
X23846100Y-55561360D01*
X23830182Y-55557326D01*
X23814474Y-55552708D01*
X23798988Y-55547522D01*
X23783742Y-55541774D01*
X23768754Y-55535468D01*
X23754030Y-55528618D01*
X23739584Y-55521242D01*
X23725442Y-55513336D01*
X23711604Y-55504918D01*
X23698094Y-55496000D01*
X23684924Y-55486586D01*
X23672108Y-55476686D01*
X23659656Y-55466312D01*
X23647592Y-55455476D01*
X23635920Y-55444186D01*
X23624660Y-55432448D01*
X23613824Y-55420276D01*
X23603436Y-55407686D01*
X23593494Y-55394672D01*
X23584022Y-55381258D01*
X23575038Y-55367452D01*
X23566548Y-55353254D01*
X23558568Y-55338686D01*
X23551116Y-55323748D01*
X23544204Y-55308458D01*
X23537846Y-55292822D01*
X22914650Y-53672902D01*
X22910222Y-53662222D01*
X22905264Y-53651842D01*
X22899786Y-53641784D01*
X22893806Y-53632054D01*
X22887344Y-53622676D01*
X22880418Y-53613668D01*
X22873040Y-53605040D01*
X22865232Y-53596814D01*
X22857002Y-53589002D01*
X22848378Y-53581624D01*
X22839366Y-53574698D01*
X22829988Y-53568236D01*
X22820262Y-53562260D01*
X22810200Y-53556782D01*
X22799822Y-53551816D01*
X22789142Y-53547388D01*
X21169224Y-52924198D01*
X21138320Y-52910908D01*
X21108840Y-52895462D01*
X21080862Y-52877968D01*
X21054464Y-52858546D01*
X21029724Y-52837316D01*
X21006722Y-52814380D01*
X20985536Y-52789862D01*
X20966250Y-52763872D01*
X20948934Y-52736530D01*
X20933672Y-52707944D01*
X20920544Y-52678234D01*
X20909624Y-52647514D01*
X20900990Y-52615900D01*
X20894732Y-52583506D01*
X20890916Y-52550444D01*
X20889626Y-52516836D01*
X20889950Y-52499966D01*
X20890916Y-52483220D01*
X20892512Y-52466616D01*
X20894732Y-52450160D01*
X20897558Y-52433870D01*
X20900990Y-52417764D01*
X20905016Y-52401852D01*
X20909624Y-52386150D01*
X20914802Y-52370670D01*
X20920544Y-52355430D01*
X20926838Y-52340442D01*
X20933672Y-52325720D01*
X20941044Y-52311278D01*
X20948934Y-52297134D01*
X20957340Y-52283300D01*
X20966250Y-52269792D01*
X20975654Y-52256622D01*
X20985536Y-52243802D01*
X20995898Y-52231352D01*
X21006722Y-52219284D01*
X21018002Y-52207614D01*
X21029724Y-52196352D01*
X21041882Y-52185516D01*
X21054464Y-52175118D01*
X21067460Y-52165172D01*
X21080862Y-52155696D01*
X21094658Y-52146702D01*
X21108840Y-52138202D01*
X21123398Y-52130216D01*
X21138320Y-52122756D01*
X21153596Y-52115838D01*
X21169224Y-52109468D01*
X22789142Y-51486276D01*
X22799822Y-51481848D01*
X22810200Y-51476886D01*
X22820262Y-51471408D01*
X22829990Y-51465428D01*
X22839366Y-51458966D01*
X22848378Y-51452042D01*
X22857002Y-51444666D01*
X22865232Y-51436854D01*
X22873040Y-51428628D01*
X22880418Y-51420000D01*
X22887348Y-51410990D01*
X22893806Y-51401610D01*
X22899786Y-51391884D01*
X22905264Y-51381822D01*
X22910222Y-51371442D01*
X22914650Y-51360764D01*
X23537846Y-49740846D01*
X23544912Y-49723542D01*
X23552652Y-49706678D01*
X23570058Y-49674312D01*
X23589908Y-49643840D01*
X23612042Y-49615362D01*
X23636306Y-49588970D01*
X23662532Y-49564760D01*
X23690568Y-49542836D01*
X23720246Y-49523282D01*
X23751416Y-49506204D01*
X23783916Y-49491690D01*
X23817582Y-49479840D01*
X23852258Y-49470750D01*
X23887782Y-49464512D01*
X23924004Y-49461230D01*
X23960744Y-49460994D01*
X23979272Y-49462050D01*
G37*
D11*
X26293558Y-59387733D02*
X27817368Y-59387733D01*
X27055463Y-60149638D02*
X27055463Y-58625828D01*
X21823558Y-58147733D02*
X23347368Y-58147733D01*
X22585463Y-58909638D02*
X22585463Y-57385828D01*
X6809161Y-50472631D02*
X6904400Y-50377393D01*
X6904400Y-50377393D02*
X6999638Y-50091679D01*
X6999638Y-50091679D02*
X6999638Y-49901203D01*
X6999638Y-49901203D02*
X6904400Y-49615488D01*
X6904400Y-49615488D02*
X6713923Y-49425012D01*
X6713923Y-49425012D02*
X6523447Y-49329774D01*
X6523447Y-49329774D02*
X6142495Y-49234536D01*
X6142495Y-49234536D02*
X5856780Y-49234536D01*
X5856780Y-49234536D02*
X5475828Y-49329774D01*
X5475828Y-49329774D02*
X5285352Y-49425012D01*
X5285352Y-49425012D02*
X5094876Y-49615488D01*
X5094876Y-49615488D02*
X4999638Y-49901203D01*
X4999638Y-49901203D02*
X4999638Y-50091679D01*
X4999638Y-50091679D02*
X5094876Y-50377393D01*
X5094876Y-50377393D02*
X5190114Y-50472631D01*
X6999638Y-52282155D02*
X6999638Y-51329774D01*
X6999638Y-51329774D02*
X4999638Y-51329774D01*
X6999638Y-52948822D02*
X4999638Y-52948822D01*
X6999638Y-54091679D02*
X5856780Y-53234536D01*
X4999638Y-54091679D02*
X6142495Y-52948822D01*
D12*
X11340180Y-32143220D02*
X12340180Y-32143220D01*
X12340180Y-31476554D02*
X12340180Y-31286078D01*
X12340180Y-31286078D02*
X12292561Y-31190840D01*
X12292561Y-31190840D02*
X12197323Y-31095602D01*
X12197323Y-31095602D02*
X12006847Y-31047983D01*
X12006847Y-31047983D02*
X11673514Y-31047983D01*
X11673514Y-31047983D02*
X11483038Y-31095602D01*
X11483038Y-31095602D02*
X11387800Y-31190840D01*
X11387800Y-31190840D02*
X11340180Y-31286078D01*
X11340180Y-31286078D02*
X11340180Y-31476554D01*
X11340180Y-31476554D02*
X11387800Y-31571792D01*
X11387800Y-31571792D02*
X11483038Y-31667030D01*
X11483038Y-31667030D02*
X11673514Y-31714649D01*
X11673514Y-31714649D02*
X12006847Y-31714649D01*
X12006847Y-31714649D02*
X12197323Y-31667030D01*
X12197323Y-31667030D02*
X12292561Y-31571792D01*
X12292561Y-31571792D02*
X12340180Y-31476554D01*
X11911609Y-30476554D02*
X11959228Y-30571792D01*
X11959228Y-30571792D02*
X12006847Y-30619411D01*
X12006847Y-30619411D02*
X12102085Y-30667030D01*
X12102085Y-30667030D02*
X12149704Y-30667030D01*
X12149704Y-30667030D02*
X12244942Y-30619411D01*
X12244942Y-30619411D02*
X12292561Y-30571792D01*
X12292561Y-30571792D02*
X12340180Y-30476554D01*
X12340180Y-30476554D02*
X12340180Y-30286078D01*
X12340180Y-30286078D02*
X12292561Y-30190840D01*
X12292561Y-30190840D02*
X12244942Y-30143221D01*
X12244942Y-30143221D02*
X12149704Y-30095602D01*
X12149704Y-30095602D02*
X12102085Y-30095602D01*
X12102085Y-30095602D02*
X12006847Y-30143221D01*
X12006847Y-30143221D02*
X11959228Y-30190840D01*
X11959228Y-30190840D02*
X11911609Y-30286078D01*
X11911609Y-30286078D02*
X11911609Y-30476554D01*
X11911609Y-30476554D02*
X11863990Y-30571792D01*
X11863990Y-30571792D02*
X11816371Y-30619411D01*
X11816371Y-30619411D02*
X11721133Y-30667030D01*
X11721133Y-30667030D02*
X11530657Y-30667030D01*
X11530657Y-30667030D02*
X11435419Y-30619411D01*
X11435419Y-30619411D02*
X11387800Y-30571792D01*
X11387800Y-30571792D02*
X11340180Y-30476554D01*
X11340180Y-30476554D02*
X11340180Y-30286078D01*
X11340180Y-30286078D02*
X11387800Y-30190840D01*
X11387800Y-30190840D02*
X11435419Y-30143221D01*
X11435419Y-30143221D02*
X11530657Y-30095602D01*
X11530657Y-30095602D02*
X11721133Y-30095602D01*
X11721133Y-30095602D02*
X11816371Y-30143221D01*
X11816371Y-30143221D02*
X11863990Y-30190840D01*
X11863990Y-30190840D02*
X11911609Y-30286078D01*
D11*
X31793558Y-59387733D02*
X33317368Y-59387733D01*
X11889638Y-47986440D02*
X9889638Y-47986440D01*
X9889638Y-47986440D02*
X9889638Y-48462630D01*
X9889638Y-48462630D02*
X9984876Y-48748345D01*
X9984876Y-48748345D02*
X10175352Y-48938821D01*
X10175352Y-48938821D02*
X10365828Y-49034059D01*
X10365828Y-49034059D02*
X10746780Y-49129297D01*
X10746780Y-49129297D02*
X11032495Y-49129297D01*
X11032495Y-49129297D02*
X11413447Y-49034059D01*
X11413447Y-49034059D02*
X11603923Y-48938821D01*
X11603923Y-48938821D02*
X11794400Y-48748345D01*
X11794400Y-48748345D02*
X11889638Y-48462630D01*
X11889638Y-48462630D02*
X11889638Y-47986440D01*
X11318209Y-49891202D02*
X11318209Y-50843583D01*
X11889638Y-49700726D02*
X9889638Y-50367392D01*
X9889638Y-50367392D02*
X11889638Y-51034059D01*
X9889638Y-51415012D02*
X9889638Y-52557869D01*
X11889638Y-51986440D02*
X9889638Y-51986440D01*
X11318209Y-53129298D02*
X11318209Y-54081679D01*
X11889638Y-52938822D02*
X9889638Y-53605488D01*
X9889638Y-53605488D02*
X11889638Y-54272155D01*
D13*
X34344284Y-2774136D02*
X34429998Y-2859851D01*
X34429998Y-2859851D02*
X34687141Y-2945565D01*
X34687141Y-2945565D02*
X34858569Y-2945565D01*
X34858569Y-2945565D02*
X35115712Y-2859851D01*
X35115712Y-2859851D02*
X35287141Y-2688422D01*
X35287141Y-2688422D02*
X35372855Y-2516993D01*
X35372855Y-2516993D02*
X35458569Y-2174136D01*
X35458569Y-2174136D02*
X35458569Y-1916993D01*
X35458569Y-1916993D02*
X35372855Y-1574136D01*
X35372855Y-1574136D02*
X35287141Y-1402708D01*
X35287141Y-1402708D02*
X35115712Y-1231279D01*
X35115712Y-1231279D02*
X34858569Y-1145565D01*
X34858569Y-1145565D02*
X34687141Y-1145565D01*
X34687141Y-1145565D02*
X34429998Y-1231279D01*
X34429998Y-1231279D02*
X34344284Y-1316993D01*
X33572855Y-2945565D02*
X33572855Y-1745565D01*
X33572855Y-2088422D02*
X33487141Y-1916993D01*
X33487141Y-1916993D02*
X33401427Y-1831279D01*
X33401427Y-1831279D02*
X33229998Y-1745565D01*
X33229998Y-1745565D02*
X33058569Y-1745565D01*
X31772855Y-2859851D02*
X31944283Y-2945565D01*
X31944283Y-2945565D02*
X32287141Y-2945565D01*
X32287141Y-2945565D02*
X32458569Y-2859851D01*
X32458569Y-2859851D02*
X32544283Y-2688422D01*
X32544283Y-2688422D02*
X32544283Y-2002708D01*
X32544283Y-2002708D02*
X32458569Y-1831279D01*
X32458569Y-1831279D02*
X32287141Y-1745565D01*
X32287141Y-1745565D02*
X31944283Y-1745565D01*
X31944283Y-1745565D02*
X31772855Y-1831279D01*
X31772855Y-1831279D02*
X31687141Y-2002708D01*
X31687141Y-2002708D02*
X31687141Y-2174136D01*
X31687141Y-2174136D02*
X32544283Y-2345565D01*
X30144284Y-2945565D02*
X30144284Y-2002708D01*
X30144284Y-2002708D02*
X30229998Y-1831279D01*
X30229998Y-1831279D02*
X30401426Y-1745565D01*
X30401426Y-1745565D02*
X30744284Y-1745565D01*
X30744284Y-1745565D02*
X30915712Y-1831279D01*
X30144284Y-2859851D02*
X30315712Y-2945565D01*
X30315712Y-2945565D02*
X30744284Y-2945565D01*
X30744284Y-2945565D02*
X30915712Y-2859851D01*
X30915712Y-2859851D02*
X31001426Y-2688422D01*
X31001426Y-2688422D02*
X31001426Y-2516993D01*
X31001426Y-2516993D02*
X30915712Y-2345565D01*
X30915712Y-2345565D02*
X30744284Y-2259851D01*
X30744284Y-2259851D02*
X30315712Y-2259851D01*
X30315712Y-2259851D02*
X30144284Y-2174136D01*
X29544284Y-1745565D02*
X28858570Y-1745565D01*
X29287141Y-1145565D02*
X29287141Y-2688422D01*
X29287141Y-2688422D02*
X29201427Y-2859851D01*
X29201427Y-2859851D02*
X29029998Y-2945565D01*
X29029998Y-2945565D02*
X28858570Y-2945565D01*
X27572856Y-2859851D02*
X27744284Y-2945565D01*
X27744284Y-2945565D02*
X28087142Y-2945565D01*
X28087142Y-2945565D02*
X28258570Y-2859851D01*
X28258570Y-2859851D02*
X28344284Y-2688422D01*
X28344284Y-2688422D02*
X28344284Y-2002708D01*
X28344284Y-2002708D02*
X28258570Y-1831279D01*
X28258570Y-1831279D02*
X28087142Y-1745565D01*
X28087142Y-1745565D02*
X27744284Y-1745565D01*
X27744284Y-1745565D02*
X27572856Y-1831279D01*
X27572856Y-1831279D02*
X27487142Y-2002708D01*
X27487142Y-2002708D02*
X27487142Y-2174136D01*
X27487142Y-2174136D02*
X28344284Y-2345565D01*
X25944285Y-2945565D02*
X25944285Y-1145565D01*
X25944285Y-2859851D02*
X26115713Y-2945565D01*
X26115713Y-2945565D02*
X26458570Y-2945565D01*
X26458570Y-2945565D02*
X26629999Y-2859851D01*
X26629999Y-2859851D02*
X26715713Y-2774136D01*
X26715713Y-2774136D02*
X26801427Y-2602708D01*
X26801427Y-2602708D02*
X26801427Y-2088422D01*
X26801427Y-2088422D02*
X26715713Y-1916993D01*
X26715713Y-1916993D02*
X26629999Y-1831279D01*
X26629999Y-1831279D02*
X26458570Y-1745565D01*
X26458570Y-1745565D02*
X26115713Y-1745565D01*
X26115713Y-1745565D02*
X25944285Y-1831279D01*
X23715713Y-2945565D02*
X23715713Y-1145565D01*
X23715713Y-1831279D02*
X23544285Y-1745565D01*
X23544285Y-1745565D02*
X23201427Y-1745565D01*
X23201427Y-1745565D02*
X23029999Y-1831279D01*
X23029999Y-1831279D02*
X22944285Y-1916993D01*
X22944285Y-1916993D02*
X22858570Y-2088422D01*
X22858570Y-2088422D02*
X22858570Y-2602708D01*
X22858570Y-2602708D02*
X22944285Y-2774136D01*
X22944285Y-2774136D02*
X23029999Y-2859851D01*
X23029999Y-2859851D02*
X23201427Y-2945565D01*
X23201427Y-2945565D02*
X23544285Y-2945565D01*
X23544285Y-2945565D02*
X23715713Y-2859851D01*
X22258571Y-1745565D02*
X21829999Y-2945565D01*
X21401428Y-1745565D02*
X21829999Y-2945565D01*
X21829999Y-2945565D02*
X22001428Y-3374136D01*
X22001428Y-3374136D02*
X22087142Y-3459851D01*
X22087142Y-3459851D02*
X22258571Y-3545565D01*
X19601427Y-1145565D02*
X18572856Y-1145565D01*
X19087141Y-2945565D02*
X19087141Y-1145565D01*
X17715712Y-2945565D02*
X17887141Y-2859851D01*
X17887141Y-2859851D02*
X17972855Y-2774136D01*
X17972855Y-2774136D02*
X18058569Y-2602708D01*
X18058569Y-2602708D02*
X18058569Y-2088422D01*
X18058569Y-2088422D02*
X17972855Y-1916993D01*
X17972855Y-1916993D02*
X17887141Y-1831279D01*
X17887141Y-1831279D02*
X17715712Y-1745565D01*
X17715712Y-1745565D02*
X17458569Y-1745565D01*
X17458569Y-1745565D02*
X17287141Y-1831279D01*
X17287141Y-1831279D02*
X17201427Y-1916993D01*
X17201427Y-1916993D02*
X17115712Y-2088422D01*
X17115712Y-2088422D02*
X17115712Y-2602708D01*
X17115712Y-2602708D02*
X17201427Y-2774136D01*
X17201427Y-2774136D02*
X17287141Y-2859851D01*
X17287141Y-2859851D02*
X17458569Y-2945565D01*
X17458569Y-2945565D02*
X17715712Y-2945565D01*
X16344284Y-2945565D02*
X16344284Y-1745565D01*
X16344284Y-1916993D02*
X16258570Y-1831279D01*
X16258570Y-1831279D02*
X16087141Y-1745565D01*
X16087141Y-1745565D02*
X15829998Y-1745565D01*
X15829998Y-1745565D02*
X15658570Y-1831279D01*
X15658570Y-1831279D02*
X15572856Y-2002708D01*
X15572856Y-2002708D02*
X15572856Y-2945565D01*
X15572856Y-2002708D02*
X15487141Y-1831279D01*
X15487141Y-1831279D02*
X15315713Y-1745565D01*
X15315713Y-1745565D02*
X15058570Y-1745565D01*
X15058570Y-1745565D02*
X14887141Y-1831279D01*
X14887141Y-1831279D02*
X14801427Y-2002708D01*
X14801427Y-2002708D02*
X14801427Y-2945565D01*
X13172856Y-2945565D02*
X13172856Y-2002708D01*
X13172856Y-2002708D02*
X13258570Y-1831279D01*
X13258570Y-1831279D02*
X13429998Y-1745565D01*
X13429998Y-1745565D02*
X13772856Y-1745565D01*
X13772856Y-1745565D02*
X13944284Y-1831279D01*
X13172856Y-2859851D02*
X13344284Y-2945565D01*
X13344284Y-2945565D02*
X13772856Y-2945565D01*
X13772856Y-2945565D02*
X13944284Y-2859851D01*
X13944284Y-2859851D02*
X14029998Y-2688422D01*
X14029998Y-2688422D02*
X14029998Y-2516993D01*
X14029998Y-2516993D02*
X13944284Y-2345565D01*
X13944284Y-2345565D02*
X13772856Y-2259851D01*
X13772856Y-2259851D02*
X13344284Y-2259851D01*
X13344284Y-2259851D02*
X13172856Y-2174136D01*
X13429998Y-1059851D02*
X13687141Y-1316993D01*
X12401427Y-2859851D02*
X12229999Y-2945565D01*
X12229999Y-2945565D02*
X11887142Y-2945565D01*
X11887142Y-2945565D02*
X11715713Y-2859851D01*
X11715713Y-2859851D02*
X11629999Y-2688422D01*
X11629999Y-2688422D02*
X11629999Y-2602708D01*
X11629999Y-2602708D02*
X11715713Y-2431279D01*
X11715713Y-2431279D02*
X11887142Y-2345565D01*
X11887142Y-2345565D02*
X12144285Y-2345565D01*
X12144285Y-2345565D02*
X12315713Y-2259851D01*
X12315713Y-2259851D02*
X12401427Y-2088422D01*
X12401427Y-2088422D02*
X12401427Y-2002708D01*
X12401427Y-2002708D02*
X12315713Y-1831279D01*
X12315713Y-1831279D02*
X12144285Y-1745565D01*
X12144285Y-1745565D02*
X11887142Y-1745565D01*
X11887142Y-1745565D02*
X11715713Y-1831279D01*
X12401427Y-1059851D02*
X12058570Y-1316993D01*
X12058570Y-1316993D02*
X11715713Y-1059851D01*
X9487141Y-2945565D02*
X9487141Y-1145565D01*
X8458570Y-2945565D02*
X9229998Y-1916993D01*
X8458570Y-1145565D02*
X9487141Y-2174136D01*
X6915713Y-1745565D02*
X6915713Y-2945565D01*
X7687141Y-1745565D02*
X7687141Y-2688422D01*
X7687141Y-2688422D02*
X7601427Y-2859851D01*
X7601427Y-2859851D02*
X7429998Y-2945565D01*
X7429998Y-2945565D02*
X7172855Y-2945565D01*
X7172855Y-2945565D02*
X7001427Y-2859851D01*
X7001427Y-2859851D02*
X6915713Y-2774136D01*
X5287142Y-2859851D02*
X5458570Y-2945565D01*
X5458570Y-2945565D02*
X5801427Y-2945565D01*
X5801427Y-2945565D02*
X5972856Y-2859851D01*
X5972856Y-2859851D02*
X6058570Y-2774136D01*
X6058570Y-2774136D02*
X6144284Y-2602708D01*
X6144284Y-2602708D02*
X6144284Y-2088422D01*
X6144284Y-2088422D02*
X6058570Y-1916993D01*
X6058570Y-1916993D02*
X5972856Y-1831279D01*
X5972856Y-1831279D02*
X5801427Y-1745565D01*
X5801427Y-1745565D02*
X5458570Y-1745565D01*
X5458570Y-1745565D02*
X5287142Y-1831279D01*
X4515713Y-2945565D02*
X4515713Y-1145565D01*
X3744285Y-2945565D02*
X3744285Y-2002708D01*
X3744285Y-2002708D02*
X3829999Y-1831279D01*
X3829999Y-1831279D02*
X4001427Y-1745565D01*
X4001427Y-1745565D02*
X4258570Y-1745565D01*
X4258570Y-1745565D02*
X4429999Y-1831279D01*
X4429999Y-1831279D02*
X4515713Y-1916993D01*
X3144285Y-1745565D02*
X2458571Y-1745565D01*
X2887142Y-1145565D02*
X2887142Y-2688422D01*
X2887142Y-2688422D02*
X2801428Y-2859851D01*
X2801428Y-2859851D02*
X2629999Y-2945565D01*
X2629999Y-2945565D02*
X2458571Y-2945565D01*
X1087143Y-2945565D02*
X1087143Y-2002708D01*
X1087143Y-2002708D02*
X1172857Y-1831279D01*
X1172857Y-1831279D02*
X1344285Y-1745565D01*
X1344285Y-1745565D02*
X1687143Y-1745565D01*
X1687143Y-1745565D02*
X1858571Y-1831279D01*
X1087143Y-2859851D02*
X1258571Y-2945565D01*
X1258571Y-2945565D02*
X1687143Y-2945565D01*
X1687143Y-2945565D02*
X1858571Y-2859851D01*
X1858571Y-2859851D02*
X1944285Y-2688422D01*
X1944285Y-2688422D02*
X1944285Y-2516993D01*
X1944285Y-2516993D02*
X1858571Y-2345565D01*
X1858571Y-2345565D02*
X1687143Y-2259851D01*
X1687143Y-2259851D02*
X1258571Y-2259851D01*
X1258571Y-2259851D02*
X1087143Y-2174136D01*
X34644284Y-5157750D02*
X33272856Y-5157750D01*
X33958570Y-5843464D02*
X33958570Y-4472035D01*
X32672856Y-4043464D02*
X31644285Y-4043464D01*
X32158570Y-5843464D02*
X32158570Y-4043464D01*
X31044284Y-5843464D02*
X31044284Y-4043464D01*
X30272856Y-5843464D02*
X30272856Y-4900607D01*
X30272856Y-4900607D02*
X30358570Y-4729178D01*
X30358570Y-4729178D02*
X30529998Y-4643464D01*
X30529998Y-4643464D02*
X30787141Y-4643464D01*
X30787141Y-4643464D02*
X30958570Y-4729178D01*
X30958570Y-4729178D02*
X31044284Y-4814892D01*
X28729999Y-5757750D02*
X28901427Y-5843464D01*
X28901427Y-5843464D02*
X29244285Y-5843464D01*
X29244285Y-5843464D02*
X29415713Y-5757750D01*
X29415713Y-5757750D02*
X29501427Y-5586321D01*
X29501427Y-5586321D02*
X29501427Y-4900607D01*
X29501427Y-4900607D02*
X29415713Y-4729178D01*
X29415713Y-4729178D02*
X29244285Y-4643464D01*
X29244285Y-4643464D02*
X28901427Y-4643464D01*
X28901427Y-4643464D02*
X28729999Y-4729178D01*
X28729999Y-4729178D02*
X28644285Y-4900607D01*
X28644285Y-4900607D02*
X28644285Y-5072035D01*
X28644285Y-5072035D02*
X29501427Y-5243464D01*
X25729999Y-5843464D02*
X25729999Y-4900607D01*
X25729999Y-4900607D02*
X25815713Y-4729178D01*
X25815713Y-4729178D02*
X25987141Y-4643464D01*
X25987141Y-4643464D02*
X26329999Y-4643464D01*
X26329999Y-4643464D02*
X26501427Y-4729178D01*
X25729999Y-5757750D02*
X25901427Y-5843464D01*
X25901427Y-5843464D02*
X26329999Y-5843464D01*
X26329999Y-5843464D02*
X26501427Y-5757750D01*
X26501427Y-5757750D02*
X26587141Y-5586321D01*
X26587141Y-5586321D02*
X26587141Y-5414892D01*
X26587141Y-5414892D02*
X26501427Y-5243464D01*
X26501427Y-5243464D02*
X26329999Y-5157750D01*
X26329999Y-5157750D02*
X25901427Y-5157750D01*
X25901427Y-5157750D02*
X25729999Y-5072035D01*
X25044285Y-4643464D02*
X24701428Y-5843464D01*
X24701428Y-5843464D02*
X24358570Y-4986321D01*
X24358570Y-4986321D02*
X24015713Y-5843464D01*
X24015713Y-5843464D02*
X23672856Y-4643464D01*
X22301428Y-5757750D02*
X22472856Y-5843464D01*
X22472856Y-5843464D02*
X22815714Y-5843464D01*
X22815714Y-5843464D02*
X22987142Y-5757750D01*
X22987142Y-5757750D02*
X23072856Y-5586321D01*
X23072856Y-5586321D02*
X23072856Y-4900607D01*
X23072856Y-4900607D02*
X22987142Y-4729178D01*
X22987142Y-4729178D02*
X22815714Y-4643464D01*
X22815714Y-4643464D02*
X22472856Y-4643464D01*
X22472856Y-4643464D02*
X22301428Y-4729178D01*
X22301428Y-4729178D02*
X22215714Y-4900607D01*
X22215714Y-4900607D02*
X22215714Y-5072035D01*
X22215714Y-5072035D02*
X23072856Y-5243464D01*
X21529999Y-5757750D02*
X21358571Y-5843464D01*
X21358571Y-5843464D02*
X21015714Y-5843464D01*
X21015714Y-5843464D02*
X20844285Y-5757750D01*
X20844285Y-5757750D02*
X20758571Y-5586321D01*
X20758571Y-5586321D02*
X20758571Y-5500607D01*
X20758571Y-5500607D02*
X20844285Y-5329178D01*
X20844285Y-5329178D02*
X21015714Y-5243464D01*
X21015714Y-5243464D02*
X21272857Y-5243464D01*
X21272857Y-5243464D02*
X21444285Y-5157750D01*
X21444285Y-5157750D02*
X21529999Y-4986321D01*
X21529999Y-4986321D02*
X21529999Y-4900607D01*
X21529999Y-4900607D02*
X21444285Y-4729178D01*
X21444285Y-4729178D02*
X21272857Y-4643464D01*
X21272857Y-4643464D02*
X21015714Y-4643464D01*
X21015714Y-4643464D02*
X20844285Y-4729178D01*
X19729999Y-5843464D02*
X19901428Y-5757750D01*
X19901428Y-5757750D02*
X19987142Y-5672035D01*
X19987142Y-5672035D02*
X20072856Y-5500607D01*
X20072856Y-5500607D02*
X20072856Y-4986321D01*
X20072856Y-4986321D02*
X19987142Y-4814892D01*
X19987142Y-4814892D02*
X19901428Y-4729178D01*
X19901428Y-4729178D02*
X19729999Y-4643464D01*
X19729999Y-4643464D02*
X19472856Y-4643464D01*
X19472856Y-4643464D02*
X19301428Y-4729178D01*
X19301428Y-4729178D02*
X19215714Y-4814892D01*
X19215714Y-4814892D02*
X19129999Y-4986321D01*
X19129999Y-4986321D02*
X19129999Y-5500607D01*
X19129999Y-5500607D02*
X19215714Y-5672035D01*
X19215714Y-5672035D02*
X19301428Y-5757750D01*
X19301428Y-5757750D02*
X19472856Y-5843464D01*
X19472856Y-5843464D02*
X19729999Y-5843464D01*
X18358571Y-5843464D02*
X18358571Y-4643464D01*
X18358571Y-4814892D02*
X18272857Y-4729178D01*
X18272857Y-4729178D02*
X18101428Y-4643464D01*
X18101428Y-4643464D02*
X17844285Y-4643464D01*
X17844285Y-4643464D02*
X17672857Y-4729178D01*
X17672857Y-4729178D02*
X17587143Y-4900607D01*
X17587143Y-4900607D02*
X17587143Y-5843464D01*
X17587143Y-4900607D02*
X17501428Y-4729178D01*
X17501428Y-4729178D02*
X17330000Y-4643464D01*
X17330000Y-4643464D02*
X17072857Y-4643464D01*
X17072857Y-4643464D02*
X16901428Y-4729178D01*
X16901428Y-4729178D02*
X16815714Y-4900607D01*
X16815714Y-4900607D02*
X16815714Y-5843464D01*
X15272857Y-5757750D02*
X15444285Y-5843464D01*
X15444285Y-5843464D02*
X15787143Y-5843464D01*
X15787143Y-5843464D02*
X15958571Y-5757750D01*
X15958571Y-5757750D02*
X16044285Y-5586321D01*
X16044285Y-5586321D02*
X16044285Y-4900607D01*
X16044285Y-4900607D02*
X15958571Y-4729178D01*
X15958571Y-4729178D02*
X15787143Y-4643464D01*
X15787143Y-4643464D02*
X15444285Y-4643464D01*
X15444285Y-4643464D02*
X15272857Y-4729178D01*
X15272857Y-4729178D02*
X15187143Y-4900607D01*
X15187143Y-4900607D02*
X15187143Y-5072035D01*
X15187143Y-5072035D02*
X16044285Y-5243464D01*
X12272857Y-5757750D02*
X12444285Y-5843464D01*
X12444285Y-5843464D02*
X12787142Y-5843464D01*
X12787142Y-5843464D02*
X12958571Y-5757750D01*
X12958571Y-5757750D02*
X13044285Y-5672035D01*
X13044285Y-5672035D02*
X13129999Y-5500607D01*
X13129999Y-5500607D02*
X13129999Y-4986321D01*
X13129999Y-4986321D02*
X13044285Y-4814892D01*
X13044285Y-4814892D02*
X12958571Y-4729178D01*
X12958571Y-4729178D02*
X12787142Y-4643464D01*
X12787142Y-4643464D02*
X12444285Y-4643464D01*
X12444285Y-4643464D02*
X12272857Y-4729178D01*
X11244285Y-5843464D02*
X11415714Y-5757750D01*
X11415714Y-5757750D02*
X11501428Y-5672035D01*
X11501428Y-5672035D02*
X11587142Y-5500607D01*
X11587142Y-5500607D02*
X11587142Y-4986321D01*
X11587142Y-4986321D02*
X11501428Y-4814892D01*
X11501428Y-4814892D02*
X11415714Y-4729178D01*
X11415714Y-4729178D02*
X11244285Y-4643464D01*
X11244285Y-4643464D02*
X10987142Y-4643464D01*
X10987142Y-4643464D02*
X10815714Y-4729178D01*
X10815714Y-4729178D02*
X10730000Y-4814892D01*
X10730000Y-4814892D02*
X10644285Y-4986321D01*
X10644285Y-4986321D02*
X10644285Y-5500607D01*
X10644285Y-5500607D02*
X10730000Y-5672035D01*
X10730000Y-5672035D02*
X10815714Y-5757750D01*
X10815714Y-5757750D02*
X10987142Y-5843464D01*
X10987142Y-5843464D02*
X11244285Y-5843464D01*
X9872857Y-5843464D02*
X9872857Y-4643464D01*
X9872857Y-4814892D02*
X9787143Y-4729178D01*
X9787143Y-4729178D02*
X9615714Y-4643464D01*
X9615714Y-4643464D02*
X9358571Y-4643464D01*
X9358571Y-4643464D02*
X9187143Y-4729178D01*
X9187143Y-4729178D02*
X9101429Y-4900607D01*
X9101429Y-4900607D02*
X9101429Y-5843464D01*
X9101429Y-4900607D02*
X9015714Y-4729178D01*
X9015714Y-4729178D02*
X8844286Y-4643464D01*
X8844286Y-4643464D02*
X8587143Y-4643464D01*
X8587143Y-4643464D02*
X8415714Y-4729178D01*
X8415714Y-4729178D02*
X8330000Y-4900607D01*
X8330000Y-4900607D02*
X8330000Y-5843464D01*
X6701429Y-4643464D02*
X6701429Y-5843464D01*
X7472857Y-4643464D02*
X7472857Y-5586321D01*
X7472857Y-5586321D02*
X7387143Y-5757750D01*
X7387143Y-5757750D02*
X7215714Y-5843464D01*
X7215714Y-5843464D02*
X6958571Y-5843464D01*
X6958571Y-5843464D02*
X6787143Y-5757750D01*
X6787143Y-5757750D02*
X6701429Y-5672035D01*
X5844286Y-4643464D02*
X5844286Y-5843464D01*
X5844286Y-4814892D02*
X5758572Y-4729178D01*
X5758572Y-4729178D02*
X5587143Y-4643464D01*
X5587143Y-4643464D02*
X5330000Y-4643464D01*
X5330000Y-4643464D02*
X5158572Y-4729178D01*
X5158572Y-4729178D02*
X5072858Y-4900607D01*
X5072858Y-4900607D02*
X5072858Y-5843464D01*
X4215715Y-5843464D02*
X4215715Y-4643464D01*
X4215715Y-4043464D02*
X4301429Y-4129178D01*
X4301429Y-4129178D02*
X4215715Y-4214892D01*
X4215715Y-4214892D02*
X4130001Y-4129178D01*
X4130001Y-4129178D02*
X4215715Y-4043464D01*
X4215715Y-4043464D02*
X4215715Y-4214892D01*
X3615715Y-4643464D02*
X2930001Y-4643464D01*
X3358572Y-4043464D02*
X3358572Y-5586321D01*
X3358572Y-5586321D02*
X3272858Y-5757750D01*
X3272858Y-5757750D02*
X3101429Y-5843464D01*
X3101429Y-5843464D02*
X2930001Y-5843464D01*
X2501430Y-4643464D02*
X2072858Y-5843464D01*
X1644287Y-4643464D02*
X2072858Y-5843464D01*
X2072858Y-5843464D02*
X2244287Y-6272035D01*
X2244287Y-6272035D02*
X2330001Y-6357750D01*
X2330001Y-6357750D02*
X2501430Y-6443464D01*
D11*
X2309171Y-61559774D02*
X809171Y-61059774D01*
X809171Y-61059774D02*
X2309171Y-60559774D01*
X1594885Y-60059775D02*
X1594885Y-59559775D01*
X809171Y-59345489D02*
X809171Y-60059775D01*
X809171Y-60059775D02*
X2309171Y-60059775D01*
X2309171Y-60059775D02*
X2309171Y-59345489D01*
X809171Y-57845489D02*
X1523457Y-58345489D01*
X809171Y-58702632D02*
X2309171Y-58702632D01*
X2309171Y-58702632D02*
X2309171Y-58131203D01*
X2309171Y-58131203D02*
X2237742Y-57988346D01*
X2237742Y-57988346D02*
X2166314Y-57916917D01*
X2166314Y-57916917D02*
X2023457Y-57845489D01*
X2023457Y-57845489D02*
X1809171Y-57845489D01*
X1809171Y-57845489D02*
X1666314Y-57916917D01*
X1666314Y-57916917D02*
X1594885Y-57988346D01*
X1594885Y-57988346D02*
X1523457Y-58131203D01*
X1523457Y-58131203D02*
X1523457Y-58702632D01*
X880600Y-57274060D02*
X809171Y-57059775D01*
X809171Y-57059775D02*
X809171Y-56702632D01*
X809171Y-56702632D02*
X880600Y-56559775D01*
X880600Y-56559775D02*
X952028Y-56488346D01*
X952028Y-56488346D02*
X1094885Y-56416917D01*
X1094885Y-56416917D02*
X1237742Y-56416917D01*
X1237742Y-56416917D02*
X1380600Y-56488346D01*
X1380600Y-56488346D02*
X1452028Y-56559775D01*
X1452028Y-56559775D02*
X1523457Y-56702632D01*
X1523457Y-56702632D02*
X1594885Y-56988346D01*
X1594885Y-56988346D02*
X1666314Y-57131203D01*
X1666314Y-57131203D02*
X1737742Y-57202632D01*
X1737742Y-57202632D02*
X1880600Y-57274060D01*
X1880600Y-57274060D02*
X2023457Y-57274060D01*
X2023457Y-57274060D02*
X2166314Y-57202632D01*
X2166314Y-57202632D02*
X2237742Y-57131203D01*
X2237742Y-57131203D02*
X2309171Y-56988346D01*
X2309171Y-56988346D02*
X2309171Y-56631203D01*
X2309171Y-56631203D02*
X2237742Y-56416917D01*
X809171Y-55774061D02*
X2309171Y-55774061D01*
X2309171Y-54774060D02*
X2309171Y-54488346D01*
X2309171Y-54488346D02*
X2237742Y-54345489D01*
X2237742Y-54345489D02*
X2094885Y-54202632D01*
X2094885Y-54202632D02*
X1809171Y-54131203D01*
X1809171Y-54131203D02*
X1309171Y-54131203D01*
X1309171Y-54131203D02*
X1023457Y-54202632D01*
X1023457Y-54202632D02*
X880600Y-54345489D01*
X880600Y-54345489D02*
X809171Y-54488346D01*
X809171Y-54488346D02*
X809171Y-54774060D01*
X809171Y-54774060D02*
X880600Y-54916918D01*
X880600Y-54916918D02*
X1023457Y-55059775D01*
X1023457Y-55059775D02*
X1309171Y-55131203D01*
X1309171Y-55131203D02*
X1809171Y-55131203D01*
X1809171Y-55131203D02*
X2094885Y-55059775D01*
X2094885Y-55059775D02*
X2237742Y-54916918D01*
X2237742Y-54916918D02*
X2309171Y-54774060D01*
X809171Y-53488346D02*
X2309171Y-53488346D01*
X2309171Y-53488346D02*
X809171Y-52631203D01*
X809171Y-52631203D02*
X2309171Y-52631203D01*
X952028Y-51916917D02*
X880600Y-51845488D01*
X880600Y-51845488D02*
X809171Y-51916917D01*
X809171Y-51916917D02*
X880600Y-51988345D01*
X880600Y-51988345D02*
X952028Y-51916917D01*
X952028Y-51916917D02*
X809171Y-51916917D01*
X1737742Y-51916917D02*
X1666314Y-51845488D01*
X1666314Y-51845488D02*
X1594885Y-51916917D01*
X1594885Y-51916917D02*
X1666314Y-51988345D01*
X1666314Y-51988345D02*
X1737742Y-51916917D01*
X1737742Y-51916917D02*
X1594885Y-51916917D01*
X2309171Y-50274059D02*
X809171Y-49774059D01*
X809171Y-49774059D02*
X2309171Y-49274059D01*
X2166314Y-48845488D02*
X2237742Y-48774060D01*
X2237742Y-48774060D02*
X2309171Y-48631203D01*
X2309171Y-48631203D02*
X2309171Y-48274060D01*
X2309171Y-48274060D02*
X2237742Y-48131203D01*
X2237742Y-48131203D02*
X2166314Y-48059774D01*
X2166314Y-48059774D02*
X2023457Y-47988345D01*
X2023457Y-47988345D02*
X1880600Y-47988345D01*
X1880600Y-47988345D02*
X1666314Y-48059774D01*
X1666314Y-48059774D02*
X809171Y-48916917D01*
X809171Y-48916917D02*
X809171Y-47988345D01*
D12*
X10740180Y-23513220D02*
X11740180Y-23513220D01*
X11740180Y-22846554D02*
X11740180Y-22656078D01*
X11740180Y-22656078D02*
X11692561Y-22560840D01*
X11692561Y-22560840D02*
X11597323Y-22465602D01*
X11597323Y-22465602D02*
X11406847Y-22417983D01*
X11406847Y-22417983D02*
X11073514Y-22417983D01*
X11073514Y-22417983D02*
X10883038Y-22465602D01*
X10883038Y-22465602D02*
X10787800Y-22560840D01*
X10787800Y-22560840D02*
X10740180Y-22656078D01*
X10740180Y-22656078D02*
X10740180Y-22846554D01*
X10740180Y-22846554D02*
X10787800Y-22941792D01*
X10787800Y-22941792D02*
X10883038Y-23037030D01*
X10883038Y-23037030D02*
X11073514Y-23084649D01*
X11073514Y-23084649D02*
X11406847Y-23084649D01*
X11406847Y-23084649D02*
X11597323Y-23037030D01*
X11597323Y-23037030D02*
X11692561Y-22941792D01*
X11692561Y-22941792D02*
X11740180Y-22846554D01*
X11406847Y-21560840D02*
X10740180Y-21560840D01*
X11787800Y-21798935D02*
X11073514Y-22037030D01*
X11073514Y-22037030D02*
X11073514Y-21417983D01*
D11*
X15113558Y-57777733D02*
X16637368Y-57777733D01*
D12*
X22536666Y-19374819D02*
X22869999Y-18898628D01*
X23108094Y-19374819D02*
X23108094Y-18374819D01*
X23108094Y-18374819D02*
X22727142Y-18374819D01*
X22727142Y-18374819D02*
X22631904Y-18422438D01*
X22631904Y-18422438D02*
X22584285Y-18470057D01*
X22584285Y-18470057D02*
X22536666Y-18565295D01*
X22536666Y-18565295D02*
X22536666Y-18708152D01*
X22536666Y-18708152D02*
X22584285Y-18803390D01*
X22584285Y-18803390D02*
X22631904Y-18851009D01*
X22631904Y-18851009D02*
X22727142Y-18898628D01*
X22727142Y-18898628D02*
X23108094Y-18898628D01*
X22203332Y-18374819D02*
X21536666Y-19374819D01*
X21536666Y-18374819D02*
X22203332Y-19374819D01*
X10089047Y-8154819D02*
X10089047Y-7154819D01*
X9422381Y-7154819D02*
X9231905Y-7154819D01*
X9231905Y-7154819D02*
X9136667Y-7202438D01*
X9136667Y-7202438D02*
X9041429Y-7297676D01*
X9041429Y-7297676D02*
X8993810Y-7488152D01*
X8993810Y-7488152D02*
X8993810Y-7821485D01*
X8993810Y-7821485D02*
X9041429Y-8011961D01*
X9041429Y-8011961D02*
X9136667Y-8107200D01*
X9136667Y-8107200D02*
X9231905Y-8154819D01*
X9231905Y-8154819D02*
X9422381Y-8154819D01*
X9422381Y-8154819D02*
X9517619Y-8107200D01*
X9517619Y-8107200D02*
X9612857Y-8011961D01*
X9612857Y-8011961D02*
X9660476Y-7821485D01*
X9660476Y-7821485D02*
X9660476Y-7488152D01*
X9660476Y-7488152D02*
X9612857Y-7297676D01*
X9612857Y-7297676D02*
X9517619Y-7202438D01*
X9517619Y-7202438D02*
X9422381Y-7154819D01*
X8374762Y-7154819D02*
X8279524Y-7154819D01*
X8279524Y-7154819D02*
X8184286Y-7202438D01*
X8184286Y-7202438D02*
X8136667Y-7250057D01*
X8136667Y-7250057D02*
X8089048Y-7345295D01*
X8089048Y-7345295D02*
X8041429Y-7535771D01*
X8041429Y-7535771D02*
X8041429Y-7773866D01*
X8041429Y-7773866D02*
X8089048Y-7964342D01*
X8089048Y-7964342D02*
X8136667Y-8059580D01*
X8136667Y-8059580D02*
X8184286Y-8107200D01*
X8184286Y-8107200D02*
X8279524Y-8154819D01*
X8279524Y-8154819D02*
X8374762Y-8154819D01*
X8374762Y-8154819D02*
X8470000Y-8107200D01*
X8470000Y-8107200D02*
X8517619Y-8059580D01*
X8517619Y-8059580D02*
X8565238Y-7964342D01*
X8565238Y-7964342D02*
X8612857Y-7773866D01*
X8612857Y-7773866D02*
X8612857Y-7535771D01*
X8612857Y-7535771D02*
X8565238Y-7345295D01*
X8565238Y-7345295D02*
X8517619Y-7250057D01*
X8517619Y-7250057D02*
X8470000Y-7202438D01*
X8470000Y-7202438D02*
X8374762Y-7154819D01*
X7136667Y-7154819D02*
X7612857Y-7154819D01*
X7612857Y-7154819D02*
X7660476Y-7631009D01*
X7660476Y-7631009D02*
X7612857Y-7583390D01*
X7612857Y-7583390D02*
X7517619Y-7535771D01*
X7517619Y-7535771D02*
X7279524Y-7535771D01*
X7279524Y-7535771D02*
X7184286Y-7583390D01*
X7184286Y-7583390D02*
X7136667Y-7631009D01*
X7136667Y-7631009D02*
X7089048Y-7726247D01*
X7089048Y-7726247D02*
X7089048Y-7964342D01*
X7089048Y-7964342D02*
X7136667Y-8059580D01*
X7136667Y-8059580D02*
X7184286Y-8107200D01*
X7184286Y-8107200D02*
X7279524Y-8154819D01*
X7279524Y-8154819D02*
X7517619Y-8154819D01*
X7517619Y-8154819D02*
X7612857Y-8107200D01*
X7612857Y-8107200D02*
X7660476Y-8059580D01*
X6660476Y-7773866D02*
X5898572Y-7773866D01*
X4850953Y-8154819D02*
X5184286Y-7678628D01*
X5422381Y-8154819D02*
X5422381Y-7154819D01*
X5422381Y-7154819D02*
X5041429Y-7154819D01*
X5041429Y-7154819D02*
X4946191Y-7202438D01*
X4946191Y-7202438D02*
X4898572Y-7250057D01*
X4898572Y-7250057D02*
X4850953Y-7345295D01*
X4850953Y-7345295D02*
X4850953Y-7488152D01*
X4850953Y-7488152D02*
X4898572Y-7583390D01*
X4898572Y-7583390D02*
X4946191Y-7631009D01*
X4946191Y-7631009D02*
X5041429Y-7678628D01*
X5041429Y-7678628D02*
X5422381Y-7678628D01*
X4041429Y-8107200D02*
X4136667Y-8154819D01*
X4136667Y-8154819D02*
X4327143Y-8154819D01*
X4327143Y-8154819D02*
X4422381Y-8107200D01*
X4422381Y-8107200D02*
X4470000Y-8011961D01*
X4470000Y-8011961D02*
X4470000Y-7631009D01*
X4470000Y-7631009D02*
X4422381Y-7535771D01*
X4422381Y-7535771D02*
X4327143Y-7488152D01*
X4327143Y-7488152D02*
X4136667Y-7488152D01*
X4136667Y-7488152D02*
X4041429Y-7535771D01*
X4041429Y-7535771D02*
X3993810Y-7631009D01*
X3993810Y-7631009D02*
X3993810Y-7726247D01*
X3993810Y-7726247D02*
X4470000Y-7821485D01*
X3422381Y-8154819D02*
X3517619Y-8107200D01*
X3517619Y-8107200D02*
X3565238Y-8011961D01*
X3565238Y-8011961D02*
X3565238Y-7154819D01*
X2612857Y-8154819D02*
X2612857Y-7631009D01*
X2612857Y-7631009D02*
X2660476Y-7535771D01*
X2660476Y-7535771D02*
X2755714Y-7488152D01*
X2755714Y-7488152D02*
X2946190Y-7488152D01*
X2946190Y-7488152D02*
X3041428Y-7535771D01*
X2612857Y-8107200D02*
X2708095Y-8154819D01*
X2708095Y-8154819D02*
X2946190Y-8154819D01*
X2946190Y-8154819D02*
X3041428Y-8107200D01*
X3041428Y-8107200D02*
X3089047Y-8011961D01*
X3089047Y-8011961D02*
X3089047Y-7916723D01*
X3089047Y-7916723D02*
X3041428Y-7821485D01*
X3041428Y-7821485D02*
X2946190Y-7773866D01*
X2946190Y-7773866D02*
X2708095Y-7773866D01*
X2708095Y-7773866D02*
X2612857Y-7726247D01*
X2231904Y-7488152D02*
X1993809Y-8154819D01*
X1755714Y-7488152D02*
X1993809Y-8154819D01*
X1993809Y-8154819D02*
X2089047Y-8392914D01*
X2089047Y-8392914D02*
X2136666Y-8440533D01*
X2136666Y-8440533D02*
X2231904Y-8488152D01*
X3034819Y-13568095D02*
X2034819Y-13568095D01*
X2034819Y-14234761D02*
X2034819Y-14425237D01*
X2034819Y-14425237D02*
X2082438Y-14520475D01*
X2082438Y-14520475D02*
X2177676Y-14615713D01*
X2177676Y-14615713D02*
X2368152Y-14663332D01*
X2368152Y-14663332D02*
X2701485Y-14663332D01*
X2701485Y-14663332D02*
X2891961Y-14615713D01*
X2891961Y-14615713D02*
X2987200Y-14520475D01*
X2987200Y-14520475D02*
X3034819Y-14425237D01*
X3034819Y-14425237D02*
X3034819Y-14234761D01*
X3034819Y-14234761D02*
X2987200Y-14139523D01*
X2987200Y-14139523D02*
X2891961Y-14044285D01*
X2891961Y-14044285D02*
X2701485Y-13996666D01*
X2701485Y-13996666D02*
X2368152Y-13996666D01*
X2368152Y-13996666D02*
X2177676Y-14044285D01*
X2177676Y-14044285D02*
X2082438Y-14139523D01*
X2082438Y-14139523D02*
X2034819Y-14234761D01*
X3034819Y-15139523D02*
X3034819Y-15329999D01*
X3034819Y-15329999D02*
X2987200Y-15425237D01*
X2987200Y-15425237D02*
X2939580Y-15472856D01*
X2939580Y-15472856D02*
X2796723Y-15568094D01*
X2796723Y-15568094D02*
X2606247Y-15615713D01*
X2606247Y-15615713D02*
X2225295Y-15615713D01*
X2225295Y-15615713D02*
X2130057Y-15568094D01*
X2130057Y-15568094D02*
X2082438Y-15520475D01*
X2082438Y-15520475D02*
X2034819Y-15425237D01*
X2034819Y-15425237D02*
X2034819Y-15234761D01*
X2034819Y-15234761D02*
X2082438Y-15139523D01*
X2082438Y-15139523D02*
X2130057Y-15091904D01*
X2130057Y-15091904D02*
X2225295Y-15044285D01*
X2225295Y-15044285D02*
X2463390Y-15044285D01*
X2463390Y-15044285D02*
X2558628Y-15091904D01*
X2558628Y-15091904D02*
X2606247Y-15139523D01*
X2606247Y-15139523D02*
X2653866Y-15234761D01*
X2653866Y-15234761D02*
X2653866Y-15425237D01*
X2653866Y-15425237D02*
X2606247Y-15520475D01*
X2606247Y-15520475D02*
X2558628Y-15568094D01*
X2558628Y-15568094D02*
X2463390Y-15615713D01*
X2653866Y-16044285D02*
X2653866Y-16806190D01*
X3034819Y-17282380D02*
X2034819Y-17282380D01*
X2415771Y-17282380D02*
X2368152Y-17377618D01*
X2368152Y-17377618D02*
X2368152Y-17568094D01*
X2368152Y-17568094D02*
X2415771Y-17663332D01*
X2415771Y-17663332D02*
X2463390Y-17710951D01*
X2463390Y-17710951D02*
X2558628Y-17758570D01*
X2558628Y-17758570D02*
X2844342Y-17758570D01*
X2844342Y-17758570D02*
X2939580Y-17710951D01*
X2939580Y-17710951D02*
X2987200Y-17663332D01*
X2987200Y-17663332D02*
X3034819Y-17568094D01*
X3034819Y-17568094D02*
X3034819Y-17377618D01*
X3034819Y-17377618D02*
X2987200Y-17282380D01*
X3034819Y-18329999D02*
X2987200Y-18234761D01*
X2987200Y-18234761D02*
X2939580Y-18187142D01*
X2939580Y-18187142D02*
X2844342Y-18139523D01*
X2844342Y-18139523D02*
X2558628Y-18139523D01*
X2558628Y-18139523D02*
X2463390Y-18187142D01*
X2463390Y-18187142D02*
X2415771Y-18234761D01*
X2415771Y-18234761D02*
X2368152Y-18329999D01*
X2368152Y-18329999D02*
X2368152Y-18472856D01*
X2368152Y-18472856D02*
X2415771Y-18568094D01*
X2415771Y-18568094D02*
X2463390Y-18615713D01*
X2463390Y-18615713D02*
X2558628Y-18663332D01*
X2558628Y-18663332D02*
X2844342Y-18663332D01*
X2844342Y-18663332D02*
X2939580Y-18615713D01*
X2939580Y-18615713D02*
X2987200Y-18568094D01*
X2987200Y-18568094D02*
X3034819Y-18472856D01*
X3034819Y-18472856D02*
X3034819Y-18329999D01*
X3034819Y-19234761D02*
X2987200Y-19139523D01*
X2987200Y-19139523D02*
X2939580Y-19091904D01*
X2939580Y-19091904D02*
X2844342Y-19044285D01*
X2844342Y-19044285D02*
X2558628Y-19044285D01*
X2558628Y-19044285D02*
X2463390Y-19091904D01*
X2463390Y-19091904D02*
X2415771Y-19139523D01*
X2415771Y-19139523D02*
X2368152Y-19234761D01*
X2368152Y-19234761D02*
X2368152Y-19377618D01*
X2368152Y-19377618D02*
X2415771Y-19472856D01*
X2415771Y-19472856D02*
X2463390Y-19520475D01*
X2463390Y-19520475D02*
X2558628Y-19568094D01*
X2558628Y-19568094D02*
X2844342Y-19568094D01*
X2844342Y-19568094D02*
X2939580Y-19520475D01*
X2939580Y-19520475D02*
X2987200Y-19472856D01*
X2987200Y-19472856D02*
X3034819Y-19377618D01*
X3034819Y-19377618D02*
X3034819Y-19234761D01*
X2368152Y-19853809D02*
X2368152Y-20234761D01*
X2034819Y-19996666D02*
X2891961Y-19996666D01*
X2891961Y-19996666D02*
X2987200Y-20044285D01*
X2987200Y-20044285D02*
X3034819Y-20139523D01*
X3034819Y-20139523D02*
X3034819Y-20234761D01*
X19919580Y-58915833D02*
X19967200Y-58868214D01*
X19967200Y-58868214D02*
X20014819Y-58725357D01*
X20014819Y-58725357D02*
X20014819Y-58630119D01*
X20014819Y-58630119D02*
X19967200Y-58487262D01*
X19967200Y-58487262D02*
X19871961Y-58392024D01*
X19871961Y-58392024D02*
X19776723Y-58344405D01*
X19776723Y-58344405D02*
X19586247Y-58296786D01*
X19586247Y-58296786D02*
X19443390Y-58296786D01*
X19443390Y-58296786D02*
X19252914Y-58344405D01*
X19252914Y-58344405D02*
X19157676Y-58392024D01*
X19157676Y-58392024D02*
X19062438Y-58487262D01*
X19062438Y-58487262D02*
X19014819Y-58630119D01*
X19014819Y-58630119D02*
X19014819Y-58725357D01*
X19014819Y-58725357D02*
X19062438Y-58868214D01*
X19062438Y-58868214D02*
X19110057Y-58915833D01*
X19014819Y-59249167D02*
X19014819Y-59915833D01*
X19014819Y-59915833D02*
X20014819Y-59487262D01*
X23501904Y-14534819D02*
X22930476Y-14534819D01*
X23216190Y-15534819D02*
X23216190Y-14534819D01*
X22692380Y-14534819D02*
X22025714Y-15534819D01*
X22025714Y-14534819D02*
X22692380Y-15534819D01*
X21013808Y-29344819D02*
X21013808Y-28344819D01*
X20347142Y-28344819D02*
X20156666Y-28344819D01*
X20156666Y-28344819D02*
X20061428Y-28392438D01*
X20061428Y-28392438D02*
X19966190Y-28487676D01*
X19966190Y-28487676D02*
X19918571Y-28678152D01*
X19918571Y-28678152D02*
X19918571Y-29011485D01*
X19918571Y-29011485D02*
X19966190Y-29201961D01*
X19966190Y-29201961D02*
X20061428Y-29297200D01*
X20061428Y-29297200D02*
X20156666Y-29344819D01*
X20156666Y-29344819D02*
X20347142Y-29344819D01*
X20347142Y-29344819D02*
X20442380Y-29297200D01*
X20442380Y-29297200D02*
X20537618Y-29201961D01*
X20537618Y-29201961D02*
X20585237Y-29011485D01*
X20585237Y-29011485D02*
X20585237Y-28678152D01*
X20585237Y-28678152D02*
X20537618Y-28487676D01*
X20537618Y-28487676D02*
X20442380Y-28392438D01*
X20442380Y-28392438D02*
X20347142Y-28344819D01*
X19061428Y-28678152D02*
X19061428Y-29344819D01*
X19299523Y-28297200D02*
X19537618Y-29011485D01*
X19537618Y-29011485D02*
X18918571Y-29011485D01*
X18537618Y-28963866D02*
X17775714Y-28963866D01*
X16823333Y-28344819D02*
X17299523Y-28344819D01*
X17299523Y-28344819D02*
X17347142Y-28821009D01*
X17347142Y-28821009D02*
X17299523Y-28773390D01*
X17299523Y-28773390D02*
X17204285Y-28725771D01*
X17204285Y-28725771D02*
X16966190Y-28725771D01*
X16966190Y-28725771D02*
X16870952Y-28773390D01*
X16870952Y-28773390D02*
X16823333Y-28821009D01*
X16823333Y-28821009D02*
X16775714Y-28916247D01*
X16775714Y-28916247D02*
X16775714Y-29154342D01*
X16775714Y-29154342D02*
X16823333Y-29249580D01*
X16823333Y-29249580D02*
X16870952Y-29297200D01*
X16870952Y-29297200D02*
X16966190Y-29344819D01*
X16966190Y-29344819D02*
X17204285Y-29344819D01*
X17204285Y-29344819D02*
X17299523Y-29297200D01*
X17299523Y-29297200D02*
X17347142Y-29249580D01*
X16489999Y-28344819D02*
X16156666Y-29344819D01*
X16156666Y-29344819D02*
X15823333Y-28344819D01*
X29789999Y-32803866D02*
X29028095Y-32803866D01*
X29409047Y-33184819D02*
X29409047Y-32422914D01*
X28647142Y-32184819D02*
X28028095Y-32184819D01*
X28028095Y-32184819D02*
X28361428Y-32565771D01*
X28361428Y-32565771D02*
X28218571Y-32565771D01*
X28218571Y-32565771D02*
X28123333Y-32613390D01*
X28123333Y-32613390D02*
X28075714Y-32661009D01*
X28075714Y-32661009D02*
X28028095Y-32756247D01*
X28028095Y-32756247D02*
X28028095Y-32994342D01*
X28028095Y-32994342D02*
X28075714Y-33089580D01*
X28075714Y-33089580D02*
X28123333Y-33137200D01*
X28123333Y-33137200D02*
X28218571Y-33184819D01*
X28218571Y-33184819D02*
X28504285Y-33184819D01*
X28504285Y-33184819D02*
X28599523Y-33137200D01*
X28599523Y-33137200D02*
X28647142Y-33089580D01*
X27599523Y-33089580D02*
X27551904Y-33137200D01*
X27551904Y-33137200D02*
X27599523Y-33184819D01*
X27599523Y-33184819D02*
X27647142Y-33137200D01*
X27647142Y-33137200D02*
X27599523Y-33089580D01*
X27599523Y-33089580D02*
X27599523Y-33184819D01*
X27218571Y-32184819D02*
X26599524Y-32184819D01*
X26599524Y-32184819D02*
X26932857Y-32565771D01*
X26932857Y-32565771D02*
X26790000Y-32565771D01*
X26790000Y-32565771D02*
X26694762Y-32613390D01*
X26694762Y-32613390D02*
X26647143Y-32661009D01*
X26647143Y-32661009D02*
X26599524Y-32756247D01*
X26599524Y-32756247D02*
X26599524Y-32994342D01*
X26599524Y-32994342D02*
X26647143Y-33089580D01*
X26647143Y-33089580D02*
X26694762Y-33137200D01*
X26694762Y-33137200D02*
X26790000Y-33184819D01*
X26790000Y-33184819D02*
X27075714Y-33184819D01*
X27075714Y-33184819D02*
X27170952Y-33137200D01*
X27170952Y-33137200D02*
X27218571Y-33089580D01*
X26313809Y-32184819D02*
X25980476Y-33184819D01*
X25980476Y-33184819D02*
X25647143Y-32184819D01*
X12641904Y-8822438D02*
X12737142Y-8774819D01*
X12737142Y-8774819D02*
X12879999Y-8774819D01*
X12879999Y-8774819D02*
X13022856Y-8822438D01*
X13022856Y-8822438D02*
X13118094Y-8917676D01*
X13118094Y-8917676D02*
X13165713Y-9012914D01*
X13165713Y-9012914D02*
X13213332Y-9203390D01*
X13213332Y-9203390D02*
X13213332Y-9346247D01*
X13213332Y-9346247D02*
X13165713Y-9536723D01*
X13165713Y-9536723D02*
X13118094Y-9631961D01*
X13118094Y-9631961D02*
X13022856Y-9727200D01*
X13022856Y-9727200D02*
X12879999Y-9774819D01*
X12879999Y-9774819D02*
X12784761Y-9774819D01*
X12784761Y-9774819D02*
X12641904Y-9727200D01*
X12641904Y-9727200D02*
X12594285Y-9679580D01*
X12594285Y-9679580D02*
X12594285Y-9346247D01*
X12594285Y-9346247D02*
X12784761Y-9346247D01*
X12165713Y-9774819D02*
X12165713Y-8774819D01*
X12165713Y-8774819D02*
X11594285Y-9774819D01*
X11594285Y-9774819D02*
X11594285Y-8774819D01*
X11118094Y-9774819D02*
X11118094Y-8774819D01*
X11118094Y-8774819D02*
X10879999Y-8774819D01*
X10879999Y-8774819D02*
X10737142Y-8822438D01*
X10737142Y-8822438D02*
X10641904Y-8917676D01*
X10641904Y-8917676D02*
X10594285Y-9012914D01*
X10594285Y-9012914D02*
X10546666Y-9203390D01*
X10546666Y-9203390D02*
X10546666Y-9346247D01*
X10546666Y-9346247D02*
X10594285Y-9536723D01*
X10594285Y-9536723D02*
X10641904Y-9631961D01*
X10641904Y-9631961D02*
X10737142Y-9727200D01*
X10737142Y-9727200D02*
X10879999Y-9774819D01*
X10879999Y-9774819D02*
X11118094Y-9774819D01*
X20303808Y-27244819D02*
X20303808Y-26244819D01*
X19637142Y-26244819D02*
X19446666Y-26244819D01*
X19446666Y-26244819D02*
X19351428Y-26292438D01*
X19351428Y-26292438D02*
X19256190Y-26387676D01*
X19256190Y-26387676D02*
X19208571Y-26578152D01*
X19208571Y-26578152D02*
X19208571Y-26911485D01*
X19208571Y-26911485D02*
X19256190Y-27101961D01*
X19256190Y-27101961D02*
X19351428Y-27197200D01*
X19351428Y-27197200D02*
X19446666Y-27244819D01*
X19446666Y-27244819D02*
X19637142Y-27244819D01*
X19637142Y-27244819D02*
X19732380Y-27197200D01*
X19732380Y-27197200D02*
X19827618Y-27101961D01*
X19827618Y-27101961D02*
X19875237Y-26911485D01*
X19875237Y-26911485D02*
X19875237Y-26578152D01*
X19875237Y-26578152D02*
X19827618Y-26387676D01*
X19827618Y-26387676D02*
X19732380Y-26292438D01*
X19732380Y-26292438D02*
X19637142Y-26244819D01*
X18637142Y-26673390D02*
X18732380Y-26625771D01*
X18732380Y-26625771D02*
X18779999Y-26578152D01*
X18779999Y-26578152D02*
X18827618Y-26482914D01*
X18827618Y-26482914D02*
X18827618Y-26435295D01*
X18827618Y-26435295D02*
X18779999Y-26340057D01*
X18779999Y-26340057D02*
X18732380Y-26292438D01*
X18732380Y-26292438D02*
X18637142Y-26244819D01*
X18637142Y-26244819D02*
X18446666Y-26244819D01*
X18446666Y-26244819D02*
X18351428Y-26292438D01*
X18351428Y-26292438D02*
X18303809Y-26340057D01*
X18303809Y-26340057D02*
X18256190Y-26435295D01*
X18256190Y-26435295D02*
X18256190Y-26482914D01*
X18256190Y-26482914D02*
X18303809Y-26578152D01*
X18303809Y-26578152D02*
X18351428Y-26625771D01*
X18351428Y-26625771D02*
X18446666Y-26673390D01*
X18446666Y-26673390D02*
X18637142Y-26673390D01*
X18637142Y-26673390D02*
X18732380Y-26721009D01*
X18732380Y-26721009D02*
X18779999Y-26768628D01*
X18779999Y-26768628D02*
X18827618Y-26863866D01*
X18827618Y-26863866D02*
X18827618Y-27054342D01*
X18827618Y-27054342D02*
X18779999Y-27149580D01*
X18779999Y-27149580D02*
X18732380Y-27197200D01*
X18732380Y-27197200D02*
X18637142Y-27244819D01*
X18637142Y-27244819D02*
X18446666Y-27244819D01*
X18446666Y-27244819D02*
X18351428Y-27197200D01*
X18351428Y-27197200D02*
X18303809Y-27149580D01*
X18303809Y-27149580D02*
X18256190Y-27054342D01*
X18256190Y-27054342D02*
X18256190Y-26863866D01*
X18256190Y-26863866D02*
X18303809Y-26768628D01*
X18303809Y-26768628D02*
X18351428Y-26721009D01*
X18351428Y-26721009D02*
X18446666Y-26673390D01*
X17827618Y-26863866D02*
X17065714Y-26863866D01*
X16113333Y-26244819D02*
X16589523Y-26244819D01*
X16589523Y-26244819D02*
X16637142Y-26721009D01*
X16637142Y-26721009D02*
X16589523Y-26673390D01*
X16589523Y-26673390D02*
X16494285Y-26625771D01*
X16494285Y-26625771D02*
X16256190Y-26625771D01*
X16256190Y-26625771D02*
X16160952Y-26673390D01*
X16160952Y-26673390D02*
X16113333Y-26721009D01*
X16113333Y-26721009D02*
X16065714Y-26816247D01*
X16065714Y-26816247D02*
X16065714Y-27054342D01*
X16065714Y-27054342D02*
X16113333Y-27149580D01*
X16113333Y-27149580D02*
X16160952Y-27197200D01*
X16160952Y-27197200D02*
X16256190Y-27244819D01*
X16256190Y-27244819D02*
X16494285Y-27244819D01*
X16494285Y-27244819D02*
X16589523Y-27197200D01*
X16589523Y-27197200D02*
X16637142Y-27149580D01*
X15779999Y-26244819D02*
X15446666Y-27244819D01*
X15446666Y-27244819D02*
X15113333Y-26244819D01*
X10574819Y-27025714D02*
X10574819Y-26454286D01*
X10574819Y-26740000D02*
X9574819Y-26740000D01*
X9574819Y-26740000D02*
X9717676Y-26644762D01*
X9717676Y-26644762D02*
X9812914Y-26549524D01*
X9812914Y-26549524D02*
X9860533Y-26454286D01*
X9564819Y-28656667D02*
X9564819Y-29275714D01*
X9564819Y-29275714D02*
X9945771Y-28942381D01*
X9945771Y-28942381D02*
X9945771Y-29085238D01*
X9945771Y-29085238D02*
X9993390Y-29180476D01*
X9993390Y-29180476D02*
X10041009Y-29228095D01*
X10041009Y-29228095D02*
X10136247Y-29275714D01*
X10136247Y-29275714D02*
X10374342Y-29275714D01*
X10374342Y-29275714D02*
X10469580Y-29228095D01*
X10469580Y-29228095D02*
X10517200Y-29180476D01*
X10517200Y-29180476D02*
X10564819Y-29085238D01*
X10564819Y-29085238D02*
X10564819Y-28799524D01*
X10564819Y-28799524D02*
X10517200Y-28704286D01*
X10517200Y-28704286D02*
X10469580Y-28656667D01*
X16205713Y-16593866D02*
X15443809Y-16593866D01*
X15824761Y-16974819D02*
X15824761Y-16212914D01*
X14491428Y-15974819D02*
X14967618Y-15974819D01*
X14967618Y-15974819D02*
X15015237Y-16451009D01*
X15015237Y-16451009D02*
X14967618Y-16403390D01*
X14967618Y-16403390D02*
X14872380Y-16355771D01*
X14872380Y-16355771D02*
X14634285Y-16355771D01*
X14634285Y-16355771D02*
X14539047Y-16403390D01*
X14539047Y-16403390D02*
X14491428Y-16451009D01*
X14491428Y-16451009D02*
X14443809Y-16546247D01*
X14443809Y-16546247D02*
X14443809Y-16784342D01*
X14443809Y-16784342D02*
X14491428Y-16879580D01*
X14491428Y-16879580D02*
X14539047Y-16927200D01*
X14539047Y-16927200D02*
X14634285Y-16974819D01*
X14634285Y-16974819D02*
X14872380Y-16974819D01*
X14872380Y-16974819D02*
X14967618Y-16927200D01*
X14967618Y-16927200D02*
X15015237Y-16879580D01*
X14158094Y-15974819D02*
X13824761Y-16974819D01*
X13824761Y-16974819D02*
X13491428Y-15974819D01*
X16953809Y-13454819D02*
X16953809Y-12454819D01*
X16287143Y-12454819D02*
X16096667Y-12454819D01*
X16096667Y-12454819D02*
X16001429Y-12502438D01*
X16001429Y-12502438D02*
X15906191Y-12597676D01*
X15906191Y-12597676D02*
X15858572Y-12788152D01*
X15858572Y-12788152D02*
X15858572Y-13121485D01*
X15858572Y-13121485D02*
X15906191Y-13311961D01*
X15906191Y-13311961D02*
X16001429Y-13407200D01*
X16001429Y-13407200D02*
X16096667Y-13454819D01*
X16096667Y-13454819D02*
X16287143Y-13454819D01*
X16287143Y-13454819D02*
X16382381Y-13407200D01*
X16382381Y-13407200D02*
X16477619Y-13311961D01*
X16477619Y-13311961D02*
X16525238Y-13121485D01*
X16525238Y-13121485D02*
X16525238Y-12788152D01*
X16525238Y-12788152D02*
X16477619Y-12597676D01*
X16477619Y-12597676D02*
X16382381Y-12502438D01*
X16382381Y-12502438D02*
X16287143Y-12454819D01*
X15239524Y-12454819D02*
X15144286Y-12454819D01*
X15144286Y-12454819D02*
X15049048Y-12502438D01*
X15049048Y-12502438D02*
X15001429Y-12550057D01*
X15001429Y-12550057D02*
X14953810Y-12645295D01*
X14953810Y-12645295D02*
X14906191Y-12835771D01*
X14906191Y-12835771D02*
X14906191Y-13073866D01*
X14906191Y-13073866D02*
X14953810Y-13264342D01*
X14953810Y-13264342D02*
X15001429Y-13359580D01*
X15001429Y-13359580D02*
X15049048Y-13407200D01*
X15049048Y-13407200D02*
X15144286Y-13454819D01*
X15144286Y-13454819D02*
X15239524Y-13454819D01*
X15239524Y-13454819D02*
X15334762Y-13407200D01*
X15334762Y-13407200D02*
X15382381Y-13359580D01*
X15382381Y-13359580D02*
X15430000Y-13264342D01*
X15430000Y-13264342D02*
X15477619Y-13073866D01*
X15477619Y-13073866D02*
X15477619Y-12835771D01*
X15477619Y-12835771D02*
X15430000Y-12645295D01*
X15430000Y-12645295D02*
X15382381Y-12550057D01*
X15382381Y-12550057D02*
X15334762Y-12502438D01*
X15334762Y-12502438D02*
X15239524Y-12454819D01*
X14572857Y-12454819D02*
X13906191Y-12454819D01*
X13906191Y-12454819D02*
X14334762Y-13454819D01*
X13525238Y-13073866D02*
X12763334Y-13073866D01*
X11953810Y-12931009D02*
X11810953Y-12978628D01*
X11810953Y-12978628D02*
X11763334Y-13026247D01*
X11763334Y-13026247D02*
X11715715Y-13121485D01*
X11715715Y-13121485D02*
X11715715Y-13264342D01*
X11715715Y-13264342D02*
X11763334Y-13359580D01*
X11763334Y-13359580D02*
X11810953Y-13407200D01*
X11810953Y-13407200D02*
X11906191Y-13454819D01*
X11906191Y-13454819D02*
X12287143Y-13454819D01*
X12287143Y-13454819D02*
X12287143Y-12454819D01*
X12287143Y-12454819D02*
X11953810Y-12454819D01*
X11953810Y-12454819D02*
X11858572Y-12502438D01*
X11858572Y-12502438D02*
X11810953Y-12550057D01*
X11810953Y-12550057D02*
X11763334Y-12645295D01*
X11763334Y-12645295D02*
X11763334Y-12740533D01*
X11763334Y-12740533D02*
X11810953Y-12835771D01*
X11810953Y-12835771D02*
X11858572Y-12883390D01*
X11858572Y-12883390D02*
X11953810Y-12931009D01*
X11953810Y-12931009D02*
X12287143Y-12931009D01*
X10858572Y-12788152D02*
X10858572Y-13454819D01*
X11287143Y-12788152D02*
X11287143Y-13311961D01*
X11287143Y-13311961D02*
X11239524Y-13407200D01*
X11239524Y-13407200D02*
X11144286Y-13454819D01*
X11144286Y-13454819D02*
X11001429Y-13454819D01*
X11001429Y-13454819D02*
X10906191Y-13407200D01*
X10906191Y-13407200D02*
X10858572Y-13359580D01*
X10525238Y-12788152D02*
X10144286Y-12788152D01*
X10382381Y-12454819D02*
X10382381Y-13311961D01*
X10382381Y-13311961D02*
X10334762Y-13407200D01*
X10334762Y-13407200D02*
X10239524Y-13454819D01*
X10239524Y-13454819D02*
X10144286Y-13454819D01*
X9953809Y-12788152D02*
X9572857Y-12788152D01*
X9810952Y-12454819D02*
X9810952Y-13311961D01*
X9810952Y-13311961D02*
X9763333Y-13407200D01*
X9763333Y-13407200D02*
X9668095Y-13454819D01*
X9668095Y-13454819D02*
X9572857Y-13454819D01*
X9096666Y-13454819D02*
X9191904Y-13407200D01*
X9191904Y-13407200D02*
X9239523Y-13359580D01*
X9239523Y-13359580D02*
X9287142Y-13264342D01*
X9287142Y-13264342D02*
X9287142Y-12978628D01*
X9287142Y-12978628D02*
X9239523Y-12883390D01*
X9239523Y-12883390D02*
X9191904Y-12835771D01*
X9191904Y-12835771D02*
X9096666Y-12788152D01*
X9096666Y-12788152D02*
X8953809Y-12788152D01*
X8953809Y-12788152D02*
X8858571Y-12835771D01*
X8858571Y-12835771D02*
X8810952Y-12883390D01*
X8810952Y-12883390D02*
X8763333Y-12978628D01*
X8763333Y-12978628D02*
X8763333Y-13264342D01*
X8763333Y-13264342D02*
X8810952Y-13359580D01*
X8810952Y-13359580D02*
X8858571Y-13407200D01*
X8858571Y-13407200D02*
X8953809Y-13454819D01*
X8953809Y-13454819D02*
X9096666Y-13454819D01*
X8334761Y-12788152D02*
X8334761Y-13454819D01*
X8334761Y-12883390D02*
X8287142Y-12835771D01*
X8287142Y-12835771D02*
X8191904Y-12788152D01*
X8191904Y-12788152D02*
X8049047Y-12788152D01*
X8049047Y-12788152D02*
X7953809Y-12835771D01*
X7953809Y-12835771D02*
X7906190Y-12931009D01*
X7906190Y-12931009D02*
X7906190Y-13454819D01*
X15184819Y-21915714D02*
X15184819Y-21344286D01*
X15184819Y-21630000D02*
X14184819Y-21630000D01*
X14184819Y-21630000D02*
X14327676Y-21534762D01*
X14327676Y-21534762D02*
X14422914Y-21439524D01*
X14422914Y-21439524D02*
X14470533Y-21344286D01*
X14234819Y-23586667D02*
X14234819Y-24205714D01*
X14234819Y-24205714D02*
X14615771Y-23872381D01*
X14615771Y-23872381D02*
X14615771Y-24015238D01*
X14615771Y-24015238D02*
X14663390Y-24110476D01*
X14663390Y-24110476D02*
X14711009Y-24158095D01*
X14711009Y-24158095D02*
X14806247Y-24205714D01*
X14806247Y-24205714D02*
X15044342Y-24205714D01*
X15044342Y-24205714D02*
X15139580Y-24158095D01*
X15139580Y-24158095D02*
X15187200Y-24110476D01*
X15187200Y-24110476D02*
X15234819Y-24015238D01*
X15234819Y-24015238D02*
X15234819Y-23729524D01*
X15234819Y-23729524D02*
X15187200Y-23634286D01*
X15187200Y-23634286D02*
X15139580Y-23586667D01*
D14*
%TO.C,TP6*%
X25290000Y-18920000D02*
G75*
G02*
X23390000Y-18920000I-950000J0D01*
G01*
X23390000Y-18920000D02*
G75*
G02*
X25290000Y-18920000I950000J0D01*
G01*
D10*
%TO.C,G\u002A\u002A\u002A*%
G36*
X21657521Y-42197597D02*
G01*
X21657521Y-43361424D01*
X21510201Y-43361424D01*
X21362880Y-43361424D01*
X21362880Y-42197597D01*
X21362880Y-41033771D01*
X21510201Y-41033771D01*
X21657521Y-41033771D01*
X21657521Y-42197597D01*
G37*
G36*
X11718948Y-41035580D02*
G01*
X12556831Y-41037456D01*
X12556831Y-41243702D01*
X12556831Y-41449951D01*
X12212471Y-41451865D01*
X11868109Y-41453779D01*
X11868109Y-42407599D01*
X11868109Y-43361424D01*
X11717107Y-43361424D01*
X11566104Y-43361424D01*
X11566104Y-42407529D01*
X11566104Y-41453633D01*
X11223585Y-41453633D01*
X10881066Y-41453633D01*
X10881066Y-41243672D01*
X10881066Y-41033708D01*
X11718948Y-41035580D01*
G37*
G36*
X25929801Y-41243672D02*
G01*
X25929801Y-41453633D01*
X25587281Y-41453633D01*
X25244763Y-41453633D01*
X25244763Y-42407529D01*
X25244763Y-43361424D01*
X25093761Y-43361424D01*
X24942756Y-43361424D01*
X24942756Y-42407529D01*
X24942756Y-41453633D01*
X24596439Y-41453633D01*
X24250122Y-41453633D01*
X24252081Y-41245544D01*
X24254037Y-41037456D01*
X25091917Y-41035580D01*
X25929801Y-41033708D01*
X25929801Y-41243672D01*
G37*
G36*
X5697207Y-41771425D02*
G01*
X5699085Y-42511291D01*
X6301183Y-41870133D01*
X6340710Y-41828039D01*
X6418943Y-41744757D01*
X6495213Y-41663587D01*
X6568788Y-41585307D01*
X6638925Y-41510712D01*
X6704885Y-41440579D01*
X6765933Y-41375696D01*
X6821329Y-41316849D01*
X6870333Y-41264819D01*
X6912211Y-41220393D01*
X6946221Y-41184353D01*
X6971625Y-41157487D01*
X6987686Y-41140579D01*
X7072094Y-41052187D01*
X7072469Y-42206803D01*
X7072843Y-43361424D01*
X6925559Y-43361424D01*
X6778275Y-43361424D01*
X6776397Y-42627669D01*
X6774519Y-41893915D01*
X6115263Y-42595494D01*
X6097813Y-42614065D01*
X6016941Y-42700139D01*
X5938621Y-42783516D01*
X5863477Y-42863525D01*
X5792137Y-42939498D01*
X5725233Y-43010764D01*
X5663389Y-43076655D01*
X5607237Y-43136500D01*
X5557406Y-43189625D01*
X5514522Y-43235370D01*
X5479215Y-43273056D01*
X5452110Y-43302019D01*
X5433840Y-43321587D01*
X5425032Y-43331093D01*
X5394056Y-43365106D01*
X5393725Y-42203122D01*
X5393395Y-41041139D01*
X5472581Y-41041098D01*
X5489048Y-41041005D01*
X5535221Y-41040101D01*
X5582731Y-41038449D01*
X5623548Y-41036307D01*
X5695332Y-41031554D01*
X5697207Y-41771425D01*
G37*
G36*
X17272782Y-41900966D02*
G01*
X17272587Y-41969409D01*
X17272229Y-42093571D01*
X17271881Y-42204273D01*
X17271531Y-42302352D01*
X17271160Y-42388651D01*
X17270755Y-42464013D01*
X17270296Y-42529275D01*
X17269767Y-42585280D01*
X17269155Y-42632871D01*
X17268441Y-42672889D01*
X17267607Y-42706175D01*
X17266642Y-42733570D01*
X17265522Y-42755915D01*
X17264241Y-42774053D01*
X17262773Y-42788824D01*
X17261109Y-42801071D01*
X17259229Y-42811633D01*
X17257115Y-42821352D01*
X17254752Y-42831072D01*
X17242194Y-42877701D01*
X17206578Y-42981137D01*
X17163249Y-43073164D01*
X17112471Y-43153449D01*
X17054509Y-43221660D01*
X16989627Y-43277470D01*
X16918086Y-43320543D01*
X16840157Y-43350550D01*
X16831506Y-43352340D01*
X16815468Y-43354179D01*
X16792215Y-43355748D01*
X16760805Y-43357063D01*
X16720301Y-43358146D01*
X16669762Y-43359019D01*
X16608250Y-43359699D01*
X16534823Y-43360199D01*
X16448545Y-43360551D01*
X16348476Y-43360765D01*
X15889943Y-43361424D01*
X15889943Y-43156235D01*
X15889943Y-42951046D01*
X16338190Y-42947350D01*
X16786440Y-42943656D01*
X16825150Y-42922585D01*
X16862742Y-42897321D01*
X16898119Y-42861147D01*
X16929003Y-42814162D01*
X16956895Y-42754445D01*
X16958056Y-42751213D01*
X16959826Y-42744382D01*
X16961411Y-42734995D01*
X16962828Y-42722244D01*
X16964094Y-42705316D01*
X16965223Y-42683400D01*
X16966229Y-42655683D01*
X16967125Y-42621355D01*
X16967927Y-42579600D01*
X16968651Y-42529611D01*
X16969311Y-42470572D01*
X16969919Y-42401674D01*
X16970495Y-42322103D01*
X16971051Y-42231049D01*
X16971600Y-42127697D01*
X16972162Y-42011240D01*
X16972745Y-41880863D01*
X16976427Y-41037456D01*
X17125822Y-41035459D01*
X17275212Y-41033465D01*
X17272782Y-41900966D01*
G37*
G36*
X19736801Y-41773853D02*
G01*
X19738677Y-42516131D01*
X20173271Y-42053047D01*
X20225945Y-41996927D01*
X20297845Y-41920319D01*
X20371031Y-41842351D01*
X20444742Y-41763830D01*
X20518223Y-41685559D01*
X20590711Y-41608352D01*
X20661453Y-41533010D01*
X20729688Y-41460341D01*
X20794663Y-41391151D01*
X20855617Y-41326249D01*
X20911792Y-41266443D01*
X20962429Y-41212537D01*
X21006775Y-41165340D01*
X21044068Y-41125653D01*
X21073554Y-41094294D01*
X21094471Y-41072058D01*
X21106066Y-41059758D01*
X21106433Y-41059375D01*
X21108214Y-41057945D01*
X21109824Y-41057868D01*
X21111283Y-41059812D01*
X21112589Y-41064452D01*
X21113757Y-41072449D01*
X21114791Y-41084480D01*
X21115697Y-41101205D01*
X21116489Y-41123301D01*
X21117173Y-41151432D01*
X21117756Y-41186270D01*
X21118245Y-41228479D01*
X21118648Y-41278735D01*
X21118977Y-41337698D01*
X21119236Y-41406045D01*
X21119435Y-41484445D01*
X21119579Y-41573561D01*
X21119682Y-41674063D01*
X21119748Y-41786622D01*
X21119784Y-41911907D01*
X21119800Y-42050585D01*
X21119802Y-42203326D01*
X21119802Y-43361424D01*
X20968834Y-43361424D01*
X20817868Y-43361424D01*
X20815991Y-42630090D01*
X20814113Y-41898759D01*
X20215515Y-42536173D01*
X20179684Y-42574326D01*
X20101488Y-42657568D01*
X20025162Y-42738793D01*
X19951455Y-42817210D01*
X19881108Y-42892025D01*
X19814873Y-42962442D01*
X19753494Y-43027673D01*
X19697717Y-43086922D01*
X19648291Y-43139393D01*
X19605958Y-43184299D01*
X19571470Y-43220841D01*
X19545570Y-43248227D01*
X19529005Y-43265665D01*
X19441093Y-43357743D01*
X19440723Y-42199437D01*
X19440354Y-41041139D01*
X19520249Y-41041139D01*
X19538453Y-41041032D01*
X19583651Y-41040122D01*
X19629191Y-41038479D01*
X19667536Y-41036355D01*
X19734925Y-41031570D01*
X19736801Y-41773853D01*
G37*
G36*
X4961586Y-39505709D02*
G01*
X5001450Y-39517423D01*
X5036617Y-39539876D01*
X5041397Y-39544153D01*
X5054413Y-39557264D01*
X5065579Y-39571964D01*
X5076174Y-39590737D01*
X5087480Y-39616069D01*
X5100777Y-39650443D01*
X5117351Y-39696343D01*
X5126209Y-39721279D01*
X5163147Y-39824976D01*
X5195379Y-39914941D01*
X5222960Y-39991337D01*
X5245952Y-40054332D01*
X5264418Y-40104087D01*
X5278416Y-40140770D01*
X5288009Y-40164543D01*
X5293253Y-40175570D01*
X5303123Y-40183753D01*
X5324063Y-40195881D01*
X5352962Y-40210151D01*
X5386849Y-40224995D01*
X5414036Y-40236212D01*
X5453855Y-40252625D01*
X5501856Y-40272399D01*
X5555220Y-40294377D01*
X5611128Y-40317396D01*
X5666757Y-40340294D01*
X5671698Y-40342326D01*
X5733747Y-40367895D01*
X5783745Y-40388647D01*
X5823163Y-40405309D01*
X5853468Y-40418607D01*
X5876136Y-40429269D01*
X5892635Y-40438020D01*
X5904437Y-40445583D01*
X5913011Y-40452687D01*
X5919831Y-40460058D01*
X5926371Y-40468424D01*
X5943853Y-40497414D01*
X5956284Y-40539992D01*
X5955248Y-40583168D01*
X5940912Y-40624403D01*
X5913450Y-40661167D01*
X5910639Y-40663909D01*
X5902226Y-40671373D01*
X5892384Y-40678515D01*
X5879729Y-40685912D01*
X5862871Y-40694142D01*
X5840431Y-40703781D01*
X5811012Y-40715405D01*
X5773241Y-40729593D01*
X5725717Y-40746920D01*
X5667067Y-40767961D01*
X5595896Y-40793295D01*
X5569236Y-40802787D01*
X5508227Y-40824665D01*
X5451743Y-40845127D01*
X5401341Y-40863595D01*
X5358591Y-40879494D01*
X5325051Y-40892241D01*
X5302284Y-40901259D01*
X5291852Y-40905969D01*
X5288437Y-40908205D01*
X5283512Y-40912133D01*
X5278502Y-40917709D01*
X5272856Y-40926137D01*
X5266026Y-40938612D01*
X5257461Y-40956337D01*
X5246613Y-40980507D01*
X5232937Y-41012322D01*
X5215880Y-41052977D01*
X5194899Y-41103675D01*
X5169438Y-41165612D01*
X5138953Y-41239988D01*
X5127434Y-41268067D01*
X5099594Y-41335405D01*
X5076181Y-41390817D01*
X5056482Y-41435609D01*
X5039780Y-41471078D01*
X5025362Y-41498531D01*
X5012513Y-41519262D01*
X5000515Y-41534576D01*
X4988653Y-41545773D01*
X4976216Y-41554153D01*
X4962483Y-41561018D01*
X4956217Y-41563383D01*
X4931924Y-41568871D01*
X4905398Y-41571201D01*
X4870410Y-41571491D01*
X4870410Y-40547874D01*
X4870410Y-40496840D01*
X4870424Y-40358348D01*
X4870459Y-40233614D01*
X4870525Y-40121917D01*
X4870637Y-40022533D01*
X4870795Y-39934736D01*
X4871012Y-39857808D01*
X4871303Y-39791018D01*
X4871669Y-39733649D01*
X4872117Y-39684973D01*
X4872668Y-39644269D01*
X4873321Y-39610814D01*
X4874089Y-39583883D01*
X4874979Y-39562754D01*
X4876004Y-39546703D01*
X4877171Y-39535004D01*
X4878489Y-39526938D01*
X4879964Y-39521779D01*
X4881612Y-39518803D01*
X4883436Y-39517290D01*
X4884181Y-39516896D01*
X4921129Y-39505329D01*
X4961586Y-39505709D01*
G37*
G36*
X18133873Y-41256594D02*
G01*
X18145883Y-41271855D01*
X18224145Y-41371237D01*
X18300629Y-41468275D01*
X18374821Y-41562306D01*
X18446195Y-41652677D01*
X18514223Y-41738720D01*
X18578386Y-41819778D01*
X18638160Y-41895191D01*
X18693017Y-41964299D01*
X18742440Y-42026447D01*
X18785898Y-42080964D01*
X18822873Y-42127200D01*
X18852838Y-42164496D01*
X18875272Y-42192186D01*
X18889648Y-42209614D01*
X18895446Y-42216120D01*
X18895836Y-42215859D01*
X18897231Y-42205645D01*
X18898473Y-42181027D01*
X18899556Y-42142265D01*
X18900486Y-42089616D01*
X18901252Y-42023346D01*
X18901852Y-41943705D01*
X18902286Y-41850955D01*
X18902548Y-41745357D01*
X18902637Y-41627171D01*
X18902637Y-41033771D01*
X19049957Y-41033771D01*
X19197276Y-41033771D01*
X19197276Y-42197597D01*
X19197276Y-43361424D01*
X19049957Y-43361424D01*
X18902637Y-43361424D01*
X18902471Y-43075993D01*
X18902305Y-42790558D01*
X18690700Y-42523837D01*
X18652045Y-42475191D01*
X18611358Y-42424163D01*
X18574290Y-42377855D01*
X18541761Y-42337410D01*
X18514690Y-42303967D01*
X18493992Y-42278664D01*
X18480594Y-42262638D01*
X18475409Y-42257034D01*
X18473592Y-42259794D01*
X18465509Y-42274211D01*
X18451451Y-42300113D01*
X18431927Y-42336547D01*
X18407440Y-42382561D01*
X18378492Y-42437199D01*
X18345597Y-42499509D01*
X18309247Y-42568540D01*
X18269955Y-42643332D01*
X18228226Y-42722938D01*
X18184561Y-42806401D01*
X18156037Y-42860915D01*
X18113434Y-42942130D01*
X18073013Y-43018921D01*
X18035289Y-43090331D01*
X18000773Y-43155396D01*
X17969979Y-43213157D01*
X17943418Y-43262653D01*
X17921607Y-43302925D01*
X17905055Y-43333008D01*
X17894275Y-43351943D01*
X17889780Y-43358771D01*
X17884918Y-43359301D01*
X17866819Y-43359881D01*
X17837571Y-43360224D01*
X17799285Y-43360318D01*
X17754093Y-43360152D01*
X17704105Y-43359718D01*
X17526042Y-43357743D01*
X17886364Y-42669019D01*
X17931725Y-42582259D01*
X17978956Y-42491800D01*
X18023806Y-42405765D01*
X18065839Y-42325013D01*
X18104599Y-42250410D01*
X18139643Y-42182817D01*
X18170526Y-42123094D01*
X18196800Y-42072113D01*
X18218016Y-42030721D01*
X18233734Y-41999793D01*
X18243502Y-41980184D01*
X18246874Y-41972762D01*
X18246221Y-41971464D01*
X18238483Y-41960439D01*
X18222556Y-41939077D01*
X18199127Y-41908260D01*
X18168876Y-41868872D01*
X18132491Y-41821796D01*
X18090653Y-41767911D01*
X18044046Y-41708108D01*
X17993352Y-41643265D01*
X17939257Y-41574267D01*
X17882445Y-41501996D01*
X17859997Y-41473471D01*
X17804201Y-41402531D01*
X17751379Y-41335313D01*
X17702215Y-41272692D01*
X17657392Y-41215541D01*
X17617590Y-41164729D01*
X17583497Y-41121126D01*
X17555789Y-41085607D01*
X17535156Y-41059045D01*
X17522273Y-41042307D01*
X17517828Y-41036273D01*
X17518743Y-41036043D01*
X17530603Y-41035434D01*
X17554752Y-41034891D01*
X17589387Y-41034432D01*
X17632704Y-41034077D01*
X17682901Y-41033851D01*
X17738176Y-41033771D01*
X17958525Y-41033771D01*
X18133873Y-41256594D01*
G37*
G36*
X14610104Y-41035483D02*
G01*
X14611962Y-41035490D01*
X14724311Y-41035899D01*
X14822911Y-41036303D01*
X14908728Y-41036721D01*
X14982726Y-41037181D01*
X15045876Y-41037703D01*
X15099141Y-41038310D01*
X15143492Y-41039022D01*
X15179891Y-41039861D01*
X15209307Y-41040853D01*
X15232709Y-41042017D01*
X15251059Y-41043374D01*
X15265327Y-41044951D01*
X15276479Y-41046767D01*
X15285481Y-41048845D01*
X15293299Y-41051205D01*
X15359450Y-41080673D01*
X15421691Y-41123473D01*
X15478364Y-41178209D01*
X15528408Y-41243684D01*
X15570764Y-41318705D01*
X15604371Y-41402073D01*
X15610578Y-41420858D01*
X15616379Y-41439096D01*
X15621444Y-41456678D01*
X15625830Y-41474633D01*
X15629583Y-41493985D01*
X15632750Y-41515765D01*
X15635383Y-41540991D01*
X15637532Y-41570696D01*
X15639245Y-41605898D01*
X15640572Y-41647631D01*
X15641559Y-41696912D01*
X15642263Y-41754775D01*
X15642726Y-41822240D01*
X15643001Y-41900333D01*
X15643135Y-41990082D01*
X15643182Y-42092511D01*
X15643185Y-42208647D01*
X15643185Y-42237433D01*
X15643177Y-42346471D01*
X15643142Y-42442023D01*
X15643053Y-42525076D01*
X15642889Y-42596635D01*
X15642626Y-42657699D01*
X15642243Y-42709261D01*
X15641713Y-42752326D01*
X15641017Y-42787878D01*
X15640130Y-42816928D01*
X15639026Y-42840471D01*
X15637687Y-42859500D01*
X15636084Y-42875016D01*
X15634200Y-42888013D01*
X15632007Y-42899496D01*
X15629484Y-42910458D01*
X15626610Y-42921897D01*
X15616159Y-42960195D01*
X15586609Y-43045633D01*
X15550791Y-43119989D01*
X15507627Y-43185289D01*
X15456038Y-43243567D01*
X15425528Y-43272049D01*
X15379765Y-43307364D01*
X15334116Y-43332564D01*
X15285163Y-43349766D01*
X15284231Y-43350012D01*
X15274728Y-43351905D01*
X15261477Y-43353567D01*
X15243558Y-43355013D01*
X15220059Y-43356258D01*
X15190063Y-43357320D01*
X15152654Y-43358211D01*
X15106922Y-43358945D01*
X15051947Y-43359538D01*
X14986815Y-43360012D01*
X14910611Y-43360369D01*
X14822420Y-43360635D01*
X14721330Y-43360821D01*
X14606420Y-43360939D01*
X13967419Y-43361424D01*
X13967419Y-43155175D01*
X13967419Y-42948929D01*
X14584322Y-42948888D01*
X14708814Y-42948790D01*
X14825358Y-42948502D01*
X14927183Y-42948018D01*
X15014289Y-42947339D01*
X15086690Y-42946469D01*
X15144389Y-42945405D01*
X15187388Y-42944145D01*
X15215695Y-42942691D01*
X15229317Y-42941046D01*
X15255398Y-42928813D01*
X15285002Y-42903981D01*
X15311329Y-42870741D01*
X15331313Y-42832356D01*
X15334275Y-42824695D01*
X15338190Y-42813168D01*
X15341276Y-42800758D01*
X15343635Y-42785736D01*
X15345368Y-42766372D01*
X15346581Y-42740932D01*
X15347367Y-42707687D01*
X15347834Y-42664902D01*
X15348079Y-42610851D01*
X15348205Y-42543798D01*
X15348543Y-42297039D01*
X14808986Y-42295149D01*
X14269425Y-42293257D01*
X14269425Y-42087059D01*
X14269425Y-41880863D01*
X14810827Y-41880863D01*
X15352227Y-41880863D01*
X15352172Y-41775896D01*
X15351836Y-41740514D01*
X15348735Y-41673162D01*
X15341988Y-41617707D01*
X15331099Y-41572405D01*
X15315579Y-41535516D01*
X15294938Y-41505291D01*
X15268677Y-41479992D01*
X15240375Y-41457318D01*
X14603899Y-41455356D01*
X13967419Y-41453395D01*
X13967419Y-41243316D01*
X13967419Y-41033237D01*
X14610104Y-41035483D01*
G37*
G36*
X10637988Y-42204961D02*
G01*
X10637988Y-43368791D01*
X10486983Y-43368791D01*
X10335981Y-43368791D01*
X10335981Y-42834754D01*
X10335981Y-42300720D01*
X10166840Y-42300720D01*
X10152438Y-42300726D01*
X10100005Y-42300909D01*
X10059535Y-42301467D01*
X10028798Y-42302557D01*
X10005555Y-42304342D01*
X9987567Y-42306973D01*
X9972602Y-42310612D01*
X9958421Y-42315417D01*
X9919749Y-42335493D01*
X9879828Y-42366133D01*
X9843026Y-42403650D01*
X9813325Y-42444503D01*
X9806514Y-42458268D01*
X9794903Y-42485089D01*
X9779185Y-42523381D01*
X9759841Y-42571932D01*
X9737343Y-42629525D01*
X9712165Y-42694943D01*
X9684781Y-42766971D01*
X9655671Y-42844393D01*
X9625304Y-42925998D01*
X9462733Y-43365106D01*
X9295345Y-43367086D01*
X9268991Y-43367351D01*
X9223735Y-43367563D01*
X9184937Y-43367429D01*
X9154661Y-43366980D01*
X9134978Y-43366234D01*
X9127957Y-43365216D01*
X9129543Y-43360180D01*
X9135668Y-43342708D01*
X9145851Y-43314319D01*
X9159503Y-43276625D01*
X9176047Y-43231240D01*
X9194893Y-43179775D01*
X9215459Y-43123841D01*
X9234165Y-43072951D01*
X9260742Y-43000401D01*
X9289982Y-42920349D01*
X9320606Y-42836303D01*
X9351337Y-42751781D01*
X9380892Y-42670296D01*
X9407991Y-42595361D01*
X9419527Y-42563406D01*
X9441348Y-42502971D01*
X9461391Y-42447474D01*
X9479120Y-42398404D01*
X9493995Y-42357244D01*
X9505479Y-42325482D01*
X9513039Y-42304606D01*
X9516132Y-42296099D01*
X9516294Y-42294550D01*
X9509003Y-42287922D01*
X9491582Y-42282605D01*
X9461817Y-42274810D01*
X9408224Y-42250240D01*
X9355461Y-42213299D01*
X9304993Y-42165453D01*
X9258275Y-42108174D01*
X9216771Y-42042935D01*
X9181940Y-41971194D01*
X9175493Y-41954945D01*
X9150906Y-41873397D01*
X9135131Y-41784186D01*
X9128291Y-41690809D01*
X9128743Y-41671673D01*
X9426397Y-41671673D01*
X9426536Y-41695608D01*
X9427967Y-41722121D01*
X9431912Y-41742966D01*
X9439553Y-41763541D01*
X9452061Y-41789244D01*
X9458391Y-41801307D01*
X9474647Y-41827549D01*
X9491798Y-41846204D01*
X9513871Y-41862021D01*
X9549899Y-41884267D01*
X9942942Y-41887104D01*
X10335981Y-41889943D01*
X10335981Y-41675471D01*
X10335981Y-41461001D01*
X9941607Y-41461001D01*
X9861254Y-41461020D01*
X9787182Y-41461107D01*
X9725450Y-41461311D01*
X9674813Y-41461664D01*
X9634031Y-41462213D01*
X9601853Y-41463000D01*
X9577043Y-41464057D01*
X9558351Y-41465437D01*
X9544536Y-41467172D01*
X9534351Y-41469311D01*
X9526556Y-41471887D01*
X9519905Y-41474948D01*
X9518742Y-41475545D01*
X9496164Y-41489120D01*
X9478844Y-41505283D01*
X9463537Y-41527853D01*
X9446999Y-41560641D01*
X9445106Y-41564741D01*
X9435467Y-41588385D01*
X9429807Y-41610476D01*
X9427118Y-41636433D01*
X9426397Y-41671673D01*
X9128743Y-41671673D01*
X9130512Y-41596764D01*
X9141912Y-41505547D01*
X9162617Y-41420660D01*
X9167507Y-41405694D01*
X9201721Y-41322091D01*
X9244501Y-41247005D01*
X9294804Y-41181816D01*
X9351590Y-41127912D01*
X9413816Y-41086682D01*
X9421751Y-41082471D01*
X9436675Y-41074850D01*
X9451241Y-41068233D01*
X9466526Y-41062556D01*
X9483609Y-41057738D01*
X9503569Y-41053711D01*
X9527478Y-41050405D01*
X9556422Y-41047751D01*
X9591474Y-41045669D01*
X9633713Y-41044097D01*
X9684216Y-41042957D01*
X9744061Y-41042177D01*
X9814329Y-41041693D01*
X9896093Y-41041425D01*
X9990435Y-41041307D01*
X10098428Y-41041267D01*
X10637988Y-41041139D01*
X10637988Y-41675471D01*
X10637988Y-42204961D01*
G37*
G36*
X12768554Y-42574927D02*
G01*
X12807995Y-42594295D01*
X12841125Y-42625343D01*
X12844794Y-42630946D01*
X12855469Y-42650104D01*
X12871173Y-42680190D01*
X12891151Y-42719693D01*
X12914648Y-42767094D01*
X12940909Y-42820884D01*
X12969180Y-42879545D01*
X12998706Y-42941562D01*
X13017134Y-42980353D01*
X13045671Y-43039809D01*
X13072349Y-43094646D01*
X13096433Y-43143408D01*
X13117197Y-43184640D01*
X13133913Y-43216891D01*
X13145856Y-43238703D01*
X13152295Y-43248618D01*
X13157004Y-43252029D01*
X13171311Y-43258938D01*
X13194933Y-43268134D01*
X13228683Y-43279887D01*
X13273376Y-43294468D01*
X13329828Y-43312147D01*
X13398852Y-43333198D01*
X13481263Y-43357889D01*
X13524315Y-43370782D01*
X13588755Y-43390397D01*
X13648770Y-43409038D01*
X13702742Y-43426176D01*
X13749049Y-43441293D01*
X13786075Y-43453860D01*
X13812193Y-43463356D01*
X13825790Y-43469259D01*
X13854092Y-43490419D01*
X13880701Y-43524538D01*
X13896335Y-43564041D01*
X13900785Y-43606222D01*
X13893851Y-43648361D01*
X13875320Y-43687750D01*
X13844991Y-43721667D01*
X13838442Y-43726162D01*
X13818158Y-43737847D01*
X13787015Y-43754496D01*
X13746535Y-43775334D01*
X13698246Y-43799593D01*
X13643675Y-43826500D01*
X13584344Y-43855282D01*
X13521777Y-43885171D01*
X13502113Y-43894510D01*
X13434960Y-43926703D01*
X13374701Y-43956063D01*
X13322415Y-43982044D01*
X13279188Y-44004090D01*
X13246105Y-44021652D01*
X13224247Y-44034184D01*
X13214702Y-44041127D01*
X13211915Y-44046793D01*
X13204695Y-44065943D01*
X13194162Y-44096667D01*
X13180803Y-44137435D01*
X13165109Y-44186724D01*
X13147569Y-44243019D01*
X13128669Y-44304791D01*
X13108902Y-44370520D01*
X13095327Y-44415905D01*
X13076240Y-44479223D01*
X13058467Y-44537617D01*
X13042484Y-44589553D01*
X13028767Y-44633496D01*
X13017795Y-44667917D01*
X13010040Y-44691274D01*
X13005980Y-44702035D01*
X12988182Y-44726578D01*
X12961827Y-44751293D01*
X12932497Y-44770843D01*
X12922634Y-44774797D01*
X12896909Y-44780452D01*
X12867751Y-44782768D01*
X12829161Y-44779122D01*
X12786960Y-44763087D01*
X12750271Y-44733701D01*
X12746143Y-44727935D01*
X12735143Y-44709007D01*
X12719155Y-44679172D01*
X12698924Y-44639907D01*
X12675203Y-44592691D01*
X12648738Y-44539005D01*
X12620273Y-44480325D01*
X12590562Y-44418132D01*
X12570825Y-44376688D01*
X12542019Y-44316869D01*
X12515049Y-44261638D01*
X12490650Y-44212455D01*
X12469549Y-44170776D01*
X12452486Y-44138067D01*
X12440193Y-44115786D01*
X12433404Y-44105389D01*
X12427601Y-44100735D01*
X12416504Y-44094652D01*
X12399487Y-44087340D01*
X12375366Y-44078398D01*
X12342962Y-44067435D01*
X12301099Y-44054049D01*
X12248598Y-44037843D01*
X12184275Y-44018422D01*
X12106958Y-43995387D01*
X12066660Y-43983393D01*
X12002945Y-43964253D01*
X11943794Y-43946266D01*
X11890802Y-43929935D01*
X11845567Y-43915756D01*
X11809683Y-43904224D01*
X11784745Y-43895837D01*
X11772351Y-43891096D01*
X11737566Y-43867501D01*
X11709594Y-43833997D01*
X11691765Y-43794719D01*
X11684527Y-43752420D01*
X11688321Y-43709856D01*
X11703601Y-43669775D01*
X11730809Y-43634933D01*
X11737382Y-43630525D01*
X11756683Y-43619747D01*
X11786786Y-43603951D01*
X11826261Y-43583854D01*
X11873685Y-43560175D01*
X11927622Y-43533639D01*
X11986645Y-43504959D01*
X12049325Y-43474853D01*
X12097641Y-43451668D01*
X12157530Y-43422611D01*
X12212610Y-43395534D01*
X12261465Y-43371149D01*
X12302672Y-43350177D01*
X12334815Y-43333332D01*
X12356469Y-43321335D01*
X12366217Y-43314897D01*
X12371256Y-43307093D01*
X12380511Y-43285950D01*
X12392844Y-43252110D01*
X12408391Y-43205183D01*
X12427284Y-43144767D01*
X12449664Y-43070469D01*
X12458917Y-43039330D01*
X12475089Y-42985003D01*
X12489841Y-42935573D01*
X12502616Y-42892883D01*
X12512864Y-42858775D01*
X12520034Y-42835101D01*
X12523572Y-42823705D01*
X12527147Y-42812489D01*
X12534386Y-42789165D01*
X12543786Y-42758525D01*
X12554207Y-42724264D01*
X12562613Y-42697289D01*
X12573161Y-42667419D01*
X12583161Y-42645851D01*
X12594377Y-42629016D01*
X12608547Y-42613337D01*
X12640929Y-42588388D01*
X12682165Y-42571828D01*
X12725658Y-42567389D01*
X12768554Y-42574927D01*
G37*
G36*
X25855871Y-43026825D02*
G01*
X25889549Y-43050196D01*
X25914187Y-43083310D01*
X25917969Y-43091435D01*
X25922421Y-43102936D01*
X25927408Y-43118157D01*
X25933224Y-43138289D01*
X25940163Y-43164510D01*
X25948521Y-43198011D01*
X25958592Y-43239971D01*
X25970671Y-43291577D01*
X25985052Y-43354012D01*
X26002033Y-43428463D01*
X26021904Y-43516110D01*
X26024488Y-43527419D01*
X26035375Y-43572927D01*
X26045793Y-43613245D01*
X26055089Y-43646071D01*
X26062627Y-43669098D01*
X26067753Y-43680018D01*
X26068348Y-43680636D01*
X26073598Y-43684918D01*
X26083146Y-43691405D01*
X26097855Y-43700587D01*
X26118580Y-43712958D01*
X26146183Y-43729013D01*
X26181525Y-43749238D01*
X26225459Y-43774132D01*
X26278852Y-43804183D01*
X26342555Y-43839886D01*
X26417435Y-43881730D01*
X26504349Y-43930211D01*
X26533093Y-43947027D01*
X26563263Y-43966407D01*
X26587385Y-43983772D01*
X26601948Y-43996726D01*
X26608799Y-44005047D01*
X26616079Y-44017049D01*
X26620110Y-44031539D01*
X26621838Y-44052593D01*
X26622204Y-44084290D01*
X26622107Y-44103318D01*
X26621053Y-44128877D01*
X26618105Y-44146021D01*
X26612359Y-44158831D01*
X26602911Y-44171383D01*
X26600597Y-44174046D01*
X26581612Y-44192022D01*
X26562671Y-44205143D01*
X26562120Y-44205409D01*
X26549021Y-44209768D01*
X26523445Y-44216889D01*
X26487119Y-44226335D01*
X26441764Y-44237676D01*
X26389108Y-44250479D01*
X26330875Y-44264317D01*
X26268791Y-44278751D01*
X26261730Y-44280377D01*
X26200217Y-44294645D01*
X26142907Y-44308131D01*
X26091497Y-44320415D01*
X26047680Y-44331090D01*
X26013150Y-44339745D01*
X25989599Y-44345962D01*
X25978721Y-44349334D01*
X25972887Y-44352517D01*
X25966573Y-44357705D01*
X25959231Y-44366135D01*
X25949989Y-44379185D01*
X25937979Y-44398240D01*
X25922332Y-44424676D01*
X25902183Y-44459875D01*
X25876661Y-44505219D01*
X25844901Y-44562083D01*
X25824024Y-44599518D01*
X25796568Y-44648719D01*
X25769515Y-44697179D01*
X25745117Y-44740851D01*
X25725634Y-44775696D01*
X25717025Y-44790954D01*
X25692064Y-44833132D01*
X25671114Y-44864425D01*
X25652616Y-44886792D01*
X25635013Y-44902191D01*
X25616745Y-44912575D01*
X25611525Y-44914686D01*
X25577898Y-44921647D01*
X25540726Y-44921118D01*
X25507744Y-44913066D01*
X25492681Y-44904828D01*
X25465782Y-44881601D01*
X25443201Y-44852163D01*
X25429497Y-44821830D01*
X25428991Y-44819863D01*
X25425173Y-44804057D01*
X25418682Y-44776521D01*
X25410000Y-44739329D01*
X25399601Y-44694557D01*
X25387965Y-44644283D01*
X25375572Y-44590587D01*
X25362897Y-44535540D01*
X25350420Y-44481219D01*
X25338622Y-44429704D01*
X25327974Y-44383071D01*
X25318963Y-44343395D01*
X25312061Y-44312754D01*
X25307748Y-44293222D01*
X25302070Y-44275035D01*
X25293576Y-44258584D01*
X25293193Y-44258105D01*
X25287657Y-44253202D01*
X25276801Y-44245603D01*
X25259791Y-44234819D01*
X25235773Y-44220360D01*
X25203912Y-44201739D01*
X25163361Y-44178465D01*
X25113270Y-44150046D01*
X25052803Y-44116001D01*
X24981115Y-44075836D01*
X24897361Y-44029065D01*
X24894869Y-44027673D01*
X24847266Y-44000709D01*
X24810850Y-43978907D01*
X24783790Y-43960773D01*
X24764241Y-43944819D01*
X24750367Y-43929553D01*
X24740337Y-43913488D01*
X24732306Y-43895128D01*
X24724463Y-43858751D01*
X24727883Y-43818510D01*
X24742494Y-43781023D01*
X24766931Y-43749679D01*
X24799825Y-43727861D01*
X24800718Y-43727496D01*
X24815861Y-43722717D01*
X24843400Y-43715215D01*
X24881551Y-43705433D01*
X24928543Y-43693810D01*
X24982602Y-43680786D01*
X25041948Y-43666801D01*
X25104809Y-43652297D01*
X25115771Y-43649788D01*
X25197617Y-43630776D01*
X25265112Y-43614525D01*
X25318343Y-43601007D01*
X25357415Y-43590198D01*
X25382419Y-43582072D01*
X25393455Y-43576603D01*
X25396182Y-43573144D01*
X25406371Y-43557556D01*
X25421883Y-43532094D01*
X25441513Y-43498780D01*
X25464067Y-43459632D01*
X25488345Y-43416670D01*
X25528638Y-43344678D01*
X25567524Y-43275312D01*
X25600467Y-43216911D01*
X25628151Y-43168489D01*
X25651257Y-43129063D01*
X25670469Y-43097647D01*
X25686474Y-43073254D01*
X25699950Y-43054902D01*
X25711585Y-43041604D01*
X25722065Y-43032371D01*
X25732067Y-43026222D01*
X25742280Y-43022173D01*
X25753387Y-43019232D01*
X25766071Y-43016419D01*
X25773804Y-43014913D01*
X25816255Y-43014597D01*
X25855871Y-43026825D01*
G37*
G36*
X23682996Y-39232115D02*
G01*
X23721276Y-39253105D01*
X23752925Y-39287064D01*
X23756869Y-39292827D01*
X23768272Y-39313790D01*
X23774544Y-39336745D01*
X23777621Y-39368036D01*
X23777982Y-39374757D01*
X23778419Y-39391442D01*
X23777383Y-39406567D01*
X23774123Y-39422634D01*
X23767877Y-39442142D01*
X23757887Y-39467597D01*
X23743402Y-39501498D01*
X23723659Y-39546345D01*
X23713740Y-39568778D01*
X23691627Y-39618795D01*
X23666165Y-39676395D01*
X23639051Y-39737742D01*
X23611973Y-39799004D01*
X23586633Y-39856346D01*
X23565648Y-39904387D01*
X23546413Y-39949513D01*
X23530083Y-39988946D01*
X23517442Y-40020758D01*
X23509283Y-40043007D01*
X23506386Y-40053761D01*
X23506793Y-40058501D01*
X23508747Y-40067123D01*
X23512737Y-40079562D01*
X23519208Y-40096887D01*
X23528613Y-40120165D01*
X23541403Y-40150460D01*
X23558031Y-40188837D01*
X23578951Y-40236363D01*
X23604611Y-40294104D01*
X23635463Y-40363124D01*
X23671959Y-40444493D01*
X23693487Y-40492838D01*
X23717155Y-40547004D01*
X23738340Y-40596566D01*
X23756314Y-40639764D01*
X23770345Y-40674843D01*
X23779705Y-40700045D01*
X23783662Y-40713607D01*
X23783716Y-40713993D01*
X23782745Y-40757771D01*
X23769057Y-40799855D01*
X23744581Y-40837274D01*
X23711261Y-40867063D01*
X23671029Y-40886256D01*
X23651789Y-40890875D01*
X23617680Y-40892127D01*
X23579377Y-40883843D01*
X23567460Y-40879439D01*
X23542781Y-40869395D01*
X23507579Y-40854588D01*
X23463385Y-40835685D01*
X23411737Y-40813357D01*
X23354169Y-40788271D01*
X23292216Y-40761096D01*
X23227414Y-40732503D01*
X23161300Y-40703163D01*
X23095410Y-40673744D01*
X23031279Y-40644914D01*
X22998126Y-40631436D01*
X22967981Y-40622207D01*
X22946571Y-40619232D01*
X22940922Y-40620225D01*
X22920448Y-40626773D01*
X22887990Y-40639119D01*
X22844413Y-40656912D01*
X22790585Y-40679791D01*
X22727363Y-40707401D01*
X22655613Y-40739385D01*
X22619581Y-40755589D01*
X22548559Y-40787501D01*
X22489211Y-40814081D01*
X22440330Y-40835816D01*
X22400694Y-40853190D01*
X22369096Y-40866689D01*
X22344317Y-40876803D01*
X22325145Y-40884019D01*
X22310364Y-40888825D01*
X22298764Y-40891701D01*
X22289127Y-40893143D01*
X22280237Y-40893631D01*
X22270885Y-40893656D01*
X22256031Y-40892829D01*
X22212202Y-40881523D01*
X22173167Y-40858653D01*
X22141937Y-40826369D01*
X22121514Y-40786818D01*
X22118427Y-40776401D01*
X22114776Y-40755672D01*
X22114824Y-40733265D01*
X22119069Y-40707273D01*
X22128000Y-40675782D01*
X22142106Y-40636879D01*
X22161881Y-40588658D01*
X22187818Y-40529202D01*
X22211653Y-40475516D01*
X22239999Y-40411635D01*
X22269324Y-40345521D01*
X22297312Y-40282400D01*
X22321636Y-40227509D01*
X22328665Y-40211519D01*
X22347202Y-40168070D01*
X22363171Y-40128806D01*
X22375680Y-40096031D01*
X22383837Y-40072045D01*
X22386755Y-40059153D01*
X22386751Y-40058943D01*
X22383649Y-40045317D01*
X22375336Y-40020896D01*
X22362774Y-39988177D01*
X22346921Y-39949657D01*
X22328735Y-39907836D01*
X22324151Y-39897573D01*
X22302037Y-39848053D01*
X22276305Y-39790435D01*
X22248879Y-39729033D01*
X22221683Y-39668165D01*
X22196646Y-39612135D01*
X22182888Y-39581089D01*
X22162669Y-39534501D01*
X22144705Y-39491967D01*
X22129962Y-39455826D01*
X22119407Y-39428411D01*
X22114003Y-39412058D01*
X22110331Y-39370406D01*
X22119251Y-39329544D01*
X22139010Y-39292448D01*
X22167651Y-39261248D01*
X22203211Y-39238067D01*
X22243728Y-39225031D01*
X22287241Y-39224267D01*
X22292730Y-39225335D01*
X22305828Y-39229139D01*
X22324673Y-39235800D01*
X22350119Y-39245673D01*
X22383016Y-39259125D01*
X22424212Y-39276516D01*
X22474564Y-39298201D01*
X22534919Y-39324549D01*
X22606129Y-39355916D01*
X22689046Y-39392665D01*
X22784519Y-39435156D01*
X22809011Y-39445957D01*
X22859281Y-39467205D01*
X22899677Y-39482881D01*
X22929131Y-39492579D01*
X22946571Y-39495900D01*
X22948783Y-39495799D01*
X22968929Y-39491240D01*
X23000638Y-39480252D01*
X23042695Y-39463289D01*
X23093891Y-39440803D01*
X23132650Y-39423234D01*
X23218463Y-39384355D01*
X23292304Y-39350966D01*
X23355190Y-39322643D01*
X23408153Y-39298956D01*
X23452210Y-39279486D01*
X23488384Y-39263808D01*
X23517703Y-39251496D01*
X23541186Y-39242127D01*
X23559858Y-39235278D01*
X23574743Y-39230520D01*
X23586864Y-39227432D01*
X23597243Y-39225589D01*
X23606908Y-39224569D01*
X23616876Y-39223943D01*
X23637432Y-39223788D01*
X23682996Y-39232115D01*
G37*
G36*
X22055932Y-41035464D02*
G01*
X22212940Y-41037456D01*
X22340158Y-41626735D01*
X22346128Y-41654393D01*
X22366320Y-41747933D01*
X22386012Y-41839173D01*
X22404921Y-41926770D01*
X22422747Y-42009380D01*
X22439203Y-42085655D01*
X22454007Y-42154254D01*
X22466857Y-42213832D01*
X22477470Y-42263046D01*
X22485552Y-42300546D01*
X22490818Y-42324991D01*
X22495409Y-42345775D01*
X22503555Y-42379925D01*
X22510714Y-42406575D01*
X22516242Y-42423408D01*
X22519500Y-42428115D01*
X22522097Y-42423703D01*
X22531050Y-42407243D01*
X22545699Y-42379779D01*
X22565419Y-42342496D01*
X22589592Y-42296579D01*
X22617592Y-42243215D01*
X22648792Y-42183586D01*
X22682573Y-42118878D01*
X22718309Y-42050279D01*
X22742507Y-42003801D01*
X22778004Y-41935710D01*
X22811589Y-41871391D01*
X22842561Y-41812176D01*
X22870228Y-41759391D01*
X22893891Y-41714364D01*
X22912854Y-41678425D01*
X22926419Y-41652903D01*
X22933893Y-41639126D01*
X22955905Y-41599955D01*
X23023331Y-41727518D01*
X23028939Y-41738142D01*
X23049359Y-41776959D01*
X23075015Y-41825879D01*
X23104750Y-41882688D01*
X23137410Y-41945175D01*
X23171838Y-42011135D01*
X23206879Y-42078345D01*
X23241375Y-42144606D01*
X23276387Y-42211656D01*
X23309395Y-42274201D01*
X23336547Y-42324778D01*
X23358205Y-42364037D01*
X23374739Y-42392626D01*
X23386516Y-42411190D01*
X23393893Y-42420373D01*
X23397239Y-42420831D01*
X23397478Y-42420083D01*
X23400379Y-42408139D01*
X23406090Y-42383033D01*
X23414385Y-42345785D01*
X23425039Y-42297420D01*
X23437831Y-42238959D01*
X23452541Y-42171427D01*
X23468941Y-42095851D01*
X23486811Y-42013254D01*
X23505924Y-41924651D01*
X23526064Y-41831073D01*
X23547001Y-41733543D01*
X23551569Y-41712241D01*
X23572326Y-41615493D01*
X23592210Y-41522925D01*
X23610989Y-41435562D01*
X23628450Y-41354420D01*
X23644375Y-41280530D01*
X23658533Y-41214912D01*
X23670713Y-41158586D01*
X23680692Y-41112576D01*
X23688245Y-41077903D01*
X23693159Y-41055590D01*
X23695205Y-41046662D01*
X23695480Y-41045802D01*
X23698239Y-41041688D01*
X23704449Y-41038631D01*
X23715990Y-41036473D01*
X23734745Y-41035061D01*
X23762593Y-41034241D01*
X23801413Y-41033863D01*
X23853084Y-41033771D01*
X23898645Y-41033995D01*
X23944883Y-41034875D01*
X23978971Y-41036381D01*
X24000057Y-41038475D01*
X24007275Y-41041110D01*
X24006669Y-41044491D01*
X24003286Y-41061091D01*
X23997094Y-41090741D01*
X23988269Y-41132610D01*
X23976984Y-41185873D01*
X23963422Y-41249697D01*
X23947755Y-41323256D01*
X23930161Y-41405720D01*
X23910817Y-41496255D01*
X23889901Y-41594041D01*
X23867591Y-41698241D01*
X23844059Y-41808027D01*
X23819485Y-41922572D01*
X23794047Y-42041045D01*
X23783050Y-42092239D01*
X23749337Y-42249161D01*
X23718546Y-42392484D01*
X23690538Y-42522828D01*
X23665182Y-42640805D01*
X23642344Y-42747037D01*
X23621891Y-42842135D01*
X23603688Y-42926718D01*
X23587603Y-43001401D01*
X23573505Y-43066804D01*
X23561255Y-43123539D01*
X23550723Y-43172224D01*
X23541772Y-43213474D01*
X23534277Y-43247909D01*
X23528094Y-43276144D01*
X23523099Y-43298793D01*
X23519151Y-43316473D01*
X23516119Y-43329802D01*
X23513872Y-43339396D01*
X23512275Y-43345871D01*
X23511192Y-43349844D01*
X23510494Y-43351931D01*
X23510044Y-43352747D01*
X23509492Y-43352755D01*
X23508054Y-43351228D01*
X23505424Y-43347271D01*
X23501205Y-43340127D01*
X23494989Y-43329034D01*
X23486376Y-43313233D01*
X23474963Y-43291969D01*
X23460353Y-43264474D01*
X23442136Y-43229999D01*
X23419917Y-43187775D01*
X23393293Y-43137049D01*
X23361856Y-43077063D01*
X23325211Y-43007052D01*
X23282955Y-42926259D01*
X23234685Y-42833928D01*
X23179997Y-42729297D01*
X23170225Y-42710605D01*
X23132781Y-42639159D01*
X23097424Y-42571959D01*
X23064741Y-42510111D01*
X23035327Y-42454713D01*
X23009771Y-42406871D01*
X22988652Y-42367686D01*
X22972570Y-42338266D01*
X22962107Y-42319705D01*
X22957853Y-42313116D01*
X22954120Y-42318571D01*
X22944120Y-42335962D01*
X22928506Y-42364167D01*
X22907889Y-42402022D01*
X22882884Y-42448369D01*
X22854107Y-42502054D01*
X22822169Y-42561913D01*
X22787687Y-42626789D01*
X22751273Y-42695523D01*
X22713541Y-42766954D01*
X22675104Y-42839926D01*
X22636579Y-42913276D01*
X22598579Y-42985847D01*
X22561715Y-43056480D01*
X22526604Y-43124019D01*
X22493862Y-43187301D01*
X22464099Y-43245168D01*
X22447333Y-43277649D01*
X22430187Y-43310309D01*
X22416381Y-43335993D01*
X22407019Y-43352647D01*
X22403211Y-43358219D01*
X22403056Y-43358020D01*
X22402594Y-43356943D01*
X22401858Y-43354495D01*
X22400706Y-43350047D01*
X22399013Y-43342986D01*
X22396635Y-43332685D01*
X22393441Y-43318524D01*
X22389300Y-43299891D01*
X22384072Y-43276157D01*
X22377625Y-43246708D01*
X22369825Y-43210920D01*
X22360535Y-43168171D01*
X22349619Y-43117847D01*
X22336948Y-43059322D01*
X22322379Y-42991979D01*
X22305786Y-42915198D01*
X22287029Y-42828357D01*
X22265973Y-42730833D01*
X22242486Y-42622012D01*
X22216432Y-42501271D01*
X22187676Y-42367989D01*
X22156085Y-42221549D01*
X22121521Y-42061328D01*
X22105329Y-41986261D01*
X22080197Y-41869789D01*
X22055995Y-41757655D01*
X22032904Y-41650693D01*
X22011107Y-41549743D01*
X21990780Y-41455647D01*
X21972108Y-41369241D01*
X21955273Y-41291366D01*
X21940456Y-41222857D01*
X21927835Y-41164556D01*
X21917599Y-41117300D01*
X21909918Y-41081927D01*
X21904984Y-41059281D01*
X21902970Y-41050196D01*
X21898929Y-41033473D01*
X22055932Y-41035464D01*
G37*
G36*
X8925609Y-41992843D02*
G01*
X8929517Y-42046685D01*
X8932082Y-42107981D01*
X8933237Y-42170127D01*
X8933301Y-42173580D01*
X8933178Y-42240316D01*
X8931709Y-42305028D01*
X8928900Y-42364558D01*
X8924745Y-42415737D01*
X8919249Y-42455406D01*
X8913474Y-42484944D01*
X8879819Y-42623208D01*
X8837299Y-42750797D01*
X8817077Y-42796782D01*
X8786102Y-42867214D01*
X8726415Y-42971962D01*
X8715921Y-42987881D01*
X8648900Y-43077093D01*
X8575267Y-43155565D01*
X8496044Y-43222517D01*
X8412264Y-43277158D01*
X8324952Y-43318714D01*
X8235143Y-43346393D01*
X8178707Y-43356273D01*
X8085732Y-43360878D01*
X7992380Y-43351704D01*
X7900796Y-43329018D01*
X7813125Y-43293093D01*
X7805243Y-43289081D01*
X7725905Y-43240583D01*
X7649123Y-43179196D01*
X7576411Y-43106580D01*
X7509273Y-43024383D01*
X7449221Y-42934261D01*
X7397766Y-42837873D01*
X7385780Y-42811691D01*
X7384724Y-42808948D01*
X7791027Y-42808948D01*
X7796726Y-42818100D01*
X7812332Y-42832665D01*
X7834967Y-42850413D01*
X7861748Y-42869219D01*
X7889804Y-42886950D01*
X7916251Y-42901483D01*
X7947120Y-42914981D01*
X7985246Y-42928549D01*
X8019375Y-42937847D01*
X8036084Y-42941040D01*
X8108708Y-42946956D01*
X8179343Y-42938925D01*
X8250515Y-42916717D01*
X8257022Y-42913977D01*
X8295959Y-42894393D01*
X8336287Y-42869711D01*
X8372906Y-42843263D01*
X8400727Y-42818385D01*
X8421143Y-42796782D01*
X8269256Y-42657400D01*
X8264028Y-42652602D01*
X8224747Y-42616687D01*
X8189112Y-42584304D01*
X8158560Y-42556744D01*
X8134526Y-42535296D01*
X8118449Y-42521255D01*
X8111766Y-42515908D01*
X8111517Y-42515911D01*
X8103782Y-42521231D01*
X8087167Y-42534958D01*
X8063325Y-42555583D01*
X8033906Y-42581597D01*
X8000565Y-42611487D01*
X7964957Y-42643744D01*
X7928731Y-42676858D01*
X7893543Y-42709318D01*
X7861045Y-42739614D01*
X7832892Y-42766236D01*
X7810739Y-42787673D01*
X7796231Y-42802413D01*
X7791027Y-42808948D01*
X7384724Y-42808948D01*
X7337084Y-42685149D01*
X7300238Y-42552610D01*
X7275270Y-42415872D01*
X7262210Y-42276735D01*
X7261314Y-42164591D01*
X7560953Y-42164591D01*
X7563445Y-42284879D01*
X7579056Y-42399780D01*
X7607627Y-42508691D01*
X7649000Y-42611004D01*
X7703024Y-42706111D01*
X7713684Y-42722476D01*
X7726770Y-42742474D01*
X7737392Y-42756766D01*
X7746263Y-42764406D01*
X7754095Y-42764454D01*
X7761601Y-42755965D01*
X7769493Y-42737997D01*
X7778487Y-42709605D01*
X7789293Y-42669851D01*
X7802622Y-42617790D01*
X7819190Y-42552478D01*
X7826349Y-42524333D01*
X7840013Y-42470266D01*
X7852262Y-42421299D01*
X7862646Y-42379263D01*
X7870719Y-42345994D01*
X7876027Y-42323325D01*
X7878119Y-42313090D01*
X7877955Y-42311745D01*
X7873651Y-42305086D01*
X8341187Y-42305086D01*
X8341260Y-42307329D01*
X8342293Y-42313090D01*
X8343893Y-42322009D01*
X8349641Y-42348364D01*
X8358075Y-42384571D01*
X8368767Y-42428815D01*
X8381288Y-42479275D01*
X8395208Y-42534132D01*
X8401449Y-42558432D01*
X8415033Y-42611034D01*
X8427285Y-42658092D01*
X8437741Y-42697858D01*
X8445943Y-42728589D01*
X8451431Y-42748534D01*
X8453741Y-42755950D01*
X8457033Y-42755371D01*
X8466986Y-42745429D01*
X8481289Y-42726591D01*
X8498250Y-42701299D01*
X8516169Y-42672000D01*
X8533356Y-42641134D01*
X8565710Y-42572101D01*
X8600149Y-42474511D01*
X8623621Y-42374381D01*
X8629011Y-42334918D01*
X8633406Y-42282727D01*
X8636005Y-42226228D01*
X8636684Y-42170127D01*
X8635309Y-42119149D01*
X8631752Y-42078003D01*
X8626037Y-42035757D01*
X8484757Y-42165695D01*
X8450184Y-42197715D01*
X8415365Y-42230461D01*
X8385591Y-42258994D01*
X8362326Y-42281890D01*
X8347034Y-42297727D01*
X8341187Y-42305086D01*
X7873651Y-42305086D01*
X7870315Y-42299926D01*
X7851440Y-42278837D01*
X7821434Y-42248581D01*
X7780395Y-42209259D01*
X7728417Y-42160972D01*
X7715568Y-42149175D01*
X7673661Y-42110871D01*
X7640993Y-42081430D01*
X7616354Y-42059917D01*
X7598539Y-42045378D01*
X7586340Y-42036869D01*
X7578553Y-42033453D01*
X7573970Y-42034184D01*
X7571387Y-42038117D01*
X7570735Y-42040328D01*
X7568183Y-42056744D01*
X7565564Y-42083808D01*
X7563156Y-42118323D01*
X7561230Y-42157084D01*
X7560953Y-42164591D01*
X7261314Y-42164591D01*
X7261093Y-42137001D01*
X7271949Y-41998476D01*
X7278509Y-41959586D01*
X7588464Y-41959586D01*
X7590235Y-41962121D01*
X7598024Y-41964603D01*
X7613352Y-41966472D01*
X7637655Y-41967799D01*
X7672376Y-41968656D01*
X7718948Y-41969117D01*
X7778816Y-41969255D01*
X7969167Y-41969255D01*
X8034950Y-41713285D01*
X8100505Y-41458209D01*
X8119155Y-41458209D01*
X8120570Y-41464730D01*
X8125298Y-41484144D01*
X8132941Y-41514709D01*
X8143074Y-41554754D01*
X8155278Y-41602619D01*
X8169128Y-41656632D01*
X8184205Y-41715127D01*
X8248916Y-41965572D01*
X8430626Y-41967540D01*
X8469567Y-41967883D01*
X8515671Y-41968062D01*
X8554983Y-41967953D01*
X8585525Y-41967577D01*
X8605303Y-41966947D01*
X8612337Y-41966078D01*
X8610651Y-41956373D01*
X8604372Y-41934619D01*
X8594635Y-41905478D01*
X8582693Y-41872400D01*
X8569803Y-41838845D01*
X8557219Y-41808264D01*
X8546202Y-41784116D01*
X8500015Y-41702185D01*
X8445162Y-41628087D01*
X8383697Y-41566577D01*
X8315069Y-41517104D01*
X8238727Y-41479121D01*
X8221868Y-41472962D01*
X8193803Y-41464761D01*
X8166071Y-41458589D01*
X8142097Y-41455039D01*
X8125315Y-41454711D01*
X8120726Y-41457318D01*
X8119155Y-41458209D01*
X8100505Y-41458209D01*
X8100734Y-41457318D01*
X8076687Y-41455034D01*
X8061576Y-41455208D01*
X8035052Y-41458493D01*
X8006543Y-41464365D01*
X7976256Y-41473205D01*
X7903166Y-41504997D01*
X7834655Y-41549924D01*
X7771790Y-41607075D01*
X7715633Y-41675540D01*
X7667243Y-41754409D01*
X7657669Y-41773424D01*
X7641672Y-41808224D01*
X7625811Y-41845808D01*
X7611326Y-41882952D01*
X7599449Y-41916444D01*
X7591415Y-41943060D01*
X7588464Y-41959586D01*
X7278509Y-41959586D01*
X7294809Y-41862950D01*
X7329702Y-41732233D01*
X7376661Y-41608125D01*
X7403666Y-41550481D01*
X7461193Y-41446932D01*
X7525119Y-41354199D01*
X7594753Y-41272634D01*
X7669415Y-41202588D01*
X7748415Y-41144418D01*
X7831077Y-41098471D01*
X7916712Y-41065101D01*
X8004637Y-41044662D01*
X8094169Y-41037501D01*
X8184623Y-41043974D01*
X8275314Y-41064432D01*
X8365562Y-41099226D01*
X8447087Y-41143849D01*
X8532576Y-41206050D01*
X8611443Y-41280468D01*
X8683218Y-41366388D01*
X8747435Y-41463095D01*
X8803620Y-41569871D01*
X8851309Y-41686002D01*
X8890028Y-41810775D01*
X8919311Y-41943474D01*
X8920355Y-41949625D01*
X8922355Y-41966078D01*
X8925609Y-41992843D01*
G37*
D14*
%TO.C,TP10*%
X9750000Y-9270000D02*
G75*
G02*
X7850000Y-9270000I-950000J0D01*
G01*
X7850000Y-9270000D02*
G75*
G02*
X9750000Y-9270000I950000J0D01*
G01*
%TO.C,TP8*%
X3520000Y-12350000D02*
G75*
G02*
X1620000Y-12350000I-950000J0D01*
G01*
X1620000Y-12350000D02*
G75*
G02*
X3520000Y-12350000I950000J0D01*
G01*
D10*
%TO.C,REF\u002A\u002A*%
G36*
X4137804Y-18577549D02*
G01*
X4155564Y-18578869D01*
X4173231Y-18580897D01*
X4190788Y-18583625D01*
X4208207Y-18587047D01*
X4225475Y-18591161D01*
X4242563Y-18595961D01*
X4259450Y-18601437D01*
X4276117Y-18607588D01*
X4292544Y-18614404D01*
X4308706Y-18621884D01*
X4324582Y-18630023D01*
X4340150Y-18638808D01*
X4355390Y-18648238D01*
X4370279Y-18658312D01*
X4384800Y-18669020D01*
X4398923Y-18680353D01*
X4412629Y-18692310D01*
X4425903Y-18704885D01*
X4438716Y-18718071D01*
X4451048Y-18731864D01*
X4462878Y-18746255D01*
X9739850Y-25269699D01*
X9756472Y-25291833D01*
X9771336Y-25314884D01*
X9784424Y-25338751D01*
X9795731Y-25363334D01*
X9805242Y-25388535D01*
X9812941Y-25414250D01*
X9818827Y-25440386D01*
X9822878Y-25466836D01*
X9825083Y-25493504D01*
X9825436Y-25520289D01*
X9823923Y-25547094D01*
X9820530Y-25573811D01*
X9815248Y-25600351D01*
X9808063Y-25626607D01*
X9798966Y-25652480D01*
X9787944Y-25677872D01*
X9775131Y-25702410D01*
X9760735Y-25725752D01*
X9744838Y-25747849D01*
X9727526Y-25768644D01*
X9708883Y-25788083D01*
X9688995Y-25806115D01*
X9667947Y-25822686D01*
X9645820Y-25837740D01*
X9622709Y-25851223D01*
X9598688Y-25863081D01*
X9573849Y-25873266D01*
X9548277Y-25881715D01*
X9522053Y-25888383D01*
X9495263Y-25893215D01*
X9467994Y-25896153D01*
X9440330Y-25897146D01*
X6820024Y-25897146D01*
X7496830Y-29613684D01*
X7496830Y-29616330D01*
X7500379Y-29640490D01*
X7502584Y-29664682D01*
X7503455Y-29688844D01*
X7503005Y-29712934D01*
X7501250Y-29736892D01*
X7498205Y-29760673D01*
X7493880Y-29784219D01*
X7488294Y-29807483D01*
X7481457Y-29830410D01*
X7473386Y-29852948D01*
X7464091Y-29875044D01*
X7453587Y-29896652D01*
X7441891Y-29917712D01*
X7429015Y-29938179D01*
X7414973Y-29957999D01*
X7399781Y-29977117D01*
X7383556Y-29995370D01*
X7366445Y-30012610D01*
X7348494Y-30028809D01*
X7329754Y-30043947D01*
X7310274Y-30058008D01*
X7290100Y-30070960D01*
X7269287Y-30082786D01*
X7247875Y-30093461D01*
X7225917Y-30102960D01*
X7203463Y-30111268D01*
X7180560Y-30118353D01*
X7157261Y-30124197D01*
X7133607Y-30128778D01*
X7109653Y-30132075D01*
X7085444Y-30134058D01*
X7061035Y-30134714D01*
X7035750Y-30133927D01*
X7010694Y-30131723D01*
X6985925Y-30128127D01*
X6961490Y-30123158D01*
X6937446Y-30116848D01*
X6913845Y-30109218D01*
X6890738Y-30100299D01*
X6868178Y-30090117D01*
X6846222Y-30078691D01*
X6824921Y-30066053D01*
X6804327Y-30052226D01*
X6784497Y-30037236D01*
X6765478Y-30021111D01*
X6747327Y-30003874D01*
X6730098Y-29985552D01*
X6713842Y-29966172D01*
X1436148Y-23442730D01*
X1419526Y-23420597D01*
X1404665Y-23397545D01*
X1391571Y-23373679D01*
X1380267Y-23349095D01*
X1370756Y-23323895D01*
X1363054Y-23298178D01*
X1357171Y-23272043D01*
X1353123Y-23245594D01*
X1350915Y-23218926D01*
X1350562Y-23192141D01*
X1352074Y-23165341D01*
X1355466Y-23138619D01*
X1360748Y-23112079D01*
X1367932Y-23085825D01*
X1377032Y-23059952D01*
X1388054Y-23034558D01*
X1400867Y-23010022D01*
X1415264Y-22986676D01*
X1431160Y-22964579D01*
X1448472Y-22943787D01*
X1467115Y-22924345D01*
X1487003Y-22906314D01*
X1508051Y-22889745D01*
X1530178Y-22874694D01*
X1553289Y-22861208D01*
X1577312Y-22849347D01*
X1602148Y-22839167D01*
X1627724Y-22830713D01*
X1653946Y-22824045D01*
X1680737Y-22819213D01*
X1708004Y-22816275D01*
X1735668Y-22815282D01*
X4355495Y-22815282D01*
X3676281Y-19097778D01*
X3675801Y-19095083D01*
X3675284Y-19092401D01*
X3674262Y-19087067D01*
X3673823Y-19084401D01*
X3673471Y-19081731D01*
X3673337Y-19080391D01*
X3673235Y-19079049D01*
X3673173Y-19077703D01*
X3673151Y-19076354D01*
X3671220Y-19057821D01*
X3670069Y-19039356D01*
X3669687Y-19020973D01*
X3670064Y-19002694D01*
X3671185Y-18984538D01*
X3673042Y-18966524D01*
X3675622Y-18948670D01*
X3678913Y-18931002D01*
X3682907Y-18913530D01*
X3687595Y-18896276D01*
X3692958Y-18879260D01*
X3698988Y-18862504D01*
X3705674Y-18846026D01*
X3713009Y-18829843D01*
X3720976Y-18813976D01*
X3729567Y-18798447D01*
X3738769Y-18783268D01*
X3748572Y-18768464D01*
X3758964Y-18754056D01*
X3769937Y-18740057D01*
X3781473Y-18726491D01*
X3793568Y-18713379D01*
X3806205Y-18700735D01*
X3819377Y-18688579D01*
X3833070Y-18676934D01*
X3847276Y-18665816D01*
X3861981Y-18655249D01*
X3877173Y-18645246D01*
X3892847Y-18635828D01*
X3908985Y-18627020D01*
X3925578Y-18618835D01*
X3942614Y-18611292D01*
X3959951Y-18604466D01*
X3977431Y-18598409D01*
X3995040Y-18593114D01*
X4012749Y-18588578D01*
X4030540Y-18584793D01*
X4048393Y-18581752D01*
X4066285Y-18579452D01*
X4084194Y-18577888D01*
X4102095Y-18577055D01*
X4119973Y-18576942D01*
X4137804Y-18577549D01*
G37*
D14*
%TO.C,C7*%
X20480000Y-59228767D02*
X20480000Y-58936233D01*
X21500000Y-59228767D02*
X21500000Y-58936233D01*
%TO.C,TP5*%
X25500000Y-15080000D02*
G75*
G02*
X23600000Y-15080000I-950000J0D01*
G01*
X23600000Y-15080000D02*
G75*
G02*
X25500000Y-15080000I950000J0D01*
G01*
%TO.C,TP9*%
X15700000Y-28900000D02*
G75*
G02*
X13800000Y-28900000I-950000J0D01*
G01*
X13800000Y-28900000D02*
G75*
G02*
X15700000Y-28900000I950000J0D01*
G01*
D10*
%TO.C,REF\u002A\u002A*%
G36*
X20602127Y-30215524D02*
G01*
X20728022Y-30225356D01*
X20852174Y-30241544D01*
X20974422Y-30263923D01*
X21094609Y-30292340D01*
X21212576Y-30326635D01*
X21328164Y-30366644D01*
X21441222Y-30412201D01*
X21551576Y-30463154D01*
X21659078Y-30519336D01*
X21763563Y-30580589D01*
X21864882Y-30646749D01*
X21962867Y-30717662D01*
X22057362Y-30793162D01*
X22148208Y-30873081D01*
X22235252Y-30957273D01*
X22318336Y-31045577D01*
X22397284Y-31137813D01*
X22471960Y-31233836D01*
X22542191Y-31333492D01*
X22607814Y-31436595D01*
X22668688Y-31543008D01*
X22724643Y-31652559D01*
X22775519Y-31765087D01*
X22821169Y-31880437D01*
X22861412Y-31998449D01*
X22896114Y-32118950D01*
X22925101Y-32241790D01*
X22948219Y-32366810D01*
X22965309Y-32493843D01*
X22976212Y-32622724D01*
X22980766Y-32753304D01*
X22977839Y-32981498D01*
X22964464Y-33207597D01*
X22940593Y-33431696D01*
X22906205Y-33653879D01*
X22861247Y-33874240D01*
X22805683Y-34092878D01*
X22739483Y-34309887D01*
X22662598Y-34525361D01*
X22574997Y-34739399D01*
X22476636Y-34952080D01*
X22367482Y-35163515D01*
X22247501Y-35373794D01*
X22116637Y-35583003D01*
X21974869Y-35791247D01*
X21822150Y-35998619D01*
X21658444Y-36205199D01*
X21482212Y-36413329D01*
X21265956Y-36651257D01*
X21001929Y-36919808D01*
X20682380Y-37219783D01*
X20299571Y-37551996D01*
X20082027Y-37730442D01*
X19845759Y-37917246D01*
X19589791Y-38112523D01*
X19313182Y-38316354D01*
X19014938Y-38528857D01*
X18694105Y-38750127D01*
X18671411Y-38764998D01*
X18648231Y-38778973D01*
X18624596Y-38792046D01*
X18600529Y-38804205D01*
X18576066Y-38815442D01*
X18551221Y-38825739D01*
X18526023Y-38835107D01*
X18500508Y-38843527D01*
X18474697Y-38850993D01*
X18448615Y-38857491D01*
X18422290Y-38863019D01*
X18395753Y-38867569D01*
X18369026Y-38871132D01*
X18342142Y-38873690D01*
X18315120Y-38875252D01*
X18288002Y-38875790D01*
X18260887Y-38875264D01*
X18233865Y-38873715D01*
X18206987Y-38871170D01*
X18180266Y-38867625D01*
X18153731Y-38863091D01*
X18127406Y-38857575D01*
X18101331Y-38851088D01*
X18075514Y-38843636D01*
X18049998Y-38835233D01*
X18024798Y-38825880D01*
X17999955Y-38815587D01*
X17975490Y-38804368D01*
X17951419Y-38792223D01*
X17927780Y-38779173D01*
X17904601Y-38765210D01*
X17881902Y-38750354D01*
X17561067Y-38529081D01*
X17262825Y-38316587D01*
X16986206Y-38112749D01*
X16730244Y-37917476D01*
X16493980Y-37730668D01*
X16276429Y-37552222D01*
X16076635Y-37382038D01*
X15893620Y-37220014D01*
X15726425Y-37066045D01*
X15574078Y-36920043D01*
X15435610Y-36781886D01*
X15310051Y-36651490D01*
X15196435Y-36528750D01*
X15093788Y-36413551D01*
X14917556Y-36205424D01*
X14753930Y-35998875D01*
X14601261Y-35791545D01*
X14459535Y-35583334D01*
X14328701Y-35374145D01*
X14208715Y-35163887D01*
X14099567Y-34952466D01*
X14001199Y-34739788D01*
X13913572Y-34525758D01*
X13836670Y-34310279D01*
X13770437Y-34093259D01*
X13714850Y-33874611D01*
X13669861Y-33654225D01*
X13635443Y-33432024D01*
X13611557Y-33207902D01*
X13598168Y-32981768D01*
X13595234Y-32753529D01*
X13599791Y-32622930D01*
X13610696Y-32494028D01*
X13627788Y-32366979D01*
X13650906Y-32241947D01*
X13679891Y-32119091D01*
X13714588Y-31998564D01*
X13754838Y-31880548D01*
X13800481Y-31765184D01*
X13851357Y-31652642D01*
X13907314Y-31543079D01*
X13968188Y-31436660D01*
X14033816Y-31333543D01*
X14104047Y-31233884D01*
X14178712Y-31137856D01*
X14257671Y-31045605D01*
X14340755Y-30957297D01*
X14427790Y-30873104D01*
X14518639Y-30793176D01*
X14613140Y-30717669D01*
X14711118Y-30646757D01*
X14812444Y-30580596D01*
X14916929Y-30519338D01*
X15024430Y-30463156D01*
X15134785Y-30412204D01*
X15247836Y-30366644D01*
X15363431Y-30326635D01*
X15481398Y-30292347D01*
X15601585Y-30263923D01*
X15723830Y-30241544D01*
X15847982Y-30225356D01*
X15973877Y-30215524D01*
X16101354Y-30212210D01*
X16193698Y-30213830D01*
X16284249Y-30218615D01*
X16373013Y-30226431D01*
X16460002Y-30237179D01*
X16545210Y-30250714D01*
X16628636Y-30266946D01*
X16710304Y-30285739D01*
X16790202Y-30306973D01*
X16868328Y-30330525D01*
X16944696Y-30356291D01*
X17019306Y-30384134D01*
X17092158Y-30413947D01*
X17163261Y-30445605D01*
X17232617Y-30478994D01*
X17366089Y-30550467D01*
X17492616Y-30627405D01*
X17612211Y-30708870D01*
X17724904Y-30793893D01*
X17830728Y-30881525D01*
X17929704Y-30970803D01*
X18021860Y-31060774D01*
X18107217Y-31150486D01*
X18185803Y-31238981D01*
X18190756Y-31244388D01*
X18195971Y-31249484D01*
X18201424Y-31254275D01*
X18207108Y-31258753D01*
X18213002Y-31262907D01*
X18219105Y-31266736D01*
X18225388Y-31270228D01*
X18231842Y-31273385D01*
X18238464Y-31276192D01*
X18245215Y-31278649D01*
X18252107Y-31280740D01*
X18259114Y-31282469D01*
X18266219Y-31283819D01*
X18273412Y-31284795D01*
X18280681Y-31285384D01*
X18288002Y-31285583D01*
X18295323Y-31285384D01*
X18302590Y-31284795D01*
X18309785Y-31283819D01*
X18316890Y-31282469D01*
X18323896Y-31280740D01*
X18330785Y-31278649D01*
X18337543Y-31276192D01*
X18344163Y-31273385D01*
X18350616Y-31270228D01*
X18356902Y-31266736D01*
X18362998Y-31262907D01*
X18368899Y-31258753D01*
X18374578Y-31254275D01*
X18380036Y-31249484D01*
X18385251Y-31244388D01*
X18390195Y-31238981D01*
X18468790Y-31150563D01*
X18554147Y-31060908D01*
X18646303Y-30970972D01*
X18745272Y-30881714D01*
X18851096Y-30794096D01*
X18963789Y-30709071D01*
X19083390Y-30627598D01*
X19209915Y-30550635D01*
X19343387Y-30479138D01*
X19483842Y-30414065D01*
X19631309Y-30356376D01*
X19785805Y-30307033D01*
X19947358Y-30266986D01*
X20116002Y-30237193D01*
X20291754Y-30218616D01*
X20474647Y-30212210D01*
X20602127Y-30215524D01*
G37*
D14*
%TO.C,TP1*%
X28740000Y-30980000D02*
G75*
G02*
X26840000Y-30980000I-950000J0D01*
G01*
X26840000Y-30980000D02*
G75*
G02*
X28740000Y-30980000I950000J0D01*
G01*
%TO.C,TP3*%
X12830000Y-10900000D02*
G75*
G02*
X10930000Y-10900000I-950000J0D01*
G01*
X10930000Y-10900000D02*
G75*
G02*
X12830000Y-10900000I950000J0D01*
G01*
%TO.C,TP7*%
X14960000Y-26850000D02*
G75*
G02*
X13060000Y-26850000I-950000J0D01*
G01*
X13060000Y-26850000D02*
G75*
G02*
X14960000Y-26850000I950000J0D01*
G01*
D10*
%TO.C,G\u002A\u002A\u002A*%
G36*
X35601846Y-45633692D02*
G01*
X35601846Y-45790000D01*
X35445539Y-45790000D01*
X35289231Y-45790000D01*
X35289231Y-45633692D01*
X35289231Y-45477384D01*
X35445539Y-45477384D01*
X35601846Y-45477384D01*
X35601846Y-45633692D01*
G37*
G36*
X32788308Y-44539538D02*
G01*
X32788308Y-45008461D01*
X32788308Y-46102615D01*
X32944616Y-46102615D01*
X33100923Y-46102615D01*
X33100923Y-46415230D01*
X33100923Y-46727846D01*
X32788308Y-46727846D01*
X32475693Y-46727846D01*
X32475693Y-47040461D01*
X32475693Y-47353077D01*
X32632000Y-47353077D01*
X32788308Y-47353077D01*
X32788308Y-47509384D01*
X32788308Y-47665692D01*
X33100923Y-47665692D01*
X33413539Y-47665692D01*
X33413539Y-47509384D01*
X33413539Y-47353077D01*
X33569846Y-47353077D01*
X33726154Y-47353077D01*
X33726154Y-47040461D01*
X33726154Y-46727846D01*
X33882462Y-46727846D01*
X34038770Y-46727846D01*
X34038770Y-46415230D01*
X34038770Y-46102615D01*
X34195077Y-46102615D01*
X34351385Y-46102615D01*
X34351385Y-45946307D01*
X34351385Y-45790000D01*
X34820308Y-45790000D01*
X35289231Y-45790000D01*
X35289231Y-45946307D01*
X35289231Y-46102615D01*
X34976616Y-46102615D01*
X34664000Y-46102615D01*
X34664000Y-46415230D01*
X34664000Y-46727846D01*
X34507693Y-46727846D01*
X34351385Y-46727846D01*
X34351385Y-47040461D01*
X34351385Y-47353077D01*
X34195077Y-47353077D01*
X34038770Y-47353077D01*
X34038770Y-47665692D01*
X34038770Y-47978307D01*
X33882462Y-47978307D01*
X33726154Y-47978307D01*
X33726154Y-48134615D01*
X33726154Y-48290923D01*
X33257231Y-48290923D01*
X32788308Y-48290923D01*
X32788308Y-48134615D01*
X32788308Y-47978307D01*
X32632000Y-47978307D01*
X32475693Y-47978307D01*
X32475693Y-47822000D01*
X32475693Y-47665692D01*
X32319385Y-47665692D01*
X32163077Y-47665692D01*
X32163077Y-47509384D01*
X32163077Y-47353077D01*
X32006770Y-47353077D01*
X31850462Y-47353077D01*
X31850462Y-47040461D01*
X31850462Y-46727846D01*
X31694154Y-46727846D01*
X31537846Y-46727846D01*
X31537846Y-48447230D01*
X31537846Y-50166615D01*
X31225231Y-50166615D01*
X30912616Y-50166615D01*
X30912616Y-48447230D01*
X30912616Y-46727846D01*
X30600000Y-46727846D01*
X30287385Y-46727846D01*
X30287385Y-48134615D01*
X30287385Y-49541384D01*
X29974770Y-49541384D01*
X29662154Y-49541384D01*
X29662154Y-48134615D01*
X29662154Y-46727846D01*
X29505846Y-46727846D01*
X29349539Y-46727846D01*
X29349539Y-47040461D01*
X29349539Y-47353077D01*
X29193231Y-47353077D01*
X29036923Y-47353077D01*
X29036923Y-47509384D01*
X29036923Y-47665692D01*
X28880616Y-47665692D01*
X28724308Y-47665692D01*
X28724308Y-47822000D01*
X28724308Y-47978307D01*
X28568000Y-47978307D01*
X28411693Y-47978307D01*
X28411693Y-48134615D01*
X28411693Y-48290923D01*
X27942770Y-48290923D01*
X27473846Y-48290923D01*
X27473846Y-48134615D01*
X27473846Y-47978307D01*
X27317539Y-47978307D01*
X27161231Y-47978307D01*
X27161231Y-47665692D01*
X27161231Y-47353077D01*
X27004923Y-47353077D01*
X26848616Y-47353077D01*
X26848616Y-47040461D01*
X26848616Y-46727846D01*
X26692308Y-46727846D01*
X26536000Y-46727846D01*
X26536000Y-46415230D01*
X26536000Y-46102615D01*
X26223385Y-46102615D01*
X25910770Y-46102615D01*
X25910770Y-45946307D01*
X25910770Y-45790000D01*
X26379693Y-45790000D01*
X26848616Y-45790000D01*
X26848616Y-45946307D01*
X26848616Y-46102615D01*
X27004923Y-46102615D01*
X27161231Y-46102615D01*
X27161231Y-46415230D01*
X27161231Y-46727846D01*
X27317539Y-46727846D01*
X27473846Y-46727846D01*
X27473846Y-47040461D01*
X27473846Y-47353077D01*
X27630154Y-47353077D01*
X27786462Y-47353077D01*
X27786462Y-47509384D01*
X27786462Y-47665692D01*
X28099077Y-47665692D01*
X28411693Y-47665692D01*
X28411693Y-47509384D01*
X28411693Y-47353077D01*
X28568000Y-47353077D01*
X28724308Y-47353077D01*
X28724308Y-47040461D01*
X28724308Y-46727846D01*
X28411693Y-46727846D01*
X28099077Y-46727846D01*
X28099077Y-46415230D01*
X28099077Y-46102615D01*
X28255385Y-46102615D01*
X28411693Y-46102615D01*
X28411693Y-44852154D01*
X30287385Y-44852154D01*
X30287385Y-45008461D01*
X30287385Y-45164769D01*
X30600000Y-45164769D01*
X30912616Y-45164769D01*
X30912616Y-45008461D01*
X30912616Y-44852154D01*
X30600000Y-44852154D01*
X30287385Y-44852154D01*
X28411693Y-44852154D01*
X28411693Y-44539538D01*
X28411693Y-43289077D01*
X29036923Y-43289077D01*
X29036923Y-43914307D01*
X29036923Y-44539538D01*
X29193231Y-44539538D01*
X29349539Y-44539538D01*
X29349539Y-44383230D01*
X29349539Y-44226923D01*
X29662154Y-44226923D01*
X29974770Y-44226923D01*
X29974770Y-44383230D01*
X29974770Y-44539538D01*
X30131077Y-44539538D01*
X30287385Y-44539538D01*
X30287385Y-43914307D01*
X30912616Y-43914307D01*
X30912616Y-44539538D01*
X31068923Y-44539538D01*
X31225231Y-44539538D01*
X31225231Y-44383230D01*
X31225231Y-44226923D01*
X31537846Y-44226923D01*
X31850462Y-44226923D01*
X31850462Y-44383230D01*
X31850462Y-44539538D01*
X32006770Y-44539538D01*
X32163077Y-44539538D01*
X32163077Y-43914307D01*
X32163077Y-43289077D01*
X32006770Y-43289077D01*
X31850462Y-43289077D01*
X31850462Y-43132769D01*
X31850462Y-42976461D01*
X31537846Y-42976461D01*
X31225231Y-42976461D01*
X31225231Y-43132769D01*
X31225231Y-43289077D01*
X31068923Y-43289077D01*
X30912616Y-43289077D01*
X30912616Y-43914307D01*
X30287385Y-43914307D01*
X30287385Y-43289077D01*
X30131077Y-43289077D01*
X29974770Y-43289077D01*
X29974770Y-43132769D01*
X29974770Y-42976461D01*
X29662154Y-42976461D01*
X29349539Y-42976461D01*
X29349539Y-43132769D01*
X29349539Y-43289077D01*
X29193231Y-43289077D01*
X29036923Y-43289077D01*
X28411693Y-43289077D01*
X28411693Y-42976461D01*
X28568000Y-42976461D01*
X28724308Y-42976461D01*
X28724308Y-42663846D01*
X28724308Y-42351230D01*
X28880616Y-42351230D01*
X29036923Y-42351230D01*
X29036923Y-42194923D01*
X29036923Y-42038615D01*
X29193231Y-42038615D01*
X29349539Y-42038615D01*
X29349539Y-41882307D01*
X29349539Y-41726000D01*
X29662154Y-41726000D01*
X29974770Y-41726000D01*
X29974770Y-41569692D01*
X29974770Y-41413384D01*
X30600000Y-41413384D01*
X31225231Y-41413384D01*
X31225231Y-41569692D01*
X31225231Y-41726000D01*
X31537846Y-41726000D01*
X31850462Y-41726000D01*
X31850462Y-41882307D01*
X31850462Y-42038615D01*
X32006770Y-42038615D01*
X32163077Y-42038615D01*
X32163077Y-42194923D01*
X32163077Y-42351230D01*
X32319385Y-42351230D01*
X32475693Y-42351230D01*
X32475693Y-42663846D01*
X32475693Y-42976461D01*
X32632000Y-42976461D01*
X32788308Y-42976461D01*
X32788308Y-43289077D01*
X32788308Y-44539538D01*
G37*
G36*
X25910770Y-45633692D02*
G01*
X25910770Y-45790000D01*
X25754462Y-45790000D01*
X25598154Y-45790000D01*
X25598154Y-45633692D01*
X25598154Y-45477384D01*
X25754462Y-45477384D01*
X25910770Y-45477384D01*
X25910770Y-45633692D01*
G37*
%TO.C,REF\u002A\u002A*%
G36*
X22860516Y-9205615D02*
G01*
X22937252Y-9211608D01*
X23012925Y-9221475D01*
X23087438Y-9235116D01*
X23160696Y-9252437D01*
X23232600Y-9273339D01*
X23303053Y-9297726D01*
X23371965Y-9325495D01*
X23439228Y-9356551D01*
X23504754Y-9390797D01*
X23568439Y-9428131D01*
X23630194Y-9468457D01*
X23689918Y-9511680D01*
X23747517Y-9557700D01*
X23802890Y-9606411D01*
X23855944Y-9657729D01*
X23906587Y-9711552D01*
X23954707Y-9767772D01*
X24000224Y-9826301D01*
X24043032Y-9887043D01*
X24083030Y-9949887D01*
X24120134Y-10014749D01*
X24154239Y-10081523D01*
X24185250Y-10150111D01*
X24213075Y-10220419D01*
X24237604Y-10292349D01*
X24258754Y-10365799D01*
X24276423Y-10440673D01*
X24290515Y-10516874D01*
X24300931Y-10594305D01*
X24307578Y-10672861D01*
X24310353Y-10752453D01*
X24308569Y-10891543D01*
X24300417Y-11029355D01*
X24285867Y-11165949D01*
X24264907Y-11301374D01*
X24237504Y-11435690D01*
X24203636Y-11568955D01*
X24163286Y-11701227D01*
X24116422Y-11832564D01*
X24063027Y-11963025D01*
X24003074Y-12092659D01*
X23936541Y-12221534D01*
X23863410Y-12349704D01*
X23783646Y-12477222D01*
X23697235Y-12604152D01*
X23604150Y-12730549D01*
X23504366Y-12856466D01*
X23396948Y-12983325D01*
X23265136Y-13128348D01*
X23104204Y-13292037D01*
X22909432Y-13474878D01*
X22676101Y-13677369D01*
X22543503Y-13786137D01*
X22399491Y-13899999D01*
X22243473Y-14019024D01*
X22074873Y-14143265D01*
X21893086Y-14272790D01*
X21697531Y-14407659D01*
X21683697Y-14416723D01*
X21669570Y-14425242D01*
X21655164Y-14433210D01*
X21640494Y-14440621D01*
X21625584Y-14447469D01*
X21610440Y-14453747D01*
X21595082Y-14459457D01*
X21579530Y-14464589D01*
X21563796Y-14469139D01*
X21547898Y-14473100D01*
X21531854Y-14476470D01*
X21515678Y-14479243D01*
X21499388Y-14481415D01*
X21483002Y-14482975D01*
X21466531Y-14483927D01*
X21450002Y-14484254D01*
X21433474Y-14483934D01*
X21417003Y-14482989D01*
X21400620Y-14481438D01*
X21384334Y-14479277D01*
X21368159Y-14476513D01*
X21352115Y-14473151D01*
X21336221Y-14469198D01*
X21320486Y-14464655D01*
X21304932Y-14459534D01*
X21289571Y-14453833D01*
X21274430Y-14447559D01*
X21259517Y-14440721D01*
X21244846Y-14433318D01*
X21230438Y-14425363D01*
X21216309Y-14416853D01*
X21202474Y-14407797D01*
X21006917Y-14272927D01*
X20825132Y-14143406D01*
X20656526Y-14019163D01*
X20500510Y-13900139D01*
X20356502Y-13786275D01*
X20223899Y-13677507D01*
X20102120Y-13573776D01*
X19990568Y-13475019D01*
X19888659Y-13381171D01*
X19795800Y-13292179D01*
X19711401Y-13207970D01*
X19634868Y-13128491D01*
X19565618Y-13053677D01*
X19503053Y-12983461D01*
X19395634Y-12856603D01*
X19295900Y-12730706D01*
X19202846Y-12604333D01*
X19116459Y-12477425D01*
X19036713Y-12349919D01*
X18963580Y-12221761D01*
X18897051Y-12092895D01*
X18837093Y-11963263D01*
X18783682Y-11832806D01*
X18736809Y-11701466D01*
X18696438Y-11569188D01*
X18662556Y-11435916D01*
X18635134Y-11301585D01*
X18614157Y-11166149D01*
X18599597Y-11029541D01*
X18591436Y-10891706D01*
X18589648Y-10752590D01*
X18592426Y-10672987D01*
X18599072Y-10594417D01*
X18609490Y-10516979D01*
X18623582Y-10440768D01*
X18641247Y-10365885D01*
X18662397Y-10292420D01*
X18686930Y-10220486D01*
X18714750Y-10150170D01*
X18745761Y-10081573D01*
X18779867Y-10014792D01*
X18816972Y-9949927D01*
X18856973Y-9887075D01*
X18899781Y-9826329D01*
X18945292Y-9767798D01*
X18993418Y-9711569D01*
X19044060Y-9657744D01*
X19097110Y-9606426D01*
X19152485Y-9557708D01*
X19210086Y-9511685D01*
X19269806Y-9468463D01*
X19331566Y-9428136D01*
X19395251Y-9390798D01*
X19460776Y-9356553D01*
X19528040Y-9325496D01*
X19596948Y-9297726D01*
X19667405Y-9273339D01*
X19739309Y-9252441D01*
X19812567Y-9235116D01*
X19887077Y-9221475D01*
X19962752Y-9211608D01*
X20039487Y-9205615D01*
X20117188Y-9203594D01*
X20173474Y-9204583D01*
X20228666Y-9207499D01*
X20282770Y-9212263D01*
X20335792Y-9218814D01*
X20387728Y-9227065D01*
X20438579Y-9236958D01*
X20488356Y-9248413D01*
X20537056Y-9261356D01*
X20584676Y-9275712D01*
X20631224Y-9291416D01*
X20676701Y-9308388D01*
X20721106Y-9326559D01*
X20764445Y-9345855D01*
X20806719Y-9366206D01*
X20888074Y-9409771D01*
X20965194Y-9456667D01*
X21038090Y-9506322D01*
X21106779Y-9558146D01*
X21171281Y-9611558D01*
X21231610Y-9665976D01*
X21287782Y-9720816D01*
X21339809Y-9775496D01*
X21387708Y-9829437D01*
X21390729Y-9832733D01*
X21393906Y-9835838D01*
X21397230Y-9838759D01*
X21400695Y-9841489D01*
X21404288Y-9844020D01*
X21408008Y-9846355D01*
X21411836Y-9848483D01*
X21415770Y-9850406D01*
X21419806Y-9852117D01*
X21423922Y-9853615D01*
X21428122Y-9854889D01*
X21432394Y-9855943D01*
X21436724Y-9856766D01*
X21441108Y-9857361D01*
X21445539Y-9857720D01*
X21450002Y-9857841D01*
X21454464Y-9857720D01*
X21458894Y-9857361D01*
X21463279Y-9856766D01*
X21467610Y-9855943D01*
X21471879Y-9854889D01*
X21476078Y-9853615D01*
X21480199Y-9852117D01*
X21484233Y-9850406D01*
X21488166Y-9848483D01*
X21491997Y-9846355D01*
X21495712Y-9844020D01*
X21499310Y-9841489D01*
X21502772Y-9838759D01*
X21506098Y-9835838D01*
X21509276Y-9832733D01*
X21512292Y-9829437D01*
X21560196Y-9775544D01*
X21612223Y-9720897D01*
X21668395Y-9666079D01*
X21728719Y-9611673D01*
X21793221Y-9558270D01*
X21861910Y-9506444D01*
X21934809Y-9456785D01*
X22011930Y-9409873D01*
X22093284Y-9366295D01*
X22178895Y-9326631D01*
X22268780Y-9291468D01*
X22362949Y-9261392D01*
X22461418Y-9236983D01*
X22564212Y-9218822D01*
X22671336Y-9207500D01*
X22782813Y-9203594D01*
X22860516Y-9205615D01*
G37*
D14*
%TO.C,JP1*%
X10750000Y-29200000D02*
X10750000Y-26400000D01*
X11450000Y-25750000D02*
X12050000Y-25750000D01*
X12050000Y-29850000D02*
X11450000Y-29850000D01*
X12750000Y-26400000D02*
X12750000Y-29200000D01*
X10750000Y-26450000D02*
G75*
G02*
X11450000Y-25750000I699999J1D01*
G01*
X11450000Y-29850000D02*
G75*
G02*
X10750000Y-29150000I0J700000D01*
G01*
X12050000Y-25750000D02*
G75*
G02*
X12750000Y-26450000I1J-699999D01*
G01*
X12750000Y-29150000D02*
G75*
G02*
X12050000Y-29850000I-700000J0D01*
G01*
%TO.C,TP2*%
X15870000Y-18160000D02*
G75*
G02*
X13970000Y-18160000I-950000J0D01*
G01*
X13970000Y-18160000D02*
G75*
G02*
X15870000Y-18160000I950000J0D01*
G01*
%TO.C,TP4*%
X7710000Y-13000000D02*
G75*
G02*
X5810000Y-13000000I-950000J0D01*
G01*
X5810000Y-13000000D02*
G75*
G02*
X7710000Y-13000000I950000J0D01*
G01*
%TO.C,JP2*%
X12020000Y-24010000D02*
X12020000Y-21210000D01*
X12720000Y-20560000D02*
X13320000Y-20560000D01*
X13320000Y-24660000D02*
X12720000Y-24660000D01*
X14020000Y-21210000D02*
X14020000Y-24010000D01*
X12020000Y-21260000D02*
G75*
G02*
X12720000Y-20560000I699999J1D01*
G01*
X12720000Y-24660000D02*
G75*
G02*
X12020000Y-23960000I0J700000D01*
G01*
X13320000Y-20560000D02*
G75*
G02*
X14020000Y-21260000I1J-699999D01*
G01*
X14020000Y-23960000D02*
G75*
G02*
X13320000Y-24660000I-700000J0D01*
G01*
%TD*%
%LPC*%
D15*
%TO.C,J3*%
X27090000Y-55850000D03*
D16*
X32170000Y-55850000D03*
%TD*%
D15*
%TO.C,J4*%
X5750000Y-55850000D03*
D16*
X10830000Y-55850000D03*
X15910000Y-55850000D03*
X20990000Y-55850000D03*
%TD*%
D17*
%TO.C,K1*%
X15450000Y-48000000D03*
D18*
X22450000Y-48000000D03*
D19*
X3950000Y-48000000D03*
D20*
X3950000Y-43300000D03*
%TD*%
D21*
%TO.C,J2*%
X6690000Y-33410000D03*
D22*
X6690000Y-35950000D03*
%TD*%
D23*
%TO.C,U2*%
X33750000Y-27240000D03*
D24*
X33750000Y-24700000D03*
X33750000Y-22160000D03*
%TD*%
D25*
%TO.C,J1*%
X31350000Y-17090000D03*
X31350000Y-11310000D03*
D26*
X30820000Y-18520000D03*
D27*
X35000000Y-18520000D03*
D26*
X30820000Y-9880000D03*
D27*
X35000000Y-9880000D03*
%TD*%
D28*
%TO.C,C11*%
X33388750Y-35505570D03*
D29*
X33388750Y-30505570D03*
%TD*%
D30*
%TO.C,U3*%
X30450000Y-26540000D03*
D31*
X30450000Y-24000000D03*
X30450000Y-21460000D03*
%TD*%
%TO.C,TP6*%
X24340000Y-18920000D03*
%TD*%
%TO.C,TP10*%
X8800000Y-9270000D03*
%TD*%
%TO.C,TP8*%
X2570000Y-12350000D03*
%TD*%
D32*
%TO.C,C7*%
X20990000Y-58220000D03*
X20990000Y-59945000D03*
%TD*%
D31*
%TO.C,TP5*%
X24550000Y-15080000D03*
%TD*%
%TO.C,TP9*%
X14750000Y-28900000D03*
%TD*%
%TO.C,TP1*%
X27790000Y-30980000D03*
%TD*%
%TO.C,TP3*%
X11880000Y-10900000D03*
%TD*%
%TO.C,TP7*%
X14010000Y-26850000D03*
%TD*%
D33*
%TO.C,JP1*%
X11750000Y-26500000D03*
D34*
X11750000Y-27800000D03*
D35*
X11750000Y-29100000D03*
%TD*%
D31*
%TO.C,TP2*%
X14920000Y-18160000D03*
%TD*%
%TO.C,TP4*%
X6760000Y-13000000D03*
%TD*%
D33*
%TO.C,JP2*%
X13020000Y-21310000D03*
D34*
X13020000Y-22610000D03*
D35*
X13020000Y-23910000D03*
%TD*%
%LPD*%
M02*
