M48
; DRILL file {KiCad 8.0.6} date 2024-11-14T14:47:25+0100
; FORMAT={-:-/ absolute / inch / decimal}
; #@! TF.CreationDate,2024-11-14T14:47:25+01:00
; #@! TF.GenerationSoftware,Kicad,Pcbnew,8.0.6
; #@! TF.FileFunction,Plated,1,2,PTH
FMAT,2
INCH
; #@! TA.AperFunction,Plated,PTH,ViaDrill
T1C0.0118
; #@! TA.AperFunction,Plated,PTH,ComponentDrill
T2C0.0118
; #@! TA.AperFunction,Plated,PTH,ViaDrill
T3C0.0157
; #@! TA.AperFunction,Plated,PTH,ViaDrill
T4C0.0177
; #@! TA.AperFunction,Plated,PTH,ViaDrill
T5C0.0236
; #@! TA.AperFunction,Plated,PTH,ComponentDrill
T6C0.0236
; #@! TA.AperFunction,Plated,PTH,ComponentDrill
T7C0.0315
; #@! TA.AperFunction,Plated,PTH,ComponentDrill
T8C0.0354
; #@! TA.AperFunction,Plated,PTH,ComponentDrill
T9C0.0394
; #@! TA.AperFunction,Plated,PTH,ComponentDrill
T10C0.0433
; #@! TA.AperFunction,Plated,PTH,ComponentDrill
T11C0.0512
%
G90
G05
T1
X0.0386Y-0.6693
X0.0441Y-0.8276
X0.0441Y-0.861
X0.0441Y-0.8953
X0.0531Y-0.4449
X0.0846Y-2.3799
X0.1102Y-2.0551
X0.124Y-2.3799
X0.128Y-0.8248
X0.128Y-0.8563
X0.1378Y-2.0354
X0.1634Y-2.3799
X0.1654Y-1.9764
X0.1811Y-1.9449
X0.2028Y-2.3799
X0.2126Y-1.9055
X0.2283Y-1.8819
X0.2421Y-2.3012
X0.2421Y-2.3406
X0.2421Y-2.3799
X0.252Y-1.8583
X0.2614Y-0.8504
X0.2642Y-0.8173
X0.2756Y-1.8346
X0.2815Y-2.3012
X0.2815Y-2.3406
X0.2815Y-2.3799
X0.2992Y-1.811
X0.3209Y-2.3799
X0.3228Y-1.7874
X0.3268Y-2.189
X0.3268Y-2.2244
X0.3268Y-2.2559
X0.3307Y-2.1575
X0.3465Y-1.7638
X0.3465Y-2.126
X0.3484Y-0.2933
X0.3587Y-0.9583
X0.3602Y-2.3799
X0.3622Y-1.937
X0.3622Y-1.9685
X0.3622Y-2.0
X0.3622Y-2.0315
X0.3622Y-2.063
X0.3622Y-2.0945
X0.363Y-0.8097
X0.3701Y-1.7402
X0.3701Y-1.9055
X0.378Y-1.874
X0.3878Y-0.2933
X0.3937Y-1.7165
X0.3957Y-1.5059
X0.3996Y-2.3012
X0.3996Y-2.3406
X0.3996Y-2.3799
X0.4016Y-1.8425
X0.4047Y-1.0988
X0.4094Y-1.6063
X0.4094Y-1.6457
X0.4094Y-1.685
X0.4252Y-1.8189
X0.439Y-2.3012
X0.439Y-2.3406
X0.439Y-2.3799
X0.4488Y-1.7953
X0.4724Y-1.7717
X0.4783Y-2.3799
X0.4882Y-1.9921
X0.4882Y-2.0236
X0.4882Y-2.0551
X0.4882Y-2.0866
X0.4961Y-1.748
X0.5043Y-1.8626
X0.5079Y-2.126
X0.5177Y-2.3799
X0.5197Y-1.7165
X0.5236Y-2.1575
X0.5252Y-1.8406
X0.5276Y-2.189
X0.5276Y-2.2205
X0.5315Y-2.252
X0.5335Y-1.502
X0.5354Y-1.5906
X0.5354Y-1.622
X0.5354Y-1.6535
X0.5354Y-1.685
X0.5441Y-1.8185
X0.5484Y-1.0051
X0.5571Y-2.3012
X0.5571Y-2.3406
X0.5571Y-2.3799
X0.5657Y-1.798
X0.5671Y-0.3262
X0.5807Y-0.3524
X0.5965Y-2.3012
X0.5965Y-2.3406
X0.5965Y-2.3799
X0.6004Y-0.374
X0.6232Y-0.3921
X0.6299Y-1.2539
X0.6358Y-2.3799
X0.6398Y-1.5079
X0.6457Y-1.6654
X0.6508Y-0.402
X0.6626Y-1.5547
X0.6752Y-2.3799
X0.6795Y-0.402
X0.6953Y-1.5555
X0.7071Y-0.3921
X0.7236Y-0.4886
X0.7299Y-0.374
X0.7346Y-1.5559
X0.7496Y-0.3524
X0.752Y-1.6614
X0.7567Y-1.2776
X0.7632Y-0.3262
X0.7835Y-1.6614
X0.7839Y-1.0091
X0.7953Y-0.6374
X0.7957Y-0.6772
X0.8024Y-0.8705
X0.8122Y-1.3736
X0.815Y-1.6614
X0.8465Y-1.6614
X0.874Y-1.6772
X0.889Y-1.1646
X0.8894Y-1.1941
X0.8898Y-1.222
X0.8921Y-1.4791
X0.8929Y-1.5114
X0.8976Y-1.7008
X0.9213Y-1.7205
X0.9488Y-1.7362
X0.9543Y-1.589
X0.974Y-1.0685
X0.976Y-0.8846
X0.9807Y-1.6279
X1.0059Y-1.4921
X1.0157Y-1.7362
X1.0185Y-1.6417
X1.0244Y-0.6933
X1.0295Y-0.7496
X1.0354Y-1.4941
X1.0504Y-1.1555
X1.0512Y-1.7323
X1.0594Y-0.6705
X1.0602Y-1.3406
X1.065Y-1.4941
X1.0654Y-0.7264
X1.0705Y-0.7724
X1.0728Y-1.1161
X1.0866Y-1.7323
X1.0945Y-1.4941
X1.1185Y-1.0106
X1.122Y-1.7323
X1.1496Y-1.748
X1.1654Y-1.7205
X1.1669Y-0.9898
X1.1772Y-1.6929
X1.2008Y-1.3429
X1.2091Y-1.3937
X1.2555Y-0.5783
X1.2559Y-0.5209
T2
X0.589Y-0.5157
X0.589Y-0.5591
X0.6106Y-0.4941
X0.6106Y-0.5374
X0.6106Y-0.5807
X0.6323Y-0.5157
X0.6323Y-0.5591
X0.6539Y-0.4941
X0.6539Y-0.5374
X0.6539Y-0.5807
X0.6756Y-0.5157
X0.6756Y-0.5591
T3
X0.0339Y-0.9917
X0.0358Y-1.402
X0.039Y-1.6839
X0.0421Y-1.9504
X0.0453Y-0.4862
X0.0492Y-2.0197
X0.0555Y-0.3039
X0.0567Y-0.2677
X0.0571Y-2.2953
X0.0575Y-1.4472
X0.065Y-1.2421
X0.0665Y-1.6461
X0.0701Y-1.9776
X0.0713Y-1.3638
X0.0854Y-0.8843
X0.0862Y-0.6587
X0.0913Y-0.5996
X0.0921Y-1.6161
X0.0933Y-1.4815
X0.1016Y-1.2772
X0.1122Y-1.3173
X0.1149Y-1.0771
X0.1154Y-1.5134
X0.1189Y-1.5685
X0.1201Y-0.3524
X0.1272Y-0.9957
X0.1299Y-0.5996
X0.1303Y-0.6453
X0.1575Y-2.0079
X0.1654Y-2.0791
X0.1772Y-0.2921
X0.1772Y-0.4587
X0.1773Y-0.5323
X0.2169Y-1.3591
X0.2445Y-1.215
X0.2736Y-1.4902
X0.2854Y-1.2126
X0.2854Y-1.2488
X0.2878Y-1.6193
X0.2898Y-2.002
X0.3Y-0.5886
X0.3064Y-0.911
X0.3193Y-2.089
X0.3465Y-0.4705
X0.3669Y-0.9906
X0.3917Y-1.0283
X0.4Y-1.4154
X0.4043Y-0.7874
X0.4098Y-0.5587
X0.4114Y-1.2539
X0.4272Y-0.2933
X0.4476Y-0.9202
X0.4484Y-0.7343
X0.4563Y-1.0949
X0.4626Y-1.5886
X0.4661Y-0.7866
X0.4728Y-0.515
X0.4787Y-1.2539
X0.4886Y-1.9606
X0.4898Y-1.926
X0.4909Y-1.8921
X0.5157Y-1.0856
X0.5358Y-1.4161
X0.5709Y-2.0669
X0.5862Y-0.9882
X0.5874Y-0.8287
X0.5996Y-0.6417
X0.6004Y-1.5886
X0.6061Y-0.872
X0.6122Y-2.0811
X0.6217Y-1.0965
X0.6642Y-0.6433
X0.6654Y-2.0925
X0.6811Y-2.315
X0.7059Y-1.3358
X0.7205Y-2.1437
X0.7264Y-2.2559
X0.7287Y-1.3992
X0.7323Y-2.3602
X0.7598Y-2.3091
X0.7602Y-0.5315
X0.8492Y-0.2937
X0.8496Y-1.5843
X0.8913Y-0.3524
X0.8945Y-1.9953
X0.8976Y-2.3661
X0.9366Y-0.813
X0.9386Y-0.8587
X0.9449Y-2.0098
X0.9449Y-2.3307
X0.9453Y-2.074
X0.9469Y-2.1906
X0.9764Y-1.4764
X0.9854Y-0.7177
X0.9906Y-1.2185
X0.9976Y-0.6594
X1.0039Y-2.313
X1.0059Y-0.8591
X1.022Y-1.5323
X1.0227Y-1.6958
X1.0256Y-1.387
X1.0256Y-2.3661
X1.0374Y-0.3878
X1.0374Y-0.624
X1.0618Y-1.4059
X1.0665Y-2.0063
X1.0665Y-2.0425
X1.0665Y-2.0807
X1.0665Y-2.1181
X1.0929Y-1.1614
X1.1063Y-2.313
X1.126Y-0.6575
X1.1331Y-0.3035
X1.1354Y-0.4626
X1.1354Y-1.1606
X1.1461Y-1.1921
X1.1614Y-2.3701
X1.1713Y-2.2598
X1.1732Y-2.1358
X1.1752Y-0.7835
X1.1791Y-1.1591
X1.2091Y-1.2618
X1.213Y-1.3047
X1.2264Y-2.3209
X1.2394Y-1.2343
X1.2394Y-2.0803
X1.2598Y-1.2992
X1.2657Y-1.5618
X1.2697Y-1.4827
X1.2854Y-1.5118
X1.2874Y-1.4559
X1.2992Y-1.2992
X1.3051Y-1.4827
X1.3209Y-1.5118
X1.3213Y-1.5606
X1.3228Y-1.1339
X1.3228Y-1.4559
X1.3291Y-2.076
X1.3327Y-2.3248
X1.3366Y-2.3642
X1.337Y-2.0079
X1.3386Y-1.2992
X1.3406Y-1.4827
X1.3425Y-2.1201
X1.3465Y-2.2677
X1.3563Y-1.5118
X1.3563Y-1.5472
X1.3563Y-1.5827
X1.3583Y-1.4559
X1.378Y-1.126
X1.378Y-1.1654
X1.378Y-1.2283
X1.378Y-1.2598
X1.378Y-1.2992
T4
X0.4665Y-0.2933
X0.6559Y-1.9374
X0.6984Y-1.9799
X0.7378Y-2.0193
X0.7697Y-1.837
X0.7736Y-1.7783
X0.7837Y-2.0652
X0.8004Y-1.8669
X0.8035Y-1.8098
X0.826Y-2.1106
X0.8343Y-1.8413
X0.8374Y-1.7815
X0.8665Y-1.8134
X1.2008Y-1.5039
X1.2008Y-1.5492
X1.2008Y-1.5945
X1.3598Y-0.2953
X1.3642Y-0.4508
X1.3642Y-0.5295
X1.3642Y-0.5886
X1.3642Y-0.6673
T5
X0.6161Y-0.2933
X0.7146Y-0.2933
T7
X1.1988Y-0.8449
X1.1988Y-0.9449
X1.1988Y-1.0449
T8
X1.3287Y-0.8724
X1.3287Y-0.9724
X1.3287Y-1.0724
T9
X0.2634Y-1.3154
X0.2634Y-1.4154
X1.3145Y-1.201
X1.3145Y-1.3979
T10
X0.1555Y-1.7047
X0.1555Y-1.8898
X0.6083Y-1.8898
X0.8839Y-1.8898
T11
X0.2264Y-2.1988
X0.4264Y-2.1988
X0.6264Y-2.1988
X0.8264Y-2.1988
X1.0665Y-2.1988
X1.2665Y-2.1988
T6
G00X1.1917Y-0.389
M15
G01X1.235Y-0.389
M16
G05
G00X1.1917Y-0.7291
M15
G01X1.235Y-0.7291
M16
G05
G00X1.3661Y-0.389
M15
G01X1.3898Y-0.389
M16
G05
G00X1.3661Y-0.7291
M15
G01X1.3898Y-0.7291
M16
G05
M30
