%TF.GenerationSoftware,KiCad,Pcbnew,8.0.6*%
%TF.CreationDate,2024-11-14T14:47:25+01:00*%
%TF.ProjectId,TwinkleTron,5477696e-6b6c-4655-9472-6f6e2e6b6963,rev?*%
%TF.SameCoordinates,Original*%
%TF.FileFunction,Soldermask,Bot*%
%TF.FilePolarity,Negative*%
%FSLAX46Y46*%
G04 Gerber Fmt 4.6, Leading zero omitted, Abs format (unit mm)*
G04 Created by KiCad (PCBNEW 8.0.6) date 2024-11-14 14:47:25*
%MOMM*%
%LPD*%
G01*
G04 APERTURE LIST*
G04 Aperture macros list*
%AMRoundRect*
0 Rectangle with rounded corners*
0 $1 Rounding radius*
0 $2 $3 $4 $5 $6 $7 $8 $9 X,Y pos of 4 corners*
0 Add a 4 corners polygon primitive as box body*
4,1,4,$2,$3,$4,$5,$6,$7,$8,$9,$2,$3,0*
0 Add four circle primitives for the rounded corners*
1,1,$1+$1,$2,$3*
1,1,$1+$1,$4,$5*
1,1,$1+$1,$6,$7*
1,1,$1+$1,$8,$9*
0 Add four rect primitives between the rounded corners*
20,1,$1+$1,$2,$3,$4,$5,0*
20,1,$1+$1,$4,$5,$6,$7,0*
20,1,$1+$1,$6,$7,$8,$9,0*
20,1,$1+$1,$8,$9,$2,$3,0*%
%AMFreePoly0*
4,1,19,0.550000,-0.750000,0.000000,-0.750000,0.000000,-0.744911,-0.071157,-0.744911,-0.207708,-0.704816,-0.327430,-0.627875,-0.420627,-0.520320,-0.479746,-0.390866,-0.500000,-0.250000,-0.500000,0.250000,-0.479746,0.390866,-0.420627,0.520320,-0.327430,0.627875,-0.207708,0.704816,-0.071157,0.744911,0.000000,0.744911,0.000000,0.750000,0.550000,0.750000,0.550000,-0.750000,0.550000,-0.750000,
$1*%
%AMFreePoly1*
4,1,19,0.000000,0.744911,0.071157,0.744911,0.207708,0.704816,0.327430,0.627875,0.420627,0.520320,0.479746,0.390866,0.500000,0.250000,0.500000,-0.250000,0.479746,-0.390866,0.420627,-0.520320,0.327430,-0.627875,0.207708,-0.704816,0.071157,-0.744911,0.000000,-0.744911,0.000000,-0.750000,-0.550000,-0.750000,-0.550000,0.750000,0.000000,0.750000,0.000000,0.744911,0.000000,0.744911,
$1*%
G04 Aperture macros list end*
%ADD10R,2.600000X2.600000*%
%ADD11C,2.600000*%
%ADD12C,2.500000*%
%ADD13C,2.250000*%
%ADD14C,1.900000*%
%ADD15R,1.900000X2.000000*%
%ADD16O,1.700000X1.700000*%
%ADD17R,1.700000X1.700000*%
%ADD18RoundRect,0.250200X0.649800X-0.649800X0.649800X0.649800X-0.649800X0.649800X-0.649800X-0.649800X0*%
%ADD19C,1.800000*%
%ADD20C,0.650000*%
%ADD21O,2.100000X1.000000*%
%ADD22O,1.600000X1.000000*%
%ADD23R,2.000000X2.000000*%
%ADD24C,2.000000*%
%ADD25R,1.500000X1.500000*%
%ADD26C,1.500000*%
%ADD27RoundRect,0.237500X-0.237500X0.300000X-0.237500X-0.300000X0.237500X-0.300000X0.237500X0.300000X0*%
%ADD28FreePoly0,270.000000*%
%ADD29R,1.500000X1.000000*%
%ADD30FreePoly1,270.000000*%
G04 APERTURE END LIST*
D10*
%TO.C,J3*%
X27090000Y-55850000D03*
D11*
X32170000Y-55850000D03*
%TD*%
D10*
%TO.C,J4*%
X5750000Y-55850000D03*
D11*
X10830000Y-55850000D03*
X15910000Y-55850000D03*
X20990000Y-55850000D03*
%TD*%
D12*
%TO.C,K1*%
X15450000Y-48000000D03*
D13*
X22450000Y-48000000D03*
D14*
X3950000Y-48000000D03*
D15*
X3950000Y-43300000D03*
%TD*%
D16*
%TO.C,J2*%
X6690000Y-33410000D03*
D17*
X6690000Y-35950000D03*
%TD*%
D18*
%TO.C,U2*%
X33750000Y-27240000D03*
D19*
X33750000Y-24700000D03*
X33750000Y-22160000D03*
%TD*%
D20*
%TO.C,J1*%
X31350000Y-17090000D03*
X31350000Y-11310000D03*
D21*
X30820000Y-18520000D03*
D22*
X35000000Y-18520000D03*
D21*
X30820000Y-9880000D03*
D22*
X35000000Y-9880000D03*
%TD*%
D23*
%TO.C,C11*%
X33388750Y-35505570D03*
D24*
X33388750Y-30505570D03*
%TD*%
D25*
%TO.C,U3*%
X30450000Y-26540000D03*
D26*
X30450000Y-24000000D03*
X30450000Y-21460000D03*
%TD*%
%TO.C,TP6*%
X24340000Y-18920000D03*
%TD*%
%TO.C,TP10*%
X8800000Y-9270000D03*
%TD*%
%TO.C,TP8*%
X2570000Y-12350000D03*
%TD*%
D27*
%TO.C,C7*%
X20990000Y-58220000D03*
X20990000Y-59945000D03*
%TD*%
D26*
%TO.C,TP5*%
X24550000Y-15080000D03*
%TD*%
%TO.C,TP9*%
X14750000Y-28900000D03*
%TD*%
%TO.C,TP1*%
X27790000Y-30980000D03*
%TD*%
%TO.C,TP3*%
X11880000Y-10900000D03*
%TD*%
%TO.C,TP7*%
X14010000Y-26850000D03*
%TD*%
D28*
%TO.C,JP1*%
X11750000Y-26500000D03*
D29*
X11750000Y-27800000D03*
D30*
X11750000Y-29100000D03*
%TD*%
D26*
%TO.C,TP2*%
X14920000Y-18160000D03*
%TD*%
%TO.C,TP4*%
X6760000Y-13000000D03*
%TD*%
D28*
%TO.C,JP2*%
X13020000Y-21310000D03*
D29*
X13020000Y-22610000D03*
D30*
X13020000Y-23910000D03*
%TD*%
M02*
