%TF.GenerationSoftware,KiCad,Pcbnew,8.0.2*%
%TF.CreationDate,2024-08-19T20:28:07+02:00*%
%TF.ProjectId,TwinkleTron,5477696e-6b6c-4655-9472-6f6e2e6b6963,rev?*%
%TF.SameCoordinates,Original*%
%TF.FileFunction,Legend,Bot*%
%TF.FilePolarity,Positive*%
%FSLAX46Y46*%
G04 Gerber Fmt 4.6, Leading zero omitted, Abs format (unit mm)*
G04 Created by KiCad (PCBNEW 8.0.2) date 2024-08-19 20:28:07*
%MOMM*%
%LPD*%
G01*
G04 APERTURE LIST*
G04 Aperture macros list*
%AMRoundRect*
0 Rectangle with rounded corners*
0 $1 Rounding radius*
0 $2 $3 $4 $5 $6 $7 $8 $9 X,Y pos of 4 corners*
0 Add a 4 corners polygon primitive as box body*
4,1,4,$2,$3,$4,$5,$6,$7,$8,$9,$2,$3,0*
0 Add four circle primitives for the rounded corners*
1,1,$1+$1,$2,$3*
1,1,$1+$1,$4,$5*
1,1,$1+$1,$6,$7*
1,1,$1+$1,$8,$9*
0 Add four rect primitives between the rounded corners*
20,1,$1+$1,$2,$3,$4,$5,0*
20,1,$1+$1,$4,$5,$6,$7,0*
20,1,$1+$1,$6,$7,$8,$9,0*
20,1,$1+$1,$8,$9,$2,$3,0*%
G04 Aperture macros list end*
%ADD10C,0.000000*%
%ADD11C,0.300000*%
%ADD12C,0.150000*%
%ADD13C,0.120000*%
%ADD14RoundRect,0.250200X0.649800X-0.649800X0.649800X0.649800X-0.649800X0.649800X-0.649800X-0.649800X0*%
%ADD15C,1.800000*%
%ADD16C,1.854000*%
%ADD17RoundRect,0.102000X-0.825000X-0.825000X0.825000X-0.825000X0.825000X0.825000X-0.825000X0.825000X0*%
%ADD18RoundRect,0.249999X-0.790001X-1.550001X0.790001X-1.550001X0.790001X1.550001X-0.790001X1.550001X0*%
%ADD19O,2.080000X3.600000*%
%ADD20R,1.050000X1.500000*%
%ADD21O,1.050000X1.500000*%
%ADD22C,0.650000*%
%ADD23O,2.100000X1.000000*%
%ADD24O,1.600000X1.000000*%
%ADD25R,2.000000X2.000000*%
%ADD26C,2.000000*%
%ADD27RoundRect,0.250000X0.750000X-0.600000X0.750000X0.600000X-0.750000X0.600000X-0.750000X-0.600000X0*%
%ADD28O,2.000000X1.700000*%
%ADD29RoundRect,0.250000X-0.475000X0.337500X-0.475000X-0.337500X0.475000X-0.337500X0.475000X0.337500X0*%
%ADD30RoundRect,0.250000X-0.800000X0.450000X-0.800000X-0.450000X0.800000X-0.450000X0.800000X0.450000X0*%
%ADD31RoundRect,0.250000X0.450000X0.800000X-0.450000X0.800000X-0.450000X-0.800000X0.450000X-0.800000X0*%
%ADD32RoundRect,0.250000X-1.500000X-0.650000X1.500000X-0.650000X1.500000X0.650000X-1.500000X0.650000X0*%
%ADD33RoundRect,0.250000X0.450000X-0.350000X0.450000X0.350000X-0.450000X0.350000X-0.450000X-0.350000X0*%
%ADD34RoundRect,0.225000X0.375000X-0.225000X0.375000X0.225000X-0.375000X0.225000X-0.375000X-0.225000X0*%
%ADD35RoundRect,0.250000X-0.337500X-0.475000X0.337500X-0.475000X0.337500X0.475000X-0.337500X0.475000X0*%
%ADD36RoundRect,0.150000X-0.825000X-0.150000X0.825000X-0.150000X0.825000X0.150000X-0.825000X0.150000X0*%
%ADD37RoundRect,0.250000X0.350000X0.450000X-0.350000X0.450000X-0.350000X-0.450000X0.350000X-0.450000X0*%
%ADD38RoundRect,0.250000X-0.450000X0.350000X-0.450000X-0.350000X0.450000X-0.350000X0.450000X0.350000X0*%
%ADD39RoundRect,0.250000X-0.350000X-0.450000X0.350000X-0.450000X0.350000X0.450000X-0.350000X0.450000X0*%
%ADD40RoundRect,0.150000X0.587500X0.150000X-0.587500X0.150000X-0.587500X-0.150000X0.587500X-0.150000X0*%
%ADD41R,3.810000X4.240000*%
%ADD42RoundRect,0.250000X0.337500X0.475000X-0.337500X0.475000X-0.337500X-0.475000X0.337500X-0.475000X0*%
%ADD43RoundRect,0.250000X-0.450000X-0.800000X0.450000X-0.800000X0.450000X0.800000X-0.450000X0.800000X0*%
G04 APERTURE END LIST*
D10*
G36*
X156522270Y-67917384D02*
G01*
X156540864Y-67919234D01*
X156571254Y-67924496D01*
X156600960Y-67931768D01*
X156629904Y-67940972D01*
X156658004Y-67952048D01*
X156685184Y-67964936D01*
X156711356Y-67979568D01*
X156736446Y-67995878D01*
X156760370Y-68013806D01*
X156783050Y-68033282D01*
X156804404Y-68054246D01*
X156824354Y-68076636D01*
X156842816Y-68100378D01*
X156859716Y-68125416D01*
X156874970Y-68151680D01*
X156888492Y-68179110D01*
X156900212Y-68207636D01*
X157518764Y-69816098D01*
X157523192Y-69826776D01*
X157528154Y-69837156D01*
X157533632Y-69847218D01*
X157539608Y-69856944D01*
X157546070Y-69866324D01*
X157552998Y-69875334D01*
X157560378Y-69883962D01*
X157568186Y-69892188D01*
X157576416Y-69900000D01*
X157585040Y-69907376D01*
X157594052Y-69914300D01*
X157603428Y-69920762D01*
X157613156Y-69926742D01*
X157623218Y-69932220D01*
X157633596Y-69937182D01*
X157644276Y-69941610D01*
X159264194Y-70564802D01*
X159295098Y-70578090D01*
X159324578Y-70593536D01*
X159352556Y-70611030D01*
X159378954Y-70630452D01*
X159403694Y-70651686D01*
X159426696Y-70674618D01*
X159447882Y-70699136D01*
X159467168Y-70725126D01*
X159484484Y-70752468D01*
X159499746Y-70781054D01*
X159512874Y-70810764D01*
X159523794Y-70841484D01*
X159532428Y-70873098D01*
X159538686Y-70905494D01*
X159542502Y-70938554D01*
X159543792Y-70972170D01*
X159543468Y-70989032D01*
X159542502Y-71005778D01*
X159540906Y-71022386D01*
X159538686Y-71038840D01*
X159535860Y-71055128D01*
X159532428Y-71071234D01*
X159528402Y-71087146D01*
X159523794Y-71102848D01*
X159518616Y-71118328D01*
X159512874Y-71133568D01*
X159506580Y-71148556D01*
X159499746Y-71163278D01*
X159492374Y-71177720D01*
X159484484Y-71191864D01*
X159476078Y-71205698D01*
X159467168Y-71219206D01*
X159457764Y-71232376D01*
X159447882Y-71245196D01*
X159437520Y-71257646D01*
X159426696Y-71269714D01*
X159415416Y-71281384D01*
X159403694Y-71292650D01*
X159391536Y-71303486D01*
X159378954Y-71313880D01*
X159365958Y-71323828D01*
X159352556Y-71333302D01*
X159338760Y-71342296D01*
X159324578Y-71350796D01*
X159310020Y-71358782D01*
X159295098Y-71366242D01*
X159279822Y-71373164D01*
X159264194Y-71379532D01*
X157644276Y-72002722D01*
X157633596Y-72007150D01*
X157623218Y-72012116D01*
X157613156Y-72017594D01*
X157603430Y-72023570D01*
X157594052Y-72030032D01*
X157585040Y-72036958D01*
X157576416Y-72044336D01*
X157568186Y-72052148D01*
X157560378Y-72060374D01*
X157553000Y-72069002D01*
X157546070Y-72078010D01*
X157539612Y-72087388D01*
X157533632Y-72097118D01*
X157528154Y-72107176D01*
X157523196Y-72117556D01*
X157518764Y-72128236D01*
X156895572Y-73748156D01*
X156882302Y-73779082D01*
X156866870Y-73808588D01*
X156849396Y-73836592D01*
X156829982Y-73863020D01*
X156808754Y-73887782D01*
X156785826Y-73910810D01*
X156761310Y-73932020D01*
X156735324Y-73951334D01*
X156707976Y-73968670D01*
X156679388Y-73983952D01*
X156649670Y-73997108D01*
X156618944Y-74008042D01*
X156587318Y-74016694D01*
X156554910Y-74022970D01*
X156521834Y-74026802D01*
X156488208Y-74028100D01*
X156471334Y-74027770D01*
X156454582Y-74026802D01*
X156437968Y-74025196D01*
X156421504Y-74022970D01*
X156405210Y-74020132D01*
X156389098Y-74016694D01*
X156373180Y-74012660D01*
X156357472Y-74008042D01*
X156341986Y-74002856D01*
X156326740Y-73997108D01*
X156311752Y-73990802D01*
X156297028Y-73983952D01*
X156282582Y-73976576D01*
X156268440Y-73968670D01*
X156254602Y-73960252D01*
X156241092Y-73951334D01*
X156227922Y-73941920D01*
X156215106Y-73932020D01*
X156202654Y-73921646D01*
X156190590Y-73910810D01*
X156178918Y-73899520D01*
X156167658Y-73887782D01*
X156156822Y-73875610D01*
X156146434Y-73863020D01*
X156136492Y-73850006D01*
X156127020Y-73836592D01*
X156118036Y-73822786D01*
X156109546Y-73808588D01*
X156101566Y-73794020D01*
X156094114Y-73779082D01*
X156087202Y-73763792D01*
X156080844Y-73748156D01*
X155457648Y-72128236D01*
X155453220Y-72117556D01*
X155448262Y-72107176D01*
X155442784Y-72097118D01*
X155436804Y-72087388D01*
X155430342Y-72078010D01*
X155423416Y-72069002D01*
X155416038Y-72060374D01*
X155408230Y-72052148D01*
X155400000Y-72044336D01*
X155391376Y-72036958D01*
X155382364Y-72030032D01*
X155372986Y-72023570D01*
X155363260Y-72017594D01*
X155353198Y-72012116D01*
X155342820Y-72007150D01*
X155332140Y-72002722D01*
X153712222Y-71379532D01*
X153681318Y-71366242D01*
X153651838Y-71350796D01*
X153623860Y-71333302D01*
X153597462Y-71313880D01*
X153572722Y-71292650D01*
X153549720Y-71269714D01*
X153528534Y-71245196D01*
X153509248Y-71219206D01*
X153491932Y-71191864D01*
X153476670Y-71163278D01*
X153463542Y-71133568D01*
X153452622Y-71102848D01*
X153443988Y-71071234D01*
X153437730Y-71038840D01*
X153433914Y-71005778D01*
X153432624Y-70972170D01*
X153432948Y-70955300D01*
X153433914Y-70938554D01*
X153435510Y-70921950D01*
X153437730Y-70905494D01*
X153440556Y-70889204D01*
X153443988Y-70873098D01*
X153448014Y-70857186D01*
X153452622Y-70841484D01*
X153457800Y-70826004D01*
X153463542Y-70810764D01*
X153469836Y-70795776D01*
X153476670Y-70781054D01*
X153484042Y-70766612D01*
X153491932Y-70752468D01*
X153500338Y-70738634D01*
X153509248Y-70725126D01*
X153518652Y-70711956D01*
X153528534Y-70699136D01*
X153538896Y-70686686D01*
X153549720Y-70674618D01*
X153561000Y-70662948D01*
X153572722Y-70651686D01*
X153584880Y-70640850D01*
X153597462Y-70630452D01*
X153610458Y-70620506D01*
X153623860Y-70611030D01*
X153637656Y-70602036D01*
X153651838Y-70593536D01*
X153666396Y-70585550D01*
X153681318Y-70578090D01*
X153696594Y-70571172D01*
X153712222Y-70564802D01*
X155332140Y-69941610D01*
X155342820Y-69937182D01*
X155353198Y-69932220D01*
X155363260Y-69926742D01*
X155372988Y-69920762D01*
X155382364Y-69914300D01*
X155391376Y-69907376D01*
X155400000Y-69900000D01*
X155408230Y-69892188D01*
X155416038Y-69883962D01*
X155423416Y-69875334D01*
X155430346Y-69866324D01*
X155436804Y-69856944D01*
X155442784Y-69847218D01*
X155448262Y-69837156D01*
X155453220Y-69826776D01*
X155457648Y-69816098D01*
X156080844Y-68196180D01*
X156087910Y-68178876D01*
X156095650Y-68162012D01*
X156113056Y-68129646D01*
X156132906Y-68099174D01*
X156155040Y-68070696D01*
X156179304Y-68044304D01*
X156205530Y-68020094D01*
X156233566Y-67998170D01*
X156263244Y-67978616D01*
X156294414Y-67961538D01*
X156326914Y-67947024D01*
X156360580Y-67935174D01*
X156395256Y-67926084D01*
X156430780Y-67919846D01*
X156467002Y-67916564D01*
X156503742Y-67916328D01*
X156522270Y-67917384D01*
G37*
D11*
X165273558Y-108377733D02*
X166797368Y-108377733D01*
X166035463Y-109139638D02*
X166035463Y-107615828D01*
X158473558Y-108377733D02*
X159997368Y-108377733D01*
X159235463Y-109139638D02*
X159235463Y-107615828D01*
D12*
X137369819Y-92563220D02*
X136369819Y-92563220D01*
X136369819Y-91896554D02*
X136369819Y-91706078D01*
X136369819Y-91706078D02*
X136417438Y-91610840D01*
X136417438Y-91610840D02*
X136512676Y-91515602D01*
X136512676Y-91515602D02*
X136703152Y-91467983D01*
X136703152Y-91467983D02*
X137036485Y-91467983D01*
X137036485Y-91467983D02*
X137226961Y-91515602D01*
X137226961Y-91515602D02*
X137322200Y-91610840D01*
X137322200Y-91610840D02*
X137369819Y-91706078D01*
X137369819Y-91706078D02*
X137369819Y-91896554D01*
X137369819Y-91896554D02*
X137322200Y-91991792D01*
X137322200Y-91991792D02*
X137226961Y-92087030D01*
X137226961Y-92087030D02*
X137036485Y-92134649D01*
X137036485Y-92134649D02*
X136703152Y-92134649D01*
X136703152Y-92134649D02*
X136512676Y-92087030D01*
X136512676Y-92087030D02*
X136417438Y-91991792D01*
X136417438Y-91991792D02*
X136369819Y-91896554D01*
X136369819Y-90848935D02*
X136369819Y-90753697D01*
X136369819Y-90753697D02*
X136417438Y-90658459D01*
X136417438Y-90658459D02*
X136465057Y-90610840D01*
X136465057Y-90610840D02*
X136560295Y-90563221D01*
X136560295Y-90563221D02*
X136750771Y-90515602D01*
X136750771Y-90515602D02*
X136988866Y-90515602D01*
X136988866Y-90515602D02*
X137179342Y-90563221D01*
X137179342Y-90563221D02*
X137274580Y-90610840D01*
X137274580Y-90610840D02*
X137322200Y-90658459D01*
X137322200Y-90658459D02*
X137369819Y-90753697D01*
X137369819Y-90753697D02*
X137369819Y-90848935D01*
X137369819Y-90848935D02*
X137322200Y-90944173D01*
X137322200Y-90944173D02*
X137274580Y-90991792D01*
X137274580Y-90991792D02*
X137179342Y-91039411D01*
X137179342Y-91039411D02*
X136988866Y-91087030D01*
X136988866Y-91087030D02*
X136750771Y-91087030D01*
X136750771Y-91087030D02*
X136560295Y-91039411D01*
X136560295Y-91039411D02*
X136465057Y-90991792D01*
X136465057Y-90991792D02*
X136417438Y-90944173D01*
X136417438Y-90944173D02*
X136369819Y-90848935D01*
X136703152Y-89658459D02*
X137369819Y-89658459D01*
X136322200Y-89896554D02*
X137036485Y-90134649D01*
X137036485Y-90134649D02*
X137036485Y-89515602D01*
X136988866Y-89134649D02*
X136988866Y-88372745D01*
X136369819Y-88039411D02*
X136369819Y-87467983D01*
X137369819Y-87753697D02*
X136369819Y-87753697D01*
X137322200Y-86753697D02*
X137369819Y-86848935D01*
X137369819Y-86848935D02*
X137369819Y-87039411D01*
X137369819Y-87039411D02*
X137322200Y-87134649D01*
X137322200Y-87134649D02*
X137226961Y-87182268D01*
X137226961Y-87182268D02*
X136846009Y-87182268D01*
X136846009Y-87182268D02*
X136750771Y-87134649D01*
X136750771Y-87134649D02*
X136703152Y-87039411D01*
X136703152Y-87039411D02*
X136703152Y-86848935D01*
X136703152Y-86848935D02*
X136750771Y-86753697D01*
X136750771Y-86753697D02*
X136846009Y-86706078D01*
X136846009Y-86706078D02*
X136941247Y-86706078D01*
X136941247Y-86706078D02*
X137036485Y-87182268D01*
X137369819Y-86277506D02*
X136703152Y-86277506D01*
X136798390Y-86277506D02*
X136750771Y-86229887D01*
X136750771Y-86229887D02*
X136703152Y-86134649D01*
X136703152Y-86134649D02*
X136703152Y-85991792D01*
X136703152Y-85991792D02*
X136750771Y-85896554D01*
X136750771Y-85896554D02*
X136846009Y-85848935D01*
X136846009Y-85848935D02*
X137369819Y-85848935D01*
X136846009Y-85848935D02*
X136750771Y-85801316D01*
X136750771Y-85801316D02*
X136703152Y-85706078D01*
X136703152Y-85706078D02*
X136703152Y-85563221D01*
X136703152Y-85563221D02*
X136750771Y-85467982D01*
X136750771Y-85467982D02*
X136846009Y-85420363D01*
X136846009Y-85420363D02*
X137369819Y-85420363D01*
X136703152Y-84944173D02*
X137703152Y-84944173D01*
X136750771Y-84944173D02*
X136703152Y-84848935D01*
X136703152Y-84848935D02*
X136703152Y-84658459D01*
X136703152Y-84658459D02*
X136750771Y-84563221D01*
X136750771Y-84563221D02*
X136798390Y-84515602D01*
X136798390Y-84515602D02*
X136893628Y-84467983D01*
X136893628Y-84467983D02*
X137179342Y-84467983D01*
X137179342Y-84467983D02*
X137274580Y-84515602D01*
X137274580Y-84515602D02*
X137322200Y-84563221D01*
X137322200Y-84563221D02*
X137369819Y-84658459D01*
X137369819Y-84658459D02*
X137369819Y-84848935D01*
X137369819Y-84848935D02*
X137322200Y-84944173D01*
X137274580Y-84039411D02*
X137322200Y-83991792D01*
X137322200Y-83991792D02*
X137369819Y-84039411D01*
X137369819Y-84039411D02*
X137322200Y-84087030D01*
X137322200Y-84087030D02*
X137274580Y-84039411D01*
X137274580Y-84039411D02*
X137369819Y-84039411D01*
D11*
X140897368Y-109149161D02*
X140992606Y-109244400D01*
X140992606Y-109244400D02*
X141278320Y-109339638D01*
X141278320Y-109339638D02*
X141468796Y-109339638D01*
X141468796Y-109339638D02*
X141754511Y-109244400D01*
X141754511Y-109244400D02*
X141944987Y-109053923D01*
X141944987Y-109053923D02*
X142040225Y-108863447D01*
X142040225Y-108863447D02*
X142135463Y-108482495D01*
X142135463Y-108482495D02*
X142135463Y-108196780D01*
X142135463Y-108196780D02*
X142040225Y-107815828D01*
X142040225Y-107815828D02*
X141944987Y-107625352D01*
X141944987Y-107625352D02*
X141754511Y-107434876D01*
X141754511Y-107434876D02*
X141468796Y-107339638D01*
X141468796Y-107339638D02*
X141278320Y-107339638D01*
X141278320Y-107339638D02*
X140992606Y-107434876D01*
X140992606Y-107434876D02*
X140897368Y-107530114D01*
X139087844Y-109339638D02*
X140040225Y-109339638D01*
X140040225Y-109339638D02*
X140040225Y-107339638D01*
X138421177Y-109339638D02*
X138421177Y-107339638D01*
X137278320Y-109339638D02*
X138135463Y-108196780D01*
X137278320Y-107339638D02*
X138421177Y-108482495D01*
X170373558Y-108577733D02*
X171897368Y-108577733D01*
X149473559Y-109339638D02*
X149473559Y-107339638D01*
X149473559Y-107339638D02*
X148997369Y-107339638D01*
X148997369Y-107339638D02*
X148711654Y-107434876D01*
X148711654Y-107434876D02*
X148521178Y-107625352D01*
X148521178Y-107625352D02*
X148425940Y-107815828D01*
X148425940Y-107815828D02*
X148330702Y-108196780D01*
X148330702Y-108196780D02*
X148330702Y-108482495D01*
X148330702Y-108482495D02*
X148425940Y-108863447D01*
X148425940Y-108863447D02*
X148521178Y-109053923D01*
X148521178Y-109053923D02*
X148711654Y-109244400D01*
X148711654Y-109244400D02*
X148997369Y-109339638D01*
X148997369Y-109339638D02*
X149473559Y-109339638D01*
X147568797Y-108768209D02*
X146616416Y-108768209D01*
X147759273Y-109339638D02*
X147092607Y-107339638D01*
X147092607Y-107339638D02*
X146425940Y-109339638D01*
X146044987Y-107339638D02*
X144902130Y-107339638D01*
X145473559Y-109339638D02*
X145473559Y-107339638D01*
X144330701Y-108768209D02*
X143378320Y-108768209D01*
X144521177Y-109339638D02*
X143854511Y-107339638D01*
X143854511Y-107339638D02*
X143187844Y-109339638D01*
X174578571Y-43628013D02*
X174649999Y-43699442D01*
X174649999Y-43699442D02*
X174864285Y-43770870D01*
X174864285Y-43770870D02*
X175007142Y-43770870D01*
X175007142Y-43770870D02*
X175221428Y-43699442D01*
X175221428Y-43699442D02*
X175364285Y-43556584D01*
X175364285Y-43556584D02*
X175435714Y-43413727D01*
X175435714Y-43413727D02*
X175507142Y-43128013D01*
X175507142Y-43128013D02*
X175507142Y-42913727D01*
X175507142Y-42913727D02*
X175435714Y-42628013D01*
X175435714Y-42628013D02*
X175364285Y-42485156D01*
X175364285Y-42485156D02*
X175221428Y-42342299D01*
X175221428Y-42342299D02*
X175007142Y-42270870D01*
X175007142Y-42270870D02*
X174864285Y-42270870D01*
X174864285Y-42270870D02*
X174649999Y-42342299D01*
X174649999Y-42342299D02*
X174578571Y-42413727D01*
X173935714Y-43770870D02*
X173935714Y-42770870D01*
X173935714Y-43056584D02*
X173864285Y-42913727D01*
X173864285Y-42913727D02*
X173792857Y-42842299D01*
X173792857Y-42842299D02*
X173649999Y-42770870D01*
X173649999Y-42770870D02*
X173507142Y-42770870D01*
X172435714Y-43699442D02*
X172578571Y-43770870D01*
X172578571Y-43770870D02*
X172864286Y-43770870D01*
X172864286Y-43770870D02*
X173007143Y-43699442D01*
X173007143Y-43699442D02*
X173078571Y-43556584D01*
X173078571Y-43556584D02*
X173078571Y-42985156D01*
X173078571Y-42985156D02*
X173007143Y-42842299D01*
X173007143Y-42842299D02*
X172864286Y-42770870D01*
X172864286Y-42770870D02*
X172578571Y-42770870D01*
X172578571Y-42770870D02*
X172435714Y-42842299D01*
X172435714Y-42842299D02*
X172364286Y-42985156D01*
X172364286Y-42985156D02*
X172364286Y-43128013D01*
X172364286Y-43128013D02*
X173078571Y-43270870D01*
X171078572Y-43770870D02*
X171078572Y-42985156D01*
X171078572Y-42985156D02*
X171150000Y-42842299D01*
X171150000Y-42842299D02*
X171292857Y-42770870D01*
X171292857Y-42770870D02*
X171578572Y-42770870D01*
X171578572Y-42770870D02*
X171721429Y-42842299D01*
X171078572Y-43699442D02*
X171221429Y-43770870D01*
X171221429Y-43770870D02*
X171578572Y-43770870D01*
X171578572Y-43770870D02*
X171721429Y-43699442D01*
X171721429Y-43699442D02*
X171792857Y-43556584D01*
X171792857Y-43556584D02*
X171792857Y-43413727D01*
X171792857Y-43413727D02*
X171721429Y-43270870D01*
X171721429Y-43270870D02*
X171578572Y-43199442D01*
X171578572Y-43199442D02*
X171221429Y-43199442D01*
X171221429Y-43199442D02*
X171078572Y-43128013D01*
X170578571Y-42770870D02*
X170007143Y-42770870D01*
X170364286Y-42270870D02*
X170364286Y-43556584D01*
X170364286Y-43556584D02*
X170292857Y-43699442D01*
X170292857Y-43699442D02*
X170150000Y-43770870D01*
X170150000Y-43770870D02*
X170007143Y-43770870D01*
X168935714Y-43699442D02*
X169078571Y-43770870D01*
X169078571Y-43770870D02*
X169364286Y-43770870D01*
X169364286Y-43770870D02*
X169507143Y-43699442D01*
X169507143Y-43699442D02*
X169578571Y-43556584D01*
X169578571Y-43556584D02*
X169578571Y-42985156D01*
X169578571Y-42985156D02*
X169507143Y-42842299D01*
X169507143Y-42842299D02*
X169364286Y-42770870D01*
X169364286Y-42770870D02*
X169078571Y-42770870D01*
X169078571Y-42770870D02*
X168935714Y-42842299D01*
X168935714Y-42842299D02*
X168864286Y-42985156D01*
X168864286Y-42985156D02*
X168864286Y-43128013D01*
X168864286Y-43128013D02*
X169578571Y-43270870D01*
X167578572Y-43770870D02*
X167578572Y-42270870D01*
X167578572Y-43699442D02*
X167721429Y-43770870D01*
X167721429Y-43770870D02*
X168007143Y-43770870D01*
X168007143Y-43770870D02*
X168150000Y-43699442D01*
X168150000Y-43699442D02*
X168221429Y-43628013D01*
X168221429Y-43628013D02*
X168292857Y-43485156D01*
X168292857Y-43485156D02*
X168292857Y-43056584D01*
X168292857Y-43056584D02*
X168221429Y-42913727D01*
X168221429Y-42913727D02*
X168150000Y-42842299D01*
X168150000Y-42842299D02*
X168007143Y-42770870D01*
X168007143Y-42770870D02*
X167721429Y-42770870D01*
X167721429Y-42770870D02*
X167578572Y-42842299D01*
X165721429Y-43770870D02*
X165721429Y-42270870D01*
X165721429Y-42842299D02*
X165578572Y-42770870D01*
X165578572Y-42770870D02*
X165292857Y-42770870D01*
X165292857Y-42770870D02*
X165150000Y-42842299D01*
X165150000Y-42842299D02*
X165078572Y-42913727D01*
X165078572Y-42913727D02*
X165007143Y-43056584D01*
X165007143Y-43056584D02*
X165007143Y-43485156D01*
X165007143Y-43485156D02*
X165078572Y-43628013D01*
X165078572Y-43628013D02*
X165150000Y-43699442D01*
X165150000Y-43699442D02*
X165292857Y-43770870D01*
X165292857Y-43770870D02*
X165578572Y-43770870D01*
X165578572Y-43770870D02*
X165721429Y-43699442D01*
X164507143Y-42770870D02*
X164150000Y-43770870D01*
X163792857Y-42770870D02*
X164150000Y-43770870D01*
X164150000Y-43770870D02*
X164292857Y-44128013D01*
X164292857Y-44128013D02*
X164364286Y-44199442D01*
X164364286Y-44199442D02*
X164507143Y-44270870D01*
X162292857Y-42270870D02*
X161435715Y-42270870D01*
X161864286Y-43770870D02*
X161864286Y-42270870D01*
X160721429Y-43770870D02*
X160864286Y-43699442D01*
X160864286Y-43699442D02*
X160935715Y-43628013D01*
X160935715Y-43628013D02*
X161007143Y-43485156D01*
X161007143Y-43485156D02*
X161007143Y-43056584D01*
X161007143Y-43056584D02*
X160935715Y-42913727D01*
X160935715Y-42913727D02*
X160864286Y-42842299D01*
X160864286Y-42842299D02*
X160721429Y-42770870D01*
X160721429Y-42770870D02*
X160507143Y-42770870D01*
X160507143Y-42770870D02*
X160364286Y-42842299D01*
X160364286Y-42842299D02*
X160292858Y-42913727D01*
X160292858Y-42913727D02*
X160221429Y-43056584D01*
X160221429Y-43056584D02*
X160221429Y-43485156D01*
X160221429Y-43485156D02*
X160292858Y-43628013D01*
X160292858Y-43628013D02*
X160364286Y-43699442D01*
X160364286Y-43699442D02*
X160507143Y-43770870D01*
X160507143Y-43770870D02*
X160721429Y-43770870D01*
X159578572Y-43770870D02*
X159578572Y-42770870D01*
X159578572Y-42913727D02*
X159507143Y-42842299D01*
X159507143Y-42842299D02*
X159364286Y-42770870D01*
X159364286Y-42770870D02*
X159150000Y-42770870D01*
X159150000Y-42770870D02*
X159007143Y-42842299D01*
X159007143Y-42842299D02*
X158935715Y-42985156D01*
X158935715Y-42985156D02*
X158935715Y-43770870D01*
X158935715Y-42985156D02*
X158864286Y-42842299D01*
X158864286Y-42842299D02*
X158721429Y-42770870D01*
X158721429Y-42770870D02*
X158507143Y-42770870D01*
X158507143Y-42770870D02*
X158364286Y-42842299D01*
X158364286Y-42842299D02*
X158292857Y-42985156D01*
X158292857Y-42985156D02*
X158292857Y-43770870D01*
X156935715Y-43770870D02*
X156935715Y-42985156D01*
X156935715Y-42985156D02*
X157007143Y-42842299D01*
X157007143Y-42842299D02*
X157150000Y-42770870D01*
X157150000Y-42770870D02*
X157435715Y-42770870D01*
X157435715Y-42770870D02*
X157578572Y-42842299D01*
X156935715Y-43699442D02*
X157078572Y-43770870D01*
X157078572Y-43770870D02*
X157435715Y-43770870D01*
X157435715Y-43770870D02*
X157578572Y-43699442D01*
X157578572Y-43699442D02*
X157650000Y-43556584D01*
X157650000Y-43556584D02*
X157650000Y-43413727D01*
X157650000Y-43413727D02*
X157578572Y-43270870D01*
X157578572Y-43270870D02*
X157435715Y-43199442D01*
X157435715Y-43199442D02*
X157078572Y-43199442D01*
X157078572Y-43199442D02*
X156935715Y-43128013D01*
X157150000Y-42199442D02*
X157364286Y-42413727D01*
X156292857Y-43699442D02*
X156150000Y-43770870D01*
X156150000Y-43770870D02*
X155864286Y-43770870D01*
X155864286Y-43770870D02*
X155721429Y-43699442D01*
X155721429Y-43699442D02*
X155650000Y-43556584D01*
X155650000Y-43556584D02*
X155650000Y-43485156D01*
X155650000Y-43485156D02*
X155721429Y-43342299D01*
X155721429Y-43342299D02*
X155864286Y-43270870D01*
X155864286Y-43270870D02*
X156078572Y-43270870D01*
X156078572Y-43270870D02*
X156221429Y-43199442D01*
X156221429Y-43199442D02*
X156292857Y-43056584D01*
X156292857Y-43056584D02*
X156292857Y-42985156D01*
X156292857Y-42985156D02*
X156221429Y-42842299D01*
X156221429Y-42842299D02*
X156078572Y-42770870D01*
X156078572Y-42770870D02*
X155864286Y-42770870D01*
X155864286Y-42770870D02*
X155721429Y-42842299D01*
X156292857Y-42199442D02*
X156007143Y-42413727D01*
X156007143Y-42413727D02*
X155721429Y-42199442D01*
X153864286Y-43770870D02*
X153864286Y-42270870D01*
X153007143Y-43770870D02*
X153650000Y-42913727D01*
X153007143Y-42270870D02*
X153864286Y-43128013D01*
X151721429Y-42770870D02*
X151721429Y-43770870D01*
X152364286Y-42770870D02*
X152364286Y-43556584D01*
X152364286Y-43556584D02*
X152292857Y-43699442D01*
X152292857Y-43699442D02*
X152150000Y-43770870D01*
X152150000Y-43770870D02*
X151935714Y-43770870D01*
X151935714Y-43770870D02*
X151792857Y-43699442D01*
X151792857Y-43699442D02*
X151721429Y-43628013D01*
X150364286Y-43699442D02*
X150507143Y-43770870D01*
X150507143Y-43770870D02*
X150792857Y-43770870D01*
X150792857Y-43770870D02*
X150935714Y-43699442D01*
X150935714Y-43699442D02*
X151007143Y-43628013D01*
X151007143Y-43628013D02*
X151078571Y-43485156D01*
X151078571Y-43485156D02*
X151078571Y-43056584D01*
X151078571Y-43056584D02*
X151007143Y-42913727D01*
X151007143Y-42913727D02*
X150935714Y-42842299D01*
X150935714Y-42842299D02*
X150792857Y-42770870D01*
X150792857Y-42770870D02*
X150507143Y-42770870D01*
X150507143Y-42770870D02*
X150364286Y-42842299D01*
X149721429Y-43770870D02*
X149721429Y-42270870D01*
X149078572Y-43770870D02*
X149078572Y-42985156D01*
X149078572Y-42985156D02*
X149150000Y-42842299D01*
X149150000Y-42842299D02*
X149292857Y-42770870D01*
X149292857Y-42770870D02*
X149507143Y-42770870D01*
X149507143Y-42770870D02*
X149650000Y-42842299D01*
X149650000Y-42842299D02*
X149721429Y-42913727D01*
X148578571Y-42770870D02*
X148007143Y-42770870D01*
X148364286Y-42270870D02*
X148364286Y-43556584D01*
X148364286Y-43556584D02*
X148292857Y-43699442D01*
X148292857Y-43699442D02*
X148150000Y-43770870D01*
X148150000Y-43770870D02*
X148007143Y-43770870D01*
X146864286Y-43770870D02*
X146864286Y-42985156D01*
X146864286Y-42985156D02*
X146935714Y-42842299D01*
X146935714Y-42842299D02*
X147078571Y-42770870D01*
X147078571Y-42770870D02*
X147364286Y-42770870D01*
X147364286Y-42770870D02*
X147507143Y-42842299D01*
X146864286Y-43699442D02*
X147007143Y-43770870D01*
X147007143Y-43770870D02*
X147364286Y-43770870D01*
X147364286Y-43770870D02*
X147507143Y-43699442D01*
X147507143Y-43699442D02*
X147578571Y-43556584D01*
X147578571Y-43556584D02*
X147578571Y-43413727D01*
X147578571Y-43413727D02*
X147507143Y-43270870D01*
X147507143Y-43270870D02*
X147364286Y-43199442D01*
X147364286Y-43199442D02*
X147007143Y-43199442D01*
X147007143Y-43199442D02*
X146864286Y-43128013D01*
X174828571Y-45614358D02*
X173685714Y-45614358D01*
X174257142Y-46185786D02*
X174257142Y-45042929D01*
X173185713Y-44685786D02*
X172328571Y-44685786D01*
X172757142Y-46185786D02*
X172757142Y-44685786D01*
X171828571Y-46185786D02*
X171828571Y-44685786D01*
X171185714Y-46185786D02*
X171185714Y-45400072D01*
X171185714Y-45400072D02*
X171257142Y-45257215D01*
X171257142Y-45257215D02*
X171399999Y-45185786D01*
X171399999Y-45185786D02*
X171614285Y-45185786D01*
X171614285Y-45185786D02*
X171757142Y-45257215D01*
X171757142Y-45257215D02*
X171828571Y-45328643D01*
X169899999Y-46114358D02*
X170042856Y-46185786D01*
X170042856Y-46185786D02*
X170328571Y-46185786D01*
X170328571Y-46185786D02*
X170471428Y-46114358D01*
X170471428Y-46114358D02*
X170542856Y-45971500D01*
X170542856Y-45971500D02*
X170542856Y-45400072D01*
X170542856Y-45400072D02*
X170471428Y-45257215D01*
X170471428Y-45257215D02*
X170328571Y-45185786D01*
X170328571Y-45185786D02*
X170042856Y-45185786D01*
X170042856Y-45185786D02*
X169899999Y-45257215D01*
X169899999Y-45257215D02*
X169828571Y-45400072D01*
X169828571Y-45400072D02*
X169828571Y-45542929D01*
X169828571Y-45542929D02*
X170542856Y-45685786D01*
X167400000Y-46185786D02*
X167400000Y-45400072D01*
X167400000Y-45400072D02*
X167471428Y-45257215D01*
X167471428Y-45257215D02*
X167614285Y-45185786D01*
X167614285Y-45185786D02*
X167900000Y-45185786D01*
X167900000Y-45185786D02*
X168042857Y-45257215D01*
X167400000Y-46114358D02*
X167542857Y-46185786D01*
X167542857Y-46185786D02*
X167900000Y-46185786D01*
X167900000Y-46185786D02*
X168042857Y-46114358D01*
X168042857Y-46114358D02*
X168114285Y-45971500D01*
X168114285Y-45971500D02*
X168114285Y-45828643D01*
X168114285Y-45828643D02*
X168042857Y-45685786D01*
X168042857Y-45685786D02*
X167900000Y-45614358D01*
X167900000Y-45614358D02*
X167542857Y-45614358D01*
X167542857Y-45614358D02*
X167400000Y-45542929D01*
X166828571Y-45185786D02*
X166542857Y-46185786D01*
X166542857Y-46185786D02*
X166257142Y-45471500D01*
X166257142Y-45471500D02*
X165971428Y-46185786D01*
X165971428Y-46185786D02*
X165685714Y-45185786D01*
X164542856Y-46114358D02*
X164685713Y-46185786D01*
X164685713Y-46185786D02*
X164971428Y-46185786D01*
X164971428Y-46185786D02*
X165114285Y-46114358D01*
X165114285Y-46114358D02*
X165185713Y-45971500D01*
X165185713Y-45971500D02*
X165185713Y-45400072D01*
X165185713Y-45400072D02*
X165114285Y-45257215D01*
X165114285Y-45257215D02*
X164971428Y-45185786D01*
X164971428Y-45185786D02*
X164685713Y-45185786D01*
X164685713Y-45185786D02*
X164542856Y-45257215D01*
X164542856Y-45257215D02*
X164471428Y-45400072D01*
X164471428Y-45400072D02*
X164471428Y-45542929D01*
X164471428Y-45542929D02*
X165185713Y-45685786D01*
X163899999Y-46114358D02*
X163757142Y-46185786D01*
X163757142Y-46185786D02*
X163471428Y-46185786D01*
X163471428Y-46185786D02*
X163328571Y-46114358D01*
X163328571Y-46114358D02*
X163257142Y-45971500D01*
X163257142Y-45971500D02*
X163257142Y-45900072D01*
X163257142Y-45900072D02*
X163328571Y-45757215D01*
X163328571Y-45757215D02*
X163471428Y-45685786D01*
X163471428Y-45685786D02*
X163685714Y-45685786D01*
X163685714Y-45685786D02*
X163828571Y-45614358D01*
X163828571Y-45614358D02*
X163899999Y-45471500D01*
X163899999Y-45471500D02*
X163899999Y-45400072D01*
X163899999Y-45400072D02*
X163828571Y-45257215D01*
X163828571Y-45257215D02*
X163685714Y-45185786D01*
X163685714Y-45185786D02*
X163471428Y-45185786D01*
X163471428Y-45185786D02*
X163328571Y-45257215D01*
X162399999Y-46185786D02*
X162542856Y-46114358D01*
X162542856Y-46114358D02*
X162614285Y-46042929D01*
X162614285Y-46042929D02*
X162685713Y-45900072D01*
X162685713Y-45900072D02*
X162685713Y-45471500D01*
X162685713Y-45471500D02*
X162614285Y-45328643D01*
X162614285Y-45328643D02*
X162542856Y-45257215D01*
X162542856Y-45257215D02*
X162399999Y-45185786D01*
X162399999Y-45185786D02*
X162185713Y-45185786D01*
X162185713Y-45185786D02*
X162042856Y-45257215D01*
X162042856Y-45257215D02*
X161971428Y-45328643D01*
X161971428Y-45328643D02*
X161899999Y-45471500D01*
X161899999Y-45471500D02*
X161899999Y-45900072D01*
X161899999Y-45900072D02*
X161971428Y-46042929D01*
X161971428Y-46042929D02*
X162042856Y-46114358D01*
X162042856Y-46114358D02*
X162185713Y-46185786D01*
X162185713Y-46185786D02*
X162399999Y-46185786D01*
X161257142Y-46185786D02*
X161257142Y-45185786D01*
X161257142Y-45328643D02*
X161185713Y-45257215D01*
X161185713Y-45257215D02*
X161042856Y-45185786D01*
X161042856Y-45185786D02*
X160828570Y-45185786D01*
X160828570Y-45185786D02*
X160685713Y-45257215D01*
X160685713Y-45257215D02*
X160614285Y-45400072D01*
X160614285Y-45400072D02*
X160614285Y-46185786D01*
X160614285Y-45400072D02*
X160542856Y-45257215D01*
X160542856Y-45257215D02*
X160399999Y-45185786D01*
X160399999Y-45185786D02*
X160185713Y-45185786D01*
X160185713Y-45185786D02*
X160042856Y-45257215D01*
X160042856Y-45257215D02*
X159971427Y-45400072D01*
X159971427Y-45400072D02*
X159971427Y-46185786D01*
X158685713Y-46114358D02*
X158828570Y-46185786D01*
X158828570Y-46185786D02*
X159114285Y-46185786D01*
X159114285Y-46185786D02*
X159257142Y-46114358D01*
X159257142Y-46114358D02*
X159328570Y-45971500D01*
X159328570Y-45971500D02*
X159328570Y-45400072D01*
X159328570Y-45400072D02*
X159257142Y-45257215D01*
X159257142Y-45257215D02*
X159114285Y-45185786D01*
X159114285Y-45185786D02*
X158828570Y-45185786D01*
X158828570Y-45185786D02*
X158685713Y-45257215D01*
X158685713Y-45257215D02*
X158614285Y-45400072D01*
X158614285Y-45400072D02*
X158614285Y-45542929D01*
X158614285Y-45542929D02*
X159328570Y-45685786D01*
X156185714Y-46114358D02*
X156328571Y-46185786D01*
X156328571Y-46185786D02*
X156614285Y-46185786D01*
X156614285Y-46185786D02*
X156757142Y-46114358D01*
X156757142Y-46114358D02*
X156828571Y-46042929D01*
X156828571Y-46042929D02*
X156899999Y-45900072D01*
X156899999Y-45900072D02*
X156899999Y-45471500D01*
X156899999Y-45471500D02*
X156828571Y-45328643D01*
X156828571Y-45328643D02*
X156757142Y-45257215D01*
X156757142Y-45257215D02*
X156614285Y-45185786D01*
X156614285Y-45185786D02*
X156328571Y-45185786D01*
X156328571Y-45185786D02*
X156185714Y-45257215D01*
X155328571Y-46185786D02*
X155471428Y-46114358D01*
X155471428Y-46114358D02*
X155542857Y-46042929D01*
X155542857Y-46042929D02*
X155614285Y-45900072D01*
X155614285Y-45900072D02*
X155614285Y-45471500D01*
X155614285Y-45471500D02*
X155542857Y-45328643D01*
X155542857Y-45328643D02*
X155471428Y-45257215D01*
X155471428Y-45257215D02*
X155328571Y-45185786D01*
X155328571Y-45185786D02*
X155114285Y-45185786D01*
X155114285Y-45185786D02*
X154971428Y-45257215D01*
X154971428Y-45257215D02*
X154900000Y-45328643D01*
X154900000Y-45328643D02*
X154828571Y-45471500D01*
X154828571Y-45471500D02*
X154828571Y-45900072D01*
X154828571Y-45900072D02*
X154900000Y-46042929D01*
X154900000Y-46042929D02*
X154971428Y-46114358D01*
X154971428Y-46114358D02*
X155114285Y-46185786D01*
X155114285Y-46185786D02*
X155328571Y-46185786D01*
X154185714Y-46185786D02*
X154185714Y-45185786D01*
X154185714Y-45328643D02*
X154114285Y-45257215D01*
X154114285Y-45257215D02*
X153971428Y-45185786D01*
X153971428Y-45185786D02*
X153757142Y-45185786D01*
X153757142Y-45185786D02*
X153614285Y-45257215D01*
X153614285Y-45257215D02*
X153542857Y-45400072D01*
X153542857Y-45400072D02*
X153542857Y-46185786D01*
X153542857Y-45400072D02*
X153471428Y-45257215D01*
X153471428Y-45257215D02*
X153328571Y-45185786D01*
X153328571Y-45185786D02*
X153114285Y-45185786D01*
X153114285Y-45185786D02*
X152971428Y-45257215D01*
X152971428Y-45257215D02*
X152899999Y-45400072D01*
X152899999Y-45400072D02*
X152899999Y-46185786D01*
X151542857Y-45185786D02*
X151542857Y-46185786D01*
X152185714Y-45185786D02*
X152185714Y-45971500D01*
X152185714Y-45971500D02*
X152114285Y-46114358D01*
X152114285Y-46114358D02*
X151971428Y-46185786D01*
X151971428Y-46185786D02*
X151757142Y-46185786D01*
X151757142Y-46185786D02*
X151614285Y-46114358D01*
X151614285Y-46114358D02*
X151542857Y-46042929D01*
X150828571Y-45185786D02*
X150828571Y-46185786D01*
X150828571Y-45328643D02*
X150757142Y-45257215D01*
X150757142Y-45257215D02*
X150614285Y-45185786D01*
X150614285Y-45185786D02*
X150399999Y-45185786D01*
X150399999Y-45185786D02*
X150257142Y-45257215D01*
X150257142Y-45257215D02*
X150185714Y-45400072D01*
X150185714Y-45400072D02*
X150185714Y-46185786D01*
X149471428Y-46185786D02*
X149471428Y-45185786D01*
X149471428Y-44685786D02*
X149542856Y-44757215D01*
X149542856Y-44757215D02*
X149471428Y-44828643D01*
X149471428Y-44828643D02*
X149399999Y-44757215D01*
X149399999Y-44757215D02*
X149471428Y-44685786D01*
X149471428Y-44685786D02*
X149471428Y-44828643D01*
X148971427Y-45185786D02*
X148399999Y-45185786D01*
X148757142Y-44685786D02*
X148757142Y-45971500D01*
X148757142Y-45971500D02*
X148685713Y-46114358D01*
X148685713Y-46114358D02*
X148542856Y-46185786D01*
X148542856Y-46185786D02*
X148399999Y-46185786D01*
X148042856Y-45185786D02*
X147685713Y-46185786D01*
X147328570Y-45185786D02*
X147685713Y-46185786D01*
X147685713Y-46185786D02*
X147828570Y-46542929D01*
X147828570Y-46542929D02*
X147899999Y-46614358D01*
X147899999Y-46614358D02*
X148042856Y-46685786D01*
D12*
X162259875Y-71836779D02*
X161259875Y-71836779D01*
X161259875Y-72503445D02*
X161259875Y-72693921D01*
X161259875Y-72693921D02*
X161307494Y-72789159D01*
X161307494Y-72789159D02*
X161402732Y-72884397D01*
X161402732Y-72884397D02*
X161593208Y-72932016D01*
X161593208Y-72932016D02*
X161926541Y-72932016D01*
X161926541Y-72932016D02*
X162117017Y-72884397D01*
X162117017Y-72884397D02*
X162212256Y-72789159D01*
X162212256Y-72789159D02*
X162259875Y-72693921D01*
X162259875Y-72693921D02*
X162259875Y-72503445D01*
X162259875Y-72503445D02*
X162212256Y-72408207D01*
X162212256Y-72408207D02*
X162117017Y-72312969D01*
X162117017Y-72312969D02*
X161926541Y-72265350D01*
X161926541Y-72265350D02*
X161593208Y-72265350D01*
X161593208Y-72265350D02*
X161402732Y-72312969D01*
X161402732Y-72312969D02*
X161307494Y-72408207D01*
X161307494Y-72408207D02*
X161259875Y-72503445D01*
X161259875Y-73265350D02*
X161259875Y-73932016D01*
X161259875Y-73932016D02*
X162259875Y-73503445D01*
X163346009Y-72170112D02*
X163393628Y-72312969D01*
X163393628Y-72312969D02*
X163441247Y-72360588D01*
X163441247Y-72360588D02*
X163536485Y-72408207D01*
X163536485Y-72408207D02*
X163679342Y-72408207D01*
X163679342Y-72408207D02*
X163774580Y-72360588D01*
X163774580Y-72360588D02*
X163822200Y-72312969D01*
X163822200Y-72312969D02*
X163869819Y-72217731D01*
X163869819Y-72217731D02*
X163869819Y-71836779D01*
X163869819Y-71836779D02*
X162869819Y-71836779D01*
X162869819Y-71836779D02*
X162869819Y-72170112D01*
X162869819Y-72170112D02*
X162917438Y-72265350D01*
X162917438Y-72265350D02*
X162965057Y-72312969D01*
X162965057Y-72312969D02*
X163060295Y-72360588D01*
X163060295Y-72360588D02*
X163155533Y-72360588D01*
X163155533Y-72360588D02*
X163250771Y-72312969D01*
X163250771Y-72312969D02*
X163298390Y-72265350D01*
X163298390Y-72265350D02*
X163346009Y-72170112D01*
X163346009Y-72170112D02*
X163346009Y-71836779D01*
X163203152Y-73265350D02*
X163869819Y-73265350D01*
X163203152Y-72836779D02*
X163726961Y-72836779D01*
X163726961Y-72836779D02*
X163822200Y-72884398D01*
X163822200Y-72884398D02*
X163869819Y-72979636D01*
X163869819Y-72979636D02*
X163869819Y-73122493D01*
X163869819Y-73122493D02*
X163822200Y-73217731D01*
X163822200Y-73217731D02*
X163774580Y-73265350D01*
X163203152Y-73598684D02*
X163203152Y-73979636D01*
X162869819Y-73741541D02*
X163726961Y-73741541D01*
X163726961Y-73741541D02*
X163822200Y-73789160D01*
X163822200Y-73789160D02*
X163869819Y-73884398D01*
X163869819Y-73884398D02*
X163869819Y-73979636D01*
X163203152Y-74312970D02*
X163869819Y-74312970D01*
X163298390Y-74312970D02*
X163250771Y-74360589D01*
X163250771Y-74360589D02*
X163203152Y-74455827D01*
X163203152Y-74455827D02*
X163203152Y-74598684D01*
X163203152Y-74598684D02*
X163250771Y-74693922D01*
X163250771Y-74693922D02*
X163346009Y-74741541D01*
X163346009Y-74741541D02*
X163869819Y-74741541D01*
X163774580Y-75217732D02*
X163822200Y-75265351D01*
X163822200Y-75265351D02*
X163869819Y-75217732D01*
X163869819Y-75217732D02*
X163822200Y-75170113D01*
X163822200Y-75170113D02*
X163774580Y-75217732D01*
X163774580Y-75217732D02*
X163869819Y-75217732D01*
D11*
X177599171Y-108459774D02*
X176099171Y-107959774D01*
X176099171Y-107959774D02*
X177599171Y-107459774D01*
X176884885Y-106959775D02*
X176884885Y-106459775D01*
X176099171Y-106245489D02*
X176099171Y-106959775D01*
X176099171Y-106959775D02*
X177599171Y-106959775D01*
X177599171Y-106959775D02*
X177599171Y-106245489D01*
X176099171Y-104745489D02*
X176813457Y-105245489D01*
X176099171Y-105602632D02*
X177599171Y-105602632D01*
X177599171Y-105602632D02*
X177599171Y-105031203D01*
X177599171Y-105031203D02*
X177527742Y-104888346D01*
X177527742Y-104888346D02*
X177456314Y-104816917D01*
X177456314Y-104816917D02*
X177313457Y-104745489D01*
X177313457Y-104745489D02*
X177099171Y-104745489D01*
X177099171Y-104745489D02*
X176956314Y-104816917D01*
X176956314Y-104816917D02*
X176884885Y-104888346D01*
X176884885Y-104888346D02*
X176813457Y-105031203D01*
X176813457Y-105031203D02*
X176813457Y-105602632D01*
X176170600Y-104174060D02*
X176099171Y-103959775D01*
X176099171Y-103959775D02*
X176099171Y-103602632D01*
X176099171Y-103602632D02*
X176170600Y-103459775D01*
X176170600Y-103459775D02*
X176242028Y-103388346D01*
X176242028Y-103388346D02*
X176384885Y-103316917D01*
X176384885Y-103316917D02*
X176527742Y-103316917D01*
X176527742Y-103316917D02*
X176670600Y-103388346D01*
X176670600Y-103388346D02*
X176742028Y-103459775D01*
X176742028Y-103459775D02*
X176813457Y-103602632D01*
X176813457Y-103602632D02*
X176884885Y-103888346D01*
X176884885Y-103888346D02*
X176956314Y-104031203D01*
X176956314Y-104031203D02*
X177027742Y-104102632D01*
X177027742Y-104102632D02*
X177170600Y-104174060D01*
X177170600Y-104174060D02*
X177313457Y-104174060D01*
X177313457Y-104174060D02*
X177456314Y-104102632D01*
X177456314Y-104102632D02*
X177527742Y-104031203D01*
X177527742Y-104031203D02*
X177599171Y-103888346D01*
X177599171Y-103888346D02*
X177599171Y-103531203D01*
X177599171Y-103531203D02*
X177527742Y-103316917D01*
X176099171Y-102674061D02*
X177599171Y-102674061D01*
X177599171Y-101674060D02*
X177599171Y-101388346D01*
X177599171Y-101388346D02*
X177527742Y-101245489D01*
X177527742Y-101245489D02*
X177384885Y-101102632D01*
X177384885Y-101102632D02*
X177099171Y-101031203D01*
X177099171Y-101031203D02*
X176599171Y-101031203D01*
X176599171Y-101031203D02*
X176313457Y-101102632D01*
X176313457Y-101102632D02*
X176170600Y-101245489D01*
X176170600Y-101245489D02*
X176099171Y-101388346D01*
X176099171Y-101388346D02*
X176099171Y-101674060D01*
X176099171Y-101674060D02*
X176170600Y-101816918D01*
X176170600Y-101816918D02*
X176313457Y-101959775D01*
X176313457Y-101959775D02*
X176599171Y-102031203D01*
X176599171Y-102031203D02*
X177099171Y-102031203D01*
X177099171Y-102031203D02*
X177384885Y-101959775D01*
X177384885Y-101959775D02*
X177527742Y-101816918D01*
X177527742Y-101816918D02*
X177599171Y-101674060D01*
X176099171Y-100388346D02*
X177599171Y-100388346D01*
X177599171Y-100388346D02*
X176099171Y-99531203D01*
X176099171Y-99531203D02*
X177599171Y-99531203D01*
X176242028Y-98816917D02*
X176170600Y-98745488D01*
X176170600Y-98745488D02*
X176099171Y-98816917D01*
X176099171Y-98816917D02*
X176170600Y-98888345D01*
X176170600Y-98888345D02*
X176242028Y-98816917D01*
X176242028Y-98816917D02*
X176099171Y-98816917D01*
X177027742Y-98816917D02*
X176956314Y-98745488D01*
X176956314Y-98745488D02*
X176884885Y-98816917D01*
X176884885Y-98816917D02*
X176956314Y-98888345D01*
X176956314Y-98888345D02*
X177027742Y-98816917D01*
X177027742Y-98816917D02*
X176884885Y-98816917D01*
X177599171Y-97174059D02*
X176099171Y-96674059D01*
X176099171Y-96674059D02*
X177599171Y-96174059D01*
X176099171Y-94888345D02*
X176099171Y-95745488D01*
X176099171Y-95316917D02*
X177599171Y-95316917D01*
X177599171Y-95316917D02*
X177384885Y-95459774D01*
X177384885Y-95459774D02*
X177242028Y-95602631D01*
X177242028Y-95602631D02*
X177170600Y-95745488D01*
X152073558Y-108577733D02*
X153597368Y-108577733D01*
D12*
X154661904Y-75302438D02*
X154757142Y-75254819D01*
X154757142Y-75254819D02*
X154899999Y-75254819D01*
X154899999Y-75254819D02*
X155042856Y-75302438D01*
X155042856Y-75302438D02*
X155138094Y-75397676D01*
X155138094Y-75397676D02*
X155185713Y-75492914D01*
X155185713Y-75492914D02*
X155233332Y-75683390D01*
X155233332Y-75683390D02*
X155233332Y-75826247D01*
X155233332Y-75826247D02*
X155185713Y-76016723D01*
X155185713Y-76016723D02*
X155138094Y-76111961D01*
X155138094Y-76111961D02*
X155042856Y-76207200D01*
X155042856Y-76207200D02*
X154899999Y-76254819D01*
X154899999Y-76254819D02*
X154804761Y-76254819D01*
X154804761Y-76254819D02*
X154661904Y-76207200D01*
X154661904Y-76207200D02*
X154614285Y-76159580D01*
X154614285Y-76159580D02*
X154614285Y-75826247D01*
X154614285Y-75826247D02*
X154804761Y-75826247D01*
X154185713Y-76254819D02*
X154185713Y-75254819D01*
X154185713Y-75254819D02*
X153614285Y-76254819D01*
X153614285Y-76254819D02*
X153614285Y-75254819D01*
X153138094Y-76254819D02*
X153138094Y-75254819D01*
X153138094Y-75254819D02*
X152899999Y-75254819D01*
X152899999Y-75254819D02*
X152757142Y-75302438D01*
X152757142Y-75302438D02*
X152661904Y-75397676D01*
X152661904Y-75397676D02*
X152614285Y-75492914D01*
X152614285Y-75492914D02*
X152566666Y-75683390D01*
X152566666Y-75683390D02*
X152566666Y-75826247D01*
X152566666Y-75826247D02*
X152614285Y-76016723D01*
X152614285Y-76016723D02*
X152661904Y-76111961D01*
X152661904Y-76111961D02*
X152757142Y-76207200D01*
X152757142Y-76207200D02*
X152899999Y-76254819D01*
X152899999Y-76254819D02*
X153138094Y-76254819D01*
X170142857Y-81559580D02*
X170190476Y-81607200D01*
X170190476Y-81607200D02*
X170333333Y-81654819D01*
X170333333Y-81654819D02*
X170428571Y-81654819D01*
X170428571Y-81654819D02*
X170571428Y-81607200D01*
X170571428Y-81607200D02*
X170666666Y-81511961D01*
X170666666Y-81511961D02*
X170714285Y-81416723D01*
X170714285Y-81416723D02*
X170761904Y-81226247D01*
X170761904Y-81226247D02*
X170761904Y-81083390D01*
X170761904Y-81083390D02*
X170714285Y-80892914D01*
X170714285Y-80892914D02*
X170666666Y-80797676D01*
X170666666Y-80797676D02*
X170571428Y-80702438D01*
X170571428Y-80702438D02*
X170428571Y-80654819D01*
X170428571Y-80654819D02*
X170333333Y-80654819D01*
X170333333Y-80654819D02*
X170190476Y-80702438D01*
X170190476Y-80702438D02*
X170142857Y-80750057D01*
X169190476Y-81654819D02*
X169761904Y-81654819D01*
X169476190Y-81654819D02*
X169476190Y-80654819D01*
X169476190Y-80654819D02*
X169571428Y-80797676D01*
X169571428Y-80797676D02*
X169666666Y-80892914D01*
X169666666Y-80892914D02*
X169761904Y-80940533D01*
X168857142Y-80654819D02*
X168190476Y-80654819D01*
X168190476Y-80654819D02*
X168619047Y-81654819D01*
X146324819Y-70261905D02*
X145324819Y-70261905D01*
X145324819Y-70261905D02*
X145324819Y-70500000D01*
X145324819Y-70500000D02*
X145372438Y-70642857D01*
X145372438Y-70642857D02*
X145467676Y-70738095D01*
X145467676Y-70738095D02*
X145562914Y-70785714D01*
X145562914Y-70785714D02*
X145753390Y-70833333D01*
X145753390Y-70833333D02*
X145896247Y-70833333D01*
X145896247Y-70833333D02*
X146086723Y-70785714D01*
X146086723Y-70785714D02*
X146181961Y-70738095D01*
X146181961Y-70738095D02*
X146277200Y-70642857D01*
X146277200Y-70642857D02*
X146324819Y-70500000D01*
X146324819Y-70500000D02*
X146324819Y-70261905D01*
X145658152Y-71690476D02*
X146324819Y-71690476D01*
X145277200Y-71452381D02*
X145991485Y-71214286D01*
X145991485Y-71214286D02*
X145991485Y-71833333D01*
X138738094Y-99454819D02*
X138738094Y-98454819D01*
X138738094Y-98454819D02*
X138499999Y-98454819D01*
X138499999Y-98454819D02*
X138357142Y-98502438D01*
X138357142Y-98502438D02*
X138261904Y-98597676D01*
X138261904Y-98597676D02*
X138214285Y-98692914D01*
X138214285Y-98692914D02*
X138166666Y-98883390D01*
X138166666Y-98883390D02*
X138166666Y-99026247D01*
X138166666Y-99026247D02*
X138214285Y-99216723D01*
X138214285Y-99216723D02*
X138261904Y-99311961D01*
X138261904Y-99311961D02*
X138357142Y-99407200D01*
X138357142Y-99407200D02*
X138499999Y-99454819D01*
X138499999Y-99454819D02*
X138738094Y-99454819D01*
X137690475Y-99454819D02*
X137499999Y-99454819D01*
X137499999Y-99454819D02*
X137404761Y-99407200D01*
X137404761Y-99407200D02*
X137357142Y-99359580D01*
X137357142Y-99359580D02*
X137261904Y-99216723D01*
X137261904Y-99216723D02*
X137214285Y-99026247D01*
X137214285Y-99026247D02*
X137214285Y-98645295D01*
X137214285Y-98645295D02*
X137261904Y-98550057D01*
X137261904Y-98550057D02*
X137309523Y-98502438D01*
X137309523Y-98502438D02*
X137404761Y-98454819D01*
X137404761Y-98454819D02*
X137595237Y-98454819D01*
X137595237Y-98454819D02*
X137690475Y-98502438D01*
X137690475Y-98502438D02*
X137738094Y-98550057D01*
X137738094Y-98550057D02*
X137785713Y-98645295D01*
X137785713Y-98645295D02*
X137785713Y-98883390D01*
X137785713Y-98883390D02*
X137738094Y-98978628D01*
X137738094Y-98978628D02*
X137690475Y-99026247D01*
X137690475Y-99026247D02*
X137595237Y-99073866D01*
X137595237Y-99073866D02*
X137404761Y-99073866D01*
X137404761Y-99073866D02*
X137309523Y-99026247D01*
X137309523Y-99026247D02*
X137261904Y-98978628D01*
X137261904Y-98978628D02*
X137214285Y-98883390D01*
X164758801Y-83534112D02*
X164758801Y-82534112D01*
X164092135Y-82534112D02*
X163901659Y-82534112D01*
X163901659Y-82534112D02*
X163806421Y-82581731D01*
X163806421Y-82581731D02*
X163711183Y-82676969D01*
X163711183Y-82676969D02*
X163663564Y-82867445D01*
X163663564Y-82867445D02*
X163663564Y-83200778D01*
X163663564Y-83200778D02*
X163711183Y-83391254D01*
X163711183Y-83391254D02*
X163806421Y-83486493D01*
X163806421Y-83486493D02*
X163901659Y-83534112D01*
X163901659Y-83534112D02*
X164092135Y-83534112D01*
X164092135Y-83534112D02*
X164187373Y-83486493D01*
X164187373Y-83486493D02*
X164282611Y-83391254D01*
X164282611Y-83391254D02*
X164330230Y-83200778D01*
X164330230Y-83200778D02*
X164330230Y-82867445D01*
X164330230Y-82867445D02*
X164282611Y-82676969D01*
X164282611Y-82676969D02*
X164187373Y-82581731D01*
X164187373Y-82581731D02*
X164092135Y-82534112D01*
X163044516Y-82534112D02*
X162949278Y-82534112D01*
X162949278Y-82534112D02*
X162854040Y-82581731D01*
X162854040Y-82581731D02*
X162806421Y-82629350D01*
X162806421Y-82629350D02*
X162758802Y-82724588D01*
X162758802Y-82724588D02*
X162711183Y-82915064D01*
X162711183Y-82915064D02*
X162711183Y-83153159D01*
X162711183Y-83153159D02*
X162758802Y-83343635D01*
X162758802Y-83343635D02*
X162806421Y-83438873D01*
X162806421Y-83438873D02*
X162854040Y-83486493D01*
X162854040Y-83486493D02*
X162949278Y-83534112D01*
X162949278Y-83534112D02*
X163044516Y-83534112D01*
X163044516Y-83534112D02*
X163139754Y-83486493D01*
X163139754Y-83486493D02*
X163187373Y-83438873D01*
X163187373Y-83438873D02*
X163234992Y-83343635D01*
X163234992Y-83343635D02*
X163282611Y-83153159D01*
X163282611Y-83153159D02*
X163282611Y-82915064D01*
X163282611Y-82915064D02*
X163234992Y-82724588D01*
X163234992Y-82724588D02*
X163187373Y-82629350D01*
X163187373Y-82629350D02*
X163139754Y-82581731D01*
X163139754Y-82581731D02*
X163044516Y-82534112D01*
X162377849Y-82534112D02*
X161758802Y-82534112D01*
X161758802Y-82534112D02*
X162092135Y-82915064D01*
X162092135Y-82915064D02*
X161949278Y-82915064D01*
X161949278Y-82915064D02*
X161854040Y-82962683D01*
X161854040Y-82962683D02*
X161806421Y-83010302D01*
X161806421Y-83010302D02*
X161758802Y-83105540D01*
X161758802Y-83105540D02*
X161758802Y-83343635D01*
X161758802Y-83343635D02*
X161806421Y-83438873D01*
X161806421Y-83438873D02*
X161854040Y-83486493D01*
X161854040Y-83486493D02*
X161949278Y-83534112D01*
X161949278Y-83534112D02*
X162234992Y-83534112D01*
X162234992Y-83534112D02*
X162330230Y-83486493D01*
X162330230Y-83486493D02*
X162377849Y-83438873D01*
X161330230Y-83153159D02*
X160568326Y-83153159D01*
X159520707Y-83438873D02*
X159568326Y-83486493D01*
X159568326Y-83486493D02*
X159711183Y-83534112D01*
X159711183Y-83534112D02*
X159806421Y-83534112D01*
X159806421Y-83534112D02*
X159949278Y-83486493D01*
X159949278Y-83486493D02*
X160044516Y-83391254D01*
X160044516Y-83391254D02*
X160092135Y-83296016D01*
X160092135Y-83296016D02*
X160139754Y-83105540D01*
X160139754Y-83105540D02*
X160139754Y-82962683D01*
X160139754Y-82962683D02*
X160092135Y-82772207D01*
X160092135Y-82772207D02*
X160044516Y-82676969D01*
X160044516Y-82676969D02*
X159949278Y-82581731D01*
X159949278Y-82581731D02*
X159806421Y-82534112D01*
X159806421Y-82534112D02*
X159711183Y-82534112D01*
X159711183Y-82534112D02*
X159568326Y-82581731D01*
X159568326Y-82581731D02*
X159520707Y-82629350D01*
X158615945Y-83534112D02*
X159092135Y-83534112D01*
X159092135Y-83534112D02*
X159092135Y-82534112D01*
X158282611Y-83534112D02*
X158282611Y-82534112D01*
X157711183Y-83534112D02*
X158139754Y-82962683D01*
X157711183Y-82534112D02*
X158282611Y-83105540D01*
X157282611Y-83153159D02*
X156520707Y-83153159D01*
X156139754Y-82534112D02*
X155520707Y-82534112D01*
X155520707Y-82534112D02*
X155854040Y-82915064D01*
X155854040Y-82915064D02*
X155711183Y-82915064D01*
X155711183Y-82915064D02*
X155615945Y-82962683D01*
X155615945Y-82962683D02*
X155568326Y-83010302D01*
X155568326Y-83010302D02*
X155520707Y-83105540D01*
X155520707Y-83105540D02*
X155520707Y-83343635D01*
X155520707Y-83343635D02*
X155568326Y-83438873D01*
X155568326Y-83438873D02*
X155615945Y-83486493D01*
X155615945Y-83486493D02*
X155711183Y-83534112D01*
X155711183Y-83534112D02*
X155996897Y-83534112D01*
X155996897Y-83534112D02*
X156092135Y-83486493D01*
X156092135Y-83486493D02*
X156139754Y-83438873D01*
X155092135Y-83438873D02*
X155044516Y-83486493D01*
X155044516Y-83486493D02*
X155092135Y-83534112D01*
X155092135Y-83534112D02*
X155139754Y-83486493D01*
X155139754Y-83486493D02*
X155092135Y-83438873D01*
X155092135Y-83438873D02*
X155092135Y-83534112D01*
X154711183Y-82534112D02*
X154092136Y-82534112D01*
X154092136Y-82534112D02*
X154425469Y-82915064D01*
X154425469Y-82915064D02*
X154282612Y-82915064D01*
X154282612Y-82915064D02*
X154187374Y-82962683D01*
X154187374Y-82962683D02*
X154139755Y-83010302D01*
X154139755Y-83010302D02*
X154092136Y-83105540D01*
X154092136Y-83105540D02*
X154092136Y-83343635D01*
X154092136Y-83343635D02*
X154139755Y-83438873D01*
X154139755Y-83438873D02*
X154187374Y-83486493D01*
X154187374Y-83486493D02*
X154282612Y-83534112D01*
X154282612Y-83534112D02*
X154568326Y-83534112D01*
X154568326Y-83534112D02*
X154663564Y-83486493D01*
X154663564Y-83486493D02*
X154711183Y-83438873D01*
X153806421Y-82534112D02*
X153473088Y-83534112D01*
X153473088Y-83534112D02*
X153139755Y-82534112D01*
X177054819Y-67966666D02*
X176054819Y-67966666D01*
X176054819Y-68633332D02*
X176054819Y-68823808D01*
X176054819Y-68823808D02*
X176102438Y-68919046D01*
X176102438Y-68919046D02*
X176197676Y-69014284D01*
X176197676Y-69014284D02*
X176388152Y-69061903D01*
X176388152Y-69061903D02*
X176721485Y-69061903D01*
X176721485Y-69061903D02*
X176911961Y-69014284D01*
X176911961Y-69014284D02*
X177007200Y-68919046D01*
X177007200Y-68919046D02*
X177054819Y-68823808D01*
X177054819Y-68823808D02*
X177054819Y-68633332D01*
X177054819Y-68633332D02*
X177007200Y-68538094D01*
X177007200Y-68538094D02*
X176911961Y-68442856D01*
X176911961Y-68442856D02*
X176721485Y-68395237D01*
X176721485Y-68395237D02*
X176388152Y-68395237D01*
X176388152Y-68395237D02*
X176197676Y-68442856D01*
X176197676Y-68442856D02*
X176102438Y-68538094D01*
X176102438Y-68538094D02*
X176054819Y-68633332D01*
X176054819Y-69680951D02*
X176054819Y-69776189D01*
X176054819Y-69776189D02*
X176102438Y-69871427D01*
X176102438Y-69871427D02*
X176150057Y-69919046D01*
X176150057Y-69919046D02*
X176245295Y-69966665D01*
X176245295Y-69966665D02*
X176435771Y-70014284D01*
X176435771Y-70014284D02*
X176673866Y-70014284D01*
X176673866Y-70014284D02*
X176864342Y-69966665D01*
X176864342Y-69966665D02*
X176959580Y-69919046D01*
X176959580Y-69919046D02*
X177007200Y-69871427D01*
X177007200Y-69871427D02*
X177054819Y-69776189D01*
X177054819Y-69776189D02*
X177054819Y-69680951D01*
X177054819Y-69680951D02*
X177007200Y-69585713D01*
X177007200Y-69585713D02*
X176959580Y-69538094D01*
X176959580Y-69538094D02*
X176864342Y-69490475D01*
X176864342Y-69490475D02*
X176673866Y-69442856D01*
X176673866Y-69442856D02*
X176435771Y-69442856D01*
X176435771Y-69442856D02*
X176245295Y-69490475D01*
X176245295Y-69490475D02*
X176150057Y-69538094D01*
X176150057Y-69538094D02*
X176102438Y-69585713D01*
X176102438Y-69585713D02*
X176054819Y-69680951D01*
X177054819Y-70966665D02*
X177054819Y-70395237D01*
X177054819Y-70680951D02*
X176054819Y-70680951D01*
X176054819Y-70680951D02*
X176197676Y-70585713D01*
X176197676Y-70585713D02*
X176292914Y-70490475D01*
X176292914Y-70490475D02*
X176340533Y-70395237D01*
X176673866Y-71395237D02*
X176673866Y-72157142D01*
X176959580Y-73204760D02*
X177007200Y-73157141D01*
X177007200Y-73157141D02*
X177054819Y-73014284D01*
X177054819Y-73014284D02*
X177054819Y-72919046D01*
X177054819Y-72919046D02*
X177007200Y-72776189D01*
X177007200Y-72776189D02*
X176911961Y-72680951D01*
X176911961Y-72680951D02*
X176816723Y-72633332D01*
X176816723Y-72633332D02*
X176626247Y-72585713D01*
X176626247Y-72585713D02*
X176483390Y-72585713D01*
X176483390Y-72585713D02*
X176292914Y-72633332D01*
X176292914Y-72633332D02*
X176197676Y-72680951D01*
X176197676Y-72680951D02*
X176102438Y-72776189D01*
X176102438Y-72776189D02*
X176054819Y-72919046D01*
X176054819Y-72919046D02*
X176054819Y-73014284D01*
X176054819Y-73014284D02*
X176102438Y-73157141D01*
X176102438Y-73157141D02*
X176150057Y-73204760D01*
X176388152Y-74061903D02*
X177054819Y-74061903D01*
X176388152Y-73633332D02*
X176911961Y-73633332D01*
X176911961Y-73633332D02*
X177007200Y-73680951D01*
X177007200Y-73680951D02*
X177054819Y-73776189D01*
X177054819Y-73776189D02*
X177054819Y-73919046D01*
X177054819Y-73919046D02*
X177007200Y-74014284D01*
X177007200Y-74014284D02*
X176959580Y-74061903D01*
X177054819Y-74538094D02*
X176388152Y-74538094D01*
X176578628Y-74538094D02*
X176483390Y-74585713D01*
X176483390Y-74585713D02*
X176435771Y-74633332D01*
X176435771Y-74633332D02*
X176388152Y-74728570D01*
X176388152Y-74728570D02*
X176388152Y-74823808D01*
X177054819Y-75157142D02*
X176388152Y-75157142D01*
X176578628Y-75157142D02*
X176483390Y-75204761D01*
X176483390Y-75204761D02*
X176435771Y-75252380D01*
X176435771Y-75252380D02*
X176388152Y-75347618D01*
X176388152Y-75347618D02*
X176388152Y-75442856D01*
X177007200Y-76157142D02*
X177054819Y-76061904D01*
X177054819Y-76061904D02*
X177054819Y-75871428D01*
X177054819Y-75871428D02*
X177007200Y-75776190D01*
X177007200Y-75776190D02*
X176911961Y-75728571D01*
X176911961Y-75728571D02*
X176531009Y-75728571D01*
X176531009Y-75728571D02*
X176435771Y-75776190D01*
X176435771Y-75776190D02*
X176388152Y-75871428D01*
X176388152Y-75871428D02*
X176388152Y-76061904D01*
X176388152Y-76061904D02*
X176435771Y-76157142D01*
X176435771Y-76157142D02*
X176531009Y-76204761D01*
X176531009Y-76204761D02*
X176626247Y-76204761D01*
X176626247Y-76204761D02*
X176721485Y-75728571D01*
X176388152Y-76633333D02*
X177054819Y-76633333D01*
X176483390Y-76633333D02*
X176435771Y-76680952D01*
X176435771Y-76680952D02*
X176388152Y-76776190D01*
X176388152Y-76776190D02*
X176388152Y-76919047D01*
X176388152Y-76919047D02*
X176435771Y-77014285D01*
X176435771Y-77014285D02*
X176531009Y-77061904D01*
X176531009Y-77061904D02*
X177054819Y-77061904D01*
X176388152Y-77395238D02*
X176388152Y-77776190D01*
X176054819Y-77538095D02*
X176911961Y-77538095D01*
X176911961Y-77538095D02*
X177007200Y-77585714D01*
X177007200Y-77585714D02*
X177054819Y-77680952D01*
X177054819Y-77680952D02*
X177054819Y-77776190D01*
X146338094Y-66454819D02*
X146338094Y-65454819D01*
X146338094Y-65454819D02*
X146099999Y-65454819D01*
X146099999Y-65454819D02*
X145957142Y-65502438D01*
X145957142Y-65502438D02*
X145861904Y-65597676D01*
X145861904Y-65597676D02*
X145814285Y-65692914D01*
X145814285Y-65692914D02*
X145766666Y-65883390D01*
X145766666Y-65883390D02*
X145766666Y-66026247D01*
X145766666Y-66026247D02*
X145814285Y-66216723D01*
X145814285Y-66216723D02*
X145861904Y-66311961D01*
X145861904Y-66311961D02*
X145957142Y-66407200D01*
X145957142Y-66407200D02*
X146099999Y-66454819D01*
X146099999Y-66454819D02*
X146338094Y-66454819D01*
X145433332Y-65454819D02*
X144766666Y-65454819D01*
X144766666Y-65454819D02*
X145195237Y-66454819D01*
X177604819Y-86957142D02*
X177128628Y-86623809D01*
X177604819Y-86385714D02*
X176604819Y-86385714D01*
X176604819Y-86385714D02*
X176604819Y-86766666D01*
X176604819Y-86766666D02*
X176652438Y-86861904D01*
X176652438Y-86861904D02*
X176700057Y-86909523D01*
X176700057Y-86909523D02*
X176795295Y-86957142D01*
X176795295Y-86957142D02*
X176938152Y-86957142D01*
X176938152Y-86957142D02*
X177033390Y-86909523D01*
X177033390Y-86909523D02*
X177081009Y-86861904D01*
X177081009Y-86861904D02*
X177128628Y-86766666D01*
X177128628Y-86766666D02*
X177128628Y-86385714D01*
X177604819Y-87909523D02*
X177604819Y-87338095D01*
X177604819Y-87623809D02*
X176604819Y-87623809D01*
X176604819Y-87623809D02*
X176747676Y-87528571D01*
X176747676Y-87528571D02*
X176842914Y-87433333D01*
X176842914Y-87433333D02*
X176890533Y-87338095D01*
X176700057Y-88290476D02*
X176652438Y-88338095D01*
X176652438Y-88338095D02*
X176604819Y-88433333D01*
X176604819Y-88433333D02*
X176604819Y-88671428D01*
X176604819Y-88671428D02*
X176652438Y-88766666D01*
X176652438Y-88766666D02*
X176700057Y-88814285D01*
X176700057Y-88814285D02*
X176795295Y-88861904D01*
X176795295Y-88861904D02*
X176890533Y-88861904D01*
X176890533Y-88861904D02*
X177033390Y-88814285D01*
X177033390Y-88814285D02*
X177604819Y-88242857D01*
X177604819Y-88242857D02*
X177604819Y-88861904D01*
X174254819Y-74857142D02*
X173778628Y-74523809D01*
X174254819Y-74285714D02*
X173254819Y-74285714D01*
X173254819Y-74285714D02*
X173254819Y-74666666D01*
X173254819Y-74666666D02*
X173302438Y-74761904D01*
X173302438Y-74761904D02*
X173350057Y-74809523D01*
X173350057Y-74809523D02*
X173445295Y-74857142D01*
X173445295Y-74857142D02*
X173588152Y-74857142D01*
X173588152Y-74857142D02*
X173683390Y-74809523D01*
X173683390Y-74809523D02*
X173731009Y-74761904D01*
X173731009Y-74761904D02*
X173778628Y-74666666D01*
X173778628Y-74666666D02*
X173778628Y-74285714D01*
X174254819Y-75809523D02*
X174254819Y-75238095D01*
X174254819Y-75523809D02*
X173254819Y-75523809D01*
X173254819Y-75523809D02*
X173397676Y-75428571D01*
X173397676Y-75428571D02*
X173492914Y-75333333D01*
X173492914Y-75333333D02*
X173540533Y-75238095D01*
X173254819Y-76714285D02*
X173254819Y-76238095D01*
X173254819Y-76238095D02*
X173731009Y-76190476D01*
X173731009Y-76190476D02*
X173683390Y-76238095D01*
X173683390Y-76238095D02*
X173635771Y-76333333D01*
X173635771Y-76333333D02*
X173635771Y-76571428D01*
X173635771Y-76571428D02*
X173683390Y-76666666D01*
X173683390Y-76666666D02*
X173731009Y-76714285D01*
X173731009Y-76714285D02*
X173826247Y-76761904D01*
X173826247Y-76761904D02*
X174064342Y-76761904D01*
X174064342Y-76761904D02*
X174159580Y-76714285D01*
X174159580Y-76714285D02*
X174207200Y-76666666D01*
X174207200Y-76666666D02*
X174254819Y-76571428D01*
X174254819Y-76571428D02*
X174254819Y-76333333D01*
X174254819Y-76333333D02*
X174207200Y-76238095D01*
X174207200Y-76238095D02*
X174159580Y-76190476D01*
X165138094Y-66954819D02*
X165138094Y-65954819D01*
X165138094Y-65954819D02*
X164899999Y-65954819D01*
X164899999Y-65954819D02*
X164757142Y-66002438D01*
X164757142Y-66002438D02*
X164661904Y-66097676D01*
X164661904Y-66097676D02*
X164614285Y-66192914D01*
X164614285Y-66192914D02*
X164566666Y-66383390D01*
X164566666Y-66383390D02*
X164566666Y-66526247D01*
X164566666Y-66526247D02*
X164614285Y-66716723D01*
X164614285Y-66716723D02*
X164661904Y-66811961D01*
X164661904Y-66811961D02*
X164757142Y-66907200D01*
X164757142Y-66907200D02*
X164899999Y-66954819D01*
X164899999Y-66954819D02*
X165138094Y-66954819D01*
X163709523Y-65954819D02*
X163899999Y-65954819D01*
X163899999Y-65954819D02*
X163995237Y-66002438D01*
X163995237Y-66002438D02*
X164042856Y-66050057D01*
X164042856Y-66050057D02*
X164138094Y-66192914D01*
X164138094Y-66192914D02*
X164185713Y-66383390D01*
X164185713Y-66383390D02*
X164185713Y-66764342D01*
X164185713Y-66764342D02*
X164138094Y-66859580D01*
X164138094Y-66859580D02*
X164090475Y-66907200D01*
X164090475Y-66907200D02*
X163995237Y-66954819D01*
X163995237Y-66954819D02*
X163804761Y-66954819D01*
X163804761Y-66954819D02*
X163709523Y-66907200D01*
X163709523Y-66907200D02*
X163661904Y-66859580D01*
X163661904Y-66859580D02*
X163614285Y-66764342D01*
X163614285Y-66764342D02*
X163614285Y-66526247D01*
X163614285Y-66526247D02*
X163661904Y-66431009D01*
X163661904Y-66431009D02*
X163709523Y-66383390D01*
X163709523Y-66383390D02*
X163804761Y-66335771D01*
X163804761Y-66335771D02*
X163995237Y-66335771D01*
X163995237Y-66335771D02*
X164090475Y-66383390D01*
X164090475Y-66383390D02*
X164138094Y-66431009D01*
X164138094Y-66431009D02*
X164185713Y-66526247D01*
X146584819Y-92701905D02*
X145584819Y-92701905D01*
X145584819Y-92701905D02*
X145584819Y-92940000D01*
X145584819Y-92940000D02*
X145632438Y-93082857D01*
X145632438Y-93082857D02*
X145727676Y-93178095D01*
X145727676Y-93178095D02*
X145822914Y-93225714D01*
X145822914Y-93225714D02*
X146013390Y-93273333D01*
X146013390Y-93273333D02*
X146156247Y-93273333D01*
X146156247Y-93273333D02*
X146346723Y-93225714D01*
X146346723Y-93225714D02*
X146441961Y-93178095D01*
X146441961Y-93178095D02*
X146537200Y-93082857D01*
X146537200Y-93082857D02*
X146584819Y-92940000D01*
X146584819Y-92940000D02*
X146584819Y-92701905D01*
X145584819Y-93606667D02*
X145584819Y-94225714D01*
X145584819Y-94225714D02*
X145965771Y-93892381D01*
X145965771Y-93892381D02*
X145965771Y-94035238D01*
X145965771Y-94035238D02*
X146013390Y-94130476D01*
X146013390Y-94130476D02*
X146061009Y-94178095D01*
X146061009Y-94178095D02*
X146156247Y-94225714D01*
X146156247Y-94225714D02*
X146394342Y-94225714D01*
X146394342Y-94225714D02*
X146489580Y-94178095D01*
X146489580Y-94178095D02*
X146537200Y-94130476D01*
X146537200Y-94130476D02*
X146584819Y-94035238D01*
X146584819Y-94035238D02*
X146584819Y-93749524D01*
X146584819Y-93749524D02*
X146537200Y-93654286D01*
X146537200Y-93654286D02*
X146489580Y-93606667D01*
X140066666Y-46159580D02*
X140114285Y-46207200D01*
X140114285Y-46207200D02*
X140257142Y-46254819D01*
X140257142Y-46254819D02*
X140352380Y-46254819D01*
X140352380Y-46254819D02*
X140495237Y-46207200D01*
X140495237Y-46207200D02*
X140590475Y-46111961D01*
X140590475Y-46111961D02*
X140638094Y-46016723D01*
X140638094Y-46016723D02*
X140685713Y-45826247D01*
X140685713Y-45826247D02*
X140685713Y-45683390D01*
X140685713Y-45683390D02*
X140638094Y-45492914D01*
X140638094Y-45492914D02*
X140590475Y-45397676D01*
X140590475Y-45397676D02*
X140495237Y-45302438D01*
X140495237Y-45302438D02*
X140352380Y-45254819D01*
X140352380Y-45254819D02*
X140257142Y-45254819D01*
X140257142Y-45254819D02*
X140114285Y-45302438D01*
X140114285Y-45302438D02*
X140066666Y-45350057D01*
X139114285Y-46254819D02*
X139685713Y-46254819D01*
X139399999Y-46254819D02*
X139399999Y-45254819D01*
X139399999Y-45254819D02*
X139495237Y-45397676D01*
X139495237Y-45397676D02*
X139590475Y-45492914D01*
X139590475Y-45492914D02*
X139685713Y-45540533D01*
X170104819Y-52733333D02*
X169628628Y-52400000D01*
X170104819Y-52161905D02*
X169104819Y-52161905D01*
X169104819Y-52161905D02*
X169104819Y-52542857D01*
X169104819Y-52542857D02*
X169152438Y-52638095D01*
X169152438Y-52638095D02*
X169200057Y-52685714D01*
X169200057Y-52685714D02*
X169295295Y-52733333D01*
X169295295Y-52733333D02*
X169438152Y-52733333D01*
X169438152Y-52733333D02*
X169533390Y-52685714D01*
X169533390Y-52685714D02*
X169581009Y-52638095D01*
X169581009Y-52638095D02*
X169628628Y-52542857D01*
X169628628Y-52542857D02*
X169628628Y-52161905D01*
X169533390Y-53304762D02*
X169485771Y-53209524D01*
X169485771Y-53209524D02*
X169438152Y-53161905D01*
X169438152Y-53161905D02*
X169342914Y-53114286D01*
X169342914Y-53114286D02*
X169295295Y-53114286D01*
X169295295Y-53114286D02*
X169200057Y-53161905D01*
X169200057Y-53161905D02*
X169152438Y-53209524D01*
X169152438Y-53209524D02*
X169104819Y-53304762D01*
X169104819Y-53304762D02*
X169104819Y-53495238D01*
X169104819Y-53495238D02*
X169152438Y-53590476D01*
X169152438Y-53590476D02*
X169200057Y-53638095D01*
X169200057Y-53638095D02*
X169295295Y-53685714D01*
X169295295Y-53685714D02*
X169342914Y-53685714D01*
X169342914Y-53685714D02*
X169438152Y-53638095D01*
X169438152Y-53638095D02*
X169485771Y-53590476D01*
X169485771Y-53590476D02*
X169533390Y-53495238D01*
X169533390Y-53495238D02*
X169533390Y-53304762D01*
X169533390Y-53304762D02*
X169581009Y-53209524D01*
X169581009Y-53209524D02*
X169628628Y-53161905D01*
X169628628Y-53161905D02*
X169723866Y-53114286D01*
X169723866Y-53114286D02*
X169914342Y-53114286D01*
X169914342Y-53114286D02*
X170009580Y-53161905D01*
X170009580Y-53161905D02*
X170057200Y-53209524D01*
X170057200Y-53209524D02*
X170104819Y-53304762D01*
X170104819Y-53304762D02*
X170104819Y-53495238D01*
X170104819Y-53495238D02*
X170057200Y-53590476D01*
X170057200Y-53590476D02*
X170009580Y-53638095D01*
X170009580Y-53638095D02*
X169914342Y-53685714D01*
X169914342Y-53685714D02*
X169723866Y-53685714D01*
X169723866Y-53685714D02*
X169628628Y-53638095D01*
X169628628Y-53638095D02*
X169581009Y-53590476D01*
X169581009Y-53590476D02*
X169533390Y-53495238D01*
X157709523Y-89254819D02*
X157376190Y-90254819D01*
X157376190Y-90254819D02*
X157042857Y-89254819D01*
X156709523Y-90254819D02*
X156709523Y-89254819D01*
X156233333Y-90254819D02*
X156233333Y-89254819D01*
X156233333Y-89254819D02*
X155661905Y-90254819D01*
X155661905Y-90254819D02*
X155661905Y-89254819D01*
X155423810Y-90350057D02*
X154661905Y-90350057D01*
X154423809Y-90254819D02*
X154423809Y-89588152D01*
X154423809Y-89778628D02*
X154376190Y-89683390D01*
X154376190Y-89683390D02*
X154328571Y-89635771D01*
X154328571Y-89635771D02*
X154233333Y-89588152D01*
X154233333Y-89588152D02*
X154138095Y-89588152D01*
X153423809Y-90207200D02*
X153519047Y-90254819D01*
X153519047Y-90254819D02*
X153709523Y-90254819D01*
X153709523Y-90254819D02*
X153804761Y-90207200D01*
X153804761Y-90207200D02*
X153852380Y-90111961D01*
X153852380Y-90111961D02*
X153852380Y-89731009D01*
X153852380Y-89731009D02*
X153804761Y-89635771D01*
X153804761Y-89635771D02*
X153709523Y-89588152D01*
X153709523Y-89588152D02*
X153519047Y-89588152D01*
X153519047Y-89588152D02*
X153423809Y-89635771D01*
X153423809Y-89635771D02*
X153376190Y-89731009D01*
X153376190Y-89731009D02*
X153376190Y-89826247D01*
X153376190Y-89826247D02*
X153852380Y-89921485D01*
X152804761Y-90254819D02*
X152899999Y-90207200D01*
X152899999Y-90207200D02*
X152947618Y-90111961D01*
X152947618Y-90111961D02*
X152947618Y-89254819D01*
X151995237Y-90254819D02*
X151995237Y-89731009D01*
X151995237Y-89731009D02*
X152042856Y-89635771D01*
X152042856Y-89635771D02*
X152138094Y-89588152D01*
X152138094Y-89588152D02*
X152328570Y-89588152D01*
X152328570Y-89588152D02*
X152423808Y-89635771D01*
X151995237Y-90207200D02*
X152090475Y-90254819D01*
X152090475Y-90254819D02*
X152328570Y-90254819D01*
X152328570Y-90254819D02*
X152423808Y-90207200D01*
X152423808Y-90207200D02*
X152471427Y-90111961D01*
X152471427Y-90111961D02*
X152471427Y-90016723D01*
X152471427Y-90016723D02*
X152423808Y-89921485D01*
X152423808Y-89921485D02*
X152328570Y-89873866D01*
X152328570Y-89873866D02*
X152090475Y-89873866D01*
X152090475Y-89873866D02*
X151995237Y-89826247D01*
X151614284Y-89588152D02*
X151376189Y-90254819D01*
X151138094Y-89588152D02*
X151376189Y-90254819D01*
X151376189Y-90254819D02*
X151471427Y-90492914D01*
X151471427Y-90492914D02*
X151519046Y-90540533D01*
X151519046Y-90540533D02*
X151614284Y-90588152D01*
X165111904Y-84684819D02*
X165111904Y-85494342D01*
X165111904Y-85494342D02*
X165064285Y-85589580D01*
X165064285Y-85589580D02*
X165016666Y-85637200D01*
X165016666Y-85637200D02*
X164921428Y-85684819D01*
X164921428Y-85684819D02*
X164730952Y-85684819D01*
X164730952Y-85684819D02*
X164635714Y-85637200D01*
X164635714Y-85637200D02*
X164588095Y-85589580D01*
X164588095Y-85589580D02*
X164540476Y-85494342D01*
X164540476Y-85494342D02*
X164540476Y-84684819D01*
X163635714Y-85018152D02*
X163635714Y-85684819D01*
X163873809Y-84637200D02*
X164111904Y-85351485D01*
X164111904Y-85351485D02*
X163492857Y-85351485D01*
X142961904Y-87454819D02*
X143295237Y-86978628D01*
X143533332Y-87454819D02*
X143533332Y-86454819D01*
X143533332Y-86454819D02*
X143152380Y-86454819D01*
X143152380Y-86454819D02*
X143057142Y-86502438D01*
X143057142Y-86502438D02*
X143009523Y-86550057D01*
X143009523Y-86550057D02*
X142961904Y-86645295D01*
X142961904Y-86645295D02*
X142961904Y-86788152D01*
X142961904Y-86788152D02*
X143009523Y-86883390D01*
X143009523Y-86883390D02*
X143057142Y-86931009D01*
X143057142Y-86931009D02*
X143152380Y-86978628D01*
X143152380Y-86978628D02*
X143533332Y-86978628D01*
X142009523Y-87454819D02*
X142580951Y-87454819D01*
X142295237Y-87454819D02*
X142295237Y-86454819D01*
X142295237Y-86454819D02*
X142390475Y-86597676D01*
X142390475Y-86597676D02*
X142485713Y-86692914D01*
X142485713Y-86692914D02*
X142580951Y-86740533D01*
X141390475Y-86454819D02*
X141295237Y-86454819D01*
X141295237Y-86454819D02*
X141199999Y-86502438D01*
X141199999Y-86502438D02*
X141152380Y-86550057D01*
X141152380Y-86550057D02*
X141104761Y-86645295D01*
X141104761Y-86645295D02*
X141057142Y-86835771D01*
X141057142Y-86835771D02*
X141057142Y-87073866D01*
X141057142Y-87073866D02*
X141104761Y-87264342D01*
X141104761Y-87264342D02*
X141152380Y-87359580D01*
X141152380Y-87359580D02*
X141199999Y-87407200D01*
X141199999Y-87407200D02*
X141295237Y-87454819D01*
X141295237Y-87454819D02*
X141390475Y-87454819D01*
X141390475Y-87454819D02*
X141485713Y-87407200D01*
X141485713Y-87407200D02*
X141533332Y-87359580D01*
X141533332Y-87359580D02*
X141580951Y-87264342D01*
X141580951Y-87264342D02*
X141628570Y-87073866D01*
X141628570Y-87073866D02*
X141628570Y-86835771D01*
X141628570Y-86835771D02*
X141580951Y-86645295D01*
X141580951Y-86645295D02*
X141533332Y-86550057D01*
X141533332Y-86550057D02*
X141485713Y-86502438D01*
X141485713Y-86502438D02*
X141390475Y-86454819D01*
X140628570Y-87073866D02*
X139866666Y-87073866D01*
X139199999Y-86454819D02*
X139009523Y-86454819D01*
X139009523Y-86454819D02*
X138914285Y-86502438D01*
X138914285Y-86502438D02*
X138819047Y-86597676D01*
X138819047Y-86597676D02*
X138771428Y-86788152D01*
X138771428Y-86788152D02*
X138771428Y-87121485D01*
X138771428Y-87121485D02*
X138819047Y-87311961D01*
X138819047Y-87311961D02*
X138914285Y-87407200D01*
X138914285Y-87407200D02*
X139009523Y-87454819D01*
X139009523Y-87454819D02*
X139199999Y-87454819D01*
X139199999Y-87454819D02*
X139295237Y-87407200D01*
X139295237Y-87407200D02*
X139390475Y-87311961D01*
X139390475Y-87311961D02*
X139438094Y-87121485D01*
X139438094Y-87121485D02*
X139438094Y-86788152D01*
X139438094Y-86788152D02*
X139390475Y-86597676D01*
X139390475Y-86597676D02*
X139295237Y-86502438D01*
X139295237Y-86502438D02*
X139199999Y-86454819D01*
X137819047Y-87454819D02*
X138390475Y-87454819D01*
X138104761Y-87454819D02*
X138104761Y-86454819D01*
X138104761Y-86454819D02*
X138199999Y-86597676D01*
X138199999Y-86597676D02*
X138295237Y-86692914D01*
X138295237Y-86692914D02*
X138390475Y-86740533D01*
X172042857Y-76854819D02*
X172376190Y-76378628D01*
X172614285Y-76854819D02*
X172614285Y-75854819D01*
X172614285Y-75854819D02*
X172233333Y-75854819D01*
X172233333Y-75854819D02*
X172138095Y-75902438D01*
X172138095Y-75902438D02*
X172090476Y-75950057D01*
X172090476Y-75950057D02*
X172042857Y-76045295D01*
X172042857Y-76045295D02*
X172042857Y-76188152D01*
X172042857Y-76188152D02*
X172090476Y-76283390D01*
X172090476Y-76283390D02*
X172138095Y-76331009D01*
X172138095Y-76331009D02*
X172233333Y-76378628D01*
X172233333Y-76378628D02*
X172614285Y-76378628D01*
X171090476Y-76854819D02*
X171661904Y-76854819D01*
X171376190Y-76854819D02*
X171376190Y-75854819D01*
X171376190Y-75854819D02*
X171471428Y-75997676D01*
X171471428Y-75997676D02*
X171566666Y-76092914D01*
X171566666Y-76092914D02*
X171661904Y-76140533D01*
X170233333Y-75854819D02*
X170423809Y-75854819D01*
X170423809Y-75854819D02*
X170519047Y-75902438D01*
X170519047Y-75902438D02*
X170566666Y-75950057D01*
X170566666Y-75950057D02*
X170661904Y-76092914D01*
X170661904Y-76092914D02*
X170709523Y-76283390D01*
X170709523Y-76283390D02*
X170709523Y-76664342D01*
X170709523Y-76664342D02*
X170661904Y-76759580D01*
X170661904Y-76759580D02*
X170614285Y-76807200D01*
X170614285Y-76807200D02*
X170519047Y-76854819D01*
X170519047Y-76854819D02*
X170328571Y-76854819D01*
X170328571Y-76854819D02*
X170233333Y-76807200D01*
X170233333Y-76807200D02*
X170185714Y-76759580D01*
X170185714Y-76759580D02*
X170138095Y-76664342D01*
X170138095Y-76664342D02*
X170138095Y-76426247D01*
X170138095Y-76426247D02*
X170185714Y-76331009D01*
X170185714Y-76331009D02*
X170233333Y-76283390D01*
X170233333Y-76283390D02*
X170328571Y-76235771D01*
X170328571Y-76235771D02*
X170519047Y-76235771D01*
X170519047Y-76235771D02*
X170614285Y-76283390D01*
X170614285Y-76283390D02*
X170661904Y-76331009D01*
X170661904Y-76331009D02*
X170709523Y-76426247D01*
X163461904Y-59254819D02*
X162890476Y-59254819D01*
X163176190Y-60254819D02*
X163176190Y-59254819D01*
X162652380Y-59254819D02*
X161985714Y-60254819D01*
X161985714Y-59254819D02*
X162652380Y-60254819D01*
X177142857Y-81559580D02*
X177190476Y-81607200D01*
X177190476Y-81607200D02*
X177333333Y-81654819D01*
X177333333Y-81654819D02*
X177428571Y-81654819D01*
X177428571Y-81654819D02*
X177571428Y-81607200D01*
X177571428Y-81607200D02*
X177666666Y-81511961D01*
X177666666Y-81511961D02*
X177714285Y-81416723D01*
X177714285Y-81416723D02*
X177761904Y-81226247D01*
X177761904Y-81226247D02*
X177761904Y-81083390D01*
X177761904Y-81083390D02*
X177714285Y-80892914D01*
X177714285Y-80892914D02*
X177666666Y-80797676D01*
X177666666Y-80797676D02*
X177571428Y-80702438D01*
X177571428Y-80702438D02*
X177428571Y-80654819D01*
X177428571Y-80654819D02*
X177333333Y-80654819D01*
X177333333Y-80654819D02*
X177190476Y-80702438D01*
X177190476Y-80702438D02*
X177142857Y-80750057D01*
X176190476Y-81654819D02*
X176761904Y-81654819D01*
X176476190Y-81654819D02*
X176476190Y-80654819D01*
X176476190Y-80654819D02*
X176571428Y-80797676D01*
X176571428Y-80797676D02*
X176666666Y-80892914D01*
X176666666Y-80892914D02*
X176761904Y-80940533D01*
X175333333Y-80654819D02*
X175523809Y-80654819D01*
X175523809Y-80654819D02*
X175619047Y-80702438D01*
X175619047Y-80702438D02*
X175666666Y-80750057D01*
X175666666Y-80750057D02*
X175761904Y-80892914D01*
X175761904Y-80892914D02*
X175809523Y-81083390D01*
X175809523Y-81083390D02*
X175809523Y-81464342D01*
X175809523Y-81464342D02*
X175761904Y-81559580D01*
X175761904Y-81559580D02*
X175714285Y-81607200D01*
X175714285Y-81607200D02*
X175619047Y-81654819D01*
X175619047Y-81654819D02*
X175428571Y-81654819D01*
X175428571Y-81654819D02*
X175333333Y-81607200D01*
X175333333Y-81607200D02*
X175285714Y-81559580D01*
X175285714Y-81559580D02*
X175238095Y-81464342D01*
X175238095Y-81464342D02*
X175238095Y-81226247D01*
X175238095Y-81226247D02*
X175285714Y-81131009D01*
X175285714Y-81131009D02*
X175333333Y-81083390D01*
X175333333Y-81083390D02*
X175428571Y-81035771D01*
X175428571Y-81035771D02*
X175619047Y-81035771D01*
X175619047Y-81035771D02*
X175714285Y-81083390D01*
X175714285Y-81083390D02*
X175761904Y-81131009D01*
X175761904Y-81131009D02*
X175809523Y-81226247D01*
X174554819Y-84157142D02*
X174078628Y-83823809D01*
X174554819Y-83585714D02*
X173554819Y-83585714D01*
X173554819Y-83585714D02*
X173554819Y-83966666D01*
X173554819Y-83966666D02*
X173602438Y-84061904D01*
X173602438Y-84061904D02*
X173650057Y-84109523D01*
X173650057Y-84109523D02*
X173745295Y-84157142D01*
X173745295Y-84157142D02*
X173888152Y-84157142D01*
X173888152Y-84157142D02*
X173983390Y-84109523D01*
X173983390Y-84109523D02*
X174031009Y-84061904D01*
X174031009Y-84061904D02*
X174078628Y-83966666D01*
X174078628Y-83966666D02*
X174078628Y-83585714D01*
X174554819Y-85109523D02*
X174554819Y-84538095D01*
X174554819Y-84823809D02*
X173554819Y-84823809D01*
X173554819Y-84823809D02*
X173697676Y-84728571D01*
X173697676Y-84728571D02*
X173792914Y-84633333D01*
X173792914Y-84633333D02*
X173840533Y-84538095D01*
X173554819Y-85442857D02*
X173554819Y-86061904D01*
X173554819Y-86061904D02*
X173935771Y-85728571D01*
X173935771Y-85728571D02*
X173935771Y-85871428D01*
X173935771Y-85871428D02*
X173983390Y-85966666D01*
X173983390Y-85966666D02*
X174031009Y-86014285D01*
X174031009Y-86014285D02*
X174126247Y-86061904D01*
X174126247Y-86061904D02*
X174364342Y-86061904D01*
X174364342Y-86061904D02*
X174459580Y-86014285D01*
X174459580Y-86014285D02*
X174507200Y-85966666D01*
X174507200Y-85966666D02*
X174554819Y-85871428D01*
X174554819Y-85871428D02*
X174554819Y-85585714D01*
X174554819Y-85585714D02*
X174507200Y-85490476D01*
X174507200Y-85490476D02*
X174459580Y-85442857D01*
X154721904Y-63744819D02*
X154721904Y-62744819D01*
X154055238Y-62744819D02*
X153864762Y-62744819D01*
X153864762Y-62744819D02*
X153769524Y-62792438D01*
X153769524Y-62792438D02*
X153674286Y-62887676D01*
X153674286Y-62887676D02*
X153626667Y-63078152D01*
X153626667Y-63078152D02*
X153626667Y-63411485D01*
X153626667Y-63411485D02*
X153674286Y-63601961D01*
X153674286Y-63601961D02*
X153769524Y-63697200D01*
X153769524Y-63697200D02*
X153864762Y-63744819D01*
X153864762Y-63744819D02*
X154055238Y-63744819D01*
X154055238Y-63744819D02*
X154150476Y-63697200D01*
X154150476Y-63697200D02*
X154245714Y-63601961D01*
X154245714Y-63601961D02*
X154293333Y-63411485D01*
X154293333Y-63411485D02*
X154293333Y-63078152D01*
X154293333Y-63078152D02*
X154245714Y-62887676D01*
X154245714Y-62887676D02*
X154150476Y-62792438D01*
X154150476Y-62792438D02*
X154055238Y-62744819D01*
X153150476Y-63744819D02*
X152960000Y-63744819D01*
X152960000Y-63744819D02*
X152864762Y-63697200D01*
X152864762Y-63697200D02*
X152817143Y-63649580D01*
X152817143Y-63649580D02*
X152721905Y-63506723D01*
X152721905Y-63506723D02*
X152674286Y-63316247D01*
X152674286Y-63316247D02*
X152674286Y-62935295D01*
X152674286Y-62935295D02*
X152721905Y-62840057D01*
X152721905Y-62840057D02*
X152769524Y-62792438D01*
X152769524Y-62792438D02*
X152864762Y-62744819D01*
X152864762Y-62744819D02*
X153055238Y-62744819D01*
X153055238Y-62744819D02*
X153150476Y-62792438D01*
X153150476Y-62792438D02*
X153198095Y-62840057D01*
X153198095Y-62840057D02*
X153245714Y-62935295D01*
X153245714Y-62935295D02*
X153245714Y-63173390D01*
X153245714Y-63173390D02*
X153198095Y-63268628D01*
X153198095Y-63268628D02*
X153150476Y-63316247D01*
X153150476Y-63316247D02*
X153055238Y-63363866D01*
X153055238Y-63363866D02*
X152864762Y-63363866D01*
X152864762Y-63363866D02*
X152769524Y-63316247D01*
X152769524Y-63316247D02*
X152721905Y-63268628D01*
X152721905Y-63268628D02*
X152674286Y-63173390D01*
X152245714Y-63363866D02*
X151483810Y-63363866D01*
X151007619Y-63744819D02*
X151007619Y-62744819D01*
X151007619Y-63125771D02*
X150912381Y-63078152D01*
X150912381Y-63078152D02*
X150721905Y-63078152D01*
X150721905Y-63078152D02*
X150626667Y-63125771D01*
X150626667Y-63125771D02*
X150579048Y-63173390D01*
X150579048Y-63173390D02*
X150531429Y-63268628D01*
X150531429Y-63268628D02*
X150531429Y-63554342D01*
X150531429Y-63554342D02*
X150579048Y-63649580D01*
X150579048Y-63649580D02*
X150626667Y-63697200D01*
X150626667Y-63697200D02*
X150721905Y-63744819D01*
X150721905Y-63744819D02*
X150912381Y-63744819D01*
X150912381Y-63744819D02*
X151007619Y-63697200D01*
X149960000Y-63744819D02*
X150055238Y-63697200D01*
X150055238Y-63697200D02*
X150102857Y-63649580D01*
X150102857Y-63649580D02*
X150150476Y-63554342D01*
X150150476Y-63554342D02*
X150150476Y-63268628D01*
X150150476Y-63268628D02*
X150102857Y-63173390D01*
X150102857Y-63173390D02*
X150055238Y-63125771D01*
X150055238Y-63125771D02*
X149960000Y-63078152D01*
X149960000Y-63078152D02*
X149817143Y-63078152D01*
X149817143Y-63078152D02*
X149721905Y-63125771D01*
X149721905Y-63125771D02*
X149674286Y-63173390D01*
X149674286Y-63173390D02*
X149626667Y-63268628D01*
X149626667Y-63268628D02*
X149626667Y-63554342D01*
X149626667Y-63554342D02*
X149674286Y-63649580D01*
X149674286Y-63649580D02*
X149721905Y-63697200D01*
X149721905Y-63697200D02*
X149817143Y-63744819D01*
X149817143Y-63744819D02*
X149960000Y-63744819D01*
X149055238Y-63744819D02*
X149150476Y-63697200D01*
X149150476Y-63697200D02*
X149198095Y-63649580D01*
X149198095Y-63649580D02*
X149245714Y-63554342D01*
X149245714Y-63554342D02*
X149245714Y-63268628D01*
X149245714Y-63268628D02*
X149198095Y-63173390D01*
X149198095Y-63173390D02*
X149150476Y-63125771D01*
X149150476Y-63125771D02*
X149055238Y-63078152D01*
X149055238Y-63078152D02*
X148912381Y-63078152D01*
X148912381Y-63078152D02*
X148817143Y-63125771D01*
X148817143Y-63125771D02*
X148769524Y-63173390D01*
X148769524Y-63173390D02*
X148721905Y-63268628D01*
X148721905Y-63268628D02*
X148721905Y-63554342D01*
X148721905Y-63554342D02*
X148769524Y-63649580D01*
X148769524Y-63649580D02*
X148817143Y-63697200D01*
X148817143Y-63697200D02*
X148912381Y-63744819D01*
X148912381Y-63744819D02*
X149055238Y-63744819D01*
X148436190Y-63078152D02*
X148055238Y-63078152D01*
X148293333Y-62744819D02*
X148293333Y-63601961D01*
X148293333Y-63601961D02*
X148245714Y-63697200D01*
X148245714Y-63697200D02*
X148150476Y-63744819D01*
X148150476Y-63744819D02*
X148055238Y-63744819D01*
X146095238Y-87350057D02*
X146190476Y-87302438D01*
X146190476Y-87302438D02*
X146285714Y-87207200D01*
X146285714Y-87207200D02*
X146428571Y-87064342D01*
X146428571Y-87064342D02*
X146523809Y-87016723D01*
X146523809Y-87016723D02*
X146619047Y-87016723D01*
X146571428Y-87254819D02*
X146666666Y-87207200D01*
X146666666Y-87207200D02*
X146761904Y-87111961D01*
X146761904Y-87111961D02*
X146809523Y-86921485D01*
X146809523Y-86921485D02*
X146809523Y-86588152D01*
X146809523Y-86588152D02*
X146761904Y-86397676D01*
X146761904Y-86397676D02*
X146666666Y-86302438D01*
X146666666Y-86302438D02*
X146571428Y-86254819D01*
X146571428Y-86254819D02*
X146380952Y-86254819D01*
X146380952Y-86254819D02*
X146285714Y-86302438D01*
X146285714Y-86302438D02*
X146190476Y-86397676D01*
X146190476Y-86397676D02*
X146142857Y-86588152D01*
X146142857Y-86588152D02*
X146142857Y-86921485D01*
X146142857Y-86921485D02*
X146190476Y-87111961D01*
X146190476Y-87111961D02*
X146285714Y-87207200D01*
X146285714Y-87207200D02*
X146380952Y-87254819D01*
X146380952Y-87254819D02*
X146571428Y-87254819D01*
X145190476Y-87254819D02*
X145761904Y-87254819D01*
X145476190Y-87254819D02*
X145476190Y-86254819D01*
X145476190Y-86254819D02*
X145571428Y-86397676D01*
X145571428Y-86397676D02*
X145666666Y-86492914D01*
X145666666Y-86492914D02*
X145761904Y-86540533D01*
X152729580Y-70733333D02*
X152777200Y-70685714D01*
X152777200Y-70685714D02*
X152824819Y-70542857D01*
X152824819Y-70542857D02*
X152824819Y-70447619D01*
X152824819Y-70447619D02*
X152777200Y-70304762D01*
X152777200Y-70304762D02*
X152681961Y-70209524D01*
X152681961Y-70209524D02*
X152586723Y-70161905D01*
X152586723Y-70161905D02*
X152396247Y-70114286D01*
X152396247Y-70114286D02*
X152253390Y-70114286D01*
X152253390Y-70114286D02*
X152062914Y-70161905D01*
X152062914Y-70161905D02*
X151967676Y-70209524D01*
X151967676Y-70209524D02*
X151872438Y-70304762D01*
X151872438Y-70304762D02*
X151824819Y-70447619D01*
X151824819Y-70447619D02*
X151824819Y-70542857D01*
X151824819Y-70542857D02*
X151872438Y-70685714D01*
X151872438Y-70685714D02*
X151920057Y-70733333D01*
X152253390Y-71304762D02*
X152205771Y-71209524D01*
X152205771Y-71209524D02*
X152158152Y-71161905D01*
X152158152Y-71161905D02*
X152062914Y-71114286D01*
X152062914Y-71114286D02*
X152015295Y-71114286D01*
X152015295Y-71114286D02*
X151920057Y-71161905D01*
X151920057Y-71161905D02*
X151872438Y-71209524D01*
X151872438Y-71209524D02*
X151824819Y-71304762D01*
X151824819Y-71304762D02*
X151824819Y-71495238D01*
X151824819Y-71495238D02*
X151872438Y-71590476D01*
X151872438Y-71590476D02*
X151920057Y-71638095D01*
X151920057Y-71638095D02*
X152015295Y-71685714D01*
X152015295Y-71685714D02*
X152062914Y-71685714D01*
X152062914Y-71685714D02*
X152158152Y-71638095D01*
X152158152Y-71638095D02*
X152205771Y-71590476D01*
X152205771Y-71590476D02*
X152253390Y-71495238D01*
X152253390Y-71495238D02*
X152253390Y-71304762D01*
X152253390Y-71304762D02*
X152301009Y-71209524D01*
X152301009Y-71209524D02*
X152348628Y-71161905D01*
X152348628Y-71161905D02*
X152443866Y-71114286D01*
X152443866Y-71114286D02*
X152634342Y-71114286D01*
X152634342Y-71114286D02*
X152729580Y-71161905D01*
X152729580Y-71161905D02*
X152777200Y-71209524D01*
X152777200Y-71209524D02*
X152824819Y-71304762D01*
X152824819Y-71304762D02*
X152824819Y-71495238D01*
X152824819Y-71495238D02*
X152777200Y-71590476D01*
X152777200Y-71590476D02*
X152729580Y-71638095D01*
X152729580Y-71638095D02*
X152634342Y-71685714D01*
X152634342Y-71685714D02*
X152443866Y-71685714D01*
X152443866Y-71685714D02*
X152348628Y-71638095D01*
X152348628Y-71638095D02*
X152301009Y-71590476D01*
X152301009Y-71590476D02*
X152253390Y-71495238D01*
X149266666Y-99754819D02*
X149599999Y-99278628D01*
X149838094Y-99754819D02*
X149838094Y-98754819D01*
X149838094Y-98754819D02*
X149457142Y-98754819D01*
X149457142Y-98754819D02*
X149361904Y-98802438D01*
X149361904Y-98802438D02*
X149314285Y-98850057D01*
X149314285Y-98850057D02*
X149266666Y-98945295D01*
X149266666Y-98945295D02*
X149266666Y-99088152D01*
X149266666Y-99088152D02*
X149314285Y-99183390D01*
X149314285Y-99183390D02*
X149361904Y-99231009D01*
X149361904Y-99231009D02*
X149457142Y-99278628D01*
X149457142Y-99278628D02*
X149838094Y-99278628D01*
X148361904Y-98754819D02*
X148838094Y-98754819D01*
X148838094Y-98754819D02*
X148885713Y-99231009D01*
X148885713Y-99231009D02*
X148838094Y-99183390D01*
X148838094Y-99183390D02*
X148742856Y-99135771D01*
X148742856Y-99135771D02*
X148504761Y-99135771D01*
X148504761Y-99135771D02*
X148409523Y-99183390D01*
X148409523Y-99183390D02*
X148361904Y-99231009D01*
X148361904Y-99231009D02*
X148314285Y-99326247D01*
X148314285Y-99326247D02*
X148314285Y-99564342D01*
X148314285Y-99564342D02*
X148361904Y-99659580D01*
X148361904Y-99659580D02*
X148409523Y-99707200D01*
X148409523Y-99707200D02*
X148504761Y-99754819D01*
X148504761Y-99754819D02*
X148742856Y-99754819D01*
X148742856Y-99754819D02*
X148838094Y-99707200D01*
X148838094Y-99707200D02*
X148885713Y-99659580D01*
X169368990Y-94733333D02*
X169368990Y-95066666D01*
X168845180Y-95066666D02*
X169845180Y-95066666D01*
X169845180Y-95066666D02*
X169845180Y-94590476D01*
X168845180Y-93685714D02*
X168845180Y-94257142D01*
X168845180Y-93971428D02*
X169845180Y-93971428D01*
X169845180Y-93971428D02*
X169702323Y-94066666D01*
X169702323Y-94066666D02*
X169607085Y-94161904D01*
X169607085Y-94161904D02*
X169559466Y-94257142D01*
X167654819Y-75938095D02*
X167178628Y-75604762D01*
X167654819Y-75366667D02*
X166654819Y-75366667D01*
X166654819Y-75366667D02*
X166654819Y-75747619D01*
X166654819Y-75747619D02*
X166702438Y-75842857D01*
X166702438Y-75842857D02*
X166750057Y-75890476D01*
X166750057Y-75890476D02*
X166845295Y-75938095D01*
X166845295Y-75938095D02*
X166988152Y-75938095D01*
X166988152Y-75938095D02*
X167083390Y-75890476D01*
X167083390Y-75890476D02*
X167131009Y-75842857D01*
X167131009Y-75842857D02*
X167178628Y-75747619D01*
X167178628Y-75747619D02*
X167178628Y-75366667D01*
X167654819Y-76890476D02*
X167654819Y-76319048D01*
X167654819Y-76604762D02*
X166654819Y-76604762D01*
X166654819Y-76604762D02*
X166797676Y-76509524D01*
X166797676Y-76509524D02*
X166892914Y-76414286D01*
X166892914Y-76414286D02*
X166940533Y-76319048D01*
X166750057Y-77271429D02*
X166702438Y-77319048D01*
X166702438Y-77319048D02*
X166654819Y-77414286D01*
X166654819Y-77414286D02*
X166654819Y-77652381D01*
X166654819Y-77652381D02*
X166702438Y-77747619D01*
X166702438Y-77747619D02*
X166750057Y-77795238D01*
X166750057Y-77795238D02*
X166845295Y-77842857D01*
X166845295Y-77842857D02*
X166940533Y-77842857D01*
X166940533Y-77842857D02*
X167083390Y-77795238D01*
X167083390Y-77795238D02*
X167654819Y-77223810D01*
X167654819Y-77223810D02*
X167654819Y-77842857D01*
X167273866Y-78271429D02*
X167273866Y-79033334D01*
X166654819Y-79700000D02*
X166654819Y-79890476D01*
X166654819Y-79890476D02*
X166702438Y-79985714D01*
X166702438Y-79985714D02*
X166797676Y-80080952D01*
X166797676Y-80080952D02*
X166988152Y-80128571D01*
X166988152Y-80128571D02*
X167321485Y-80128571D01*
X167321485Y-80128571D02*
X167511961Y-80080952D01*
X167511961Y-80080952D02*
X167607200Y-79985714D01*
X167607200Y-79985714D02*
X167654819Y-79890476D01*
X167654819Y-79890476D02*
X167654819Y-79700000D01*
X167654819Y-79700000D02*
X167607200Y-79604762D01*
X167607200Y-79604762D02*
X167511961Y-79509524D01*
X167511961Y-79509524D02*
X167321485Y-79461905D01*
X167321485Y-79461905D02*
X166988152Y-79461905D01*
X166988152Y-79461905D02*
X166797676Y-79509524D01*
X166797676Y-79509524D02*
X166702438Y-79604762D01*
X166702438Y-79604762D02*
X166654819Y-79700000D01*
X167654819Y-81080952D02*
X167654819Y-80509524D01*
X167654819Y-80795238D02*
X166654819Y-80795238D01*
X166654819Y-80795238D02*
X166797676Y-80700000D01*
X166797676Y-80700000D02*
X166892914Y-80604762D01*
X166892914Y-80604762D02*
X166940533Y-80509524D01*
X175766666Y-57254819D02*
X176099999Y-56778628D01*
X176338094Y-57254819D02*
X176338094Y-56254819D01*
X176338094Y-56254819D02*
X175957142Y-56254819D01*
X175957142Y-56254819D02*
X175861904Y-56302438D01*
X175861904Y-56302438D02*
X175814285Y-56350057D01*
X175814285Y-56350057D02*
X175766666Y-56445295D01*
X175766666Y-56445295D02*
X175766666Y-56588152D01*
X175766666Y-56588152D02*
X175814285Y-56683390D01*
X175814285Y-56683390D02*
X175861904Y-56731009D01*
X175861904Y-56731009D02*
X175957142Y-56778628D01*
X175957142Y-56778628D02*
X176338094Y-56778628D01*
X175385713Y-56350057D02*
X175338094Y-56302438D01*
X175338094Y-56302438D02*
X175242856Y-56254819D01*
X175242856Y-56254819D02*
X175004761Y-56254819D01*
X175004761Y-56254819D02*
X174909523Y-56302438D01*
X174909523Y-56302438D02*
X174861904Y-56350057D01*
X174861904Y-56350057D02*
X174814285Y-56445295D01*
X174814285Y-56445295D02*
X174814285Y-56540533D01*
X174814285Y-56540533D02*
X174861904Y-56683390D01*
X174861904Y-56683390D02*
X175433332Y-57254819D01*
X175433332Y-57254819D02*
X174814285Y-57254819D01*
X157554819Y-74100000D02*
X158554819Y-74433333D01*
X158554819Y-74433333D02*
X157554819Y-74766666D01*
X158554819Y-75100000D02*
X157554819Y-75100000D01*
X158554819Y-75576190D02*
X157554819Y-75576190D01*
X157554819Y-75576190D02*
X158554819Y-76147618D01*
X158554819Y-76147618D02*
X157554819Y-76147618D01*
X158650057Y-76385714D02*
X158650057Y-77147618D01*
X157888152Y-77242857D02*
X157888152Y-77623809D01*
X158554819Y-77385714D02*
X157697676Y-77385714D01*
X157697676Y-77385714D02*
X157602438Y-77433333D01*
X157602438Y-77433333D02*
X157554819Y-77528571D01*
X157554819Y-77528571D02*
X157554819Y-77623809D01*
X157888152Y-78385714D02*
X158554819Y-78385714D01*
X157888152Y-77957143D02*
X158411961Y-77957143D01*
X158411961Y-77957143D02*
X158507200Y-78004762D01*
X158507200Y-78004762D02*
X158554819Y-78100000D01*
X158554819Y-78100000D02*
X158554819Y-78242857D01*
X158554819Y-78242857D02*
X158507200Y-78338095D01*
X158507200Y-78338095D02*
X158459580Y-78385714D01*
X158507200Y-78814286D02*
X158554819Y-78909524D01*
X158554819Y-78909524D02*
X158554819Y-79100000D01*
X158554819Y-79100000D02*
X158507200Y-79195238D01*
X158507200Y-79195238D02*
X158411961Y-79242857D01*
X158411961Y-79242857D02*
X158364342Y-79242857D01*
X158364342Y-79242857D02*
X158269104Y-79195238D01*
X158269104Y-79195238D02*
X158221485Y-79100000D01*
X158221485Y-79100000D02*
X158221485Y-78957143D01*
X158221485Y-78957143D02*
X158173866Y-78861905D01*
X158173866Y-78861905D02*
X158078628Y-78814286D01*
X158078628Y-78814286D02*
X158031009Y-78814286D01*
X158031009Y-78814286D02*
X157935771Y-78861905D01*
X157935771Y-78861905D02*
X157888152Y-78957143D01*
X157888152Y-78957143D02*
X157888152Y-79100000D01*
X157888152Y-79100000D02*
X157935771Y-79195238D01*
X158507200Y-80052381D02*
X158554819Y-79957143D01*
X158554819Y-79957143D02*
X158554819Y-79766667D01*
X158554819Y-79766667D02*
X158507200Y-79671429D01*
X158507200Y-79671429D02*
X158411961Y-79623810D01*
X158411961Y-79623810D02*
X158031009Y-79623810D01*
X158031009Y-79623810D02*
X157935771Y-79671429D01*
X157935771Y-79671429D02*
X157888152Y-79766667D01*
X157888152Y-79766667D02*
X157888152Y-79957143D01*
X157888152Y-79957143D02*
X157935771Y-80052381D01*
X157935771Y-80052381D02*
X158031009Y-80100000D01*
X158031009Y-80100000D02*
X158126247Y-80100000D01*
X158126247Y-80100000D02*
X158221485Y-79623810D01*
X158554819Y-80957143D02*
X157554819Y-80957143D01*
X158507200Y-80957143D02*
X158554819Y-80861905D01*
X158554819Y-80861905D02*
X158554819Y-80671429D01*
X158554819Y-80671429D02*
X158507200Y-80576191D01*
X158507200Y-80576191D02*
X158459580Y-80528572D01*
X158459580Y-80528572D02*
X158364342Y-80480953D01*
X158364342Y-80480953D02*
X158078628Y-80480953D01*
X158078628Y-80480953D02*
X157983390Y-80528572D01*
X157983390Y-80528572D02*
X157935771Y-80576191D01*
X157935771Y-80576191D02*
X157888152Y-80671429D01*
X157888152Y-80671429D02*
X157888152Y-80861905D01*
X157888152Y-80861905D02*
X157935771Y-80957143D01*
X139425357Y-58759580D02*
X139472976Y-58807200D01*
X139472976Y-58807200D02*
X139615833Y-58854819D01*
X139615833Y-58854819D02*
X139711071Y-58854819D01*
X139711071Y-58854819D02*
X139853928Y-58807200D01*
X139853928Y-58807200D02*
X139949166Y-58711961D01*
X139949166Y-58711961D02*
X139996785Y-58616723D01*
X139996785Y-58616723D02*
X140044404Y-58426247D01*
X140044404Y-58426247D02*
X140044404Y-58283390D01*
X140044404Y-58283390D02*
X139996785Y-58092914D01*
X139996785Y-58092914D02*
X139949166Y-57997676D01*
X139949166Y-57997676D02*
X139853928Y-57902438D01*
X139853928Y-57902438D02*
X139711071Y-57854819D01*
X139711071Y-57854819D02*
X139615833Y-57854819D01*
X139615833Y-57854819D02*
X139472976Y-57902438D01*
X139472976Y-57902438D02*
X139425357Y-57950057D01*
X138472976Y-58854819D02*
X139044404Y-58854819D01*
X138758690Y-58854819D02*
X138758690Y-57854819D01*
X138758690Y-57854819D02*
X138853928Y-57997676D01*
X138853928Y-57997676D02*
X138949166Y-58092914D01*
X138949166Y-58092914D02*
X139044404Y-58140533D01*
X137853928Y-57854819D02*
X137758690Y-57854819D01*
X137758690Y-57854819D02*
X137663452Y-57902438D01*
X137663452Y-57902438D02*
X137615833Y-57950057D01*
X137615833Y-57950057D02*
X137568214Y-58045295D01*
X137568214Y-58045295D02*
X137520595Y-58235771D01*
X137520595Y-58235771D02*
X137520595Y-58473866D01*
X137520595Y-58473866D02*
X137568214Y-58664342D01*
X137568214Y-58664342D02*
X137615833Y-58759580D01*
X137615833Y-58759580D02*
X137663452Y-58807200D01*
X137663452Y-58807200D02*
X137758690Y-58854819D01*
X137758690Y-58854819D02*
X137853928Y-58854819D01*
X137853928Y-58854819D02*
X137949166Y-58807200D01*
X137949166Y-58807200D02*
X137996785Y-58759580D01*
X137996785Y-58759580D02*
X138044404Y-58664342D01*
X138044404Y-58664342D02*
X138092023Y-58473866D01*
X138092023Y-58473866D02*
X138092023Y-58235771D01*
X138092023Y-58235771D02*
X138044404Y-58045295D01*
X138044404Y-58045295D02*
X137996785Y-57950057D01*
X137996785Y-57950057D02*
X137949166Y-57902438D01*
X137949166Y-57902438D02*
X137853928Y-57854819D01*
X166523808Y-54154819D02*
X166523808Y-53154819D01*
X165857142Y-53154819D02*
X165666666Y-53154819D01*
X165666666Y-53154819D02*
X165571428Y-53202438D01*
X165571428Y-53202438D02*
X165476190Y-53297676D01*
X165476190Y-53297676D02*
X165428571Y-53488152D01*
X165428571Y-53488152D02*
X165428571Y-53821485D01*
X165428571Y-53821485D02*
X165476190Y-54011961D01*
X165476190Y-54011961D02*
X165571428Y-54107200D01*
X165571428Y-54107200D02*
X165666666Y-54154819D01*
X165666666Y-54154819D02*
X165857142Y-54154819D01*
X165857142Y-54154819D02*
X165952380Y-54107200D01*
X165952380Y-54107200D02*
X166047618Y-54011961D01*
X166047618Y-54011961D02*
X166095237Y-53821485D01*
X166095237Y-53821485D02*
X166095237Y-53488152D01*
X166095237Y-53488152D02*
X166047618Y-53297676D01*
X166047618Y-53297676D02*
X165952380Y-53202438D01*
X165952380Y-53202438D02*
X165857142Y-53154819D01*
X164809523Y-53154819D02*
X164714285Y-53154819D01*
X164714285Y-53154819D02*
X164619047Y-53202438D01*
X164619047Y-53202438D02*
X164571428Y-53250057D01*
X164571428Y-53250057D02*
X164523809Y-53345295D01*
X164523809Y-53345295D02*
X164476190Y-53535771D01*
X164476190Y-53535771D02*
X164476190Y-53773866D01*
X164476190Y-53773866D02*
X164523809Y-53964342D01*
X164523809Y-53964342D02*
X164571428Y-54059580D01*
X164571428Y-54059580D02*
X164619047Y-54107200D01*
X164619047Y-54107200D02*
X164714285Y-54154819D01*
X164714285Y-54154819D02*
X164809523Y-54154819D01*
X164809523Y-54154819D02*
X164904761Y-54107200D01*
X164904761Y-54107200D02*
X164952380Y-54059580D01*
X164952380Y-54059580D02*
X164999999Y-53964342D01*
X164999999Y-53964342D02*
X165047618Y-53773866D01*
X165047618Y-53773866D02*
X165047618Y-53535771D01*
X165047618Y-53535771D02*
X164999999Y-53345295D01*
X164999999Y-53345295D02*
X164952380Y-53250057D01*
X164952380Y-53250057D02*
X164904761Y-53202438D01*
X164904761Y-53202438D02*
X164809523Y-53154819D01*
X164095237Y-53250057D02*
X164047618Y-53202438D01*
X164047618Y-53202438D02*
X163952380Y-53154819D01*
X163952380Y-53154819D02*
X163714285Y-53154819D01*
X163714285Y-53154819D02*
X163619047Y-53202438D01*
X163619047Y-53202438D02*
X163571428Y-53250057D01*
X163571428Y-53250057D02*
X163523809Y-53345295D01*
X163523809Y-53345295D02*
X163523809Y-53440533D01*
X163523809Y-53440533D02*
X163571428Y-53583390D01*
X163571428Y-53583390D02*
X164142856Y-54154819D01*
X164142856Y-54154819D02*
X163523809Y-54154819D01*
X163095237Y-53773866D02*
X162333333Y-53773866D01*
X161857142Y-54154819D02*
X161857142Y-53154819D01*
X161857142Y-53154819D02*
X161619047Y-53154819D01*
X161619047Y-53154819D02*
X161476190Y-53202438D01*
X161476190Y-53202438D02*
X161380952Y-53297676D01*
X161380952Y-53297676D02*
X161333333Y-53392914D01*
X161333333Y-53392914D02*
X161285714Y-53583390D01*
X161285714Y-53583390D02*
X161285714Y-53726247D01*
X161285714Y-53726247D02*
X161333333Y-53916723D01*
X161333333Y-53916723D02*
X161380952Y-54011961D01*
X161380952Y-54011961D02*
X161476190Y-54107200D01*
X161476190Y-54107200D02*
X161619047Y-54154819D01*
X161619047Y-54154819D02*
X161857142Y-54154819D01*
X160428571Y-54154819D02*
X160428571Y-53631009D01*
X160428571Y-53631009D02*
X160476190Y-53535771D01*
X160476190Y-53535771D02*
X160571428Y-53488152D01*
X160571428Y-53488152D02*
X160761904Y-53488152D01*
X160761904Y-53488152D02*
X160857142Y-53535771D01*
X160428571Y-54107200D02*
X160523809Y-54154819D01*
X160523809Y-54154819D02*
X160761904Y-54154819D01*
X160761904Y-54154819D02*
X160857142Y-54107200D01*
X160857142Y-54107200D02*
X160904761Y-54011961D01*
X160904761Y-54011961D02*
X160904761Y-53916723D01*
X160904761Y-53916723D02*
X160857142Y-53821485D01*
X160857142Y-53821485D02*
X160761904Y-53773866D01*
X160761904Y-53773866D02*
X160523809Y-53773866D01*
X160523809Y-53773866D02*
X160428571Y-53726247D01*
X160095237Y-53488152D02*
X159714285Y-53488152D01*
X159952380Y-53154819D02*
X159952380Y-54011961D01*
X159952380Y-54011961D02*
X159904761Y-54107200D01*
X159904761Y-54107200D02*
X159809523Y-54154819D01*
X159809523Y-54154819D02*
X159714285Y-54154819D01*
X158952380Y-54154819D02*
X158952380Y-53631009D01*
X158952380Y-53631009D02*
X158999999Y-53535771D01*
X158999999Y-53535771D02*
X159095237Y-53488152D01*
X159095237Y-53488152D02*
X159285713Y-53488152D01*
X159285713Y-53488152D02*
X159380951Y-53535771D01*
X158952380Y-54107200D02*
X159047618Y-54154819D01*
X159047618Y-54154819D02*
X159285713Y-54154819D01*
X159285713Y-54154819D02*
X159380951Y-54107200D01*
X159380951Y-54107200D02*
X159428570Y-54011961D01*
X159428570Y-54011961D02*
X159428570Y-53916723D01*
X159428570Y-53916723D02*
X159380951Y-53821485D01*
X159380951Y-53821485D02*
X159285713Y-53773866D01*
X159285713Y-53773866D02*
X159047618Y-53773866D01*
X159047618Y-53773866D02*
X158952380Y-53726247D01*
X158476189Y-53773866D02*
X157714285Y-53773866D01*
X157333332Y-53154819D02*
X156714285Y-53154819D01*
X156714285Y-53154819D02*
X157047618Y-53535771D01*
X157047618Y-53535771D02*
X156904761Y-53535771D01*
X156904761Y-53535771D02*
X156809523Y-53583390D01*
X156809523Y-53583390D02*
X156761904Y-53631009D01*
X156761904Y-53631009D02*
X156714285Y-53726247D01*
X156714285Y-53726247D02*
X156714285Y-53964342D01*
X156714285Y-53964342D02*
X156761904Y-54059580D01*
X156761904Y-54059580D02*
X156809523Y-54107200D01*
X156809523Y-54107200D02*
X156904761Y-54154819D01*
X156904761Y-54154819D02*
X157190475Y-54154819D01*
X157190475Y-54154819D02*
X157285713Y-54107200D01*
X157285713Y-54107200D02*
X157333332Y-54059580D01*
X156285713Y-54059580D02*
X156238094Y-54107200D01*
X156238094Y-54107200D02*
X156285713Y-54154819D01*
X156285713Y-54154819D02*
X156333332Y-54107200D01*
X156333332Y-54107200D02*
X156285713Y-54059580D01*
X156285713Y-54059580D02*
X156285713Y-54154819D01*
X155904761Y-53154819D02*
X155285714Y-53154819D01*
X155285714Y-53154819D02*
X155619047Y-53535771D01*
X155619047Y-53535771D02*
X155476190Y-53535771D01*
X155476190Y-53535771D02*
X155380952Y-53583390D01*
X155380952Y-53583390D02*
X155333333Y-53631009D01*
X155333333Y-53631009D02*
X155285714Y-53726247D01*
X155285714Y-53726247D02*
X155285714Y-53964342D01*
X155285714Y-53964342D02*
X155333333Y-54059580D01*
X155333333Y-54059580D02*
X155380952Y-54107200D01*
X155380952Y-54107200D02*
X155476190Y-54154819D01*
X155476190Y-54154819D02*
X155761904Y-54154819D01*
X155761904Y-54154819D02*
X155857142Y-54107200D01*
X155857142Y-54107200D02*
X155904761Y-54059580D01*
X154999999Y-53154819D02*
X154666666Y-54154819D01*
X154666666Y-54154819D02*
X154333333Y-53154819D01*
X149554819Y-91733333D02*
X149078628Y-91400000D01*
X149554819Y-91161905D02*
X148554819Y-91161905D01*
X148554819Y-91161905D02*
X148554819Y-91542857D01*
X148554819Y-91542857D02*
X148602438Y-91638095D01*
X148602438Y-91638095D02*
X148650057Y-91685714D01*
X148650057Y-91685714D02*
X148745295Y-91733333D01*
X148745295Y-91733333D02*
X148888152Y-91733333D01*
X148888152Y-91733333D02*
X148983390Y-91685714D01*
X148983390Y-91685714D02*
X149031009Y-91638095D01*
X149031009Y-91638095D02*
X149078628Y-91542857D01*
X149078628Y-91542857D02*
X149078628Y-91161905D01*
X149554819Y-92209524D02*
X149554819Y-92400000D01*
X149554819Y-92400000D02*
X149507200Y-92495238D01*
X149507200Y-92495238D02*
X149459580Y-92542857D01*
X149459580Y-92542857D02*
X149316723Y-92638095D01*
X149316723Y-92638095D02*
X149126247Y-92685714D01*
X149126247Y-92685714D02*
X148745295Y-92685714D01*
X148745295Y-92685714D02*
X148650057Y-92638095D01*
X148650057Y-92638095D02*
X148602438Y-92590476D01*
X148602438Y-92590476D02*
X148554819Y-92495238D01*
X148554819Y-92495238D02*
X148554819Y-92304762D01*
X148554819Y-92304762D02*
X148602438Y-92209524D01*
X148602438Y-92209524D02*
X148650057Y-92161905D01*
X148650057Y-92161905D02*
X148745295Y-92114286D01*
X148745295Y-92114286D02*
X148983390Y-92114286D01*
X148983390Y-92114286D02*
X149078628Y-92161905D01*
X149078628Y-92161905D02*
X149126247Y-92209524D01*
X149126247Y-92209524D02*
X149173866Y-92304762D01*
X149173866Y-92304762D02*
X149173866Y-92495238D01*
X149173866Y-92495238D02*
X149126247Y-92590476D01*
X149126247Y-92590476D02*
X149078628Y-92638095D01*
X149078628Y-92638095D02*
X148983390Y-92685714D01*
X156517080Y-105394642D02*
X156564700Y-105347023D01*
X156564700Y-105347023D02*
X156612319Y-105204166D01*
X156612319Y-105204166D02*
X156612319Y-105108928D01*
X156612319Y-105108928D02*
X156564700Y-104966071D01*
X156564700Y-104966071D02*
X156469461Y-104870833D01*
X156469461Y-104870833D02*
X156374223Y-104823214D01*
X156374223Y-104823214D02*
X156183747Y-104775595D01*
X156183747Y-104775595D02*
X156040890Y-104775595D01*
X156040890Y-104775595D02*
X155850414Y-104823214D01*
X155850414Y-104823214D02*
X155755176Y-104870833D01*
X155755176Y-104870833D02*
X155659938Y-104966071D01*
X155659938Y-104966071D02*
X155612319Y-105108928D01*
X155612319Y-105108928D02*
X155612319Y-105204166D01*
X155612319Y-105204166D02*
X155659938Y-105347023D01*
X155659938Y-105347023D02*
X155707557Y-105394642D01*
X156612319Y-106347023D02*
X156612319Y-105775595D01*
X156612319Y-106061309D02*
X155612319Y-106061309D01*
X155612319Y-106061309D02*
X155755176Y-105966071D01*
X155755176Y-105966071D02*
X155850414Y-105870833D01*
X155850414Y-105870833D02*
X155898033Y-105775595D01*
X155707557Y-106727976D02*
X155659938Y-106775595D01*
X155659938Y-106775595D02*
X155612319Y-106870833D01*
X155612319Y-106870833D02*
X155612319Y-107108928D01*
X155612319Y-107108928D02*
X155659938Y-107204166D01*
X155659938Y-107204166D02*
X155707557Y-107251785D01*
X155707557Y-107251785D02*
X155802795Y-107299404D01*
X155802795Y-107299404D02*
X155898033Y-107299404D01*
X155898033Y-107299404D02*
X156040890Y-107251785D01*
X156040890Y-107251785D02*
X156612319Y-106680357D01*
X156612319Y-106680357D02*
X156612319Y-107299404D01*
X176222857Y-51324819D02*
X176556190Y-50848628D01*
X176794285Y-51324819D02*
X176794285Y-50324819D01*
X176794285Y-50324819D02*
X176413333Y-50324819D01*
X176413333Y-50324819D02*
X176318095Y-50372438D01*
X176318095Y-50372438D02*
X176270476Y-50420057D01*
X176270476Y-50420057D02*
X176222857Y-50515295D01*
X176222857Y-50515295D02*
X176222857Y-50658152D01*
X176222857Y-50658152D02*
X176270476Y-50753390D01*
X176270476Y-50753390D02*
X176318095Y-50801009D01*
X176318095Y-50801009D02*
X176413333Y-50848628D01*
X176413333Y-50848628D02*
X176794285Y-50848628D01*
X175270476Y-51324819D02*
X175841904Y-51324819D01*
X175556190Y-51324819D02*
X175556190Y-50324819D01*
X175556190Y-50324819D02*
X175651428Y-50467676D01*
X175651428Y-50467676D02*
X175746666Y-50562914D01*
X175746666Y-50562914D02*
X175841904Y-50610533D01*
X174651428Y-50324819D02*
X174556190Y-50324819D01*
X174556190Y-50324819D02*
X174460952Y-50372438D01*
X174460952Y-50372438D02*
X174413333Y-50420057D01*
X174413333Y-50420057D02*
X174365714Y-50515295D01*
X174365714Y-50515295D02*
X174318095Y-50705771D01*
X174318095Y-50705771D02*
X174318095Y-50943866D01*
X174318095Y-50943866D02*
X174365714Y-51134342D01*
X174365714Y-51134342D02*
X174413333Y-51229580D01*
X174413333Y-51229580D02*
X174460952Y-51277200D01*
X174460952Y-51277200D02*
X174556190Y-51324819D01*
X174556190Y-51324819D02*
X174651428Y-51324819D01*
X174651428Y-51324819D02*
X174746666Y-51277200D01*
X174746666Y-51277200D02*
X174794285Y-51229580D01*
X174794285Y-51229580D02*
X174841904Y-51134342D01*
X174841904Y-51134342D02*
X174889523Y-50943866D01*
X174889523Y-50943866D02*
X174889523Y-50705771D01*
X174889523Y-50705771D02*
X174841904Y-50515295D01*
X174841904Y-50515295D02*
X174794285Y-50420057D01*
X174794285Y-50420057D02*
X174746666Y-50372438D01*
X174746666Y-50372438D02*
X174651428Y-50324819D01*
X172766666Y-63654819D02*
X173099999Y-63178628D01*
X173338094Y-63654819D02*
X173338094Y-62654819D01*
X173338094Y-62654819D02*
X172957142Y-62654819D01*
X172957142Y-62654819D02*
X172861904Y-62702438D01*
X172861904Y-62702438D02*
X172814285Y-62750057D01*
X172814285Y-62750057D02*
X172766666Y-62845295D01*
X172766666Y-62845295D02*
X172766666Y-62988152D01*
X172766666Y-62988152D02*
X172814285Y-63083390D01*
X172814285Y-63083390D02*
X172861904Y-63131009D01*
X172861904Y-63131009D02*
X172957142Y-63178628D01*
X172957142Y-63178628D02*
X173338094Y-63178628D01*
X172433332Y-62654819D02*
X171766666Y-63654819D01*
X171766666Y-62654819D02*
X172433332Y-63654819D01*
X141385713Y-93073866D02*
X140623809Y-93073866D01*
X141004761Y-93454819D02*
X141004761Y-92692914D01*
X139671428Y-92454819D02*
X140147618Y-92454819D01*
X140147618Y-92454819D02*
X140195237Y-92931009D01*
X140195237Y-92931009D02*
X140147618Y-92883390D01*
X140147618Y-92883390D02*
X140052380Y-92835771D01*
X140052380Y-92835771D02*
X139814285Y-92835771D01*
X139814285Y-92835771D02*
X139719047Y-92883390D01*
X139719047Y-92883390D02*
X139671428Y-92931009D01*
X139671428Y-92931009D02*
X139623809Y-93026247D01*
X139623809Y-93026247D02*
X139623809Y-93264342D01*
X139623809Y-93264342D02*
X139671428Y-93359580D01*
X139671428Y-93359580D02*
X139719047Y-93407200D01*
X139719047Y-93407200D02*
X139814285Y-93454819D01*
X139814285Y-93454819D02*
X140052380Y-93454819D01*
X140052380Y-93454819D02*
X140147618Y-93407200D01*
X140147618Y-93407200D02*
X140195237Y-93359580D01*
X139338094Y-92454819D02*
X139004761Y-93454819D01*
X139004761Y-93454819D02*
X138671428Y-92454819D01*
X150919047Y-82054819D02*
X150919047Y-81054819D01*
X150252381Y-81054819D02*
X150061905Y-81054819D01*
X150061905Y-81054819D02*
X149966667Y-81102438D01*
X149966667Y-81102438D02*
X149871429Y-81197676D01*
X149871429Y-81197676D02*
X149823810Y-81388152D01*
X149823810Y-81388152D02*
X149823810Y-81721485D01*
X149823810Y-81721485D02*
X149871429Y-81911961D01*
X149871429Y-81911961D02*
X149966667Y-82007200D01*
X149966667Y-82007200D02*
X150061905Y-82054819D01*
X150061905Y-82054819D02*
X150252381Y-82054819D01*
X150252381Y-82054819D02*
X150347619Y-82007200D01*
X150347619Y-82007200D02*
X150442857Y-81911961D01*
X150442857Y-81911961D02*
X150490476Y-81721485D01*
X150490476Y-81721485D02*
X150490476Y-81388152D01*
X150490476Y-81388152D02*
X150442857Y-81197676D01*
X150442857Y-81197676D02*
X150347619Y-81102438D01*
X150347619Y-81102438D02*
X150252381Y-81054819D01*
X149204762Y-81054819D02*
X149109524Y-81054819D01*
X149109524Y-81054819D02*
X149014286Y-81102438D01*
X149014286Y-81102438D02*
X148966667Y-81150057D01*
X148966667Y-81150057D02*
X148919048Y-81245295D01*
X148919048Y-81245295D02*
X148871429Y-81435771D01*
X148871429Y-81435771D02*
X148871429Y-81673866D01*
X148871429Y-81673866D02*
X148919048Y-81864342D01*
X148919048Y-81864342D02*
X148966667Y-81959580D01*
X148966667Y-81959580D02*
X149014286Y-82007200D01*
X149014286Y-82007200D02*
X149109524Y-82054819D01*
X149109524Y-82054819D02*
X149204762Y-82054819D01*
X149204762Y-82054819D02*
X149300000Y-82007200D01*
X149300000Y-82007200D02*
X149347619Y-81959580D01*
X149347619Y-81959580D02*
X149395238Y-81864342D01*
X149395238Y-81864342D02*
X149442857Y-81673866D01*
X149442857Y-81673866D02*
X149442857Y-81435771D01*
X149442857Y-81435771D02*
X149395238Y-81245295D01*
X149395238Y-81245295D02*
X149347619Y-81150057D01*
X149347619Y-81150057D02*
X149300000Y-81102438D01*
X149300000Y-81102438D02*
X149204762Y-81054819D01*
X147966667Y-81054819D02*
X148442857Y-81054819D01*
X148442857Y-81054819D02*
X148490476Y-81531009D01*
X148490476Y-81531009D02*
X148442857Y-81483390D01*
X148442857Y-81483390D02*
X148347619Y-81435771D01*
X148347619Y-81435771D02*
X148109524Y-81435771D01*
X148109524Y-81435771D02*
X148014286Y-81483390D01*
X148014286Y-81483390D02*
X147966667Y-81531009D01*
X147966667Y-81531009D02*
X147919048Y-81626247D01*
X147919048Y-81626247D02*
X147919048Y-81864342D01*
X147919048Y-81864342D02*
X147966667Y-81959580D01*
X147966667Y-81959580D02*
X148014286Y-82007200D01*
X148014286Y-82007200D02*
X148109524Y-82054819D01*
X148109524Y-82054819D02*
X148347619Y-82054819D01*
X148347619Y-82054819D02*
X148442857Y-82007200D01*
X148442857Y-82007200D02*
X148490476Y-81959580D01*
X147490476Y-81673866D02*
X146728572Y-81673866D01*
X145680953Y-82054819D02*
X146014286Y-81578628D01*
X146252381Y-82054819D02*
X146252381Y-81054819D01*
X146252381Y-81054819D02*
X145871429Y-81054819D01*
X145871429Y-81054819D02*
X145776191Y-81102438D01*
X145776191Y-81102438D02*
X145728572Y-81150057D01*
X145728572Y-81150057D02*
X145680953Y-81245295D01*
X145680953Y-81245295D02*
X145680953Y-81388152D01*
X145680953Y-81388152D02*
X145728572Y-81483390D01*
X145728572Y-81483390D02*
X145776191Y-81531009D01*
X145776191Y-81531009D02*
X145871429Y-81578628D01*
X145871429Y-81578628D02*
X146252381Y-81578628D01*
X144871429Y-82007200D02*
X144966667Y-82054819D01*
X144966667Y-82054819D02*
X145157143Y-82054819D01*
X145157143Y-82054819D02*
X145252381Y-82007200D01*
X145252381Y-82007200D02*
X145300000Y-81911961D01*
X145300000Y-81911961D02*
X145300000Y-81531009D01*
X145300000Y-81531009D02*
X145252381Y-81435771D01*
X145252381Y-81435771D02*
X145157143Y-81388152D01*
X145157143Y-81388152D02*
X144966667Y-81388152D01*
X144966667Y-81388152D02*
X144871429Y-81435771D01*
X144871429Y-81435771D02*
X144823810Y-81531009D01*
X144823810Y-81531009D02*
X144823810Y-81626247D01*
X144823810Y-81626247D02*
X145300000Y-81721485D01*
X144252381Y-82054819D02*
X144347619Y-82007200D01*
X144347619Y-82007200D02*
X144395238Y-81911961D01*
X144395238Y-81911961D02*
X144395238Y-81054819D01*
X143442857Y-82054819D02*
X143442857Y-81531009D01*
X143442857Y-81531009D02*
X143490476Y-81435771D01*
X143490476Y-81435771D02*
X143585714Y-81388152D01*
X143585714Y-81388152D02*
X143776190Y-81388152D01*
X143776190Y-81388152D02*
X143871428Y-81435771D01*
X143442857Y-82007200D02*
X143538095Y-82054819D01*
X143538095Y-82054819D02*
X143776190Y-82054819D01*
X143776190Y-82054819D02*
X143871428Y-82007200D01*
X143871428Y-82007200D02*
X143919047Y-81911961D01*
X143919047Y-81911961D02*
X143919047Y-81816723D01*
X143919047Y-81816723D02*
X143871428Y-81721485D01*
X143871428Y-81721485D02*
X143776190Y-81673866D01*
X143776190Y-81673866D02*
X143538095Y-81673866D01*
X143538095Y-81673866D02*
X143442857Y-81626247D01*
X143061904Y-81388152D02*
X142823809Y-82054819D01*
X142585714Y-81388152D02*
X142823809Y-82054819D01*
X142823809Y-82054819D02*
X142919047Y-82292914D01*
X142919047Y-82292914D02*
X142966666Y-82340533D01*
X142966666Y-82340533D02*
X143061904Y-82388152D01*
X162138094Y-50654819D02*
X162138094Y-49654819D01*
X162138094Y-49654819D02*
X161899999Y-49654819D01*
X161899999Y-49654819D02*
X161757142Y-49702438D01*
X161757142Y-49702438D02*
X161661904Y-49797676D01*
X161661904Y-49797676D02*
X161614285Y-49892914D01*
X161614285Y-49892914D02*
X161566666Y-50083390D01*
X161566666Y-50083390D02*
X161566666Y-50226247D01*
X161566666Y-50226247D02*
X161614285Y-50416723D01*
X161614285Y-50416723D02*
X161661904Y-50511961D01*
X161661904Y-50511961D02*
X161757142Y-50607200D01*
X161757142Y-50607200D02*
X161899999Y-50654819D01*
X161899999Y-50654819D02*
X162138094Y-50654819D01*
X160995237Y-50083390D02*
X161090475Y-50035771D01*
X161090475Y-50035771D02*
X161138094Y-49988152D01*
X161138094Y-49988152D02*
X161185713Y-49892914D01*
X161185713Y-49892914D02*
X161185713Y-49845295D01*
X161185713Y-49845295D02*
X161138094Y-49750057D01*
X161138094Y-49750057D02*
X161090475Y-49702438D01*
X161090475Y-49702438D02*
X160995237Y-49654819D01*
X160995237Y-49654819D02*
X160804761Y-49654819D01*
X160804761Y-49654819D02*
X160709523Y-49702438D01*
X160709523Y-49702438D02*
X160661904Y-49750057D01*
X160661904Y-49750057D02*
X160614285Y-49845295D01*
X160614285Y-49845295D02*
X160614285Y-49892914D01*
X160614285Y-49892914D02*
X160661904Y-49988152D01*
X160661904Y-49988152D02*
X160709523Y-50035771D01*
X160709523Y-50035771D02*
X160804761Y-50083390D01*
X160804761Y-50083390D02*
X160995237Y-50083390D01*
X160995237Y-50083390D02*
X161090475Y-50131009D01*
X161090475Y-50131009D02*
X161138094Y-50178628D01*
X161138094Y-50178628D02*
X161185713Y-50273866D01*
X161185713Y-50273866D02*
X161185713Y-50464342D01*
X161185713Y-50464342D02*
X161138094Y-50559580D01*
X161138094Y-50559580D02*
X161090475Y-50607200D01*
X161090475Y-50607200D02*
X160995237Y-50654819D01*
X160995237Y-50654819D02*
X160804761Y-50654819D01*
X160804761Y-50654819D02*
X160709523Y-50607200D01*
X160709523Y-50607200D02*
X160661904Y-50559580D01*
X160661904Y-50559580D02*
X160614285Y-50464342D01*
X160614285Y-50464342D02*
X160614285Y-50273866D01*
X160614285Y-50273866D02*
X160661904Y-50178628D01*
X160661904Y-50178628D02*
X160709523Y-50131009D01*
X160709523Y-50131009D02*
X160804761Y-50083390D01*
X154169999Y-58324819D02*
X154169999Y-57324819D01*
X153503333Y-57324819D02*
X153312857Y-57324819D01*
X153312857Y-57324819D02*
X153217619Y-57372438D01*
X153217619Y-57372438D02*
X153122381Y-57467676D01*
X153122381Y-57467676D02*
X153074762Y-57658152D01*
X153074762Y-57658152D02*
X153074762Y-57991485D01*
X153074762Y-57991485D02*
X153122381Y-58181961D01*
X153122381Y-58181961D02*
X153217619Y-58277200D01*
X153217619Y-58277200D02*
X153312857Y-58324819D01*
X153312857Y-58324819D02*
X153503333Y-58324819D01*
X153503333Y-58324819D02*
X153598571Y-58277200D01*
X153598571Y-58277200D02*
X153693809Y-58181961D01*
X153693809Y-58181961D02*
X153741428Y-57991485D01*
X153741428Y-57991485D02*
X153741428Y-57658152D01*
X153741428Y-57658152D02*
X153693809Y-57467676D01*
X153693809Y-57467676D02*
X153598571Y-57372438D01*
X153598571Y-57372438D02*
X153503333Y-57324819D01*
X152503333Y-57753390D02*
X152598571Y-57705771D01*
X152598571Y-57705771D02*
X152646190Y-57658152D01*
X152646190Y-57658152D02*
X152693809Y-57562914D01*
X152693809Y-57562914D02*
X152693809Y-57515295D01*
X152693809Y-57515295D02*
X152646190Y-57420057D01*
X152646190Y-57420057D02*
X152598571Y-57372438D01*
X152598571Y-57372438D02*
X152503333Y-57324819D01*
X152503333Y-57324819D02*
X152312857Y-57324819D01*
X152312857Y-57324819D02*
X152217619Y-57372438D01*
X152217619Y-57372438D02*
X152170000Y-57420057D01*
X152170000Y-57420057D02*
X152122381Y-57515295D01*
X152122381Y-57515295D02*
X152122381Y-57562914D01*
X152122381Y-57562914D02*
X152170000Y-57658152D01*
X152170000Y-57658152D02*
X152217619Y-57705771D01*
X152217619Y-57705771D02*
X152312857Y-57753390D01*
X152312857Y-57753390D02*
X152503333Y-57753390D01*
X152503333Y-57753390D02*
X152598571Y-57801009D01*
X152598571Y-57801009D02*
X152646190Y-57848628D01*
X152646190Y-57848628D02*
X152693809Y-57943866D01*
X152693809Y-57943866D02*
X152693809Y-58134342D01*
X152693809Y-58134342D02*
X152646190Y-58229580D01*
X152646190Y-58229580D02*
X152598571Y-58277200D01*
X152598571Y-58277200D02*
X152503333Y-58324819D01*
X152503333Y-58324819D02*
X152312857Y-58324819D01*
X152312857Y-58324819D02*
X152217619Y-58277200D01*
X152217619Y-58277200D02*
X152170000Y-58229580D01*
X152170000Y-58229580D02*
X152122381Y-58134342D01*
X152122381Y-58134342D02*
X152122381Y-57943866D01*
X152122381Y-57943866D02*
X152170000Y-57848628D01*
X152170000Y-57848628D02*
X152217619Y-57801009D01*
X152217619Y-57801009D02*
X152312857Y-57753390D01*
X146966666Y-99754819D02*
X147299999Y-99278628D01*
X147538094Y-99754819D02*
X147538094Y-98754819D01*
X147538094Y-98754819D02*
X147157142Y-98754819D01*
X147157142Y-98754819D02*
X147061904Y-98802438D01*
X147061904Y-98802438D02*
X147014285Y-98850057D01*
X147014285Y-98850057D02*
X146966666Y-98945295D01*
X146966666Y-98945295D02*
X146966666Y-99088152D01*
X146966666Y-99088152D02*
X147014285Y-99183390D01*
X147014285Y-99183390D02*
X147061904Y-99231009D01*
X147061904Y-99231009D02*
X147157142Y-99278628D01*
X147157142Y-99278628D02*
X147538094Y-99278628D01*
X146109523Y-99088152D02*
X146109523Y-99754819D01*
X146347618Y-98707200D02*
X146585713Y-99421485D01*
X146585713Y-99421485D02*
X145966666Y-99421485D01*
X167561904Y-69259580D02*
X167609523Y-69307200D01*
X167609523Y-69307200D02*
X167752380Y-69354819D01*
X167752380Y-69354819D02*
X167847618Y-69354819D01*
X167847618Y-69354819D02*
X167990475Y-69307200D01*
X167990475Y-69307200D02*
X168085713Y-69211961D01*
X168085713Y-69211961D02*
X168133332Y-69116723D01*
X168133332Y-69116723D02*
X168180951Y-68926247D01*
X168180951Y-68926247D02*
X168180951Y-68783390D01*
X168180951Y-68783390D02*
X168133332Y-68592914D01*
X168133332Y-68592914D02*
X168085713Y-68497676D01*
X168085713Y-68497676D02*
X167990475Y-68402438D01*
X167990475Y-68402438D02*
X167847618Y-68354819D01*
X167847618Y-68354819D02*
X167752380Y-68354819D01*
X167752380Y-68354819D02*
X167609523Y-68402438D01*
X167609523Y-68402438D02*
X167561904Y-68450057D01*
X166609523Y-69354819D02*
X167180951Y-69354819D01*
X166895237Y-69354819D02*
X166895237Y-68354819D01*
X166895237Y-68354819D02*
X166990475Y-68497676D01*
X166990475Y-68497676D02*
X167085713Y-68592914D01*
X167085713Y-68592914D02*
X167180951Y-68640533D01*
X166276189Y-68354819D02*
X165657142Y-68354819D01*
X165657142Y-68354819D02*
X165990475Y-68735771D01*
X165990475Y-68735771D02*
X165847618Y-68735771D01*
X165847618Y-68735771D02*
X165752380Y-68783390D01*
X165752380Y-68783390D02*
X165704761Y-68831009D01*
X165704761Y-68831009D02*
X165657142Y-68926247D01*
X165657142Y-68926247D02*
X165657142Y-69164342D01*
X165657142Y-69164342D02*
X165704761Y-69259580D01*
X165704761Y-69259580D02*
X165752380Y-69307200D01*
X165752380Y-69307200D02*
X165847618Y-69354819D01*
X165847618Y-69354819D02*
X166133332Y-69354819D01*
X166133332Y-69354819D02*
X166228570Y-69307200D01*
X166228570Y-69307200D02*
X166276189Y-69259580D01*
X165228570Y-68973866D02*
X164466666Y-68973866D01*
X163799999Y-68354819D02*
X163609523Y-68354819D01*
X163609523Y-68354819D02*
X163514285Y-68402438D01*
X163514285Y-68402438D02*
X163419047Y-68497676D01*
X163419047Y-68497676D02*
X163371428Y-68688152D01*
X163371428Y-68688152D02*
X163371428Y-69021485D01*
X163371428Y-69021485D02*
X163419047Y-69211961D01*
X163419047Y-69211961D02*
X163514285Y-69307200D01*
X163514285Y-69307200D02*
X163609523Y-69354819D01*
X163609523Y-69354819D02*
X163799999Y-69354819D01*
X163799999Y-69354819D02*
X163895237Y-69307200D01*
X163895237Y-69307200D02*
X163990475Y-69211961D01*
X163990475Y-69211961D02*
X164038094Y-69021485D01*
X164038094Y-69021485D02*
X164038094Y-68688152D01*
X164038094Y-68688152D02*
X163990475Y-68497676D01*
X163990475Y-68497676D02*
X163895237Y-68402438D01*
X163895237Y-68402438D02*
X163799999Y-68354819D01*
X162419047Y-69354819D02*
X162990475Y-69354819D01*
X162704761Y-69354819D02*
X162704761Y-68354819D01*
X162704761Y-68354819D02*
X162799999Y-68497676D01*
X162799999Y-68497676D02*
X162895237Y-68592914D01*
X162895237Y-68592914D02*
X162990475Y-68640533D01*
X146514285Y-106254819D02*
X146514285Y-105254819D01*
X146514285Y-105254819D02*
X146276190Y-105254819D01*
X146276190Y-105254819D02*
X146133333Y-105302438D01*
X146133333Y-105302438D02*
X146038095Y-105397676D01*
X146038095Y-105397676D02*
X145990476Y-105492914D01*
X145990476Y-105492914D02*
X145942857Y-105683390D01*
X145942857Y-105683390D02*
X145942857Y-105826247D01*
X145942857Y-105826247D02*
X145990476Y-106016723D01*
X145990476Y-106016723D02*
X146038095Y-106111961D01*
X146038095Y-106111961D02*
X146133333Y-106207200D01*
X146133333Y-106207200D02*
X146276190Y-106254819D01*
X146276190Y-106254819D02*
X146514285Y-106254819D01*
X144990476Y-106254819D02*
X145561904Y-106254819D01*
X145276190Y-106254819D02*
X145276190Y-105254819D01*
X145276190Y-105254819D02*
X145371428Y-105397676D01*
X145371428Y-105397676D02*
X145466666Y-105492914D01*
X145466666Y-105492914D02*
X145561904Y-105540533D01*
X144371428Y-105254819D02*
X144276190Y-105254819D01*
X144276190Y-105254819D02*
X144180952Y-105302438D01*
X144180952Y-105302438D02*
X144133333Y-105350057D01*
X144133333Y-105350057D02*
X144085714Y-105445295D01*
X144085714Y-105445295D02*
X144038095Y-105635771D01*
X144038095Y-105635771D02*
X144038095Y-105873866D01*
X144038095Y-105873866D02*
X144085714Y-106064342D01*
X144085714Y-106064342D02*
X144133333Y-106159580D01*
X144133333Y-106159580D02*
X144180952Y-106207200D01*
X144180952Y-106207200D02*
X144276190Y-106254819D01*
X144276190Y-106254819D02*
X144371428Y-106254819D01*
X144371428Y-106254819D02*
X144466666Y-106207200D01*
X144466666Y-106207200D02*
X144514285Y-106159580D01*
X144514285Y-106159580D02*
X144561904Y-106064342D01*
X144561904Y-106064342D02*
X144609523Y-105873866D01*
X144609523Y-105873866D02*
X144609523Y-105635771D01*
X144609523Y-105635771D02*
X144561904Y-105445295D01*
X144561904Y-105445295D02*
X144514285Y-105350057D01*
X144514285Y-105350057D02*
X144466666Y-105302438D01*
X144466666Y-105302438D02*
X144371428Y-105254819D01*
X165186189Y-63834819D02*
X165186189Y-62834819D01*
X164519523Y-62834819D02*
X164329047Y-62834819D01*
X164329047Y-62834819D02*
X164233809Y-62882438D01*
X164233809Y-62882438D02*
X164138571Y-62977676D01*
X164138571Y-62977676D02*
X164090952Y-63168152D01*
X164090952Y-63168152D02*
X164090952Y-63501485D01*
X164090952Y-63501485D02*
X164138571Y-63691961D01*
X164138571Y-63691961D02*
X164233809Y-63787200D01*
X164233809Y-63787200D02*
X164329047Y-63834819D01*
X164329047Y-63834819D02*
X164519523Y-63834819D01*
X164519523Y-63834819D02*
X164614761Y-63787200D01*
X164614761Y-63787200D02*
X164709999Y-63691961D01*
X164709999Y-63691961D02*
X164757618Y-63501485D01*
X164757618Y-63501485D02*
X164757618Y-63168152D01*
X164757618Y-63168152D02*
X164709999Y-62977676D01*
X164709999Y-62977676D02*
X164614761Y-62882438D01*
X164614761Y-62882438D02*
X164519523Y-62834819D01*
X163138571Y-63834819D02*
X163709999Y-63834819D01*
X163424285Y-63834819D02*
X163424285Y-62834819D01*
X163424285Y-62834819D02*
X163519523Y-62977676D01*
X163519523Y-62977676D02*
X163614761Y-63072914D01*
X163614761Y-63072914D02*
X163709999Y-63120533D01*
X162519523Y-62834819D02*
X162424285Y-62834819D01*
X162424285Y-62834819D02*
X162329047Y-62882438D01*
X162329047Y-62882438D02*
X162281428Y-62930057D01*
X162281428Y-62930057D02*
X162233809Y-63025295D01*
X162233809Y-63025295D02*
X162186190Y-63215771D01*
X162186190Y-63215771D02*
X162186190Y-63453866D01*
X162186190Y-63453866D02*
X162233809Y-63644342D01*
X162233809Y-63644342D02*
X162281428Y-63739580D01*
X162281428Y-63739580D02*
X162329047Y-63787200D01*
X162329047Y-63787200D02*
X162424285Y-63834819D01*
X162424285Y-63834819D02*
X162519523Y-63834819D01*
X162519523Y-63834819D02*
X162614761Y-63787200D01*
X162614761Y-63787200D02*
X162662380Y-63739580D01*
X162662380Y-63739580D02*
X162709999Y-63644342D01*
X162709999Y-63644342D02*
X162757618Y-63453866D01*
X162757618Y-63453866D02*
X162757618Y-63215771D01*
X162757618Y-63215771D02*
X162709999Y-63025295D01*
X162709999Y-63025295D02*
X162662380Y-62930057D01*
X162662380Y-62930057D02*
X162614761Y-62882438D01*
X162614761Y-62882438D02*
X162519523Y-62834819D01*
X140166666Y-48169580D02*
X140214285Y-48217200D01*
X140214285Y-48217200D02*
X140357142Y-48264819D01*
X140357142Y-48264819D02*
X140452380Y-48264819D01*
X140452380Y-48264819D02*
X140595237Y-48217200D01*
X140595237Y-48217200D02*
X140690475Y-48121961D01*
X140690475Y-48121961D02*
X140738094Y-48026723D01*
X140738094Y-48026723D02*
X140785713Y-47836247D01*
X140785713Y-47836247D02*
X140785713Y-47693390D01*
X140785713Y-47693390D02*
X140738094Y-47502914D01*
X140738094Y-47502914D02*
X140690475Y-47407676D01*
X140690475Y-47407676D02*
X140595237Y-47312438D01*
X140595237Y-47312438D02*
X140452380Y-47264819D01*
X140452380Y-47264819D02*
X140357142Y-47264819D01*
X140357142Y-47264819D02*
X140214285Y-47312438D01*
X140214285Y-47312438D02*
X140166666Y-47360057D01*
X139785713Y-47360057D02*
X139738094Y-47312438D01*
X139738094Y-47312438D02*
X139642856Y-47264819D01*
X139642856Y-47264819D02*
X139404761Y-47264819D01*
X139404761Y-47264819D02*
X139309523Y-47312438D01*
X139309523Y-47312438D02*
X139261904Y-47360057D01*
X139261904Y-47360057D02*
X139214285Y-47455295D01*
X139214285Y-47455295D02*
X139214285Y-47550533D01*
X139214285Y-47550533D02*
X139261904Y-47693390D01*
X139261904Y-47693390D02*
X139833332Y-48264819D01*
X139833332Y-48264819D02*
X139214285Y-48264819D01*
D13*
%TO.C,TP18*%
X152010000Y-75830000D02*
G75*
G02*
X149610000Y-75830000I-1200000J0D01*
G01*
X149610000Y-75830000D02*
G75*
G02*
X152010000Y-75830000I1200000J0D01*
G01*
%TO.C,C17*%
X168772500Y-79023752D02*
X168772500Y-78501248D01*
X170242500Y-79023752D02*
X170242500Y-78501248D01*
%TO.C,D4*%
X146710000Y-72900000D02*
X146710000Y-67840000D01*
X149430000Y-67840000D02*
X146710000Y-67840000D01*
X149430000Y-72900000D02*
X149430000Y-67840000D01*
%TO.C,D9*%
X140200000Y-97640000D02*
X145260000Y-97640000D01*
X140200000Y-100360000D02*
X145260000Y-100360000D01*
X145260000Y-100360000D02*
X145260000Y-97640000D01*
%TO.C,TP13*%
X158100707Y-85119293D02*
G75*
G02*
X155700707Y-85119293I-1200000J0D01*
G01*
X155700707Y-85119293D02*
G75*
G02*
X158100707Y-85119293I1200000J0D01*
G01*
%TO.C,TP1*%
X177600000Y-79200000D02*
G75*
G02*
X175200000Y-79200000I-1200000J0D01*
G01*
X175200000Y-79200000D02*
G75*
G02*
X177600000Y-79200000I1200000J0D01*
G01*
%TO.C,D7*%
X146690000Y-64350000D02*
X146690000Y-67650000D01*
X153700000Y-64350000D02*
X146690000Y-64350000D01*
X153700000Y-67650000D02*
X146690000Y-67650000D01*
%TO.C,R12*%
X174765000Y-87372936D02*
X174765000Y-87827064D01*
X176235000Y-87372936D02*
X176235000Y-87827064D01*
%TO.C,R15*%
X173102500Y-78572936D02*
X173102500Y-79027064D01*
X174572500Y-78572936D02*
X174572500Y-79027064D01*
%TO.C,TP5*%
X166800000Y-72900000D02*
G75*
G02*
X164400000Y-72900000I-1200000J0D01*
G01*
X164400000Y-72900000D02*
G75*
G02*
X166800000Y-72900000I1200000J0D01*
G01*
%TO.C,D6*%
X166687500Y-65160000D02*
X171747500Y-65160000D01*
X166687500Y-67880000D02*
X171747500Y-67880000D01*
X171747500Y-67880000D02*
X171747500Y-65160000D01*
%TO.C,D3*%
X143130000Y-91790000D02*
X143130000Y-95800000D01*
X143130000Y-95800000D02*
X145130000Y-95800000D01*
X145130000Y-91790000D02*
X145130000Y-95800000D01*
%TO.C,C1*%
X143123752Y-45065000D02*
X142601248Y-45065000D01*
X143123752Y-46535000D02*
X142601248Y-46535000D01*
%TO.C,R8*%
X167265000Y-52672936D02*
X167265000Y-53127064D01*
X168735000Y-52672936D02*
X168735000Y-53127064D01*
%TO.C,TP20*%
X154470000Y-92030000D02*
G75*
G02*
X152070000Y-92030000I-1200000J0D01*
G01*
X152070000Y-92030000D02*
G75*
G02*
X154470000Y-92030000I1200000J0D01*
G01*
%TO.C,U4*%
X167125000Y-82645000D02*
X169075000Y-82645000D01*
X167125000Y-87765000D02*
X169075000Y-87765000D01*
X171025000Y-82645000D02*
X169075000Y-82645000D01*
X171025000Y-87765000D02*
X169075000Y-87765000D01*
X166615000Y-88000000D02*
X166135000Y-88000000D01*
X166375000Y-87670000D01*
X166615000Y-88000000D01*
G36*
X166615000Y-88000000D02*
G01*
X166135000Y-88000000D01*
X166375000Y-87670000D01*
X166615000Y-88000000D01*
G37*
%TO.C,R10-O1*%
X140072936Y-84765000D02*
X140527064Y-84765000D01*
X140072936Y-86235000D02*
X140527064Y-86235000D01*
%TO.C,R16*%
X170972500Y-79027064D02*
X170972500Y-78572936D01*
X172442500Y-79027064D02*
X172442500Y-78572936D01*
%TO.C,TP15*%
X166320000Y-59780000D02*
G75*
G02*
X163920000Y-59780000I-1200000J0D01*
G01*
X163920000Y-59780000D02*
G75*
G02*
X166320000Y-59780000I1200000J0D01*
G01*
%TO.C,C16*%
X176823752Y-81965000D02*
X176301248Y-81965000D01*
X176823752Y-83435000D02*
X176301248Y-83435000D01*
%TO.C,R13*%
X176752064Y-84065000D02*
X176297936Y-84065000D01*
X176752064Y-85535000D02*
X176297936Y-85535000D01*
%TO.C,TP9*%
X152660000Y-61240000D02*
G75*
G02*
X150260000Y-61240000I-1200000J0D01*
G01*
X150260000Y-61240000D02*
G75*
G02*
X152660000Y-61240000I1200000J0D01*
G01*
D10*
%TO.C,G\u002A\u002A\u002A*%
G36*
X150541846Y-53693692D02*
G01*
X150541846Y-53850000D01*
X150385539Y-53850000D01*
X150229231Y-53850000D01*
X150229231Y-53693692D01*
X150229231Y-53537384D01*
X150385539Y-53537384D01*
X150541846Y-53537384D01*
X150541846Y-53693692D01*
G37*
G36*
X147728308Y-52599538D02*
G01*
X147728308Y-53068461D01*
X147728308Y-54162615D01*
X147884616Y-54162615D01*
X148040923Y-54162615D01*
X148040923Y-54475230D01*
X148040923Y-54787846D01*
X147728308Y-54787846D01*
X147415693Y-54787846D01*
X147415693Y-55100461D01*
X147415693Y-55413077D01*
X147572000Y-55413077D01*
X147728308Y-55413077D01*
X147728308Y-55569384D01*
X147728308Y-55725692D01*
X148040923Y-55725692D01*
X148353539Y-55725692D01*
X148353539Y-55569384D01*
X148353539Y-55413077D01*
X148509846Y-55413077D01*
X148666154Y-55413077D01*
X148666154Y-55100461D01*
X148666154Y-54787846D01*
X148822462Y-54787846D01*
X148978770Y-54787846D01*
X148978770Y-54475230D01*
X148978770Y-54162615D01*
X149135077Y-54162615D01*
X149291385Y-54162615D01*
X149291385Y-54006307D01*
X149291385Y-53850000D01*
X149760308Y-53850000D01*
X150229231Y-53850000D01*
X150229231Y-54006307D01*
X150229231Y-54162615D01*
X149916616Y-54162615D01*
X149604000Y-54162615D01*
X149604000Y-54475230D01*
X149604000Y-54787846D01*
X149447693Y-54787846D01*
X149291385Y-54787846D01*
X149291385Y-55100461D01*
X149291385Y-55413077D01*
X149135077Y-55413077D01*
X148978770Y-55413077D01*
X148978770Y-55725692D01*
X148978770Y-56038307D01*
X148822462Y-56038307D01*
X148666154Y-56038307D01*
X148666154Y-56194615D01*
X148666154Y-56350923D01*
X148197231Y-56350923D01*
X147728308Y-56350923D01*
X147728308Y-56194615D01*
X147728308Y-56038307D01*
X147572000Y-56038307D01*
X147415693Y-56038307D01*
X147415693Y-55882000D01*
X147415693Y-55725692D01*
X147259385Y-55725692D01*
X147103077Y-55725692D01*
X147103077Y-55569384D01*
X147103077Y-55413077D01*
X146946770Y-55413077D01*
X146790462Y-55413077D01*
X146790462Y-55100461D01*
X146790462Y-54787846D01*
X146634154Y-54787846D01*
X146477846Y-54787846D01*
X146477846Y-56507230D01*
X146477846Y-58226615D01*
X146165231Y-58226615D01*
X145852616Y-58226615D01*
X145852616Y-56507230D01*
X145852616Y-54787846D01*
X145540000Y-54787846D01*
X145227385Y-54787846D01*
X145227385Y-56194615D01*
X145227385Y-57601384D01*
X144914770Y-57601384D01*
X144602154Y-57601384D01*
X144602154Y-56194615D01*
X144602154Y-54787846D01*
X144445846Y-54787846D01*
X144289539Y-54787846D01*
X144289539Y-55100461D01*
X144289539Y-55413077D01*
X144133231Y-55413077D01*
X143976923Y-55413077D01*
X143976923Y-55569384D01*
X143976923Y-55725692D01*
X143820616Y-55725692D01*
X143664308Y-55725692D01*
X143664308Y-55882000D01*
X143664308Y-56038307D01*
X143508000Y-56038307D01*
X143351693Y-56038307D01*
X143351693Y-56194615D01*
X143351693Y-56350923D01*
X142882770Y-56350923D01*
X142413846Y-56350923D01*
X142413846Y-56194615D01*
X142413846Y-56038307D01*
X142257539Y-56038307D01*
X142101231Y-56038307D01*
X142101231Y-55725692D01*
X142101231Y-55413077D01*
X141944923Y-55413077D01*
X141788616Y-55413077D01*
X141788616Y-55100461D01*
X141788616Y-54787846D01*
X141632308Y-54787846D01*
X141476000Y-54787846D01*
X141476000Y-54475230D01*
X141476000Y-54162615D01*
X141163385Y-54162615D01*
X140850770Y-54162615D01*
X140850770Y-54006307D01*
X140850770Y-53850000D01*
X141319693Y-53850000D01*
X141788616Y-53850000D01*
X141788616Y-54006307D01*
X141788616Y-54162615D01*
X141944923Y-54162615D01*
X142101231Y-54162615D01*
X142101231Y-54475230D01*
X142101231Y-54787846D01*
X142257539Y-54787846D01*
X142413846Y-54787846D01*
X142413846Y-55100461D01*
X142413846Y-55413077D01*
X142570154Y-55413077D01*
X142726462Y-55413077D01*
X142726462Y-55569384D01*
X142726462Y-55725692D01*
X143039077Y-55725692D01*
X143351693Y-55725692D01*
X143351693Y-55569384D01*
X143351693Y-55413077D01*
X143508000Y-55413077D01*
X143664308Y-55413077D01*
X143664308Y-55100461D01*
X143664308Y-54787846D01*
X143351693Y-54787846D01*
X143039077Y-54787846D01*
X143039077Y-54475230D01*
X143039077Y-54162615D01*
X143195385Y-54162615D01*
X143351693Y-54162615D01*
X143351693Y-52912154D01*
X145227385Y-52912154D01*
X145227385Y-53068461D01*
X145227385Y-53224769D01*
X145540000Y-53224769D01*
X145852616Y-53224769D01*
X145852616Y-53068461D01*
X145852616Y-52912154D01*
X145540000Y-52912154D01*
X145227385Y-52912154D01*
X143351693Y-52912154D01*
X143351693Y-52599538D01*
X143351693Y-51349077D01*
X143976923Y-51349077D01*
X143976923Y-51974307D01*
X143976923Y-52599538D01*
X144133231Y-52599538D01*
X144289539Y-52599538D01*
X144289539Y-52443230D01*
X144289539Y-52286923D01*
X144602154Y-52286923D01*
X144914770Y-52286923D01*
X144914770Y-52443230D01*
X144914770Y-52599538D01*
X145071077Y-52599538D01*
X145227385Y-52599538D01*
X145227385Y-51974307D01*
X145852616Y-51974307D01*
X145852616Y-52599538D01*
X146008923Y-52599538D01*
X146165231Y-52599538D01*
X146165231Y-52443230D01*
X146165231Y-52286923D01*
X146477846Y-52286923D01*
X146790462Y-52286923D01*
X146790462Y-52443230D01*
X146790462Y-52599538D01*
X146946770Y-52599538D01*
X147103077Y-52599538D01*
X147103077Y-51974307D01*
X147103077Y-51349077D01*
X146946770Y-51349077D01*
X146790462Y-51349077D01*
X146790462Y-51192769D01*
X146790462Y-51036461D01*
X146477846Y-51036461D01*
X146165231Y-51036461D01*
X146165231Y-51192769D01*
X146165231Y-51349077D01*
X146008923Y-51349077D01*
X145852616Y-51349077D01*
X145852616Y-51974307D01*
X145227385Y-51974307D01*
X145227385Y-51349077D01*
X145071077Y-51349077D01*
X144914770Y-51349077D01*
X144914770Y-51192769D01*
X144914770Y-51036461D01*
X144602154Y-51036461D01*
X144289539Y-51036461D01*
X144289539Y-51192769D01*
X144289539Y-51349077D01*
X144133231Y-51349077D01*
X143976923Y-51349077D01*
X143351693Y-51349077D01*
X143351693Y-51036461D01*
X143508000Y-51036461D01*
X143664308Y-51036461D01*
X143664308Y-50723846D01*
X143664308Y-50411230D01*
X143820616Y-50411230D01*
X143976923Y-50411230D01*
X143976923Y-50254923D01*
X143976923Y-50098615D01*
X144133231Y-50098615D01*
X144289539Y-50098615D01*
X144289539Y-49942307D01*
X144289539Y-49786000D01*
X144602154Y-49786000D01*
X144914770Y-49786000D01*
X144914770Y-49629692D01*
X144914770Y-49473384D01*
X145540000Y-49473384D01*
X146165231Y-49473384D01*
X146165231Y-49629692D01*
X146165231Y-49786000D01*
X146477846Y-49786000D01*
X146790462Y-49786000D01*
X146790462Y-49942307D01*
X146790462Y-50098615D01*
X146946770Y-50098615D01*
X147103077Y-50098615D01*
X147103077Y-50254923D01*
X147103077Y-50411230D01*
X147259385Y-50411230D01*
X147415693Y-50411230D01*
X147415693Y-50723846D01*
X147415693Y-51036461D01*
X147572000Y-51036461D01*
X147728308Y-51036461D01*
X147728308Y-51349077D01*
X147728308Y-52599538D01*
G37*
G36*
X140850770Y-53693692D02*
G01*
X140850770Y-53850000D01*
X140694462Y-53850000D01*
X140538154Y-53850000D01*
X140538154Y-53693692D01*
X140538154Y-53537384D01*
X140694462Y-53537384D01*
X140850770Y-53537384D01*
X140850770Y-53693692D01*
G37*
D13*
%TO.C,Q1*%
X145350000Y-87640000D02*
X146000000Y-87640000D01*
X145350000Y-90760000D02*
X146000000Y-90760000D01*
X146650000Y-87640000D02*
X146000000Y-87640000D01*
X146650000Y-90760000D02*
X146000000Y-90760000D01*
X147162500Y-87690000D02*
X146922500Y-87360000D01*
X147402500Y-87360000D01*
X147162500Y-87690000D01*
G36*
X147162500Y-87690000D02*
G01*
X146922500Y-87360000D01*
X147402500Y-87360000D01*
X147162500Y-87690000D01*
G37*
%TO.C,C8*%
X149935000Y-71098752D02*
X149935000Y-70576248D01*
X151405000Y-71098752D02*
X151405000Y-70576248D01*
%TO.C,R5*%
X148385000Y-96602936D02*
X148385000Y-97057064D01*
X149855000Y-96602936D02*
X149855000Y-97057064D01*
%TO.C,F1*%
X163312500Y-88840000D02*
X163312500Y-98790000D01*
X163312500Y-98790000D02*
X163772500Y-98790000D01*
X163772500Y-88840000D02*
X163312500Y-88840000D01*
X168102500Y-88840000D02*
X168562500Y-88840000D01*
X168102500Y-98790000D02*
X168562500Y-98790000D01*
X168562500Y-88840000D02*
X168562500Y-98790000D01*
%TO.C,R12-O1*%
X167365000Y-73627064D02*
X167365000Y-73172936D01*
X168835000Y-73627064D02*
X168835000Y-73172936D01*
%TO.C,R2*%
X175312936Y-54315000D02*
X175767064Y-54315000D01*
X175312936Y-55785000D02*
X175767064Y-55785000D01*
%TO.C,TP19*%
X161400000Y-80860000D02*
G75*
G02*
X159000000Y-80860000I-1200000J0D01*
G01*
X159000000Y-80860000D02*
G75*
G02*
X161400000Y-80860000I1200000J0D01*
G01*
%TO.C,C10*%
X142413752Y-57515000D02*
X141891248Y-57515000D01*
X142413752Y-58985000D02*
X141891248Y-58985000D01*
%TO.C,TP3*%
X161600000Y-55800000D02*
G75*
G02*
X159200000Y-55800000I-1200000J0D01*
G01*
X159200000Y-55800000D02*
G75*
G02*
X161600000Y-55800000I1200000J0D01*
G01*
%TO.C,R9*%
X148365000Y-89427064D02*
X148365000Y-88972936D01*
X149835000Y-89427064D02*
X149835000Y-88972936D01*
%TO.C,C12*%
X157102500Y-106298752D02*
X157102500Y-105776248D01*
X158572500Y-106298752D02*
X158572500Y-105776248D01*
%TO.C,R10*%
X175352936Y-51785000D02*
X175807064Y-51785000D01*
X175352936Y-53255000D02*
X175807064Y-53255000D01*
%TO.C,TP6*%
X171200000Y-63200000D02*
G75*
G02*
X168800000Y-63200000I-1200000J0D01*
G01*
X168800000Y-63200000D02*
G75*
G02*
X171200000Y-63200000I1200000J0D01*
G01*
%TO.C,TP17*%
X140230000Y-95030000D02*
G75*
G02*
X137830000Y-95030000I-1200000J0D01*
G01*
X137830000Y-95030000D02*
G75*
G02*
X140230000Y-95030000I1200000J0D01*
G01*
%TO.C,TP14*%
X148050000Y-83780000D02*
G75*
G02*
X145650000Y-83780000I-1200000J0D01*
G01*
X145650000Y-83780000D02*
G75*
G02*
X148050000Y-83780000I1200000J0D01*
G01*
%TO.C,D8*%
X151590000Y-48550000D02*
X151590000Y-51850000D01*
X158600000Y-48550000D02*
X151590000Y-48550000D01*
X158600000Y-51850000D02*
X151590000Y-51850000D01*
%TO.C,TP8*%
X151540000Y-57880000D02*
G75*
G02*
X149140000Y-57880000I-1200000J0D01*
G01*
X149140000Y-57880000D02*
G75*
G02*
X151540000Y-57880000I1200000J0D01*
G01*
%TO.C,R4*%
X146085000Y-97067064D02*
X146085000Y-96612936D01*
X147555000Y-97067064D02*
X147555000Y-96612936D01*
%TO.C,C13-O1*%
X165376248Y-69665000D02*
X165898752Y-69665000D01*
X165376248Y-71135000D02*
X165898752Y-71135000D01*
%TO.C,D10*%
X146740000Y-104540000D02*
X146740000Y-107260000D01*
X151800000Y-104540000D02*
X146740000Y-104540000D01*
X151800000Y-107260000D02*
X146740000Y-107260000D01*
%TO.C,TP10*%
X168110000Y-63380000D02*
G75*
G02*
X165710000Y-63380000I-1200000J0D01*
G01*
X165710000Y-63380000D02*
G75*
G02*
X168110000Y-63380000I1200000J0D01*
G01*
%TO.C,TP4*%
X139920000Y-88970000D02*
G75*
G02*
X137520000Y-88970000I-1200000J0D01*
G01*
X137520000Y-88970000D02*
G75*
G02*
X139920000Y-88970000I1200000J0D01*
G01*
%TO.C,C2*%
X143123752Y-47065000D02*
X142601248Y-47065000D01*
X143123752Y-48535000D02*
X142601248Y-48535000D01*
%TD*%
%LPC*%
D14*
%TO.C,U5-O1*%
X174690000Y-67580000D03*
D15*
X174690000Y-65040000D03*
X174690000Y-62500000D03*
%TD*%
D16*
%TO.C,K1*%
X153280000Y-95030000D03*
X160280000Y-95030000D03*
X141780000Y-95030000D03*
D17*
X141780000Y-90330000D03*
%TD*%
D18*
%TO.C,J1*%
X142597500Y-102400000D03*
D19*
X147677500Y-102400000D03*
X152757500Y-102400000D03*
X157837500Y-102400000D03*
%TD*%
D20*
%TO.C,U4-O1*%
X138730000Y-83600000D03*
D21*
X140000000Y-83600000D03*
X141270000Y-83600000D03*
%TD*%
D22*
%TO.C,J3*%
X173350000Y-56690000D03*
X173350000Y-50910000D03*
D23*
X172820000Y-58120000D03*
D24*
X177000000Y-58120000D03*
D23*
X172820000Y-49480000D03*
D24*
X177000000Y-49480000D03*
%TD*%
D18*
%TO.C,J2*%
X165937500Y-102400000D03*
D19*
X171017500Y-102400000D03*
%TD*%
D25*
%TO.C,C7*%
X170070000Y-91700000D03*
D26*
X175070000Y-91700000D03*
%TD*%
D27*
%TO.C,J3-O1*%
X170550000Y-74350000D03*
D28*
X170550000Y-71850000D03*
%TD*%
D26*
%TO.C,TP18*%
X150810000Y-75830000D03*
%TD*%
D29*
%TO.C,C17*%
X169507500Y-77725000D03*
X169507500Y-79800000D03*
%TD*%
D30*
%TO.C,D4*%
X148070000Y-68800000D03*
X148070000Y-73200000D03*
%TD*%
D31*
%TO.C,D9*%
X144300000Y-99000000D03*
X139900000Y-99000000D03*
%TD*%
D26*
%TO.C,TP13*%
X156900707Y-85119293D03*
%TD*%
%TO.C,TP1*%
X176400000Y-79200000D03*
%TD*%
D32*
%TO.C,D7*%
X148700000Y-66000000D03*
X153700000Y-66000000D03*
%TD*%
D33*
%TO.C,R12*%
X175500000Y-88600000D03*
X175500000Y-86600000D03*
%TD*%
%TO.C,R15*%
X173837500Y-79800000D03*
X173837500Y-77800000D03*
%TD*%
D26*
%TO.C,TP5*%
X165600000Y-72900000D03*
%TD*%
D31*
%TO.C,D6*%
X170787500Y-66520000D03*
X166387500Y-66520000D03*
%TD*%
D34*
%TO.C,D3*%
X144130000Y-95090000D03*
X144130000Y-91790000D03*
%TD*%
D35*
%TO.C,C1*%
X141825000Y-45800000D03*
X143900000Y-45800000D03*
%TD*%
D33*
%TO.C,R8*%
X168000000Y-53900000D03*
X168000000Y-51900000D03*
%TD*%
D26*
%TO.C,TP20*%
X153270000Y-92030000D03*
%TD*%
D36*
%TO.C,U4*%
X166600000Y-87110000D03*
X166600000Y-85840000D03*
X166600000Y-84570000D03*
X166600000Y-83300000D03*
X171550000Y-83300000D03*
X171550000Y-84570000D03*
X171550000Y-85840000D03*
X171550000Y-87110000D03*
%TD*%
D37*
%TO.C,R10-O1*%
X141300000Y-85500000D03*
X139300000Y-85500000D03*
%TD*%
D38*
%TO.C,R16*%
X171707500Y-77800000D03*
X171707500Y-79800000D03*
%TD*%
D26*
%TO.C,TP15*%
X165120000Y-59780000D03*
%TD*%
D35*
%TO.C,C16*%
X175525000Y-82700000D03*
X177600000Y-82700000D03*
%TD*%
D39*
%TO.C,R13*%
X175525000Y-84800000D03*
X177525000Y-84800000D03*
%TD*%
D26*
%TO.C,TP9*%
X151460000Y-61240000D03*
%TD*%
D40*
%TO.C,Q1*%
X146937500Y-88250000D03*
X146937500Y-90150000D03*
X145062500Y-89200000D03*
%TD*%
D29*
%TO.C,C8*%
X150670000Y-69800000D03*
X150670000Y-71875000D03*
%TD*%
D33*
%TO.C,R5*%
X149120000Y-97830000D03*
X149120000Y-95830000D03*
%TD*%
D41*
%TO.C,F1*%
X165937500Y-97000000D03*
X165937500Y-90630000D03*
%TD*%
D38*
%TO.C,R12-O1*%
X168100000Y-72400000D03*
X168100000Y-74400000D03*
%TD*%
D37*
%TO.C,R2*%
X176540000Y-55050000D03*
X174540000Y-55050000D03*
%TD*%
D26*
%TO.C,TP19*%
X160200000Y-80860000D03*
%TD*%
D35*
%TO.C,C10*%
X141115000Y-58250000D03*
X143190000Y-58250000D03*
%TD*%
D26*
%TO.C,TP3*%
X160400000Y-55800000D03*
%TD*%
D38*
%TO.C,R9*%
X149100000Y-88200000D03*
X149100000Y-90200000D03*
%TD*%
D29*
%TO.C,C12*%
X157837500Y-105000000D03*
X157837500Y-107075000D03*
%TD*%
D37*
%TO.C,R10*%
X176580000Y-52520000D03*
X174580000Y-52520000D03*
%TD*%
D26*
%TO.C,TP6*%
X170000000Y-63200000D03*
%TD*%
%TO.C,TP17*%
X139030000Y-95030000D03*
%TD*%
%TO.C,TP14*%
X146850000Y-83780000D03*
%TD*%
D32*
%TO.C,D8*%
X153600000Y-50200000D03*
X158600000Y-50200000D03*
%TD*%
D26*
%TO.C,TP8*%
X150340000Y-57880000D03*
%TD*%
D38*
%TO.C,R4*%
X146820000Y-95840000D03*
X146820000Y-97840000D03*
%TD*%
D42*
%TO.C,C13-O1*%
X166675000Y-70400000D03*
X164600000Y-70400000D03*
%TD*%
D43*
%TO.C,D10*%
X147700000Y-105900000D03*
X152100000Y-105900000D03*
%TD*%
D26*
%TO.C,TP10*%
X166910000Y-63380000D03*
%TD*%
%TO.C,TP4*%
X138720000Y-88970000D03*
%TD*%
D35*
%TO.C,C2*%
X141825000Y-47800000D03*
X143900000Y-47800000D03*
%TD*%
%LPD*%
M02*
