%TF.GenerationSoftware,KiCad,Pcbnew,8.0.2*%
%TF.CreationDate,2024-08-19T20:28:07+02:00*%
%TF.ProjectId,TwinkleTron,5477696e-6b6c-4655-9472-6f6e2e6b6963,rev?*%
%TF.SameCoordinates,Original*%
%TF.FileFunction,Soldermask,Top*%
%TF.FilePolarity,Negative*%
%FSLAX46Y46*%
G04 Gerber Fmt 4.6, Leading zero omitted, Abs format (unit mm)*
G04 Created by KiCad (PCBNEW 8.0.2) date 2024-08-19 20:28:07*
%MOMM*%
%LPD*%
G01*
G04 APERTURE LIST*
G04 Aperture macros list*
%AMRoundRect*
0 Rectangle with rounded corners*
0 $1 Rounding radius*
0 $2 $3 $4 $5 $6 $7 $8 $9 X,Y pos of 4 corners*
0 Add a 4 corners polygon primitive as box body*
4,1,4,$2,$3,$4,$5,$6,$7,$8,$9,$2,$3,0*
0 Add four circle primitives for the rounded corners*
1,1,$1+$1,$2,$3*
1,1,$1+$1,$4,$5*
1,1,$1+$1,$6,$7*
1,1,$1+$1,$8,$9*
0 Add four rect primitives between the rounded corners*
20,1,$1+$1,$2,$3,$4,$5,0*
20,1,$1+$1,$4,$5,$6,$7,0*
20,1,$1+$1,$6,$7,$8,$9,0*
20,1,$1+$1,$8,$9,$2,$3,0*%
%AMFreePoly0*
4,1,19,0.500000,-0.750000,0.000000,-0.750000,0.000000,-0.744911,-0.071157,-0.744911,-0.207708,-0.704816,-0.327430,-0.627875,-0.420627,-0.520320,-0.479746,-0.390866,-0.500000,-0.250000,-0.500000,0.250000,-0.479746,0.390866,-0.420627,0.520320,-0.327430,0.627875,-0.207708,0.704816,-0.071157,0.744911,0.000000,0.744911,0.000000,0.750000,0.500000,0.750000,0.500000,-0.750000,0.500000,-0.750000,
$1*%
%AMFreePoly1*
4,1,19,0.000000,0.744911,0.071157,0.744911,0.207708,0.704816,0.327430,0.627875,0.420627,0.520320,0.479746,0.390866,0.500000,0.250000,0.500000,-0.250000,0.479746,-0.390866,0.420627,-0.520320,0.327430,-0.627875,0.207708,-0.704816,0.071157,-0.744911,0.000000,-0.744911,0.000000,-0.750000,-0.500000,-0.750000,-0.500000,0.750000,0.000000,0.750000,0.000000,0.744911,0.000000,0.744911,
$1*%
G04 Aperture macros list end*
%ADD10RoundRect,0.250000X0.475000X-0.337500X0.475000X0.337500X-0.475000X0.337500X-0.475000X-0.337500X0*%
%ADD11RoundRect,0.250000X-0.350000X-0.450000X0.350000X-0.450000X0.350000X0.450000X-0.350000X0.450000X0*%
%ADD12RoundRect,0.250200X0.649800X-0.649800X0.649800X0.649800X-0.649800X0.649800X-0.649800X-0.649800X0*%
%ADD13C,1.800000*%
%ADD14RoundRect,0.250000X-0.475000X0.337500X-0.475000X-0.337500X0.475000X-0.337500X0.475000X0.337500X0*%
%ADD15RoundRect,0.250000X0.350000X0.450000X-0.350000X0.450000X-0.350000X-0.450000X0.350000X-0.450000X0*%
%ADD16C,2.000000*%
%ADD17RoundRect,0.102000X-0.750000X-0.450000X0.750000X-0.450000X0.750000X0.450000X-0.750000X0.450000X0*%
%ADD18RoundRect,0.102000X-0.350000X-0.350000X0.350000X-0.350000X0.350000X0.350000X-0.350000X0.350000X0*%
%ADD19C,1.854000*%
%ADD20RoundRect,0.102000X-0.825000X-0.825000X0.825000X-0.825000X0.825000X0.825000X-0.825000X0.825000X0*%
%ADD21RoundRect,0.375000X0.625000X0.375000X-0.625000X0.375000X-0.625000X-0.375000X0.625000X-0.375000X0*%
%ADD22RoundRect,0.500000X0.500000X1.400000X-0.500000X1.400000X-0.500000X-1.400000X0.500000X-1.400000X0*%
%ADD23RoundRect,0.250000X-0.450000X0.350000X-0.450000X-0.350000X0.450000X-0.350000X0.450000X0.350000X0*%
%ADD24RoundRect,0.162500X0.162500X-0.617500X0.162500X0.617500X-0.162500X0.617500X-0.162500X-0.617500X0*%
%ADD25RoundRect,0.249999X-0.790001X-1.550001X0.790001X-1.550001X0.790001X1.550001X-0.790001X1.550001X0*%
%ADD26O,2.080000X3.600000*%
%ADD27R,1.050000X1.500000*%
%ADD28O,1.050000X1.500000*%
%ADD29FreePoly0,180.000000*%
%ADD30FreePoly1,180.000000*%
%ADD31RoundRect,0.250000X-0.337500X-0.475000X0.337500X-0.475000X0.337500X0.475000X-0.337500X0.475000X0*%
%ADD32RoundRect,0.102000X1.700000X-0.500000X1.700000X0.500000X-1.700000X0.500000X-1.700000X-0.500000X0*%
%ADD33C,0.650000*%
%ADD34R,1.450000X0.600000*%
%ADD35R,1.450000X0.300000*%
%ADD36O,2.100000X1.000000*%
%ADD37O,1.600000X1.000000*%
%ADD38RoundRect,0.150000X0.150000X-0.825000X0.150000X0.825000X-0.150000X0.825000X-0.150000X-0.825000X0*%
%ADD39R,2.000000X2.000000*%
%ADD40RoundRect,0.250000X0.650000X-1.500000X0.650000X1.500000X-0.650000X1.500000X-0.650000X-1.500000X0*%
%ADD41RoundRect,0.250000X-0.650000X1.500000X-0.650000X-1.500000X0.650000X-1.500000X0.650000X1.500000X0*%
%ADD42RoundRect,0.225000X-0.375000X0.225000X-0.375000X-0.225000X0.375000X-0.225000X0.375000X0.225000X0*%
%ADD43RoundRect,0.250000X0.750000X-0.600000X0.750000X0.600000X-0.750000X0.600000X-0.750000X-0.600000X0*%
%ADD44O,2.000000X1.700000*%
%ADD45RoundRect,0.102000X1.575000X-0.890000X1.575000X0.890000X-1.575000X0.890000X-1.575000X-0.890000X0*%
%ADD46RoundRect,0.200000X0.800000X-0.200000X0.800000X0.200000X-0.800000X0.200000X-0.800000X-0.200000X0*%
G04 APERTURE END LIST*
D10*
%TO.C,C13*%
X153050000Y-76225000D03*
X153050000Y-74150000D03*
%TD*%
D11*
%TO.C,R1*%
X141980000Y-50190000D03*
X143980000Y-50190000D03*
%TD*%
D12*
%TO.C,U5-O1*%
X174690000Y-67580000D03*
D13*
X174690000Y-65040000D03*
X174690000Y-62500000D03*
%TD*%
D14*
%TO.C,C9*%
X148660000Y-70562500D03*
X148660000Y-72637500D03*
%TD*%
D10*
%TO.C,C6*%
X162650000Y-70225000D03*
X162650000Y-68150000D03*
%TD*%
D15*
%TO.C,R11-O1*%
X170800000Y-66900000D03*
X168800000Y-66900000D03*
%TD*%
D16*
%TO.C,TP2*%
X176300000Y-83900000D03*
%TD*%
D17*
%TO.C,U1*%
X147200000Y-48900000D03*
X147200000Y-50400000D03*
X147200000Y-51900000D03*
X147200000Y-53400000D03*
X147200000Y-54900000D03*
X147200000Y-56400000D03*
X147200000Y-57900000D03*
X147200000Y-59400000D03*
X147200000Y-60900000D03*
X164700000Y-60900000D03*
X164700000Y-59400000D03*
X164700000Y-57900000D03*
X164700000Y-56400000D03*
X164700000Y-54900000D03*
X164700000Y-53400000D03*
X164700000Y-51900000D03*
X164700000Y-50400000D03*
X164700000Y-48900000D03*
D18*
X155810000Y-54000000D03*
X156910000Y-54000000D03*
X158010000Y-54000000D03*
X155810000Y-55100000D03*
X156910000Y-55100000D03*
X158010000Y-55100000D03*
X155810000Y-56200000D03*
X156910000Y-56200000D03*
X158010000Y-56200000D03*
%TD*%
D11*
%TO.C,R11*%
X160350000Y-81350000D03*
X162350000Y-81350000D03*
%TD*%
D19*
%TO.C,K1*%
X153280000Y-95030000D03*
X160280000Y-95030000D03*
X141780000Y-95030000D03*
D20*
X141780000Y-90330000D03*
%TD*%
D21*
%TO.C,U3*%
X145640000Y-74190000D03*
X145640000Y-71890000D03*
D22*
X139340000Y-71890000D03*
D21*
X145640000Y-69590000D03*
%TD*%
D10*
%TO.C,C14*%
X165750000Y-70225000D03*
X165750000Y-68150000D03*
%TD*%
D23*
%TO.C,R7*%
X140610000Y-55600000D03*
X140610000Y-57600000D03*
%TD*%
D24*
%TO.C,U5*%
X158400000Y-76200000D03*
X159350000Y-76200000D03*
X160300000Y-76200000D03*
X160300000Y-73500000D03*
X159350000Y-73500000D03*
X158400000Y-73500000D03*
%TD*%
D25*
%TO.C,J1*%
X142597500Y-102400000D03*
D26*
X147677500Y-102400000D03*
X152757500Y-102400000D03*
X157837500Y-102400000D03*
%TD*%
D27*
%TO.C,U4-O1*%
X138730000Y-83600000D03*
D28*
X140000000Y-83600000D03*
X141270000Y-83600000D03*
%TD*%
D29*
%TO.C,USB2*%
X169340000Y-53050000D03*
D30*
X168040000Y-53050000D03*
%TD*%
D23*
%TO.C,R6*%
X158220000Y-79520000D03*
X158220000Y-81520000D03*
%TD*%
D31*
%TO.C,C4*%
X146625000Y-78740000D03*
X148700000Y-78740000D03*
%TD*%
D10*
%TO.C,C5*%
X151450000Y-65387500D03*
X151450000Y-63312500D03*
%TD*%
D32*
%TO.C,L1*%
X153050000Y-69100000D03*
X153050000Y-67000000D03*
%TD*%
D16*
%TO.C,TP16*%
X138940000Y-52890000D03*
%TD*%
D23*
%TO.C,R3*%
X142810000Y-55600000D03*
X142810000Y-57600000D03*
%TD*%
D33*
%TO.C,J3*%
X173350000Y-56690000D03*
X173350000Y-50910000D03*
D34*
X171905000Y-57050000D03*
X171905000Y-56250000D03*
D35*
X171905000Y-55050000D03*
X171905000Y-54050000D03*
X171905000Y-53550000D03*
X171905000Y-52550000D03*
D34*
X171905000Y-51350000D03*
X171905000Y-50550000D03*
X171905000Y-50550000D03*
X171905000Y-51350000D03*
D35*
X171905000Y-52050000D03*
X171905000Y-53050000D03*
X171905000Y-54550000D03*
X171905000Y-55550000D03*
D34*
X171905000Y-56250000D03*
X171905000Y-57050000D03*
D36*
X172820000Y-58120000D03*
D37*
X177000000Y-58120000D03*
D36*
X172820000Y-49480000D03*
D37*
X177000000Y-49480000D03*
%TD*%
D16*
%TO.C,TP7*%
X171200000Y-61900000D03*
%TD*%
D38*
%TO.C,U6*%
X148690000Y-86690000D03*
X149960000Y-86690000D03*
X151230000Y-86690000D03*
X152500000Y-86690000D03*
X153770000Y-86690000D03*
X155040000Y-86690000D03*
X156310000Y-86690000D03*
X156310000Y-81740000D03*
X155040000Y-81740000D03*
X153770000Y-81740000D03*
X152500000Y-81740000D03*
X151230000Y-81740000D03*
X149960000Y-81740000D03*
X148690000Y-81740000D03*
%TD*%
D25*
%TO.C,J2*%
X165937500Y-102400000D03*
D26*
X171017500Y-102400000D03*
%TD*%
D39*
%TO.C,C7*%
X170070000Y-91700000D03*
D16*
X175070000Y-91700000D03*
%TD*%
D40*
%TO.C,D1*%
X158050000Y-70050000D03*
X158050000Y-65050000D03*
%TD*%
D41*
%TO.C,D2*%
X164000000Y-73100000D03*
X164000000Y-78100000D03*
%TD*%
D42*
%TO.C,D5*%
X156050000Y-76200000D03*
X156050000Y-79500000D03*
%TD*%
D43*
%TO.C,J3-O1*%
X170550000Y-74350000D03*
D44*
X170550000Y-71850000D03*
%TD*%
D31*
%TO.C,C11*%
X141960000Y-48000000D03*
X144035000Y-48000000D03*
%TD*%
D45*
%TO.C,F3*%
X165300000Y-86630000D03*
X165300000Y-81400000D03*
%TD*%
D29*
%TO.C,USB1*%
X169350000Y-55800000D03*
D30*
X168050000Y-55800000D03*
%TD*%
D46*
%TO.C,SW1*%
X140610000Y-63600000D03*
X140610000Y-59400000D03*
%TD*%
D10*
%TO.C,C15*%
X153900000Y-65400000D03*
X153900000Y-63325000D03*
%TD*%
M02*
