M48
; DRILL file {KiCad 8.0.2} date 2024-08-19T20:28:07+0200
; FORMAT={-:-/ absolute / inch / decimal}
; #@! TF.CreationDate,2024-08-19T20:28:07+02:00
; #@! TF.GenerationSoftware,Kicad,Pcbnew,8.0.2
; #@! TF.FileFunction,Plated,1,2,PTH
FMAT,2
INCH
; #@! TA.AperFunction,Plated,PTH,ViaDrill
T1C0.0118
; #@! TA.AperFunction,Plated,PTH,ComponentDrill
T2C0.0118
; #@! TA.AperFunction,Plated,PTH,ViaDrill
T3C0.0157
; #@! TA.AperFunction,Plated,PTH,ComponentDrill
T4C0.0236
; #@! TA.AperFunction,Plated,PTH,ComponentDrill
T5C0.0295
; #@! TA.AperFunction,Plated,PTH,ComponentDrill
T6C0.0354
; #@! TA.AperFunction,Plated,PTH,ComponentDrill
T7C0.0394
; #@! TA.AperFunction,Plated,PTH,ComponentDrill
T8C0.0433
; #@! TA.AperFunction,Plated,PTH,ComponentDrill
T9C0.0551
%
G90
G05
T1
X5.5484Y-2.7138
X5.5906Y-2.0835
X5.6496Y-3.2122
X6.2756Y-2.311
X6.3465Y-2.3189
X6.3504Y-2.0039
T2
X6.1343Y-2.1476
X6.1343Y-2.1909
X6.1559Y-2.126
X6.1559Y-2.1693
X6.1559Y-2.2126
X6.1776Y-2.1476
X6.1776Y-2.1909
X6.1992Y-2.126
X6.1992Y-2.1693
X6.1992Y-2.2126
X6.2209Y-2.1476
X6.2209Y-2.1909
T3
X5.3906Y-1.8764
X5.3906Y-1.9583
X5.402Y-1.7929
X5.4059Y-3.3106
X5.4067Y-3.2295
X5.4071Y-3.3929
X5.4173Y-3.5984
X5.4181Y-3.639
X5.5354Y-1.8976
X5.5591Y-2.8976
X5.5866Y-3.6457
X5.6063Y-3.4724
X5.6063Y-4.2441
X5.6224Y-2.3882
X5.6614Y-3.0
X5.6622Y-3.0543
X5.6654Y-2.4406
X5.6732Y-2.0433
X5.6772Y-3.4016
X5.6811Y-2.3917
X5.7087Y-3.2717
X5.7244Y-3.6772
X5.7283Y-2.6339
X5.7366Y-1.865
X5.748Y-3.6063
X5.748Y-4.248
X5.8055Y-3.026
X5.8189Y-2.4921
X5.8189Y-3.374
X5.8378Y-2.9579
X5.8425Y-2.4488
X5.85Y-2.2795
X5.8709Y-3.7031
X5.8776Y-2.3657
X5.8819Y-2.5118
X5.9039Y-3.1406
X5.9134Y-1.9843
X5.9252Y-3.4799
X5.9252Y-3.6287
X5.9291Y-3.9173
X5.9539Y-3.2181
X5.9602Y-1.9114
X5.9709Y-3.5701
X6.0039Y-2.5984
X6.0091Y-3.5303
X6.0236Y-2.1063
X6.0327Y-3.0551
X6.0365Y-3.1727
X6.0394Y-2.5984
X6.0539Y-3.4886
X6.0709Y-2.5984
X6.1378Y-2.0748
X6.1378Y-3.2362
X6.1386Y-3.0646
X6.1394Y-3.1969
X6.1417Y-3.6142
X6.1535Y-2.5197
X6.1693Y-3.7008
X6.189Y-2.6614
X6.189Y-3.4803
X6.2134Y-2.2965
X6.2504Y-3.0736
X6.352Y-2.9472
X6.3661Y-3.9331
X6.3669Y-3.0516
X6.3701Y-3.1102
X6.3957Y-3.4083
X6.4213Y-3.6969
X6.465Y-2.7071
X6.472Y-2.6469
X6.5138Y-2.6323
X6.5472Y-2.0433
X6.5472Y-3.0197
X6.5512Y-2.9528
X6.5709Y-2.3976
X6.5776Y-2.2795
X6.6004Y-2.339
X6.6305Y-4.1896
X6.6457Y-2.7008
X6.6569Y-4.2124
X6.6575Y-3.4528
X6.6766Y-4.1352
X6.6823Y-2.0197
X6.685Y-2.7598
X6.6884Y-4.2297
X6.689Y-3.5079
X6.6945Y-3.2717
X6.7106Y-2.2146
X6.713Y-1.9665
X6.7165Y-3.7165
X6.7244Y-4.2362
X6.7362Y-3.8543
X6.7441Y-3.5354
X6.7476Y-3.2441
X6.7598Y-2.7205
X6.7622Y-4.2374
X6.7736Y-3.6693
X6.7913Y-3.4776
X6.7947Y-4.1352
X6.7953Y-3.2008
X6.7982Y-4.2309
X6.8012Y-2.3343
X6.8297Y-4.2136
X6.8311Y-2.1673
X6.8335Y-2.0677
X6.8561Y-4.1907
X6.8661Y-3.8622
X6.8898Y-2.7362
X6.9094Y-3.9409
X6.9102Y-2.3937
X6.9104Y-3.2018
X6.9252Y-1.8976
X6.937Y-2.3386
X6.9606Y-4.0
X6.9646Y-2.378
X6.9764Y-1.8976
X6.9803Y-1.9921
X6.9843Y-2.2441
X6.9843Y-3.4724
X6.9882Y-3.4094
X6.9898Y-2.1161
X6.9921Y-3.1929
X6.9961Y-3.8543
X7.0Y-2.937
X7.0Y-4.252
X7.0039Y-2.8189
T5
X5.4618Y-3.2913
X5.5118Y-3.2913
X5.5618Y-3.2913
T6
X6.8776Y-2.4606
X6.8776Y-2.5606
X6.8776Y-2.6606
T7
X6.6957Y-3.6102
X6.7146Y-2.8287
X6.7146Y-2.9272
X6.8925Y-3.6102
T8
X5.5819Y-3.5563
X5.5819Y-3.7413
X6.0346Y-3.7413
X6.3102Y-3.7413
T9
X5.6141Y-4.0315
X5.8141Y-4.0315
X6.0141Y-4.0315
X6.2141Y-4.0315
X6.533Y-4.0315
X6.733Y-4.0315
T4
G00X6.7823Y-1.948
M15
G01X6.8256Y-1.948
M16
G05
G00X6.7823Y-2.2882
M15
G01X6.8256Y-2.2882
M16
G05
G00X6.9567Y-1.948
M15
G01X6.9803Y-1.948
M16
G05
G00X6.9567Y-2.2882
M15
G01X6.9803Y-2.2882
M16
G05
M30
