%TF.GenerationSoftware,KiCad,Pcbnew,8.0.2*%
%TF.CreationDate,2024-08-19T20:28:07+02:00*%
%TF.ProjectId,TwinkleTron,5477696e-6b6c-4655-9472-6f6e2e6b6963,rev?*%
%TF.SameCoordinates,Original*%
%TF.FileFunction,Copper,L1,Top*%
%TF.FilePolarity,Positive*%
%FSLAX46Y46*%
G04 Gerber Fmt 4.6, Leading zero omitted, Abs format (unit mm)*
G04 Created by KiCad (PCBNEW 8.0.2) date 2024-08-19 20:28:07*
%MOMM*%
%LPD*%
G01*
G04 APERTURE LIST*
G04 Aperture macros list*
%AMRoundRect*
0 Rectangle with rounded corners*
0 $1 Rounding radius*
0 $2 $3 $4 $5 $6 $7 $8 $9 X,Y pos of 4 corners*
0 Add a 4 corners polygon primitive as box body*
4,1,4,$2,$3,$4,$5,$6,$7,$8,$9,$2,$3,0*
0 Add four circle primitives for the rounded corners*
1,1,$1+$1,$2,$3*
1,1,$1+$1,$4,$5*
1,1,$1+$1,$6,$7*
1,1,$1+$1,$8,$9*
0 Add four rect primitives between the rounded corners*
20,1,$1+$1,$2,$3,$4,$5,0*
20,1,$1+$1,$4,$5,$6,$7,0*
20,1,$1+$1,$6,$7,$8,$9,0*
20,1,$1+$1,$8,$9,$2,$3,0*%
%AMFreePoly0*
4,1,19,0.500000,-0.750000,0.000000,-0.750000,0.000000,-0.744911,-0.071157,-0.744911,-0.207708,-0.704816,-0.327430,-0.627875,-0.420627,-0.520320,-0.479746,-0.390866,-0.500000,-0.250000,-0.500000,0.250000,-0.479746,0.390866,-0.420627,0.520320,-0.327430,0.627875,-0.207708,0.704816,-0.071157,0.744911,0.000000,0.744911,0.000000,0.750000,0.500000,0.750000,0.500000,-0.750000,0.500000,-0.750000,
$1*%
%AMFreePoly1*
4,1,19,0.000000,0.744911,0.071157,0.744911,0.207708,0.704816,0.327430,0.627875,0.420627,0.520320,0.479746,0.390866,0.500000,0.250000,0.500000,-0.250000,0.479746,-0.390866,0.420627,-0.520320,0.327430,-0.627875,0.207708,-0.704816,0.071157,-0.744911,0.000000,-0.744911,0.000000,-0.750000,-0.500000,-0.750000,-0.500000,0.750000,0.000000,0.750000,0.000000,0.744911,0.000000,0.744911,
$1*%
G04 Aperture macros list end*
%TA.AperFunction,Conductor*%
%ADD10C,0.200000*%
%TD*%
%TA.AperFunction,EtchedComponent*%
%ADD11C,0.000000*%
%TD*%
%TA.AperFunction,SMDPad,CuDef*%
%ADD12RoundRect,0.250000X0.475000X-0.337500X0.475000X0.337500X-0.475000X0.337500X-0.475000X-0.337500X0*%
%TD*%
%TA.AperFunction,SMDPad,CuDef*%
%ADD13RoundRect,0.250000X-0.350000X-0.450000X0.350000X-0.450000X0.350000X0.450000X-0.350000X0.450000X0*%
%TD*%
%TA.AperFunction,ComponentPad*%
%ADD14RoundRect,0.250200X0.649800X-0.649800X0.649800X0.649800X-0.649800X0.649800X-0.649800X-0.649800X0*%
%TD*%
%TA.AperFunction,ComponentPad*%
%ADD15C,1.800000*%
%TD*%
%TA.AperFunction,SMDPad,CuDef*%
%ADD16RoundRect,0.250000X-0.475000X0.337500X-0.475000X-0.337500X0.475000X-0.337500X0.475000X0.337500X0*%
%TD*%
%TA.AperFunction,SMDPad,CuDef*%
%ADD17RoundRect,0.250000X0.350000X0.450000X-0.350000X0.450000X-0.350000X-0.450000X0.350000X-0.450000X0*%
%TD*%
%TA.AperFunction,SMDPad,CuDef*%
%ADD18C,2.000000*%
%TD*%
%TA.AperFunction,SMDPad,CuDef*%
%ADD19R,1.500000X0.900000*%
%TD*%
%TA.AperFunction,SMDPad,CuDef*%
%ADD20R,0.700000X0.700000*%
%TD*%
%TA.AperFunction,ComponentPad*%
%ADD21C,0.500000*%
%TD*%
%TA.AperFunction,ComponentPad*%
%ADD22C,1.650000*%
%TD*%
%TA.AperFunction,ComponentPad*%
%ADD23R,1.650000X1.650000*%
%TD*%
%TA.AperFunction,SMDPad,CuDef*%
%ADD24RoundRect,0.375000X0.625000X0.375000X-0.625000X0.375000X-0.625000X-0.375000X0.625000X-0.375000X0*%
%TD*%
%TA.AperFunction,SMDPad,CuDef*%
%ADD25RoundRect,0.500000X0.500000X1.400000X-0.500000X1.400000X-0.500000X-1.400000X0.500000X-1.400000X0*%
%TD*%
%TA.AperFunction,SMDPad,CuDef*%
%ADD26RoundRect,0.250000X-0.450000X0.350000X-0.450000X-0.350000X0.450000X-0.350000X0.450000X0.350000X0*%
%TD*%
%TA.AperFunction,SMDPad,CuDef*%
%ADD27RoundRect,0.162500X0.162500X-0.617500X0.162500X0.617500X-0.162500X0.617500X-0.162500X-0.617500X0*%
%TD*%
%TA.AperFunction,ComponentPad*%
%ADD28RoundRect,0.249999X-0.790001X-1.550001X0.790001X-1.550001X0.790001X1.550001X-0.790001X1.550001X0*%
%TD*%
%TA.AperFunction,ComponentPad*%
%ADD29O,2.080000X3.600000*%
%TD*%
%TA.AperFunction,ComponentPad*%
%ADD30R,1.050000X1.500000*%
%TD*%
%TA.AperFunction,ComponentPad*%
%ADD31O,1.050000X1.500000*%
%TD*%
%TA.AperFunction,SMDPad,CuDef*%
%ADD32FreePoly0,180.000000*%
%TD*%
%TA.AperFunction,SMDPad,CuDef*%
%ADD33FreePoly1,180.000000*%
%TD*%
%TA.AperFunction,SMDPad,CuDef*%
%ADD34RoundRect,0.250000X-0.337500X-0.475000X0.337500X-0.475000X0.337500X0.475000X-0.337500X0.475000X0*%
%TD*%
%TA.AperFunction,SMDPad,CuDef*%
%ADD35R,3.400000X1.000000*%
%TD*%
%TA.AperFunction,SMDPad,CuDef*%
%ADD36R,1.450000X0.600000*%
%TD*%
%TA.AperFunction,SMDPad,CuDef*%
%ADD37R,1.450000X0.300000*%
%TD*%
%TA.AperFunction,ComponentPad*%
%ADD38O,2.100000X1.000000*%
%TD*%
%TA.AperFunction,ComponentPad*%
%ADD39O,1.600000X1.000000*%
%TD*%
%TA.AperFunction,SMDPad,CuDef*%
%ADD40RoundRect,0.150000X0.150000X-0.825000X0.150000X0.825000X-0.150000X0.825000X-0.150000X-0.825000X0*%
%TD*%
%TA.AperFunction,ComponentPad*%
%ADD41R,2.000000X2.000000*%
%TD*%
%TA.AperFunction,ComponentPad*%
%ADD42C,2.000000*%
%TD*%
%TA.AperFunction,SMDPad,CuDef*%
%ADD43RoundRect,0.250000X0.650000X-1.500000X0.650000X1.500000X-0.650000X1.500000X-0.650000X-1.500000X0*%
%TD*%
%TA.AperFunction,SMDPad,CuDef*%
%ADD44RoundRect,0.250000X-0.650000X1.500000X-0.650000X-1.500000X0.650000X-1.500000X0.650000X1.500000X0*%
%TD*%
%TA.AperFunction,SMDPad,CuDef*%
%ADD45RoundRect,0.225000X-0.375000X0.225000X-0.375000X-0.225000X0.375000X-0.225000X0.375000X0.225000X0*%
%TD*%
%TA.AperFunction,ComponentPad*%
%ADD46RoundRect,0.250000X0.750000X-0.600000X0.750000X0.600000X-0.750000X0.600000X-0.750000X-0.600000X0*%
%TD*%
%TA.AperFunction,ComponentPad*%
%ADD47O,2.000000X1.700000*%
%TD*%
%TA.AperFunction,SMDPad,CuDef*%
%ADD48R,3.150000X1.780000*%
%TD*%
%TA.AperFunction,SMDPad,CuDef*%
%ADD49RoundRect,0.200000X0.800000X-0.200000X0.800000X0.200000X-0.800000X0.200000X-0.800000X-0.200000X0*%
%TD*%
%TA.AperFunction,ViaPad*%
%ADD50C,0.800000*%
%TD*%
%TA.AperFunction,ViaPad*%
%ADD51C,0.700000*%
%TD*%
%TA.AperFunction,Conductor*%
%ADD52C,0.500000*%
%TD*%
%TA.AperFunction,Conductor*%
%ADD53C,1.000000*%
%TD*%
%TA.AperFunction,Conductor*%
%ADD54C,1.500000*%
%TD*%
%TA.AperFunction,Conductor*%
%ADD55C,0.400000*%
%TD*%
%TA.AperFunction,Conductor*%
%ADD56C,1.200000*%
%TD*%
%TA.AperFunction,Conductor*%
%ADD57C,0.700000*%
%TD*%
%TA.AperFunction,Conductor*%
%ADD58C,0.300000*%
%TD*%
G04 APERTURE END LIST*
%TO.N,GND*%
D10*
X154750000Y-80760000D02*
X156500000Y-80760000D01*
X156500000Y-82620000D01*
X154750000Y-82620000D01*
X154750000Y-80760000D01*
%TA.AperFunction,Conductor*%
G36*
X154750000Y-80760000D02*
G01*
X156500000Y-80760000D01*
X156500000Y-82620000D01*
X154750000Y-82620000D01*
X154750000Y-80760000D01*
G37*
%TD.AperFunction*%
%TO.N,Net-(D1-K)*%
X151300000Y-68600000D02*
X158700000Y-68600000D01*
X158700000Y-74200000D01*
X151300000Y-74200000D01*
X151300000Y-68600000D01*
%TA.AperFunction,Conductor*%
G36*
X151300000Y-68600000D02*
G01*
X158700000Y-68600000D01*
X158700000Y-74200000D01*
X151300000Y-74200000D01*
X151300000Y-68600000D01*
G37*
%TD.AperFunction*%
%TO.N,Net-(D2-K)*%
X160000000Y-69800000D02*
X166700000Y-69800000D01*
X166700000Y-71900000D01*
X160000000Y-71900000D01*
X160000000Y-69800000D01*
%TA.AperFunction,Conductor*%
G36*
X160000000Y-69800000D02*
G01*
X166700000Y-69800000D01*
X166700000Y-71900000D01*
X160000000Y-71900000D01*
X160000000Y-69800000D01*
G37*
%TD.AperFunction*%
%TO.N,GND*%
X170700000Y-48800000D02*
X172500000Y-48800000D01*
X172500000Y-50700000D01*
X170700000Y-50700000D01*
X170700000Y-48800000D01*
%TA.AperFunction,Conductor*%
G36*
X170700000Y-48800000D02*
G01*
X172500000Y-48800000D01*
X172500000Y-50700000D01*
X170700000Y-50700000D01*
X170700000Y-48800000D01*
G37*
%TD.AperFunction*%
%TO.N,+5V*%
X148500000Y-80760000D02*
X150250000Y-80760000D01*
X150250000Y-82620000D01*
X148500000Y-82620000D01*
X148500000Y-80760000D01*
%TA.AperFunction,Conductor*%
G36*
X148500000Y-80760000D02*
G01*
X150250000Y-80760000D01*
X150250000Y-82620000D01*
X148500000Y-82620000D01*
X148500000Y-80760000D01*
G37*
%TD.AperFunction*%
%TO.N,Net-(D5-A)*%
X150600000Y-64900000D02*
X154800000Y-64900000D01*
X154800000Y-67500000D01*
X150600000Y-67500000D01*
X150600000Y-64900000D01*
%TA.AperFunction,Conductor*%
G36*
X150600000Y-64900000D02*
G01*
X154800000Y-64900000D01*
X154800000Y-67500000D01*
X150600000Y-67500000D01*
X150600000Y-64900000D01*
G37*
%TD.AperFunction*%
%TO.N,GND*%
X155400000Y-53600000D02*
X158300000Y-53600000D01*
X158300000Y-56600000D01*
X155400000Y-56600000D01*
X155400000Y-53600000D01*
%TA.AperFunction,Conductor*%
G36*
X155400000Y-53600000D02*
G01*
X158300000Y-53600000D01*
X158300000Y-56600000D01*
X155400000Y-56600000D01*
X155400000Y-53600000D01*
G37*
%TD.AperFunction*%
D11*
%TA.AperFunction,EtchedComponent*%
%TD*%
%TO.C,USB2*%
G36*
X168940000Y-53350000D02*
G01*
X168440000Y-53350000D01*
X168440000Y-52750000D01*
X168940000Y-52750000D01*
X168940000Y-53350000D01*
G37*
%TD.AperFunction*%
%TA.AperFunction,EtchedComponent*%
%TO.C,USB1*%
G36*
X168950000Y-56100000D02*
G01*
X168450000Y-56100000D01*
X168450000Y-55500000D01*
X168950000Y-55500000D01*
X168950000Y-56100000D01*
G37*
%TD.AperFunction*%
%TD*%
D12*
%TO.P,C13,1*%
%TO.N,Net-(D5-K)*%
X153050000Y-76225000D03*
%TO.P,C13,2*%
%TO.N,Net-(D1-K)*%
X153050000Y-74150000D03*
%TD*%
D13*
%TO.P,R1,1*%
%TO.N,+3.3V*%
X141980000Y-50190000D03*
%TO.P,R1,2*%
%TO.N,Net-(U1-EN)*%
X143980000Y-50190000D03*
%TD*%
D14*
%TO.P,U5-O1,1,OUT*%
%TO.N,IO6-IR*%
X174690000Y-67580000D03*
D15*
%TO.P,U5-O1,2,GND*%
%TO.N,GND*%
X174690000Y-65040000D03*
%TO.P,U5-O1,3,Vs*%
%TO.N,+3.3V*%
X174690000Y-62500000D03*
%TD*%
D16*
%TO.P,C9,1*%
%TO.N,+5V*%
X148660000Y-70562500D03*
%TO.P,C9,2*%
%TO.N,GND*%
X148660000Y-72637500D03*
%TD*%
D12*
%TO.P,C6,1*%
%TO.N,Net-(D2-K)*%
X162650000Y-70225000D03*
%TO.P,C6,2*%
%TO.N,GND*%
X162650000Y-68150000D03*
%TD*%
D17*
%TO.P,R11-O1,1*%
%TO.N,+3.3V*%
X170800000Y-66900000D03*
%TO.P,R11-O1,2*%
%TO.N,IO07-Button*%
X168800000Y-66900000D03*
%TD*%
D18*
%TO.P,TP2,1,1*%
%TO.N,IO00-Voltage*%
X176300000Y-83900000D03*
%TD*%
D19*
%TO.P,U1,1,3V3*%
%TO.N,+3.3V*%
X147200000Y-48900000D03*
%TO.P,U1,2,EN*%
%TO.N,Net-(U1-EN)*%
X147200000Y-50400000D03*
%TO.P,U1,3,IO4*%
%TO.N,IO04-Temperature*%
X147200000Y-51900000D03*
%TO.P,U1,4,IO5*%
%TO.N,IO05-Relay*%
X147200000Y-53400000D03*
%TO.P,U1,5,IO6*%
%TO.N,IO6-IR*%
X147200000Y-54900000D03*
%TO.P,U1,6,IO7*%
%TO.N,IO07-Button*%
X147200000Y-56400000D03*
%TO.P,U1,7,IO8*%
%TO.N,IO8*%
X147200000Y-57900000D03*
%TO.P,U1,8,IO9*%
%TO.N,IO9-boot*%
X147200000Y-59400000D03*
%TO.P,U1,9,GND*%
%TO.N,GND*%
X147200000Y-60900000D03*
%TO.P,U1,10,IO10*%
%TO.N,IO10*%
X164700000Y-60900000D03*
%TO.P,U1,11,RXD*%
%TO.N,RX*%
X164700000Y-59400000D03*
%TO.P,U1,12,TXD*%
%TO.N,TX*%
X164700000Y-57900000D03*
%TO.P,U1,13,IO18*%
%TO.N,IO18{slash}USB_D-*%
X164700000Y-56400000D03*
%TO.P,U1,14,IO19*%
%TO.N,IO19{slash}USB_D+*%
X164700000Y-54900000D03*
%TO.P,U1,15,IO3*%
%TO.N,IO03-CLK-3.3V*%
X164700000Y-53400000D03*
%TO.P,U1,16,IO2*%
%TO.N,IO02-Data-3.3V*%
X164700000Y-51900000D03*
%TO.P,U1,17,IO1*%
%TO.N,IO01-Current*%
X164700000Y-50400000D03*
%TO.P,U1,18,IO0*%
%TO.N,IO00-Voltage*%
X164700000Y-48900000D03*
D20*
%TO.P,U1,19,GND*%
%TO.N,GND*%
X155810000Y-54000000D03*
%TO.P,U1,20,GND*%
X156910000Y-54000000D03*
%TO.P,U1,21,GND*%
X158010000Y-54000000D03*
%TO.P,U1,22,GND*%
X155810000Y-55100000D03*
%TO.P,U1,23,GND*%
X156910000Y-55100000D03*
%TO.P,U1,24,GND*%
X158010000Y-55100000D03*
%TO.P,U1,25,GND*%
X155810000Y-56200000D03*
%TO.P,U1,26,GND*%
X156910000Y-56200000D03*
%TO.P,U1,27,GND*%
X158010000Y-56200000D03*
D21*
%TO.P,U1,28,GND*%
X156360000Y-54000000D03*
%TO.P,U1,29,GND*%
X157460000Y-54000000D03*
%TO.P,U1,30,GND*%
X155810000Y-54550000D03*
%TO.P,U1,31,GND*%
X156910000Y-54550000D03*
%TO.P,U1,32,GND*%
X158010000Y-54550000D03*
%TO.P,U1,33,GND*%
X156360000Y-55100000D03*
%TO.P,U1,34,GND*%
X157460000Y-55100000D03*
%TO.P,U1,35,GND*%
X155810000Y-55650000D03*
%TO.P,U1,36,GND*%
X156910000Y-55650000D03*
%TO.P,U1,37,GND*%
X158010000Y-55650000D03*
%TO.P,U1,38,GND*%
X156360000Y-56200000D03*
%TO.P,U1,39,GND*%
X157460000Y-56200000D03*
%TD*%
D13*
%TO.P,R11,1*%
%TO.N,Net-(U5-V_{FB})*%
X160350000Y-81350000D03*
%TO.P,R11,2*%
%TO.N,GND*%
X162350000Y-81350000D03*
%TD*%
D22*
%TO.P,K1,13*%
%TO.N,VIN_relay*%
X153280000Y-95030000D03*
%TO.P,K1,14*%
%TO.N,VIN_Fused*%
X160280000Y-95030000D03*
%TO.P,K1,A1*%
%TO.N,+5V*%
X141780000Y-95030000D03*
D23*
%TO.P,K1,A2*%
%TO.N,Net-(D3-A)*%
X141780000Y-90330000D03*
%TD*%
D24*
%TO.P,U3,1,GND*%
%TO.N,GND*%
X145640000Y-74190000D03*
%TO.P,U3,2,VO*%
%TO.N,+3.3V*%
X145640000Y-71890000D03*
D25*
X139340000Y-71890000D03*
D24*
%TO.P,U3,3,VI*%
%TO.N,+5V*%
X145640000Y-69590000D03*
%TD*%
D12*
%TO.P,C14,1*%
%TO.N,Net-(D2-K)*%
X165750000Y-70225000D03*
%TO.P,C14,2*%
%TO.N,GND*%
X165750000Y-68150000D03*
%TD*%
D26*
%TO.P,R7,1*%
%TO.N,+3.3V*%
X140610000Y-55600000D03*
%TO.P,R7,2*%
%TO.N,IO9-boot*%
X140610000Y-57600000D03*
%TD*%
D27*
%TO.P,U5,1,BOOST*%
%TO.N,Net-(D5-K)*%
X158400000Y-76200000D03*
%TO.P,U5,2,GND*%
%TO.N,GND*%
X159350000Y-76200000D03*
%TO.P,U5,3,V_{FB}*%
%TO.N,Net-(U5-V_{FB})*%
X160300000Y-76200000D03*
%TO.P,U5,4,EN*%
%TO.N,unconnected-(U5-EN-Pad4)*%
X160300000Y-73500000D03*
%TO.P,U5,5,V_{IN}*%
%TO.N,Net-(D2-K)*%
X159350000Y-73500000D03*
%TO.P,U5,6,SW*%
%TO.N,Net-(D1-K)*%
X158400000Y-73500000D03*
%TD*%
D28*
%TO.P,J1,1,Pin_1*%
%TO.N,CLK-5V*%
X142597500Y-102400000D03*
D29*
%TO.P,J1,2,Pin_2*%
%TO.N,DATA-5V*%
X147677500Y-102400000D03*
%TO.P,J1,3,Pin_3*%
%TO.N,GND*%
X152757500Y-102400000D03*
%TO.P,J1,4,Pin_4*%
%TO.N,VIN_relay*%
X157837500Y-102400000D03*
%TD*%
D30*
%TO.P,U4-O1,1,GND*%
%TO.N,GND*%
X138730000Y-83600000D03*
D31*
%TO.P,U4-O1,2,DQ*%
%TO.N,IO04-Temperature*%
X140000000Y-83600000D03*
%TO.P,U4-O1,3,V_{DD}*%
%TO.N,+3.3V*%
X141270000Y-83600000D03*
%TD*%
D32*
%TO.P,USB2,1,A*%
%TO.N,Net-(USB2-A)*%
X169340000Y-53050000D03*
D33*
%TO.P,USB2,2,B*%
%TO.N,IO19{slash}USB_D+*%
X168040000Y-53050000D03*
%TD*%
D26*
%TO.P,R6,1*%
%TO.N,Net-(D5-A)*%
X158220000Y-79520000D03*
%TO.P,R6,2*%
%TO.N,Net-(U5-V_{FB})*%
X158220000Y-81520000D03*
%TD*%
D34*
%TO.P,C4,1*%
%TO.N,GND*%
X146625000Y-78740000D03*
%TO.P,C4,2*%
%TO.N,+5V*%
X148700000Y-78740000D03*
%TD*%
D12*
%TO.P,C5,1*%
%TO.N,Net-(D5-A)*%
X151450000Y-65387500D03*
%TO.P,C5,2*%
%TO.N,GND*%
X151450000Y-63312500D03*
%TD*%
D35*
%TO.P,L1,1,1*%
%TO.N,Net-(D1-K)*%
X153050000Y-69100000D03*
%TO.P,L1,2,2*%
%TO.N,Net-(D5-A)*%
X153050000Y-67000000D03*
%TD*%
D18*
%TO.P,TP16,1,1*%
%TO.N,+3.3V*%
X138940000Y-52890000D03*
%TD*%
D26*
%TO.P,R3,1*%
%TO.N,+3.3V*%
X142810000Y-55600000D03*
%TO.P,R3,2*%
%TO.N,IO8*%
X142810000Y-57600000D03*
%TD*%
D36*
%TO.P,J3,A1,GND*%
%TO.N,GND*%
X171905000Y-57050000D03*
%TO.P,J3,A4,VBUS*%
%TO.N,USB_5V*%
X171905000Y-56250000D03*
D37*
%TO.P,J3,A5,CC1*%
%TO.N,Net-(J3-CC1)*%
X171905000Y-55050000D03*
%TO.P,J3,A6,D+*%
%TO.N,Net-(USB2-A)*%
X171905000Y-54050000D03*
%TO.P,J3,A7,D-*%
%TO.N,Net-(USB1-A)*%
X171905000Y-53550000D03*
%TO.P,J3,A8,SBU1*%
%TO.N,unconnected-(J3-SBU1-PadA8)*%
X171905000Y-52550000D03*
D36*
%TO.P,J3,A9,VBUS*%
%TO.N,USB_5V*%
X171905000Y-51350000D03*
%TO.P,J3,A12,GND*%
%TO.N,GND*%
X171905000Y-50550000D03*
%TO.P,J3,B1,GND*%
X171905000Y-50550000D03*
%TO.P,J3,B4,VBUS*%
%TO.N,USB_5V*%
X171905000Y-51350000D03*
D37*
%TO.P,J3,B5,CC2*%
%TO.N,Net-(J3-CC2)*%
X171905000Y-52050000D03*
%TO.P,J3,B6,D+*%
%TO.N,Net-(USB2-A)*%
X171905000Y-53050000D03*
%TO.P,J3,B7,D-*%
%TO.N,Net-(USB1-A)*%
X171905000Y-54550000D03*
%TO.P,J3,B8,SBU2*%
%TO.N,unconnected-(J3-SBU2-PadB8)*%
X171905000Y-55550000D03*
D36*
%TO.P,J3,B9,VBUS*%
%TO.N,USB_5V*%
X171905000Y-56250000D03*
%TO.P,J3,B12,GND*%
%TO.N,GND*%
X171905000Y-57050000D03*
D38*
%TO.P,J3,S1,SHIELD*%
X172820000Y-58120000D03*
D39*
X177000000Y-58120000D03*
D38*
X172820000Y-49480000D03*
D39*
X177000000Y-49480000D03*
%TD*%
D18*
%TO.P,TP7,1,1*%
%TO.N,IO6-IR*%
X171200000Y-61900000D03*
%TD*%
D40*
%TO.P,U6,1*%
%TO.N,GND*%
X148690000Y-86690000D03*
%TO.P,U6,2*%
%TO.N,IO02-Data-3.3V*%
X149960000Y-86690000D03*
%TO.P,U6,3*%
%TO.N,Net-(R5-Pad2)*%
X151230000Y-86690000D03*
%TO.P,U6,4*%
%TO.N,GND*%
X152500000Y-86690000D03*
%TO.P,U6,5*%
%TO.N,IO03-CLK-3.3V*%
X153770000Y-86690000D03*
%TO.P,U6,6*%
%TO.N,Net-(R4-Pad1)*%
X155040000Y-86690000D03*
%TO.P,U6,7,GND*%
%TO.N,GND*%
X156310000Y-86690000D03*
%TO.P,U6,8*%
X156310000Y-81740000D03*
%TO.P,U6,9*%
X155040000Y-81740000D03*
%TO.P,U6,10*%
%TO.N,+5V*%
X153770000Y-81740000D03*
%TO.P,U6,11*%
%TO.N,unconnected-(U6-Pad11)*%
X152500000Y-81740000D03*
%TO.P,U6,12*%
%TO.N,GND*%
X151230000Y-81740000D03*
%TO.P,U6,13*%
%TO.N,+5V*%
X149960000Y-81740000D03*
%TO.P,U6,14,VCC*%
X148690000Y-81740000D03*
%TD*%
D28*
%TO.P,J2,1,Pin_1*%
%TO.N,+VIN*%
X165937500Y-102400000D03*
D29*
%TO.P,J2,2,Pin_2*%
%TO.N,GND*%
X171017500Y-102400000D03*
%TD*%
D41*
%TO.P,C7,1*%
%TO.N,Net-(C7-Pad1)*%
X170070000Y-91700000D03*
D42*
%TO.P,C7,2*%
%TO.N,GND*%
X175070000Y-91700000D03*
%TD*%
D43*
%TO.P,D1,1,K*%
%TO.N,Net-(D1-K)*%
X158050000Y-70050000D03*
%TO.P,D1,2,A*%
%TO.N,GND*%
X158050000Y-65050000D03*
%TD*%
D44*
%TO.P,D2,1,K*%
%TO.N,Net-(D2-K)*%
X164000000Y-73100000D03*
%TO.P,D2,2,A*%
%TO.N,Net-(D2-A)*%
X164000000Y-78100000D03*
%TD*%
D45*
%TO.P,D5,1,K*%
%TO.N,Net-(D5-K)*%
X156050000Y-76200000D03*
%TO.P,D5,2,A*%
%TO.N,Net-(D5-A)*%
X156050000Y-79500000D03*
%TD*%
D46*
%TO.P,J3-O1,1,Pin_1*%
%TO.N,Net-(J3-O1-Pin_1)*%
X170550000Y-74350000D03*
D47*
%TO.P,J3-O1,2,Pin_2*%
%TO.N,GND*%
X170550000Y-71850000D03*
%TD*%
D34*
%TO.P,C11,1*%
%TO.N,GND*%
X141960000Y-48000000D03*
%TO.P,C11,2*%
%TO.N,Net-(U1-EN)*%
X144035000Y-48000000D03*
%TD*%
D48*
%TO.P,F3,1*%
%TO.N,VIN_Fused*%
X165300000Y-86630000D03*
%TO.P,F3,2*%
%TO.N,Net-(D2-A)*%
X165300000Y-81400000D03*
%TD*%
D32*
%TO.P,USB1,1,A*%
%TO.N,Net-(USB1-A)*%
X169350000Y-55800000D03*
D33*
%TO.P,USB1,2,B*%
%TO.N,IO18{slash}USB_D-*%
X168050000Y-55800000D03*
%TD*%
D49*
%TO.P,SW1,1,1*%
%TO.N,GND*%
X140610000Y-63600000D03*
%TO.P,SW1,2,2*%
%TO.N,IO9-boot*%
X140610000Y-59400000D03*
%TD*%
D12*
%TO.P,C15,1*%
%TO.N,Net-(D5-A)*%
X153900000Y-65400000D03*
%TO.P,C15,2*%
%TO.N,GND*%
X153900000Y-63325000D03*
%TD*%
D50*
%TO.N,GND*%
X157820000Y-58330000D03*
X161700000Y-99900000D03*
X155900000Y-52700000D03*
X164390000Y-67230000D03*
X155900000Y-82200000D03*
X172750000Y-59290000D03*
X145000000Y-83100000D03*
X171300000Y-89800000D03*
X146000000Y-107900000D03*
X151660000Y-90680000D03*
X177540000Y-53750000D03*
X172050000Y-93200000D03*
X142400000Y-88200000D03*
X143820000Y-77580000D03*
X143900000Y-61990000D03*
X156300000Y-64000000D03*
X165450000Y-66860000D03*
X169100000Y-87700000D03*
X176200000Y-59400000D03*
X151390000Y-48550000D03*
X171759646Y-107630000D03*
X148280000Y-75130000D03*
X136920000Y-47660000D03*
X170600000Y-94400000D03*
X177900000Y-71600000D03*
X172674823Y-107464607D03*
X177400000Y-57000000D03*
X177800000Y-74600000D03*
X148400000Y-62200000D03*
X175000000Y-69500000D03*
X164210000Y-68760000D03*
X156000000Y-91800000D03*
X177400000Y-88200000D03*
X174144823Y-106444607D03*
X137310000Y-84090000D03*
X157200000Y-67600000D03*
X155920000Y-77840000D03*
X158760000Y-78070000D03*
X144200000Y-86400000D03*
X177700000Y-97900000D03*
X137600000Y-91400000D03*
X163100000Y-93900000D03*
X170800000Y-107600000D03*
X177500000Y-86600000D03*
X147460000Y-76860000D03*
X169084823Y-106994607D03*
X153230000Y-77600000D03*
X153000000Y-53500000D03*
X177300000Y-50600000D03*
X177600000Y-81100000D03*
X136920000Y-49740000D03*
X173474823Y-107024607D03*
X169800000Y-70100000D03*
X142810000Y-60660000D03*
X161720000Y-77510000D03*
X137210000Y-45540000D03*
X161800000Y-79000000D03*
X152630000Y-89670000D03*
X168414823Y-106414607D03*
X155940000Y-81200000D03*
X176800000Y-101600000D03*
X166400000Y-75000000D03*
X177200000Y-48200000D03*
X169884823Y-107434607D03*
X137620000Y-92430000D03*
X140600000Y-48200000D03*
X137340000Y-86180000D03*
X146000000Y-91600000D03*
X175900000Y-48200000D03*
X144300000Y-60750000D03*
X141200000Y-73600000D03*
X147800000Y-85700000D03*
X151230000Y-81740000D03*
X171100000Y-97900000D03*
X175500000Y-100100000D03*
X147800000Y-63300000D03*
X177800000Y-108000000D03*
X156700000Y-94000000D03*
X161340000Y-74860000D03*
X172584823Y-105034607D03*
X145400000Y-93400000D03*
X157200000Y-88400000D03*
X169584823Y-105034607D03*
X150600000Y-99500000D03*
X149400000Y-63800000D03*
X169900000Y-89100000D03*
X142400000Y-107800000D03*
X171390000Y-82400000D03*
X166300000Y-76700000D03*
X170510000Y-49950000D03*
X170040000Y-83100000D03*
X137330000Y-82030000D03*
X174400000Y-98100000D03*
X143800000Y-76200000D03*
X141900000Y-92600000D03*
X176900000Y-60400000D03*
D51*
%TO.N,+3.3V*%
X142000000Y-52920000D03*
D50*
X172500000Y-88330000D03*
X171700000Y-69100000D03*
X145710000Y-47370648D03*
D51*
X140930000Y-68930000D03*
%TO.N,+5V*%
X143500000Y-81590000D03*
D50*
X145500000Y-66900000D03*
X153327035Y-80586317D03*
X149960000Y-79770000D03*
%TO.N,Net-(D5-A)*%
X152500000Y-66000000D03*
X153400000Y-66000000D03*
X154200000Y-66000000D03*
%TO.N,VIN_Fused*%
X162450000Y-86570000D03*
%TO.N,IO00-Voltage*%
X172600000Y-81300000D03*
D51*
X161300000Y-50900000D03*
D50*
X175525000Y-81325000D03*
%TO.N,IO01-Current*%
X175520000Y-60800000D03*
%TO.N,Net-(R4-Pad1)*%
X150500000Y-92170000D03*
%TO.N,Net-(R5-Pad2)*%
X149120000Y-94060000D03*
%TO.N,USB_5V*%
X170450000Y-56250000D03*
X169730000Y-51300000D03*
%TO.N,Net-(J3-CC2)*%
X173570000Y-52520000D03*
%TO.N,Net-(J3-CC1)*%
X173510000Y-55050000D03*
%TO.N,IO05-Relay*%
X144100000Y-51900000D03*
%TO.N,IO8*%
X148590000Y-57900000D03*
%TO.N,IO9-boot*%
X149290000Y-60090000D03*
%TO.N,IO02-Data-3.3V*%
X150500000Y-88390000D03*
D51*
X159400000Y-58700000D03*
D50*
X166300000Y-51900000D03*
%TO.N,IO04-Temperature*%
X150200000Y-50400000D03*
%TO.N,RX*%
X167650000Y-59410000D03*
%TO.N,IO07-Button*%
X168800000Y-68600000D03*
%TO.N,IO10*%
X166900000Y-60900000D03*
%TO.N,IO03-CLK-3.3V*%
X153770000Y-88610000D03*
D51*
X161200000Y-58900000D03*
D50*
%TO.N,TX*%
X167070000Y-57900000D03*
%TD*%
D52*
%TO.N,GND*%
X171905000Y-57205000D02*
X172820000Y-58120000D01*
D53*
X161800000Y-79900000D02*
X161800000Y-79300000D01*
D52*
X171905000Y-50550000D02*
X171905000Y-50395000D01*
D54*
X147107500Y-74190000D02*
X148660000Y-72637500D01*
D53*
X162350000Y-81350000D02*
X162350000Y-80450000D01*
D52*
X171905000Y-50395000D02*
X172820000Y-49480000D01*
D55*
X158760000Y-78070000D02*
X159350000Y-77480000D01*
D53*
X161800000Y-79300000D02*
X161800000Y-79000000D01*
D52*
X171905000Y-57050000D02*
X171905000Y-57205000D01*
D54*
X145640000Y-74190000D02*
X147107500Y-74190000D01*
D55*
X159350000Y-77480000D02*
X159350000Y-76200000D01*
D53*
X162350000Y-80450000D02*
X161800000Y-79900000D01*
D54*
%TO.N,+3.3V*%
X145640000Y-71890000D02*
X139340000Y-71890000D01*
X148310000Y-84110000D02*
X143980000Y-79780000D01*
X141880000Y-55600000D02*
X140610000Y-55600000D01*
X173800000Y-71200000D02*
X173800000Y-76400000D01*
X173800000Y-76400000D02*
X168300000Y-81900000D01*
X138940000Y-52890000D02*
X141970000Y-52890000D01*
X171700000Y-69100000D02*
X173800000Y-71200000D01*
D56*
X144530000Y-46000000D02*
X139800000Y-46000000D01*
D54*
X142000000Y-52920000D02*
X142000000Y-55480000D01*
D56*
X147200000Y-48900000D02*
X146310000Y-48900000D01*
D53*
X141270000Y-83600000D02*
X141300000Y-83600000D01*
D54*
X172500000Y-88330000D02*
X172500000Y-88200000D01*
D56*
X138940000Y-46860000D02*
X138940000Y-52890000D01*
D54*
X139340000Y-78260000D02*
X139340000Y-71890000D01*
D56*
X145710000Y-47370648D02*
X145710000Y-47180000D01*
X145710000Y-47180000D02*
X144530000Y-46000000D01*
D54*
X140930000Y-68930000D02*
X140930000Y-70300000D01*
X142000000Y-50210000D02*
X141980000Y-50190000D01*
X168300000Y-81900000D02*
X168300000Y-84000000D01*
X143980000Y-79780000D02*
X140860000Y-79780000D01*
X142810000Y-55600000D02*
X141880000Y-55600000D01*
D53*
X141970000Y-52890000D02*
X142000000Y-52920000D01*
D56*
X145710000Y-48300000D02*
X145710000Y-47370648D01*
X146310000Y-48900000D02*
X145710000Y-48300000D01*
D54*
X140860000Y-79780000D02*
X139340000Y-78260000D01*
X168300000Y-84000000D02*
X168190000Y-84110000D01*
D53*
X141270000Y-83600000D02*
X141270000Y-79830000D01*
D54*
X170800000Y-68200000D02*
X171700000Y-69100000D01*
D56*
X139800000Y-46000000D02*
X138940000Y-46860000D01*
D54*
X170800000Y-66900000D02*
X170800000Y-68200000D01*
X168190000Y-84110000D02*
X148310000Y-84110000D01*
X140930000Y-70300000D02*
X139340000Y-71890000D01*
X142000000Y-52920000D02*
X142000000Y-50210000D01*
X172500000Y-88200000D02*
X168300000Y-84000000D01*
D53*
%TO.N,+5V*%
X139200000Y-88420000D02*
X139200000Y-92450000D01*
D54*
X145640000Y-67040000D02*
X145500000Y-66900000D01*
D57*
X153327035Y-80586317D02*
X153770000Y-81029282D01*
X148690000Y-81740000D02*
X148690000Y-78750000D01*
D54*
X147687500Y-69590000D02*
X148660000Y-70562500D01*
D53*
X143500000Y-84120000D02*
X139200000Y-88420000D01*
X143500000Y-81590000D02*
X143500000Y-84120000D01*
D54*
X145640000Y-69590000D02*
X147687500Y-69590000D01*
D53*
X139200000Y-92450000D02*
X141780000Y-95030000D01*
D57*
X153770000Y-81029282D02*
X153770000Y-81740000D01*
X149960000Y-79770000D02*
X149960000Y-81740000D01*
X148690000Y-78750000D02*
X148700000Y-78740000D01*
D54*
X145640000Y-69590000D02*
X145640000Y-67040000D01*
D53*
%TO.N,Net-(D5-A)*%
X152500000Y-66000000D02*
X153400000Y-66000000D01*
X150390000Y-68378629D02*
X152418629Y-66350000D01*
X152418629Y-66350000D02*
X152500000Y-66000000D01*
X156050000Y-79500000D02*
X158200000Y-79500000D01*
X153500000Y-79500000D02*
X150390000Y-76390000D01*
X153400000Y-66000000D02*
X152550000Y-66350000D01*
X150390000Y-76390000D02*
X150390000Y-68378629D01*
X156050000Y-79500000D02*
X153500000Y-79500000D01*
D57*
%TO.N,Net-(D2-K)*%
X159350000Y-72657870D02*
X161157870Y-70850000D01*
X161157870Y-70850000D02*
X163350000Y-70850000D01*
X159350000Y-73500000D02*
X159350000Y-72657870D01*
D54*
%TO.N,VIN_Fused*%
X162450000Y-86570000D02*
X162510000Y-86630000D01*
X162510000Y-86630000D02*
X165300000Y-86630000D01*
D53*
%TO.N,Net-(U1-EN)*%
X147200000Y-50400000D02*
X144235000Y-50400000D01*
X144035000Y-50200000D02*
X144035000Y-48000000D01*
X144235000Y-50400000D02*
X144035000Y-50200000D01*
%TO.N,Net-(D5-K)*%
X153050000Y-76225000D02*
X156025000Y-76225000D01*
D57*
X158400000Y-76200000D02*
X156050000Y-76200000D01*
D53*
X156025000Y-76225000D02*
X156050000Y-76200000D01*
%TO.N,IO00-Voltage*%
X175525000Y-81325000D02*
X176300000Y-82100000D01*
X175500000Y-81300000D02*
X172600000Y-81300000D01*
X176300000Y-82100000D02*
X176300000Y-83900000D01*
X164700000Y-48900000D02*
X163300000Y-48900000D01*
X163300000Y-48900000D02*
X161300000Y-50900000D01*
%TO.N,IO01-Current*%
X175960000Y-50960000D02*
X174800000Y-49800000D01*
X174800000Y-49800000D02*
X174800000Y-48700000D01*
X175960000Y-56040000D02*
X175960000Y-50960000D01*
X167800000Y-50400000D02*
X164700000Y-50400000D01*
X174570000Y-57430000D02*
X175960000Y-56040000D01*
X175520000Y-60800000D02*
X174570000Y-59850000D01*
X174570000Y-59850000D02*
X174570000Y-57430000D01*
X174800000Y-48700000D02*
X173900000Y-47800000D01*
X173900000Y-47800000D02*
X170400000Y-47800000D01*
X170400000Y-47800000D02*
X167800000Y-50400000D01*
D57*
%TO.N,Net-(R4-Pad1)*%
X153450000Y-90820000D02*
X152100000Y-92170000D01*
X155040000Y-89230000D02*
X153450000Y-90820000D01*
X152100000Y-92170000D02*
X150500000Y-92170000D01*
X155040000Y-86690000D02*
X155040000Y-89230000D01*
%TO.N,Net-(R5-Pad2)*%
X151230000Y-87520000D02*
X151230000Y-86690000D01*
X149110000Y-94050000D02*
X149110000Y-91260000D01*
X149120000Y-94060000D02*
X149110000Y-94050000D01*
X151540000Y-87830000D02*
X151230000Y-87520000D01*
X149110000Y-91260000D02*
X151540000Y-88830000D01*
X151540000Y-88830000D02*
X151540000Y-87830000D01*
D54*
%TO.N,Net-(D2-A)*%
X164000000Y-78100000D02*
X164000000Y-79000000D01*
X165300000Y-80300000D02*
X165300000Y-81400000D01*
X164000000Y-79000000D02*
X165300000Y-80300000D01*
D58*
%TO.N,Net-(USB1-A)*%
X170830000Y-54550000D02*
X170430000Y-54150000D01*
X171905000Y-54550000D02*
X170600000Y-54550000D01*
X170770000Y-53550000D02*
X171905000Y-53550000D01*
X170600000Y-54550000D02*
X169350000Y-55800000D01*
X170430000Y-53890000D02*
X170770000Y-53550000D01*
X171905000Y-54550000D02*
X170830000Y-54550000D01*
X170430000Y-54150000D02*
X170430000Y-53890000D01*
D52*
%TO.N,USB_5V*%
X169780000Y-51350000D02*
X169730000Y-51300000D01*
X171905000Y-56250000D02*
X170450000Y-56250000D01*
X171905000Y-51350000D02*
X169780000Y-51350000D01*
D58*
%TO.N,Net-(USB2-A)*%
X171905000Y-53050000D02*
X169340000Y-53050000D01*
X172980000Y-54050000D02*
X171905000Y-54050000D01*
X173140000Y-53410000D02*
X173140000Y-53890000D01*
X171905000Y-53050000D02*
X172780000Y-53050000D01*
X173140000Y-53890000D02*
X172980000Y-54050000D01*
X172780000Y-53050000D02*
X173140000Y-53410000D01*
%TO.N,Net-(J3-CC2)*%
X173100000Y-52050000D02*
X171905000Y-52050000D01*
X173570000Y-52520000D02*
X173100000Y-52050000D01*
%TO.N,Net-(J3-CC1)*%
X171905000Y-55050000D02*
X173510000Y-55050000D01*
D53*
%TO.N,IO18{slash}USB_D-*%
X167450000Y-56400000D02*
X164700000Y-56400000D01*
X168050000Y-55800000D02*
X167450000Y-56400000D01*
%TO.N,IO19{slash}USB_D+*%
X166250000Y-54900000D02*
X164700000Y-54900000D01*
X168050000Y-53100000D02*
X166250000Y-54900000D01*
%TO.N,IO05-Relay*%
X145600000Y-53400000D02*
X144100000Y-51900000D01*
X147200000Y-53400000D02*
X145600000Y-53400000D01*
D57*
%TO.N,IO8*%
X147200000Y-57900000D02*
X143110000Y-57900000D01*
X143110000Y-57900000D02*
X142810000Y-57600000D01*
X147200000Y-57900000D02*
X148590000Y-57900000D01*
%TO.N,Net-(U5-V_{FB})*%
X160300000Y-76200000D02*
X160300000Y-81300000D01*
D53*
X158220000Y-81520000D02*
X160180000Y-81520000D01*
X160350000Y-81350000D02*
X160375000Y-81325000D01*
D57*
X160300000Y-81300000D02*
X160350000Y-81350000D01*
D53*
X160180000Y-81520000D02*
X160350000Y-81350000D01*
D57*
%TO.N,IO9-boot*%
X148600000Y-59400000D02*
X149290000Y-60090000D01*
X147200000Y-59400000D02*
X140610000Y-59400000D01*
X147200000Y-59400000D02*
X148600000Y-59400000D01*
D53*
X140610000Y-57600000D02*
X140610000Y-59400000D01*
%TO.N,IO02-Data-3.3V*%
X164700000Y-51900000D02*
X163300000Y-51900000D01*
X164700000Y-51900000D02*
X166300000Y-51900000D01*
X163300000Y-51900000D02*
X159400000Y-55800000D01*
X159400000Y-55800000D02*
X159400000Y-58700000D01*
D57*
X150500000Y-88390000D02*
X149960000Y-87850000D01*
X149960000Y-87850000D02*
X149960000Y-86690000D01*
D53*
%TO.N,IO04-Temperature*%
X148700000Y-51900000D02*
X147200000Y-51900000D01*
X150200000Y-50400000D02*
X148700000Y-51900000D01*
%TO.N,RX*%
X167640000Y-59400000D02*
X167650000Y-59410000D01*
X164700000Y-59400000D02*
X167640000Y-59400000D01*
%TO.N,IO07-Button*%
X168800000Y-68600000D02*
X168800000Y-66900000D01*
X168800000Y-66900000D02*
X167100000Y-65200000D01*
X150300000Y-56400000D02*
X147200000Y-56400000D01*
X155800000Y-61900000D02*
X150300000Y-56400000D01*
X163300000Y-65200000D02*
X160000000Y-61900000D01*
X167100000Y-65200000D02*
X163300000Y-65200000D01*
X160000000Y-61900000D02*
X155800000Y-61900000D01*
%TO.N,IO10*%
X164700000Y-60900000D02*
X166900000Y-60900000D01*
%TO.N,IO03-CLK-3.3V*%
X163700000Y-53400000D02*
X164700000Y-53400000D01*
X161200000Y-58900000D02*
X161200000Y-55900000D01*
D57*
X153770000Y-88610000D02*
X153770000Y-86690000D01*
D53*
X161200000Y-55900000D02*
X163700000Y-53400000D01*
%TO.N,TX*%
X167070000Y-57900000D02*
X164700000Y-57900000D01*
%TO.N,IO6-IR*%
X164200000Y-63200000D02*
X161200000Y-60200000D01*
X171200000Y-61900000D02*
X169900000Y-63200000D01*
X161200000Y-60200000D02*
X157200000Y-60200000D01*
X174180000Y-67580000D02*
X169800000Y-63200000D01*
X174690000Y-67580000D02*
X174180000Y-67580000D01*
X157200000Y-60200000D02*
X151900000Y-54900000D01*
X151900000Y-54900000D02*
X147200000Y-54900000D01*
X169800000Y-63200000D02*
X164200000Y-63200000D01*
%TD*%
%TA.AperFunction,Conductor*%
%TO.N,GND*%
G36*
X143221587Y-44509685D02*
G01*
X143234685Y-44519374D01*
X143425386Y-44680874D01*
X143463823Y-44739220D01*
X143464614Y-44809086D01*
X143427507Y-44868288D01*
X143364284Y-44898030D01*
X143345249Y-44899500D01*
X139713389Y-44899500D01*
X139673728Y-44905781D01*
X139542302Y-44926597D01*
X139377552Y-44980128D01*
X139223211Y-45058768D01*
X139143256Y-45116859D01*
X139083072Y-45160586D01*
X139083070Y-45160588D01*
X139083069Y-45160588D01*
X138100588Y-46143069D01*
X138100588Y-46143070D01*
X138100586Y-46143072D01*
X138056859Y-46203256D01*
X137998768Y-46283211D01*
X137920128Y-46437552D01*
X137866597Y-46602302D01*
X137839500Y-46773389D01*
X137839500Y-50802619D01*
X137837086Y-50826968D01*
X137529453Y-52363149D01*
X137521426Y-52388603D01*
X137515937Y-52401116D01*
X137515936Y-52401120D01*
X137454892Y-52642175D01*
X137454890Y-52642187D01*
X137434357Y-52889994D01*
X137434357Y-52890005D01*
X137454890Y-53137812D01*
X137454892Y-53137824D01*
X137515936Y-53378881D01*
X137615826Y-53606606D01*
X137751833Y-53814782D01*
X137751836Y-53814785D01*
X137920256Y-53997738D01*
X138116491Y-54150474D01*
X138187415Y-54188856D01*
X138330956Y-54266537D01*
X138335190Y-54268828D01*
X138570386Y-54349571D01*
X138815665Y-54390500D01*
X139064334Y-54390500D01*
X139064335Y-54390500D01*
X139219732Y-54364568D01*
X139224713Y-54363842D01*
X139922924Y-54276566D01*
X139991884Y-54287783D01*
X140043835Y-54334504D01*
X140062280Y-54401895D01*
X140041362Y-54468560D01*
X139994601Y-54510090D01*
X139980052Y-54517504D01*
X139962757Y-54524728D01*
X139840666Y-54565186D01*
X139691342Y-54657289D01*
X139567289Y-54781342D01*
X139475187Y-54930663D01*
X139475186Y-54930666D01*
X139420001Y-55097203D01*
X139420001Y-55097204D01*
X139420000Y-55097204D01*
X139409500Y-55199983D01*
X139409500Y-55228414D01*
X139403431Y-55266732D01*
X139390291Y-55307172D01*
X139359500Y-55501577D01*
X139359500Y-55698422D01*
X139390291Y-55892826D01*
X139390291Y-55892829D01*
X139403431Y-55933268D01*
X139409500Y-55971582D01*
X139409500Y-56000000D01*
X139409501Y-56000018D01*
X139420001Y-56102797D01*
X139420001Y-56102799D01*
X139475185Y-56269331D01*
X139475187Y-56269336D01*
X139567289Y-56418657D01*
X139660951Y-56512319D01*
X139694436Y-56573642D01*
X139689452Y-56643334D01*
X139660951Y-56687681D01*
X139567289Y-56781342D01*
X139475187Y-56930663D01*
X139475185Y-56930668D01*
X139454028Y-56994516D01*
X139420001Y-57097203D01*
X139420001Y-57097204D01*
X139420000Y-57097204D01*
X139409500Y-57199983D01*
X139409500Y-58000001D01*
X139409501Y-58000019D01*
X139420000Y-58102796D01*
X139420001Y-58102799D01*
X139475185Y-58269331D01*
X139475187Y-58269336D01*
X139518399Y-58339393D01*
X139535441Y-58385786D01*
X139545519Y-58451835D01*
X139536172Y-58521077D01*
X139490874Y-58574273D01*
X139487089Y-58576655D01*
X139374814Y-58644528D01*
X139374810Y-58644531D01*
X139254530Y-58764811D01*
X139166522Y-58910393D01*
X139115913Y-59072807D01*
X139109500Y-59143386D01*
X139109500Y-59656613D01*
X139115913Y-59727192D01*
X139166522Y-59889606D01*
X139254530Y-60035188D01*
X139374811Y-60155469D01*
X139374813Y-60155470D01*
X139374815Y-60155472D01*
X139520394Y-60243478D01*
X139682804Y-60294086D01*
X139753384Y-60300500D01*
X140144902Y-60300500D01*
X140192354Y-60309939D01*
X140318160Y-60362049D01*
X140318165Y-60362051D01*
X140318169Y-60362051D01*
X140318170Y-60362052D01*
X140511456Y-60400500D01*
X140511459Y-60400500D01*
X140708543Y-60400500D01*
X140851567Y-60372050D01*
X140901835Y-60362051D01*
X140973699Y-60332284D01*
X141027646Y-60309939D01*
X141075098Y-60300500D01*
X141396247Y-60300500D01*
X141402876Y-60300677D01*
X141404532Y-60300765D01*
X141455244Y-60303481D01*
X142041251Y-60254648D01*
X142041266Y-60254646D01*
X142041269Y-60254646D01*
X142069717Y-60251333D01*
X142084063Y-60250500D01*
X145908398Y-60250500D01*
X145935297Y-60253453D01*
X146252899Y-60324031D01*
X146314072Y-60357789D01*
X146347283Y-60419262D01*
X146350000Y-60445078D01*
X146350000Y-60450000D01*
X148049999Y-60450000D01*
X148049999Y-60445078D01*
X148069684Y-60378039D01*
X148122488Y-60332284D01*
X148147096Y-60324031D01*
X148195074Y-60313370D01*
X148264787Y-60318043D01*
X148314953Y-60352376D01*
X148540653Y-60608170D01*
X148619925Y-60698011D01*
X148630111Y-60709212D01*
X148630148Y-60709251D01*
X148630612Y-60709746D01*
X148657994Y-60735218D01*
X148661494Y-60738474D01*
X148669182Y-60746288D01*
X148684131Y-60762890D01*
X148837265Y-60874148D01*
X148837270Y-60874151D01*
X149010192Y-60951142D01*
X149010197Y-60951144D01*
X149195354Y-60990500D01*
X149195355Y-60990500D01*
X149384644Y-60990500D01*
X149384646Y-60990500D01*
X149569803Y-60951144D01*
X149742730Y-60874151D01*
X149895871Y-60762888D01*
X150022533Y-60622216D01*
X150117179Y-60458284D01*
X150175674Y-60278256D01*
X150195460Y-60090000D01*
X150175674Y-59901744D01*
X150117179Y-59721716D01*
X150022533Y-59557784D01*
X149945201Y-59471898D01*
X149895874Y-59417114D01*
X149895867Y-59417108D01*
X149894694Y-59416256D01*
X149885535Y-59408916D01*
X149315060Y-58905556D01*
X149315032Y-58905531D01*
X149314921Y-58905433D01*
X149314921Y-58905432D01*
X149314398Y-58904972D01*
X149314396Y-58904970D01*
X149314382Y-58904958D01*
X149284796Y-58880793D01*
X149284794Y-58880792D01*
X149282997Y-58879324D01*
X149273766Y-58870977D01*
X149170997Y-58768208D01*
X149137513Y-58706885D01*
X149142497Y-58637193D01*
X149184369Y-58581260D01*
X149185715Y-58580266D01*
X149195871Y-58572888D01*
X149322533Y-58432216D01*
X149417179Y-58268284D01*
X149475674Y-58088256D01*
X149495460Y-57900000D01*
X149475674Y-57711744D01*
X149427285Y-57562818D01*
X149425290Y-57492977D01*
X149461370Y-57433144D01*
X149524071Y-57402316D01*
X149545216Y-57400500D01*
X149834218Y-57400500D01*
X149901257Y-57420185D01*
X149921899Y-57436819D01*
X155162215Y-62677137D01*
X155162219Y-62677140D01*
X155326079Y-62786628D01*
X155326085Y-62786631D01*
X155326086Y-62786632D01*
X155508165Y-62862052D01*
X155701455Y-62900500D01*
X155701458Y-62900501D01*
X155701460Y-62900501D01*
X155904655Y-62900501D01*
X155904675Y-62900500D01*
X159534218Y-62900500D01*
X159601257Y-62920185D01*
X159621898Y-62936818D01*
X162522860Y-65837781D01*
X162522861Y-65837782D01*
X162596601Y-65911522D01*
X162662219Y-65977140D01*
X162826079Y-66086628D01*
X162826092Y-66086635D01*
X162954833Y-66139961D01*
X163008159Y-66162049D01*
X163008164Y-66162051D01*
X163095886Y-66179500D01*
X163122279Y-66184750D01*
X163201456Y-66200500D01*
X163201459Y-66200500D01*
X163201460Y-66200500D01*
X163398540Y-66200500D01*
X166634218Y-66200500D01*
X166701257Y-66220185D01*
X166721899Y-66236819D01*
X167055793Y-66570713D01*
X167073425Y-66592934D01*
X167075259Y-66595885D01*
X167075262Y-66595889D01*
X167075266Y-66595895D01*
X167670429Y-67304090D01*
X167698490Y-67368076D01*
X167699500Y-67383867D01*
X167699500Y-67384813D01*
X167699459Y-67387996D01*
X167698746Y-67415735D01*
X167796745Y-68248729D01*
X167798262Y-68259377D01*
X167799500Y-68276857D01*
X167799500Y-68698541D01*
X167799500Y-68698543D01*
X167799499Y-68698543D01*
X167837947Y-68891829D01*
X167837950Y-68891839D01*
X167913364Y-69073907D01*
X167913371Y-69073920D01*
X168022860Y-69237781D01*
X168022863Y-69237785D01*
X168162214Y-69377136D01*
X168162218Y-69377139D01*
X168326079Y-69486628D01*
X168326092Y-69486635D01*
X168403510Y-69518702D01*
X168508165Y-69562051D01*
X168508169Y-69562051D01*
X168508170Y-69562052D01*
X168701456Y-69600500D01*
X168701459Y-69600500D01*
X168898543Y-69600500D01*
X169028582Y-69574632D01*
X169091835Y-69562051D01*
X169273914Y-69486632D01*
X169437782Y-69377139D01*
X169577139Y-69237782D01*
X169686632Y-69073914D01*
X169686631Y-69073914D01*
X169690017Y-69068848D01*
X169692295Y-69070370D01*
X169732974Y-69028943D01*
X169801108Y-69013468D01*
X169866793Y-69037287D01*
X169881073Y-69049547D01*
X172513181Y-71681655D01*
X172546666Y-71742978D01*
X172549500Y-71769336D01*
X172549500Y-75830663D01*
X172529815Y-75897702D01*
X172513181Y-75918344D01*
X167587180Y-80844345D01*
X167525857Y-80877830D01*
X167456165Y-80872846D01*
X167400232Y-80830974D01*
X167375815Y-80765510D01*
X167375499Y-80756664D01*
X167375499Y-80462129D01*
X167375499Y-80462127D01*
X167369091Y-80402517D01*
X167367002Y-80396917D01*
X167318797Y-80267671D01*
X167318793Y-80267664D01*
X167232547Y-80152455D01*
X167232544Y-80152452D01*
X167117335Y-80066206D01*
X167117328Y-80066202D01*
X166982482Y-80015908D01*
X166982483Y-80015908D01*
X166922883Y-80009501D01*
X166922881Y-80009500D01*
X166922873Y-80009500D01*
X166922865Y-80009500D01*
X166610556Y-80009500D01*
X166543517Y-79989815D01*
X166497762Y-79937011D01*
X166492625Y-79923818D01*
X166491167Y-79919331D01*
X166458884Y-79819974D01*
X166369524Y-79644595D01*
X166253829Y-79485355D01*
X166105802Y-79337328D01*
X166079951Y-79299511D01*
X165908372Y-78908855D01*
X165755281Y-78560291D01*
X165410967Y-77776345D01*
X165400499Y-77726481D01*
X165400499Y-76549998D01*
X165400498Y-76549981D01*
X165389999Y-76447203D01*
X165389998Y-76447200D01*
X165377490Y-76409453D01*
X165334814Y-76280666D01*
X165242712Y-76131344D01*
X165118656Y-76007288D01*
X165025888Y-75950069D01*
X164969336Y-75915187D01*
X164969331Y-75915185D01*
X164967862Y-75914698D01*
X164802797Y-75860001D01*
X164802795Y-75860000D01*
X164700010Y-75849500D01*
X163299998Y-75849500D01*
X163299981Y-75849501D01*
X163197203Y-75860000D01*
X163197200Y-75860001D01*
X163030668Y-75915185D01*
X163030663Y-75915187D01*
X162881342Y-76007289D01*
X162757289Y-76131342D01*
X162665187Y-76280663D01*
X162665186Y-76280666D01*
X162610001Y-76447203D01*
X162610001Y-76447204D01*
X162610000Y-76447204D01*
X162599500Y-76549983D01*
X162599500Y-79650001D01*
X162599501Y-79650018D01*
X162610000Y-79752796D01*
X162610001Y-79752799D01*
X162665185Y-79919331D01*
X162665187Y-79919336D01*
X162693661Y-79965499D01*
X162757288Y-80068656D01*
X162881344Y-80192712D01*
X163030666Y-80284814D01*
X163141259Y-80321461D01*
X163198703Y-80361232D01*
X163225526Y-80425748D01*
X163225544Y-80452417D01*
X163224500Y-80462125D01*
X163224500Y-80639992D01*
X163204815Y-80707031D01*
X163152011Y-80752786D01*
X163082853Y-80762730D01*
X163019297Y-80733705D01*
X162994938Y-80702041D01*
X162994756Y-80702172D01*
X162991107Y-80697062D01*
X162989099Y-80694451D01*
X162988785Y-80693809D01*
X162950000Y-80655024D01*
X162950000Y-82044975D01*
X162988784Y-82006191D01*
X162989095Y-82005556D01*
X162989752Y-82004836D01*
X162994756Y-81997828D01*
X162995602Y-81998432D01*
X163036218Y-81953969D01*
X163103750Y-81936049D01*
X163170251Y-81957484D01*
X163214606Y-82011469D01*
X163224500Y-82060006D01*
X163224500Y-82337869D01*
X163224501Y-82337876D01*
X163230908Y-82397483D01*
X163281202Y-82532328D01*
X163281206Y-82532335D01*
X163367452Y-82647544D01*
X163367727Y-82647819D01*
X163367912Y-82648159D01*
X163372768Y-82654645D01*
X163371835Y-82655343D01*
X163401212Y-82709142D01*
X163396228Y-82778834D01*
X163354356Y-82834767D01*
X163288892Y-82859184D01*
X163280046Y-82859500D01*
X158825901Y-82859500D01*
X158758862Y-82839815D01*
X158713107Y-82787011D01*
X158703163Y-82717853D01*
X158732188Y-82654297D01*
X158790966Y-82616523D01*
X158811405Y-82612350D01*
X159536606Y-82527031D01*
X159551286Y-82526183D01*
X159786927Y-82526586D01*
X159825716Y-82532878D01*
X159847203Y-82539999D01*
X159949991Y-82550500D01*
X160750008Y-82550499D01*
X160750016Y-82550498D01*
X160750019Y-82550498D01*
X160806302Y-82544748D01*
X160852797Y-82539999D01*
X161019334Y-82484814D01*
X161168656Y-82392712D01*
X161292712Y-82268656D01*
X161384814Y-82119334D01*
X161439999Y-81952797D01*
X161439999Y-81952795D01*
X161442128Y-81946371D01*
X161443858Y-81946944D01*
X161472818Y-81893472D01*
X161534026Y-81859776D01*
X161603734Y-81864519D01*
X161659812Y-81906197D01*
X161672203Y-81926390D01*
X161711215Y-82006191D01*
X161749999Y-82044975D01*
X161750000Y-82044974D01*
X161750000Y-80655025D01*
X161749999Y-80655024D01*
X161711214Y-80693809D01*
X161711214Y-80693810D01*
X161672202Y-80773609D01*
X161625074Y-80825191D01*
X161557540Y-80843105D01*
X161491041Y-80821664D01*
X161446691Y-80767674D01*
X161442237Y-80753594D01*
X161442129Y-80753630D01*
X161414180Y-80669286D01*
X161408442Y-80651972D01*
X161404950Y-80639174D01*
X161400501Y-80618594D01*
X161400498Y-80618584D01*
X161158263Y-79966569D01*
X161150500Y-79923385D01*
X161150500Y-76116230D01*
X161127882Y-76002525D01*
X161125499Y-75978333D01*
X161125499Y-75528901D01*
X161119431Y-75462117D01*
X161119428Y-75462106D01*
X161071532Y-75308401D01*
X161071531Y-75308400D01*
X161071531Y-75308398D01*
X160988236Y-75170612D01*
X160988234Y-75170610D01*
X160988233Y-75170608D01*
X160874391Y-75056766D01*
X160850529Y-75042341D01*
X160736602Y-74973469D01*
X160720286Y-74968384D01*
X160662140Y-74929648D01*
X160634166Y-74865623D01*
X160645247Y-74796638D01*
X160691866Y-74744594D01*
X160720283Y-74731615D01*
X160736602Y-74726531D01*
X160874388Y-74643236D01*
X160988236Y-74529388D01*
X161071531Y-74391602D01*
X161119430Y-74237887D01*
X161125500Y-74171091D01*
X161125499Y-72828910D01*
X161125499Y-72828901D01*
X161119431Y-72762117D01*
X161119429Y-72762109D01*
X161088044Y-72661391D01*
X161086892Y-72591531D01*
X161123693Y-72532138D01*
X161186762Y-72502070D01*
X161206429Y-72500500D01*
X162475500Y-72500500D01*
X162542539Y-72520185D01*
X162588294Y-72572989D01*
X162599500Y-72624500D01*
X162599500Y-74650001D01*
X162599501Y-74650018D01*
X162610000Y-74752796D01*
X162610001Y-74752799D01*
X162665185Y-74919331D01*
X162665187Y-74919336D01*
X162677933Y-74940000D01*
X162757288Y-75068656D01*
X162881344Y-75192712D01*
X163030666Y-75284814D01*
X163197203Y-75339999D01*
X163299991Y-75350500D01*
X164700008Y-75350499D01*
X164802797Y-75339999D01*
X164969334Y-75284814D01*
X165118656Y-75192712D01*
X165242712Y-75068656D01*
X165334814Y-74919334D01*
X165389999Y-74752797D01*
X165400500Y-74650009D01*
X165400500Y-73699983D01*
X169049500Y-73699983D01*
X169049500Y-75000001D01*
X169049501Y-75000018D01*
X169060000Y-75102796D01*
X169060001Y-75102799D01*
X169110947Y-75256541D01*
X169115186Y-75269334D01*
X169207288Y-75418656D01*
X169331344Y-75542712D01*
X169480666Y-75634814D01*
X169647203Y-75689999D01*
X169749991Y-75700500D01*
X171350008Y-75700499D01*
X171452797Y-75689999D01*
X171619334Y-75634814D01*
X171768656Y-75542712D01*
X171892712Y-75418656D01*
X171984814Y-75269334D01*
X172039999Y-75102797D01*
X172050500Y-75000009D01*
X172050499Y-73699992D01*
X172039999Y-73597203D01*
X171984814Y-73430666D01*
X171892712Y-73281344D01*
X171768656Y-73157288D01*
X171619334Y-73065186D01*
X171452797Y-73010001D01*
X171452795Y-73010000D01*
X171350016Y-72999500D01*
X171030720Y-72999500D01*
X170963681Y-72979815D01*
X170917926Y-72927011D01*
X170907982Y-72857853D01*
X170937007Y-72794297D01*
X170983268Y-72760939D01*
X171130388Y-72700000D01*
X169969611Y-72700000D01*
X170116732Y-72760939D01*
X170171136Y-72804780D01*
X170193201Y-72871074D01*
X170175922Y-72938773D01*
X170124785Y-72986384D01*
X170069280Y-72999500D01*
X169749998Y-72999500D01*
X169749981Y-72999501D01*
X169647203Y-73010000D01*
X169647200Y-73010001D01*
X169480668Y-73065185D01*
X169480663Y-73065187D01*
X169331342Y-73157289D01*
X169207289Y-73281342D01*
X169115187Y-73430663D01*
X169115185Y-73430668D01*
X169087349Y-73514670D01*
X169060001Y-73597203D01*
X169060001Y-73597204D01*
X169060000Y-73597204D01*
X169049500Y-73699983D01*
X165400500Y-73699983D01*
X165400499Y-72624499D01*
X165420184Y-72557461D01*
X165472987Y-72511706D01*
X165524499Y-72500500D01*
X166779055Y-72500500D01*
X166779057Y-72500500D01*
X166931784Y-72459577D01*
X167068716Y-72380520D01*
X167180520Y-72268716D01*
X167259577Y-72131784D01*
X167300500Y-71979057D01*
X167300500Y-71784174D01*
X170050000Y-71784174D01*
X170050000Y-71915826D01*
X170084075Y-72042993D01*
X170149901Y-72157007D01*
X170242993Y-72250099D01*
X170357007Y-72315925D01*
X170484174Y-72350000D01*
X170615826Y-72350000D01*
X170742993Y-72315925D01*
X170857007Y-72250099D01*
X170950099Y-72157007D01*
X171015925Y-72042993D01*
X171050000Y-71915826D01*
X171050000Y-71784174D01*
X171015925Y-71657007D01*
X170950099Y-71542993D01*
X170857007Y-71449901D01*
X170742993Y-71384075D01*
X170615826Y-71350000D01*
X170484174Y-71350000D01*
X170357007Y-71384075D01*
X170242993Y-71449901D01*
X170149901Y-71542993D01*
X170084075Y-71657007D01*
X170050000Y-71784174D01*
X167300500Y-71784174D01*
X167300500Y-69720943D01*
X167259577Y-69568216D01*
X167249501Y-69550763D01*
X167180524Y-69431290D01*
X167180518Y-69431282D01*
X167068717Y-69319481D01*
X167068709Y-69319475D01*
X166931790Y-69240426D01*
X166931786Y-69240424D01*
X166931784Y-69240423D01*
X166779057Y-69199500D01*
X166779056Y-69199500D01*
X166554729Y-69199500D01*
X166515725Y-69193206D01*
X166377797Y-69147501D01*
X166377795Y-69147500D01*
X166275010Y-69137000D01*
X165224998Y-69137000D01*
X165224980Y-69137001D01*
X165122203Y-69147500D01*
X165122200Y-69147501D01*
X164984275Y-69193206D01*
X164945271Y-69199500D01*
X163454729Y-69199500D01*
X163415725Y-69193206D01*
X163277797Y-69147501D01*
X163277795Y-69147500D01*
X163175010Y-69137000D01*
X162124998Y-69137000D01*
X162124980Y-69137001D01*
X162022203Y-69147500D01*
X162022200Y-69147501D01*
X161884275Y-69193206D01*
X161845271Y-69199500D01*
X159920943Y-69199500D01*
X159768216Y-69240423D01*
X159768215Y-69240423D01*
X159636498Y-69316469D01*
X159568598Y-69332940D01*
X159502571Y-69310088D01*
X159459381Y-69255166D01*
X159450499Y-69209081D01*
X159450499Y-68737500D01*
X161930024Y-68737500D01*
X161968808Y-68776284D01*
X162062500Y-68822086D01*
X163237500Y-68822086D01*
X163331191Y-68776284D01*
X163369975Y-68737500D01*
X165030024Y-68737500D01*
X165068808Y-68776284D01*
X165162500Y-68822086D01*
X166337500Y-68822086D01*
X166431191Y-68776284D01*
X166469975Y-68737500D01*
X166337500Y-68737500D01*
X166337500Y-68822086D01*
X165162500Y-68822086D01*
X165162500Y-68737500D01*
X165030024Y-68737500D01*
X163369975Y-68737500D01*
X163237500Y-68737500D01*
X163237500Y-68822086D01*
X162062500Y-68822086D01*
X162062500Y-68737500D01*
X161930024Y-68737500D01*
X159450499Y-68737500D01*
X159450499Y-68499998D01*
X159450498Y-68499981D01*
X159439999Y-68397203D01*
X159439998Y-68397200D01*
X159414355Y-68319815D01*
X159384814Y-68230666D01*
X159292712Y-68081344D01*
X159168656Y-67957288D01*
X159019334Y-67865186D01*
X158852797Y-67810001D01*
X158852795Y-67810000D01*
X158750010Y-67799500D01*
X157349998Y-67799500D01*
X157349981Y-67799501D01*
X157247203Y-67810000D01*
X157247200Y-67810001D01*
X157080668Y-67865185D01*
X157080663Y-67865187D01*
X156931342Y-67957289D01*
X156925451Y-67963181D01*
X156864128Y-67996666D01*
X156837770Y-67999500D01*
X155419786Y-67999500D01*
X155352747Y-67979815D01*
X155306992Y-67927011D01*
X155297048Y-67857853D01*
X155312398Y-67813501D01*
X155320481Y-67799501D01*
X155359577Y-67731784D01*
X155400500Y-67579057D01*
X155400500Y-67562499D01*
X161930024Y-67562499D01*
X161930025Y-67562500D01*
X162062500Y-67562500D01*
X163237500Y-67562500D01*
X163369975Y-67562500D01*
X163369975Y-67562499D01*
X165030024Y-67562499D01*
X165030025Y-67562500D01*
X165162500Y-67562500D01*
X166337500Y-67562500D01*
X166469975Y-67562500D01*
X166469975Y-67562499D01*
X166431190Y-67523714D01*
X166337500Y-67477911D01*
X166337500Y-67562500D01*
X165162500Y-67562500D01*
X165162500Y-67477911D01*
X165068809Y-67523714D01*
X165030024Y-67562499D01*
X163369975Y-67562499D01*
X163331190Y-67523714D01*
X163237500Y-67477911D01*
X163237500Y-67562500D01*
X162062500Y-67562500D01*
X162062500Y-67477911D01*
X161968809Y-67523714D01*
X161930024Y-67562499D01*
X155400500Y-67562499D01*
X155400500Y-66583217D01*
X157050001Y-66583217D01*
X157059912Y-66651249D01*
X157111215Y-66756191D01*
X157149999Y-66794975D01*
X158950000Y-66794975D01*
X158988787Y-66756188D01*
X159040087Y-66651251D01*
X159040088Y-66651248D01*
X159050000Y-66583219D01*
X159050000Y-65950000D01*
X158950000Y-65950000D01*
X158950000Y-66794975D01*
X157149999Y-66794975D01*
X157150000Y-66794974D01*
X157150000Y-65950000D01*
X157050001Y-65950000D01*
X157050001Y-66583217D01*
X155400500Y-66583217D01*
X155400500Y-64820943D01*
X155359577Y-64668216D01*
X155332125Y-64620667D01*
X155280524Y-64531290D01*
X155280518Y-64531282D01*
X155168717Y-64419481D01*
X155168709Y-64419475D01*
X155031790Y-64340426D01*
X155031786Y-64340424D01*
X155031784Y-64340423D01*
X154879057Y-64299500D01*
X150679057Y-64299500D01*
X150520943Y-64299500D01*
X150368216Y-64340423D01*
X150368209Y-64340426D01*
X150231290Y-64419475D01*
X150231282Y-64419481D01*
X150119481Y-64531282D01*
X150119475Y-64531290D01*
X150040426Y-64668209D01*
X150040423Y-64668216D01*
X149999500Y-64820943D01*
X149999500Y-67302846D01*
X149979815Y-67369885D01*
X149963181Y-67390527D01*
X149752220Y-67601488D01*
X149752218Y-67601490D01*
X149696686Y-67657022D01*
X149612859Y-67740848D01*
X149503371Y-67904708D01*
X149503366Y-67904718D01*
X149450038Y-68033464D01*
X149427949Y-68086789D01*
X149425422Y-68099498D01*
X149425421Y-68099501D01*
X149389500Y-68280085D01*
X149389500Y-69224164D01*
X149369815Y-69291203D01*
X149317011Y-69336958D01*
X149247853Y-69346902D01*
X149184297Y-69317877D01*
X149177819Y-69311845D01*
X148502148Y-68636174D01*
X148502146Y-68636172D01*
X148342905Y-68520476D01*
X148302703Y-68499992D01*
X148167530Y-68431117D01*
X147980326Y-68370290D01*
X147785922Y-68339500D01*
X147785917Y-68339500D01*
X147014500Y-68339500D01*
X146947461Y-68319815D01*
X146901706Y-68267011D01*
X146890500Y-68215500D01*
X146890500Y-66941577D01*
X146861137Y-66756191D01*
X146859709Y-66747174D01*
X146831316Y-66659790D01*
X146828541Y-66651248D01*
X146798885Y-66559976D01*
X146798884Y-66559973D01*
X146709523Y-66384594D01*
X146593828Y-66225354D01*
X146314646Y-65946172D01*
X146155405Y-65830476D01*
X145980030Y-65741117D01*
X145792826Y-65680290D01*
X145598422Y-65649500D01*
X145598417Y-65649500D01*
X145401583Y-65649500D01*
X145401578Y-65649500D01*
X145207173Y-65680290D01*
X145019969Y-65741117D01*
X144844594Y-65830476D01*
X144807690Y-65857289D01*
X144685354Y-65946172D01*
X144685352Y-65946174D01*
X144685351Y-65946174D01*
X144546174Y-66085351D01*
X144546174Y-66085352D01*
X144546172Y-66085354D01*
X144496485Y-66153741D01*
X144430476Y-66244594D01*
X144341117Y-66419969D01*
X144280290Y-66607173D01*
X144249500Y-66801577D01*
X144249500Y-66998422D01*
X144280290Y-67192826D01*
X144341117Y-67380030D01*
X144375985Y-67448460D01*
X144389500Y-67504755D01*
X144389500Y-68552073D01*
X144369815Y-68619112D01*
X144362148Y-68629760D01*
X144272971Y-68740702D01*
X144188360Y-68911304D01*
X144142400Y-69096107D01*
X144139500Y-69138879D01*
X144139500Y-70041122D01*
X144139501Y-70041125D01*
X144142399Y-70083886D01*
X144142399Y-70083887D01*
X144188360Y-70268696D01*
X144272967Y-70439292D01*
X144276588Y-70444956D01*
X144275115Y-70445897D01*
X144298437Y-70502396D01*
X144285947Y-70571140D01*
X144238274Y-70622219D01*
X144175131Y-70639500D01*
X142287501Y-70639500D01*
X142220462Y-70619815D01*
X142174707Y-70567011D01*
X142164763Y-70497853D01*
X142165028Y-70496102D01*
X142172189Y-70450890D01*
X142180500Y-70398416D01*
X142180500Y-68831577D01*
X142149709Y-68637173D01*
X142111791Y-68520476D01*
X142088884Y-68449975D01*
X142088882Y-68449972D01*
X142088882Y-68449970D01*
X142041743Y-68357455D01*
X141999524Y-68274595D01*
X141883828Y-68115354D01*
X141744646Y-67976172D01*
X141585405Y-67860476D01*
X141580257Y-67857853D01*
X141410029Y-67771117D01*
X141222826Y-67710290D01*
X141028422Y-67679500D01*
X141028417Y-67679500D01*
X140831583Y-67679500D01*
X140831578Y-67679500D01*
X140637173Y-67710290D01*
X140449970Y-67771117D01*
X140274594Y-67860476D01*
X140213701Y-67904718D01*
X140115354Y-67976172D01*
X140115352Y-67976174D01*
X140115351Y-67976174D01*
X139976174Y-68115351D01*
X139976174Y-68115352D01*
X139976172Y-68115354D01*
X139926485Y-68183741D01*
X139860476Y-68274594D01*
X139771117Y-68449970D01*
X139710290Y-68637173D01*
X139679500Y-68831577D01*
X139679500Y-69365500D01*
X139659815Y-69432539D01*
X139607011Y-69478294D01*
X139555500Y-69489500D01*
X138781971Y-69489500D01*
X138781965Y-69489500D01*
X138781964Y-69489501D01*
X138770316Y-69490536D01*
X138662584Y-69500113D01*
X138466954Y-69556089D01*
X138381934Y-69600500D01*
X138286593Y-69650302D01*
X138286591Y-69650303D01*
X138286590Y-69650304D01*
X138128890Y-69778890D01*
X138000304Y-69936590D01*
X137906089Y-70116954D01*
X137850114Y-70312583D01*
X137850113Y-70312586D01*
X137839500Y-70431966D01*
X137839500Y-73222204D01*
X137839145Y-73231578D01*
X137838958Y-73234035D01*
X137839469Y-73256894D01*
X137839500Y-73259661D01*
X137839500Y-73348027D01*
X137839501Y-73348035D01*
X137850113Y-73467413D01*
X137864900Y-73519095D01*
X137867996Y-73532818D01*
X137985508Y-74237887D01*
X138072456Y-74759577D01*
X138087813Y-74851715D01*
X138089500Y-74872101D01*
X138089500Y-78358422D01*
X138120290Y-78552826D01*
X138181117Y-78740030D01*
X138247086Y-78869500D01*
X138270476Y-78915405D01*
X138386172Y-79074646D01*
X140045355Y-80733829D01*
X140204595Y-80849524D01*
X140204604Y-80849528D01*
X140208743Y-80852065D01*
X140207731Y-80853715D01*
X140252569Y-80896034D01*
X140269500Y-80958581D01*
X140269500Y-82231921D01*
X140249815Y-82298960D01*
X140197011Y-82344715D01*
X140127853Y-82354659D01*
X140121312Y-82353539D01*
X140101004Y-82349500D01*
X140101003Y-82349500D01*
X139898997Y-82349500D01*
X139898992Y-82349500D01*
X139700880Y-82388907D01*
X139700872Y-82388909D01*
X139514247Y-82466212D01*
X139514237Y-82466217D01*
X139346281Y-82578441D01*
X139203441Y-82721281D01*
X139091217Y-82889237D01*
X139091212Y-82889247D01*
X139013909Y-83075872D01*
X139013907Y-83075880D01*
X138974500Y-83273992D01*
X138974500Y-83314170D01*
X138960255Y-83299925D01*
X138874745Y-83250556D01*
X138779370Y-83225000D01*
X138680630Y-83225000D01*
X138585255Y-83250556D01*
X138499745Y-83299925D01*
X138429925Y-83369745D01*
X138380556Y-83455255D01*
X138355000Y-83550630D01*
X138355000Y-83649370D01*
X138380556Y-83744745D01*
X138429925Y-83830255D01*
X138499745Y-83900075D01*
X138585255Y-83949444D01*
X138680630Y-83975000D01*
X138779370Y-83975000D01*
X138874745Y-83949444D01*
X138960255Y-83900075D01*
X138974500Y-83885830D01*
X138974500Y-83926007D01*
X139013907Y-84124119D01*
X139013909Y-84124127D01*
X139091212Y-84310752D01*
X139091217Y-84310762D01*
X139203441Y-84478718D01*
X139346281Y-84621558D01*
X139514237Y-84733782D01*
X139514241Y-84733784D01*
X139514244Y-84733786D01*
X139700873Y-84811091D01*
X139898992Y-84850499D01*
X139898996Y-84850500D01*
X139898997Y-84850500D01*
X140101004Y-84850500D01*
X140101005Y-84850499D01*
X140299127Y-84811091D01*
X140485756Y-84733786D01*
X140566110Y-84680094D01*
X140632786Y-84659217D01*
X140700166Y-84677701D01*
X140703865Y-84680078D01*
X140784244Y-84733786D01*
X140970873Y-84811091D01*
X141021921Y-84821245D01*
X141096258Y-84836032D01*
X141158169Y-84868417D01*
X141192743Y-84929132D01*
X141189004Y-84998902D01*
X141159748Y-85045330D01*
X139815079Y-86390000D01*
X138562220Y-87642859D01*
X138562218Y-87642861D01*
X138509841Y-87695238D01*
X138422859Y-87782219D01*
X138313371Y-87946079D01*
X138313364Y-87946092D01*
X138278914Y-88029265D01*
X138278914Y-88029266D01*
X138237949Y-88128163D01*
X138236318Y-88136360D01*
X138229752Y-88169373D01*
X138229752Y-88169374D01*
X138199500Y-88321456D01*
X138199500Y-92548544D01*
X138237946Y-92741827D01*
X138237948Y-92741834D01*
X138237949Y-92741836D01*
X138240443Y-92747858D01*
X138240447Y-92747874D01*
X138240450Y-92747873D01*
X138313364Y-92923907D01*
X138313371Y-92923920D01*
X138422860Y-93087781D01*
X138422863Y-93087785D01*
X138566537Y-93231459D01*
X138566559Y-93231479D01*
X140425610Y-95090530D01*
X140459095Y-95151853D01*
X140461457Y-95167402D01*
X140469650Y-95261045D01*
X140469651Y-95261051D01*
X140529678Y-95485074D01*
X140529679Y-95485076D01*
X140529680Y-95485079D01*
X140627699Y-95695282D01*
X140760730Y-95885269D01*
X140924731Y-96049270D01*
X141114718Y-96182301D01*
X141324921Y-96280320D01*
X141548950Y-96340349D01*
X141713985Y-96354787D01*
X141779998Y-96360563D01*
X141780000Y-96360563D01*
X141780002Y-96360563D01*
X141837762Y-96355509D01*
X142011050Y-96340349D01*
X142235079Y-96280320D01*
X142445282Y-96182301D01*
X142635269Y-96049270D01*
X142799270Y-95885269D01*
X142932301Y-95695282D01*
X143030320Y-95485079D01*
X143090349Y-95261050D01*
X143110563Y-95030000D01*
X143110563Y-95029998D01*
X151949437Y-95029998D01*
X151949437Y-95030001D01*
X151969650Y-95261044D01*
X151969651Y-95261051D01*
X152029678Y-95485074D01*
X152029679Y-95485076D01*
X152029680Y-95485079D01*
X152127699Y-95695282D01*
X152260730Y-95885269D01*
X152424731Y-96049270D01*
X152614718Y-96182301D01*
X152824921Y-96280320D01*
X153048950Y-96340349D01*
X153213985Y-96354787D01*
X153279998Y-96360563D01*
X153280000Y-96360563D01*
X153280002Y-96360563D01*
X153337762Y-96355509D01*
X153511050Y-96340349D01*
X153735079Y-96280320D01*
X153945282Y-96182301D01*
X154135269Y-96049270D01*
X154299270Y-95885269D01*
X154432301Y-95695282D01*
X154530320Y-95485079D01*
X154590349Y-95261050D01*
X154610563Y-95030000D01*
X154610563Y-95029998D01*
X158949437Y-95029998D01*
X158949437Y-95030001D01*
X158969650Y-95261044D01*
X158969651Y-95261051D01*
X159029678Y-95485074D01*
X159029679Y-95485076D01*
X159029680Y-95485079D01*
X159127699Y-95695282D01*
X159260730Y-95885269D01*
X159424731Y-96049270D01*
X159614718Y-96182301D01*
X159824921Y-96280320D01*
X160048950Y-96340349D01*
X160213985Y-96354787D01*
X160279998Y-96360563D01*
X160280000Y-96360563D01*
X160280002Y-96360563D01*
X160337762Y-96355509D01*
X160511050Y-96340349D01*
X160735079Y-96280320D01*
X160945282Y-96182301D01*
X161135269Y-96049270D01*
X161299270Y-95885269D01*
X161432301Y-95695282D01*
X161530320Y-95485079D01*
X161590349Y-95261050D01*
X161610563Y-95030000D01*
X161590349Y-94798950D01*
X161530320Y-94574921D01*
X161432301Y-94364719D01*
X161432299Y-94364716D01*
X161432298Y-94364714D01*
X161299273Y-94174735D01*
X161299268Y-94174729D01*
X161135269Y-94010730D01*
X161135263Y-94010726D01*
X160945282Y-93877699D01*
X160735079Y-93779680D01*
X160735076Y-93779679D01*
X160735074Y-93779678D01*
X160511051Y-93719651D01*
X160511044Y-93719650D01*
X160280002Y-93699437D01*
X160279998Y-93699437D01*
X160048955Y-93719650D01*
X160048948Y-93719651D01*
X159824917Y-93779681D01*
X159614718Y-93877699D01*
X159614714Y-93877701D01*
X159424735Y-94010726D01*
X159424729Y-94010731D01*
X159260731Y-94174729D01*
X159260726Y-94174735D01*
X159127701Y-94364714D01*
X159127699Y-94364718D01*
X159029681Y-94574917D01*
X158969651Y-94798948D01*
X158969650Y-94798955D01*
X158949437Y-95029998D01*
X154610563Y-95029998D01*
X154590349Y-94798950D01*
X154530320Y-94574921D01*
X154432301Y-94364719D01*
X154432299Y-94364716D01*
X154432298Y-94364714D01*
X154299273Y-94174735D01*
X154299268Y-94174729D01*
X154135269Y-94010730D01*
X154135263Y-94010726D01*
X153945282Y-93877699D01*
X153735079Y-93779680D01*
X153735076Y-93779679D01*
X153735074Y-93779678D01*
X153511051Y-93719651D01*
X153511044Y-93719650D01*
X153280002Y-93699437D01*
X153279998Y-93699437D01*
X153048955Y-93719650D01*
X153048948Y-93719651D01*
X152824917Y-93779681D01*
X152614718Y-93877699D01*
X152614714Y-93877701D01*
X152424735Y-94010726D01*
X152424729Y-94010731D01*
X152260731Y-94174729D01*
X152260726Y-94174735D01*
X152127701Y-94364714D01*
X152127699Y-94364718D01*
X152029681Y-94574917D01*
X151969651Y-94798948D01*
X151969650Y-94798955D01*
X151949437Y-95029998D01*
X143110563Y-95029998D01*
X143090349Y-94798950D01*
X143030320Y-94574921D01*
X142932301Y-94364719D01*
X142932299Y-94364716D01*
X142932298Y-94364714D01*
X142799273Y-94174735D01*
X142799268Y-94174729D01*
X142635269Y-94010730D01*
X142635263Y-94010726D01*
X142445282Y-93877699D01*
X142235079Y-93779680D01*
X142235076Y-93779679D01*
X142235074Y-93779678D01*
X142011051Y-93719651D01*
X142011045Y-93719650D01*
X141917402Y-93711457D01*
X141852334Y-93686004D01*
X141840530Y-93675610D01*
X140236819Y-92071899D01*
X140203334Y-92010576D01*
X140200500Y-91984218D01*
X140200500Y-89457135D01*
X140454500Y-89457135D01*
X140454500Y-91202870D01*
X140454501Y-91202876D01*
X140460908Y-91262483D01*
X140511202Y-91397328D01*
X140511206Y-91397335D01*
X140597452Y-91512544D01*
X140597455Y-91512547D01*
X140712664Y-91598793D01*
X140712671Y-91598797D01*
X140847517Y-91649091D01*
X140847516Y-91649091D01*
X140854444Y-91649835D01*
X140907127Y-91655500D01*
X142652872Y-91655499D01*
X142712483Y-91649091D01*
X142847331Y-91598796D01*
X142962546Y-91512546D01*
X143048796Y-91397331D01*
X143099091Y-91262483D01*
X143105500Y-91202873D01*
X143105499Y-89457128D01*
X143099091Y-89397517D01*
X143097834Y-89394148D01*
X143048797Y-89262671D01*
X143048793Y-89262664D01*
X142962547Y-89147455D01*
X142962544Y-89147452D01*
X142847335Y-89061206D01*
X142847328Y-89061202D01*
X142712482Y-89010908D01*
X142712483Y-89010908D01*
X142652883Y-89004501D01*
X142652881Y-89004500D01*
X142652873Y-89004500D01*
X142652864Y-89004500D01*
X140907129Y-89004500D01*
X140907123Y-89004501D01*
X140847516Y-89010908D01*
X140712671Y-89061202D01*
X140712664Y-89061206D01*
X140597455Y-89147452D01*
X140597452Y-89147455D01*
X140511206Y-89262664D01*
X140511202Y-89262671D01*
X140460908Y-89397517D01*
X140457376Y-89430375D01*
X140454501Y-89457123D01*
X140454500Y-89457135D01*
X140200500Y-89457135D01*
X140200500Y-88885782D01*
X140220185Y-88818743D01*
X140236819Y-88798101D01*
X141495292Y-87539628D01*
X148290000Y-87539628D01*
X148304503Y-87612540D01*
X148304504Y-87612543D01*
X148359759Y-87695238D01*
X148359761Y-87695241D01*
X148389999Y-87715444D01*
X148390000Y-87715444D01*
X148390000Y-86990000D01*
X148290000Y-86990000D01*
X148290000Y-87539628D01*
X141495292Y-87539628D01*
X143194550Y-85840371D01*
X148290000Y-85840371D01*
X148290000Y-86390000D01*
X148390000Y-86390000D01*
X148390000Y-85664553D01*
X148359762Y-85684757D01*
X148359759Y-85684760D01*
X148304505Y-85767455D01*
X148304503Y-85767459D01*
X148290000Y-85840371D01*
X143194550Y-85840371D01*
X144277136Y-84757785D01*
X144277136Y-84757784D01*
X144277139Y-84757782D01*
X144342998Y-84659217D01*
X144386631Y-84593916D01*
X144386635Y-84593908D01*
X144401605Y-84557764D01*
X144435680Y-84475500D01*
X144462051Y-84411836D01*
X144500500Y-84218541D01*
X144500500Y-84021460D01*
X144500500Y-82368336D01*
X144520185Y-82301297D01*
X144572989Y-82255542D01*
X144642147Y-82245598D01*
X144705703Y-82274623D01*
X144712179Y-82280654D01*
X146130066Y-83698541D01*
X147495355Y-85063830D01*
X147495360Y-85063834D01*
X147628375Y-85160474D01*
X147654595Y-85179524D01*
X147829974Y-85268884D01*
X147985754Y-85319500D01*
X147985756Y-85319501D01*
X148017166Y-85329707D01*
X148017169Y-85329707D01*
X148017174Y-85329709D01*
X148107213Y-85343969D01*
X148211578Y-85360500D01*
X148211583Y-85360500D01*
X148211584Y-85360500D01*
X148408417Y-85360500D01*
X149135222Y-85360500D01*
X149202261Y-85380185D01*
X149248016Y-85432989D01*
X149257960Y-85502147D01*
X149241955Y-85547620D01*
X149208254Y-85604605D01*
X149208252Y-85604609D01*
X149205410Y-85614392D01*
X149167800Y-85673276D01*
X149104326Y-85702478D01*
X149035140Y-85692728D01*
X149017445Y-85682892D01*
X148990000Y-85664553D01*
X148990000Y-87715444D01*
X149043953Y-87744283D01*
X149093797Y-87793245D01*
X149109500Y-87853641D01*
X149109500Y-87933771D01*
X149142182Y-88098074D01*
X149142184Y-88098082D01*
X149154645Y-88128165D01*
X149154645Y-88128166D01*
X149206296Y-88252863D01*
X149206297Y-88252866D01*
X149299372Y-88392161D01*
X149299375Y-88392165D01*
X149671283Y-88764072D01*
X149690989Y-88789753D01*
X149767467Y-88922216D01*
X149811588Y-88971218D01*
X149894123Y-89062883D01*
X149894130Y-89062889D01*
X149898416Y-89066003D01*
X149941080Y-89121333D01*
X149947058Y-89190947D01*
X149914450Y-89252741D01*
X149913209Y-89254000D01*
X148449375Y-90717834D01*
X148449372Y-90717838D01*
X148356297Y-90857133D01*
X148329072Y-90922862D01*
X148292185Y-91011913D01*
X148292182Y-91011925D01*
X148259500Y-91176228D01*
X148259500Y-93774626D01*
X148253431Y-93812943D01*
X148234328Y-93871737D01*
X148234326Y-93871744D01*
X148214540Y-94060000D01*
X148234326Y-94248256D01*
X148234327Y-94248259D01*
X148292818Y-94428277D01*
X148292821Y-94428284D01*
X148387467Y-94592216D01*
X148514129Y-94732888D01*
X148667265Y-94844148D01*
X148667270Y-94844151D01*
X148840192Y-94921142D01*
X148840197Y-94921144D01*
X149025354Y-94960500D01*
X149025355Y-94960500D01*
X149214644Y-94960500D01*
X149214646Y-94960500D01*
X149399803Y-94921144D01*
X149572730Y-94844151D01*
X149725871Y-94732888D01*
X149852533Y-94592216D01*
X149947179Y-94428284D01*
X150005674Y-94248256D01*
X150025460Y-94060000D01*
X150005674Y-93871744D01*
X149966569Y-93751391D01*
X149960500Y-93713073D01*
X149960500Y-93106462D01*
X149980185Y-93039423D01*
X150032989Y-92993668D01*
X150102147Y-92983724D01*
X150134936Y-92993183D01*
X150162733Y-93005559D01*
X150220197Y-93031144D01*
X150405354Y-93070500D01*
X150405355Y-93070500D01*
X150594644Y-93070500D01*
X150594646Y-93070500D01*
X150779803Y-93031144D01*
X150779808Y-93031141D01*
X150785986Y-93029135D01*
X150786209Y-93029821D01*
X150830067Y-93020500D01*
X152183768Y-93020500D01*
X152183769Y-93020499D01*
X152238538Y-93009605D01*
X152348074Y-92987818D01*
X152348078Y-92987816D01*
X152348082Y-92987816D01*
X152393415Y-92969037D01*
X152502863Y-92923704D01*
X152642162Y-92830627D01*
X153981952Y-91490834D01*
X153981957Y-91490831D01*
X153992160Y-91480627D01*
X153992162Y-91480627D01*
X154820654Y-90652135D01*
X168569500Y-90652135D01*
X168569500Y-92747870D01*
X168569501Y-92747873D01*
X168575908Y-92807483D01*
X168626202Y-92942328D01*
X168626206Y-92942335D01*
X168712452Y-93057544D01*
X168712455Y-93057547D01*
X168827664Y-93143793D01*
X168827671Y-93143797D01*
X168962517Y-93194091D01*
X168962516Y-93194091D01*
X168969444Y-93194835D01*
X169022127Y-93200500D01*
X171117872Y-93200499D01*
X171177483Y-93194091D01*
X171312331Y-93143796D01*
X171427546Y-93057546D01*
X171513796Y-92942331D01*
X171564091Y-92807483D01*
X171570500Y-92747873D01*
X171570499Y-91634174D01*
X174570000Y-91634174D01*
X174570000Y-91765826D01*
X174604075Y-91892993D01*
X174669901Y-92007007D01*
X174762993Y-92100099D01*
X174877007Y-92165925D01*
X175004174Y-92200000D01*
X175135826Y-92200000D01*
X175262993Y-92165925D01*
X175377007Y-92100099D01*
X175470099Y-92007007D01*
X175535925Y-91892993D01*
X175570000Y-91765826D01*
X175570000Y-91634174D01*
X175535925Y-91507007D01*
X175470099Y-91392993D01*
X175377007Y-91299901D01*
X175262993Y-91234075D01*
X175135826Y-91200000D01*
X175004174Y-91200000D01*
X174877007Y-91234075D01*
X174762993Y-91299901D01*
X174669901Y-91392993D01*
X174604075Y-91507007D01*
X174570000Y-91634174D01*
X171570499Y-91634174D01*
X171570499Y-90652128D01*
X171564091Y-90592517D01*
X171513796Y-90457669D01*
X171513795Y-90457668D01*
X171513793Y-90457664D01*
X171427547Y-90342455D01*
X171427544Y-90342452D01*
X171312335Y-90256206D01*
X171312328Y-90256202D01*
X171177482Y-90205908D01*
X171177483Y-90205908D01*
X171117883Y-90199501D01*
X171117881Y-90199500D01*
X171117873Y-90199500D01*
X171117864Y-90199500D01*
X169022129Y-90199500D01*
X169022123Y-90199501D01*
X168962516Y-90205908D01*
X168827671Y-90256202D01*
X168827664Y-90256206D01*
X168712455Y-90342452D01*
X168712452Y-90342455D01*
X168626206Y-90457664D01*
X168626202Y-90457671D01*
X168575908Y-90592517D01*
X168569501Y-90652116D01*
X168569501Y-90652123D01*
X168569500Y-90652135D01*
X154820654Y-90652135D01*
X155700627Y-89772162D01*
X155793704Y-89632862D01*
X155831259Y-89542194D01*
X155857816Y-89478082D01*
X155890500Y-89313767D01*
X155890500Y-87853641D01*
X155910185Y-87786602D01*
X155956047Y-87744283D01*
X156010000Y-87715444D01*
X156610000Y-87715444D01*
X156640238Y-87695241D01*
X156640240Y-87695238D01*
X156695495Y-87612543D01*
X156695496Y-87612540D01*
X156709999Y-87539628D01*
X156710000Y-87539626D01*
X156710000Y-86990000D01*
X156610000Y-86990000D01*
X156610000Y-87715444D01*
X156010000Y-87715444D01*
X156010000Y-86390000D01*
X156610000Y-86390000D01*
X156710000Y-86390000D01*
X156710000Y-85840373D01*
X156709999Y-85840371D01*
X156695496Y-85767459D01*
X156695494Y-85767455D01*
X156640240Y-85684760D01*
X156640237Y-85684757D01*
X156610000Y-85664553D01*
X156610000Y-86390000D01*
X156010000Y-86390000D01*
X156010000Y-85664553D01*
X156009999Y-85664553D01*
X155982553Y-85682892D01*
X155915876Y-85703770D01*
X155848496Y-85685285D01*
X155801806Y-85633306D01*
X155794587Y-85614386D01*
X155791745Y-85604605D01*
X155791744Y-85604604D01*
X155791744Y-85604602D01*
X155758044Y-85547619D01*
X155740863Y-85479896D01*
X155763024Y-85413634D01*
X155817490Y-85369871D01*
X155864778Y-85360500D01*
X161605624Y-85360500D01*
X161672663Y-85380185D01*
X161718418Y-85432989D01*
X161728362Y-85502147D01*
X161699337Y-85565703D01*
X161678509Y-85584818D01*
X161635357Y-85616169D01*
X161635351Y-85616174D01*
X161496174Y-85755351D01*
X161496174Y-85755352D01*
X161496172Y-85755354D01*
X161464239Y-85799306D01*
X161380476Y-85914594D01*
X161291117Y-86089969D01*
X161230290Y-86277173D01*
X161199500Y-86471577D01*
X161199500Y-86668422D01*
X161230290Y-86862826D01*
X161291117Y-87050030D01*
X161351079Y-87167711D01*
X161380476Y-87225405D01*
X161496172Y-87384646D01*
X161695354Y-87583828D01*
X161854595Y-87699524D01*
X161940613Y-87743352D01*
X162029973Y-87788884D01*
X162029979Y-87788886D01*
X162103687Y-87812835D01*
X162103688Y-87812835D01*
X162160431Y-87831272D01*
X162217173Y-87849709D01*
X162411578Y-87880500D01*
X162411583Y-87880500D01*
X162411584Y-87880500D01*
X162608417Y-87880500D01*
X162754004Y-87880500D01*
X162773273Y-87882006D01*
X163642424Y-88018726D01*
X163667199Y-88021998D01*
X163704996Y-88020627D01*
X163706308Y-88020580D01*
X163710800Y-88020499D01*
X166922871Y-88020499D01*
X166922872Y-88020499D01*
X166982483Y-88014091D01*
X167117331Y-87963796D01*
X167232546Y-87877546D01*
X167318796Y-87762331D01*
X167369091Y-87627483D01*
X167375500Y-87567873D01*
X167375499Y-85692128D01*
X167369091Y-85632517D01*
X167369091Y-85632516D01*
X167330047Y-85527833D01*
X167325063Y-85458141D01*
X167358548Y-85396818D01*
X167419872Y-85363334D01*
X167446229Y-85360500D01*
X167840664Y-85360500D01*
X167907703Y-85380185D01*
X167928345Y-85396819D01*
X171326776Y-88795250D01*
X171349580Y-88826637D01*
X171430474Y-88985403D01*
X171444349Y-89004500D01*
X171546172Y-89144646D01*
X171685354Y-89283828D01*
X171844595Y-89399524D01*
X171905144Y-89430375D01*
X172019970Y-89488882D01*
X172019972Y-89488882D01*
X172019975Y-89488884D01*
X172120317Y-89521487D01*
X172207173Y-89549709D01*
X172401578Y-89580500D01*
X172401583Y-89580500D01*
X172598422Y-89580500D01*
X172792826Y-89549709D01*
X172815093Y-89542474D01*
X172980025Y-89488884D01*
X173155405Y-89399524D01*
X173314646Y-89283828D01*
X173453828Y-89144646D01*
X173569524Y-88985405D01*
X173658884Y-88810025D01*
X173719709Y-88622826D01*
X173721740Y-88610000D01*
X173750500Y-88428422D01*
X173750500Y-88101577D01*
X173725871Y-87946079D01*
X173719709Y-87907174D01*
X173701037Y-87849709D01*
X173680533Y-87786602D01*
X173658885Y-87719976D01*
X173658884Y-87719973D01*
X173613352Y-87630613D01*
X173569524Y-87544595D01*
X173453828Y-87385354D01*
X169586819Y-83518345D01*
X169553334Y-83457022D01*
X169550500Y-83430664D01*
X169550500Y-82469336D01*
X169570185Y-82402297D01*
X169586819Y-82381655D01*
X170569931Y-81398543D01*
X171599499Y-81398543D01*
X171637947Y-81591829D01*
X171637950Y-81591839D01*
X171713364Y-81773907D01*
X171713371Y-81773920D01*
X171822860Y-81937781D01*
X171822863Y-81937785D01*
X171962214Y-82077136D01*
X171962218Y-82077139D01*
X172126079Y-82186628D01*
X172126092Y-82186635D01*
X172308160Y-82262049D01*
X172308165Y-82262051D01*
X172308169Y-82262051D01*
X172308170Y-82262052D01*
X172501456Y-82300500D01*
X172501459Y-82300500D01*
X175034217Y-82300500D01*
X175101256Y-82320185D01*
X175121899Y-82336820D01*
X175168098Y-82383020D01*
X175201582Y-82444343D01*
X175197239Y-82512275D01*
X174903608Y-83337355D01*
X174894312Y-83367287D01*
X174889449Y-83380314D01*
X174875936Y-83411121D01*
X174814892Y-83652175D01*
X174814890Y-83652187D01*
X174794357Y-83899994D01*
X174794357Y-83900005D01*
X174814890Y-84147812D01*
X174814892Y-84147824D01*
X174875936Y-84388881D01*
X174975826Y-84616606D01*
X175111833Y-84824782D01*
X175135507Y-84850499D01*
X175280256Y-85007738D01*
X175476491Y-85160474D01*
X175695190Y-85278828D01*
X175930386Y-85359571D01*
X176175665Y-85400500D01*
X176424335Y-85400500D01*
X176669614Y-85359571D01*
X176904810Y-85278828D01*
X177123509Y-85160474D01*
X177319744Y-85007738D01*
X177488164Y-84824785D01*
X177624173Y-84616607D01*
X177724063Y-84388881D01*
X177785108Y-84147821D01*
X177786999Y-84125000D01*
X177805643Y-83900005D01*
X177805643Y-83899994D01*
X177785109Y-83652187D01*
X177785107Y-83652175D01*
X177724062Y-83411115D01*
X177703608Y-83364486D01*
X177695980Y-83340955D01*
X177693698Y-83330426D01*
X177488398Y-82778834D01*
X177308288Y-82294922D01*
X177300500Y-82251669D01*
X177300500Y-82204675D01*
X177300501Y-82204654D01*
X177300501Y-82001457D01*
X177300500Y-82001455D01*
X177293748Y-81967511D01*
X177262052Y-81808165D01*
X177186632Y-81626086D01*
X177186631Y-81626085D01*
X177186628Y-81626079D01*
X177077140Y-81462219D01*
X177077137Y-81462215D01*
X176284209Y-80669289D01*
X176284206Y-80669285D01*
X176284206Y-80669286D01*
X176277139Y-80662219D01*
X176277139Y-80662218D01*
X176137782Y-80522861D01*
X176137781Y-80522860D01*
X176137780Y-80522859D01*
X175973920Y-80413371D01*
X175973907Y-80413364D01*
X175791839Y-80337950D01*
X175791829Y-80337947D01*
X175598543Y-80299500D01*
X175598541Y-80299500D01*
X172501459Y-80299500D01*
X172501457Y-80299500D01*
X172308170Y-80337947D01*
X172308160Y-80337950D01*
X172126092Y-80413364D01*
X172126079Y-80413371D01*
X171962218Y-80522860D01*
X171962214Y-80522863D01*
X171822863Y-80662214D01*
X171822860Y-80662218D01*
X171713371Y-80826079D01*
X171713364Y-80826092D01*
X171637950Y-81008160D01*
X171637947Y-81008170D01*
X171599500Y-81201456D01*
X171599500Y-81201459D01*
X171599500Y-81398541D01*
X171599500Y-81398543D01*
X171599499Y-81398543D01*
X170569931Y-81398543D01*
X172148503Y-79819971D01*
X174753829Y-77214645D01*
X174869524Y-77055405D01*
X174958884Y-76880026D01*
X175019709Y-76692826D01*
X175032430Y-76612508D01*
X175050500Y-76498422D01*
X175050500Y-71101577D01*
X175030864Y-70977604D01*
X175019709Y-70907174D01*
X175011475Y-70881834D01*
X174991539Y-70820476D01*
X174958884Y-70719975D01*
X174958882Y-70719972D01*
X174958882Y-70719970D01*
X174869523Y-70544594D01*
X174838864Y-70502396D01*
X174753828Y-70385354D01*
X174614646Y-70246172D01*
X172514646Y-68146172D01*
X172086819Y-67718345D01*
X172053334Y-67657022D01*
X172050500Y-67630664D01*
X172050500Y-67164782D01*
X172070185Y-67097743D01*
X172122989Y-67051988D01*
X172192147Y-67042044D01*
X172255703Y-67071069D01*
X172262181Y-67077101D01*
X172403030Y-67217950D01*
X172419999Y-67239115D01*
X172423416Y-67244491D01*
X172958844Y-67868716D01*
X172990106Y-67905162D01*
X173261238Y-68221259D01*
X173289943Y-68284960D01*
X173290476Y-68289386D01*
X173300004Y-68382638D01*
X173355203Y-68549220D01*
X173447330Y-68698581D01*
X173571419Y-68822670D01*
X173720780Y-68914797D01*
X173831834Y-68951596D01*
X173887361Y-68969996D01*
X173924236Y-68973763D01*
X173990174Y-68980500D01*
X173990178Y-68980500D01*
X175389822Y-68980500D01*
X175389826Y-68980500D01*
X175492638Y-68969996D01*
X175659220Y-68914797D01*
X175808581Y-68822670D01*
X175932670Y-68698581D01*
X176024797Y-68549220D01*
X176079996Y-68382638D01*
X176090500Y-68279826D01*
X176090500Y-66880174D01*
X176082470Y-66801577D01*
X176079996Y-66777361D01*
X176041037Y-66659790D01*
X176024797Y-66610780D01*
X175932670Y-66461419D01*
X175808581Y-66337330D01*
X175659220Y-66245203D01*
X175657382Y-66244594D01*
X175492638Y-66190003D01*
X175389833Y-66179500D01*
X175389826Y-66179500D01*
X175078945Y-66179500D01*
X175040113Y-66173263D01*
X175006114Y-66162052D01*
X174939121Y-66139961D01*
X174337579Y-65941604D01*
X174288730Y-65911522D01*
X173744192Y-65366984D01*
X173744191Y-65366984D01*
X173758243Y-65413305D01*
X173758867Y-65483172D01*
X173721619Y-65542285D01*
X173658325Y-65571876D01*
X173589081Y-65562551D01*
X173551902Y-65536982D01*
X172995676Y-64980756D01*
X174240000Y-64980756D01*
X174240000Y-65099244D01*
X174270667Y-65213694D01*
X174329910Y-65316306D01*
X174413694Y-65400090D01*
X174516306Y-65459333D01*
X174630756Y-65490000D01*
X174749244Y-65490000D01*
X174863694Y-65459333D01*
X174966306Y-65400090D01*
X175050090Y-65316306D01*
X175109333Y-65213694D01*
X175140000Y-65099244D01*
X175140000Y-64980756D01*
X175109333Y-64866306D01*
X175050090Y-64763694D01*
X174966306Y-64679910D01*
X174863694Y-64620667D01*
X174749244Y-64590000D01*
X174630756Y-64590000D01*
X174516306Y-64620667D01*
X174413694Y-64679910D01*
X174329910Y-64763694D01*
X174270667Y-64866306D01*
X174240000Y-64980756D01*
X172995676Y-64980756D01*
X172604920Y-64590000D01*
X171591581Y-63576660D01*
X171558096Y-63515337D01*
X171563080Y-63445645D01*
X171604952Y-63389712D01*
X171619562Y-63380297D01*
X171797923Y-63282380D01*
X171801500Y-63280618D01*
X171804803Y-63278830D01*
X171804810Y-63278828D01*
X172023509Y-63160474D01*
X172219744Y-63007738D01*
X172388164Y-62824785D01*
X172524173Y-62616607D01*
X172624063Y-62388881D01*
X172685108Y-62147821D01*
X172693736Y-62043699D01*
X172705643Y-61900005D01*
X172705643Y-61899994D01*
X172685109Y-61652187D01*
X172685107Y-61652175D01*
X172624063Y-61411118D01*
X172524173Y-61183393D01*
X172388166Y-60975217D01*
X172317583Y-60898544D01*
X172219744Y-60792262D01*
X172023509Y-60639526D01*
X172023507Y-60639525D01*
X172023506Y-60639524D01*
X171804811Y-60521172D01*
X171804802Y-60521169D01*
X171569616Y-60440429D01*
X171324335Y-60399500D01*
X171075665Y-60399500D01*
X170830383Y-60440429D01*
X170595197Y-60521169D01*
X170595188Y-60521172D01*
X170376493Y-60639524D01*
X170180257Y-60792261D01*
X170011833Y-60975217D01*
X169875826Y-61183394D01*
X169843517Y-61257049D01*
X169829069Y-61281761D01*
X169827966Y-61283227D01*
X169827960Y-61283236D01*
X169604968Y-61689426D01*
X169406548Y-62050858D01*
X169360260Y-62135173D01*
X169310743Y-62184467D01*
X169251563Y-62199500D01*
X164665783Y-62199500D01*
X164598744Y-62179815D01*
X164578102Y-62163181D01*
X164527102Y-62112181D01*
X164493617Y-62050858D01*
X164498601Y-61981166D01*
X164540473Y-61925233D01*
X164605937Y-61900816D01*
X164614783Y-61900500D01*
X166998543Y-61900500D01*
X167128582Y-61874632D01*
X167191835Y-61862051D01*
X167373914Y-61786632D01*
X167537782Y-61677139D01*
X167677139Y-61537782D01*
X167786632Y-61373914D01*
X167792458Y-61359850D01*
X167803721Y-61332655D01*
X167862051Y-61191835D01*
X167881944Y-61091828D01*
X167900500Y-60998543D01*
X167900500Y-60801456D01*
X167862052Y-60608170D01*
X167862051Y-60608169D01*
X167862051Y-60608165D01*
X167835587Y-60544276D01*
X167828119Y-60474810D01*
X167859394Y-60412331D01*
X167919482Y-60376678D01*
X167925944Y-60375211D01*
X167941836Y-60372051D01*
X168123914Y-60296631D01*
X168287781Y-60187139D01*
X168427139Y-60047781D01*
X168536631Y-59883914D01*
X168612051Y-59701836D01*
X168650500Y-59508540D01*
X168650500Y-59311460D01*
X168650500Y-59311457D01*
X168650499Y-59311455D01*
X168617068Y-59143386D01*
X168612051Y-59118164D01*
X168536631Y-58936086D01*
X168536629Y-58936083D01*
X168536627Y-58936079D01*
X168427140Y-58772221D01*
X168427139Y-58772219D01*
X168421473Y-58766553D01*
X168421458Y-58766536D01*
X168277785Y-58622863D01*
X168277781Y-58622860D01*
X168273501Y-58620000D01*
X171936028Y-58620000D01*
X172038408Y-58679110D01*
X172191009Y-58719999D01*
X172191011Y-58720000D01*
X172320000Y-58720000D01*
X172320000Y-58620000D01*
X171936028Y-58620000D01*
X168273501Y-58620000D01*
X168113920Y-58513371D01*
X168113911Y-58513366D01*
X168044921Y-58484790D01*
X167990518Y-58440949D01*
X167968453Y-58374655D01*
X167977812Y-58322779D01*
X168032051Y-58191835D01*
X168052654Y-58088256D01*
X168070500Y-57998543D01*
X168070500Y-57801456D01*
X168032052Y-57608170D01*
X168032051Y-57608169D01*
X168032051Y-57608165D01*
X168008963Y-57552424D01*
X167956635Y-57426092D01*
X167956627Y-57426078D01*
X167951006Y-57417665D01*
X167930127Y-57350988D01*
X167948611Y-57283608D01*
X167985215Y-57245671D01*
X168087782Y-57177139D01*
X168173103Y-57091817D01*
X168234424Y-57058334D01*
X168260783Y-57055500D01*
X168550000Y-57055500D01*
X168621940Y-57050355D01*
X168659259Y-57039396D01*
X168711841Y-57035636D01*
X168850000Y-57055500D01*
X168850003Y-57055500D01*
X169421886Y-57055500D01*
X169421889Y-57055500D01*
X169564304Y-57035024D01*
X169702259Y-56994517D01*
X169784071Y-56957154D01*
X169853226Y-56947211D01*
X169908465Y-56969631D01*
X169997265Y-57034148D01*
X169997270Y-57034151D01*
X170170192Y-57111142D01*
X170170197Y-57111144D01*
X170355354Y-57150500D01*
X170355355Y-57150500D01*
X170544644Y-57150500D01*
X170544646Y-57150500D01*
X170700375Y-57117398D01*
X170703233Y-57116826D01*
X171066419Y-57048728D01*
X171102519Y-57047316D01*
X171132127Y-57050500D01*
X172081001Y-57050499D01*
X172148039Y-57070183D01*
X172193794Y-57122987D01*
X172205000Y-57174499D01*
X172205000Y-57226000D01*
X172185315Y-57293039D01*
X172132511Y-57338794D01*
X172081000Y-57350000D01*
X171080001Y-57350000D01*
X171080001Y-57359844D01*
X171085802Y-57389018D01*
X171107904Y-57422095D01*
X171140983Y-57444198D01*
X171140984Y-57444199D01*
X171170148Y-57449999D01*
X171795326Y-57449999D01*
X171862365Y-57469683D01*
X171908120Y-57522487D01*
X171915101Y-57541905D01*
X171936027Y-57620000D01*
X172320000Y-57620000D01*
X172320000Y-57573999D01*
X172339685Y-57506960D01*
X172392489Y-57461205D01*
X172444000Y-57449999D01*
X172639845Y-57449999D01*
X172669018Y-57444197D01*
X172702095Y-57422095D01*
X172724198Y-57389016D01*
X172724199Y-57389015D01*
X172729999Y-57359852D01*
X172729999Y-57295443D01*
X172749683Y-57228403D01*
X172802486Y-57182647D01*
X172871644Y-57172703D01*
X172926380Y-57196819D01*
X172927078Y-57195776D01*
X172975908Y-57228403D01*
X173039504Y-57270897D01*
X173039505Y-57270897D01*
X173039506Y-57270898D01*
X173039508Y-57270899D01*
X173070191Y-57283608D01*
X173158798Y-57320310D01*
X173232285Y-57334927D01*
X173294194Y-57367311D01*
X173328769Y-57428026D01*
X173325030Y-57497796D01*
X173320000Y-57505779D01*
X173320000Y-57820000D01*
X172230504Y-57820000D01*
X172154204Y-57840444D01*
X172085795Y-57879940D01*
X172029940Y-57935795D01*
X171990444Y-58004204D01*
X171970000Y-58080504D01*
X171970000Y-58159496D01*
X171990444Y-58235796D01*
X172029940Y-58304205D01*
X172085795Y-58360060D01*
X172154204Y-58399556D01*
X172230504Y-58420000D01*
X173320000Y-58420000D01*
X173320000Y-58720000D01*
X173445500Y-58720000D01*
X173512539Y-58739685D01*
X173558294Y-58792489D01*
X173569500Y-58844000D01*
X173569500Y-59948542D01*
X173580970Y-60006202D01*
X173580970Y-60006204D01*
X173607947Y-60141829D01*
X173607950Y-60141839D01*
X173617948Y-60165976D01*
X173683364Y-60323907D01*
X173683371Y-60323920D01*
X173792860Y-60487781D01*
X173792863Y-60487785D01*
X173936537Y-60631459D01*
X173936559Y-60631479D01*
X174277334Y-60972254D01*
X174310819Y-61033577D01*
X174305835Y-61103269D01*
X174263963Y-61159202D01*
X174229916Y-61177216D01*
X174125504Y-61213061D01*
X174125495Y-61213064D01*
X173921371Y-61323531D01*
X173921365Y-61323535D01*
X173738222Y-61466081D01*
X173738219Y-61466084D01*
X173581016Y-61636852D01*
X173454075Y-61831151D01*
X173360842Y-62043699D01*
X173303866Y-62268691D01*
X173303864Y-62268702D01*
X173284700Y-62499993D01*
X173284700Y-62500006D01*
X173303864Y-62731297D01*
X173303866Y-62731308D01*
X173360842Y-62956300D01*
X173454075Y-63168848D01*
X173581016Y-63363147D01*
X173581019Y-63363151D01*
X173581021Y-63363153D01*
X173738216Y-63533913D01*
X173738219Y-63533915D01*
X173738222Y-63533918D01*
X173921365Y-63676464D01*
X173921371Y-63676468D01*
X173921374Y-63676470D01*
X174125497Y-63786936D01*
X174239487Y-63826068D01*
X174345015Y-63862297D01*
X174345017Y-63862297D01*
X174345019Y-63862298D01*
X174573951Y-63900500D01*
X174573952Y-63900500D01*
X174806048Y-63900500D01*
X174806049Y-63900500D01*
X175034981Y-63862298D01*
X175254503Y-63786936D01*
X175458626Y-63676470D01*
X175641784Y-63533913D01*
X175798979Y-63363153D01*
X175925924Y-63168849D01*
X176019157Y-62956300D01*
X176076134Y-62731305D01*
X176076135Y-62731297D01*
X176095300Y-62500006D01*
X176095300Y-62499993D01*
X176076135Y-62268702D01*
X176076133Y-62268691D01*
X176036499Y-62112181D01*
X176019157Y-62043700D01*
X175933575Y-61848594D01*
X175924673Y-61779298D01*
X175954650Y-61716185D01*
X175988683Y-61689426D01*
X175993900Y-61686636D01*
X175993914Y-61686631D01*
X176157781Y-61577139D01*
X176297139Y-61437781D01*
X176406631Y-61273914D01*
X176482051Y-61091836D01*
X176520500Y-60898540D01*
X176520500Y-60701460D01*
X176520500Y-60701457D01*
X176520499Y-60701455D01*
X176519810Y-60697993D01*
X176482051Y-60508164D01*
X176406631Y-60326086D01*
X176406629Y-60326083D01*
X176406627Y-60326079D01*
X176297139Y-60162219D01*
X176297136Y-60162215D01*
X175606819Y-59471898D01*
X175573334Y-59410575D01*
X175570500Y-59384217D01*
X175570500Y-58620000D01*
X176366028Y-58620000D01*
X176468412Y-58679112D01*
X176499999Y-58687575D01*
X177500000Y-58687575D01*
X177531587Y-58679112D01*
X177633972Y-58620000D01*
X177500000Y-58620000D01*
X177500000Y-58687575D01*
X176499999Y-58687575D01*
X176500000Y-58687574D01*
X176500000Y-58620000D01*
X176366028Y-58620000D01*
X175570500Y-58620000D01*
X175570500Y-58080504D01*
X176400000Y-58080504D01*
X176400000Y-58159496D01*
X176420444Y-58235796D01*
X176459940Y-58304205D01*
X176515795Y-58360060D01*
X176584204Y-58399556D01*
X176660504Y-58420000D01*
X177339496Y-58420000D01*
X177415796Y-58399556D01*
X177484205Y-58360060D01*
X177540060Y-58304205D01*
X177579556Y-58235796D01*
X177600000Y-58159496D01*
X177600000Y-58080504D01*
X177579556Y-58004204D01*
X177540060Y-57935795D01*
X177484205Y-57879940D01*
X177415796Y-57840444D01*
X177339496Y-57820000D01*
X176660504Y-57820000D01*
X176584204Y-57840444D01*
X176515795Y-57879940D01*
X176459940Y-57935795D01*
X176420444Y-58004204D01*
X176400000Y-58080504D01*
X175570500Y-58080504D01*
X175570500Y-57895781D01*
X175590185Y-57828742D01*
X175606814Y-57808104D01*
X175794918Y-57620000D01*
X176366027Y-57620000D01*
X176500000Y-57620000D01*
X177500000Y-57620000D01*
X177633972Y-57620000D01*
X177531592Y-57560889D01*
X177500000Y-57552424D01*
X177500000Y-57620000D01*
X176500000Y-57620000D01*
X176500000Y-57552424D01*
X176468407Y-57560889D01*
X176366027Y-57620000D01*
X175794918Y-57620000D01*
X176597778Y-56817141D01*
X176597782Y-56817139D01*
X176737139Y-56677782D01*
X176846632Y-56513914D01*
X176876210Y-56442506D01*
X176903565Y-56376466D01*
X176922049Y-56331840D01*
X176922051Y-56331836D01*
X176952086Y-56180840D01*
X176960500Y-56138541D01*
X176960500Y-50861459D01*
X176960500Y-50861456D01*
X176926886Y-50692473D01*
X176926885Y-50692470D01*
X176926759Y-50691836D01*
X176922051Y-50668164D01*
X176896386Y-50606204D01*
X176846632Y-50486086D01*
X176746354Y-50336009D01*
X176737140Y-50322219D01*
X176737138Y-50322216D01*
X176536319Y-50121397D01*
X176502834Y-50060074D01*
X176501490Y-50047575D01*
X177500000Y-50047575D01*
X177531587Y-50039112D01*
X177633972Y-49980000D01*
X177500000Y-49980000D01*
X177500000Y-50047575D01*
X176501490Y-50047575D01*
X176500000Y-50033716D01*
X176500000Y-49980000D01*
X176446283Y-49980000D01*
X176379244Y-49960315D01*
X176358602Y-49943681D01*
X175855425Y-49440504D01*
X176400000Y-49440504D01*
X176400000Y-49519496D01*
X176420444Y-49595796D01*
X176459940Y-49664205D01*
X176515795Y-49720060D01*
X176584204Y-49759556D01*
X176660504Y-49780000D01*
X177339496Y-49780000D01*
X177415796Y-49759556D01*
X177484205Y-49720060D01*
X177540060Y-49664205D01*
X177579556Y-49595796D01*
X177600000Y-49519496D01*
X177600000Y-49440504D01*
X177579556Y-49364204D01*
X177540060Y-49295795D01*
X177484205Y-49239940D01*
X177415796Y-49200444D01*
X177339496Y-49180000D01*
X176660504Y-49180000D01*
X176584204Y-49200444D01*
X176515795Y-49239940D01*
X176459940Y-49295795D01*
X176420444Y-49364204D01*
X176400000Y-49440504D01*
X175855425Y-49440504D01*
X175836819Y-49421898D01*
X175803334Y-49360575D01*
X175800500Y-49334217D01*
X175800500Y-48980000D01*
X176366027Y-48980000D01*
X176500000Y-48980000D01*
X177500000Y-48980000D01*
X177633972Y-48980000D01*
X177531592Y-48920889D01*
X177500000Y-48912424D01*
X177500000Y-48980000D01*
X176500000Y-48980000D01*
X176500000Y-48912424D01*
X176468407Y-48920889D01*
X176366027Y-48980000D01*
X175800500Y-48980000D01*
X175800500Y-48601456D01*
X175780965Y-48503252D01*
X175767942Y-48437781D01*
X175762051Y-48408164D01*
X175729196Y-48328845D01*
X175701600Y-48262221D01*
X175686635Y-48226092D01*
X175686628Y-48226079D01*
X175577139Y-48062218D01*
X175577136Y-48062214D01*
X175434686Y-47919764D01*
X175434655Y-47919735D01*
X174926601Y-47411681D01*
X174893116Y-47350358D01*
X174898100Y-47280666D01*
X174939972Y-47224733D01*
X175005436Y-47200316D01*
X175014282Y-47200000D01*
X178275500Y-47200000D01*
X178342539Y-47219685D01*
X178388294Y-47272489D01*
X178399500Y-47324000D01*
X178399500Y-109125500D01*
X178379815Y-109192539D01*
X178327011Y-109238294D01*
X178275500Y-109249500D01*
X136124500Y-109249500D01*
X136057461Y-109229815D01*
X136011706Y-109177011D01*
X136000500Y-109125500D01*
X136000500Y-100799982D01*
X141057000Y-100799982D01*
X141057000Y-104000017D01*
X141067500Y-104102796D01*
X141122685Y-104269332D01*
X141122686Y-104269335D01*
X141214788Y-104418656D01*
X141338844Y-104542712D01*
X141488165Y-104634814D01*
X141654702Y-104689999D01*
X141757490Y-104700500D01*
X141757495Y-104700500D01*
X143437505Y-104700500D01*
X143437510Y-104700500D01*
X143540298Y-104689999D01*
X143706835Y-104634814D01*
X143856156Y-104542712D01*
X143980212Y-104418656D01*
X144072314Y-104269335D01*
X144127499Y-104102798D01*
X144138000Y-104000010D01*
X144138000Y-101518754D01*
X146137000Y-101518754D01*
X146137000Y-103281245D01*
X146174932Y-103520736D01*
X146249860Y-103751344D01*
X146359948Y-103967401D01*
X146502466Y-104163562D01*
X146502470Y-104163567D01*
X146673932Y-104335029D01*
X146673937Y-104335033D01*
X146789037Y-104418657D01*
X146870102Y-104477554D01*
X147086153Y-104587638D01*
X147086155Y-104587639D01*
X147201459Y-104625103D01*
X147316765Y-104662568D01*
X147427686Y-104680136D01*
X147556255Y-104700500D01*
X147556260Y-104700500D01*
X147798745Y-104700500D01*
X147914847Y-104682110D01*
X148038235Y-104662568D01*
X148268847Y-104587638D01*
X148484898Y-104477554D01*
X148681069Y-104335028D01*
X148852528Y-104163569D01*
X148995054Y-103967398D01*
X149105138Y-103751347D01*
X149180068Y-103520735D01*
X149192855Y-103440000D01*
X151649811Y-103440000D01*
X151701020Y-103597606D01*
X151701023Y-103597613D01*
X151717499Y-103629948D01*
X151717500Y-103629948D01*
X153797500Y-103629948D01*
X153813976Y-103597613D01*
X153813979Y-103597606D01*
X153865189Y-103440000D01*
X153797500Y-103440000D01*
X153797500Y-103629948D01*
X151717500Y-103629948D01*
X151717500Y-103440000D01*
X151649811Y-103440000D01*
X149192855Y-103440000D01*
X149199610Y-103397347D01*
X149218000Y-103281245D01*
X149218000Y-102331056D01*
X152057500Y-102331056D01*
X152057500Y-102468944D01*
X152084401Y-102604182D01*
X152137168Y-102731574D01*
X152213774Y-102846224D01*
X152311276Y-102943726D01*
X152425926Y-103020332D01*
X152553318Y-103073099D01*
X152688556Y-103100000D01*
X152826444Y-103100000D01*
X152961682Y-103073099D01*
X153089074Y-103020332D01*
X153203724Y-102943726D01*
X153301226Y-102846224D01*
X153377832Y-102731574D01*
X153430599Y-102604182D01*
X153457500Y-102468944D01*
X153457500Y-102331056D01*
X153430599Y-102195818D01*
X153377832Y-102068426D01*
X153301226Y-101953776D01*
X153203724Y-101856274D01*
X153089074Y-101779668D01*
X152961682Y-101726901D01*
X152826444Y-101700000D01*
X152688556Y-101700000D01*
X152553318Y-101726901D01*
X152425926Y-101779668D01*
X152311276Y-101856274D01*
X152213774Y-101953776D01*
X152137168Y-102068426D01*
X152084401Y-102195818D01*
X152057500Y-102331056D01*
X149218000Y-102331056D01*
X149218000Y-101518754D01*
X156297000Y-101518754D01*
X156297000Y-103281245D01*
X156334932Y-103520736D01*
X156409860Y-103751344D01*
X156519948Y-103967401D01*
X156662466Y-104163562D01*
X156662470Y-104163567D01*
X156833932Y-104335029D01*
X156833937Y-104335033D01*
X156949037Y-104418657D01*
X157030102Y-104477554D01*
X157246153Y-104587638D01*
X157246155Y-104587639D01*
X157361459Y-104625103D01*
X157476765Y-104662568D01*
X157587686Y-104680136D01*
X157716255Y-104700500D01*
X157716260Y-104700500D01*
X157958745Y-104700500D01*
X158074847Y-104682110D01*
X158198235Y-104662568D01*
X158428847Y-104587638D01*
X158644898Y-104477554D01*
X158841069Y-104335028D01*
X159012528Y-104163569D01*
X159155054Y-103967398D01*
X159265138Y-103751347D01*
X159340068Y-103520735D01*
X159359610Y-103397347D01*
X159378000Y-103281245D01*
X159378000Y-101518754D01*
X159352855Y-101359999D01*
X159340068Y-101279265D01*
X159265138Y-101048653D01*
X159155054Y-100832602D01*
X159131354Y-100799982D01*
X164397000Y-100799982D01*
X164397000Y-104000017D01*
X164407500Y-104102796D01*
X164462685Y-104269332D01*
X164462686Y-104269335D01*
X164554788Y-104418656D01*
X164678844Y-104542712D01*
X164828165Y-104634814D01*
X164994702Y-104689999D01*
X165097490Y-104700500D01*
X165097495Y-104700500D01*
X166777505Y-104700500D01*
X166777510Y-104700500D01*
X166880298Y-104689999D01*
X167046835Y-104634814D01*
X167196156Y-104542712D01*
X167320212Y-104418656D01*
X167412314Y-104269335D01*
X167467499Y-104102798D01*
X167478000Y-104000010D01*
X167478000Y-103440000D01*
X169909811Y-103440000D01*
X169961020Y-103597606D01*
X169961023Y-103597613D01*
X169977499Y-103629948D01*
X169977500Y-103629948D01*
X172057500Y-103629948D01*
X172073976Y-103597613D01*
X172073979Y-103597606D01*
X172125189Y-103440000D01*
X172057500Y-103440000D01*
X172057500Y-103629948D01*
X169977500Y-103629948D01*
X169977500Y-103440000D01*
X169909811Y-103440000D01*
X167478000Y-103440000D01*
X167478000Y-102331056D01*
X170317500Y-102331056D01*
X170317500Y-102468944D01*
X170344401Y-102604182D01*
X170397168Y-102731574D01*
X170473774Y-102846224D01*
X170571276Y-102943726D01*
X170685926Y-103020332D01*
X170813318Y-103073099D01*
X170948556Y-103100000D01*
X171086444Y-103100000D01*
X171221682Y-103073099D01*
X171349074Y-103020332D01*
X171463724Y-102943726D01*
X171561226Y-102846224D01*
X171637832Y-102731574D01*
X171690599Y-102604182D01*
X171717500Y-102468944D01*
X171717500Y-102331056D01*
X171690599Y-102195818D01*
X171637832Y-102068426D01*
X171561226Y-101953776D01*
X171463724Y-101856274D01*
X171349074Y-101779668D01*
X171221682Y-101726901D01*
X171086444Y-101700000D01*
X170948556Y-101700000D01*
X170813318Y-101726901D01*
X170685926Y-101779668D01*
X170571276Y-101856274D01*
X170473774Y-101953776D01*
X170397168Y-102068426D01*
X170344401Y-102195818D01*
X170317500Y-102331056D01*
X167478000Y-102331056D01*
X167478000Y-101359999D01*
X169909811Y-101359999D01*
X169909811Y-101360000D01*
X169977500Y-101360000D01*
X172057500Y-101360000D01*
X172125189Y-101360000D01*
X172125188Y-101359999D01*
X172073977Y-101202389D01*
X172057500Y-101170049D01*
X172057500Y-101360000D01*
X169977500Y-101360000D01*
X169977500Y-101170050D01*
X169977499Y-101170049D01*
X169961022Y-101202389D01*
X169909811Y-101359999D01*
X167478000Y-101359999D01*
X167478000Y-100799990D01*
X167467499Y-100697202D01*
X167412314Y-100530665D01*
X167320212Y-100381344D01*
X167196156Y-100257288D01*
X167046835Y-100165186D01*
X166880298Y-100110001D01*
X166880296Y-100110000D01*
X166777517Y-100099500D01*
X166777510Y-100099500D01*
X165097490Y-100099500D01*
X165097482Y-100099500D01*
X164994703Y-100110000D01*
X164994702Y-100110001D01*
X164912169Y-100137349D01*
X164828167Y-100165185D01*
X164828162Y-100165187D01*
X164678842Y-100257289D01*
X164554789Y-100381342D01*
X164462687Y-100530662D01*
X164462686Y-100530665D01*
X164407501Y-100697202D01*
X164407501Y-100697203D01*
X164407500Y-100697203D01*
X164397000Y-100799982D01*
X159131354Y-100799982D01*
X159012533Y-100636437D01*
X159012529Y-100636432D01*
X158841067Y-100464970D01*
X158841062Y-100464966D01*
X158644901Y-100322448D01*
X158644900Y-100322447D01*
X158644898Y-100322446D01*
X158517019Y-100257288D01*
X158428844Y-100212360D01*
X158198236Y-100137432D01*
X157958745Y-100099500D01*
X157958740Y-100099500D01*
X157716260Y-100099500D01*
X157716255Y-100099500D01*
X157476763Y-100137432D01*
X157246155Y-100212360D01*
X157030098Y-100322448D01*
X156833937Y-100464966D01*
X156833932Y-100464970D01*
X156662470Y-100636432D01*
X156662466Y-100636437D01*
X156519948Y-100832598D01*
X156409860Y-101048655D01*
X156334932Y-101279263D01*
X156297000Y-101518754D01*
X149218000Y-101518754D01*
X149192855Y-101359999D01*
X151649811Y-101359999D01*
X151649811Y-101360000D01*
X151717500Y-101360000D01*
X153797500Y-101360000D01*
X153865189Y-101360000D01*
X153865188Y-101359999D01*
X153813977Y-101202389D01*
X153797500Y-101170049D01*
X153797500Y-101360000D01*
X151717500Y-101360000D01*
X151717500Y-101170050D01*
X151717499Y-101170049D01*
X151701022Y-101202389D01*
X151649811Y-101359999D01*
X149192855Y-101359999D01*
X149180068Y-101279265D01*
X149105138Y-101048653D01*
X148995054Y-100832602D01*
X148971354Y-100799982D01*
X148852533Y-100636437D01*
X148852529Y-100636432D01*
X148681067Y-100464970D01*
X148681062Y-100464966D01*
X148484901Y-100322448D01*
X148484900Y-100322447D01*
X148484898Y-100322446D01*
X148357019Y-100257288D01*
X148268844Y-100212360D01*
X148038236Y-100137432D01*
X147798745Y-100099500D01*
X147798740Y-100099500D01*
X147556260Y-100099500D01*
X147556255Y-100099500D01*
X147316763Y-100137432D01*
X147086155Y-100212360D01*
X146870098Y-100322448D01*
X146673937Y-100464966D01*
X146673932Y-100464970D01*
X146502470Y-100636432D01*
X146502466Y-100636437D01*
X146359948Y-100832598D01*
X146249860Y-101048655D01*
X146174932Y-101279263D01*
X146137000Y-101518754D01*
X144138000Y-101518754D01*
X144138000Y-100799990D01*
X144127499Y-100697202D01*
X144072314Y-100530665D01*
X143980212Y-100381344D01*
X143856156Y-100257288D01*
X143706835Y-100165186D01*
X143540298Y-100110001D01*
X143540296Y-100110000D01*
X143437517Y-100099500D01*
X143437510Y-100099500D01*
X141757490Y-100099500D01*
X141757482Y-100099500D01*
X141654703Y-100110000D01*
X141654702Y-100110001D01*
X141572169Y-100137349D01*
X141488167Y-100165185D01*
X141488162Y-100165187D01*
X141338842Y-100257289D01*
X141214789Y-100381342D01*
X141122687Y-100530662D01*
X141122686Y-100530665D01*
X141067501Y-100697202D01*
X141067501Y-100697203D01*
X141067500Y-100697203D01*
X141057000Y-100799982D01*
X136000500Y-100799982D01*
X136000500Y-84359844D01*
X138105001Y-84359844D01*
X138110802Y-84389018D01*
X138132904Y-84422095D01*
X138165982Y-84444197D01*
X138195153Y-84449999D01*
X138195158Y-84450000D01*
X138205000Y-84449999D01*
X138205000Y-84125000D01*
X138105001Y-84125000D01*
X138105001Y-84359844D01*
X136000500Y-84359844D01*
X136000500Y-82840146D01*
X138105000Y-82840146D01*
X138105000Y-83075000D01*
X138205000Y-83075000D01*
X138205000Y-82750000D01*
X138195147Y-82750001D01*
X138165984Y-82755801D01*
X138165981Y-82755802D01*
X138132904Y-82777904D01*
X138110801Y-82810983D01*
X138110800Y-82810984D01*
X138105000Y-82840146D01*
X136000500Y-82840146D01*
X136000500Y-64000000D01*
X139585735Y-64000000D01*
X139637523Y-64051787D01*
X139637525Y-64051788D01*
X139740123Y-64097089D01*
X139765206Y-64099999D01*
X140209999Y-64099999D01*
X141010000Y-64099999D01*
X141454786Y-64099999D01*
X141454808Y-64099997D01*
X141479869Y-64097091D01*
X141479873Y-64097090D01*
X141582474Y-64051788D01*
X141582476Y-64051787D01*
X141634265Y-64000000D01*
X141010000Y-64000000D01*
X141010000Y-64099999D01*
X140209999Y-64099999D01*
X140210000Y-64099998D01*
X140210000Y-64000000D01*
X139585735Y-64000000D01*
X136000500Y-64000000D01*
X136000500Y-63900000D01*
X150730024Y-63900000D01*
X150768808Y-63938784D01*
X150862500Y-63984586D01*
X152037500Y-63984586D01*
X152131191Y-63938784D01*
X152157475Y-63912500D01*
X153180024Y-63912500D01*
X153218808Y-63951284D01*
X153312500Y-63997086D01*
X154487500Y-63997086D01*
X154581191Y-63951284D01*
X154619975Y-63912500D01*
X154487500Y-63912500D01*
X154487500Y-63997086D01*
X153312500Y-63997086D01*
X153312500Y-63912500D01*
X153180024Y-63912500D01*
X152157475Y-63912500D01*
X152169975Y-63900000D01*
X152037500Y-63900000D01*
X152037500Y-63984586D01*
X150862500Y-63984586D01*
X150862500Y-63900000D01*
X150730024Y-63900000D01*
X136000500Y-63900000D01*
X136000500Y-63516780D01*
X157050000Y-63516780D01*
X157050000Y-64150000D01*
X157150000Y-64150000D01*
X158950000Y-64150000D01*
X159049999Y-64150000D01*
X159049999Y-63516782D01*
X159040087Y-63448750D01*
X158988784Y-63343808D01*
X158950000Y-63305024D01*
X158950000Y-64150000D01*
X157150000Y-64150000D01*
X157150000Y-63305025D01*
X157149999Y-63305024D01*
X157111212Y-63343811D01*
X157059912Y-63448748D01*
X157059911Y-63448751D01*
X157050000Y-63516780D01*
X136000500Y-63516780D01*
X136000500Y-63200000D01*
X139585735Y-63200000D01*
X140210000Y-63200000D01*
X141010000Y-63200000D01*
X141634264Y-63200000D01*
X141582476Y-63148212D01*
X141582474Y-63148211D01*
X141479876Y-63102910D01*
X141454794Y-63100000D01*
X141010000Y-63100000D01*
X141010000Y-63200000D01*
X140210000Y-63200000D01*
X140210000Y-63100000D01*
X139765214Y-63100000D01*
X139765191Y-63100002D01*
X139740130Y-63102908D01*
X139740126Y-63102909D01*
X139637525Y-63148211D01*
X139637523Y-63148212D01*
X139585735Y-63200000D01*
X136000500Y-63200000D01*
X136000500Y-62737499D01*
X153180024Y-62737499D01*
X153180025Y-62737500D01*
X153312500Y-62737500D01*
X154487500Y-62737500D01*
X154619975Y-62737500D01*
X154619975Y-62737499D01*
X154581190Y-62698714D01*
X154487500Y-62652911D01*
X154487500Y-62737500D01*
X153312500Y-62737500D01*
X153312500Y-62652911D01*
X153218809Y-62698714D01*
X153180024Y-62737499D01*
X136000500Y-62737499D01*
X136000500Y-62724999D01*
X150730024Y-62724999D01*
X150730025Y-62725000D01*
X150862500Y-62725000D01*
X152037500Y-62725000D01*
X152169975Y-62725000D01*
X152169975Y-62724999D01*
X152131190Y-62686214D01*
X152037500Y-62640411D01*
X152037500Y-62725000D01*
X150862500Y-62725000D01*
X150862500Y-62640411D01*
X150768809Y-62686214D01*
X150730024Y-62724999D01*
X136000500Y-62724999D01*
X136000500Y-61359844D01*
X146350001Y-61359844D01*
X146355802Y-61389018D01*
X146377904Y-61422095D01*
X146410983Y-61444198D01*
X146410984Y-61444199D01*
X146440148Y-61449999D01*
X146749999Y-61449999D01*
X147650000Y-61449999D01*
X147959845Y-61449999D01*
X147989018Y-61444197D01*
X148022095Y-61422095D01*
X148044198Y-61389016D01*
X148044199Y-61389015D01*
X148049999Y-61359853D01*
X148050000Y-61359850D01*
X148050000Y-61350000D01*
X147650000Y-61350000D01*
X147650000Y-61449999D01*
X146749999Y-61449999D01*
X146750000Y-61449998D01*
X146750000Y-61350000D01*
X146350001Y-61350000D01*
X146350001Y-61359844D01*
X136000500Y-61359844D01*
X136000500Y-44614000D01*
X136020185Y-44546961D01*
X136072989Y-44501206D01*
X136124500Y-44490000D01*
X143154548Y-44490000D01*
X143221587Y-44509685D01*
G37*
%TD.AperFunction*%
%TA.AperFunction,Conductor*%
G36*
X153012261Y-85380185D02*
G01*
X153058016Y-85432989D01*
X153067960Y-85502147D01*
X153051955Y-85547620D01*
X153018254Y-85604605D01*
X153018252Y-85604609D01*
X153015410Y-85614392D01*
X152977800Y-85673276D01*
X152914326Y-85702478D01*
X152845140Y-85692728D01*
X152827445Y-85682892D01*
X152800000Y-85664553D01*
X152800000Y-87715444D01*
X152853953Y-87744283D01*
X152903797Y-87793245D01*
X152919500Y-87853641D01*
X152919500Y-88293850D01*
X152913430Y-88332168D01*
X152884326Y-88421744D01*
X152864540Y-88610000D01*
X152884326Y-88798256D01*
X152884327Y-88798259D01*
X152942818Y-88978277D01*
X152942821Y-88978284D01*
X153037467Y-89142216D01*
X153164129Y-89282888D01*
X153317265Y-89394148D01*
X153317270Y-89394151D01*
X153398629Y-89430375D01*
X153451866Y-89475625D01*
X153472187Y-89542474D01*
X153453141Y-89609698D01*
X153435874Y-89631335D01*
X152789373Y-90277838D01*
X151784030Y-91283181D01*
X151722707Y-91316666D01*
X151696349Y-91319500D01*
X150830067Y-91319500D01*
X150786209Y-91310178D01*
X150785986Y-91310865D01*
X150779801Y-91308855D01*
X150644624Y-91280123D01*
X150594646Y-91269500D01*
X150594645Y-91269500D01*
X150589538Y-91268963D01*
X150524925Y-91242375D01*
X150484944Y-91185075D01*
X150482288Y-91115256D01*
X150514826Y-91057962D01*
X151294949Y-90277840D01*
X152200627Y-89372162D01*
X152293704Y-89232863D01*
X152357816Y-89078081D01*
X152363444Y-89049790D01*
X152390500Y-88913767D01*
X152390500Y-87746233D01*
X152357816Y-87581918D01*
X152310984Y-87468856D01*
X152293704Y-87427137D01*
X152220898Y-87318176D01*
X152200020Y-87251498D01*
X152200000Y-87249285D01*
X152200000Y-85664553D01*
X152199999Y-85664553D01*
X152172553Y-85682892D01*
X152105876Y-85703770D01*
X152038496Y-85685285D01*
X151991806Y-85633306D01*
X151984587Y-85614386D01*
X151981745Y-85604605D01*
X151981744Y-85604604D01*
X151981744Y-85604602D01*
X151948044Y-85547619D01*
X151930863Y-85479896D01*
X151953024Y-85413634D01*
X152007490Y-85369871D01*
X152054778Y-85360500D01*
X152945222Y-85360500D01*
X153012261Y-85380185D01*
G37*
%TD.AperFunction*%
%TA.AperFunction,Conductor*%
G36*
X155988621Y-80520185D02*
G01*
X156034376Y-80572989D01*
X156044320Y-80642147D01*
X156015295Y-80705703D01*
X155990473Y-80727602D01*
X155979760Y-80734760D01*
X155924505Y-80817455D01*
X155924503Y-80817459D01*
X155910000Y-80890371D01*
X155910000Y-81440000D01*
X156710000Y-81440000D01*
X156710000Y-80890373D01*
X156709999Y-80890371D01*
X156695496Y-80817459D01*
X156695494Y-80817455D01*
X156640239Y-80734760D01*
X156629527Y-80727602D01*
X156584722Y-80673990D01*
X156576015Y-80604665D01*
X156606170Y-80541637D01*
X156665613Y-80504918D01*
X156698418Y-80500500D01*
X156840512Y-80500500D01*
X156857525Y-80501673D01*
X157035152Y-80526276D01*
X157077236Y-80532106D01*
X157140941Y-80560802D01*
X157179018Y-80619385D01*
X157179379Y-80689253D01*
X157165762Y-80720029D01*
X157085189Y-80850659D01*
X157085185Y-80850668D01*
X157057349Y-80934670D01*
X157030001Y-81017203D01*
X157030001Y-81017204D01*
X157030000Y-81017204D01*
X157019500Y-81119983D01*
X157019500Y-81920001D01*
X157019501Y-81920019D01*
X157030000Y-82022796D01*
X157030001Y-82022799D01*
X157048007Y-82077136D01*
X157085186Y-82189334D01*
X157177288Y-82338656D01*
X157301344Y-82462712D01*
X157450666Y-82554814D01*
X157617203Y-82609999D01*
X157633696Y-82611684D01*
X157638179Y-82612142D01*
X157702871Y-82638538D01*
X157743023Y-82695719D01*
X157745886Y-82765530D01*
X157710552Y-82825807D01*
X157648239Y-82857412D01*
X157625577Y-82859500D01*
X156795881Y-82859500D01*
X156728842Y-82839815D01*
X156683087Y-82787011D01*
X156673143Y-82717853D01*
X156692779Y-82666608D01*
X156695496Y-82662541D01*
X156695496Y-82662540D01*
X156709999Y-82589628D01*
X156710000Y-82589626D01*
X156710000Y-82040000D01*
X155910000Y-82040000D01*
X155910000Y-82589628D01*
X155924503Y-82662540D01*
X155924503Y-82662541D01*
X155927221Y-82666608D01*
X155948099Y-82733286D01*
X155929615Y-82800666D01*
X155877636Y-82847357D01*
X155824119Y-82859500D01*
X155525881Y-82859500D01*
X155458842Y-82839815D01*
X155413087Y-82787011D01*
X155403143Y-82717853D01*
X155422779Y-82666608D01*
X155425496Y-82662541D01*
X155425496Y-82662540D01*
X155439999Y-82589628D01*
X155440000Y-82589626D01*
X155440000Y-82040000D01*
X154864000Y-82040000D01*
X154796961Y-82020315D01*
X154751206Y-81967511D01*
X154740000Y-81916000D01*
X154740000Y-81564000D01*
X154759685Y-81496961D01*
X154812489Y-81451206D01*
X154864000Y-81440000D01*
X155440000Y-81440000D01*
X155440000Y-80890373D01*
X155439999Y-80890371D01*
X155425496Y-80817459D01*
X155425494Y-80817455D01*
X155370239Y-80734760D01*
X155359527Y-80727602D01*
X155314722Y-80673990D01*
X155306015Y-80604665D01*
X155336170Y-80541637D01*
X155395613Y-80504918D01*
X155428418Y-80500500D01*
X155921582Y-80500500D01*
X155988621Y-80520185D01*
G37*
%TD.AperFunction*%
%TA.AperFunction,Conductor*%
G36*
X147185203Y-70860185D02*
G01*
X147205845Y-70876819D01*
X147455529Y-71126503D01*
X147485553Y-71175178D01*
X147500184Y-71219331D01*
X147500186Y-71219334D01*
X147592288Y-71368656D01*
X147716344Y-71492712D01*
X147865666Y-71584814D01*
X147989089Y-71625712D01*
X148006374Y-71632930D01*
X148175268Y-71718986D01*
X148226064Y-71766961D01*
X148242859Y-71834782D01*
X148220322Y-71900917D01*
X148165606Y-71944368D01*
X148136851Y-71952175D01*
X148083753Y-71959911D01*
X147978808Y-72011215D01*
X147940024Y-72049999D01*
X147940025Y-72050000D01*
X149123500Y-72050000D01*
X149190539Y-72069685D01*
X149236294Y-72122489D01*
X149247500Y-72174000D01*
X149247500Y-73309587D01*
X149262088Y-73318694D01*
X149279909Y-73315651D01*
X149344207Y-73342993D01*
X149383516Y-73400756D01*
X149389500Y-73438811D01*
X149389500Y-76488541D01*
X149391465Y-76498422D01*
X149395128Y-76516833D01*
X149395128Y-76516835D01*
X149427947Y-76681828D01*
X149427950Y-76681840D01*
X149435023Y-76698915D01*
X149503364Y-76863907D01*
X149503371Y-76863920D01*
X149612860Y-77027781D01*
X149612863Y-77027785D01*
X149756537Y-77171459D01*
X149756559Y-77171479D01*
X152543575Y-79958495D01*
X152577060Y-80019818D01*
X152572076Y-80089510D01*
X152563282Y-80108175D01*
X152544924Y-80139972D01*
X152514477Y-80192710D01*
X152508825Y-80202499D01*
X152458258Y-80250715D01*
X152401437Y-80264500D01*
X152284298Y-80264500D01*
X152247432Y-80267401D01*
X152247426Y-80267402D01*
X152089606Y-80313254D01*
X152089603Y-80313255D01*
X151948137Y-80396917D01*
X151948129Y-80396923D01*
X151831923Y-80513129D01*
X151831917Y-80513137D01*
X151748255Y-80654603D01*
X151748252Y-80654609D01*
X151745410Y-80664392D01*
X151707800Y-80723276D01*
X151644326Y-80752478D01*
X151575140Y-80742728D01*
X151557445Y-80732892D01*
X151530000Y-80714553D01*
X151530000Y-81916000D01*
X151510315Y-81983039D01*
X151457511Y-82028794D01*
X151406000Y-82040000D01*
X151054000Y-82040000D01*
X150986961Y-82020315D01*
X150941206Y-81967511D01*
X150930000Y-81916000D01*
X150930000Y-80714553D01*
X150895130Y-80695915D01*
X150845286Y-80646953D01*
X150833808Y-80618649D01*
X150833793Y-80618594D01*
X150814725Y-80547427D01*
X150810500Y-80515335D01*
X150810500Y-80086149D01*
X150816569Y-80047831D01*
X150829023Y-80009501D01*
X150845674Y-79958256D01*
X150865460Y-79770000D01*
X150845674Y-79581744D01*
X150787179Y-79401716D01*
X150692533Y-79237784D01*
X150565871Y-79097112D01*
X150534952Y-79074648D01*
X150412734Y-78985851D01*
X150412729Y-78985848D01*
X150239807Y-78908857D01*
X150239802Y-78908855D01*
X150094001Y-78877865D01*
X150054646Y-78869500D01*
X149911999Y-78869500D01*
X149844960Y-78849815D01*
X149799205Y-78797011D01*
X149787999Y-78745500D01*
X149787999Y-78214998D01*
X149787998Y-78214981D01*
X149777499Y-78112203D01*
X149777498Y-78112200D01*
X149746954Y-78020025D01*
X149722314Y-77945666D01*
X149630212Y-77796344D01*
X149506156Y-77672288D01*
X149356834Y-77580186D01*
X149190297Y-77525001D01*
X149190295Y-77525000D01*
X149087510Y-77514500D01*
X148312498Y-77514500D01*
X148312480Y-77514501D01*
X148209703Y-77525000D01*
X148209700Y-77525001D01*
X148043168Y-77580185D01*
X148043163Y-77580187D01*
X147893842Y-77672289D01*
X147769789Y-77796342D01*
X147677687Y-77945663D01*
X147677686Y-77945666D01*
X147622501Y-78112203D01*
X147622501Y-78112204D01*
X147622500Y-78112204D01*
X147612000Y-78214983D01*
X147612000Y-79265001D01*
X147612001Y-79265019D01*
X147622500Y-79367796D01*
X147631117Y-79393800D01*
X147640166Y-79421108D01*
X147645393Y-79443884D01*
X147646728Y-79454002D01*
X147830564Y-80108175D01*
X147834876Y-80123517D01*
X147839500Y-80157064D01*
X147839500Y-81571663D01*
X147819815Y-81638702D01*
X147767011Y-81684457D01*
X147697853Y-81694401D01*
X147634297Y-81665376D01*
X147627819Y-81659344D01*
X145295974Y-79327500D01*
X145952912Y-79327500D01*
X145998714Y-79421190D01*
X146037499Y-79459975D01*
X147212500Y-79459975D01*
X147251285Y-79421190D01*
X147297088Y-79327500D01*
X147212500Y-79327500D01*
X147212500Y-79459975D01*
X146037499Y-79459975D01*
X146037500Y-79459974D01*
X146037500Y-79327500D01*
X145952912Y-79327500D01*
X145295974Y-79327500D01*
X144794648Y-78826174D01*
X144794646Y-78826172D01*
X144635405Y-78710476D01*
X144617914Y-78701564D01*
X144460030Y-78621117D01*
X144272826Y-78560290D01*
X144078422Y-78529500D01*
X144078417Y-78529500D01*
X141429336Y-78529500D01*
X141362297Y-78509815D01*
X141341655Y-78493181D01*
X141000974Y-78152500D01*
X145952912Y-78152500D01*
X146037500Y-78152500D01*
X147212500Y-78152500D01*
X147297088Y-78152500D01*
X147251285Y-78058809D01*
X147212500Y-78020024D01*
X147212500Y-78152500D01*
X146037500Y-78152500D01*
X146037500Y-78020025D01*
X146037499Y-78020024D01*
X145998714Y-78058809D01*
X145952912Y-78152500D01*
X141000974Y-78152500D01*
X140626819Y-77778345D01*
X140593334Y-77717022D01*
X140590500Y-77690664D01*
X140590500Y-74940000D01*
X144723320Y-74940000D01*
X144785011Y-74986182D01*
X144890000Y-75025341D01*
X146390000Y-75025341D01*
X146494988Y-74986182D01*
X146556679Y-74940000D01*
X146390000Y-74940000D01*
X146390000Y-75025341D01*
X144890000Y-75025341D01*
X144890000Y-74940000D01*
X144723320Y-74940000D01*
X140590500Y-74940000D01*
X140590500Y-74872099D01*
X140592187Y-74851714D01*
X140598855Y-74811706D01*
X140812003Y-73532805D01*
X140815091Y-73519119D01*
X140829886Y-73467418D01*
X140837806Y-73378324D01*
X140838080Y-73375598D01*
X140838757Y-73369562D01*
X140865783Y-73305136D01*
X140923354Y-73265547D01*
X140931882Y-73263086D01*
X141407420Y-73144202D01*
X141437494Y-73140500D01*
X144776895Y-73140500D01*
X144843934Y-73160185D01*
X144889689Y-73212989D01*
X144899633Y-73282147D01*
X144870608Y-73345703D01*
X144820229Y-73380682D01*
X144785011Y-73393817D01*
X144723320Y-73439999D01*
X144723320Y-73440000D01*
X146556680Y-73440000D01*
X146556679Y-73439999D01*
X146494986Y-73393816D01*
X146494986Y-73393815D01*
X146413491Y-73363419D01*
X146357558Y-73321548D01*
X146333142Y-73256083D01*
X146339904Y-73225000D01*
X147940024Y-73225000D01*
X147978808Y-73263784D01*
X148072500Y-73309586D01*
X148072500Y-73225000D01*
X147940024Y-73225000D01*
X146339904Y-73225000D01*
X146347994Y-73187810D01*
X146397400Y-73138405D01*
X146426895Y-73126904D01*
X146568693Y-73091641D01*
X146739296Y-73007030D01*
X146887722Y-72887722D01*
X147007030Y-72739296D01*
X147091641Y-72568693D01*
X147137600Y-72383889D01*
X147140500Y-72341123D01*
X147140499Y-71438878D01*
X147137600Y-71396111D01*
X147091641Y-71211307D01*
X147037220Y-71101577D01*
X147007032Y-71040707D01*
X147003412Y-71035044D01*
X147004884Y-71034102D01*
X146981563Y-70977604D01*
X146994053Y-70908860D01*
X147041726Y-70857781D01*
X147104869Y-70840500D01*
X147118164Y-70840500D01*
X147185203Y-70860185D01*
G37*
%TD.AperFunction*%
%TA.AperFunction,Conductor*%
G36*
X159378862Y-76902367D02*
G01*
X159430905Y-76948986D01*
X159449500Y-77014298D01*
X159449500Y-78588770D01*
X159429815Y-78655809D01*
X159377011Y-78701564D01*
X159307853Y-78711508D01*
X159244297Y-78682483D01*
X159237819Y-78676451D01*
X159138657Y-78577289D01*
X159138656Y-78577288D01*
X159012531Y-78499494D01*
X158989336Y-78485187D01*
X158989331Y-78485185D01*
X158922927Y-78463181D01*
X158822797Y-78430001D01*
X158822795Y-78430000D01*
X158720016Y-78419500D01*
X158720009Y-78419500D01*
X157763325Y-78419500D01*
X157757261Y-78419352D01*
X157716117Y-78417337D01*
X157716106Y-78417337D01*
X156883231Y-78495726D01*
X156860584Y-78498548D01*
X156845252Y-78499500D01*
X153965782Y-78499500D01*
X153898743Y-78479815D01*
X153878101Y-78463181D01*
X152939600Y-77524680D01*
X152906115Y-77463357D01*
X152911099Y-77393665D01*
X152952971Y-77337732D01*
X153018435Y-77313315D01*
X153027281Y-77312999D01*
X153540012Y-77312999D01*
X153544808Y-77313092D01*
X153583838Y-77314603D01*
X154404543Y-77228858D01*
X154421802Y-77226572D01*
X154438077Y-77225500D01*
X156123543Y-77225500D01*
X156240925Y-77202150D01*
X156299617Y-77190476D01*
X156316836Y-77187051D01*
X156370296Y-77164907D01*
X156382292Y-77159937D01*
X156429745Y-77150499D01*
X156473336Y-77150499D01*
X156473344Y-77150499D01*
X156480414Y-77149776D01*
X156492481Y-77149135D01*
X156505567Y-77149080D01*
X156543536Y-77143454D01*
X156549024Y-77142767D01*
X156572708Y-77140349D01*
X156572714Y-77140346D01*
X156579337Y-77138930D01*
X156579372Y-77139097D01*
X156589975Y-77136574D01*
X156850723Y-77097945D01*
X157161951Y-77051839D01*
X157180123Y-77050500D01*
X157533686Y-77050500D01*
X157600725Y-77070185D01*
X157639802Y-77110348D01*
X157702852Y-77214646D01*
X157711766Y-77229391D01*
X157825608Y-77343233D01*
X157825610Y-77343234D01*
X157825612Y-77343236D01*
X157963398Y-77426531D01*
X158117113Y-77474430D01*
X158183909Y-77480500D01*
X158616090Y-77480499D01*
X158616098Y-77480499D01*
X158682882Y-77474431D01*
X158682885Y-77474430D01*
X158682887Y-77474430D01*
X158836602Y-77426531D01*
X158974388Y-77343236D01*
X159088236Y-77229388D01*
X159171531Y-77091602D01*
X159207115Y-76977405D01*
X159245852Y-76919260D01*
X159309877Y-76891286D01*
X159378862Y-76902367D01*
G37*
%TD.AperFunction*%
%TA.AperFunction,Conductor*%
G36*
X159861889Y-74726060D02*
G01*
X159863395Y-74726529D01*
X159863398Y-74726531D01*
X159879712Y-74731614D01*
X159937858Y-74770350D01*
X159965833Y-74834375D01*
X159954752Y-74903360D01*
X159908134Y-74955404D01*
X159879717Y-74968383D01*
X159863399Y-74973468D01*
X159725608Y-75056766D01*
X159611766Y-75170608D01*
X159528469Y-75308397D01*
X159480569Y-75462116D01*
X159474500Y-75528911D01*
X159474500Y-75978330D01*
X159472116Y-76002528D01*
X159471615Y-76005046D01*
X159439227Y-76066955D01*
X159378509Y-76101526D01*
X159308740Y-76097783D01*
X159252070Y-76056913D01*
X159228380Y-76005029D01*
X159227878Y-76002508D01*
X159225499Y-75978333D01*
X159225499Y-75528901D01*
X159219431Y-75462117D01*
X159219428Y-75462106D01*
X159171532Y-75308401D01*
X159171531Y-75308400D01*
X159171531Y-75308398D01*
X159088236Y-75170612D01*
X159088234Y-75170610D01*
X159088233Y-75170608D01*
X158974391Y-75056766D01*
X158974388Y-75056764D01*
X158869739Y-74993501D01*
X158822553Y-74941975D01*
X158810715Y-74873116D01*
X158837984Y-74808787D01*
X158895703Y-74769413D01*
X158901783Y-74767615D01*
X158931784Y-74759577D01*
X158931784Y-74759576D01*
X158939636Y-74757473D01*
X158940272Y-74759847D01*
X158997384Y-74753695D01*
X159012273Y-74757341D01*
X159067113Y-74774430D01*
X159133909Y-74780500D01*
X159566090Y-74780499D01*
X159566098Y-74780499D01*
X159632882Y-74774431D01*
X159632885Y-74774430D01*
X159632887Y-74774430D01*
X159786602Y-74726531D01*
X159786603Y-74726530D01*
X159788109Y-74726061D01*
X159857969Y-74724909D01*
X159861889Y-74726060D01*
G37*
%TD.AperFunction*%
%TA.AperFunction,Conductor*%
G36*
X162803679Y-47819685D02*
G01*
X162849434Y-47872489D01*
X162859378Y-47941647D01*
X162830353Y-48005203D01*
X162805531Y-48027102D01*
X162662219Y-48122859D01*
X162592540Y-48192538D01*
X162522861Y-48262218D01*
X160522863Y-50262215D01*
X160522860Y-50262219D01*
X160413372Y-50426079D01*
X160413367Y-50426089D01*
X160337949Y-50608163D01*
X160337947Y-50608171D01*
X160299500Y-50801455D01*
X160299500Y-50998544D01*
X160337947Y-51191828D01*
X160337949Y-51191836D01*
X160413367Y-51373910D01*
X160413372Y-51373920D01*
X160522860Y-51537780D01*
X160522863Y-51537784D01*
X160662215Y-51677136D01*
X160662219Y-51677139D01*
X160826079Y-51786627D01*
X160826083Y-51786629D01*
X160826086Y-51786631D01*
X161008164Y-51862051D01*
X161189681Y-51898157D01*
X161201455Y-51900499D01*
X161201458Y-51900500D01*
X161201460Y-51900500D01*
X161398542Y-51900500D01*
X161398543Y-51900499D01*
X161591836Y-51862051D01*
X161591853Y-51862043D01*
X161593511Y-51861542D01*
X161594439Y-51861533D01*
X161597811Y-51860863D01*
X161597938Y-51861502D01*
X161663378Y-51860913D01*
X161722494Y-51898157D01*
X161752090Y-51961448D01*
X161742770Y-52030694D01*
X161717197Y-52067881D01*
X160235079Y-53550000D01*
X158762221Y-55022858D01*
X158762218Y-55022861D01*
X158719660Y-55065419D01*
X158622859Y-55162219D01*
X158513371Y-55326079D01*
X158513363Y-55326094D01*
X158493746Y-55373454D01*
X158449905Y-55427857D01*
X158383610Y-55449921D01*
X158379186Y-55450000D01*
X158365787Y-55450000D01*
X158376988Y-55461201D01*
X158410473Y-55522524D01*
X158405489Y-55592216D01*
X158376989Y-55636563D01*
X158363552Y-55649999D01*
X158363553Y-55650360D01*
X158396647Y-55710864D01*
X158399500Y-55737310D01*
X158399500Y-55764924D01*
X158379815Y-55831963D01*
X158363181Y-55852605D01*
X158360000Y-55855785D01*
X158360000Y-56649999D01*
X158363181Y-56653180D01*
X158396666Y-56714503D01*
X158399500Y-56740861D01*
X158399500Y-58798541D01*
X158399500Y-58798543D01*
X158399499Y-58798543D01*
X158437947Y-58991829D01*
X158437949Y-58991834D01*
X158452949Y-59028049D01*
X158460416Y-59097518D01*
X158429141Y-59159997D01*
X158369051Y-59195649D01*
X158338387Y-59199500D01*
X157665782Y-59199500D01*
X157598743Y-59179815D01*
X157578101Y-59163181D01*
X154974764Y-56559844D01*
X155360001Y-56559844D01*
X155365802Y-56589018D01*
X155387904Y-56622095D01*
X155420982Y-56644197D01*
X155450153Y-56649999D01*
X155450158Y-56650000D01*
X155460000Y-56649999D01*
X156160000Y-56649999D01*
X156169845Y-56649999D01*
X156199018Y-56644197D01*
X156245952Y-56612835D01*
X156250706Y-56601062D01*
X156254034Y-56598706D01*
X156462627Y-56598706D01*
X156475319Y-56609366D01*
X156477340Y-56615037D01*
X156520982Y-56644197D01*
X156550153Y-56649999D01*
X156550158Y-56650000D01*
X156560000Y-56649999D01*
X157260000Y-56649999D01*
X157269845Y-56649999D01*
X157299018Y-56644197D01*
X157345952Y-56612835D01*
X157350706Y-56601062D01*
X157354034Y-56598706D01*
X157562627Y-56598706D01*
X157575319Y-56609366D01*
X157577340Y-56615037D01*
X157620982Y-56644197D01*
X157650153Y-56649999D01*
X157650158Y-56650000D01*
X157660000Y-56649999D01*
X157660000Y-56555786D01*
X157659998Y-56555785D01*
X157648786Y-56566998D01*
X157587462Y-56600483D01*
X157562627Y-56598706D01*
X157354034Y-56598706D01*
X157354631Y-56598283D01*
X157315550Y-56595489D01*
X157271203Y-56566988D01*
X157260000Y-56555785D01*
X157260000Y-56649999D01*
X156560000Y-56649999D01*
X156560000Y-56555786D01*
X156559998Y-56555785D01*
X156548786Y-56566998D01*
X156487462Y-56600483D01*
X156462627Y-56598706D01*
X156254034Y-56598706D01*
X156254631Y-56598283D01*
X156215550Y-56595489D01*
X156171203Y-56566988D01*
X156160000Y-56555785D01*
X156160000Y-56649999D01*
X155460000Y-56649999D01*
X155460000Y-56554363D01*
X156359189Y-56554363D01*
X157459189Y-56554363D01*
X157460808Y-56554362D01*
X157459999Y-56553553D01*
X157459189Y-56554363D01*
X156359189Y-56554363D01*
X156360808Y-56554362D01*
X156359999Y-56553553D01*
X156359189Y-56554363D01*
X155460000Y-56554363D01*
X155460000Y-56550000D01*
X155360001Y-56550000D01*
X155360001Y-56559844D01*
X154974764Y-56559844D01*
X154585083Y-56170163D01*
X156210000Y-56170163D01*
X156210000Y-56229837D01*
X156232836Y-56284968D01*
X156275032Y-56327164D01*
X156330163Y-56350000D01*
X156389837Y-56350000D01*
X156444968Y-56327164D01*
X156487164Y-56284968D01*
X156510000Y-56229837D01*
X156510000Y-56170163D01*
X157310000Y-56170163D01*
X157310000Y-56229837D01*
X157332836Y-56284968D01*
X157375032Y-56327164D01*
X157430163Y-56350000D01*
X157489837Y-56350000D01*
X157544968Y-56327164D01*
X157587164Y-56284968D01*
X157610000Y-56229837D01*
X157610000Y-56170163D01*
X157587164Y-56115032D01*
X157544968Y-56072836D01*
X157489837Y-56050000D01*
X157430163Y-56050000D01*
X157375032Y-56072836D01*
X157332836Y-56115032D01*
X157310000Y-56170163D01*
X156510000Y-56170163D01*
X156487164Y-56115032D01*
X156444968Y-56072836D01*
X156389837Y-56050000D01*
X156330163Y-56050000D01*
X156275032Y-56072836D01*
X156232836Y-56115032D01*
X156210000Y-56170163D01*
X154585083Y-56170163D01*
X154255066Y-55840146D01*
X155360000Y-55840146D01*
X155360000Y-55850000D01*
X155454214Y-55850000D01*
X155454214Y-55849999D01*
X155449961Y-55845746D01*
X156359300Y-55845746D01*
X156360000Y-55846446D01*
X156360698Y-55845747D01*
X156360698Y-55845746D01*
X157459300Y-55845746D01*
X157460000Y-55846446D01*
X157460698Y-55845747D01*
X157459998Y-55843600D01*
X157459300Y-55845746D01*
X156360698Y-55845746D01*
X156359998Y-55843600D01*
X156359300Y-55845746D01*
X155449961Y-55845746D01*
X155443002Y-55838787D01*
X155409517Y-55777464D01*
X155411296Y-55752576D01*
X155400432Y-55765459D01*
X155394906Y-55767422D01*
X155365802Y-55810981D01*
X155365800Y-55810986D01*
X155360000Y-55840146D01*
X154255066Y-55840146D01*
X154064110Y-55649190D01*
X155455636Y-55649190D01*
X155455637Y-55650807D01*
X155456445Y-55649999D01*
X155455636Y-55649190D01*
X154064110Y-55649190D01*
X154035083Y-55620163D01*
X155660000Y-55620163D01*
X155660000Y-55679837D01*
X155682836Y-55734968D01*
X155725032Y-55777164D01*
X155780163Y-55800000D01*
X155839837Y-55800000D01*
X155894968Y-55777164D01*
X155937164Y-55734968D01*
X155960000Y-55679837D01*
X155960000Y-55649999D01*
X156163553Y-55649999D01*
X156164251Y-55650697D01*
X156165066Y-55650432D01*
X156325466Y-55650432D01*
X156351432Y-55666089D01*
X156360434Y-55684396D01*
X156375970Y-55658590D01*
X156393410Y-55649998D01*
X156553600Y-55649998D01*
X156555747Y-55650698D01*
X156556446Y-55650000D01*
X156555746Y-55649300D01*
X156553600Y-55649998D01*
X156393410Y-55649998D01*
X156394413Y-55649504D01*
X156368624Y-55633970D01*
X156361827Y-55620163D01*
X156760000Y-55620163D01*
X156760000Y-55679837D01*
X156782836Y-55734968D01*
X156825032Y-55777164D01*
X156880163Y-55800000D01*
X156939837Y-55800000D01*
X156994968Y-55777164D01*
X157037164Y-55734968D01*
X157060000Y-55679837D01*
X157060000Y-55649999D01*
X157263553Y-55649999D01*
X157264251Y-55650697D01*
X157265066Y-55650432D01*
X157425466Y-55650432D01*
X157451432Y-55666089D01*
X157460434Y-55684396D01*
X157475970Y-55658590D01*
X157493410Y-55649998D01*
X157653600Y-55649998D01*
X157655747Y-55650698D01*
X157656446Y-55650000D01*
X157655746Y-55649300D01*
X157653600Y-55649998D01*
X157493410Y-55649998D01*
X157494413Y-55649504D01*
X157468624Y-55633970D01*
X157461827Y-55620163D01*
X157860000Y-55620163D01*
X157860000Y-55679837D01*
X157882836Y-55734968D01*
X157925032Y-55777164D01*
X157980163Y-55800000D01*
X158039837Y-55800000D01*
X158094968Y-55777164D01*
X158137164Y-55734968D01*
X158160000Y-55679837D01*
X158160000Y-55620163D01*
X158137164Y-55565032D01*
X158094968Y-55522836D01*
X158039837Y-55500000D01*
X157980163Y-55500000D01*
X157925032Y-55522836D01*
X157882836Y-55565032D01*
X157860000Y-55620163D01*
X157461827Y-55620163D01*
X157459506Y-55615449D01*
X157443852Y-55641398D01*
X157425466Y-55650432D01*
X157265066Y-55650432D01*
X157266401Y-55649998D01*
X157264252Y-55649300D01*
X157263553Y-55649999D01*
X157060000Y-55649999D01*
X157060000Y-55620163D01*
X157037164Y-55565032D01*
X156994968Y-55522836D01*
X156939837Y-55500000D01*
X156880163Y-55500000D01*
X156825032Y-55522836D01*
X156782836Y-55565032D01*
X156760000Y-55620163D01*
X156361827Y-55620163D01*
X156359506Y-55615449D01*
X156343852Y-55641398D01*
X156325466Y-55650432D01*
X156165066Y-55650432D01*
X156166401Y-55649998D01*
X156164252Y-55649300D01*
X156163553Y-55649999D01*
X155960000Y-55649999D01*
X155960000Y-55620163D01*
X155937164Y-55565032D01*
X155894968Y-55522836D01*
X155839837Y-55500000D01*
X155780163Y-55500000D01*
X155725032Y-55522836D01*
X155682836Y-55565032D01*
X155660000Y-55620163D01*
X154035083Y-55620163D01*
X153874764Y-55459844D01*
X155360001Y-55459844D01*
X155365802Y-55489018D01*
X155397157Y-55535944D01*
X155408945Y-55540704D01*
X155411715Y-55544619D01*
X155414510Y-55505550D01*
X155443011Y-55461202D01*
X155449961Y-55454252D01*
X156359300Y-55454252D01*
X156359998Y-55456401D01*
X156360697Y-55454252D01*
X157459300Y-55454252D01*
X157459998Y-55456401D01*
X157460697Y-55454251D01*
X157459999Y-55453553D01*
X157459300Y-55454252D01*
X156360697Y-55454252D01*
X156360697Y-55454251D01*
X156359999Y-55453553D01*
X156359300Y-55454252D01*
X155449961Y-55454252D01*
X155454213Y-55450000D01*
X155360001Y-55450000D01*
X155360001Y-55459844D01*
X153874764Y-55459844D01*
X153485083Y-55070163D01*
X156210000Y-55070163D01*
X156210000Y-55129837D01*
X156232836Y-55184968D01*
X156275032Y-55227164D01*
X156330163Y-55250000D01*
X156389837Y-55250000D01*
X156444968Y-55227164D01*
X156487164Y-55184968D01*
X156510000Y-55129837D01*
X156510000Y-55070163D01*
X157310000Y-55070163D01*
X157310000Y-55129837D01*
X157332836Y-55184968D01*
X157375032Y-55227164D01*
X157430163Y-55250000D01*
X157489837Y-55250000D01*
X157544968Y-55227164D01*
X157587164Y-55184968D01*
X157610000Y-55129837D01*
X157610000Y-55070163D01*
X157587164Y-55015032D01*
X157544968Y-54972836D01*
X157489837Y-54950000D01*
X157430163Y-54950000D01*
X157375032Y-54972836D01*
X157332836Y-55015032D01*
X157310000Y-55070163D01*
X156510000Y-55070163D01*
X156487164Y-55015032D01*
X156444968Y-54972836D01*
X156389837Y-54950000D01*
X156330163Y-54950000D01*
X156275032Y-54972836D01*
X156232836Y-55015032D01*
X156210000Y-55070163D01*
X153485083Y-55070163D01*
X153155066Y-54740146D01*
X155360000Y-54740146D01*
X155360000Y-54750000D01*
X155454214Y-54750000D01*
X155454214Y-54749999D01*
X155454213Y-54749998D01*
X158365785Y-54749998D01*
X158365786Y-54750000D01*
X158459999Y-54750000D01*
X158459999Y-54740155D01*
X158454197Y-54710981D01*
X158422834Y-54664043D01*
X158411058Y-54659288D01*
X158408288Y-54655373D01*
X158405529Y-54694355D01*
X158376998Y-54738786D01*
X158365785Y-54749998D01*
X155454213Y-54749998D01*
X155449961Y-54745746D01*
X156359300Y-54745746D01*
X156360000Y-54746446D01*
X156360698Y-54745747D01*
X156360698Y-54745746D01*
X157459300Y-54745746D01*
X157460000Y-54746446D01*
X157460698Y-54745747D01*
X157459998Y-54743600D01*
X157459300Y-54745746D01*
X156360698Y-54745746D01*
X156359998Y-54743600D01*
X156359300Y-54745746D01*
X155449961Y-54745746D01*
X155443002Y-54738787D01*
X155409517Y-54677464D01*
X155411296Y-54652576D01*
X155400432Y-54665459D01*
X155394906Y-54667422D01*
X155365802Y-54710981D01*
X155365800Y-54710986D01*
X155360000Y-54740146D01*
X153155066Y-54740146D01*
X152964110Y-54549190D01*
X155455636Y-54549190D01*
X155455637Y-54550807D01*
X155456445Y-54549999D01*
X155455636Y-54549190D01*
X152964110Y-54549190D01*
X152935083Y-54520163D01*
X155660000Y-54520163D01*
X155660000Y-54579837D01*
X155682836Y-54634968D01*
X155725032Y-54677164D01*
X155780163Y-54700000D01*
X155839837Y-54700000D01*
X155894968Y-54677164D01*
X155937164Y-54634968D01*
X155960000Y-54579837D01*
X155960000Y-54549999D01*
X156163553Y-54549999D01*
X156164251Y-54550697D01*
X156165066Y-54550432D01*
X156325466Y-54550432D01*
X156351432Y-54566089D01*
X156360434Y-54584396D01*
X156375970Y-54558590D01*
X156393410Y-54549998D01*
X156553600Y-54549998D01*
X156555747Y-54550698D01*
X156556446Y-54550000D01*
X156555746Y-54549300D01*
X156553600Y-54549998D01*
X156393410Y-54549998D01*
X156394413Y-54549504D01*
X156368624Y-54533970D01*
X156361827Y-54520163D01*
X156760000Y-54520163D01*
X156760000Y-54579837D01*
X156782836Y-54634968D01*
X156825032Y-54677164D01*
X156880163Y-54700000D01*
X156939837Y-54700000D01*
X156994968Y-54677164D01*
X157037164Y-54634968D01*
X157060000Y-54579837D01*
X157060000Y-54549999D01*
X157263553Y-54549999D01*
X157264251Y-54550697D01*
X157265066Y-54550432D01*
X157425466Y-54550432D01*
X157451432Y-54566089D01*
X157460434Y-54584396D01*
X157475970Y-54558590D01*
X157493410Y-54549998D01*
X157653600Y-54549998D01*
X157655747Y-54550698D01*
X157656446Y-54550000D01*
X157655746Y-54549300D01*
X157653600Y-54549998D01*
X157493410Y-54549998D01*
X157494413Y-54549504D01*
X157468624Y-54533970D01*
X157461827Y-54520163D01*
X157860000Y-54520163D01*
X157860000Y-54579837D01*
X157882836Y-54634968D01*
X157925032Y-54677164D01*
X157980163Y-54700000D01*
X158039837Y-54700000D01*
X158094968Y-54677164D01*
X158137164Y-54634968D01*
X158160000Y-54579837D01*
X158160000Y-54549999D01*
X158363553Y-54549999D01*
X158364362Y-54550808D01*
X158364363Y-54549189D01*
X158363553Y-54549999D01*
X158160000Y-54549999D01*
X158160000Y-54520163D01*
X158137164Y-54465032D01*
X158094968Y-54422836D01*
X158039837Y-54400000D01*
X157980163Y-54400000D01*
X157925032Y-54422836D01*
X157882836Y-54465032D01*
X157860000Y-54520163D01*
X157461827Y-54520163D01*
X157459506Y-54515449D01*
X157443852Y-54541398D01*
X157425466Y-54550432D01*
X157265066Y-54550432D01*
X157266401Y-54549998D01*
X157264252Y-54549300D01*
X157263553Y-54549999D01*
X157060000Y-54549999D01*
X157060000Y-54520163D01*
X157037164Y-54465032D01*
X156994968Y-54422836D01*
X156939837Y-54400000D01*
X156880163Y-54400000D01*
X156825032Y-54422836D01*
X156782836Y-54465032D01*
X156760000Y-54520163D01*
X156361827Y-54520163D01*
X156359506Y-54515449D01*
X156343852Y-54541398D01*
X156325466Y-54550432D01*
X156165066Y-54550432D01*
X156166401Y-54549998D01*
X156164252Y-54549300D01*
X156163553Y-54549999D01*
X155960000Y-54549999D01*
X155960000Y-54520163D01*
X155937164Y-54465032D01*
X155894968Y-54422836D01*
X155839837Y-54400000D01*
X155780163Y-54400000D01*
X155725032Y-54422836D01*
X155682836Y-54465032D01*
X155660000Y-54520163D01*
X152935083Y-54520163D01*
X152774764Y-54359844D01*
X155360001Y-54359844D01*
X155365802Y-54389018D01*
X155397157Y-54435944D01*
X155408945Y-54440704D01*
X155411715Y-54444619D01*
X155414510Y-54405550D01*
X155443011Y-54361202D01*
X155449961Y-54354252D01*
X156359300Y-54354252D01*
X156359998Y-54356401D01*
X156360697Y-54354252D01*
X157459300Y-54354252D01*
X157459998Y-54356401D01*
X157460697Y-54354251D01*
X157459999Y-54353553D01*
X157459300Y-54354252D01*
X156360697Y-54354252D01*
X156360697Y-54354251D01*
X156359999Y-54353553D01*
X156359300Y-54354252D01*
X155449961Y-54354252D01*
X155454213Y-54350000D01*
X158365785Y-54350000D01*
X158376988Y-54361203D01*
X158410473Y-54422526D01*
X158408694Y-54447391D01*
X158419399Y-54434655D01*
X158425047Y-54432642D01*
X158454197Y-54389019D01*
X158460000Y-54359847D01*
X158460000Y-54350000D01*
X158365785Y-54350000D01*
X155454213Y-54350000D01*
X155360001Y-54350000D01*
X155360001Y-54359844D01*
X152774764Y-54359844D01*
X152681479Y-54266559D01*
X152681459Y-54266537D01*
X152537785Y-54122863D01*
X152537781Y-54122860D01*
X152373917Y-54013369D01*
X152269607Y-53970163D01*
X156210000Y-53970163D01*
X156210000Y-54029837D01*
X156232836Y-54084968D01*
X156275032Y-54127164D01*
X156330163Y-54150000D01*
X156389837Y-54150000D01*
X156444968Y-54127164D01*
X156487164Y-54084968D01*
X156510000Y-54029837D01*
X156510000Y-53970163D01*
X157310000Y-53970163D01*
X157310000Y-54029837D01*
X157332836Y-54084968D01*
X157375032Y-54127164D01*
X157430163Y-54150000D01*
X157489837Y-54150000D01*
X157544968Y-54127164D01*
X157587164Y-54084968D01*
X157610000Y-54029837D01*
X157610000Y-53970163D01*
X157587164Y-53915032D01*
X157544968Y-53872836D01*
X157489837Y-53850000D01*
X157430163Y-53850000D01*
X157375032Y-53872836D01*
X157332836Y-53915032D01*
X157310000Y-53970163D01*
X156510000Y-53970163D01*
X156487164Y-53915032D01*
X156444968Y-53872836D01*
X156389837Y-53850000D01*
X156330163Y-53850000D01*
X156275032Y-53872836D01*
X156232836Y-53915032D01*
X156210000Y-53970163D01*
X152269607Y-53970163D01*
X152233333Y-53955138D01*
X152233330Y-53955136D01*
X152191840Y-53937950D01*
X152191828Y-53937947D01*
X152077856Y-53915277D01*
X151998543Y-53899500D01*
X151998541Y-53899500D01*
X148574500Y-53899500D01*
X148507461Y-53879815D01*
X148461706Y-53827011D01*
X148450500Y-53775500D01*
X148450500Y-53640146D01*
X155360000Y-53640146D01*
X155360000Y-53650000D01*
X155460000Y-53650000D01*
X158360000Y-53650000D01*
X158459999Y-53650000D01*
X158459999Y-53640155D01*
X158454197Y-53610981D01*
X158432095Y-53577904D01*
X158399016Y-53555801D01*
X158399015Y-53555800D01*
X158369853Y-53550000D01*
X158360000Y-53550000D01*
X158360000Y-53650000D01*
X155460000Y-53650000D01*
X155460000Y-53645636D01*
X156359190Y-53645636D01*
X156359999Y-53646445D01*
X156360807Y-53645637D01*
X156359190Y-53645636D01*
X157459190Y-53645636D01*
X157459999Y-53646445D01*
X157460807Y-53645637D01*
X157459190Y-53645636D01*
X156359190Y-53645636D01*
X155460000Y-53645636D01*
X155460000Y-53644212D01*
X156160000Y-53644212D01*
X156171202Y-53633011D01*
X156228523Y-53601711D01*
X156465386Y-53601711D01*
X156504355Y-53604470D01*
X156548787Y-53633002D01*
X156559999Y-53644214D01*
X156560000Y-53644213D01*
X156560000Y-53644212D01*
X157260000Y-53644212D01*
X157271202Y-53633011D01*
X157328523Y-53601711D01*
X157565386Y-53601711D01*
X157604355Y-53604470D01*
X157648787Y-53633002D01*
X157659999Y-53644214D01*
X157660000Y-53644213D01*
X157660000Y-53550000D01*
X157650147Y-53550001D01*
X157620985Y-53555801D01*
X157620982Y-53555802D01*
X157574050Y-53587160D01*
X157569289Y-53598950D01*
X157565386Y-53601711D01*
X157328523Y-53601711D01*
X157332525Y-53599526D01*
X157357439Y-53601307D01*
X157344518Y-53590403D01*
X157342563Y-53584897D01*
X157299018Y-53555801D01*
X157269853Y-53550000D01*
X157260000Y-53550000D01*
X157260000Y-53644212D01*
X156560000Y-53644212D01*
X156560000Y-53550000D01*
X156550147Y-53550001D01*
X156520985Y-53555801D01*
X156520982Y-53555802D01*
X156474050Y-53587160D01*
X156469289Y-53598950D01*
X156465386Y-53601711D01*
X156228523Y-53601711D01*
X156232525Y-53599526D01*
X156257439Y-53601307D01*
X156244518Y-53590403D01*
X156242563Y-53584897D01*
X156199018Y-53555801D01*
X156169853Y-53550000D01*
X156160000Y-53550000D01*
X156160000Y-53644212D01*
X155460000Y-53644212D01*
X155460000Y-53550000D01*
X155450147Y-53550001D01*
X155420984Y-53555801D01*
X155420981Y-53555802D01*
X155387904Y-53577904D01*
X155365801Y-53610983D01*
X155365800Y-53610984D01*
X155360000Y-53640146D01*
X148450500Y-53640146D01*
X148450499Y-53024500D01*
X148470183Y-52957461D01*
X148522987Y-52911706D01*
X148574499Y-52900500D01*
X148798542Y-52900500D01*
X148817870Y-52896655D01*
X148895188Y-52881275D01*
X148991836Y-52862051D01*
X149060679Y-52833535D01*
X149173914Y-52786632D01*
X149337782Y-52677139D01*
X149477139Y-52537782D01*
X149477139Y-52537780D01*
X149487347Y-52527573D01*
X149487348Y-52527570D01*
X150977139Y-51037782D01*
X151086631Y-50873915D01*
X151162051Y-50691836D01*
X151200500Y-50498541D01*
X151200500Y-50301460D01*
X151200500Y-50301457D01*
X151200499Y-50301455D01*
X151188816Y-50242722D01*
X151162051Y-50108165D01*
X151086631Y-49926086D01*
X151086630Y-49926085D01*
X151086627Y-49926079D01*
X150977139Y-49762219D01*
X150977136Y-49762215D01*
X150837784Y-49622863D01*
X150837780Y-49622860D01*
X150673920Y-49513372D01*
X150673911Y-49513367D01*
X150491835Y-49437949D01*
X150491827Y-49437947D01*
X150298543Y-49399500D01*
X150298540Y-49399500D01*
X150101459Y-49399500D01*
X150101456Y-49399500D01*
X149908171Y-49437947D01*
X149908163Y-49437949D01*
X149726087Y-49513367D01*
X149726078Y-49513372D01*
X149562218Y-49622860D01*
X149562214Y-49622863D01*
X148662180Y-50522898D01*
X148600857Y-50556383D01*
X148531165Y-50551399D01*
X148475232Y-50509527D01*
X148450815Y-50444063D01*
X148450499Y-50435217D01*
X148450499Y-49902129D01*
X148450498Y-49902123D01*
X148449965Y-49897169D01*
X148444091Y-49842517D01*
X148393796Y-49707669D01*
X148393794Y-49707666D01*
X148390696Y-49699360D01*
X148392426Y-49698714D01*
X148379902Y-49641163D01*
X148391691Y-49601011D01*
X148390696Y-49600640D01*
X148393794Y-49592333D01*
X148393796Y-49592331D01*
X148444091Y-49457483D01*
X148450500Y-49397873D01*
X148450499Y-48402128D01*
X148444091Y-48342517D01*
X148438991Y-48328844D01*
X148393797Y-48207671D01*
X148393793Y-48207664D01*
X148307547Y-48092455D01*
X148307544Y-48092452D01*
X148215124Y-48023266D01*
X148173253Y-47967332D01*
X148168269Y-47897641D01*
X148201755Y-47836318D01*
X148263078Y-47802834D01*
X148289435Y-47800000D01*
X162736640Y-47800000D01*
X162803679Y-47819685D01*
G37*
%TD.AperFunction*%
%TA.AperFunction,Conductor*%
G36*
X141319701Y-47120185D02*
G01*
X141365456Y-47172989D01*
X141375400Y-47242147D01*
X141346375Y-47305703D01*
X141340343Y-47312181D01*
X141333714Y-47318809D01*
X141287912Y-47412500D01*
X142632088Y-47412500D01*
X142586285Y-47318809D01*
X142579657Y-47312181D01*
X142546172Y-47250858D01*
X142551156Y-47181166D01*
X142593028Y-47125233D01*
X142658492Y-47100816D01*
X142667338Y-47100500D01*
X142875815Y-47100500D01*
X142942854Y-47120185D01*
X142988609Y-47172989D01*
X142998553Y-47242147D01*
X142993522Y-47263497D01*
X142957501Y-47372203D01*
X142957501Y-47372204D01*
X142957500Y-47372204D01*
X142947000Y-47474983D01*
X142947000Y-48489990D01*
X142946907Y-48494783D01*
X142945396Y-48533837D01*
X142945396Y-48533840D01*
X142995323Y-49011724D01*
X142994106Y-49046166D01*
X142990568Y-49066207D01*
X142959528Y-49128804D01*
X142899574Y-49164682D01*
X142829740Y-49162451D01*
X142803360Y-49150189D01*
X142649340Y-49055189D01*
X142649335Y-49055187D01*
X142649334Y-49055186D01*
X142495793Y-49004307D01*
X142438349Y-48964535D01*
X142411526Y-48900019D01*
X142423841Y-48831244D01*
X142471384Y-48780044D01*
X142480339Y-48775201D01*
X142503690Y-48763785D01*
X142586285Y-48681190D01*
X142632088Y-48587500D01*
X141287912Y-48587500D01*
X141333714Y-48681190D01*
X141416309Y-48763785D01*
X141455819Y-48783100D01*
X141507402Y-48830228D01*
X141525317Y-48897761D01*
X141503877Y-48964260D01*
X141449888Y-49008611D01*
X141440365Y-49012207D01*
X141310666Y-49055186D01*
X141310663Y-49055187D01*
X141161342Y-49147289D01*
X141037289Y-49271342D01*
X140945186Y-49420666D01*
X140904728Y-49542757D01*
X140897507Y-49560046D01*
X140821114Y-49709976D01*
X140821114Y-49709977D01*
X140760291Y-49897169D01*
X140760291Y-49897172D01*
X140729500Y-50091577D01*
X140729500Y-50288421D01*
X140747973Y-50405051D01*
X140749500Y-50424450D01*
X140749500Y-51466288D01*
X140729815Y-51533327D01*
X140677011Y-51579082D01*
X140610120Y-51589330D01*
X140273600Y-51547265D01*
X140209519Y-51519418D01*
X140170667Y-51461346D01*
X140167394Y-51448571D01*
X140157767Y-51400500D01*
X140085131Y-51037782D01*
X140042914Y-50826969D01*
X140040500Y-50802621D01*
X140040500Y-47367204D01*
X140060185Y-47300165D01*
X140076819Y-47279523D01*
X140219523Y-47136819D01*
X140280846Y-47103334D01*
X140307204Y-47100500D01*
X141252662Y-47100500D01*
X141319701Y-47120185D01*
G37*
%TD.AperFunction*%
%TA.AperFunction,Conductor*%
G36*
X171859820Y-48820185D02*
G01*
X171905575Y-48872989D01*
X171912556Y-48892406D01*
X171936027Y-48980000D01*
X173196000Y-48980000D01*
X173263039Y-48999685D01*
X173308794Y-49052489D01*
X173320000Y-49104000D01*
X173320000Y-49180000D01*
X172230504Y-49180000D01*
X172154204Y-49200444D01*
X172085795Y-49239940D01*
X172029940Y-49295795D01*
X171990444Y-49364204D01*
X171970000Y-49440504D01*
X171970000Y-49519496D01*
X171990444Y-49595796D01*
X172029940Y-49664205D01*
X172085795Y-49720060D01*
X172154204Y-49759556D01*
X172230504Y-49780000D01*
X173320000Y-49780000D01*
X173320000Y-50100140D01*
X173329259Y-50117097D01*
X173324275Y-50186789D01*
X173282403Y-50242722D01*
X173232285Y-50265072D01*
X173158804Y-50279688D01*
X173158796Y-50279690D01*
X173039508Y-50329100D01*
X173039506Y-50329101D01*
X172927078Y-50404224D01*
X172926330Y-50403105D01*
X172868336Y-50427726D01*
X172799470Y-50415925D01*
X172747917Y-50368766D01*
X172729999Y-50304558D01*
X172729999Y-50240155D01*
X172724197Y-50210981D01*
X172702095Y-50177904D01*
X172669016Y-50155801D01*
X172669015Y-50155800D01*
X172639853Y-50150000D01*
X172444000Y-50150000D01*
X172376961Y-50130315D01*
X172331206Y-50077511D01*
X172320000Y-50026000D01*
X172320000Y-49980000D01*
X171936028Y-49980000D01*
X172038408Y-50039110D01*
X172113093Y-50059122D01*
X172172754Y-50095487D01*
X172203283Y-50158334D01*
X172205000Y-50178897D01*
X172205000Y-50425500D01*
X172185315Y-50492539D01*
X172132511Y-50538294D01*
X172081000Y-50549500D01*
X171132129Y-50549500D01*
X171132123Y-50549501D01*
X171072516Y-50555908D01*
X170976604Y-50591682D01*
X170933271Y-50599500D01*
X170621188Y-50599500D01*
X170589292Y-50595328D01*
X170031747Y-50446920D01*
X170013208Y-50440372D01*
X170009803Y-50438856D01*
X170009801Y-50438855D01*
X169874624Y-50410123D01*
X169824646Y-50399500D01*
X169635354Y-50399500D01*
X169635352Y-50399500D01*
X169511533Y-50425818D01*
X169441866Y-50420502D01*
X169386133Y-50378364D01*
X169362028Y-50312784D01*
X169377205Y-50244583D01*
X169380543Y-50240146D01*
X171080000Y-50240146D01*
X171080000Y-50250000D01*
X171605000Y-50250000D01*
X171605000Y-50150000D01*
X171170155Y-50150000D01*
X171140981Y-50155802D01*
X171107904Y-50177904D01*
X171085801Y-50210983D01*
X171085800Y-50210984D01*
X171080000Y-50240146D01*
X169380543Y-50240146D01*
X169398069Y-50216849D01*
X170778102Y-48836819D01*
X170839425Y-48803334D01*
X170865783Y-48800500D01*
X171792781Y-48800500D01*
X171859820Y-48820185D01*
G37*
%TD.AperFunction*%
%TD*%
%TA.AperFunction,Conductor*%
%TO.N,GND*%
G36*
X159467107Y-77645736D02*
G01*
X159129552Y-78223073D01*
X158759293Y-78070707D01*
X158606927Y-77700448D01*
X159184264Y-77362893D01*
X159467107Y-77645736D01*
G37*
%TD.AperFunction*%
%TD*%
%TA.AperFunction,Conductor*%
%TO.N,+3.3V*%
G36*
X140346418Y-70891604D02*
G01*
X141331139Y-71137784D01*
X141338333Y-71143115D01*
X141340000Y-71149135D01*
X141340000Y-72630864D01*
X141336573Y-72639137D01*
X141331138Y-72642215D01*
X140346422Y-72888394D01*
X140337564Y-72887076D01*
X140335315Y-72885320D01*
X139347285Y-71898277D01*
X139343854Y-71890006D01*
X139347277Y-71881731D01*
X139347285Y-71881723D01*
X140335317Y-70894678D01*
X140343590Y-70891256D01*
X140346418Y-70891604D01*
G37*
%TD.AperFunction*%
%TD*%
%TA.AperFunction,Conductor*%
%TO.N,+3.3V*%
G36*
X138953134Y-51891641D02*
G01*
X140929752Y-52138719D01*
X140937535Y-52143145D01*
X140940000Y-52150328D01*
X140940000Y-53629671D01*
X140936573Y-53637944D01*
X140929751Y-53641281D01*
X138953137Y-53888357D01*
X138944503Y-53885982D01*
X138940076Y-53878198D01*
X138939986Y-53876771D01*
X138939000Y-52890000D01*
X138939986Y-51903238D01*
X138943421Y-51894971D01*
X138951698Y-51891552D01*
X138953134Y-51891641D01*
G37*
%TD.AperFunction*%
%TD*%
%TA.AperFunction,Conductor*%
%TO.N,+3.3V*%
G36*
X139538684Y-50893427D02*
G01*
X139541883Y-50899403D01*
X139861993Y-52497899D01*
X139860258Y-52506684D01*
X139855008Y-52511001D01*
X138944487Y-52889136D01*
X138935533Y-52889145D01*
X138935513Y-52889136D01*
X138024991Y-52511001D01*
X138018664Y-52504663D01*
X138018006Y-52497899D01*
X138338117Y-50899403D01*
X138343101Y-50891963D01*
X138349589Y-50890000D01*
X139530411Y-50890000D01*
X139538684Y-50893427D01*
G37*
%TD.AperFunction*%
%TD*%
%TA.AperFunction,Conductor*%
%TO.N,+3.3V*%
G36*
X139346797Y-71899615D02*
G01*
X139349521Y-71902339D01*
X139813814Y-72552813D01*
X140337185Y-73286057D01*
X140339203Y-73294777D01*
X140091630Y-74780223D01*
X140086889Y-74787821D01*
X140080089Y-74790000D01*
X138599911Y-74790000D01*
X138591638Y-74786573D01*
X138588370Y-74780223D01*
X138340796Y-73294777D01*
X138342814Y-73286057D01*
X139330477Y-71902340D01*
X139338073Y-71897598D01*
X139346797Y-71899615D01*
G37*
%TD.AperFunction*%
%TD*%
%TA.AperFunction,Conductor*%
%TO.N,+5V*%
G36*
X148708249Y-78747295D02*
G01*
X149263516Y-79305689D01*
X149266920Y-79313972D01*
X149266402Y-79317383D01*
X149042543Y-80044244D01*
X149036833Y-80051142D01*
X149031361Y-80052500D01*
X148348865Y-80052500D01*
X148340592Y-80049073D01*
X148337601Y-80043965D01*
X148133377Y-79317243D01*
X148134438Y-79308352D01*
X148136342Y-79305831D01*
X148691705Y-78747341D01*
X148699967Y-78743892D01*
X148708249Y-78747295D01*
G37*
%TD.AperFunction*%
%TD*%
%TA.AperFunction,Conductor*%
%TO.N,Net-(D5-A)*%
G36*
X157772041Y-78923250D02*
G01*
X157773932Y-78925232D01*
X158215465Y-79512637D01*
X158217696Y-79521309D01*
X158215141Y-79527108D01*
X157736768Y-80107516D01*
X157728861Y-80111721D01*
X157726134Y-80111664D01*
X156930095Y-80001398D01*
X156922370Y-79996869D01*
X156920000Y-79989809D01*
X156920000Y-79010650D01*
X156923427Y-79002377D01*
X156930601Y-78999002D01*
X157763483Y-78920613D01*
X157772041Y-78923250D01*
G37*
%TD.AperFunction*%
%TD*%
%TA.AperFunction,Conductor*%
%TO.N,VIN_Fused*%
G36*
X163728546Y-85742003D02*
G01*
X165282959Y-86619812D01*
X165288478Y-86626864D01*
X165287394Y-86635753D01*
X165282959Y-86640188D01*
X163728546Y-87517996D01*
X163720975Y-87519366D01*
X162844882Y-87381554D01*
X162837242Y-87376883D01*
X162835000Y-87369996D01*
X162835000Y-85890003D01*
X162838427Y-85881730D01*
X162844880Y-85878445D01*
X163720975Y-85740633D01*
X163728546Y-85742003D01*
G37*
%TD.AperFunction*%
%TD*%
%TA.AperFunction,Conductor*%
%TO.N,Net-(U1-EN)*%
G36*
X144575243Y-49686290D02*
G01*
X145172199Y-49897243D01*
X145178857Y-49903229D01*
X145180000Y-49908273D01*
X145180000Y-50887903D01*
X145176573Y-50896176D01*
X145168300Y-50899603D01*
X145167910Y-50899596D01*
X144415198Y-50874495D01*
X144407044Y-50870795D01*
X144405681Y-50869027D01*
X143984364Y-50198537D01*
X143982865Y-50189711D01*
X143986653Y-50183434D01*
X144563734Y-49688440D01*
X144572243Y-49685656D01*
X144575243Y-49686290D01*
G37*
%TD.AperFunction*%
%TD*%
%TA.AperFunction,Conductor*%
%TO.N,Net-(U1-EN)*%
G36*
X144532176Y-48893427D02*
G01*
X144535587Y-48901081D01*
X144579670Y-49733774D01*
X144576685Y-49742217D01*
X144575016Y-49743746D01*
X143987940Y-50185031D01*
X143979268Y-50187262D01*
X143972822Y-50184131D01*
X143407332Y-49642990D01*
X143403725Y-49634796D01*
X143403899Y-49632513D01*
X143533293Y-48899665D01*
X143538106Y-48892114D01*
X143544815Y-48890000D01*
X144523903Y-48890000D01*
X144532176Y-48893427D01*
G37*
%TD.AperFunction*%
%TD*%
%TA.AperFunction,Conductor*%
%TO.N,Net-(U1-EN)*%
G36*
X144042365Y-48004967D02*
G01*
X144617568Y-48471004D01*
X144621839Y-48478875D01*
X144621840Y-48481311D01*
X144536095Y-49302016D01*
X144531827Y-49309888D01*
X144524458Y-49312500D01*
X143545542Y-49312500D01*
X143537269Y-49309073D01*
X143533905Y-49302016D01*
X143448159Y-48481311D01*
X143450708Y-48472726D01*
X143452426Y-48471008D01*
X144027635Y-48004966D01*
X144036220Y-48002422D01*
X144042365Y-48004967D01*
G37*
%TD.AperFunction*%
%TD*%
%TA.AperFunction,Conductor*%
%TO.N,Net-(D5-K)*%
G36*
X154352017Y-75723904D02*
G01*
X154359888Y-75728172D01*
X154362500Y-75735541D01*
X154362500Y-76714458D01*
X154359073Y-76722731D01*
X154352016Y-76726095D01*
X153531311Y-76811840D01*
X153522726Y-76809291D01*
X153521004Y-76807568D01*
X153054967Y-76232365D01*
X153052422Y-76223780D01*
X153054967Y-76217635D01*
X153521005Y-75642430D01*
X153528875Y-75638160D01*
X153531307Y-75638159D01*
X154352017Y-75723904D01*
G37*
%TD.AperFunction*%
%TD*%
%TA.AperFunction,Conductor*%
%TO.N,Net-(D5-K)*%
G36*
X156431486Y-75750960D02*
G01*
X157090016Y-75848520D01*
X157097696Y-75853123D01*
X157100000Y-75860094D01*
X157100000Y-76539905D01*
X157096573Y-76548178D01*
X157090015Y-76551479D01*
X156431487Y-76649038D01*
X156422801Y-76646860D01*
X156420794Y-76644966D01*
X156055268Y-76207502D01*
X156052593Y-76198956D01*
X156055268Y-76192498D01*
X156333010Y-75860094D01*
X156420795Y-75755032D01*
X156428728Y-75750882D01*
X156431486Y-75750960D01*
G37*
%TD.AperFunction*%
%TD*%
%TA.AperFunction,Conductor*%
%TO.N,IO00-Voltage*%
G36*
X176515795Y-81617908D02*
G01*
X176518487Y-81622100D01*
X177219948Y-83506754D01*
X177219622Y-83515703D01*
X177213470Y-83521640D01*
X176305191Y-83898844D01*
X176296237Y-83898853D01*
X176296222Y-83898847D01*
X175386388Y-83521574D01*
X175380059Y-83515239D01*
X175379847Y-83506844D01*
X175804143Y-82314612D01*
X175806889Y-82310268D01*
X176499250Y-81617907D01*
X176507522Y-81614481D01*
X176515795Y-81617908D01*
G37*
%TD.AperFunction*%
%TD*%
%TA.AperFunction,Conductor*%
%TO.N,Net-(D2-A)*%
G36*
X165354562Y-79300318D02*
G01*
X165356755Y-79303360D01*
X165956639Y-80503579D01*
X165957272Y-80512512D01*
X165955578Y-80515770D01*
X165307672Y-81391294D01*
X165299996Y-81395906D01*
X165291307Y-81393739D01*
X165291299Y-81393733D01*
X164111029Y-80518792D01*
X164106424Y-80511112D01*
X164108598Y-80502425D01*
X164110434Y-80500466D01*
X164288838Y-80349497D01*
X165338017Y-79300317D01*
X165346289Y-79296891D01*
X165354562Y-79300318D01*
G37*
%TD.AperFunction*%
%TD*%
%TA.AperFunction,Conductor*%
%TO.N,Net-(D2-A)*%
G36*
X164899253Y-77873740D02*
G01*
X164903987Y-77879093D01*
X166042795Y-80471969D01*
X166042985Y-80480922D01*
X166036788Y-80487386D01*
X166032083Y-80488374D01*
X164554936Y-80488374D01*
X164546663Y-80484947D01*
X164546555Y-80484838D01*
X163931606Y-79853608D01*
X163928288Y-79845291D01*
X163928295Y-79845024D01*
X163999642Y-78107708D01*
X164003405Y-78099583D01*
X164008444Y-78096851D01*
X164890392Y-77872459D01*
X164899253Y-77873740D01*
G37*
%TD.AperFunction*%
%TD*%
%TA.AperFunction,Conductor*%
%TO.N,USB_5V*%
G36*
X170463817Y-55852590D02*
G01*
X171240457Y-55998210D01*
X171247956Y-56003103D01*
X171250000Y-56009710D01*
X171250000Y-56490289D01*
X171246573Y-56498562D01*
X171240456Y-56501789D01*
X170463820Y-56647408D01*
X170455057Y-56645564D01*
X170450164Y-56638064D01*
X170449964Y-56635946D01*
X170449000Y-56250000D01*
X170449964Y-55864059D01*
X170453412Y-55855797D01*
X170461693Y-55852391D01*
X170463817Y-55852590D01*
G37*
%TD.AperFunction*%
%TD*%
%TA.AperFunction,Conductor*%
%TO.N,USB_5V*%
G36*
X170511365Y-51097687D02*
G01*
X170518477Y-51103125D01*
X170520054Y-51108992D01*
X170520054Y-51589687D01*
X170516627Y-51597960D01*
X170509823Y-51601294D01*
X169743135Y-51698337D01*
X169734497Y-51695977D01*
X169730059Y-51688199D01*
X169729966Y-51686773D01*
X169729005Y-51302350D01*
X169729904Y-51297829D01*
X169879141Y-50939878D01*
X169885487Y-50933562D01*
X169892946Y-50933076D01*
X170511365Y-51097687D01*
G37*
%TD.AperFunction*%
%TD*%
%TA.AperFunction,Conductor*%
%TO.N,IO8*%
G36*
X146453998Y-57452395D02*
G01*
X147123396Y-57853500D01*
X147184251Y-57889964D01*
X147189586Y-57897156D01*
X147188273Y-57906014D01*
X147184251Y-57910036D01*
X146453999Y-58347603D01*
X146445447Y-58348988D01*
X146009162Y-58252036D01*
X146001829Y-58246896D01*
X146000000Y-58240615D01*
X146000000Y-57559385D01*
X146003427Y-57551112D01*
X146009162Y-57547964D01*
X146445449Y-57451011D01*
X146453998Y-57452395D01*
G37*
%TD.AperFunction*%
%TD*%
%TA.AperFunction,Conductor*%
%TO.N,IO8*%
G36*
X143487400Y-57143457D02*
G01*
X144104697Y-57546537D01*
X144109750Y-57553929D01*
X144110000Y-57556333D01*
X144110000Y-58237865D01*
X144106573Y-58246138D01*
X144098300Y-58249565D01*
X144097873Y-58249557D01*
X142753343Y-58200461D01*
X142745200Y-58196735D01*
X142742078Y-58188342D01*
X142742143Y-58187464D01*
X142808396Y-57605303D01*
X142812736Y-57597471D01*
X142813384Y-57596992D01*
X143474389Y-57143605D01*
X143483149Y-57141752D01*
X143487400Y-57143457D01*
G37*
%TD.AperFunction*%
%TD*%
%TA.AperFunction,Conductor*%
%TO.N,IO8*%
G36*
X148390838Y-57547964D02*
G01*
X148398171Y-57553104D01*
X148400000Y-57559385D01*
X148400000Y-58240615D01*
X148396573Y-58248888D01*
X148390838Y-58252036D01*
X147954552Y-58348988D01*
X147946000Y-58347603D01*
X147761871Y-58237273D01*
X147215747Y-57910034D01*
X147210413Y-57902844D01*
X147211726Y-57893986D01*
X147215746Y-57889965D01*
X147946001Y-57452395D01*
X147954550Y-57451011D01*
X148390838Y-57547964D01*
G37*
%TD.AperFunction*%
%TD*%
%TA.AperFunction,Conductor*%
%TO.N,IO8*%
G36*
X148586072Y-57503678D02*
G01*
X148590008Y-57511721D01*
X148590031Y-57512422D01*
X148591000Y-57900000D01*
X148591000Y-57900058D01*
X148590031Y-58287577D01*
X148586583Y-58295842D01*
X148578302Y-58299248D01*
X148577601Y-58299225D01*
X147800970Y-58250685D01*
X147792927Y-58246749D01*
X147790000Y-58239008D01*
X147790000Y-57560991D01*
X147793427Y-57552718D01*
X147800969Y-57549314D01*
X148577603Y-57500774D01*
X148586072Y-57503678D01*
G37*
%TD.AperFunction*%
%TD*%
%TA.AperFunction,Conductor*%
%TO.N,Net-(U5-V_{FB})*%
G36*
X160650138Y-80053427D02*
G01*
X160652833Y-80057625D01*
X160926646Y-80794639D01*
X160926314Y-80803588D01*
X160923727Y-80807206D01*
X160358019Y-81343398D01*
X160349657Y-81346602D01*
X160341952Y-81343427D01*
X159773972Y-80808979D01*
X159770295Y-80800814D01*
X159770613Y-80797729D01*
X159771355Y-80794639D01*
X159947848Y-80058971D01*
X159953110Y-80051725D01*
X159959225Y-80050000D01*
X160641865Y-80050000D01*
X160650138Y-80053427D01*
G37*
%TD.AperFunction*%
%TD*%
%TA.AperFunction,Conductor*%
%TO.N,Net-(U5-V_{FB})*%
G36*
X159767097Y-80829815D02*
G01*
X159769469Y-80831454D01*
X160343305Y-81343138D01*
X160347199Y-81351202D01*
X160345161Y-81358497D01*
X159893294Y-82016177D01*
X159885785Y-82021055D01*
X159883631Y-82021251D01*
X159161680Y-82020019D01*
X159153413Y-82016578D01*
X159150000Y-82008319D01*
X159150000Y-81028589D01*
X159153427Y-81020316D01*
X159158192Y-81017427D01*
X159758178Y-80829024D01*
X159767097Y-80829815D01*
G37*
%TD.AperFunction*%
%TD*%
%TA.AperFunction,Conductor*%
%TO.N,Net-(U5-V_{FB})*%
G36*
X159509667Y-81018784D02*
G01*
X159517483Y-81023154D01*
X159520000Y-81030404D01*
X159520000Y-82009595D01*
X159516573Y-82017868D01*
X159509667Y-82021215D01*
X158676679Y-82119214D01*
X158668062Y-82116777D01*
X158665959Y-82114624D01*
X158224284Y-81527030D01*
X158222053Y-81518358D01*
X158224284Y-81512970D01*
X158665960Y-80925374D01*
X158673670Y-80920821D01*
X158676673Y-80920785D01*
X159509667Y-81018784D01*
G37*
%TD.AperFunction*%
%TD*%
%TA.AperFunction,Conductor*%
%TO.N,IO9-boot*%
G36*
X148980043Y-59284099D02*
G01*
X148980610Y-59284599D01*
X149563528Y-59798938D01*
X149567464Y-59806980D01*
X149564560Y-59815451D01*
X149564081Y-59815962D01*
X149290749Y-60090665D01*
X149290707Y-60090707D01*
X149015962Y-60364081D01*
X149007681Y-60367487D01*
X148999416Y-60364039D01*
X148998952Y-60363544D01*
X148508023Y-59807157D01*
X148484099Y-59780043D01*
X148481195Y-59771572D01*
X148484598Y-59764030D01*
X148964030Y-59284598D01*
X148972302Y-59281172D01*
X148980043Y-59284099D01*
G37*
%TD.AperFunction*%
%TD*%
%TA.AperFunction,Conductor*%
%TO.N,IO9-boot*%
G36*
X146453998Y-58952395D02*
G01*
X147123396Y-59353500D01*
X147184251Y-59389964D01*
X147189586Y-59397156D01*
X147188273Y-59406014D01*
X147184251Y-59410036D01*
X146453999Y-59847603D01*
X146445447Y-59848988D01*
X146009162Y-59752036D01*
X146001829Y-59746896D01*
X146000000Y-59740615D01*
X146000000Y-59059385D01*
X146003427Y-59051112D01*
X146009162Y-59047964D01*
X146445449Y-58951011D01*
X146453998Y-58952395D01*
G37*
%TD.AperFunction*%
%TD*%
%TA.AperFunction,Conductor*%
%TO.N,IO9-boot*%
G36*
X141999272Y-59049106D02*
G01*
X142007232Y-59053208D01*
X142010000Y-59060766D01*
X142010000Y-59739234D01*
X142006573Y-59747507D01*
X141999272Y-59750894D01*
X141413265Y-59799727D01*
X141407066Y-59798534D01*
X140629960Y-59410467D01*
X140624089Y-59403705D01*
X140624720Y-59394773D01*
X140629960Y-59389533D01*
X141407066Y-59001465D01*
X141413264Y-59000272D01*
X141999272Y-59049106D01*
G37*
%TD.AperFunction*%
%TD*%
%TA.AperFunction,Conductor*%
%TO.N,IO9-boot*%
G36*
X148390838Y-59047964D02*
G01*
X148398171Y-59053104D01*
X148400000Y-59059385D01*
X148400000Y-59740615D01*
X148396573Y-59748888D01*
X148390838Y-59752036D01*
X147954552Y-59848988D01*
X147946000Y-59847603D01*
X147761871Y-59737273D01*
X147215747Y-59410034D01*
X147210413Y-59402844D01*
X147211726Y-59393986D01*
X147215746Y-59389965D01*
X147946001Y-58952395D01*
X147954550Y-58951011D01*
X148390838Y-59047964D01*
G37*
%TD.AperFunction*%
%TD*%
%TA.AperFunction,Conductor*%
%TO.N,IO9-boot*%
G36*
X140617872Y-57606159D02*
G01*
X141205359Y-58140447D01*
X141209174Y-58148549D01*
X141209053Y-58150868D01*
X141111516Y-58790065D01*
X141106881Y-58797726D01*
X141099950Y-58800000D01*
X140120050Y-58800000D01*
X140111777Y-58796573D01*
X140108484Y-58790065D01*
X140010946Y-58150868D01*
X140013086Y-58142173D01*
X140014634Y-58140453D01*
X140602128Y-57606158D01*
X140610554Y-57603128D01*
X140617872Y-57606159D01*
G37*
%TD.AperFunction*%
%TD*%
%TA.AperFunction,Conductor*%
%TO.N,IO07-Button*%
G36*
X168807030Y-66904284D02*
G01*
X169394624Y-67345959D01*
X169399178Y-67353670D01*
X169399214Y-67356679D01*
X169301216Y-68189667D01*
X169296846Y-68197483D01*
X169289596Y-68200000D01*
X168310404Y-68200000D01*
X168302131Y-68196573D01*
X168298784Y-68189667D01*
X168200785Y-67356677D01*
X168203222Y-67348062D01*
X168205371Y-67345962D01*
X168792970Y-66904283D01*
X168801642Y-66902053D01*
X168807030Y-66904284D01*
G37*
%TD.AperFunction*%
%TD*%
%TA.AperFunction,Conductor*%
%TO.N,IO07-Button*%
G36*
X168170653Y-65562072D02*
G01*
X168882599Y-66145932D01*
X168943031Y-66195492D01*
X168947255Y-66203388D01*
X168947060Y-66206954D01*
X168801982Y-66894661D01*
X168796921Y-66902049D01*
X168794996Y-66903062D01*
X168207911Y-67145263D01*
X168198956Y-67145250D01*
X168194492Y-67141974D01*
X167462254Y-66270672D01*
X167459555Y-66262134D01*
X167462937Y-66254873D01*
X168154964Y-65562846D01*
X168163236Y-65559420D01*
X168170653Y-65562072D01*
G37*
%TD.AperFunction*%
%TD*%
%TA.AperFunction,Conductor*%
%TO.N,IO6-IR*%
G36*
X170285799Y-61521315D02*
G01*
X171196215Y-61897437D01*
X171202553Y-61903764D01*
X171202562Y-61903784D01*
X171578683Y-62814198D01*
X171578674Y-62823152D01*
X171573499Y-62828921D01*
X170261249Y-63549328D01*
X170252348Y-63550306D01*
X170247346Y-63547345D01*
X169552654Y-62852653D01*
X169549227Y-62844380D01*
X169550670Y-62838753D01*
X170271079Y-61526499D01*
X170278063Y-61520896D01*
X170285799Y-61521315D01*
G37*
%TD.AperFunction*%
%TD*%
%TA.AperFunction,Conductor*%
%TO.N,IO6-IR*%
G36*
X173513999Y-66202306D02*
G01*
X174951835Y-66676427D01*
X174958619Y-66682272D01*
X174959372Y-66690920D01*
X174692111Y-67576053D01*
X174686439Y-67582982D01*
X174686418Y-67582994D01*
X173798279Y-68056865D01*
X173789366Y-68057736D01*
X173783890Y-68054159D01*
X173373795Y-67576053D01*
X172807105Y-66915382D01*
X172804321Y-66906874D01*
X172807713Y-66899495D01*
X173502064Y-66205144D01*
X173510336Y-66201718D01*
X173513999Y-66202306D01*
G37*
%TD.AperFunction*%
%TD*%
M02*
