%TF.GenerationSoftware,KiCad,Pcbnew,8.0.2*%
%TF.CreationDate,2024-08-19T20:28:07+02:00*%
%TF.ProjectId,TwinkleTron,5477696e-6b6c-4655-9472-6f6e2e6b6963,rev?*%
%TF.SameCoordinates,Original*%
%TF.FileFunction,Copper,L2,Bot*%
%TF.FilePolarity,Positive*%
%FSLAX46Y46*%
G04 Gerber Fmt 4.6, Leading zero omitted, Abs format (unit mm)*
G04 Created by KiCad (PCBNEW 8.0.2) date 2024-08-19 20:28:07*
%MOMM*%
%LPD*%
G01*
G04 APERTURE LIST*
G04 Aperture macros list*
%AMRoundRect*
0 Rectangle with rounded corners*
0 $1 Rounding radius*
0 $2 $3 $4 $5 $6 $7 $8 $9 X,Y pos of 4 corners*
0 Add a 4 corners polygon primitive as box body*
4,1,4,$2,$3,$4,$5,$6,$7,$8,$9,$2,$3,0*
0 Add four circle primitives for the rounded corners*
1,1,$1+$1,$2,$3*
1,1,$1+$1,$4,$5*
1,1,$1+$1,$6,$7*
1,1,$1+$1,$8,$9*
0 Add four rect primitives between the rounded corners*
20,1,$1+$1,$2,$3,$4,$5,0*
20,1,$1+$1,$4,$5,$6,$7,0*
20,1,$1+$1,$6,$7,$8,$9,0*
20,1,$1+$1,$8,$9,$2,$3,0*%
G04 Aperture macros list end*
%TA.AperFunction,Conductor*%
%ADD10C,0.200000*%
%TD*%
%TA.AperFunction,ComponentPad*%
%ADD11RoundRect,0.250200X0.649800X-0.649800X0.649800X0.649800X-0.649800X0.649800X-0.649800X-0.649800X0*%
%TD*%
%TA.AperFunction,ComponentPad*%
%ADD12C,1.800000*%
%TD*%
%TA.AperFunction,ComponentPad*%
%ADD13C,0.500000*%
%TD*%
%TA.AperFunction,ComponentPad*%
%ADD14C,1.650000*%
%TD*%
%TA.AperFunction,ComponentPad*%
%ADD15R,1.650000X1.650000*%
%TD*%
%TA.AperFunction,ComponentPad*%
%ADD16RoundRect,0.249999X-0.790001X-1.550001X0.790001X-1.550001X0.790001X1.550001X-0.790001X1.550001X0*%
%TD*%
%TA.AperFunction,ComponentPad*%
%ADD17O,2.080000X3.600000*%
%TD*%
%TA.AperFunction,ComponentPad*%
%ADD18R,1.050000X1.500000*%
%TD*%
%TA.AperFunction,ComponentPad*%
%ADD19O,1.050000X1.500000*%
%TD*%
%TA.AperFunction,ComponentPad*%
%ADD20O,2.100000X1.000000*%
%TD*%
%TA.AperFunction,ComponentPad*%
%ADD21O,1.600000X1.000000*%
%TD*%
%TA.AperFunction,ComponentPad*%
%ADD22R,2.000000X2.000000*%
%TD*%
%TA.AperFunction,ComponentPad*%
%ADD23C,2.000000*%
%TD*%
%TA.AperFunction,ComponentPad*%
%ADD24RoundRect,0.250000X0.750000X-0.600000X0.750000X0.600000X-0.750000X0.600000X-0.750000X-0.600000X0*%
%TD*%
%TA.AperFunction,ComponentPad*%
%ADD25O,2.000000X1.700000*%
%TD*%
%TA.AperFunction,SMDPad,CuDef*%
%ADD26C,2.000000*%
%TD*%
%TA.AperFunction,SMDPad,CuDef*%
%ADD27RoundRect,0.250000X-0.475000X0.337500X-0.475000X-0.337500X0.475000X-0.337500X0.475000X0.337500X0*%
%TD*%
%TA.AperFunction,SMDPad,CuDef*%
%ADD28RoundRect,0.250000X-0.800000X0.450000X-0.800000X-0.450000X0.800000X-0.450000X0.800000X0.450000X0*%
%TD*%
%TA.AperFunction,SMDPad,CuDef*%
%ADD29RoundRect,0.250000X0.450000X0.800000X-0.450000X0.800000X-0.450000X-0.800000X0.450000X-0.800000X0*%
%TD*%
%TA.AperFunction,SMDPad,CuDef*%
%ADD30RoundRect,0.250000X-1.500000X-0.650000X1.500000X-0.650000X1.500000X0.650000X-1.500000X0.650000X0*%
%TD*%
%TA.AperFunction,SMDPad,CuDef*%
%ADD31RoundRect,0.250000X0.450000X-0.350000X0.450000X0.350000X-0.450000X0.350000X-0.450000X-0.350000X0*%
%TD*%
%TA.AperFunction,SMDPad,CuDef*%
%ADD32RoundRect,0.225000X0.375000X-0.225000X0.375000X0.225000X-0.375000X0.225000X-0.375000X-0.225000X0*%
%TD*%
%TA.AperFunction,SMDPad,CuDef*%
%ADD33RoundRect,0.250000X-0.337500X-0.475000X0.337500X-0.475000X0.337500X0.475000X-0.337500X0.475000X0*%
%TD*%
%TA.AperFunction,SMDPad,CuDef*%
%ADD34RoundRect,0.150000X-0.825000X-0.150000X0.825000X-0.150000X0.825000X0.150000X-0.825000X0.150000X0*%
%TD*%
%TA.AperFunction,SMDPad,CuDef*%
%ADD35RoundRect,0.250000X0.350000X0.450000X-0.350000X0.450000X-0.350000X-0.450000X0.350000X-0.450000X0*%
%TD*%
%TA.AperFunction,SMDPad,CuDef*%
%ADD36RoundRect,0.250000X-0.450000X0.350000X-0.450000X-0.350000X0.450000X-0.350000X0.450000X0.350000X0*%
%TD*%
%TA.AperFunction,SMDPad,CuDef*%
%ADD37RoundRect,0.250000X-0.350000X-0.450000X0.350000X-0.450000X0.350000X0.450000X-0.350000X0.450000X0*%
%TD*%
%TA.AperFunction,SMDPad,CuDef*%
%ADD38RoundRect,0.150000X0.587500X0.150000X-0.587500X0.150000X-0.587500X-0.150000X0.587500X-0.150000X0*%
%TD*%
%TA.AperFunction,SMDPad,CuDef*%
%ADD39R,3.810000X4.240000*%
%TD*%
%TA.AperFunction,SMDPad,CuDef*%
%ADD40RoundRect,0.250000X0.337500X0.475000X-0.337500X0.475000X-0.337500X-0.475000X0.337500X-0.475000X0*%
%TD*%
%TA.AperFunction,SMDPad,CuDef*%
%ADD41RoundRect,0.250000X-0.450000X-0.800000X0.450000X-0.800000X0.450000X0.800000X-0.450000X0.800000X0*%
%TD*%
%TA.AperFunction,ViaPad*%
%ADD42C,0.800000*%
%TD*%
%TA.AperFunction,ViaPad*%
%ADD43C,0.700000*%
%TD*%
%TA.AperFunction,Conductor*%
%ADD44C,1.000000*%
%TD*%
%TA.AperFunction,Conductor*%
%ADD45C,0.600000*%
%TD*%
%TA.AperFunction,Conductor*%
%ADD46C,0.400000*%
%TD*%
%TA.AperFunction,Conductor*%
%ADD47C,1.200000*%
%TD*%
%TA.AperFunction,Conductor*%
%ADD48C,1.500000*%
%TD*%
%TA.AperFunction,Conductor*%
%ADD49C,2.000000*%
%TD*%
%TA.AperFunction,Conductor*%
%ADD50C,0.700000*%
%TD*%
%TA.AperFunction,Conductor*%
%ADD51C,3.500000*%
%TD*%
G04 APERTURE END LIST*
%TO.N,+VIN*%
D10*
X163937500Y-94900000D02*
X167837500Y-94900000D01*
X167837500Y-105100000D01*
X163937500Y-105100000D01*
X163937500Y-94900000D01*
%TA.AperFunction,Conductor*%
G36*
X163937500Y-94900000D02*
G01*
X167837500Y-94900000D01*
X167837500Y-105100000D01*
X163937500Y-105100000D01*
X163937500Y-94900000D01*
G37*
%TD.AperFunction*%
%TO.N,GND*%
X155200000Y-53600000D02*
X158300000Y-53600000D01*
X158300000Y-56800000D01*
X155200000Y-56800000D01*
X155200000Y-53600000D01*
%TA.AperFunction,Conductor*%
G36*
X155200000Y-53600000D02*
G01*
X158300000Y-53600000D01*
X158300000Y-56800000D01*
X155200000Y-56800000D01*
X155200000Y-53600000D01*
G37*
%TD.AperFunction*%
%TO.N,+5V*%
X143660000Y-79010000D02*
X145570000Y-79370000D01*
X143430000Y-81290000D01*
X141110000Y-78960000D01*
X143660000Y-79010000D01*
%TA.AperFunction,Conductor*%
G36*
X143660000Y-79010000D02*
G01*
X145570000Y-79370000D01*
X143430000Y-81290000D01*
X141110000Y-78960000D01*
X143660000Y-79010000D01*
G37*
%TD.AperFunction*%
%TO.N,Net-(C7-Pad1)*%
X163937500Y-85500000D02*
X168037500Y-85500000D01*
X168037500Y-92900000D01*
X163937500Y-92900000D01*
X163937500Y-85500000D01*
%TA.AperFunction,Conductor*%
G36*
X163937500Y-85500000D02*
G01*
X168037500Y-85500000D01*
X168037500Y-92900000D01*
X163937500Y-92900000D01*
X163937500Y-85500000D01*
G37*
%TD.AperFunction*%
%TD*%
D11*
%TO.P,U5-O1,1,OUT*%
%TO.N,IO6-IR*%
X174690000Y-67580000D03*
D12*
%TO.P,U5-O1,2,GND*%
%TO.N,GND*%
X174690000Y-65040000D03*
%TO.P,U5-O1,3,Vs*%
%TO.N,+3.3V*%
X174690000Y-62500000D03*
%TD*%
D13*
%TO.P,U1,28,GND*%
%TO.N,GND*%
X156360000Y-54000000D03*
%TO.P,U1,29,GND*%
X157460000Y-54000000D03*
%TO.P,U1,30,GND*%
X155810000Y-54550000D03*
%TO.P,U1,31,GND*%
X156910000Y-54550000D03*
%TO.P,U1,32,GND*%
X158010000Y-54550000D03*
%TO.P,U1,33,GND*%
X156360000Y-55100000D03*
%TO.P,U1,34,GND*%
X157460000Y-55100000D03*
%TO.P,U1,35,GND*%
X155810000Y-55650000D03*
%TO.P,U1,36,GND*%
X156910000Y-55650000D03*
%TO.P,U1,37,GND*%
X158010000Y-55650000D03*
%TO.P,U1,38,GND*%
X156360000Y-56200000D03*
%TO.P,U1,39,GND*%
X157460000Y-56200000D03*
%TD*%
D14*
%TO.P,K1,13*%
%TO.N,VIN_relay*%
X153280000Y-95030000D03*
%TO.P,K1,14*%
%TO.N,VIN_Fused*%
X160280000Y-95030000D03*
%TO.P,K1,A1*%
%TO.N,+5V*%
X141780000Y-95030000D03*
D15*
%TO.P,K1,A2*%
%TO.N,Net-(D3-A)*%
X141780000Y-90330000D03*
%TD*%
D16*
%TO.P,J1,1,Pin_1*%
%TO.N,CLK-5V*%
X142597500Y-102400000D03*
D17*
%TO.P,J1,2,Pin_2*%
%TO.N,DATA-5V*%
X147677500Y-102400000D03*
%TO.P,J1,3,Pin_3*%
%TO.N,GND*%
X152757500Y-102400000D03*
%TO.P,J1,4,Pin_4*%
%TO.N,VIN_relay*%
X157837500Y-102400000D03*
%TD*%
D18*
%TO.P,U4-O1,1,GND*%
%TO.N,GND*%
X138730000Y-83600000D03*
D19*
%TO.P,U4-O1,2,DQ*%
%TO.N,IO04-Temperature*%
X140000000Y-83600000D03*
%TO.P,U4-O1,3,V_{DD}*%
%TO.N,+3.3V*%
X141270000Y-83600000D03*
%TD*%
D20*
%TO.P,J3,S1,SHIELD*%
%TO.N,GND*%
X172820000Y-58120000D03*
D21*
X177000000Y-58120000D03*
D20*
X172820000Y-49480000D03*
D21*
X177000000Y-49480000D03*
%TD*%
D16*
%TO.P,J2,1,Pin_1*%
%TO.N,+VIN*%
X165937500Y-102400000D03*
D17*
%TO.P,J2,2,Pin_2*%
%TO.N,GND*%
X171017500Y-102400000D03*
%TD*%
D22*
%TO.P,C7,1*%
%TO.N,Net-(C7-Pad1)*%
X170070000Y-91700000D03*
D23*
%TO.P,C7,2*%
%TO.N,GND*%
X175070000Y-91700000D03*
%TD*%
D24*
%TO.P,J3-O1,1,Pin_1*%
%TO.N,Net-(J3-O1-Pin_1)*%
X170550000Y-74350000D03*
D25*
%TO.P,J3-O1,2,Pin_2*%
%TO.N,GND*%
X170550000Y-71850000D03*
%TD*%
D26*
%TO.P,TP18,1,1*%
%TO.N,GND*%
X150810000Y-75830000D03*
%TD*%
D27*
%TO.P,C17,1*%
%TO.N,IO01-Current*%
X169507500Y-77725000D03*
%TO.P,C17,2*%
%TO.N,GND*%
X169507500Y-79800000D03*
%TD*%
D28*
%TO.P,D4,1,K*%
%TO.N,+5V*%
X148070000Y-68800000D03*
%TO.P,D4,2,A*%
%TO.N,GND*%
X148070000Y-73200000D03*
%TD*%
D29*
%TO.P,D9,1,K*%
%TO.N,CLK-5V*%
X144300000Y-99000000D03*
%TO.P,D9,2,A*%
%TO.N,GND*%
X139900000Y-99000000D03*
%TD*%
D26*
%TO.P,TP13,1,1*%
%TO.N,IO03-CLK-3.3V*%
X156900707Y-85119293D03*
%TD*%
%TO.P,TP1,1,1*%
%TO.N,IO01-Current*%
X176400000Y-79200000D03*
%TD*%
D30*
%TO.P,D7,1,K*%
%TO.N,+5V*%
X148700000Y-66000000D03*
%TO.P,D7,2,A*%
%TO.N,Net-(D5-A)*%
X153700000Y-66000000D03*
%TD*%
D31*
%TO.P,R12,1*%
%TO.N,Net-(C7-Pad1)*%
X175500000Y-88600000D03*
%TO.P,R12,2*%
%TO.N,IO00-Voltage*%
X175500000Y-86600000D03*
%TD*%
%TO.P,R15,1*%
%TO.N,Net-(U4-VIOUT)*%
X173837500Y-79800000D03*
%TO.P,R15,2*%
%TO.N,IO01-Current*%
X173837500Y-77800000D03*
%TD*%
D26*
%TO.P,TP5,1,1*%
%TO.N,IO07-Button*%
X165600000Y-72900000D03*
%TD*%
D29*
%TO.P,D6,1,K*%
%TO.N,+3.3V*%
X170787500Y-66520000D03*
%TO.P,D6,2,A*%
%TO.N,GND*%
X166387500Y-66520000D03*
%TD*%
D32*
%TO.P,D3,1,K*%
%TO.N,+5V*%
X144130000Y-95090000D03*
%TO.P,D3,2,A*%
%TO.N,Net-(D3-A)*%
X144130000Y-91790000D03*
%TD*%
D33*
%TO.P,C1,1*%
%TO.N,GND*%
X141825000Y-45800000D03*
%TO.P,C1,2*%
%TO.N,+3.3V*%
X143900000Y-45800000D03*
%TD*%
D31*
%TO.P,R8,1*%
%TO.N,+3.3V*%
X168000000Y-53900000D03*
%TO.P,R8,2*%
%TO.N,IO02-Data-3.3V*%
X168000000Y-51900000D03*
%TD*%
D26*
%TO.P,TP20,1,1*%
%TO.N,VIN_relay*%
X153270000Y-92030000D03*
%TD*%
D34*
%TO.P,U4,1,IP+*%
%TO.N,Net-(C7-Pad1)*%
X166600000Y-87110000D03*
%TO.P,U4,2,IP+*%
X166600000Y-85840000D03*
%TO.P,U4,3,IP-*%
%TO.N,VIN_Fused*%
X166600000Y-84570000D03*
%TO.P,U4,4,IP-*%
X166600000Y-83300000D03*
%TO.P,U4,5,GND*%
%TO.N,GND*%
X171550000Y-83300000D03*
%TO.P,U4,6,BW_SEL*%
%TO.N,+3.3V*%
X171550000Y-84570000D03*
%TO.P,U4,7,VIOUT*%
%TO.N,Net-(U4-VIOUT)*%
X171550000Y-85840000D03*
%TO.P,U4,8,VCC*%
%TO.N,+3.3V*%
X171550000Y-87110000D03*
%TD*%
D35*
%TO.P,R10-O1,1*%
%TO.N,+3.3V*%
X141300000Y-85500000D03*
%TO.P,R10-O1,2*%
%TO.N,IO04-Temperature*%
X139300000Y-85500000D03*
%TD*%
D36*
%TO.P,R16,1*%
%TO.N,IO01-Current*%
X171707500Y-77800000D03*
%TO.P,R16,2*%
%TO.N,GND*%
X171707500Y-79800000D03*
%TD*%
D26*
%TO.P,TP15,1,1*%
%TO.N,TX*%
X165120000Y-59780000D03*
%TD*%
D33*
%TO.P,C16,1*%
%TO.N,IO00-Voltage*%
X175525000Y-82700000D03*
%TO.P,C16,2*%
%TO.N,GND*%
X177600000Y-82700000D03*
%TD*%
D37*
%TO.P,R13,1*%
%TO.N,IO00-Voltage*%
X175525000Y-84800000D03*
%TO.P,R13,2*%
%TO.N,GND*%
X177525000Y-84800000D03*
%TD*%
D26*
%TO.P,TP9,1,1*%
%TO.N,IO9-boot*%
X151460000Y-61240000D03*
%TD*%
D38*
%TO.P,Q1,1,G*%
%TO.N,IO05-Relay*%
X146937500Y-88250000D03*
%TO.P,Q1,2,S*%
%TO.N,GND*%
X146937500Y-90150000D03*
%TO.P,Q1,3,D*%
%TO.N,Net-(D3-A)*%
X145062500Y-89200000D03*
%TD*%
D27*
%TO.P,C8,1*%
%TO.N,+5V*%
X150670000Y-69800000D03*
%TO.P,C8,2*%
%TO.N,GND*%
X150670000Y-71875000D03*
%TD*%
D31*
%TO.P,R5,1*%
%TO.N,DATA-5V*%
X149120000Y-97830000D03*
%TO.P,R5,2*%
%TO.N,Net-(R5-Pad2)*%
X149120000Y-95830000D03*
%TD*%
D39*
%TO.P,F1,1*%
%TO.N,+VIN*%
X165937500Y-97000000D03*
%TO.P,F1,2*%
%TO.N,Net-(C7-Pad1)*%
X165937500Y-90630000D03*
%TD*%
D36*
%TO.P,R12-O1,1*%
%TO.N,IO07-Button*%
X168100000Y-72400000D03*
%TO.P,R12-O1,2*%
%TO.N,Net-(J3-O1-Pin_1)*%
X168100000Y-74400000D03*
%TD*%
D35*
%TO.P,R2,1*%
%TO.N,GND*%
X176540000Y-55050000D03*
%TO.P,R2,2*%
%TO.N,Net-(J3-CC1)*%
X174540000Y-55050000D03*
%TD*%
D26*
%TO.P,TP19,1,1*%
%TO.N,VIN_Fused*%
X160200000Y-80860000D03*
%TD*%
D33*
%TO.P,C10,1*%
%TO.N,+3.3V*%
X141115000Y-58250000D03*
%TO.P,C10,2*%
%TO.N,GND*%
X143190000Y-58250000D03*
%TD*%
D26*
%TO.P,TP3,1,1*%
%TO.N,IO02-Data-3.3V*%
X160400000Y-55800000D03*
%TD*%
D36*
%TO.P,R9,1*%
%TO.N,IO05-Relay*%
X149100000Y-88200000D03*
%TO.P,R9,2*%
%TO.N,GND*%
X149100000Y-90200000D03*
%TD*%
D27*
%TO.P,C12,1*%
%TO.N,VIN_relay*%
X157837500Y-105000000D03*
%TO.P,C12,2*%
%TO.N,GND*%
X157837500Y-107075000D03*
%TD*%
D35*
%TO.P,R10,1*%
%TO.N,GND*%
X176580000Y-52520000D03*
%TO.P,R10,2*%
%TO.N,Net-(J3-CC2)*%
X174580000Y-52520000D03*
%TD*%
D26*
%TO.P,TP6,1,1*%
%TO.N,RX*%
X170000000Y-63200000D03*
%TD*%
%TO.P,TP17,1,1*%
%TO.N,+5V*%
X139030000Y-95030000D03*
%TD*%
%TO.P,TP14,1,1*%
%TO.N,IO05-Relay*%
X146850000Y-83780000D03*
%TD*%
D30*
%TO.P,D8,1,K*%
%TO.N,+5V*%
X153600000Y-50200000D03*
%TO.P,D8,2,A*%
%TO.N,USB_5V*%
X158600000Y-50200000D03*
%TD*%
D26*
%TO.P,TP8,1,1*%
%TO.N,IO8*%
X150340000Y-57880000D03*
%TD*%
D36*
%TO.P,R4,1*%
%TO.N,Net-(R4-Pad1)*%
X146820000Y-95840000D03*
%TO.P,R4,2*%
%TO.N,CLK-5V*%
X146820000Y-97840000D03*
%TD*%
D40*
%TO.P,C13-O1,1*%
%TO.N,IO07-Button*%
X166675000Y-70400000D03*
%TO.P,C13-O1,2*%
%TO.N,GND*%
X164600000Y-70400000D03*
%TD*%
D41*
%TO.P,D10,1,K*%
%TO.N,DATA-5V*%
X147700000Y-105900000D03*
%TO.P,D10,2,A*%
%TO.N,GND*%
X152100000Y-105900000D03*
%TD*%
D26*
%TO.P,TP10,1,1*%
%TO.N,IO10*%
X166910000Y-63380000D03*
%TD*%
%TO.P,TP4,1,1*%
%TO.N,IO04-Temperature*%
X138720000Y-88970000D03*
%TD*%
D33*
%TO.P,C2,1*%
%TO.N,GND*%
X141825000Y-47800000D03*
%TO.P,C2,2*%
%TO.N,+3.3V*%
X143900000Y-47800000D03*
%TD*%
D42*
%TO.N,GND*%
X157820000Y-58330000D03*
X161700000Y-99900000D03*
X155900000Y-52700000D03*
X164390000Y-67230000D03*
X155900000Y-82200000D03*
X172750000Y-59290000D03*
X145000000Y-83100000D03*
X171300000Y-89800000D03*
X146000000Y-107900000D03*
X151660000Y-90680000D03*
X177540000Y-53750000D03*
X172050000Y-93200000D03*
X142400000Y-88200000D03*
X143820000Y-77580000D03*
X143900000Y-61990000D03*
X156300000Y-64000000D03*
X165450000Y-66860000D03*
X169100000Y-87700000D03*
X176200000Y-59400000D03*
X151390000Y-48550000D03*
X171759646Y-107630000D03*
X148280000Y-75130000D03*
X136920000Y-47660000D03*
X170600000Y-94400000D03*
X177900000Y-71600000D03*
X172674823Y-107464607D03*
X177400000Y-57000000D03*
X177800000Y-74600000D03*
X148400000Y-62200000D03*
X175000000Y-69500000D03*
X164210000Y-68760000D03*
X156000000Y-91800000D03*
X177400000Y-88200000D03*
X174144823Y-106444607D03*
X137310000Y-84090000D03*
X157200000Y-67600000D03*
X155920000Y-77840000D03*
X158760000Y-78070000D03*
X144200000Y-86400000D03*
X177700000Y-97900000D03*
X137600000Y-91400000D03*
X163100000Y-93900000D03*
X170800000Y-107600000D03*
X177500000Y-86600000D03*
X147460000Y-76860000D03*
X169084823Y-106994607D03*
X153230000Y-77600000D03*
X153000000Y-53500000D03*
X177300000Y-50600000D03*
X177600000Y-81100000D03*
X136920000Y-49740000D03*
X173474823Y-107024607D03*
X169800000Y-70100000D03*
X142810000Y-60660000D03*
X161720000Y-77510000D03*
X137210000Y-45540000D03*
X161800000Y-79000000D03*
X152630000Y-89670000D03*
X168414823Y-106414607D03*
X155940000Y-81200000D03*
X176800000Y-101600000D03*
X166400000Y-75000000D03*
X177200000Y-48200000D03*
X169884823Y-107434607D03*
X137620000Y-92430000D03*
X140600000Y-48200000D03*
X137340000Y-86180000D03*
X146000000Y-91600000D03*
X175900000Y-48200000D03*
X144300000Y-60750000D03*
X141200000Y-73600000D03*
X147800000Y-85700000D03*
X151230000Y-81740000D03*
X171100000Y-97900000D03*
X175500000Y-100100000D03*
X147800000Y-63300000D03*
X177800000Y-108000000D03*
X156700000Y-94000000D03*
X161340000Y-74860000D03*
X172584823Y-105034607D03*
X145400000Y-93400000D03*
X157200000Y-88400000D03*
X169584823Y-105034607D03*
X150600000Y-99500000D03*
X149400000Y-63800000D03*
X169900000Y-89100000D03*
X142400000Y-107800000D03*
X171390000Y-82400000D03*
X166300000Y-76700000D03*
X170510000Y-49950000D03*
X170040000Y-83100000D03*
X137330000Y-82030000D03*
X174400000Y-98100000D03*
X143800000Y-76200000D03*
X141900000Y-92600000D03*
X176900000Y-60400000D03*
D43*
%TO.N,+3.3V*%
X142000000Y-52920000D03*
D42*
X172500000Y-88330000D03*
X171700000Y-69100000D03*
X145710000Y-47370648D03*
D43*
X140930000Y-68930000D03*
%TO.N,+5V*%
X143500000Y-81590000D03*
D42*
X145500000Y-66900000D03*
X153327035Y-80586317D03*
X149960000Y-79770000D03*
%TO.N,Net-(D5-A)*%
X152500000Y-66000000D03*
X153400000Y-66000000D03*
X154200000Y-66000000D03*
%TO.N,VIN_Fused*%
X162450000Y-86570000D03*
%TO.N,IO00-Voltage*%
X172600000Y-81300000D03*
D43*
X161300000Y-50900000D03*
D42*
X175525000Y-81325000D03*
%TO.N,IO01-Current*%
X175520000Y-60800000D03*
%TO.N,Net-(R4-Pad1)*%
X150500000Y-92170000D03*
%TO.N,Net-(R5-Pad2)*%
X149120000Y-94060000D03*
%TO.N,USB_5V*%
X170450000Y-56250000D03*
X169730000Y-51300000D03*
%TO.N,Net-(J3-CC2)*%
X173570000Y-52520000D03*
%TO.N,Net-(J3-CC1)*%
X173510000Y-55050000D03*
%TO.N,IO05-Relay*%
X144100000Y-51900000D03*
%TO.N,IO8*%
X148590000Y-57900000D03*
%TO.N,IO9-boot*%
X149290000Y-60090000D03*
%TO.N,IO02-Data-3.3V*%
X150500000Y-88390000D03*
D43*
X159400000Y-58700000D03*
D42*
X166300000Y-51900000D03*
%TO.N,IO04-Temperature*%
X150200000Y-50400000D03*
%TO.N,RX*%
X167650000Y-59410000D03*
%TO.N,IO07-Button*%
X168800000Y-68600000D03*
%TO.N,IO10*%
X166900000Y-60900000D03*
%TO.N,IO03-CLK-3.3V*%
X153770000Y-88610000D03*
D43*
X161200000Y-58900000D03*
D42*
%TO.N,TX*%
X167070000Y-57900000D03*
%TD*%
D44*
%TO.N,GND*%
X149050000Y-90150000D02*
X149100000Y-90200000D01*
X146937500Y-90150000D02*
X149050000Y-90150000D01*
D45*
X171817500Y-83300000D02*
X171812500Y-83295000D01*
D44*
X171707500Y-79800000D02*
X169582500Y-79800000D01*
X169582500Y-79500000D02*
X169507500Y-79575000D01*
D46*
%TO.N,+3.3V*%
X169780000Y-85120000D02*
X170330000Y-84570000D01*
D47*
X145710000Y-47310000D02*
X145110000Y-46710000D01*
D44*
X173800000Y-62500000D02*
X168000000Y-56700000D01*
D46*
X172500000Y-88060000D02*
X171550000Y-87110000D01*
D48*
X140930000Y-53990000D02*
X142000000Y-52920000D01*
D46*
X172500000Y-88330000D02*
X172500000Y-88060000D01*
D44*
X174690000Y-62500000D02*
X173800000Y-62500000D01*
X170787500Y-65912500D02*
X174200000Y-62500000D01*
D48*
X140930000Y-68930000D02*
X140930000Y-53990000D01*
D44*
X168000000Y-56700000D02*
X168000000Y-53900000D01*
D46*
X169780000Y-86610000D02*
X169780000Y-85120000D01*
D44*
X143900000Y-45800000D02*
X143900000Y-46710000D01*
D48*
X171700000Y-69100000D02*
X170787500Y-68187500D01*
D44*
X174200000Y-62500000D02*
X174690000Y-62500000D01*
D46*
X170280000Y-87110000D02*
X169780000Y-86610000D01*
D44*
X170787500Y-66520000D02*
X170787500Y-65912500D01*
D46*
X170330000Y-84570000D02*
X171550000Y-84570000D01*
D47*
X145710000Y-47370648D02*
X145710000Y-47310000D01*
D44*
X141270000Y-85430000D02*
X141270000Y-83600000D01*
D47*
X145110000Y-46710000D02*
X143900000Y-46710000D01*
D46*
X171550000Y-87110000D02*
X170280000Y-87110000D01*
D44*
X143900000Y-46710000D02*
X143900000Y-47800000D01*
D48*
X170787500Y-68187500D02*
X170787500Y-66520000D01*
D44*
X141200000Y-85500000D02*
X141270000Y-85430000D01*
D48*
%TO.N,+5V*%
X145500000Y-67780000D02*
X145500000Y-71580000D01*
X148070000Y-68800000D02*
X146520000Y-68800000D01*
D44*
X149960000Y-79770000D02*
X145320000Y-79770000D01*
X143500000Y-81590000D02*
X143500000Y-79650000D01*
D48*
X145500000Y-67780000D02*
X145500000Y-66900000D01*
X148070000Y-68800000D02*
X149670000Y-68800000D01*
D44*
X145320000Y-79770000D02*
X143500000Y-81590000D01*
D48*
X148700000Y-66000000D02*
X145500000Y-66000000D01*
X142720000Y-79640000D02*
X143510000Y-79640000D01*
X145500000Y-66000000D02*
X145500000Y-63690811D01*
X147000000Y-56800000D02*
X153600000Y-50200000D01*
X145500000Y-63690811D02*
X147000000Y-62190811D01*
X146520000Y-68800000D02*
X145500000Y-67780000D01*
D49*
X141780000Y-95030000D02*
X139030000Y-95030000D01*
D48*
X145500000Y-71580000D02*
X141500000Y-75580000D01*
D50*
X153327035Y-80586317D02*
X152510718Y-79770000D01*
D48*
X141500000Y-78420000D02*
X142720000Y-79640000D01*
X145500000Y-66900000D02*
X145500000Y-66000000D01*
X149670000Y-68800000D02*
X150670000Y-69800000D01*
X147000000Y-62190811D02*
X147000000Y-56800000D01*
D49*
X141780000Y-95030000D02*
X144070000Y-95030000D01*
D48*
X141500000Y-75580000D02*
X141500000Y-78420000D01*
D50*
X152510718Y-79770000D02*
X149960000Y-79770000D01*
D49*
%TO.N,VIN_Fused*%
X160200000Y-80860000D02*
X162635000Y-83295000D01*
D51*
X160280000Y-95030000D02*
X160280000Y-85480000D01*
X162465000Y-83295000D02*
X166862500Y-83295000D01*
D48*
X162450000Y-86570000D02*
X162160862Y-86280862D01*
D51*
X160280000Y-85480000D02*
X162465000Y-83295000D01*
D50*
%TO.N,Net-(C7-Pad1)*%
X174945000Y-88600000D02*
X171845000Y-91700000D01*
X175500000Y-88600000D02*
X174945000Y-88600000D01*
D48*
X167007500Y-91700000D02*
X165937500Y-90630000D01*
D50*
X171845000Y-91700000D02*
X170070000Y-91700000D01*
D48*
X170070000Y-91700000D02*
X167007500Y-91700000D01*
D51*
%TO.N,VIN_relay*%
X153280000Y-95030000D02*
X153280000Y-96240000D01*
D48*
X157837500Y-105000000D02*
X157837500Y-102400000D01*
D51*
X153280000Y-96240000D02*
X157837500Y-100797500D01*
D48*
X153270000Y-95020000D02*
X153280000Y-95030000D01*
X153270000Y-92030000D02*
X153270000Y-95020000D01*
D51*
X157837500Y-100797500D02*
X157837500Y-102400000D01*
D48*
%TO.N,Net-(D3-A)*%
X143932500Y-90330000D02*
X145062500Y-89200000D01*
X141780000Y-90330000D02*
X143932500Y-90330000D01*
X144130000Y-90527500D02*
X144130000Y-91790000D01*
D44*
%TO.N,Net-(J3-O1-Pin_1)*%
X168100000Y-74400000D02*
X170500000Y-74400000D01*
%TO.N,IO00-Voltage*%
X175525000Y-82700000D02*
X175525000Y-81325000D01*
X162700000Y-52300000D02*
X161300000Y-50900000D01*
X175500000Y-86600000D02*
X175500000Y-84825000D01*
X172600000Y-81300000D02*
X168300000Y-81300000D01*
X175525000Y-84800000D02*
X175525000Y-82700000D01*
X168300000Y-81300000D02*
X162700000Y-75700000D01*
X162700000Y-75700000D02*
X162700000Y-52300000D01*
%TO.N,IO01-Current*%
X169507500Y-77800000D02*
X173837500Y-77800000D01*
X175000000Y-77800000D02*
X173837500Y-77800000D01*
X176400000Y-76100000D02*
X176400000Y-79200000D01*
X176400000Y-61680000D02*
X176400000Y-76100000D01*
X175520000Y-60800000D02*
X176400000Y-61680000D01*
X176400000Y-76400000D02*
X175000000Y-77800000D01*
%TO.N,Net-(R4-Pad1)*%
X146820000Y-93270000D02*
X146820000Y-95840000D01*
X150500000Y-92170000D02*
X147920000Y-92170000D01*
X147920000Y-92170000D02*
X146820000Y-93270000D01*
%TO.N,DATA-5V*%
X149120000Y-100957500D02*
X147677500Y-102400000D01*
X149120000Y-97830000D02*
X149120000Y-100957500D01*
X147700000Y-105900000D02*
X147700000Y-102422500D01*
%TO.N,CLK-5V*%
X146820000Y-97840000D02*
X145250000Y-97840000D01*
X142597500Y-100492500D02*
X142597500Y-102400000D01*
X145250000Y-97840000D02*
X142597500Y-100492500D01*
%TO.N,Net-(R5-Pad2)*%
X149120000Y-95830000D02*
X149120000Y-94060000D01*
%TO.N,USB_5V*%
X169700000Y-51330000D02*
X169730000Y-51300000D01*
X169730000Y-51300000D02*
X169730000Y-50930000D01*
X169730000Y-50930000D02*
X168100000Y-49300000D01*
X170450000Y-56250000D02*
X169700000Y-55500000D01*
X168100000Y-49300000D02*
X159500000Y-49300000D01*
X159500000Y-49300000D02*
X158600000Y-50200000D01*
X169700000Y-55500000D02*
X169700000Y-51330000D01*
%TO.N,Net-(J3-CC2)*%
X174580000Y-52520000D02*
X173570000Y-52520000D01*
%TO.N,Net-(J3-CC1)*%
X173510000Y-55050000D02*
X174540000Y-55050000D01*
%TO.N,IO05-Relay*%
X147900000Y-87760000D02*
X147900000Y-88190000D01*
X145375000Y-85235000D02*
X147900000Y-87760000D01*
X139200000Y-79060000D02*
X145375000Y-85235000D01*
X144100000Y-51900000D02*
X143300000Y-51100000D01*
X146850000Y-83780000D02*
X145395000Y-85235000D01*
X149050000Y-88250000D02*
X149100000Y-88200000D01*
X148200000Y-88250000D02*
X149050000Y-88250000D01*
X146937500Y-88250000D02*
X148200000Y-88250000D01*
X143300000Y-51100000D02*
X141260000Y-51100000D01*
X139200000Y-53160000D02*
X139200000Y-79060000D01*
X141260000Y-51100000D02*
X139200000Y-53160000D01*
X145395000Y-85235000D02*
X145375000Y-85235000D01*
D50*
%TO.N,IO8*%
X150320000Y-57900000D02*
X150340000Y-57880000D01*
X148590000Y-57900000D02*
X150320000Y-57900000D01*
%TO.N,IO9-boot*%
X150440000Y-61240000D02*
X151460000Y-61240000D01*
X149290000Y-60090000D02*
X150440000Y-61240000D01*
D44*
%TO.N,IO02-Data-3.3V*%
X159400000Y-56800000D02*
X160400000Y-55800000D01*
X151250000Y-85690000D02*
X151250000Y-87640000D01*
X154450000Y-75650000D02*
X154450000Y-82490000D01*
X159400000Y-58700000D02*
X159400000Y-70700000D01*
X159400000Y-70700000D02*
X154450000Y-75650000D01*
X166300000Y-51900000D02*
X168000000Y-51900000D01*
X154450000Y-82490000D02*
X151250000Y-85690000D01*
X159400000Y-58700000D02*
X159400000Y-56800000D01*
X151250000Y-87640000D02*
X150500000Y-88390000D01*
%TO.N,IO04-Temperature*%
X140300000Y-49600000D02*
X137673000Y-52227000D01*
X140000000Y-84800000D02*
X140000000Y-83600000D01*
X138720000Y-86080000D02*
X138720000Y-88970000D01*
X150200000Y-50400000D02*
X149400000Y-49600000D01*
X139300000Y-85500000D02*
X140000000Y-84800000D01*
X137673000Y-52227000D02*
X137673000Y-79473000D01*
X137673000Y-79473000D02*
X140000000Y-81800000D01*
X149400000Y-49600000D02*
X140300000Y-49600000D01*
X139300000Y-85500000D02*
X138720000Y-86080000D01*
X140000000Y-81800000D02*
X140000000Y-83600000D01*
D45*
%TO.N,Net-(U4-VIOUT)*%
X173202500Y-85835000D02*
X173837500Y-85200000D01*
X171812500Y-85835000D02*
X173202500Y-85835000D01*
X173837500Y-85200000D02*
X173837500Y-79500000D01*
D44*
%TO.N,RX*%
X167650000Y-59410000D02*
X170000000Y-61760000D01*
X170000000Y-61760000D02*
X170000000Y-63200000D01*
%TO.N,IO07-Button*%
X165600000Y-72900000D02*
X166100000Y-72400000D01*
X168100000Y-69500000D02*
X168100000Y-69300000D01*
X168100000Y-72400000D02*
X168100000Y-70400000D01*
X166100000Y-72400000D02*
X168100000Y-72400000D01*
X166675000Y-70400000D02*
X168100000Y-70400000D01*
X168100000Y-70400000D02*
X168100000Y-69500000D01*
X168100000Y-69300000D02*
X168800000Y-68600000D01*
%TO.N,IO10*%
X166900000Y-60900000D02*
X166900000Y-63370000D01*
X166900000Y-63370000D02*
X166910000Y-63380000D01*
%TO.N,IO03-CLK-3.3V*%
X153800000Y-88610000D02*
X157410000Y-85000000D01*
X153770000Y-88610000D02*
X153800000Y-88610000D01*
X157410000Y-75390000D02*
X161200000Y-71600000D01*
X157410000Y-85000000D02*
X157410000Y-75390000D01*
X161200000Y-71600000D02*
X161200000Y-58900000D01*
%TO.N,TX*%
X165190000Y-59780000D02*
X167070000Y-57900000D01*
X165120000Y-59780000D02*
X165190000Y-59780000D01*
%TD*%
%TA.AperFunction,Conductor*%
%TO.N,GND*%
G36*
X143116456Y-44509685D02*
G01*
X143162211Y-44562489D01*
X143172155Y-44631647D01*
X143143130Y-44695203D01*
X143114514Y-44719538D01*
X143093847Y-44732285D01*
X143093843Y-44732288D01*
X142969789Y-44856342D01*
X142877687Y-45005663D01*
X142877686Y-45005666D01*
X142822501Y-45172203D01*
X142822501Y-45172204D01*
X142822500Y-45172204D01*
X142812000Y-45274983D01*
X142812000Y-46325001D01*
X142812001Y-46325019D01*
X142823189Y-46434532D01*
X142822472Y-46434605D01*
X142823476Y-46472004D01*
X142815879Y-46519974D01*
X142799500Y-46623389D01*
X142799500Y-46623393D01*
X142799500Y-46796610D01*
X142826598Y-46967702D01*
X142845545Y-47026015D01*
X142847540Y-47095856D01*
X142845320Y-47103336D01*
X142822501Y-47172199D01*
X142812000Y-47274983D01*
X142812000Y-48325001D01*
X142812001Y-48325019D01*
X142822500Y-48427796D01*
X142822501Y-48427797D01*
X142825384Y-48436498D01*
X142827784Y-48506326D01*
X142792052Y-48566368D01*
X142729531Y-48597559D01*
X142707677Y-48599500D01*
X142592092Y-48599500D01*
X142525053Y-48579815D01*
X142479298Y-48527011D01*
X142469354Y-48457853D01*
X142480692Y-48421039D01*
X142497088Y-48387500D01*
X141152912Y-48387500D01*
X141169308Y-48421039D01*
X141181068Y-48489912D01*
X141153725Y-48554209D01*
X141095961Y-48593517D01*
X141057908Y-48599500D01*
X140201455Y-48599500D01*
X140104812Y-48618724D01*
X140008167Y-48637947D01*
X140008161Y-48637949D01*
X139954834Y-48660037D01*
X139954834Y-48660038D01*
X139909315Y-48678892D01*
X139826089Y-48713366D01*
X139826079Y-48713371D01*
X139662219Y-48822859D01*
X139619894Y-48865185D01*
X139522861Y-48962218D01*
X139522858Y-48962221D01*
X137035221Y-51449858D01*
X137035218Y-51449861D01*
X136994619Y-51490460D01*
X136895859Y-51589219D01*
X136786371Y-51753079D01*
X136786364Y-51753092D01*
X136746028Y-51850476D01*
X136730885Y-51887035D01*
X136730885Y-51887036D01*
X136710949Y-51935164D01*
X136710947Y-51935170D01*
X136672500Y-52128456D01*
X136672500Y-79571544D01*
X136710874Y-79764464D01*
X136710948Y-79764831D01*
X136710951Y-79764841D01*
X136786364Y-79946907D01*
X136786371Y-79946920D01*
X136895860Y-80110781D01*
X136895863Y-80110785D01*
X137039537Y-80254459D01*
X137039559Y-80254479D01*
X138963181Y-82178101D01*
X138996666Y-82239424D01*
X138999500Y-82265782D01*
X138999500Y-83136101D01*
X138997117Y-83160292D01*
X138974500Y-83273993D01*
X138974500Y-83314170D01*
X138960255Y-83299925D01*
X138874745Y-83250556D01*
X138779370Y-83225000D01*
X138680630Y-83225000D01*
X138585255Y-83250556D01*
X138499745Y-83299925D01*
X138429925Y-83369745D01*
X138380556Y-83455255D01*
X138355000Y-83550630D01*
X138355000Y-83649370D01*
X138380556Y-83744745D01*
X138429925Y-83830255D01*
X138499745Y-83900075D01*
X138585255Y-83949444D01*
X138680630Y-83975000D01*
X138779370Y-83975000D01*
X138874745Y-83949444D01*
X138960255Y-83900075D01*
X138974500Y-83885830D01*
X138974500Y-83926004D01*
X138984606Y-83976808D01*
X138978379Y-84046399D01*
X138935517Y-84101577D01*
X138869627Y-84124822D01*
X138862989Y-84125000D01*
X138105001Y-84125000D01*
X138105001Y-84359844D01*
X138110802Y-84389018D01*
X138132904Y-84422095D01*
X138165983Y-84444198D01*
X138165984Y-84444199D01*
X138195147Y-84449999D01*
X138216122Y-84449999D01*
X138283163Y-84469681D01*
X138328919Y-84522483D01*
X138338866Y-84591642D01*
X138321666Y-84639095D01*
X138281151Y-84704782D01*
X138265186Y-84730666D01*
X138210001Y-84897203D01*
X138210001Y-84897204D01*
X138210000Y-84897204D01*
X138199500Y-84999983D01*
X138199500Y-85134217D01*
X138179815Y-85201256D01*
X138163181Y-85221898D01*
X138082221Y-85302858D01*
X138082218Y-85302861D01*
X138041602Y-85343477D01*
X137942859Y-85442219D01*
X137833371Y-85606080D01*
X137833366Y-85606089D01*
X137804416Y-85675983D01*
X137757949Y-85788163D01*
X137757947Y-85788171D01*
X137738724Y-85884812D01*
X137719500Y-85981455D01*
X137719500Y-86869797D01*
X137715449Y-86901234D01*
X137506590Y-87698137D01*
X137318440Y-88416026D01*
X137311934Y-88440848D01*
X137305543Y-88459217D01*
X137295938Y-88481115D01*
X137295937Y-88481118D01*
X137234892Y-88722175D01*
X137234890Y-88722187D01*
X137214357Y-88969994D01*
X137214357Y-88970005D01*
X137234890Y-89217812D01*
X137234892Y-89217824D01*
X137295936Y-89458881D01*
X137395826Y-89686606D01*
X137531833Y-89894782D01*
X137531836Y-89894785D01*
X137700256Y-90077738D01*
X137896491Y-90230474D01*
X138115190Y-90348828D01*
X138350386Y-90429571D01*
X138595665Y-90470500D01*
X138844335Y-90470500D01*
X139089614Y-90429571D01*
X139324810Y-90348828D01*
X139543509Y-90230474D01*
X139739744Y-90077738D01*
X139908164Y-89894785D01*
X140044173Y-89686607D01*
X140144063Y-89458881D01*
X140205108Y-89217821D01*
X140207319Y-89191142D01*
X140225643Y-88970005D01*
X140225643Y-88969994D01*
X140205109Y-88722187D01*
X140205107Y-88722175D01*
X140186805Y-88649904D01*
X140144063Y-88481119D01*
X140134455Y-88459216D01*
X140128067Y-88440857D01*
X139731106Y-86926245D01*
X139733151Y-86856408D01*
X139757438Y-86813497D01*
X139867424Y-86686875D01*
X139922032Y-86650488D01*
X139969334Y-86634814D01*
X140118656Y-86542712D01*
X140212319Y-86449049D01*
X140273642Y-86415564D01*
X140343334Y-86420548D01*
X140387681Y-86449049D01*
X140481344Y-86542712D01*
X140630666Y-86634814D01*
X140797203Y-86689999D01*
X140899991Y-86700500D01*
X141700008Y-86700499D01*
X141700016Y-86700498D01*
X141700019Y-86700498D01*
X141756302Y-86694748D01*
X141802797Y-86689999D01*
X141969334Y-86634814D01*
X142118656Y-86542712D01*
X142242712Y-86418656D01*
X142334814Y-86269334D01*
X142389999Y-86102797D01*
X142400500Y-86000009D01*
X142400499Y-84999992D01*
X142389999Y-84897203D01*
X142384961Y-84881999D01*
X142380031Y-84861337D01*
X142351932Y-84673457D01*
X142271863Y-84138093D01*
X142270500Y-84119754D01*
X142270500Y-84063898D01*
X142272883Y-84039706D01*
X142295500Y-83926003D01*
X142295500Y-83869782D01*
X142315185Y-83802743D01*
X142367989Y-83756988D01*
X142437147Y-83747044D01*
X142500703Y-83776069D01*
X142507181Y-83782101D01*
X144741538Y-86016460D01*
X144741560Y-86016480D01*
X146060599Y-87335519D01*
X146094084Y-87396842D01*
X146089100Y-87466534D01*
X146047228Y-87522467D01*
X146036040Y-87529932D01*
X145948135Y-87581919D01*
X145948129Y-87581923D01*
X145831923Y-87698129D01*
X145831917Y-87698137D01*
X145748255Y-87839603D01*
X145748253Y-87839606D01*
X145712524Y-87962588D01*
X145674918Y-88021474D01*
X145611445Y-88050680D01*
X145545999Y-88042555D01*
X145542537Y-88041121D01*
X145542528Y-88041118D01*
X145542526Y-88041117D01*
X145355326Y-87980291D01*
X145355320Y-87980290D01*
X145160921Y-87949500D01*
X145160916Y-87949500D01*
X144964083Y-87949500D01*
X144964078Y-87949500D01*
X144769678Y-87980290D01*
X144769676Y-87980290D01*
X144769673Y-87980291D01*
X144676073Y-88010704D01*
X144582469Y-88041118D01*
X144407093Y-88130477D01*
X144407090Y-88130478D01*
X144287807Y-88217144D01*
X144247854Y-88246172D01*
X144247852Y-88246174D01*
X144247851Y-88246174D01*
X143450845Y-89043181D01*
X143389522Y-89076666D01*
X143363164Y-89079500D01*
X142912487Y-89079500D01*
X142853058Y-89064331D01*
X142847330Y-89061203D01*
X142712482Y-89010908D01*
X142712483Y-89010908D01*
X142652883Y-89004501D01*
X142652881Y-89004500D01*
X142652873Y-89004500D01*
X142652864Y-89004500D01*
X140907129Y-89004500D01*
X140907123Y-89004501D01*
X140847516Y-89010908D01*
X140712671Y-89061202D01*
X140712664Y-89061206D01*
X140597455Y-89147452D01*
X140597452Y-89147455D01*
X140511206Y-89262664D01*
X140511202Y-89262671D01*
X140460908Y-89397517D01*
X140454501Y-89457116D01*
X140454500Y-89457135D01*
X140454500Y-91202870D01*
X140454501Y-91202876D01*
X140460908Y-91262483D01*
X140511202Y-91397328D01*
X140511206Y-91397335D01*
X140597452Y-91512544D01*
X140597455Y-91512547D01*
X140712664Y-91598793D01*
X140712671Y-91598797D01*
X140847517Y-91649091D01*
X140847516Y-91649091D01*
X140854444Y-91649835D01*
X140907127Y-91655500D01*
X142652872Y-91655499D01*
X142712483Y-91649091D01*
X142712485Y-91649090D01*
X142712487Y-91649090D01*
X142720031Y-91647308D01*
X142720342Y-91648624D01*
X142781858Y-91644225D01*
X142843181Y-91677709D01*
X142876666Y-91739032D01*
X142879500Y-91765391D01*
X142879500Y-91888422D01*
X142910290Y-92082826D01*
X142971117Y-92270029D01*
X143060476Y-92445405D01*
X143176172Y-92604646D01*
X143315354Y-92743828D01*
X143474595Y-92859524D01*
X143555799Y-92900899D01*
X143649970Y-92948882D01*
X143649972Y-92948882D01*
X143649975Y-92948884D01*
X143740089Y-92978164D01*
X143837173Y-93009709D01*
X144031578Y-93040500D01*
X144031583Y-93040500D01*
X144228422Y-93040500D01*
X144422826Y-93009709D01*
X144610025Y-92948884D01*
X144785405Y-92859524D01*
X144944646Y-92743828D01*
X145083828Y-92604646D01*
X145199524Y-92445405D01*
X145288884Y-92270025D01*
X145349709Y-92082826D01*
X145358077Y-92029994D01*
X145380500Y-91888422D01*
X145380500Y-90800000D01*
X148405024Y-90800000D01*
X148443808Y-90838784D01*
X148500000Y-90866254D01*
X149700000Y-90866254D01*
X149756191Y-90838784D01*
X149794975Y-90800000D01*
X149700000Y-90800000D01*
X149700000Y-90866254D01*
X148500000Y-90866254D01*
X148500000Y-90800000D01*
X148405024Y-90800000D01*
X145380500Y-90800000D01*
X145380500Y-90701836D01*
X145400185Y-90634797D01*
X145416819Y-90614155D01*
X145580974Y-90450000D01*
X146149554Y-90450000D01*
X146169757Y-90480237D01*
X146169760Y-90480240D01*
X146252455Y-90535494D01*
X146252459Y-90535496D01*
X146325371Y-90549999D01*
X146325374Y-90550000D01*
X146637500Y-90550000D01*
X147237500Y-90550000D01*
X147549626Y-90550000D01*
X147549628Y-90549999D01*
X147622540Y-90535496D01*
X147622544Y-90535494D01*
X147705239Y-90480240D01*
X147705242Y-90480237D01*
X147725446Y-90450000D01*
X147237500Y-90450000D01*
X147237500Y-90550000D01*
X146637500Y-90550000D01*
X146637500Y-90450000D01*
X146149554Y-90450000D01*
X145580974Y-90450000D01*
X145706317Y-90324657D01*
X146016328Y-90014646D01*
X146098814Y-89901113D01*
X146154144Y-89858449D01*
X146199132Y-89850000D01*
X146637500Y-89850000D01*
X147237500Y-89850000D01*
X147725446Y-89850000D01*
X147705242Y-89819762D01*
X147705239Y-89819759D01*
X147622544Y-89764505D01*
X147622540Y-89764503D01*
X147549627Y-89750000D01*
X147237500Y-89750000D01*
X147237500Y-89850000D01*
X146637500Y-89850000D01*
X146637500Y-89750000D01*
X146376339Y-89750000D01*
X146309300Y-89730315D01*
X146263545Y-89677511D01*
X146253601Y-89608353D01*
X146257263Y-89591405D01*
X146297597Y-89452573D01*
X146297598Y-89452567D01*
X146298289Y-89443791D01*
X146300500Y-89415694D01*
X146300500Y-89387097D01*
X146302027Y-89367698D01*
X146313000Y-89298421D01*
X146313000Y-89259836D01*
X146332685Y-89192797D01*
X146385489Y-89147042D01*
X146454647Y-89137098D01*
X146484450Y-89145274D01*
X146645665Y-89212051D01*
X146645669Y-89212051D01*
X146645670Y-89212052D01*
X146838956Y-89250500D01*
X146838959Y-89250500D01*
X147745421Y-89250500D01*
X147770242Y-89253010D01*
X147781328Y-89255275D01*
X147858865Y-89259836D01*
X148459730Y-89295181D01*
X148525496Y-89318768D01*
X148568072Y-89374168D01*
X148573937Y-89443791D01*
X148541230Y-89505533D01*
X148506908Y-89530367D01*
X148443809Y-89561214D01*
X148405024Y-89599999D01*
X148405025Y-89600000D01*
X149794975Y-89600000D01*
X149794975Y-89599999D01*
X149756190Y-89561214D01*
X149676390Y-89522202D01*
X149624808Y-89475074D01*
X149606894Y-89407540D01*
X149628335Y-89341042D01*
X149682324Y-89296692D01*
X149696405Y-89292237D01*
X149696370Y-89292129D01*
X149814422Y-89253010D01*
X149869334Y-89234814D01*
X149869335Y-89234813D01*
X149874768Y-89233013D01*
X149944596Y-89230611D01*
X149982663Y-89247617D01*
X149994124Y-89255275D01*
X150026086Y-89276631D01*
X150208164Y-89352051D01*
X150384352Y-89387097D01*
X150401455Y-89390499D01*
X150401458Y-89390500D01*
X150401460Y-89390500D01*
X150598542Y-89390500D01*
X150598543Y-89390499D01*
X150791836Y-89352051D01*
X150973914Y-89276631D01*
X151137781Y-89167139D01*
X151887778Y-88417141D01*
X151887782Y-88417139D01*
X152027139Y-88277782D01*
X152136632Y-88113914D01*
X152166785Y-88041118D01*
X152195324Y-87972219D01*
X152195324Y-87972218D01*
X152199313Y-87962588D01*
X152212051Y-87931836D01*
X152243032Y-87776086D01*
X152250500Y-87738541D01*
X152250500Y-86155782D01*
X152270185Y-86088743D01*
X152286819Y-86068101D01*
X155227136Y-83127785D01*
X155227139Y-83127782D01*
X155288192Y-83036410D01*
X155336631Y-82963916D01*
X155381657Y-82855215D01*
X155399145Y-82812994D01*
X155412051Y-82781836D01*
X155450500Y-82588541D01*
X155450500Y-82391460D01*
X155450500Y-76115781D01*
X155470185Y-76048742D01*
X155486814Y-76028104D01*
X156197819Y-75317099D01*
X156259142Y-75283615D01*
X156328834Y-75288599D01*
X156384767Y-75330471D01*
X156409184Y-75395935D01*
X156409500Y-75404781D01*
X156409500Y-83087854D01*
X156389911Y-83154745D01*
X155755357Y-84145224D01*
X155742178Y-84162313D01*
X155712544Y-84194505D01*
X155712542Y-84194507D01*
X155576532Y-84402687D01*
X155545565Y-84473284D01*
X155539284Y-84485668D01*
X155536292Y-84490827D01*
X155535343Y-84492645D01*
X155535337Y-84492657D01*
X155520649Y-84529012D01*
X155514073Y-84542782D01*
X155500235Y-84567687D01*
X155500229Y-84567700D01*
X154937990Y-86041775D01*
X154909813Y-86085265D01*
X153231266Y-87763812D01*
X153212477Y-87779233D01*
X153132214Y-87832863D01*
X152992863Y-87972214D01*
X152992860Y-87972218D01*
X152883371Y-88136079D01*
X152883364Y-88136092D01*
X152807950Y-88318160D01*
X152807947Y-88318170D01*
X152769500Y-88511456D01*
X152769500Y-88511459D01*
X152769500Y-88708541D01*
X152769500Y-88708543D01*
X152769499Y-88708543D01*
X152807947Y-88901829D01*
X152807950Y-88901839D01*
X152883364Y-89083907D01*
X152883371Y-89083920D01*
X152992860Y-89247781D01*
X152992863Y-89247785D01*
X153132214Y-89387136D01*
X153132218Y-89387139D01*
X153296079Y-89496628D01*
X153296092Y-89496635D01*
X153452002Y-89561214D01*
X153478165Y-89572051D01*
X153478169Y-89572051D01*
X153478170Y-89572052D01*
X153671456Y-89610500D01*
X153671459Y-89610500D01*
X153898542Y-89610500D01*
X153917870Y-89606655D01*
X153995188Y-89591275D01*
X154091836Y-89572051D01*
X154162666Y-89542712D01*
X154273914Y-89496632D01*
X154437782Y-89387139D01*
X154577139Y-89247782D01*
X154577140Y-89247780D01*
X154584206Y-89240714D01*
X154584209Y-89240710D01*
X156375185Y-87449733D01*
X156392937Y-87435015D01*
X156396145Y-87432822D01*
X156396161Y-87432814D01*
X157716391Y-86385502D01*
X157722531Y-86381078D01*
X157724213Y-86379768D01*
X157724216Y-86379767D01*
X157829339Y-86297946D01*
X157894331Y-86272304D01*
X157962871Y-86285870D01*
X158013196Y-86334338D01*
X158029500Y-86395800D01*
X158029500Y-95177513D01*
X158051437Y-95344131D01*
X158068007Y-95469993D01*
X158132107Y-95709218D01*
X158144361Y-95754951D01*
X158144364Y-95754961D01*
X158257254Y-96027500D01*
X158257258Y-96027510D01*
X158404761Y-96282993D01*
X158584352Y-96517040D01*
X158584358Y-96517047D01*
X158792952Y-96725641D01*
X158792959Y-96725647D01*
X159027006Y-96905238D01*
X159282489Y-97052741D01*
X159282490Y-97052741D01*
X159282493Y-97052743D01*
X159555048Y-97165639D01*
X159840007Y-97241993D01*
X160132494Y-97280500D01*
X160132501Y-97280500D01*
X160427499Y-97280500D01*
X160427506Y-97280500D01*
X160719993Y-97241993D01*
X161004952Y-97165639D01*
X161277507Y-97052743D01*
X161532994Y-96905238D01*
X161767042Y-96725646D01*
X161975646Y-96517042D01*
X162155238Y-96282994D01*
X162302743Y-96027507D01*
X162415639Y-95754952D01*
X162491993Y-95469993D01*
X162530500Y-95177506D01*
X162530500Y-94820943D01*
X163337000Y-94820943D01*
X163337000Y-105179057D01*
X163357689Y-105256267D01*
X163377923Y-105331783D01*
X163377926Y-105331790D01*
X163456975Y-105468709D01*
X163456979Y-105468714D01*
X163456980Y-105468716D01*
X163568784Y-105580520D01*
X163568786Y-105580521D01*
X163568790Y-105580524D01*
X163700960Y-105656831D01*
X163705716Y-105659577D01*
X163858443Y-105700500D01*
X163858445Y-105700500D01*
X167916555Y-105700500D01*
X167916557Y-105700500D01*
X168069284Y-105659577D01*
X168206216Y-105580520D01*
X168318020Y-105468716D01*
X168397077Y-105331784D01*
X168438000Y-105179057D01*
X168438000Y-103440000D01*
X169909811Y-103440000D01*
X169961020Y-103597606D01*
X169961023Y-103597613D01*
X169977499Y-103629948D01*
X169977500Y-103629948D01*
X172057500Y-103629948D01*
X172073976Y-103597613D01*
X172073979Y-103597606D01*
X172125189Y-103440000D01*
X172057500Y-103440000D01*
X172057500Y-103629948D01*
X169977500Y-103629948D01*
X169977500Y-103440000D01*
X169909811Y-103440000D01*
X168438000Y-103440000D01*
X168438000Y-102331056D01*
X170317500Y-102331056D01*
X170317500Y-102468944D01*
X170344401Y-102604182D01*
X170397168Y-102731574D01*
X170473774Y-102846224D01*
X170571276Y-102943726D01*
X170685926Y-103020332D01*
X170813318Y-103073099D01*
X170948556Y-103100000D01*
X171086444Y-103100000D01*
X171221682Y-103073099D01*
X171349074Y-103020332D01*
X171463724Y-102943726D01*
X171561226Y-102846224D01*
X171637832Y-102731574D01*
X171690599Y-102604182D01*
X171717500Y-102468944D01*
X171717500Y-102331056D01*
X171690599Y-102195818D01*
X171637832Y-102068426D01*
X171561226Y-101953776D01*
X171463724Y-101856274D01*
X171349074Y-101779668D01*
X171221682Y-101726901D01*
X171086444Y-101700000D01*
X170948556Y-101700000D01*
X170813318Y-101726901D01*
X170685926Y-101779668D01*
X170571276Y-101856274D01*
X170473774Y-101953776D01*
X170397168Y-102068426D01*
X170344401Y-102195818D01*
X170317500Y-102331056D01*
X168438000Y-102331056D01*
X168438000Y-101359999D01*
X169909811Y-101359999D01*
X169909811Y-101360000D01*
X169977500Y-101360000D01*
X172057500Y-101360000D01*
X172125189Y-101360000D01*
X172125188Y-101359999D01*
X172073977Y-101202389D01*
X172057500Y-101170049D01*
X172057500Y-101360000D01*
X169977500Y-101360000D01*
X169977500Y-101170050D01*
X169977499Y-101170049D01*
X169961022Y-101202389D01*
X169909811Y-101359999D01*
X168438000Y-101359999D01*
X168438000Y-94820943D01*
X168397077Y-94668216D01*
X168367757Y-94617432D01*
X168318024Y-94531290D01*
X168318018Y-94531282D01*
X168206217Y-94419481D01*
X168206209Y-94419475D01*
X168069290Y-94340426D01*
X168069286Y-94340424D01*
X168069284Y-94340423D01*
X167916557Y-94299500D01*
X164016557Y-94299500D01*
X163858443Y-94299500D01*
X163705716Y-94340423D01*
X163705709Y-94340426D01*
X163568790Y-94419475D01*
X163568782Y-94419481D01*
X163456981Y-94531282D01*
X163456975Y-94531290D01*
X163377926Y-94668209D01*
X163377923Y-94668216D01*
X163337000Y-94820943D01*
X162530500Y-94820943D01*
X162530500Y-87929244D01*
X162550185Y-87862205D01*
X162602989Y-87816450D01*
X162635102Y-87806771D01*
X162742826Y-87789709D01*
X162768577Y-87781342D01*
X162930026Y-87728884D01*
X163105405Y-87639524D01*
X163140114Y-87614305D01*
X163205920Y-87590826D01*
X163273974Y-87606651D01*
X163322669Y-87656757D01*
X163337000Y-87714624D01*
X163337000Y-92979057D01*
X163358032Y-93057547D01*
X163377923Y-93131783D01*
X163377926Y-93131790D01*
X163456975Y-93268709D01*
X163456979Y-93268714D01*
X163456980Y-93268716D01*
X163568784Y-93380520D01*
X163568786Y-93380521D01*
X163568790Y-93380524D01*
X163700317Y-93456460D01*
X163705716Y-93459577D01*
X163858443Y-93500500D01*
X163858445Y-93500500D01*
X168116555Y-93500500D01*
X168116557Y-93500500D01*
X168269284Y-93459577D01*
X168406216Y-93380520D01*
X168518020Y-93268716D01*
X168564936Y-93187453D01*
X168615502Y-93139239D01*
X168684109Y-93126015D01*
X168702392Y-93129155D01*
X168940975Y-93188801D01*
X168945053Y-93189559D01*
X168954962Y-93192306D01*
X168954963Y-93192306D01*
X168962513Y-93194090D01*
X168962514Y-93194090D01*
X168962517Y-93194091D01*
X168974199Y-93195347D01*
X168983580Y-93196721D01*
X169001750Y-93200099D01*
X169001754Y-93200099D01*
X169001757Y-93200100D01*
X169001762Y-93200101D01*
X169004570Y-93200447D01*
X169004576Y-93200447D01*
X169004582Y-93200448D01*
X169120205Y-93201372D01*
X169120208Y-93201371D01*
X169120441Y-93201373D01*
X169134896Y-93200499D01*
X171117871Y-93200499D01*
X171117872Y-93200499D01*
X171177483Y-93194091D01*
X171312331Y-93143796D01*
X171427546Y-93057546D01*
X171513796Y-92942331D01*
X171513796Y-92942328D01*
X171519111Y-92935230D01*
X171519822Y-92935762D01*
X171550907Y-92900901D01*
X172084677Y-92524570D01*
X172108661Y-92511362D01*
X172153328Y-92492861D01*
X172247863Y-92453704D01*
X172387162Y-92360627D01*
X172555352Y-92192435D01*
X172563886Y-92184940D01*
X172563768Y-92184800D01*
X172567326Y-92181804D01*
X172567330Y-92181801D01*
X172628722Y-92119074D01*
X172629565Y-92118222D01*
X173113613Y-91634174D01*
X174570000Y-91634174D01*
X174570000Y-91765826D01*
X174604075Y-91892993D01*
X174669901Y-92007007D01*
X174762993Y-92100099D01*
X174877007Y-92165925D01*
X175004174Y-92200000D01*
X175135826Y-92200000D01*
X175262993Y-92165925D01*
X175377007Y-92100099D01*
X175470099Y-92007007D01*
X175535925Y-91892993D01*
X175570000Y-91765826D01*
X175570000Y-91634174D01*
X175535925Y-91507007D01*
X175470099Y-91392993D01*
X175377007Y-91299901D01*
X175262993Y-91234075D01*
X175135826Y-91200000D01*
X175004174Y-91200000D01*
X174877007Y-91234075D01*
X174762993Y-91299901D01*
X174669901Y-91392993D01*
X174604075Y-91507007D01*
X174570000Y-91634174D01*
X173113613Y-91634174D01*
X174839851Y-89907936D01*
X174901172Y-89874453D01*
X174901643Y-89874351D01*
X175706545Y-89703210D01*
X175732334Y-89700499D01*
X176000002Y-89700499D01*
X176000008Y-89700499D01*
X176102797Y-89689999D01*
X176269334Y-89634814D01*
X176418656Y-89542712D01*
X176542712Y-89418656D01*
X176634814Y-89269334D01*
X176689999Y-89102797D01*
X176700500Y-89000009D01*
X176700499Y-88199992D01*
X176694548Y-88141740D01*
X176689999Y-88097203D01*
X176689998Y-88097200D01*
X176688181Y-88091718D01*
X176634814Y-87930666D01*
X176542712Y-87781344D01*
X176449049Y-87687681D01*
X176415564Y-87626358D01*
X176420548Y-87556666D01*
X176449049Y-87512319D01*
X176494834Y-87466534D01*
X176542712Y-87418656D01*
X176634814Y-87269334D01*
X176689999Y-87102797D01*
X176700500Y-87000009D01*
X176700499Y-86199992D01*
X176689999Y-86097203D01*
X176634814Y-85930666D01*
X176634810Y-85930660D01*
X176634809Y-85930657D01*
X176591600Y-85860605D01*
X176574557Y-85814213D01*
X176565652Y-85755855D01*
X176565499Y-85719482D01*
X176606529Y-85434512D01*
X176611556Y-85413186D01*
X176614999Y-85402797D01*
X176614999Y-85402795D01*
X176617130Y-85396366D01*
X176618863Y-85396940D01*
X176647815Y-85343477D01*
X176709020Y-85309778D01*
X176778729Y-85314518D01*
X176834809Y-85356194D01*
X176847202Y-85376390D01*
X176886214Y-85456190D01*
X176924999Y-85494975D01*
X176925000Y-85494974D01*
X176925000Y-84105025D01*
X176924999Y-84105024D01*
X176886214Y-84143809D01*
X176848623Y-84220703D01*
X176801495Y-84272285D01*
X176733961Y-84290199D01*
X176667463Y-84268758D01*
X176623113Y-84214768D01*
X176614072Y-84180731D01*
X176611933Y-84162549D01*
X176563563Y-83751409D01*
X176563386Y-83724054D01*
X176608996Y-83287500D01*
X176927912Y-83287500D01*
X176973714Y-83381190D01*
X177012499Y-83419975D01*
X177012500Y-83419974D01*
X177012500Y-83287500D01*
X176927912Y-83287500D01*
X176608996Y-83287500D01*
X176614603Y-83233838D01*
X176617340Y-83181103D01*
X176617339Y-83178667D01*
X176613695Y-83144420D01*
X176612999Y-83131301D01*
X176612999Y-82209986D01*
X176613092Y-82205190D01*
X176613101Y-82204942D01*
X176614603Y-82166161D01*
X176608997Y-82112500D01*
X176927912Y-82112500D01*
X177012500Y-82112500D01*
X177012500Y-81980025D01*
X177012499Y-81980024D01*
X176973714Y-82018809D01*
X176927912Y-82112500D01*
X176608997Y-82112500D01*
X176528858Y-81345457D01*
X176526573Y-81328196D01*
X176525500Y-81311922D01*
X176525500Y-81226456D01*
X176487052Y-81033170D01*
X176487051Y-81033169D01*
X176487051Y-81033165D01*
X176420095Y-80871519D01*
X176412627Y-80802052D01*
X176443902Y-80739573D01*
X176503991Y-80703921D01*
X176519279Y-80701356D01*
X176519277Y-80701344D01*
X176524335Y-80700500D01*
X176769614Y-80659571D01*
X177004810Y-80578828D01*
X177223509Y-80460474D01*
X177419744Y-80307738D01*
X177588164Y-80124785D01*
X177724173Y-79916607D01*
X177824063Y-79688881D01*
X177885108Y-79447821D01*
X177886023Y-79436785D01*
X177905643Y-79200000D01*
X177905643Y-79199994D01*
X177885109Y-78952187D01*
X177885107Y-78952175D01*
X177877674Y-78922822D01*
X177824063Y-78711119D01*
X177814455Y-78689216D01*
X177808067Y-78670857D01*
X177404551Y-77131234D01*
X177400500Y-77099797D01*
X177400500Y-61581456D01*
X177365975Y-61407892D01*
X177365975Y-61407891D01*
X177362051Y-61388164D01*
X177335377Y-61323767D01*
X177317455Y-61280500D01*
X177286633Y-61206088D01*
X177286628Y-61206079D01*
X177177139Y-61042218D01*
X177177136Y-61042214D01*
X177034686Y-60899764D01*
X177034655Y-60899735D01*
X176157784Y-60022863D01*
X176157780Y-60022860D01*
X175993920Y-59913372D01*
X175993910Y-59913367D01*
X175811836Y-59837949D01*
X175811828Y-59837947D01*
X175618543Y-59799500D01*
X175618540Y-59799500D01*
X175421460Y-59799500D01*
X175421457Y-59799500D01*
X175228171Y-59837947D01*
X175228163Y-59837949D01*
X175046089Y-59913367D01*
X175046079Y-59913372D01*
X174882219Y-60022860D01*
X174882215Y-60022863D01*
X174742863Y-60162215D01*
X174742860Y-60162219D01*
X174633372Y-60326079D01*
X174633367Y-60326089D01*
X174557949Y-60508163D01*
X174557947Y-60508171D01*
X174519500Y-60701455D01*
X174519500Y-60701460D01*
X174519500Y-60898540D01*
X174523805Y-60920183D01*
X174517576Y-60989775D01*
X174474713Y-61044952D01*
X174408822Y-61068195D01*
X174391904Y-61067946D01*
X173772861Y-61016434D01*
X173707685Y-60991258D01*
X173695463Y-60980542D01*
X171334921Y-58620000D01*
X171936028Y-58620000D01*
X172038408Y-58679110D01*
X172191009Y-58719999D01*
X172191011Y-58720000D01*
X172320000Y-58720000D01*
X173320000Y-58720000D01*
X173448989Y-58720000D01*
X173448990Y-58719999D01*
X173601591Y-58679110D01*
X173703972Y-58620000D01*
X176366028Y-58620000D01*
X176468412Y-58679112D01*
X176499999Y-58687575D01*
X177500000Y-58687575D01*
X177531587Y-58679112D01*
X177633972Y-58620000D01*
X177500000Y-58620000D01*
X177500000Y-58687575D01*
X176499999Y-58687575D01*
X176500000Y-58687574D01*
X176500000Y-58620000D01*
X176366028Y-58620000D01*
X173703972Y-58620000D01*
X173320000Y-58620000D01*
X173320000Y-58720000D01*
X172320000Y-58720000D01*
X172320000Y-58620000D01*
X171936028Y-58620000D01*
X171334921Y-58620000D01*
X170795425Y-58080504D01*
X171970000Y-58080504D01*
X171970000Y-58159496D01*
X171990444Y-58235796D01*
X172029940Y-58304205D01*
X172085795Y-58360060D01*
X172154204Y-58399556D01*
X172230504Y-58420000D01*
X173409496Y-58420000D01*
X173485796Y-58399556D01*
X173554205Y-58360060D01*
X173610060Y-58304205D01*
X173649556Y-58235796D01*
X173670000Y-58159496D01*
X173670000Y-58080504D01*
X176400000Y-58080504D01*
X176400000Y-58159496D01*
X176420444Y-58235796D01*
X176459940Y-58304205D01*
X176515795Y-58360060D01*
X176584204Y-58399556D01*
X176660504Y-58420000D01*
X177339496Y-58420000D01*
X177415796Y-58399556D01*
X177484205Y-58360060D01*
X177540060Y-58304205D01*
X177579556Y-58235796D01*
X177600000Y-58159496D01*
X177600000Y-58080504D01*
X177579556Y-58004204D01*
X177540060Y-57935795D01*
X177484205Y-57879940D01*
X177415796Y-57840444D01*
X177339496Y-57820000D01*
X176660504Y-57820000D01*
X176584204Y-57840444D01*
X176515795Y-57879940D01*
X176459940Y-57935795D01*
X176420444Y-58004204D01*
X176400000Y-58080504D01*
X173670000Y-58080504D01*
X173649556Y-58004204D01*
X173610060Y-57935795D01*
X173554205Y-57879940D01*
X173485796Y-57840444D01*
X173409496Y-57820000D01*
X172230504Y-57820000D01*
X172154204Y-57840444D01*
X172085795Y-57879940D01*
X172029940Y-57935795D01*
X171990444Y-58004204D01*
X171970000Y-58080504D01*
X170795425Y-58080504D01*
X170334921Y-57620000D01*
X171936027Y-57620000D01*
X172320000Y-57620000D01*
X172320000Y-57520000D01*
X172191009Y-57520000D01*
X172038408Y-57560889D01*
X171936027Y-57620000D01*
X170334921Y-57620000D01*
X170158612Y-57443691D01*
X170125127Y-57382368D01*
X170130111Y-57312676D01*
X170171983Y-57256743D01*
X170237447Y-57232326D01*
X170270485Y-57234393D01*
X170351457Y-57250500D01*
X170351460Y-57250500D01*
X170548542Y-57250500D01*
X170548543Y-57250499D01*
X170741836Y-57212051D01*
X170923914Y-57136631D01*
X171087781Y-57027139D01*
X171227139Y-56887781D01*
X171336631Y-56723914D01*
X171412051Y-56541836D01*
X171450500Y-56348540D01*
X171450500Y-56151460D01*
X171450500Y-56151457D01*
X171450499Y-56151455D01*
X171424920Y-56022861D01*
X171412051Y-55958164D01*
X171336631Y-55776086D01*
X171336629Y-55776083D01*
X171336627Y-55776079D01*
X171227139Y-55612219D01*
X171227136Y-55612215D01*
X170763464Y-55148543D01*
X172509499Y-55148543D01*
X172547947Y-55341829D01*
X172547950Y-55341839D01*
X172623364Y-55523907D01*
X172623371Y-55523920D01*
X172732860Y-55687781D01*
X172732863Y-55687785D01*
X172872214Y-55827136D01*
X172872222Y-55827142D01*
X173012551Y-55920907D01*
X173057357Y-55974519D01*
X173066064Y-56043844D01*
X173035910Y-56106871D01*
X173012553Y-56127111D01*
X172932139Y-56180842D01*
X172840842Y-56272139D01*
X172840839Y-56272143D01*
X172769101Y-56379506D01*
X172769100Y-56379508D01*
X172719690Y-56498796D01*
X172719687Y-56498805D01*
X172694500Y-56625434D01*
X172694500Y-56754565D01*
X172719687Y-56881194D01*
X172719690Y-56881203D01*
X172769100Y-57000491D01*
X172769101Y-57000493D01*
X172840839Y-57107856D01*
X172840842Y-57107860D01*
X172932139Y-57199157D01*
X172932143Y-57199160D01*
X173039504Y-57270897D01*
X173039505Y-57270897D01*
X173039506Y-57270898D01*
X173039508Y-57270899D01*
X173083573Y-57289151D01*
X173158798Y-57320310D01*
X173232285Y-57334927D01*
X173294194Y-57367311D01*
X173328769Y-57428026D01*
X173325030Y-57497796D01*
X173320000Y-57505779D01*
X173320000Y-57620000D01*
X173703972Y-57620000D01*
X176366027Y-57620000D01*
X176500000Y-57620000D01*
X177500000Y-57620000D01*
X177633972Y-57620000D01*
X177531592Y-57560889D01*
X177500000Y-57552424D01*
X177500000Y-57620000D01*
X176500000Y-57620000D01*
X176500000Y-57552424D01*
X176468407Y-57560889D01*
X176366027Y-57620000D01*
X173703972Y-57620000D01*
X173601590Y-57560888D01*
X173565094Y-57551109D01*
X173505434Y-57514744D01*
X173474906Y-57451897D01*
X173483201Y-57382521D01*
X173527687Y-57328644D01*
X173549727Y-57316778D01*
X173660496Y-57270897D01*
X173767857Y-57199160D01*
X173859160Y-57107857D01*
X173930897Y-57000496D01*
X173980310Y-56881202D01*
X173989349Y-56835762D01*
X174005499Y-56754565D01*
X174005500Y-56754562D01*
X174005500Y-56625438D01*
X174005499Y-56625434D01*
X173980312Y-56498805D01*
X173980310Y-56498800D01*
X173980310Y-56498798D01*
X173945357Y-56414415D01*
X173937889Y-56344948D01*
X173969164Y-56282469D01*
X174029253Y-56246817D01*
X174072520Y-56243607D01*
X174139991Y-56250500D01*
X174940008Y-56250499D01*
X174940016Y-56250498D01*
X174940019Y-56250498D01*
X175007477Y-56243607D01*
X175042797Y-56239999D01*
X175209334Y-56184814D01*
X175358656Y-56092712D01*
X175482712Y-55968656D01*
X175574814Y-55819334D01*
X175629999Y-55652797D01*
X175629999Y-55652795D01*
X175632128Y-55646371D01*
X175633858Y-55646944D01*
X175662818Y-55593472D01*
X175724026Y-55559776D01*
X175793734Y-55564519D01*
X175849812Y-55606197D01*
X175862203Y-55626390D01*
X175901215Y-55706191D01*
X175939999Y-55744975D01*
X177140000Y-55744975D01*
X177178784Y-55706191D01*
X177206255Y-55650000D01*
X177140000Y-55650000D01*
X177140000Y-55744975D01*
X175939999Y-55744975D01*
X175940000Y-55744974D01*
X175940000Y-54450000D01*
X177140000Y-54450000D01*
X177206254Y-54450000D01*
X177178784Y-54393808D01*
X177140000Y-54355024D01*
X177140000Y-54450000D01*
X175940000Y-54450000D01*
X175940000Y-54355025D01*
X175939999Y-54355024D01*
X175901214Y-54393809D01*
X175901214Y-54393810D01*
X175862202Y-54473609D01*
X175815074Y-54525191D01*
X175747540Y-54543105D01*
X175681041Y-54521664D01*
X175636691Y-54467674D01*
X175632237Y-54453594D01*
X175632129Y-54453630D01*
X175599198Y-54354252D01*
X175574814Y-54280666D01*
X175482712Y-54131344D01*
X175358656Y-54007288D01*
X175265888Y-53950069D01*
X175209336Y-53915187D01*
X175209335Y-53915186D01*
X175209334Y-53915186D01*
X175191667Y-53909331D01*
X175134225Y-53869560D01*
X175107402Y-53805044D01*
X175119717Y-53736268D01*
X175167261Y-53685068D01*
X175191665Y-53673923D01*
X175249334Y-53654814D01*
X175398656Y-53562712D01*
X175522712Y-53438656D01*
X175614814Y-53289334D01*
X175669999Y-53122797D01*
X175669999Y-53122795D01*
X175672128Y-53116371D01*
X175673858Y-53116944D01*
X175702818Y-53063472D01*
X175764026Y-53029776D01*
X175833734Y-53034519D01*
X175889812Y-53076197D01*
X175902203Y-53096390D01*
X175941215Y-53176191D01*
X175979999Y-53214975D01*
X177180000Y-53214975D01*
X177218784Y-53176191D01*
X177246255Y-53120000D01*
X177180000Y-53120000D01*
X177180000Y-53214975D01*
X175979999Y-53214975D01*
X175980000Y-53214974D01*
X175980000Y-51920000D01*
X177180000Y-51920000D01*
X177246254Y-51920000D01*
X177218784Y-51863808D01*
X177180000Y-51825024D01*
X177180000Y-51920000D01*
X175980000Y-51920000D01*
X175980000Y-51825025D01*
X175979999Y-51825024D01*
X175941214Y-51863809D01*
X175941214Y-51863810D01*
X175902202Y-51943609D01*
X175855074Y-51995191D01*
X175787540Y-52013105D01*
X175721041Y-51991664D01*
X175676691Y-51937674D01*
X175672237Y-51923594D01*
X175672129Y-51923630D01*
X175631645Y-51801459D01*
X175614814Y-51750666D01*
X175522712Y-51601344D01*
X175398656Y-51477288D01*
X175274162Y-51400500D01*
X175249336Y-51385187D01*
X175249331Y-51385185D01*
X175179520Y-51362052D01*
X175082797Y-51330001D01*
X175082795Y-51330000D01*
X174980010Y-51319500D01*
X174179998Y-51319500D01*
X174179980Y-51319501D01*
X174083728Y-51329334D01*
X174015035Y-51316564D01*
X173964151Y-51268683D01*
X173947231Y-51200893D01*
X173956564Y-51158527D01*
X173980310Y-51101202D01*
X174005500Y-50974561D01*
X174005500Y-50845439D01*
X173998885Y-50812181D01*
X173980312Y-50718805D01*
X173980309Y-50718796D01*
X173930899Y-50599508D01*
X173930898Y-50599506D01*
X173859160Y-50492143D01*
X173859157Y-50492139D01*
X173767860Y-50400842D01*
X173767856Y-50400839D01*
X173660493Y-50329101D01*
X173660491Y-50329100D01*
X173549737Y-50283225D01*
X173495333Y-50239384D01*
X173473268Y-50173090D01*
X173490547Y-50105391D01*
X173541684Y-50057780D01*
X173565097Y-50048889D01*
X173601591Y-50039110D01*
X173703972Y-49980000D01*
X176366028Y-49980000D01*
X176468412Y-50039112D01*
X176499999Y-50047575D01*
X177500000Y-50047575D01*
X177531587Y-50039112D01*
X177633972Y-49980000D01*
X177500000Y-49980000D01*
X177500000Y-50047575D01*
X176499999Y-50047575D01*
X176500000Y-50047574D01*
X176500000Y-49980000D01*
X176366028Y-49980000D01*
X173703972Y-49980000D01*
X173320000Y-49980000D01*
X173320000Y-50100140D01*
X173329259Y-50117097D01*
X173324275Y-50186789D01*
X173282403Y-50242722D01*
X173232285Y-50265072D01*
X173158804Y-50279688D01*
X173158796Y-50279690D01*
X173039508Y-50329100D01*
X173039506Y-50329101D01*
X172932143Y-50400839D01*
X172932139Y-50400842D01*
X172840842Y-50492139D01*
X172840839Y-50492143D01*
X172769101Y-50599506D01*
X172769100Y-50599508D01*
X172719690Y-50718796D01*
X172719687Y-50718805D01*
X172694500Y-50845434D01*
X172694500Y-50974565D01*
X172719687Y-51101194D01*
X172719690Y-51101203D01*
X172769100Y-51220491D01*
X172769101Y-51220493D01*
X172840839Y-51327856D01*
X172840842Y-51327860D01*
X172932139Y-51419157D01*
X172932147Y-51419163D01*
X173020102Y-51477933D01*
X173064908Y-51531545D01*
X173073615Y-51600870D01*
X173043461Y-51663897D01*
X173020103Y-51684137D01*
X172932218Y-51742860D01*
X172932214Y-51742863D01*
X172792863Y-51882214D01*
X172792860Y-51882218D01*
X172683371Y-52046079D01*
X172683364Y-52046092D01*
X172607950Y-52228160D01*
X172607947Y-52228170D01*
X172569500Y-52421456D01*
X172569500Y-52421459D01*
X172569500Y-52618541D01*
X172569500Y-52618543D01*
X172569499Y-52618543D01*
X172607947Y-52811829D01*
X172607950Y-52811839D01*
X172683364Y-52993907D01*
X172683371Y-52993920D01*
X172792860Y-53157781D01*
X172792863Y-53157785D01*
X172932214Y-53297136D01*
X172932218Y-53297139D01*
X173096079Y-53406628D01*
X173096092Y-53406635D01*
X173278160Y-53482049D01*
X173278165Y-53482051D01*
X173278169Y-53482051D01*
X173278170Y-53482052D01*
X173471456Y-53520500D01*
X173471459Y-53520500D01*
X173479857Y-53520500D01*
X173505909Y-53523268D01*
X173599325Y-53543342D01*
X173778911Y-53581935D01*
X173817955Y-53597629D01*
X173910657Y-53654809D01*
X173910659Y-53654809D01*
X173910666Y-53654814D01*
X173928330Y-53660667D01*
X173985773Y-53700437D01*
X174012597Y-53764952D01*
X174000283Y-53833728D01*
X173952741Y-53884929D01*
X173928330Y-53896078D01*
X173870666Y-53915186D01*
X173870659Y-53915190D01*
X173781251Y-53970336D01*
X173741179Y-53986246D01*
X173446574Y-54046949D01*
X173421550Y-54049500D01*
X173411457Y-54049500D01*
X173218170Y-54087947D01*
X173218160Y-54087950D01*
X173036092Y-54163364D01*
X173036079Y-54163371D01*
X172872218Y-54272860D01*
X172872214Y-54272863D01*
X172732863Y-54412214D01*
X172732860Y-54412218D01*
X172623371Y-54576079D01*
X172623364Y-54576092D01*
X172547950Y-54758160D01*
X172547947Y-54758170D01*
X172509500Y-54951456D01*
X172509500Y-54951459D01*
X172509500Y-55148541D01*
X172509500Y-55148543D01*
X172509499Y-55148543D01*
X170763464Y-55148543D01*
X170736819Y-55121898D01*
X170703334Y-55060575D01*
X170700500Y-55034217D01*
X170700500Y-51561571D01*
X170702883Y-51537379D01*
X170703587Y-51533843D01*
X170720292Y-51449861D01*
X170730500Y-51398543D01*
X170730500Y-50831456D01*
X170692052Y-50638170D01*
X170692051Y-50638169D01*
X170692051Y-50638165D01*
X170692049Y-50638160D01*
X170616635Y-50456092D01*
X170616628Y-50456079D01*
X170507139Y-50292218D01*
X170507136Y-50292214D01*
X170364686Y-50149764D01*
X170364655Y-50149735D01*
X170194920Y-49980000D01*
X171936028Y-49980000D01*
X172038408Y-50039110D01*
X172191009Y-50079999D01*
X172191011Y-50080000D01*
X172320000Y-50080000D01*
X172320000Y-49980000D01*
X171936028Y-49980000D01*
X170194920Y-49980000D01*
X169655424Y-49440504D01*
X171970000Y-49440504D01*
X171970000Y-49519496D01*
X171990444Y-49595796D01*
X172029940Y-49664205D01*
X172085795Y-49720060D01*
X172154204Y-49759556D01*
X172230504Y-49780000D01*
X173409496Y-49780000D01*
X173485796Y-49759556D01*
X173554205Y-49720060D01*
X173610060Y-49664205D01*
X173649556Y-49595796D01*
X173670000Y-49519496D01*
X173670000Y-49440504D01*
X176400000Y-49440504D01*
X176400000Y-49519496D01*
X176420444Y-49595796D01*
X176459940Y-49664205D01*
X176515795Y-49720060D01*
X176584204Y-49759556D01*
X176660504Y-49780000D01*
X177339496Y-49780000D01*
X177415796Y-49759556D01*
X177484205Y-49720060D01*
X177540060Y-49664205D01*
X177579556Y-49595796D01*
X177600000Y-49519496D01*
X177600000Y-49440504D01*
X177579556Y-49364204D01*
X177540060Y-49295795D01*
X177484205Y-49239940D01*
X177415796Y-49200444D01*
X177339496Y-49180000D01*
X176660504Y-49180000D01*
X176584204Y-49200444D01*
X176515795Y-49239940D01*
X176459940Y-49295795D01*
X176420444Y-49364204D01*
X176400000Y-49440504D01*
X173670000Y-49440504D01*
X173649556Y-49364204D01*
X173610060Y-49295795D01*
X173554205Y-49239940D01*
X173485796Y-49200444D01*
X173409496Y-49180000D01*
X172230504Y-49180000D01*
X172154204Y-49200444D01*
X172085795Y-49239940D01*
X172029940Y-49295795D01*
X171990444Y-49364204D01*
X171970000Y-49440504D01*
X169655424Y-49440504D01*
X169194920Y-48980000D01*
X171936027Y-48980000D01*
X172320000Y-48980000D01*
X173320000Y-48980000D01*
X173703972Y-48980000D01*
X176366027Y-48980000D01*
X176500000Y-48980000D01*
X177500000Y-48980000D01*
X177633972Y-48980000D01*
X177531592Y-48920889D01*
X177500000Y-48912424D01*
X177500000Y-48980000D01*
X176500000Y-48980000D01*
X176500000Y-48912424D01*
X176468407Y-48920889D01*
X176366027Y-48980000D01*
X173703972Y-48980000D01*
X173601591Y-48920889D01*
X173448990Y-48880000D01*
X173320000Y-48880000D01*
X173320000Y-48980000D01*
X172320000Y-48980000D01*
X172320000Y-48880000D01*
X172191009Y-48880000D01*
X172038408Y-48920889D01*
X171936027Y-48980000D01*
X169194920Y-48980000D01*
X168881479Y-48666559D01*
X168881459Y-48666537D01*
X168737785Y-48522863D01*
X168737781Y-48522860D01*
X168573920Y-48413371D01*
X168573911Y-48413366D01*
X168501315Y-48383296D01*
X168445165Y-48360038D01*
X168391836Y-48337949D01*
X168391832Y-48337948D01*
X168391828Y-48337946D01*
X168295188Y-48318724D01*
X168198544Y-48299500D01*
X168198541Y-48299500D01*
X159401459Y-48299500D01*
X159401455Y-48299500D01*
X159304812Y-48318724D01*
X159208167Y-48337947D01*
X159208161Y-48337949D01*
X159154834Y-48360037D01*
X159154834Y-48360038D01*
X159142819Y-48365015D01*
X159026089Y-48413366D01*
X159026079Y-48413371D01*
X158862219Y-48522859D01*
X158818711Y-48566368D01*
X158722861Y-48662218D01*
X158722858Y-48662221D01*
X158671713Y-48713366D01*
X158621897Y-48763182D01*
X158560573Y-48796666D01*
X158534216Y-48799500D01*
X157049998Y-48799500D01*
X157049981Y-48799501D01*
X156947203Y-48810000D01*
X156947200Y-48810001D01*
X156780668Y-48865185D01*
X156780663Y-48865187D01*
X156631342Y-48957289D01*
X156507289Y-49081342D01*
X156415187Y-49230663D01*
X156415186Y-49230666D01*
X156360001Y-49397203D01*
X156360001Y-49397204D01*
X156360000Y-49397204D01*
X156349500Y-49499983D01*
X156349500Y-50900001D01*
X156349501Y-50900018D01*
X156360000Y-51002796D01*
X156360001Y-51002799D01*
X156399786Y-51122860D01*
X156415186Y-51169334D01*
X156507288Y-51318656D01*
X156631344Y-51442712D01*
X156780666Y-51534814D01*
X156947203Y-51589999D01*
X157049991Y-51600500D01*
X160150008Y-51600499D01*
X160252797Y-51589999D01*
X160419334Y-51534814D01*
X160419337Y-51534811D01*
X160422261Y-51533843D01*
X160492090Y-51531441D01*
X160548947Y-51563868D01*
X161663181Y-52678101D01*
X161696666Y-52739424D01*
X161699500Y-52765782D01*
X161699500Y-54678373D01*
X161679815Y-54745412D01*
X161627011Y-54791167D01*
X161557853Y-54801111D01*
X161494297Y-54772086D01*
X161484271Y-54762356D01*
X161419747Y-54692265D01*
X161419744Y-54692262D01*
X161281158Y-54584396D01*
X161223509Y-54539526D01*
X161223507Y-54539525D01*
X161223506Y-54539524D01*
X161004811Y-54421172D01*
X161004802Y-54421169D01*
X160769616Y-54340429D01*
X160524335Y-54299500D01*
X160275665Y-54299500D01*
X160030383Y-54340429D01*
X159795197Y-54421169D01*
X159795188Y-54421172D01*
X159576493Y-54539524D01*
X159380257Y-54692261D01*
X159211833Y-54875217D01*
X159075826Y-55083393D01*
X158975939Y-55311112D01*
X158975935Y-55311125D01*
X158947234Y-55424459D01*
X158946037Y-55428848D01*
X158785217Y-55978337D01*
X158753890Y-56031188D01*
X158622863Y-56162214D01*
X158622860Y-56162218D01*
X158513371Y-56326079D01*
X158513364Y-56326092D01*
X158474935Y-56418871D01*
X158474935Y-56418872D01*
X158437949Y-56508163D01*
X158437947Y-56508171D01*
X158431251Y-56541835D01*
X158431251Y-56541836D01*
X158399500Y-56701456D01*
X158399500Y-70234217D01*
X158379815Y-70301256D01*
X158363181Y-70321898D01*
X156032904Y-72652175D01*
X153812221Y-74872858D01*
X153812218Y-74872861D01*
X153760484Y-74924595D01*
X153672859Y-75012219D01*
X153563371Y-75176080D01*
X153563364Y-75176093D01*
X153524744Y-75269333D01*
X153524744Y-75269334D01*
X153488802Y-75356106D01*
X153488797Y-75356119D01*
X153487948Y-75358167D01*
X153487946Y-75358173D01*
X153449500Y-75551454D01*
X153449500Y-79206630D01*
X153429815Y-79273669D01*
X153377011Y-79319424D01*
X153307853Y-79329368D01*
X153244297Y-79300343D01*
X153237819Y-79294311D01*
X153052883Y-79109375D01*
X153052879Y-79109372D01*
X152913587Y-79016299D01*
X152913574Y-79016292D01*
X152781194Y-78961460D01*
X152781192Y-78961459D01*
X152758804Y-78952185D01*
X152758792Y-78952182D01*
X152594489Y-78919500D01*
X152594485Y-78919500D01*
X150525605Y-78919500D01*
X150458566Y-78899815D01*
X150456714Y-78898602D01*
X150433920Y-78883371D01*
X150433907Y-78883364D01*
X150251839Y-78807950D01*
X150251829Y-78807947D01*
X150058543Y-78769500D01*
X150058541Y-78769500D01*
X145664673Y-78769500D01*
X145641706Y-78767354D01*
X145535372Y-78747312D01*
X143814051Y-78422873D01*
X143807609Y-78421227D01*
X143807562Y-78421427D01*
X143802825Y-78420290D01*
X143789072Y-78418112D01*
X143785501Y-78417493D01*
X143772158Y-78414978D01*
X143772142Y-78414975D01*
X143767209Y-78414466D01*
X143760558Y-78413596D01*
X143608422Y-78389500D01*
X143608417Y-78389500D01*
X143289336Y-78389500D01*
X143222297Y-78369815D01*
X143201655Y-78353181D01*
X142786819Y-77938345D01*
X142753334Y-77877022D01*
X142750500Y-77850664D01*
X142750500Y-76149336D01*
X142770185Y-76082297D01*
X142786819Y-76061655D01*
X144569647Y-74278827D01*
X144948474Y-73900000D01*
X147025024Y-73900000D01*
X147063811Y-73938787D01*
X147168748Y-73990087D01*
X147168751Y-73990088D01*
X147236780Y-73999999D01*
X147369999Y-73999999D01*
X148770000Y-73999999D01*
X148903218Y-73999999D01*
X148971249Y-73990087D01*
X149076191Y-73938784D01*
X149114975Y-73900000D01*
X148770000Y-73900000D01*
X148770000Y-73999999D01*
X147369999Y-73999999D01*
X147370000Y-73999998D01*
X147370000Y-73900000D01*
X147025024Y-73900000D01*
X144948474Y-73900000D01*
X146348475Y-72499999D01*
X147025024Y-72499999D01*
X147025025Y-72500000D01*
X147370000Y-72500000D01*
X148770000Y-72500000D01*
X149114975Y-72500000D01*
X149114975Y-72499999D01*
X149077476Y-72462500D01*
X149950024Y-72462500D01*
X149988808Y-72501284D01*
X150082500Y-72547086D01*
X151257500Y-72547086D01*
X151351191Y-72501284D01*
X151389975Y-72462500D01*
X151257500Y-72462500D01*
X151257500Y-72547086D01*
X150082500Y-72547086D01*
X150082500Y-72462500D01*
X149950024Y-72462500D01*
X149077476Y-72462500D01*
X149076188Y-72461212D01*
X148971251Y-72409912D01*
X148971248Y-72409911D01*
X148903220Y-72400000D01*
X148770000Y-72400000D01*
X148770000Y-72500000D01*
X147370000Y-72500000D01*
X147370000Y-72400000D01*
X147236786Y-72400000D01*
X147168751Y-72409912D01*
X147063808Y-72461215D01*
X147025024Y-72499999D01*
X146348475Y-72499999D01*
X146453828Y-72394646D01*
X146569524Y-72235405D01*
X146632387Y-72112028D01*
X146658884Y-72060025D01*
X146702404Y-71926086D01*
X146719709Y-71872827D01*
X146732469Y-71792262D01*
X146750500Y-71678422D01*
X146750500Y-70174500D01*
X146770185Y-70107461D01*
X146822989Y-70061706D01*
X146874500Y-70050500D01*
X147971583Y-70050500D01*
X149100664Y-70050500D01*
X149167703Y-70070185D01*
X149188345Y-70086819D01*
X149465529Y-70364003D01*
X149495553Y-70412678D01*
X149510184Y-70456831D01*
X149510186Y-70456834D01*
X149602288Y-70606156D01*
X149726344Y-70730212D01*
X149875666Y-70822314D01*
X149999088Y-70863211D01*
X150016374Y-70870431D01*
X150185268Y-70956486D01*
X150236065Y-71004460D01*
X150252860Y-71072281D01*
X150230323Y-71138416D01*
X150175608Y-71181868D01*
X150146852Y-71189675D01*
X150093753Y-71197411D01*
X149988808Y-71248715D01*
X149950024Y-71287499D01*
X149950025Y-71287500D01*
X151389975Y-71287500D01*
X151389975Y-71287499D01*
X151351188Y-71248712D01*
X151246251Y-71197412D01*
X151246248Y-71197411D01*
X151193149Y-71189675D01*
X151129648Y-71160531D01*
X151091984Y-71101682D01*
X151092116Y-71031812D01*
X151130001Y-70973105D01*
X151154733Y-70956486D01*
X151323627Y-70870431D01*
X151340913Y-70863211D01*
X151464334Y-70822314D01*
X151613656Y-70730212D01*
X151737712Y-70606156D01*
X151829814Y-70456834D01*
X151884999Y-70290297D01*
X151895500Y-70187509D01*
X151895499Y-70066020D01*
X151897026Y-70046622D01*
X151904486Y-69999523D01*
X151920500Y-69898417D01*
X151920500Y-69701584D01*
X151920500Y-69701578D01*
X151897026Y-69553372D01*
X151895499Y-69533974D01*
X151895499Y-69412498D01*
X151895498Y-69412481D01*
X151884999Y-69309703D01*
X151884998Y-69309700D01*
X151829814Y-69143166D01*
X151737712Y-68993844D01*
X151613656Y-68869788D01*
X151464334Y-68777686D01*
X151464332Y-68777685D01*
X151464330Y-68777684D01*
X151464331Y-68777684D01*
X151420178Y-68763053D01*
X151371503Y-68733029D01*
X150484648Y-67846174D01*
X150484646Y-67846172D01*
X150325405Y-67730476D01*
X150313103Y-67724208D01*
X150150024Y-67641114D01*
X150145533Y-67639255D01*
X150146392Y-67637179D01*
X150096397Y-67602997D01*
X150069196Y-67538639D01*
X150081107Y-67469792D01*
X150128349Y-67418314D01*
X150192386Y-67400499D01*
X150250008Y-67400499D01*
X150352797Y-67389999D01*
X150519334Y-67334814D01*
X150668656Y-67242712D01*
X150792712Y-67118656D01*
X150884814Y-66969334D01*
X150939999Y-66802797D01*
X150950500Y-66700009D01*
X150950499Y-65299992D01*
X150950498Y-65299983D01*
X151449500Y-65299983D01*
X151449500Y-66700001D01*
X151449501Y-66700018D01*
X151460000Y-66802796D01*
X151460001Y-66802799D01*
X151485641Y-66880174D01*
X151515186Y-66969334D01*
X151607288Y-67118656D01*
X151731344Y-67242712D01*
X151880666Y-67334814D01*
X152047203Y-67389999D01*
X152149991Y-67400500D01*
X155250008Y-67400499D01*
X155352797Y-67389999D01*
X155519334Y-67334814D01*
X155668656Y-67242712D01*
X155792712Y-67118656D01*
X155884814Y-66969334D01*
X155939999Y-66802797D01*
X155950500Y-66700009D01*
X155950499Y-65299992D01*
X155939999Y-65197203D01*
X155884814Y-65030666D01*
X155792712Y-64881344D01*
X155668656Y-64757288D01*
X155543206Y-64679910D01*
X155519336Y-64665187D01*
X155519331Y-64665185D01*
X155486494Y-64654304D01*
X155352797Y-64610001D01*
X155352795Y-64610000D01*
X155250010Y-64599500D01*
X152149998Y-64599500D01*
X152149981Y-64599501D01*
X152047203Y-64610000D01*
X152047200Y-64610001D01*
X151880668Y-64665185D01*
X151880663Y-64665187D01*
X151731342Y-64757289D01*
X151607289Y-64881342D01*
X151515187Y-65030663D01*
X151515185Y-65030668D01*
X151513688Y-65035186D01*
X151460001Y-65197203D01*
X151460001Y-65197204D01*
X151460000Y-65197204D01*
X151449500Y-65299983D01*
X150950498Y-65299983D01*
X150939999Y-65197203D01*
X150884814Y-65030666D01*
X150792712Y-64881344D01*
X150668656Y-64757288D01*
X150543206Y-64679910D01*
X150519336Y-64665187D01*
X150519331Y-64665185D01*
X150486494Y-64654304D01*
X150352797Y-64610001D01*
X150352795Y-64610000D01*
X150250010Y-64599500D01*
X147149998Y-64599500D01*
X147149981Y-64599501D01*
X147047203Y-64610000D01*
X147047200Y-64610001D01*
X146913504Y-64654304D01*
X146843675Y-64656706D01*
X146783634Y-64620974D01*
X146752441Y-64558453D01*
X146750500Y-64536598D01*
X146750500Y-64260147D01*
X146770185Y-64193108D01*
X146786819Y-64172466D01*
X147366897Y-63592388D01*
X147953828Y-63005457D01*
X148069524Y-62846216D01*
X148104663Y-62777251D01*
X148158884Y-62670836D01*
X148204019Y-62531927D01*
X148219709Y-62483638D01*
X148228506Y-62428092D01*
X148250500Y-62289233D01*
X148250500Y-60553307D01*
X148270185Y-60486268D01*
X148322989Y-60440513D01*
X148392147Y-60430569D01*
X148455703Y-60459594D01*
X148481886Y-60491306D01*
X148557467Y-60622216D01*
X148628819Y-60701460D01*
X148684128Y-60762887D01*
X148684131Y-60762890D01*
X148685316Y-60763751D01*
X148694462Y-60771082D01*
X148723416Y-60796630D01*
X148723431Y-60796642D01*
X149265507Y-61274943D01*
X149295203Y-61299206D01*
X149295208Y-61299209D01*
X149297015Y-61300685D01*
X149306240Y-61309029D01*
X149897834Y-61900624D01*
X149897842Y-61900630D01*
X150037136Y-61993703D01*
X150037139Y-61993705D01*
X150052566Y-62000095D01*
X150089049Y-62023383D01*
X150402460Y-62311597D01*
X150416730Y-62323634D01*
X150428007Y-62334433D01*
X150440251Y-62347733D01*
X150440256Y-62347738D01*
X150636491Y-62500474D01*
X150855190Y-62618828D01*
X151090386Y-62699571D01*
X151335665Y-62740500D01*
X151584335Y-62740500D01*
X151829614Y-62699571D01*
X152064810Y-62618828D01*
X152283509Y-62500474D01*
X152479744Y-62347738D01*
X152648164Y-62164785D01*
X152784173Y-61956607D01*
X152884063Y-61728881D01*
X152945108Y-61487821D01*
X152946737Y-61468163D01*
X152965643Y-61240005D01*
X152965643Y-61239994D01*
X152945109Y-60992187D01*
X152945107Y-60992175D01*
X152884063Y-60751118D01*
X152784173Y-60523393D01*
X152648166Y-60315217D01*
X152614141Y-60278256D01*
X152479744Y-60132262D01*
X152283509Y-59979526D01*
X152283507Y-59979525D01*
X152283506Y-59979524D01*
X152064811Y-59861172D01*
X152064802Y-59861169D01*
X151829616Y-59780429D01*
X151584335Y-59739500D01*
X151473526Y-59739500D01*
X151460876Y-59738853D01*
X151427308Y-59735410D01*
X150285694Y-59781798D01*
X150217911Y-59764851D01*
X150187680Y-59739941D01*
X150041953Y-59574784D01*
X150012359Y-59511492D01*
X150021681Y-59442247D01*
X150066959Y-59389034D01*
X150133819Y-59368748D01*
X150155341Y-59370433D01*
X150215665Y-59380500D01*
X150464335Y-59380500D01*
X150709614Y-59339571D01*
X150944810Y-59258828D01*
X151163509Y-59140474D01*
X151359744Y-58987738D01*
X151528164Y-58804785D01*
X151664173Y-58596607D01*
X151764063Y-58368881D01*
X151825108Y-58127821D01*
X151831354Y-58052445D01*
X151845643Y-57880005D01*
X151845643Y-57879994D01*
X151825109Y-57632187D01*
X151825107Y-57632175D01*
X151764063Y-57391118D01*
X151664173Y-57163393D01*
X151528166Y-56955217D01*
X151484458Y-56907738D01*
X151359744Y-56772262D01*
X151163509Y-56619526D01*
X151163507Y-56619525D01*
X151163506Y-56619524D01*
X151042892Y-56554251D01*
X156359301Y-56554251D01*
X156360002Y-56554362D01*
X156360697Y-56554252D01*
X156360696Y-56554251D01*
X157459301Y-56554251D01*
X157460002Y-56554362D01*
X157460697Y-56554252D01*
X157459999Y-56553553D01*
X157459301Y-56554251D01*
X156360696Y-56554251D01*
X156359999Y-56553553D01*
X156359301Y-56554251D01*
X151042892Y-56554251D01*
X150944811Y-56501172D01*
X150944802Y-56501169D01*
X150709616Y-56420429D01*
X150464335Y-56379500D01*
X150215665Y-56379500D01*
X149970383Y-56420429D01*
X149757270Y-56493591D01*
X149749731Y-56495914D01*
X149745033Y-56497199D01*
X149745029Y-56497200D01*
X149742976Y-56498092D01*
X149736343Y-56500666D01*
X149733063Y-56502104D01*
X149727452Y-56504834D01*
X149152342Y-56754627D01*
X149083010Y-56763280D01*
X149020006Y-56733075D01*
X148983334Y-56673603D01*
X148984637Y-56603745D01*
X149015259Y-56553213D01*
X149368469Y-56200003D01*
X156005637Y-56200003D01*
X156005746Y-56200697D01*
X156005747Y-56200698D01*
X156006446Y-56200000D01*
X156005747Y-56199301D01*
X156005637Y-56200003D01*
X149368469Y-56200003D01*
X149398309Y-56170163D01*
X156210000Y-56170163D01*
X156210000Y-56229837D01*
X156232836Y-56284968D01*
X156275032Y-56327164D01*
X156330163Y-56350000D01*
X156389837Y-56350000D01*
X156444968Y-56327164D01*
X156487164Y-56284968D01*
X156510000Y-56229837D01*
X156510000Y-56199999D01*
X156713553Y-56199999D01*
X156714252Y-56200697D01*
X156714362Y-56200003D01*
X157105637Y-56200003D01*
X157105746Y-56200697D01*
X157105747Y-56200698D01*
X157106446Y-56200000D01*
X157105747Y-56199301D01*
X157105637Y-56200003D01*
X156714362Y-56200003D01*
X156714362Y-56200001D01*
X156714363Y-56199998D01*
X156714252Y-56199301D01*
X156714252Y-56199300D01*
X156713553Y-56199999D01*
X156510000Y-56199999D01*
X156510000Y-56170163D01*
X157310000Y-56170163D01*
X157310000Y-56229837D01*
X157332836Y-56284968D01*
X157375032Y-56327164D01*
X157430163Y-56350000D01*
X157489837Y-56350000D01*
X157544968Y-56327164D01*
X157587164Y-56284968D01*
X157610000Y-56229837D01*
X157610000Y-56199999D01*
X157813553Y-56199999D01*
X157814252Y-56200697D01*
X157814362Y-56200001D01*
X157814363Y-56199998D01*
X157814252Y-56199301D01*
X157814252Y-56199300D01*
X157813553Y-56199999D01*
X157610000Y-56199999D01*
X157610000Y-56170163D01*
X157587164Y-56115032D01*
X157544968Y-56072836D01*
X157489837Y-56050000D01*
X157430163Y-56050000D01*
X157375032Y-56072836D01*
X157332836Y-56115032D01*
X157310000Y-56170163D01*
X156510000Y-56170163D01*
X156487164Y-56115032D01*
X156444968Y-56072836D01*
X156389837Y-56050000D01*
X156330163Y-56050000D01*
X156275032Y-56072836D01*
X156232836Y-56115032D01*
X156210000Y-56170163D01*
X149398309Y-56170163D01*
X149564221Y-56004251D01*
X155809301Y-56004251D01*
X155810001Y-56004362D01*
X155810697Y-56004252D01*
X156909300Y-56004252D01*
X156909998Y-56004363D01*
X156909999Y-56004363D01*
X156910697Y-56004252D01*
X158009300Y-56004252D01*
X158009998Y-56004363D01*
X158010001Y-56004362D01*
X158010697Y-56004252D01*
X158009999Y-56003553D01*
X158009300Y-56004252D01*
X156910697Y-56004252D01*
X156910697Y-56004251D01*
X156909999Y-56003553D01*
X156909300Y-56004252D01*
X155810697Y-56004252D01*
X155810697Y-56004251D01*
X155809999Y-56003553D01*
X155809301Y-56004251D01*
X149564221Y-56004251D01*
X149722726Y-55845746D01*
X156359300Y-55845746D01*
X156360000Y-55846446D01*
X156360698Y-55845747D01*
X156360698Y-55845746D01*
X157459300Y-55845746D01*
X157460000Y-55846446D01*
X157460698Y-55845747D01*
X157459998Y-55843600D01*
X157459300Y-55845746D01*
X156360698Y-55845746D01*
X156359998Y-55843600D01*
X156359300Y-55845746D01*
X149722726Y-55845746D01*
X149918474Y-55649998D01*
X155455636Y-55649998D01*
X155455637Y-55650000D01*
X155455746Y-55650697D01*
X155455747Y-55650698D01*
X155456446Y-55650000D01*
X155455746Y-55649300D01*
X155455636Y-55649998D01*
X149918474Y-55649998D01*
X149948309Y-55620163D01*
X155660000Y-55620163D01*
X155660000Y-55679837D01*
X155682836Y-55734968D01*
X155725032Y-55777164D01*
X155780163Y-55800000D01*
X155839837Y-55800000D01*
X155894968Y-55777164D01*
X155937164Y-55734968D01*
X155960000Y-55679837D01*
X155960000Y-55649999D01*
X156163553Y-55649999D01*
X156164251Y-55650697D01*
X156165066Y-55650432D01*
X156325466Y-55650432D01*
X156351432Y-55666089D01*
X156360434Y-55684396D01*
X156375970Y-55658590D01*
X156393410Y-55649998D01*
X156553600Y-55649998D01*
X156555747Y-55650698D01*
X156556446Y-55650000D01*
X156555746Y-55649300D01*
X156553600Y-55649998D01*
X156393410Y-55649998D01*
X156394413Y-55649504D01*
X156368624Y-55633970D01*
X156361827Y-55620163D01*
X156760000Y-55620163D01*
X156760000Y-55679837D01*
X156782836Y-55734968D01*
X156825032Y-55777164D01*
X156880163Y-55800000D01*
X156939837Y-55800000D01*
X156994968Y-55777164D01*
X157037164Y-55734968D01*
X157060000Y-55679837D01*
X157060000Y-55649999D01*
X157263553Y-55649999D01*
X157264251Y-55650697D01*
X157265066Y-55650432D01*
X157425466Y-55650432D01*
X157451432Y-55666089D01*
X157460434Y-55684396D01*
X157475970Y-55658590D01*
X157493410Y-55649998D01*
X157653600Y-55649998D01*
X157655747Y-55650698D01*
X157656446Y-55650000D01*
X157655746Y-55649300D01*
X157653600Y-55649998D01*
X157493410Y-55649998D01*
X157494413Y-55649504D01*
X157468624Y-55633970D01*
X157461827Y-55620163D01*
X157860000Y-55620163D01*
X157860000Y-55679837D01*
X157882836Y-55734968D01*
X157925032Y-55777164D01*
X157980163Y-55800000D01*
X158039837Y-55800000D01*
X158094968Y-55777164D01*
X158137164Y-55734968D01*
X158160000Y-55679837D01*
X158160000Y-55649999D01*
X158363553Y-55649999D01*
X158364252Y-55650697D01*
X158364362Y-55650002D01*
X158364251Y-55649301D01*
X158363553Y-55649999D01*
X158160000Y-55649999D01*
X158160000Y-55620163D01*
X158137164Y-55565032D01*
X158094968Y-55522836D01*
X158039837Y-55500000D01*
X157980163Y-55500000D01*
X157925032Y-55522836D01*
X157882836Y-55565032D01*
X157860000Y-55620163D01*
X157461827Y-55620163D01*
X157459506Y-55615449D01*
X157443852Y-55641398D01*
X157425466Y-55650432D01*
X157265066Y-55650432D01*
X157266401Y-55649998D01*
X157264252Y-55649300D01*
X157263553Y-55649999D01*
X157060000Y-55649999D01*
X157060000Y-55620163D01*
X157037164Y-55565032D01*
X156994968Y-55522836D01*
X156939837Y-55500000D01*
X156880163Y-55500000D01*
X156825032Y-55522836D01*
X156782836Y-55565032D01*
X156760000Y-55620163D01*
X156361827Y-55620163D01*
X156359506Y-55615449D01*
X156343852Y-55641398D01*
X156325466Y-55650432D01*
X156165066Y-55650432D01*
X156166401Y-55649998D01*
X156164252Y-55649300D01*
X156163553Y-55649999D01*
X155960000Y-55649999D01*
X155960000Y-55620163D01*
X155937164Y-55565032D01*
X155894968Y-55522836D01*
X155839837Y-55500000D01*
X155780163Y-55500000D01*
X155725032Y-55522836D01*
X155682836Y-55565032D01*
X155660000Y-55620163D01*
X149948309Y-55620163D01*
X150114220Y-55454252D01*
X156359300Y-55454252D01*
X156359998Y-55456401D01*
X156360697Y-55454252D01*
X157459300Y-55454252D01*
X157459998Y-55456401D01*
X157460697Y-55454251D01*
X157459999Y-55453553D01*
X157459300Y-55454252D01*
X156360697Y-55454252D01*
X156360697Y-55454251D01*
X156359999Y-55453553D01*
X156359300Y-55454252D01*
X150114220Y-55454252D01*
X150272726Y-55295746D01*
X155809300Y-55295746D01*
X155810000Y-55296446D01*
X155810698Y-55295747D01*
X155810697Y-55295746D01*
X156909300Y-55295746D01*
X156910000Y-55296446D01*
X156910698Y-55295747D01*
X158009301Y-55295747D01*
X158010000Y-55296446D01*
X158010698Y-55295747D01*
X158010697Y-55295746D01*
X158010003Y-55295637D01*
X158009301Y-55295747D01*
X156910698Y-55295747D01*
X156909998Y-55293600D01*
X156909300Y-55295746D01*
X155810697Y-55295746D01*
X155810004Y-55295637D01*
X155809998Y-55295636D01*
X155809300Y-55295746D01*
X150272726Y-55295746D01*
X150468469Y-55100003D01*
X156005637Y-55100003D01*
X156005637Y-55100004D01*
X156005746Y-55100697D01*
X156005747Y-55100698D01*
X156006446Y-55100000D01*
X156005747Y-55099301D01*
X156005637Y-55100003D01*
X150468469Y-55100003D01*
X150498309Y-55070163D01*
X156210000Y-55070163D01*
X156210000Y-55129837D01*
X156232836Y-55184968D01*
X156275032Y-55227164D01*
X156330163Y-55250000D01*
X156389837Y-55250000D01*
X156444968Y-55227164D01*
X156487164Y-55184968D01*
X156510000Y-55129837D01*
X156510000Y-55099999D01*
X156713553Y-55099999D01*
X156714251Y-55100697D01*
X156715066Y-55100432D01*
X156875466Y-55100432D01*
X156901432Y-55116089D01*
X156910434Y-55134396D01*
X156925970Y-55108590D01*
X156943410Y-55099998D01*
X157103600Y-55099998D01*
X157105747Y-55100698D01*
X157106446Y-55100000D01*
X157105746Y-55099300D01*
X157103600Y-55099998D01*
X156943410Y-55099998D01*
X156944413Y-55099504D01*
X156918624Y-55083970D01*
X156911827Y-55070163D01*
X157310000Y-55070163D01*
X157310000Y-55129837D01*
X157332836Y-55184968D01*
X157375032Y-55227164D01*
X157430163Y-55250000D01*
X157489837Y-55250000D01*
X157544968Y-55227164D01*
X157587164Y-55184968D01*
X157610000Y-55129837D01*
X157610000Y-55099999D01*
X157813553Y-55099999D01*
X157814251Y-55100697D01*
X157814252Y-55100697D01*
X157814363Y-55099999D01*
X157814363Y-55099998D01*
X157814252Y-55099301D01*
X157814252Y-55099300D01*
X157813553Y-55099999D01*
X157610000Y-55099999D01*
X157610000Y-55070163D01*
X157587164Y-55015032D01*
X157544968Y-54972836D01*
X157489837Y-54950000D01*
X157430163Y-54950000D01*
X157375032Y-54972836D01*
X157332836Y-55015032D01*
X157310000Y-55070163D01*
X156911827Y-55070163D01*
X156909506Y-55065449D01*
X156893852Y-55091398D01*
X156875466Y-55100432D01*
X156715066Y-55100432D01*
X156716401Y-55099998D01*
X156714252Y-55099300D01*
X156713553Y-55099999D01*
X156510000Y-55099999D01*
X156510000Y-55070163D01*
X156487164Y-55015032D01*
X156444968Y-54972836D01*
X156389837Y-54950000D01*
X156330163Y-54950000D01*
X156275032Y-54972836D01*
X156232836Y-55015032D01*
X156210000Y-55070163D01*
X150498309Y-55070163D01*
X150664221Y-54904251D01*
X155809301Y-54904251D01*
X155810001Y-54904362D01*
X155810697Y-54904252D01*
X156909300Y-54904252D01*
X156909998Y-54906401D01*
X156910697Y-54904252D01*
X158009300Y-54904252D01*
X158009998Y-54904363D01*
X158010001Y-54904362D01*
X158010697Y-54904252D01*
X158009999Y-54903553D01*
X158009300Y-54904252D01*
X156910697Y-54904252D01*
X156910697Y-54904251D01*
X156909999Y-54903553D01*
X156909300Y-54904252D01*
X155810697Y-54904252D01*
X155810697Y-54904251D01*
X155809999Y-54903553D01*
X155809301Y-54904251D01*
X150664221Y-54904251D01*
X150822726Y-54745746D01*
X156359300Y-54745746D01*
X156360000Y-54746446D01*
X156360698Y-54745747D01*
X156360698Y-54745746D01*
X157459300Y-54745746D01*
X157460000Y-54746446D01*
X157460698Y-54745747D01*
X157459998Y-54743600D01*
X157459300Y-54745746D01*
X156360698Y-54745746D01*
X156359998Y-54743600D01*
X156359300Y-54745746D01*
X150822726Y-54745746D01*
X151018474Y-54549998D01*
X155455636Y-54549998D01*
X155455637Y-54550003D01*
X155455746Y-54550697D01*
X155455747Y-54550698D01*
X155456446Y-54550000D01*
X155455746Y-54549300D01*
X155455636Y-54549998D01*
X151018474Y-54549998D01*
X151048309Y-54520163D01*
X155660000Y-54520163D01*
X155660000Y-54579837D01*
X155682836Y-54634968D01*
X155725032Y-54677164D01*
X155780163Y-54700000D01*
X155839837Y-54700000D01*
X155894968Y-54677164D01*
X155937164Y-54634968D01*
X155960000Y-54579837D01*
X155960000Y-54549999D01*
X156163553Y-54549999D01*
X156164251Y-54550697D01*
X156165066Y-54550432D01*
X156325466Y-54550432D01*
X156351432Y-54566089D01*
X156360434Y-54584396D01*
X156375970Y-54558590D01*
X156393410Y-54549998D01*
X156553600Y-54549998D01*
X156555747Y-54550698D01*
X156556446Y-54550000D01*
X156555746Y-54549300D01*
X156553600Y-54549998D01*
X156393410Y-54549998D01*
X156394413Y-54549504D01*
X156368624Y-54533970D01*
X156361827Y-54520163D01*
X156760000Y-54520163D01*
X156760000Y-54579837D01*
X156782836Y-54634968D01*
X156825032Y-54677164D01*
X156880163Y-54700000D01*
X156939837Y-54700000D01*
X156994968Y-54677164D01*
X157037164Y-54634968D01*
X157060000Y-54579837D01*
X157060000Y-54549999D01*
X157263553Y-54549999D01*
X157264251Y-54550697D01*
X157265066Y-54550432D01*
X157425466Y-54550432D01*
X157451432Y-54566089D01*
X157460434Y-54584396D01*
X157475970Y-54558590D01*
X157493410Y-54549998D01*
X157653600Y-54549998D01*
X157655747Y-54550698D01*
X157656446Y-54550000D01*
X157655746Y-54549300D01*
X157653600Y-54549998D01*
X157493410Y-54549998D01*
X157494413Y-54549504D01*
X157468624Y-54533970D01*
X157461827Y-54520163D01*
X157860000Y-54520163D01*
X157860000Y-54579837D01*
X157882836Y-54634968D01*
X157925032Y-54677164D01*
X157980163Y-54700000D01*
X158039837Y-54700000D01*
X158094968Y-54677164D01*
X158137164Y-54634968D01*
X158160000Y-54579837D01*
X158160000Y-54549999D01*
X158363553Y-54549999D01*
X158364252Y-54550697D01*
X158364362Y-54550002D01*
X158364251Y-54549301D01*
X158363553Y-54549999D01*
X158160000Y-54549999D01*
X158160000Y-54520163D01*
X158137164Y-54465032D01*
X158094968Y-54422836D01*
X158039837Y-54400000D01*
X157980163Y-54400000D01*
X157925032Y-54422836D01*
X157882836Y-54465032D01*
X157860000Y-54520163D01*
X157461827Y-54520163D01*
X157459506Y-54515449D01*
X157443852Y-54541398D01*
X157425466Y-54550432D01*
X157265066Y-54550432D01*
X157266401Y-54549998D01*
X157264252Y-54549300D01*
X157263553Y-54549999D01*
X157060000Y-54549999D01*
X157060000Y-54520163D01*
X157037164Y-54465032D01*
X156994968Y-54422836D01*
X156939837Y-54400000D01*
X156880163Y-54400000D01*
X156825032Y-54422836D01*
X156782836Y-54465032D01*
X156760000Y-54520163D01*
X156361827Y-54520163D01*
X156359506Y-54515449D01*
X156343852Y-54541398D01*
X156325466Y-54550432D01*
X156165066Y-54550432D01*
X156166401Y-54549998D01*
X156164252Y-54549300D01*
X156163553Y-54549999D01*
X155960000Y-54549999D01*
X155960000Y-54520163D01*
X155937164Y-54465032D01*
X155894968Y-54422836D01*
X155839837Y-54400000D01*
X155780163Y-54400000D01*
X155725032Y-54422836D01*
X155682836Y-54465032D01*
X155660000Y-54520163D01*
X151048309Y-54520163D01*
X151214220Y-54354252D01*
X156359300Y-54354252D01*
X156359998Y-54356401D01*
X156360697Y-54354252D01*
X157459300Y-54354252D01*
X157459998Y-54356401D01*
X157460697Y-54354251D01*
X157459999Y-54353553D01*
X157459300Y-54354252D01*
X156360697Y-54354252D01*
X156360697Y-54354251D01*
X156359999Y-54353553D01*
X156359300Y-54354252D01*
X151214220Y-54354252D01*
X151372726Y-54195746D01*
X155809300Y-54195746D01*
X155810000Y-54196446D01*
X155810698Y-54195747D01*
X156909301Y-54195747D01*
X156910000Y-54196446D01*
X156910698Y-54195747D01*
X158009301Y-54195747D01*
X158010000Y-54196446D01*
X158010698Y-54195747D01*
X158010697Y-54195746D01*
X158010003Y-54195637D01*
X158009301Y-54195747D01*
X156910698Y-54195747D01*
X156910697Y-54195746D01*
X156910004Y-54195637D01*
X156910003Y-54195637D01*
X156909301Y-54195747D01*
X155810698Y-54195747D01*
X155810697Y-54195746D01*
X155810004Y-54195637D01*
X155809998Y-54195636D01*
X155809300Y-54195746D01*
X151372726Y-54195746D01*
X151568474Y-53999998D01*
X156005636Y-53999998D01*
X156005637Y-54000004D01*
X156005746Y-54000697D01*
X156005747Y-54000698D01*
X156006446Y-54000000D01*
X156005746Y-53999300D01*
X156005636Y-53999998D01*
X151568474Y-53999998D01*
X151598309Y-53970163D01*
X156210000Y-53970163D01*
X156210000Y-54029837D01*
X156232836Y-54084968D01*
X156275032Y-54127164D01*
X156330163Y-54150000D01*
X156389837Y-54150000D01*
X156444968Y-54127164D01*
X156487164Y-54084968D01*
X156510000Y-54029837D01*
X156510000Y-53999999D01*
X156713553Y-53999999D01*
X156714252Y-54000697D01*
X156714362Y-54000001D01*
X156714362Y-53999998D01*
X157105636Y-53999998D01*
X157105637Y-54000004D01*
X157105746Y-54000697D01*
X157105747Y-54000698D01*
X157106446Y-54000000D01*
X157105746Y-53999300D01*
X157105636Y-53999998D01*
X156714362Y-53999998D01*
X156714251Y-53999301D01*
X156713553Y-53999999D01*
X156510000Y-53999999D01*
X156510000Y-53970163D01*
X157310000Y-53970163D01*
X157310000Y-54029837D01*
X157332836Y-54084968D01*
X157375032Y-54127164D01*
X157430163Y-54150000D01*
X157489837Y-54150000D01*
X157544968Y-54127164D01*
X157587164Y-54084968D01*
X157610000Y-54029837D01*
X157610000Y-53999999D01*
X157813553Y-53999999D01*
X157814251Y-54000697D01*
X157814252Y-54000697D01*
X157814362Y-54000001D01*
X157814251Y-53999301D01*
X157813553Y-53999999D01*
X157610000Y-53999999D01*
X157610000Y-53970163D01*
X157587164Y-53915032D01*
X157544968Y-53872836D01*
X157489837Y-53850000D01*
X157430163Y-53850000D01*
X157375032Y-53872836D01*
X157332836Y-53915032D01*
X157310000Y-53970163D01*
X156510000Y-53970163D01*
X156487164Y-53915032D01*
X156444968Y-53872836D01*
X156389837Y-53850000D01*
X156330163Y-53850000D01*
X156275032Y-53872836D01*
X156232836Y-53915032D01*
X156210000Y-53970163D01*
X151598309Y-53970163D01*
X151922726Y-53645746D01*
X156359300Y-53645746D01*
X156360000Y-53646446D01*
X156360698Y-53645747D01*
X156360697Y-53645746D01*
X157459300Y-53645746D01*
X157460000Y-53646446D01*
X157460698Y-53645747D01*
X157460697Y-53645746D01*
X157460003Y-53645637D01*
X157459998Y-53645636D01*
X157459300Y-53645746D01*
X156360697Y-53645746D01*
X156360003Y-53645637D01*
X156359998Y-53645636D01*
X156359300Y-53645746D01*
X151922726Y-53645746D01*
X153931655Y-51636818D01*
X153992978Y-51603333D01*
X154019336Y-51600499D01*
X155150002Y-51600499D01*
X155150008Y-51600499D01*
X155252797Y-51589999D01*
X155419334Y-51534814D01*
X155568656Y-51442712D01*
X155692712Y-51318656D01*
X155784814Y-51169334D01*
X155839999Y-51002797D01*
X155850500Y-50900009D01*
X155850499Y-49499992D01*
X155839999Y-49397203D01*
X155784814Y-49230666D01*
X155692712Y-49081344D01*
X155568656Y-48957288D01*
X155475888Y-48900069D01*
X155419336Y-48865187D01*
X155419331Y-48865185D01*
X155417862Y-48864698D01*
X155252797Y-48810001D01*
X155252795Y-48810000D01*
X155150010Y-48799500D01*
X152049998Y-48799500D01*
X152049981Y-48799501D01*
X151947203Y-48810000D01*
X151947200Y-48810001D01*
X151780668Y-48865185D01*
X151780663Y-48865187D01*
X151631342Y-48957289D01*
X151507289Y-49081342D01*
X151415187Y-49230663D01*
X151415186Y-49230666D01*
X151360001Y-49397203D01*
X151360001Y-49397204D01*
X151360000Y-49397204D01*
X151349500Y-49499983D01*
X151349500Y-49937316D01*
X151329815Y-50004355D01*
X151277011Y-50050110D01*
X151207853Y-50060054D01*
X151144297Y-50031029D01*
X151110939Y-49984770D01*
X151108963Y-49980000D01*
X151086631Y-49926086D01*
X151086629Y-49926083D01*
X151086627Y-49926079D01*
X150977139Y-49762219D01*
X150977136Y-49762215D01*
X150181479Y-48966559D01*
X150181459Y-48966537D01*
X150037785Y-48822863D01*
X150037781Y-48822860D01*
X149873920Y-48713371D01*
X149873911Y-48713366D01*
X149801315Y-48683296D01*
X149745165Y-48660038D01*
X149691836Y-48637949D01*
X149691832Y-48637948D01*
X149691828Y-48637946D01*
X149595188Y-48618724D01*
X149498544Y-48599500D01*
X149498541Y-48599500D01*
X146238799Y-48599500D01*
X146171760Y-48579815D01*
X146126005Y-48527011D01*
X146116061Y-48457853D01*
X146145086Y-48394297D01*
X146182504Y-48365015D01*
X146192993Y-48359670D01*
X146286788Y-48311880D01*
X146426928Y-48210062D01*
X146549414Y-48087576D01*
X146651232Y-47947436D01*
X146724360Y-47803913D01*
X146772334Y-47753117D01*
X146840155Y-47736321D01*
X146906290Y-47758858D01*
X146922526Y-47772526D01*
X146950000Y-47800000D01*
X164950000Y-47800000D01*
X164950000Y-47324000D01*
X164969685Y-47256961D01*
X165022489Y-47211206D01*
X165074000Y-47200000D01*
X178275500Y-47200000D01*
X178342539Y-47219685D01*
X178388294Y-47272489D01*
X178399500Y-47324000D01*
X178399500Y-81892662D01*
X178379815Y-81959701D01*
X178327011Y-82005456D01*
X178257853Y-82015400D01*
X178194297Y-81986375D01*
X178187819Y-81980343D01*
X178187500Y-81980024D01*
X178187500Y-83419975D01*
X178187819Y-83419657D01*
X178249142Y-83386172D01*
X178318834Y-83391156D01*
X178374767Y-83433028D01*
X178399184Y-83498492D01*
X178399500Y-83507338D01*
X178399500Y-84089991D01*
X178379815Y-84157030D01*
X178327011Y-84202785D01*
X178257853Y-84212729D01*
X178194297Y-84183704D01*
X178169938Y-84152042D01*
X178169756Y-84152172D01*
X178166120Y-84147079D01*
X178164101Y-84144455D01*
X178163785Y-84143809D01*
X178125000Y-84105024D01*
X178125000Y-85494975D01*
X178163785Y-85456190D01*
X178164099Y-85455549D01*
X178164760Y-85454825D01*
X178169756Y-85447828D01*
X178170601Y-85448431D01*
X178211226Y-85403966D01*
X178278760Y-85386051D01*
X178345259Y-85407491D01*
X178389610Y-85461480D01*
X178399500Y-85510008D01*
X178399500Y-109125500D01*
X178379815Y-109192539D01*
X178327011Y-109238294D01*
X178275500Y-109249500D01*
X136124500Y-109249500D01*
X136057461Y-109229815D01*
X136011706Y-109177011D01*
X136000500Y-109125500D01*
X136000500Y-107662500D01*
X157117524Y-107662500D01*
X157156308Y-107701284D01*
X157250000Y-107747086D01*
X158425000Y-107747086D01*
X158518691Y-107701284D01*
X158557475Y-107662500D01*
X158425000Y-107662500D01*
X158425000Y-107747086D01*
X157250000Y-107747086D01*
X157250000Y-107662500D01*
X157117524Y-107662500D01*
X136000500Y-107662500D01*
X136000500Y-99833217D01*
X139100001Y-99833217D01*
X139109912Y-99901249D01*
X139161215Y-100006191D01*
X139199999Y-100044975D01*
X140600000Y-100044975D01*
X140638787Y-100006188D01*
X140690087Y-99901251D01*
X140690088Y-99901248D01*
X140700000Y-99833219D01*
X140700000Y-99700000D01*
X140600000Y-99700000D01*
X140600000Y-100044975D01*
X139199999Y-100044975D01*
X139200000Y-100044974D01*
X139200000Y-99700000D01*
X139100001Y-99700000D01*
X139100001Y-99833217D01*
X136000500Y-99833217D01*
X136000500Y-98166780D01*
X139100000Y-98166780D01*
X139100000Y-98300000D01*
X139200000Y-98300000D01*
X140600000Y-98300000D01*
X140699999Y-98300000D01*
X140699999Y-98166782D01*
X140690087Y-98098750D01*
X140638784Y-97993808D01*
X140600000Y-97955024D01*
X140600000Y-98300000D01*
X139200000Y-98300000D01*
X139200000Y-97955025D01*
X139199999Y-97955024D01*
X139161212Y-97993811D01*
X139109912Y-98098748D01*
X139109911Y-98098751D01*
X139100000Y-98166780D01*
X136000500Y-98166780D01*
X136000500Y-95029995D01*
X137524357Y-95029995D01*
X137524357Y-95030004D01*
X137529076Y-95086948D01*
X137529500Y-95097189D01*
X137529500Y-95148096D01*
X137538514Y-95205005D01*
X137539615Y-95214147D01*
X137543121Y-95256450D01*
X137544892Y-95277824D01*
X137557270Y-95326703D01*
X137559537Y-95337743D01*
X137566447Y-95381368D01*
X137582245Y-95429992D01*
X137586332Y-95442569D01*
X137588606Y-95450446D01*
X137605935Y-95518874D01*
X137605939Y-95518887D01*
X137623487Y-95558892D01*
X137627862Y-95570384D01*
X137639430Y-95605989D01*
X137639432Y-95605992D01*
X137671696Y-95669314D01*
X137674767Y-95675798D01*
X137705826Y-95746606D01*
X137705829Y-95746610D01*
X137726038Y-95777542D01*
X137732711Y-95789062D01*
X137743668Y-95810567D01*
X137746658Y-95816434D01*
X137746664Y-95816443D01*
X137792379Y-95879365D01*
X137795870Y-95884429D01*
X137841834Y-95954782D01*
X137841836Y-95954785D01*
X137862309Y-95977025D01*
X137871395Y-95988119D01*
X137885481Y-96007508D01*
X137945216Y-96067243D01*
X137948764Y-96070941D01*
X138010252Y-96137734D01*
X138010256Y-96137738D01*
X138028791Y-96152164D01*
X138040310Y-96162337D01*
X138052490Y-96174517D01*
X138052493Y-96174519D01*
X138126263Y-96228116D01*
X138129527Y-96230570D01*
X138206491Y-96290474D01*
X138221214Y-96298442D01*
X138235079Y-96307176D01*
X138243567Y-96313343D01*
X138330825Y-96357803D01*
X138333503Y-96359209D01*
X138425190Y-96408828D01*
X138434643Y-96412073D01*
X138450673Y-96418869D01*
X138454008Y-96420568D01*
X138454013Y-96420569D01*
X138454014Y-96420570D01*
X138553517Y-96452900D01*
X138555381Y-96453522D01*
X138660386Y-96489571D01*
X138661166Y-96489701D01*
X138663583Y-96490105D01*
X138673842Y-96492612D01*
X138673890Y-96492415D01*
X138678623Y-96493550D01*
X138678632Y-96493553D01*
X138745387Y-96504125D01*
X138788639Y-96510976D01*
X138789562Y-96511125D01*
X138905665Y-96530500D01*
X138905666Y-96530500D01*
X144188097Y-96530500D01*
X144421368Y-96493553D01*
X144433623Y-96489571D01*
X144645992Y-96420568D01*
X144856433Y-96313343D01*
X145047510Y-96174517D01*
X145214517Y-96007510D01*
X145353343Y-95816433D01*
X145385015Y-95754272D01*
X145432989Y-95703477D01*
X145500810Y-95686681D01*
X145566945Y-95709218D01*
X145610397Y-95763933D01*
X145619500Y-95810567D01*
X145619500Y-96240001D01*
X145619501Y-96240019D01*
X145630000Y-96342796D01*
X145630001Y-96342799D01*
X145685185Y-96509331D01*
X145685189Y-96509340D01*
X145756903Y-96625607D01*
X145775343Y-96692999D01*
X145754420Y-96759663D01*
X145700778Y-96804432D01*
X145665855Y-96813853D01*
X145493932Y-96834079D01*
X145471243Y-96836749D01*
X145460621Y-96838262D01*
X145443144Y-96839500D01*
X145151456Y-96839500D01*
X144958171Y-96877947D01*
X144958163Y-96877949D01*
X144911476Y-96897288D01*
X144911475Y-96897288D01*
X144776092Y-96953364D01*
X144776080Y-96953371D01*
X144689319Y-97011344D01*
X144689318Y-97011345D01*
X144612215Y-97062862D01*
X144261896Y-97413181D01*
X144200573Y-97446666D01*
X144174215Y-97449500D01*
X143799998Y-97449500D01*
X143799980Y-97449501D01*
X143697203Y-97460000D01*
X143697200Y-97460001D01*
X143530668Y-97515185D01*
X143530663Y-97515187D01*
X143381342Y-97607289D01*
X143257289Y-97731342D01*
X143165187Y-97880663D01*
X143165186Y-97880666D01*
X143110001Y-98047203D01*
X143110001Y-98047204D01*
X143110000Y-98047204D01*
X143099500Y-98149983D01*
X143099500Y-98524217D01*
X143079815Y-98591256D01*
X143063181Y-98611898D01*
X141959720Y-99715359D01*
X141959718Y-99715361D01*
X141890038Y-99785040D01*
X141820359Y-99854719D01*
X141710871Y-100018579D01*
X141710865Y-100018591D01*
X141697621Y-100050564D01*
X141653779Y-100104967D01*
X141622066Y-100120815D01*
X141488165Y-100165186D01*
X141488162Y-100165187D01*
X141338842Y-100257289D01*
X141214789Y-100381342D01*
X141122687Y-100530662D01*
X141122685Y-100530667D01*
X141110777Y-100566604D01*
X141067501Y-100697202D01*
X141067501Y-100697203D01*
X141067500Y-100697203D01*
X141057000Y-100799982D01*
X141057000Y-104000017D01*
X141067500Y-104102796D01*
X141097843Y-104194364D01*
X141122686Y-104269335D01*
X141214788Y-104418656D01*
X141338844Y-104542712D01*
X141488165Y-104634814D01*
X141654702Y-104689999D01*
X141757490Y-104700500D01*
X141757495Y-104700500D01*
X143437505Y-104700500D01*
X143437510Y-104700500D01*
X143540298Y-104689999D01*
X143706835Y-104634814D01*
X143856156Y-104542712D01*
X143980212Y-104418656D01*
X144072314Y-104269335D01*
X144127499Y-104102798D01*
X144138000Y-104000010D01*
X144138000Y-100854295D01*
X144138193Y-100847374D01*
X144139019Y-100832598D01*
X144140730Y-100801994D01*
X144130555Y-100685266D01*
X144144344Y-100616771D01*
X144192976Y-100566604D01*
X144254087Y-100550499D01*
X144800002Y-100550499D01*
X144800008Y-100550499D01*
X144902797Y-100539999D01*
X145069334Y-100484814D01*
X145218656Y-100392712D01*
X145342712Y-100268656D01*
X145434814Y-100119334D01*
X145489999Y-99952797D01*
X145500500Y-99850009D01*
X145500499Y-99055781D01*
X145520183Y-98988743D01*
X145536813Y-98968106D01*
X145599136Y-98905783D01*
X145660457Y-98872300D01*
X145701297Y-98870315D01*
X146304256Y-98941252D01*
X146304273Y-98941252D01*
X146304274Y-98941253D01*
X146307543Y-98941424D01*
X146369367Y-98944678D01*
X146372376Y-98944642D01*
X146396082Y-98941543D01*
X146412150Y-98940499D01*
X147320002Y-98940499D01*
X147320008Y-98940499D01*
X147422797Y-98929999D01*
X147589334Y-98874814D01*
X147738656Y-98782712D01*
X147853634Y-98667733D01*
X147914953Y-98634251D01*
X147984645Y-98639235D01*
X148040579Y-98681106D01*
X148063893Y-98736712D01*
X148118081Y-99091818D01*
X148119500Y-99110523D01*
X148119500Y-99980266D01*
X148099815Y-100047305D01*
X148047011Y-100093060D01*
X148001835Y-100104104D01*
X147883238Y-100110171D01*
X147857507Y-100108807D01*
X147852714Y-100108048D01*
X147798740Y-100099500D01*
X147556260Y-100099500D01*
X147556255Y-100099500D01*
X147316763Y-100137432D01*
X147086155Y-100212360D01*
X146870098Y-100322448D01*
X146673937Y-100464966D01*
X146673932Y-100464970D01*
X146502473Y-100636430D01*
X146502466Y-100636437D01*
X146359948Y-100832598D01*
X146249860Y-101048655D01*
X146174932Y-101279263D01*
X146137000Y-101518754D01*
X146137000Y-103281245D01*
X146174932Y-103520736D01*
X146249861Y-103751346D01*
X146249863Y-103751351D01*
X146252112Y-103755765D01*
X146260587Y-103777072D01*
X146549213Y-104758679D01*
X146549239Y-104828548D01*
X146547955Y-104832661D01*
X146510001Y-104947199D01*
X146499500Y-105049983D01*
X146499500Y-106750001D01*
X146499501Y-106750018D01*
X146510000Y-106852796D01*
X146510001Y-106852799D01*
X146527693Y-106906188D01*
X146565186Y-107019334D01*
X146657288Y-107168656D01*
X146781344Y-107292712D01*
X146930666Y-107384814D01*
X147097203Y-107439999D01*
X147199991Y-107450500D01*
X148200008Y-107450499D01*
X148200016Y-107450498D01*
X148200019Y-107450498D01*
X148256302Y-107444748D01*
X148302797Y-107439999D01*
X148469334Y-107384814D01*
X148618656Y-107292712D01*
X148742712Y-107168656D01*
X148834814Y-107019334D01*
X148889999Y-106852797D01*
X148900500Y-106750009D01*
X148900500Y-106733217D01*
X151300001Y-106733217D01*
X151309912Y-106801249D01*
X151361215Y-106906191D01*
X151399999Y-106944975D01*
X152800000Y-106944975D01*
X152838787Y-106906188D01*
X152890087Y-106801251D01*
X152890088Y-106801248D01*
X152900000Y-106733219D01*
X152900000Y-106600000D01*
X152800000Y-106600000D01*
X152800000Y-106944975D01*
X151399999Y-106944975D01*
X151400000Y-106944974D01*
X151400000Y-106600000D01*
X151300001Y-106600000D01*
X151300001Y-106733217D01*
X148900500Y-106733217D01*
X148900499Y-105066780D01*
X151300000Y-105066780D01*
X151300000Y-105200000D01*
X151400000Y-105200000D01*
X152800000Y-105200000D01*
X152899999Y-105200000D01*
X152899999Y-105066782D01*
X152890087Y-104998750D01*
X152838784Y-104893808D01*
X152800000Y-104855024D01*
X152800000Y-105200000D01*
X151400000Y-105200000D01*
X151400000Y-104855025D01*
X151399999Y-104855024D01*
X151361212Y-104893811D01*
X151309912Y-104998748D01*
X151309911Y-104998751D01*
X151300000Y-105066780D01*
X148900499Y-105066780D01*
X148900499Y-105049992D01*
X148889999Y-104947203D01*
X148845144Y-104811842D01*
X148842743Y-104742015D01*
X148843184Y-104740346D01*
X149144436Y-103630876D01*
X149146161Y-103625087D01*
X149180068Y-103520735D01*
X149192855Y-103440000D01*
X151649811Y-103440000D01*
X151701020Y-103597606D01*
X151701023Y-103597613D01*
X151717499Y-103629948D01*
X151717500Y-103629948D01*
X153797500Y-103629948D01*
X153813976Y-103597613D01*
X153813979Y-103597606D01*
X153865189Y-103440000D01*
X153797500Y-103440000D01*
X153797500Y-103629948D01*
X151717500Y-103629948D01*
X151717500Y-103440000D01*
X151649811Y-103440000D01*
X149192855Y-103440000D01*
X149199585Y-103397510D01*
X149218000Y-103281245D01*
X149218000Y-102833109D01*
X149227958Y-102784423D01*
X149250520Y-102731574D01*
X149421506Y-102331056D01*
X152057500Y-102331056D01*
X152057500Y-102468944D01*
X152084401Y-102604182D01*
X152137168Y-102731574D01*
X152213774Y-102846224D01*
X152311276Y-102943726D01*
X152425926Y-103020332D01*
X152553318Y-103073099D01*
X152688556Y-103100000D01*
X152826444Y-103100000D01*
X152961682Y-103073099D01*
X153089074Y-103020332D01*
X153203724Y-102943726D01*
X153301226Y-102846224D01*
X153377832Y-102731574D01*
X153430599Y-102604182D01*
X153457500Y-102468944D01*
X153457500Y-102331056D01*
X153430599Y-102195818D01*
X153377832Y-102068426D01*
X153301226Y-101953776D01*
X153203724Y-101856274D01*
X153089074Y-101779668D01*
X152961682Y-101726901D01*
X152826444Y-101700000D01*
X152688556Y-101700000D01*
X152553318Y-101726901D01*
X152425926Y-101779668D01*
X152311276Y-101856274D01*
X152213774Y-101953776D01*
X152137168Y-102068426D01*
X152084401Y-102195818D01*
X152057500Y-102331056D01*
X149421506Y-102331056D01*
X149605887Y-101899163D01*
X149632244Y-101860174D01*
X149757778Y-101734641D01*
X149757782Y-101734639D01*
X149897139Y-101595282D01*
X150006632Y-101431414D01*
X150036213Y-101359999D01*
X151649811Y-101359999D01*
X151649811Y-101360000D01*
X151717500Y-101360000D01*
X153797500Y-101360000D01*
X153865189Y-101360000D01*
X153865188Y-101359999D01*
X153813977Y-101202389D01*
X153797500Y-101170049D01*
X153797500Y-101360000D01*
X151717500Y-101360000D01*
X151717500Y-101170050D01*
X151717499Y-101170049D01*
X151701022Y-101202389D01*
X151649811Y-101359999D01*
X150036213Y-101359999D01*
X150082051Y-101249335D01*
X150120500Y-101056041D01*
X150120500Y-99110523D01*
X150121919Y-99091818D01*
X150186630Y-98667736D01*
X150194557Y-98615785D01*
X150211598Y-98569396D01*
X150254814Y-98499334D01*
X150309999Y-98332797D01*
X150320500Y-98230009D01*
X150320499Y-97429992D01*
X150309999Y-97327203D01*
X150254814Y-97160666D01*
X150162712Y-97011344D01*
X150069049Y-96917681D01*
X150035564Y-96856358D01*
X150040548Y-96786666D01*
X150069049Y-96742319D01*
X150085727Y-96725641D01*
X150162712Y-96648656D01*
X150254814Y-96499334D01*
X150309999Y-96332797D01*
X150320500Y-96230009D01*
X150320499Y-95429992D01*
X150309999Y-95327203D01*
X150254814Y-95160666D01*
X150254810Y-95160660D01*
X150254809Y-95160657D01*
X150211600Y-95090605D01*
X150194557Y-95044213D01*
X150169879Y-94882486D01*
X151029500Y-94882486D01*
X151029500Y-96387505D01*
X151063880Y-96648657D01*
X151068006Y-96679993D01*
X151126231Y-96897288D01*
X151141257Y-96953368D01*
X151144362Y-96964954D01*
X151144364Y-96964961D01*
X151257254Y-97237500D01*
X151257258Y-97237510D01*
X151404761Y-97492993D01*
X151584352Y-97727040D01*
X151584358Y-97727047D01*
X151796054Y-97938743D01*
X151796084Y-97938771D01*
X155550681Y-101693368D01*
X155584166Y-101754691D01*
X155587000Y-101781049D01*
X155587000Y-102547513D01*
X155611233Y-102731574D01*
X155625507Y-102839993D01*
X155687967Y-103073099D01*
X155701861Y-103124951D01*
X155701864Y-103124961D01*
X155814754Y-103397500D01*
X155814758Y-103397510D01*
X155962261Y-103652993D01*
X156141852Y-103887040D01*
X156141858Y-103887047D01*
X156350449Y-104095638D01*
X156350457Y-104095645D01*
X156405571Y-104137936D01*
X156446773Y-104194364D01*
X156452576Y-104217035D01*
X156585493Y-105061732D01*
X156587000Y-105081000D01*
X156587000Y-105098421D01*
X156610473Y-105246625D01*
X156612000Y-105266022D01*
X156612000Y-105387500D01*
X156612001Y-105387519D01*
X156622500Y-105490296D01*
X156622501Y-105490299D01*
X156652397Y-105580518D01*
X156677686Y-105656834D01*
X156769788Y-105806156D01*
X156893844Y-105930212D01*
X157043166Y-106022314D01*
X157166588Y-106063211D01*
X157183874Y-106070431D01*
X157352768Y-106156486D01*
X157403565Y-106204460D01*
X157420360Y-106272281D01*
X157397823Y-106338416D01*
X157343108Y-106381868D01*
X157314352Y-106389675D01*
X157261253Y-106397411D01*
X157156308Y-106448715D01*
X157117524Y-106487499D01*
X157117525Y-106487500D01*
X158557475Y-106487500D01*
X158557475Y-106487499D01*
X158518688Y-106448712D01*
X158413751Y-106397412D01*
X158413748Y-106397411D01*
X158360648Y-106389675D01*
X158297147Y-106360531D01*
X158259483Y-106301682D01*
X158259615Y-106231813D01*
X158297500Y-106173106D01*
X158322231Y-106156486D01*
X158491138Y-106070424D01*
X158508398Y-106063215D01*
X158631834Y-106022314D01*
X158781156Y-105930212D01*
X158905212Y-105806156D01*
X158997314Y-105656834D01*
X159052499Y-105490297D01*
X159063000Y-105387509D01*
X159062999Y-105266019D01*
X159064526Y-105246621D01*
X159071910Y-105200000D01*
X159088000Y-105098417D01*
X159088000Y-105080999D01*
X159089506Y-105061733D01*
X159222421Y-104217035D01*
X159252287Y-104153872D01*
X159269422Y-104137940D01*
X159324542Y-104095646D01*
X159533146Y-103887042D01*
X159712738Y-103652994D01*
X159860243Y-103397507D01*
X159973139Y-103124952D01*
X160049493Y-102839993D01*
X160088000Y-102547506D01*
X160088000Y-100649994D01*
X160086214Y-100636431D01*
X160049494Y-100357507D01*
X159973139Y-100072548D01*
X159908899Y-99917460D01*
X159860248Y-99800004D01*
X159860241Y-99799989D01*
X159712738Y-99544506D01*
X159533147Y-99310459D01*
X159533142Y-99310453D01*
X159324542Y-99101854D01*
X155566819Y-95344131D01*
X155533334Y-95282808D01*
X155530500Y-95256450D01*
X155530500Y-94882500D01*
X155530499Y-94882486D01*
X155522397Y-94820945D01*
X155491993Y-94590007D01*
X155415639Y-94305048D01*
X155302743Y-94032493D01*
X155278748Y-93990933D01*
X155155238Y-93777006D01*
X154975647Y-93542959D01*
X154975641Y-93542952D01*
X154767051Y-93334362D01*
X154767042Y-93334354D01*
X154685941Y-93272122D01*
X154644738Y-93215694D01*
X154638386Y-93158370D01*
X154741017Y-92337316D01*
X154743850Y-92322270D01*
X154755108Y-92277821D01*
X154767982Y-92122448D01*
X154768506Y-92117406D01*
X154769953Y-92105836D01*
X154772871Y-92074691D01*
X154772961Y-92073252D01*
X154772914Y-92071132D01*
X154773307Y-92058176D01*
X154775643Y-92030000D01*
X154764290Y-91892993D01*
X154755109Y-91782187D01*
X154755107Y-91782175D01*
X154694063Y-91541118D01*
X154594173Y-91313393D01*
X154458166Y-91105217D01*
X154436557Y-91081744D01*
X154289744Y-90922262D01*
X154093509Y-90769526D01*
X154093507Y-90769525D01*
X154093506Y-90769524D01*
X153874811Y-90651172D01*
X153874802Y-90651169D01*
X153639616Y-90570429D01*
X153394335Y-90529500D01*
X153145665Y-90529500D01*
X152900383Y-90570429D01*
X152665197Y-90651169D01*
X152665188Y-90651172D01*
X152446493Y-90769524D01*
X152250257Y-90922261D01*
X152081833Y-91105217D01*
X151945826Y-91313393D01*
X151845936Y-91541118D01*
X151784892Y-91782175D01*
X151784890Y-91782187D01*
X151764357Y-92029994D01*
X151764357Y-92029997D01*
X151769636Y-92093722D01*
X151769996Y-92104902D01*
X151770046Y-92105848D01*
X151771490Y-92117391D01*
X151772024Y-92122534D01*
X151784891Y-92277817D01*
X151796145Y-92322258D01*
X151798981Y-92337318D01*
X151903362Y-93172371D01*
X151892145Y-93241334D01*
X151855808Y-93286126D01*
X151792958Y-93334353D01*
X151792956Y-93334355D01*
X151584357Y-93542953D01*
X151584352Y-93542959D01*
X151404761Y-93777006D01*
X151257258Y-94032489D01*
X151257254Y-94032499D01*
X151144364Y-94305038D01*
X151144361Y-94305048D01*
X151076224Y-94559343D01*
X151068008Y-94590004D01*
X151068006Y-94590015D01*
X151029500Y-94882486D01*
X150169879Y-94882486D01*
X150154572Y-94782171D01*
X150121918Y-94568183D01*
X150120500Y-94549480D01*
X150120500Y-93961456D01*
X150082052Y-93768170D01*
X150082051Y-93768169D01*
X150082051Y-93768165D01*
X150047363Y-93684420D01*
X150006635Y-93586092D01*
X150006628Y-93586079D01*
X149897139Y-93422218D01*
X149897136Y-93422214D01*
X149857103Y-93382181D01*
X149823618Y-93320858D01*
X149828602Y-93251166D01*
X149870474Y-93195233D01*
X149935938Y-93170816D01*
X149944784Y-93170500D01*
X150598543Y-93170500D01*
X150728582Y-93144632D01*
X150791835Y-93132051D01*
X150971705Y-93057547D01*
X150973907Y-93056635D01*
X150973907Y-93056634D01*
X150973914Y-93056632D01*
X151137782Y-92947139D01*
X151277139Y-92807782D01*
X151386632Y-92643914D01*
X151462051Y-92461835D01*
X151498654Y-92277821D01*
X151500500Y-92268543D01*
X151500500Y-92071456D01*
X151462052Y-91878170D01*
X151462051Y-91878169D01*
X151462051Y-91878165D01*
X151404421Y-91739032D01*
X151386635Y-91696092D01*
X151386628Y-91696079D01*
X151277139Y-91532218D01*
X151277136Y-91532214D01*
X151137785Y-91392863D01*
X151137781Y-91392860D01*
X150973920Y-91283371D01*
X150973907Y-91283364D01*
X150791839Y-91207950D01*
X150791829Y-91207947D01*
X150598543Y-91169500D01*
X150598541Y-91169500D01*
X147821459Y-91169500D01*
X147821455Y-91169500D01*
X147724812Y-91188724D01*
X147628171Y-91207947D01*
X147628163Y-91207949D01*
X147599131Y-91219975D01*
X147599130Y-91219975D01*
X147446092Y-91283364D01*
X147446079Y-91283371D01*
X147282219Y-91392859D01*
X147212540Y-91462538D01*
X147142861Y-91532218D01*
X147142858Y-91532221D01*
X146182221Y-92492858D01*
X146182218Y-92492861D01*
X146112538Y-92562540D01*
X146042859Y-92632219D01*
X145933369Y-92796082D01*
X145883539Y-92916385D01*
X145857948Y-92978165D01*
X145856136Y-92987279D01*
X145856135Y-92987283D01*
X145819500Y-93171456D01*
X145819500Y-94559486D01*
X145818082Y-94578185D01*
X145795246Y-94727832D01*
X145790959Y-94755927D01*
X145761387Y-94819229D01*
X145702285Y-94856495D01*
X145632418Y-94855892D01*
X145573968Y-94817612D01*
X145545905Y-94756619D01*
X145540463Y-94722260D01*
X145533553Y-94678632D01*
X145460568Y-94454008D01*
X145460566Y-94454004D01*
X145460566Y-94454003D01*
X145373154Y-94282449D01*
X145353343Y-94243567D01*
X145214517Y-94052490D01*
X145047510Y-93885483D01*
X144856433Y-93746657D01*
X144835090Y-93735782D01*
X144645996Y-93639433D01*
X144421368Y-93566446D01*
X144188097Y-93529500D01*
X144188092Y-93529500D01*
X141898092Y-93529500D01*
X139154335Y-93529500D01*
X138905665Y-93529500D01*
X138905664Y-93529500D01*
X138789571Y-93548871D01*
X138788562Y-93549035D01*
X138678633Y-93566446D01*
X138673893Y-93567584D01*
X138673846Y-93567388D01*
X138663599Y-93569892D01*
X138660388Y-93570428D01*
X138555443Y-93606454D01*
X138553503Y-93607102D01*
X138454005Y-93639432D01*
X138453997Y-93639436D01*
X138450652Y-93641140D01*
X138434662Y-93647918D01*
X138425197Y-93651168D01*
X138425194Y-93651170D01*
X138333525Y-93700777D01*
X138330806Y-93702205D01*
X138243563Y-93746659D01*
X138243557Y-93746662D01*
X138235072Y-93752827D01*
X138221222Y-93761553D01*
X138206492Y-93769525D01*
X138206485Y-93769530D01*
X138129547Y-93829411D01*
X138126275Y-93831872D01*
X138052491Y-93885482D01*
X138040297Y-93897674D01*
X138028792Y-93907833D01*
X138010259Y-93922258D01*
X138010256Y-93922261D01*
X137948776Y-93989045D01*
X137945231Y-93992739D01*
X137885483Y-94052489D01*
X137885478Y-94052495D01*
X137871393Y-94071881D01*
X137862310Y-94082973D01*
X137841834Y-94105216D01*
X137795857Y-94175589D01*
X137792367Y-94180651D01*
X137746657Y-94243565D01*
X137732716Y-94270926D01*
X137726042Y-94282449D01*
X137705829Y-94313387D01*
X137705828Y-94313389D01*
X137674762Y-94384209D01*
X137671694Y-94390688D01*
X137639433Y-94454004D01*
X137639432Y-94454009D01*
X137627859Y-94489623D01*
X137623486Y-94501109D01*
X137605939Y-94541112D01*
X137605936Y-94541123D01*
X137588605Y-94609557D01*
X137586331Y-94617432D01*
X137566448Y-94678625D01*
X137559536Y-94722260D01*
X137557269Y-94733295D01*
X137544893Y-94782171D01*
X137544892Y-94782177D01*
X137544892Y-94782179D01*
X137539615Y-94845854D01*
X137538514Y-94854995D01*
X137529500Y-94911903D01*
X137529500Y-94962809D01*
X137529076Y-94973050D01*
X137524357Y-95029995D01*
X136000500Y-95029995D01*
X136000500Y-82840146D01*
X138105000Y-82840146D01*
X138105000Y-83075000D01*
X138205000Y-83075000D01*
X138205000Y-82750000D01*
X138195147Y-82750001D01*
X138165984Y-82755801D01*
X138165981Y-82755802D01*
X138132904Y-82777904D01*
X138110801Y-82810983D01*
X138110800Y-82810984D01*
X138105000Y-82840146D01*
X136000500Y-82840146D01*
X136000500Y-47212500D01*
X141152912Y-47212500D01*
X141237500Y-47212500D01*
X142412500Y-47212500D01*
X142497088Y-47212500D01*
X142451285Y-47118809D01*
X142412500Y-47080024D01*
X142412500Y-47212500D01*
X141237500Y-47212500D01*
X141237500Y-47080025D01*
X141237499Y-47080024D01*
X141198714Y-47118809D01*
X141152912Y-47212500D01*
X136000500Y-47212500D01*
X136000500Y-46387500D01*
X141152912Y-46387500D01*
X141198714Y-46481190D01*
X141237499Y-46519975D01*
X142412500Y-46519975D01*
X142451285Y-46481190D01*
X142497088Y-46387500D01*
X142412500Y-46387500D01*
X142412500Y-46519975D01*
X141237499Y-46519975D01*
X141237500Y-46519974D01*
X141237500Y-46387500D01*
X141152912Y-46387500D01*
X136000500Y-46387500D01*
X136000500Y-45212500D01*
X141152912Y-45212500D01*
X141237500Y-45212500D01*
X142412500Y-45212500D01*
X142497088Y-45212500D01*
X142451285Y-45118809D01*
X142412500Y-45080024D01*
X142412500Y-45212500D01*
X141237500Y-45212500D01*
X141237500Y-45080025D01*
X141237499Y-45080024D01*
X141198714Y-45118809D01*
X141152912Y-45212500D01*
X136000500Y-45212500D01*
X136000500Y-44614000D01*
X136020185Y-44546961D01*
X136072989Y-44501206D01*
X136124500Y-44490000D01*
X143049417Y-44490000D01*
X143116456Y-44509685D01*
G37*
%TD.AperFunction*%
%TA.AperFunction,Conductor*%
G36*
X172958400Y-82268880D02*
G01*
X173013577Y-82311743D01*
X173036822Y-82377632D01*
X173037000Y-82384270D01*
X173037000Y-83862691D01*
X173017315Y-83929730D01*
X172964511Y-83975485D01*
X172895353Y-83985429D01*
X172831797Y-83956404D01*
X172825319Y-83950372D01*
X172776870Y-83901923D01*
X172776862Y-83901917D01*
X172698681Y-83855681D01*
X172635398Y-83818256D01*
X172635397Y-83818255D01*
X172635396Y-83818255D01*
X172635394Y-83818254D01*
X172625609Y-83815411D01*
X172566725Y-83777802D01*
X172537521Y-83714328D01*
X172547270Y-83645142D01*
X172557108Y-83627444D01*
X172575446Y-83600000D01*
X170524554Y-83600000D01*
X170542892Y-83627445D01*
X170563770Y-83694122D01*
X170545286Y-83761503D01*
X170493307Y-83808193D01*
X170474392Y-83815410D01*
X170464609Y-83818252D01*
X170464603Y-83818255D01*
X170407152Y-83852232D01*
X170344031Y-83869500D01*
X170261003Y-83869500D01*
X170152590Y-83891065D01*
X170152589Y-83891065D01*
X170136379Y-83894289D01*
X170125669Y-83896420D01*
X170079970Y-83915350D01*
X169998191Y-83949223D01*
X169887989Y-84022859D01*
X169887987Y-84022860D01*
X169883460Y-84025884D01*
X169883455Y-84025888D01*
X169235888Y-84673453D01*
X169235887Y-84673454D01*
X169159222Y-84788192D01*
X169106421Y-84915667D01*
X169106418Y-84915678D01*
X169081595Y-85040475D01*
X169081212Y-85042402D01*
X169079500Y-85051007D01*
X169079500Y-86541006D01*
X169079500Y-86678994D01*
X169079500Y-86678996D01*
X169079499Y-86678996D01*
X169106418Y-86814322D01*
X169106421Y-86814332D01*
X169159222Y-86941807D01*
X169235887Y-87056545D01*
X169833454Y-87654112D01*
X169948192Y-87730777D01*
X170065177Y-87779233D01*
X170075672Y-87783580D01*
X170075676Y-87783580D01*
X170075677Y-87783581D01*
X170211003Y-87810500D01*
X170211006Y-87810500D01*
X170211007Y-87810500D01*
X170344031Y-87810500D01*
X170407151Y-87827767D01*
X170464602Y-87861744D01*
X170466189Y-87862205D01*
X170622426Y-87907597D01*
X170622429Y-87907597D01*
X170622431Y-87907598D01*
X170659306Y-87910500D01*
X171308481Y-87910500D01*
X171375520Y-87930185D01*
X171396162Y-87946819D01*
X171482596Y-88033253D01*
X171515424Y-88091718D01*
X171594050Y-88416026D01*
X171601835Y-88448138D01*
X171604521Y-88459217D01*
X171608928Y-88477395D01*
X171611738Y-88493643D01*
X171614325Y-88518256D01*
X171614326Y-88518257D01*
X171630622Y-88568412D01*
X171633198Y-88577503D01*
X171635967Y-88588923D01*
X171646498Y-88626095D01*
X171647049Y-88627790D01*
X171656557Y-88649914D01*
X171660558Y-88660545D01*
X171672819Y-88698279D01*
X171672821Y-88698285D01*
X171686621Y-88722187D01*
X171767467Y-88862216D01*
X171864521Y-88970005D01*
X171894129Y-89002888D01*
X172047265Y-89114148D01*
X172047270Y-89114151D01*
X172220192Y-89191142D01*
X172220197Y-89191144D01*
X172405354Y-89230500D01*
X172405355Y-89230500D01*
X172594644Y-89230500D01*
X172594646Y-89230500D01*
X172779803Y-89191144D01*
X172837820Y-89165312D01*
X172907068Y-89156027D01*
X172970345Y-89185655D01*
X173007559Y-89244789D01*
X173006895Y-89314656D01*
X172975936Y-89366273D01*
X171816854Y-90525355D01*
X171755531Y-90558840D01*
X171685839Y-90553856D01*
X171648091Y-90531491D01*
X171408772Y-90324657D01*
X171380887Y-90302231D01*
X171362686Y-90292308D01*
X171347732Y-90282704D01*
X171312335Y-90256206D01*
X171312329Y-90256203D01*
X171270335Y-90240540D01*
X171258589Y-90235180D01*
X171258582Y-90235197D01*
X171254561Y-90233363D01*
X171246911Y-90230516D01*
X171246904Y-90230514D01*
X171239255Y-90228418D01*
X171228701Y-90225011D01*
X171177485Y-90205909D01*
X171177483Y-90205908D01*
X171117883Y-90199501D01*
X171117881Y-90199500D01*
X171117873Y-90199500D01*
X171117865Y-90199500D01*
X169121485Y-90199500D01*
X169109829Y-90198951D01*
X169108802Y-90198854D01*
X169084106Y-90196522D01*
X169084104Y-90196522D01*
X169084103Y-90196522D01*
X169061350Y-90198854D01*
X169048712Y-90199500D01*
X169022141Y-90199500D01*
X169022128Y-90199501D01*
X168962515Y-90205908D01*
X168954971Y-90207692D01*
X168954962Y-90207654D01*
X168943637Y-90210731D01*
X168940976Y-90211197D01*
X168792073Y-90248422D01*
X168722261Y-90245584D01*
X168665066Y-90205453D01*
X168638647Y-90140771D01*
X168638000Y-90128124D01*
X168638000Y-85420945D01*
X168638000Y-85420943D01*
X168597077Y-85268216D01*
X168549367Y-85185579D01*
X168518024Y-85131290D01*
X168518018Y-85131282D01*
X168451142Y-85064406D01*
X168417657Y-85003083D01*
X168422641Y-84933391D01*
X168451140Y-84889047D01*
X168558146Y-84782042D01*
X168737738Y-84547994D01*
X168885243Y-84292507D01*
X168998139Y-84019952D01*
X169074493Y-83734993D01*
X169113000Y-83442506D01*
X169113000Y-83147494D01*
X169093582Y-83000000D01*
X170524554Y-83000000D01*
X171250000Y-83000000D01*
X171850000Y-83000000D01*
X172575446Y-83000000D01*
X172555242Y-82969762D01*
X172555239Y-82969759D01*
X172472544Y-82914505D01*
X172472540Y-82914503D01*
X172399627Y-82900000D01*
X171850000Y-82900000D01*
X171850000Y-83000000D01*
X171250000Y-83000000D01*
X171250000Y-82900000D01*
X170700373Y-82900000D01*
X170627459Y-82914503D01*
X170627455Y-82914505D01*
X170544760Y-82969759D01*
X170544757Y-82969762D01*
X170524554Y-83000000D01*
X169093582Y-83000000D01*
X169074493Y-82855007D01*
X168998139Y-82570048D01*
X168994136Y-82560385D01*
X168957507Y-82471953D01*
X168950038Y-82402483D01*
X168981313Y-82340004D01*
X169041402Y-82304352D01*
X169072068Y-82300500D01*
X172698543Y-82300500D01*
X172873078Y-82265782D01*
X172888808Y-82262653D01*
X172958400Y-82268880D01*
G37*
%TD.AperFunction*%
%TA.AperFunction,Conductor*%
G36*
X152174106Y-80640185D02*
G01*
X152194748Y-80656819D01*
X152498318Y-80960389D01*
X152518024Y-80986070D01*
X152594500Y-81118531D01*
X152721164Y-81259205D01*
X152874300Y-81370465D01*
X152874305Y-81370468D01*
X153047227Y-81447459D01*
X153047232Y-81447461D01*
X153232389Y-81486817D01*
X153232390Y-81486817D01*
X153325500Y-81486817D01*
X153392539Y-81506502D01*
X153438294Y-81559306D01*
X153449500Y-81610817D01*
X153449500Y-82024217D01*
X153429815Y-82091256D01*
X153413181Y-82111898D01*
X150612220Y-84912859D01*
X150612218Y-84912861D01*
X150542538Y-84982540D01*
X150472859Y-85052219D01*
X150363371Y-85216080D01*
X150363366Y-85216089D01*
X150315579Y-85331460D01*
X150287949Y-85398163D01*
X150287947Y-85398171D01*
X150274412Y-85466216D01*
X150249500Y-85591454D01*
X150249500Y-87174218D01*
X150229815Y-87241257D01*
X150213181Y-87261899D01*
X150205905Y-87269175D01*
X150144582Y-87302660D01*
X150074890Y-87297676D01*
X150030543Y-87269175D01*
X150018657Y-87257289D01*
X150018656Y-87257288D01*
X149925888Y-87200069D01*
X149869336Y-87165187D01*
X149869331Y-87165185D01*
X149867862Y-87164698D01*
X149702797Y-87110001D01*
X149702795Y-87110000D01*
X149600016Y-87099500D01*
X149600009Y-87099500D01*
X148705783Y-87099500D01*
X148638744Y-87079815D01*
X148618106Y-87063185D01*
X148537782Y-86982861D01*
X148537781Y-86982860D01*
X148534670Y-86979749D01*
X148534655Y-86979735D01*
X147101256Y-85546336D01*
X147067771Y-85485013D01*
X147072755Y-85415321D01*
X147114627Y-85359388D01*
X147126337Y-85351617D01*
X147470068Y-85150646D01*
X147473596Y-85148660D01*
X147673509Y-85040474D01*
X147869744Y-84887738D01*
X148038164Y-84704785D01*
X148174173Y-84496607D01*
X148274063Y-84268881D01*
X148335108Y-84027821D01*
X148335268Y-84025888D01*
X148355643Y-83780005D01*
X148355643Y-83779994D01*
X148335109Y-83532187D01*
X148335107Y-83532175D01*
X148274063Y-83291118D01*
X148174173Y-83063393D01*
X148038166Y-82855217D01*
X147999297Y-82812994D01*
X147869744Y-82672262D01*
X147673509Y-82519526D01*
X147673507Y-82519525D01*
X147673506Y-82519524D01*
X147454811Y-82401172D01*
X147454802Y-82401169D01*
X147219616Y-82320429D01*
X146974335Y-82279500D01*
X146725665Y-82279500D01*
X146480383Y-82320429D01*
X146245197Y-82401169D01*
X146245188Y-82401172D01*
X146026493Y-82519524D01*
X145830257Y-82672261D01*
X145661833Y-82855217D01*
X145525826Y-83063394D01*
X145497108Y-83128862D01*
X145485872Y-83149099D01*
X145484595Y-83150963D01*
X145484589Y-83150972D01*
X145484589Y-83150973D01*
X145468397Y-83178667D01*
X145278388Y-83503647D01*
X145227557Y-83551584D01*
X145158879Y-83564431D01*
X145094157Y-83538108D01*
X145083661Y-83528740D01*
X144115305Y-82560385D01*
X144081820Y-82499062D01*
X144086804Y-82429371D01*
X144128676Y-82373437D01*
X144134097Y-82369601D01*
X144137782Y-82367139D01*
X144277139Y-82227782D01*
X144277139Y-82227780D01*
X144287347Y-82217573D01*
X144287348Y-82217570D01*
X145698102Y-80806819D01*
X145759425Y-80773334D01*
X145785783Y-80770500D01*
X150058543Y-80770500D01*
X150202306Y-80741903D01*
X150251835Y-80732051D01*
X150433914Y-80656632D01*
X150433920Y-80656628D01*
X150456714Y-80641398D01*
X150523391Y-80620520D01*
X150525605Y-80620500D01*
X152107067Y-80620500D01*
X152174106Y-80640185D01*
G37*
%TD.AperFunction*%
%TA.AperFunction,Conductor*%
G36*
X161618834Y-72698600D02*
G01*
X161674767Y-72740472D01*
X161699184Y-72805936D01*
X161699500Y-72814782D01*
X161699500Y-75798541D01*
X161699500Y-75798543D01*
X161699499Y-75798543D01*
X161712503Y-75863911D01*
X161712503Y-75863913D01*
X161724870Y-75926086D01*
X161737946Y-75991828D01*
X161737949Y-75991837D01*
X161813364Y-76173907D01*
X161813371Y-76173920D01*
X161922860Y-76337781D01*
X161922863Y-76337785D01*
X162066537Y-76481459D01*
X162066559Y-76481479D01*
X166417899Y-80832819D01*
X166451384Y-80894142D01*
X166446400Y-80963834D01*
X166404528Y-81019767D01*
X166339064Y-81044184D01*
X166330218Y-81044500D01*
X162616378Y-81044500D01*
X162616346Y-81044499D01*
X162612506Y-81044499D01*
X162557888Y-81044499D01*
X162490849Y-81024814D01*
X162470207Y-81008180D01*
X161284782Y-79822755D01*
X161281234Y-79819057D01*
X161219747Y-79752265D01*
X161219742Y-79752261D01*
X161201211Y-79737837D01*
X161189692Y-79727665D01*
X161177509Y-79715482D01*
X161103718Y-79661869D01*
X161100443Y-79659406D01*
X161023509Y-79599526D01*
X161018802Y-79596978D01*
X161008783Y-79591556D01*
X160994922Y-79582823D01*
X160986439Y-79576660D01*
X160986436Y-79576658D01*
X160899168Y-79532192D01*
X160896447Y-79530763D01*
X160804812Y-79481173D01*
X160804802Y-79481169D01*
X160795346Y-79477922D01*
X160779328Y-79471131D01*
X160775996Y-79469433D01*
X160701152Y-79445114D01*
X160676468Y-79437094D01*
X160674535Y-79436448D01*
X160569616Y-79400429D01*
X160566403Y-79399893D01*
X160556143Y-79397385D01*
X160556096Y-79397582D01*
X160551362Y-79396445D01*
X160441437Y-79379035D01*
X160440426Y-79378871D01*
X160324335Y-79359500D01*
X160075665Y-79359500D01*
X160075664Y-79359500D01*
X159959571Y-79378871D01*
X159958562Y-79379035D01*
X159848633Y-79396446D01*
X159843893Y-79397584D01*
X159843846Y-79397388D01*
X159833599Y-79399892D01*
X159830388Y-79400428D01*
X159725443Y-79436454D01*
X159723503Y-79437102D01*
X159624005Y-79469432D01*
X159624001Y-79469434D01*
X159620659Y-79471137D01*
X159604658Y-79477920D01*
X159595195Y-79481169D01*
X159503550Y-79530764D01*
X159500831Y-79532192D01*
X159413562Y-79576659D01*
X159413558Y-79576661D01*
X159405071Y-79582827D01*
X159391222Y-79591552D01*
X159376497Y-79599522D01*
X159376493Y-79599524D01*
X159376491Y-79599526D01*
X159326015Y-79638811D01*
X159299549Y-79659411D01*
X159296275Y-79661873D01*
X159222487Y-79715484D01*
X159210299Y-79727672D01*
X159198790Y-79737835D01*
X159180257Y-79752260D01*
X159180256Y-79752261D01*
X159118776Y-79819045D01*
X159115231Y-79822740D01*
X159055483Y-79882488D01*
X159041389Y-79901886D01*
X159032312Y-79912969D01*
X159011835Y-79935216D01*
X159011831Y-79935221D01*
X158965879Y-80005555D01*
X158962390Y-80010617D01*
X158916656Y-80073565D01*
X158902711Y-80100935D01*
X158896036Y-80112460D01*
X158875826Y-80143393D01*
X158844764Y-80214206D01*
X158841694Y-80220688D01*
X158809435Y-80283999D01*
X158809432Y-80284006D01*
X158809432Y-80284008D01*
X158806116Y-80294213D01*
X158797859Y-80319623D01*
X158793486Y-80331109D01*
X158775939Y-80371112D01*
X158775936Y-80371123D01*
X158758605Y-80439557D01*
X158756331Y-80447432D01*
X158736448Y-80508625D01*
X158729536Y-80552260D01*
X158727269Y-80563295D01*
X158714893Y-80612171D01*
X158714892Y-80612177D01*
X158714892Y-80612179D01*
X158709615Y-80675854D01*
X158708514Y-80684995D01*
X158699500Y-80741903D01*
X158699500Y-80792809D01*
X158699076Y-80803050D01*
X158694357Y-80859995D01*
X158694357Y-80860004D01*
X158699076Y-80916948D01*
X158699500Y-80927189D01*
X158699500Y-80978096D01*
X158708514Y-81035005D01*
X158709615Y-81044147D01*
X158713462Y-81090572D01*
X158714892Y-81107824D01*
X158727270Y-81156703D01*
X158729537Y-81167743D01*
X158736447Y-81211369D01*
X158756332Y-81272569D01*
X158758606Y-81280446D01*
X158775935Y-81348874D01*
X158775939Y-81348887D01*
X158793487Y-81388892D01*
X158797862Y-81400384D01*
X158809430Y-81435989D01*
X158809432Y-81435992D01*
X158841700Y-81499322D01*
X158844771Y-81505807D01*
X158875825Y-81576604D01*
X158875827Y-81576607D01*
X158896040Y-81607545D01*
X158902713Y-81619066D01*
X158916658Y-81646435D01*
X158916658Y-81646436D01*
X158962378Y-81709364D01*
X158965867Y-81714426D01*
X159011834Y-81784783D01*
X159032310Y-81807027D01*
X159041392Y-81818118D01*
X159055478Y-81837505D01*
X159055481Y-81837508D01*
X159055482Y-81837509D01*
X159055483Y-81837510D01*
X159115240Y-81897267D01*
X159118765Y-81900942D01*
X159172857Y-81959701D01*
X159180256Y-81967738D01*
X159196042Y-81980025D01*
X159198791Y-81982164D01*
X159210310Y-81992337D01*
X159809960Y-82591987D01*
X159843445Y-82653310D01*
X159838461Y-82723002D01*
X159809960Y-82767349D01*
X158789849Y-83787461D01*
X158789836Y-83787475D01*
X158624231Y-83953080D01*
X158562908Y-83986565D01*
X158493216Y-83981581D01*
X158437283Y-83939709D01*
X158412866Y-83874245D01*
X158412552Y-83864772D01*
X158412615Y-83852232D01*
X158415435Y-83294324D01*
X158415441Y-83291770D01*
X158415441Y-83291711D01*
X158412543Y-83237665D01*
X158412539Y-83237653D01*
X158411925Y-83233629D01*
X158410500Y-83214881D01*
X158410500Y-75855782D01*
X158430185Y-75788743D01*
X158446819Y-75768101D01*
X161487819Y-72727101D01*
X161549142Y-72693616D01*
X161618834Y-72698600D01*
G37*
%TD.AperFunction*%
%TA.AperFunction,Conductor*%
G36*
X163905703Y-60673495D02*
G01*
X163928309Y-60699387D01*
X163931834Y-60704782D01*
X163931836Y-60704785D01*
X164100256Y-60887738D01*
X164296491Y-61040474D01*
X164296493Y-61040475D01*
X164514478Y-61158443D01*
X164515190Y-61158828D01*
X164660439Y-61208692D01*
X164748294Y-61238853D01*
X164750386Y-61239571D01*
X164995665Y-61280500D01*
X165244335Y-61280500D01*
X165489614Y-61239571D01*
X165724810Y-61158828D01*
X165724820Y-61158822D01*
X165725687Y-61158443D01*
X165726079Y-61158392D01*
X165729661Y-61157163D01*
X165729913Y-61157899D01*
X165794987Y-61149539D01*
X165858100Y-61179514D01*
X165894988Y-61238853D01*
X165899500Y-61271998D01*
X165899500Y-61283108D01*
X165895620Y-61313885D01*
X165501819Y-62850839D01*
X165495258Y-62869865D01*
X165485937Y-62891116D01*
X165424892Y-63132175D01*
X165424890Y-63132187D01*
X165404357Y-63379994D01*
X165404357Y-63380005D01*
X165424890Y-63627812D01*
X165424892Y-63627824D01*
X165485936Y-63868881D01*
X165585826Y-64096606D01*
X165721833Y-64304782D01*
X165721836Y-64304785D01*
X165890256Y-64487738D01*
X166086491Y-64640474D01*
X166305190Y-64758828D01*
X166540386Y-64839571D01*
X166785665Y-64880500D01*
X167034335Y-64880500D01*
X167279614Y-64839571D01*
X167514810Y-64758828D01*
X167733509Y-64640474D01*
X167929744Y-64487738D01*
X168098164Y-64304785D01*
X168234173Y-64096607D01*
X168334063Y-63868881D01*
X168362821Y-63755317D01*
X168398359Y-63695164D01*
X168460779Y-63663771D01*
X168530263Y-63671109D01*
X168584749Y-63714847D01*
X168596582Y-63735948D01*
X168675827Y-63916608D01*
X168811833Y-64124782D01*
X168811836Y-64124785D01*
X168980256Y-64307738D01*
X169176491Y-64460474D01*
X169395190Y-64578828D01*
X169630386Y-64659571D01*
X169875665Y-64700500D01*
X170124334Y-64700500D01*
X170124335Y-64700500D01*
X170294972Y-64672026D01*
X170364337Y-64680408D01*
X170418159Y-64724961D01*
X170439349Y-64791540D01*
X170421181Y-64859006D01*
X170403062Y-64882016D01*
X170349967Y-64935111D01*
X170288644Y-64968596D01*
X170274888Y-64970788D01*
X170184702Y-64980001D01*
X170184700Y-64980001D01*
X170018168Y-65035185D01*
X170018163Y-65035187D01*
X169868842Y-65127289D01*
X169744789Y-65251342D01*
X169652687Y-65400663D01*
X169652686Y-65400666D01*
X169597501Y-65567203D01*
X169597501Y-65567204D01*
X169597500Y-65567204D01*
X169587000Y-65669983D01*
X169587000Y-66148414D01*
X169580931Y-66186732D01*
X169567791Y-66227172D01*
X169537000Y-66421577D01*
X169537000Y-67657169D01*
X169517315Y-67724208D01*
X169464511Y-67769963D01*
X169395353Y-67779907D01*
X169344109Y-67760271D01*
X169273920Y-67713372D01*
X169273911Y-67713367D01*
X169091835Y-67637949D01*
X169091827Y-67637947D01*
X168898543Y-67599500D01*
X168898540Y-67599500D01*
X168701459Y-67599500D01*
X168701456Y-67599500D01*
X168508171Y-67637947D01*
X168508163Y-67637949D01*
X168326087Y-67713367D01*
X168326078Y-67713372D01*
X168162218Y-67822860D01*
X168162214Y-67822863D01*
X167602441Y-68382638D01*
X167462220Y-68522859D01*
X167462218Y-68522861D01*
X167392538Y-68592540D01*
X167322859Y-68662219D01*
X167213371Y-68826080D01*
X167213364Y-68826093D01*
X167186134Y-68891835D01*
X167186134Y-68891836D01*
X167140442Y-69002146D01*
X167137949Y-69008164D01*
X167133506Y-69030500D01*
X167127633Y-69060021D01*
X167124715Y-69074693D01*
X167092329Y-69136604D01*
X167031613Y-69171177D01*
X167003098Y-69174500D01*
X166287498Y-69174500D01*
X166287480Y-69174501D01*
X166184703Y-69185000D01*
X166184700Y-69185001D01*
X166018168Y-69240185D01*
X166018163Y-69240187D01*
X165868842Y-69332289D01*
X165744789Y-69456342D01*
X165652687Y-69605663D01*
X165652686Y-69605666D01*
X165597501Y-69772203D01*
X165597501Y-69772204D01*
X165597500Y-69772204D01*
X165587000Y-69874983D01*
X165587000Y-70925001D01*
X165587001Y-70925019D01*
X165597500Y-71027796D01*
X165597501Y-71027799D01*
X165652685Y-71194331D01*
X165652689Y-71194340D01*
X165661247Y-71208214D01*
X165679687Y-71275606D01*
X165658764Y-71342270D01*
X165605122Y-71387039D01*
X165562319Y-71397134D01*
X165557887Y-71397370D01*
X165553232Y-71398081D01*
X165534526Y-71399500D01*
X165475665Y-71399500D01*
X165230383Y-71440429D01*
X164995197Y-71521169D01*
X164995188Y-71521172D01*
X164776493Y-71639524D01*
X164580257Y-71792261D01*
X164411833Y-71975217D01*
X164275826Y-72183393D01*
X164175936Y-72411118D01*
X164114892Y-72652175D01*
X164114890Y-72652187D01*
X164094357Y-72899994D01*
X164094357Y-72900005D01*
X164114890Y-73147812D01*
X164114892Y-73147824D01*
X164175936Y-73388881D01*
X164275826Y-73616606D01*
X164411833Y-73824782D01*
X164411836Y-73824785D01*
X164580256Y-74007738D01*
X164776491Y-74160474D01*
X164995190Y-74278828D01*
X165230386Y-74359571D01*
X165475665Y-74400500D01*
X165724335Y-74400500D01*
X165969614Y-74359571D01*
X166204810Y-74278828D01*
X166423509Y-74160474D01*
X166535451Y-74073346D01*
X166545378Y-74066371D01*
X166709288Y-73962848D01*
X166776477Y-73943695D01*
X166843359Y-73963907D01*
X166888697Y-74017070D01*
X166899500Y-74067691D01*
X166899500Y-74800001D01*
X166899501Y-74800019D01*
X166910000Y-74902796D01*
X166910001Y-74902799D01*
X166946260Y-75012219D01*
X166965186Y-75069334D01*
X167057288Y-75218656D01*
X167181344Y-75342712D01*
X167330666Y-75434814D01*
X167497203Y-75489999D01*
X167599991Y-75500500D01*
X168584849Y-75500499D01*
X168588035Y-75500540D01*
X168615736Y-75501252D01*
X168615737Y-75501251D01*
X168615742Y-75501252D01*
X169159245Y-75437309D01*
X169228122Y-75449026D01*
X169261411Y-75472779D01*
X169331344Y-75542712D01*
X169480666Y-75634814D01*
X169647203Y-75689999D01*
X169749991Y-75700500D01*
X171350008Y-75700499D01*
X171452797Y-75689999D01*
X171619334Y-75634814D01*
X171768656Y-75542712D01*
X171892712Y-75418656D01*
X171984814Y-75269334D01*
X172039999Y-75102797D01*
X172050500Y-75000009D01*
X172050499Y-73699992D01*
X172039999Y-73597203D01*
X171984814Y-73430666D01*
X171892712Y-73281344D01*
X171768656Y-73157288D01*
X171666549Y-73094308D01*
X171619336Y-73065187D01*
X171619331Y-73065185D01*
X171617862Y-73064698D01*
X171452797Y-73010001D01*
X171452795Y-73010000D01*
X171350016Y-72999500D01*
X171030720Y-72999500D01*
X170963681Y-72979815D01*
X170917926Y-72927011D01*
X170907982Y-72857853D01*
X170937007Y-72794297D01*
X170983268Y-72760939D01*
X171130388Y-72700000D01*
X169969611Y-72700000D01*
X170116732Y-72760939D01*
X170171136Y-72804780D01*
X170193201Y-72871074D01*
X170175922Y-72938773D01*
X170124785Y-72986384D01*
X170069280Y-72999500D01*
X169749998Y-72999500D01*
X169749981Y-72999501D01*
X169647203Y-73010000D01*
X169647200Y-73010001D01*
X169480668Y-73065185D01*
X169480659Y-73065190D01*
X169463347Y-73075868D01*
X169395954Y-73094308D01*
X169329291Y-73073385D01*
X169284522Y-73019742D01*
X169275861Y-72950411D01*
X169280541Y-72931336D01*
X169289999Y-72902797D01*
X169300500Y-72800009D01*
X169300499Y-72301428D01*
X169320183Y-72234391D01*
X169372987Y-72188636D01*
X169442146Y-72178692D01*
X169505702Y-72207717D01*
X169539060Y-72253977D01*
X169558119Y-72299991D01*
X169558124Y-72300000D01*
X169662086Y-72455589D01*
X169662089Y-72455593D01*
X169699999Y-72493503D01*
X169700000Y-72493502D01*
X169700000Y-71784174D01*
X170050000Y-71784174D01*
X170050000Y-71915826D01*
X170084075Y-72042993D01*
X170149901Y-72157007D01*
X170242993Y-72250099D01*
X170357007Y-72315925D01*
X170484174Y-72350000D01*
X170615826Y-72350000D01*
X170742993Y-72315925D01*
X170857007Y-72250099D01*
X170950099Y-72157007D01*
X171015925Y-72042993D01*
X171050000Y-71915826D01*
X171050000Y-71784174D01*
X171015925Y-71657007D01*
X170950099Y-71542993D01*
X170857007Y-71449901D01*
X170742993Y-71384075D01*
X170615826Y-71350000D01*
X170484174Y-71350000D01*
X170357007Y-71384075D01*
X170242993Y-71449901D01*
X170149901Y-71542993D01*
X170084075Y-71657007D01*
X170050000Y-71784174D01*
X169700000Y-71784174D01*
X169700000Y-71206497D01*
X169699999Y-71206496D01*
X169662089Y-71244406D01*
X169662086Y-71244410D01*
X169558124Y-71399999D01*
X169558119Y-71400008D01*
X169486508Y-71572894D01*
X169486506Y-71572900D01*
X169462946Y-71691344D01*
X169430561Y-71753255D01*
X169369845Y-71787829D01*
X169300075Y-71784088D01*
X169243404Y-71743222D01*
X169235791Y-71732249D01*
X169191600Y-71660605D01*
X169174557Y-71614213D01*
X169118128Y-71244410D01*
X169101918Y-71138183D01*
X169100500Y-71119480D01*
X169100500Y-69765782D01*
X169120185Y-69698743D01*
X169136819Y-69678101D01*
X169577136Y-69237785D01*
X169577136Y-69237784D01*
X169577139Y-69237782D01*
X169666195Y-69104500D01*
X169690016Y-69068850D01*
X169692324Y-69070392D01*
X169732797Y-69029040D01*
X169800907Y-69013455D01*
X169866630Y-69037167D01*
X169881072Y-69049546D01*
X170885354Y-70053828D01*
X171044595Y-70169524D01*
X171127454Y-70211742D01*
X171219969Y-70258882D01*
X171219971Y-70258882D01*
X171219974Y-70258884D01*
X171302136Y-70285580D01*
X171407173Y-70319709D01*
X171601579Y-70350500D01*
X171601584Y-70350500D01*
X171798422Y-70350500D01*
X171992826Y-70319709D01*
X172180026Y-70258884D01*
X172355405Y-70169524D01*
X172514646Y-70053828D01*
X172653828Y-69914646D01*
X172769524Y-69755405D01*
X172858884Y-69580026D01*
X172919709Y-69392826D01*
X172929297Y-69332288D01*
X172950500Y-69198422D01*
X172950500Y-69001578D01*
X172919709Y-68807173D01*
X172858882Y-68619969D01*
X172769523Y-68444594D01*
X172724509Y-68382638D01*
X172653828Y-68285354D01*
X172074319Y-67705845D01*
X172040834Y-67644522D01*
X172038000Y-67618164D01*
X172038000Y-66421577D01*
X172020086Y-66308483D01*
X172007209Y-66227174D01*
X172001394Y-66209277D01*
X171999397Y-66139436D01*
X172031641Y-66083277D01*
X173134162Y-64980756D01*
X174240000Y-64980756D01*
X174240000Y-65099244D01*
X174270667Y-65213694D01*
X174329910Y-65316306D01*
X174413694Y-65400090D01*
X174516306Y-65459333D01*
X174630756Y-65490000D01*
X174749244Y-65490000D01*
X174863694Y-65459333D01*
X174966306Y-65400090D01*
X175050090Y-65316306D01*
X175109333Y-65213694D01*
X175140000Y-65099244D01*
X175140000Y-64980756D01*
X175109333Y-64866306D01*
X175050090Y-64763694D01*
X174966306Y-64679910D01*
X174863694Y-64620667D01*
X174749244Y-64590000D01*
X174630756Y-64590000D01*
X174516306Y-64620667D01*
X174413694Y-64679910D01*
X174329910Y-64763694D01*
X174270667Y-64866306D01*
X174240000Y-64980756D01*
X173134162Y-64980756D01*
X173543195Y-64571723D01*
X173604516Y-64538240D01*
X173674208Y-64543224D01*
X173730141Y-64585096D01*
X173754558Y-64650560D01*
X173749535Y-64695401D01*
X173744191Y-64713015D01*
X173744192Y-64713015D01*
X174339747Y-64117459D01*
X174387198Y-64087848D01*
X174863622Y-63924462D01*
X174933419Y-63921335D01*
X174993828Y-63956441D01*
X175025669Y-64018634D01*
X175018831Y-64088168D01*
X175016215Y-64093423D01*
X175363181Y-64440389D01*
X175396666Y-64501712D01*
X175399500Y-64528070D01*
X175399500Y-65551929D01*
X175379815Y-65618968D01*
X175363181Y-65639610D01*
X175016983Y-65985806D01*
X175020547Y-65991752D01*
X175038127Y-66059374D01*
X175016358Y-66125766D01*
X174962150Y-66169849D01*
X174914188Y-66179500D01*
X173990166Y-66179500D01*
X173887361Y-66190003D01*
X173720782Y-66245202D01*
X173720777Y-66245204D01*
X173571417Y-66337331D01*
X173447331Y-66461417D01*
X173355204Y-66610777D01*
X173355202Y-66610782D01*
X173300003Y-66777361D01*
X173289500Y-66880166D01*
X173289500Y-68279833D01*
X173300003Y-68382638D01*
X173346469Y-68522862D01*
X173355203Y-68549220D01*
X173447330Y-68698581D01*
X173571419Y-68822670D01*
X173720780Y-68914797D01*
X173831834Y-68951596D01*
X173887361Y-68969996D01*
X173924236Y-68973763D01*
X173990174Y-68980500D01*
X173990178Y-68980500D01*
X175275500Y-68980500D01*
X175342539Y-69000185D01*
X175388294Y-69052989D01*
X175399500Y-69104500D01*
X175399500Y-75934217D01*
X175379815Y-76001256D01*
X175363181Y-76021898D01*
X174673215Y-76711863D01*
X174611892Y-76745348D01*
X174554607Y-76744263D01*
X174509700Y-76732697D01*
X174501624Y-76730322D01*
X174440298Y-76710001D01*
X174337516Y-76699500D01*
X174337509Y-76699500D01*
X173352684Y-76699500D01*
X173349503Y-76699459D01*
X173348616Y-76699436D01*
X173321763Y-76698746D01*
X172564571Y-76787827D01*
X172495691Y-76776110D01*
X172484997Y-76770221D01*
X172476834Y-76765186D01*
X172310297Y-76710001D01*
X172310295Y-76710000D01*
X172207510Y-76699500D01*
X171207498Y-76699500D01*
X171207480Y-76699501D01*
X171104703Y-76710000D01*
X171104700Y-76710001D01*
X170938163Y-76765187D01*
X170925228Y-76773165D01*
X170857834Y-76791602D01*
X170838197Y-76789667D01*
X170248260Y-76683616D01*
X170231195Y-76679278D01*
X170135298Y-76647501D01*
X170032510Y-76637000D01*
X168982498Y-76637000D01*
X168982480Y-76637001D01*
X168879703Y-76647500D01*
X168879700Y-76647501D01*
X168713168Y-76702685D01*
X168713163Y-76702687D01*
X168563842Y-76794789D01*
X168439789Y-76918842D01*
X168347687Y-77068163D01*
X168347685Y-77068168D01*
X168331909Y-77115778D01*
X168292501Y-77234703D01*
X168292501Y-77234704D01*
X168292500Y-77234704D01*
X168282000Y-77337483D01*
X168282000Y-78112501D01*
X168282001Y-78112519D01*
X168292500Y-78215296D01*
X168292501Y-78215299D01*
X168347685Y-78381831D01*
X168347687Y-78381836D01*
X168382569Y-78438388D01*
X168439788Y-78531156D01*
X168563844Y-78655212D01*
X168713166Y-78747314D01*
X168879703Y-78802499D01*
X168982491Y-78813000D01*
X169949988Y-78812999D01*
X169965799Y-78814011D01*
X169972829Y-78814914D01*
X169995729Y-78817859D01*
X170816019Y-78805616D01*
X170844243Y-78803784D01*
X170912413Y-78819085D01*
X170917368Y-78821986D01*
X170938157Y-78834809D01*
X170938160Y-78834810D01*
X170938166Y-78834814D01*
X171104703Y-78889999D01*
X171104704Y-78889999D01*
X171111129Y-78892128D01*
X171110555Y-78893858D01*
X171164031Y-78922822D01*
X171197725Y-78984031D01*
X171192978Y-79053739D01*
X171151297Y-79109815D01*
X171131110Y-79122202D01*
X171051309Y-79161214D01*
X171012524Y-79199999D01*
X171012525Y-79200000D01*
X172183500Y-79200000D01*
X172250539Y-79219685D01*
X172296294Y-79272489D01*
X172307500Y-79324000D01*
X172307500Y-80175500D01*
X172287815Y-80242539D01*
X172235011Y-80288294D01*
X172183500Y-80299500D01*
X168765782Y-80299500D01*
X168698743Y-80279815D01*
X168678101Y-80263181D01*
X167627419Y-79212499D01*
X168787524Y-79212499D01*
X168787525Y-79212500D01*
X168920000Y-79212500D01*
X170095000Y-79212500D01*
X170227475Y-79212500D01*
X170227475Y-79212499D01*
X170188690Y-79173714D01*
X170095000Y-79127911D01*
X170095000Y-79212500D01*
X168920000Y-79212500D01*
X168920000Y-79127911D01*
X168826309Y-79173714D01*
X168787524Y-79212499D01*
X167627419Y-79212499D01*
X163736819Y-75321899D01*
X163703334Y-75260576D01*
X163700500Y-75234218D01*
X163700500Y-71058300D01*
X163720185Y-70991261D01*
X163772989Y-70945506D01*
X163842147Y-70935562D01*
X163905703Y-70964587D01*
X163935901Y-71003840D01*
X163973715Y-71081191D01*
X164012499Y-71119975D01*
X165187500Y-71119975D01*
X165226285Y-71081190D01*
X165272088Y-70987500D01*
X165187500Y-70987500D01*
X165187500Y-71119975D01*
X164012499Y-71119975D01*
X164012500Y-71119974D01*
X164012500Y-69812500D01*
X165187500Y-69812500D01*
X165272088Y-69812500D01*
X165226285Y-69718809D01*
X165187500Y-69680024D01*
X165187500Y-69812500D01*
X164012500Y-69812500D01*
X164012500Y-69680025D01*
X164012499Y-69680024D01*
X163973712Y-69718811D01*
X163935900Y-69796159D01*
X163888772Y-69847742D01*
X163821238Y-69865656D01*
X163754740Y-69844215D01*
X163710390Y-69790226D01*
X163700500Y-69741699D01*
X163700500Y-67353217D01*
X165587501Y-67353217D01*
X165597412Y-67421249D01*
X165648715Y-67526191D01*
X165687499Y-67564975D01*
X167087500Y-67564975D01*
X167126287Y-67526188D01*
X167177587Y-67421251D01*
X167177588Y-67421248D01*
X167187500Y-67353219D01*
X167187500Y-67220000D01*
X167087500Y-67220000D01*
X167087500Y-67564975D01*
X165687499Y-67564975D01*
X165687500Y-67564974D01*
X165687500Y-67220000D01*
X165587501Y-67220000D01*
X165587501Y-67353217D01*
X163700500Y-67353217D01*
X163700500Y-65686780D01*
X165587500Y-65686780D01*
X165587500Y-65820000D01*
X165687500Y-65820000D01*
X167087500Y-65820000D01*
X167187499Y-65820000D01*
X167187499Y-65686782D01*
X167177587Y-65618750D01*
X167126284Y-65513808D01*
X167087500Y-65475024D01*
X167087500Y-65820000D01*
X165687500Y-65820000D01*
X165687500Y-65475025D01*
X165687499Y-65475024D01*
X165648712Y-65513811D01*
X165597412Y-65618748D01*
X165597411Y-65618751D01*
X165587500Y-65686780D01*
X163700500Y-65686780D01*
X163700500Y-60767208D01*
X163720185Y-60700169D01*
X163772989Y-60654414D01*
X163842147Y-60644470D01*
X163905703Y-60673495D01*
G37*
%TD.AperFunction*%
%TA.AperFunction,Conductor*%
G36*
X149001257Y-50620185D02*
G01*
X149021899Y-50636819D01*
X149562215Y-51177136D01*
X149562219Y-51177139D01*
X149726079Y-51286627D01*
X149726083Y-51286629D01*
X149726086Y-51286631D01*
X149908164Y-51362051D01*
X150091622Y-51398543D01*
X150101455Y-51400499D01*
X150101458Y-51400500D01*
X150101460Y-51400500D01*
X150298540Y-51400500D01*
X150312661Y-51397691D01*
X150382252Y-51403917D01*
X150437430Y-51446779D01*
X150460676Y-51512668D01*
X150444609Y-51580666D01*
X150424535Y-51606989D01*
X146046174Y-55985351D01*
X146046172Y-55985354D01*
X146010465Y-56034500D01*
X145930476Y-56144594D01*
X145841117Y-56319969D01*
X145812461Y-56408165D01*
X145780291Y-56507172D01*
X145749500Y-56701577D01*
X145749500Y-61621475D01*
X145729815Y-61688514D01*
X145713181Y-61709156D01*
X144546174Y-62876162D01*
X144546174Y-62876163D01*
X144546172Y-62876165D01*
X144496485Y-62944552D01*
X144430476Y-63035405D01*
X144341117Y-63210782D01*
X144298377Y-63342322D01*
X144298377Y-63342323D01*
X144280290Y-63397984D01*
X144249500Y-63592388D01*
X144249500Y-71010664D01*
X144229815Y-71077703D01*
X144213181Y-71098345D01*
X140546174Y-74765351D01*
X140546174Y-74765352D01*
X140546172Y-74765354D01*
X140499893Y-74829050D01*
X140430473Y-74924598D01*
X140430225Y-74925004D01*
X140430090Y-74925125D01*
X140427612Y-74928537D01*
X140426895Y-74928016D01*
X140378411Y-74971877D01*
X140309481Y-74983297D01*
X140245319Y-74955638D01*
X140206297Y-74897681D01*
X140200500Y-74860210D01*
X140200500Y-70164120D01*
X140220185Y-70097081D01*
X140272989Y-70051326D01*
X140342147Y-70041382D01*
X140380793Y-70053634D01*
X140396635Y-70061706D01*
X140449970Y-70088882D01*
X140449972Y-70088882D01*
X140449975Y-70088884D01*
X140475203Y-70097081D01*
X140637173Y-70149709D01*
X140831578Y-70180500D01*
X140831583Y-70180500D01*
X141028422Y-70180500D01*
X141222826Y-70149709D01*
X141410025Y-70088884D01*
X141585405Y-69999524D01*
X141744646Y-69883828D01*
X141883828Y-69744646D01*
X141999524Y-69585405D01*
X142088884Y-69410025D01*
X142149709Y-69222826D01*
X142155700Y-69185000D01*
X142180500Y-69028422D01*
X142180500Y-58934016D01*
X142186793Y-58895015D01*
X142192499Y-58877797D01*
X142196616Y-58837500D01*
X142517912Y-58837500D01*
X142563714Y-58931190D01*
X142602499Y-58969975D01*
X143777500Y-58969975D01*
X143816285Y-58931190D01*
X143862088Y-58837500D01*
X143777500Y-58837500D01*
X143777500Y-58969975D01*
X142602499Y-58969975D01*
X142602500Y-58969974D01*
X142602500Y-58837500D01*
X142517912Y-58837500D01*
X142196616Y-58837500D01*
X142203000Y-58775009D01*
X142202999Y-57724992D01*
X142196615Y-57662500D01*
X142517912Y-57662500D01*
X142602500Y-57662500D01*
X143777500Y-57662500D01*
X143862088Y-57662500D01*
X143816285Y-57568809D01*
X143777500Y-57530024D01*
X143777500Y-57662500D01*
X142602500Y-57662500D01*
X142602500Y-57530025D01*
X142602499Y-57530024D01*
X142563714Y-57568809D01*
X142517912Y-57662500D01*
X142196615Y-57662500D01*
X142192499Y-57622203D01*
X142186793Y-57604985D01*
X142180500Y-57565982D01*
X142180500Y-54559336D01*
X142200185Y-54492297D01*
X142216819Y-54471655D01*
X142561310Y-54127164D01*
X142953829Y-53734645D01*
X143069524Y-53575405D01*
X143158884Y-53400025D01*
X143219709Y-53212826D01*
X143225511Y-53176191D01*
X143250500Y-53018421D01*
X143250500Y-52821580D01*
X143244964Y-52786628D01*
X143243174Y-52775328D01*
X143252128Y-52706036D01*
X143297123Y-52652584D01*
X143363874Y-52631943D01*
X143431188Y-52650667D01*
X143453328Y-52668249D01*
X143462215Y-52677136D01*
X143462219Y-52677139D01*
X143626079Y-52786627D01*
X143626083Y-52786629D01*
X143626086Y-52786631D01*
X143808164Y-52862051D01*
X144001455Y-52900499D01*
X144001458Y-52900500D01*
X144001460Y-52900500D01*
X144198542Y-52900500D01*
X144198543Y-52900499D01*
X144391836Y-52862051D01*
X144573914Y-52786631D01*
X144737781Y-52677139D01*
X144877139Y-52537781D01*
X144986631Y-52373914D01*
X145062051Y-52191836D01*
X145100500Y-51998540D01*
X145100500Y-51801460D01*
X145100500Y-51801459D01*
X145100500Y-51801457D01*
X145100499Y-51801455D01*
X145072802Y-51662214D01*
X145062051Y-51608164D01*
X144986631Y-51426086D01*
X144986629Y-51426083D01*
X144986627Y-51426079D01*
X144877139Y-51262219D01*
X144877136Y-51262215D01*
X144427101Y-50812181D01*
X144393616Y-50750858D01*
X144398600Y-50681167D01*
X144440471Y-50625233D01*
X144505936Y-50600816D01*
X144514782Y-50600500D01*
X148934218Y-50600500D01*
X149001257Y-50620185D01*
G37*
%TD.AperFunction*%
%TD*%
%TA.AperFunction,Conductor*%
%TO.N,+3.3V*%
G36*
X173514202Y-61502158D02*
G01*
X174679279Y-61599107D01*
X174687239Y-61603208D01*
X174690008Y-61610758D01*
X174690703Y-62495848D01*
X174687283Y-62504122D01*
X174687273Y-62504133D01*
X174687267Y-62504139D01*
X174060737Y-63129278D01*
X174052460Y-63132696D01*
X174045508Y-63130397D01*
X172812613Y-62216895D01*
X172808005Y-62209216D01*
X172810177Y-62200529D01*
X172811298Y-62199228D01*
X173504981Y-61505545D01*
X173513253Y-61502119D01*
X173514202Y-61502158D01*
G37*
%TD.AperFunction*%
%TD*%
%TA.AperFunction,Conductor*%
%TO.N,+3.3V*%
G36*
X172258418Y-87535375D02*
G01*
X172663737Y-87930922D01*
X172774388Y-88038906D01*
X172777915Y-88047136D01*
X172774589Y-88055451D01*
X172774510Y-88055531D01*
X172502369Y-88329035D01*
X172498527Y-88331603D01*
X172143058Y-88477883D01*
X172134104Y-88477862D01*
X172127786Y-88471515D01*
X172127235Y-88469820D01*
X172093103Y-88329035D01*
X171968851Y-87816529D01*
X171970232Y-87807683D01*
X171971945Y-87805505D01*
X172241975Y-87535475D01*
X172250247Y-87532049D01*
X172258418Y-87535375D01*
G37*
%TD.AperFunction*%
%TD*%
%TA.AperFunction,Conductor*%
%TO.N,+3.3V*%
G36*
X174061886Y-61871875D02*
G01*
X174062137Y-61872118D01*
X174689050Y-62497640D01*
X174691600Y-62501456D01*
X175029666Y-63319994D01*
X175029657Y-63328948D01*
X175023318Y-63335274D01*
X175022647Y-63335527D01*
X173582086Y-63829557D01*
X173573149Y-63829000D01*
X173570018Y-63826763D01*
X172876095Y-63132840D01*
X172872668Y-63124567D01*
X172875843Y-63116554D01*
X174045348Y-61872387D01*
X174053511Y-61868706D01*
X174061886Y-61871875D01*
G37*
%TD.AperFunction*%
%TD*%
%TA.AperFunction,Conductor*%
%TO.N,+3.3V*%
G36*
X168007872Y-53906159D02*
G01*
X168595359Y-54440447D01*
X168599174Y-54448549D01*
X168599053Y-54450868D01*
X168501516Y-55090065D01*
X168496881Y-55097726D01*
X168489950Y-55100000D01*
X167510050Y-55100000D01*
X167501777Y-55096573D01*
X167498484Y-55090065D01*
X167400946Y-54450868D01*
X167403086Y-54442173D01*
X167404634Y-54440453D01*
X167992128Y-53906158D01*
X168000554Y-53903128D01*
X168007872Y-53906159D01*
G37*
%TD.AperFunction*%
%TD*%
%TA.AperFunction,Conductor*%
%TO.N,+3.3V*%
G36*
X141768193Y-84203427D02*
G01*
X141771491Y-84209969D01*
X141887464Y-84985404D01*
X141885299Y-84994093D01*
X141883549Y-84995982D01*
X141307139Y-85494821D01*
X141298641Y-85497644D01*
X141292453Y-85495327D01*
X141116093Y-85362763D01*
X140705159Y-85053878D01*
X140700606Y-85046168D01*
X140700529Y-85043573D01*
X140769116Y-84210740D01*
X140773211Y-84202776D01*
X140780777Y-84200000D01*
X141759920Y-84200000D01*
X141768193Y-84203427D01*
G37*
%TD.AperFunction*%
%TD*%
%TA.AperFunction,Conductor*%
%TO.N,Net-(C7-Pad1)*%
G36*
X174807184Y-88284949D02*
G01*
X175495472Y-88596920D01*
X175501592Y-88603455D01*
X175502028Y-88604885D01*
X175639882Y-89188354D01*
X175638449Y-89197193D01*
X175631185Y-89202431D01*
X175630928Y-89202488D01*
X174629437Y-89415429D01*
X174620632Y-89413798D01*
X174618731Y-89412258D01*
X174136724Y-88930251D01*
X174133297Y-88921978D01*
X174136724Y-88913705D01*
X174136926Y-88913508D01*
X174794288Y-88287134D01*
X174802639Y-88283909D01*
X174807184Y-88284949D01*
G37*
%TD.AperFunction*%
%TD*%
%TA.AperFunction,Conductor*%
%TO.N,Net-(C7-Pad1)*%
G36*
X171078229Y-90707112D02*
G01*
X171756295Y-91293140D01*
X171756917Y-91293719D01*
X172241758Y-91778560D01*
X172245185Y-91786833D01*
X172241758Y-91795106D01*
X172240227Y-91796395D01*
X171077716Y-92616017D01*
X171068980Y-92617984D01*
X171063052Y-92615065D01*
X170162898Y-91786833D01*
X170078267Y-91708964D01*
X170074500Y-91700841D01*
X170077580Y-91692433D01*
X170077892Y-91692107D01*
X171062308Y-90707691D01*
X171070580Y-90704265D01*
X171078229Y-90707112D01*
G37*
%TD.AperFunction*%
%TD*%
%TA.AperFunction,Conductor*%
%TO.N,Net-(C7-Pad1)*%
G36*
X169072435Y-90702923D02*
G01*
X169074684Y-90704679D01*
X170062714Y-91691723D01*
X170066145Y-91699994D01*
X170062722Y-91708269D01*
X170062714Y-91708277D01*
X169074684Y-92695320D01*
X169066409Y-92698743D01*
X169063577Y-92698394D01*
X168078862Y-92452215D01*
X168071667Y-92446884D01*
X168070000Y-92440864D01*
X168070000Y-90959135D01*
X168073427Y-90950862D01*
X168078860Y-90947784D01*
X169063578Y-90701605D01*
X169072435Y-90702923D01*
G37*
%TD.AperFunction*%
%TD*%
%TA.AperFunction,Conductor*%
%TO.N,Net-(C7-Pad1)*%
G36*
X167846486Y-90268888D02*
G01*
X168397558Y-90645732D01*
X168837404Y-90946515D01*
X168842299Y-90954014D01*
X168842500Y-90956173D01*
X168842500Y-92437668D01*
X168839073Y-92445941D01*
X168830800Y-92449368D01*
X168830186Y-92449352D01*
X167846732Y-92397651D01*
X167839391Y-92394546D01*
X165953466Y-90645732D01*
X165949729Y-90637594D01*
X165952842Y-90629198D01*
X165959225Y-90625661D01*
X167837720Y-90267075D01*
X167846486Y-90268888D01*
G37*
%TD.AperFunction*%
%TD*%
%TA.AperFunction,Conductor*%
%TO.N,VIN_relay*%
G36*
X157845723Y-102407324D02*
G01*
X157845765Y-102407366D01*
X158833346Y-103407014D01*
X158836723Y-103415308D01*
X158836581Y-103417056D01*
X158589055Y-104990119D01*
X158584384Y-104997759D01*
X158577497Y-105000000D01*
X157097503Y-105000000D01*
X157089230Y-104996573D01*
X157085945Y-104990119D01*
X156838418Y-103417056D01*
X156840517Y-103408350D01*
X156841645Y-103407023D01*
X157829178Y-102407423D01*
X157837429Y-102403947D01*
X157845723Y-102407324D01*
G37*
%TD.AperFunction*%
%TD*%
%TA.AperFunction,Conductor*%
%TO.N,VIN_relay*%
G36*
X154256760Y-92029986D02*
G01*
X154265028Y-92033421D01*
X154268447Y-92041698D01*
X154268357Y-92043137D01*
X154021281Y-94019751D01*
X154016854Y-94027535D01*
X154009671Y-94030000D01*
X152530329Y-94030000D01*
X152522056Y-94026573D01*
X152518719Y-94019751D01*
X152271642Y-92043137D01*
X152274017Y-92034503D01*
X152281801Y-92030076D01*
X152283227Y-92029986D01*
X153270000Y-92029000D01*
X154256760Y-92029986D01*
G37*
%TD.AperFunction*%
%TD*%
%TA.AperFunction,Conductor*%
%TO.N,Net-(J3-O1-Pin_1)*%
G36*
X169389667Y-73898784D02*
G01*
X169397483Y-73903154D01*
X169400000Y-73910404D01*
X169400000Y-74889595D01*
X169396573Y-74897868D01*
X169389667Y-74901215D01*
X168556679Y-74999214D01*
X168548062Y-74996777D01*
X168545959Y-74994624D01*
X168104284Y-74407030D01*
X168102053Y-74398358D01*
X168104284Y-74392970D01*
X168545960Y-73805374D01*
X168553670Y-73800821D01*
X168556673Y-73800785D01*
X169389667Y-73898784D01*
G37*
%TD.AperFunction*%
%TD*%
%TA.AperFunction,Conductor*%
%TO.N,IO00-Voltage*%
G36*
X176022731Y-81390927D02*
G01*
X176026095Y-81397984D01*
X176111840Y-82218688D01*
X176109291Y-82227273D01*
X176107568Y-82228995D01*
X175532365Y-82695032D01*
X175523780Y-82697577D01*
X175517635Y-82695032D01*
X174942431Y-82228995D01*
X174938160Y-82221124D01*
X174938159Y-82218688D01*
X175023905Y-81397984D01*
X175028173Y-81390112D01*
X175035542Y-81387500D01*
X176014458Y-81387500D01*
X176022731Y-81390927D01*
G37*
%TD.AperFunction*%
%TD*%
%TA.AperFunction,Conductor*%
%TO.N,IO00-Voltage*%
G36*
X175532124Y-84805015D02*
G01*
X176110571Y-85293427D01*
X176114682Y-85301383D01*
X176114604Y-85304034D01*
X176001445Y-86089967D01*
X175996874Y-86097668D01*
X175989864Y-86100000D01*
X175010713Y-86100000D01*
X175002440Y-86096573D01*
X174999058Y-86089328D01*
X174929767Y-85304034D01*
X174925571Y-85256474D01*
X174928258Y-85247933D01*
X174930196Y-85246094D01*
X175517547Y-84804601D01*
X175526218Y-84802371D01*
X175532124Y-84805015D01*
G37*
%TD.AperFunction*%
%TD*%
%TA.AperFunction,Conductor*%
%TO.N,IO00-Voltage*%
G36*
X175998223Y-85403427D02*
G01*
X176001516Y-85409935D01*
X176099053Y-86049130D01*
X176096913Y-86057825D01*
X176095359Y-86059551D01*
X175507872Y-86593840D01*
X175499446Y-86596871D01*
X175492128Y-86593840D01*
X174904640Y-86059551D01*
X174900825Y-86051449D01*
X174900946Y-86049130D01*
X174998484Y-85409935D01*
X175003120Y-85402274D01*
X175010050Y-85400000D01*
X175989950Y-85400000D01*
X175998223Y-85403427D01*
G37*
%TD.AperFunction*%
%TD*%
%TA.AperFunction,Conductor*%
%TO.N,IO00-Voltage*%
G36*
X176022869Y-83503427D02*
G01*
X176026216Y-83510333D01*
X176124214Y-84343320D01*
X176121777Y-84351937D01*
X176119624Y-84354040D01*
X175532030Y-84795715D01*
X175523358Y-84797946D01*
X175517970Y-84795715D01*
X174930375Y-84354040D01*
X174925821Y-84346329D01*
X174925785Y-84343326D01*
X175023784Y-83510332D01*
X175028154Y-83502517D01*
X175035404Y-83500000D01*
X176014596Y-83500000D01*
X176022869Y-83503427D01*
G37*
%TD.AperFunction*%
%TD*%
%TA.AperFunction,Conductor*%
%TO.N,IO00-Voltage*%
G36*
X175532365Y-82704967D02*
G01*
X176107568Y-83171004D01*
X176111839Y-83178875D01*
X176111840Y-83181311D01*
X176026095Y-84002016D01*
X176021827Y-84009888D01*
X176014458Y-84012500D01*
X175035542Y-84012500D01*
X175027269Y-84009073D01*
X175023905Y-84002016D01*
X174938159Y-83181311D01*
X174940708Y-83172726D01*
X174942426Y-83171008D01*
X175517635Y-82704966D01*
X175526220Y-82702422D01*
X175532365Y-82704967D01*
G37*
%TD.AperFunction*%
%TD*%
%TA.AperFunction,Conductor*%
%TO.N,IO01-Current*%
G36*
X173389437Y-77203222D02*
G01*
X173391540Y-77205375D01*
X173833215Y-77792970D01*
X173835446Y-77801642D01*
X173833215Y-77807030D01*
X173391540Y-78394624D01*
X173383829Y-78399178D01*
X173380820Y-78399214D01*
X172547833Y-78301215D01*
X172540017Y-78296845D01*
X172537500Y-78289595D01*
X172537500Y-77310404D01*
X172540927Y-77302131D01*
X172547832Y-77298784D01*
X173380822Y-77200785D01*
X173389437Y-77203222D01*
G37*
%TD.AperFunction*%
%TD*%
%TA.AperFunction,Conductor*%
%TO.N,IO01-Current*%
G36*
X170104658Y-77171405D02*
G01*
X170810371Y-77298269D01*
X170817906Y-77303104D01*
X170820000Y-77309783D01*
X170820000Y-78288473D01*
X170816573Y-78296746D01*
X170808475Y-78300172D01*
X169988185Y-78312415D01*
X169979861Y-78309112D01*
X169978924Y-78308087D01*
X169513355Y-77733461D01*
X169510811Y-77724877D01*
X169514449Y-77717557D01*
X170094593Y-77174379D01*
X170102974Y-77171227D01*
X170104658Y-77171405D01*
G37*
%TD.AperFunction*%
%TD*%
%TA.AperFunction,Conductor*%
%TO.N,IO01-Current*%
G36*
X174390402Y-77221641D02*
G01*
X174741220Y-77348333D01*
X174745518Y-77351064D01*
X175436806Y-78042352D01*
X175440233Y-78050625D01*
X175436806Y-78058898D01*
X175431808Y-78061857D01*
X174425061Y-78355420D01*
X174416160Y-78354446D01*
X174413698Y-78352642D01*
X174248758Y-78194841D01*
X173845168Y-77808720D01*
X173841560Y-77800526D01*
X173844728Y-77792259D01*
X174377906Y-77224635D01*
X174386066Y-77220952D01*
X174390402Y-77221641D01*
G37*
%TD.AperFunction*%
%TD*%
%TA.AperFunction,Conductor*%
%TO.N,IO01-Current*%
G36*
X176899244Y-77203427D02*
G01*
X176902289Y-77208734D01*
X177321295Y-78807456D01*
X177320077Y-78816327D01*
X177314464Y-78821227D01*
X176404487Y-79199136D01*
X176395533Y-79199145D01*
X176395513Y-79199136D01*
X175485535Y-78821227D01*
X175479208Y-78814889D01*
X175478704Y-78807456D01*
X175897711Y-77208734D01*
X175903124Y-77201600D01*
X175909029Y-77200000D01*
X176890971Y-77200000D01*
X176899244Y-77203427D01*
G37*
%TD.AperFunction*%
%TD*%
%TA.AperFunction,Conductor*%
%TO.N,Net-(R4-Pad1)*%
G36*
X147318223Y-94643427D02*
G01*
X147321516Y-94649935D01*
X147419053Y-95289130D01*
X147416913Y-95297825D01*
X147415359Y-95299551D01*
X146827872Y-95833840D01*
X146819446Y-95836871D01*
X146812128Y-95833840D01*
X146224640Y-95299551D01*
X146220825Y-95291449D01*
X146220946Y-95289130D01*
X146318484Y-94649935D01*
X146323120Y-94642274D01*
X146330050Y-94640000D01*
X147309950Y-94640000D01*
X147318223Y-94643427D01*
G37*
%TD.AperFunction*%
%TD*%
%TA.AperFunction,Conductor*%
%TO.N,DATA-5V*%
G36*
X149610557Y-100582069D02*
G01*
X149613984Y-100590342D01*
X149613044Y-100594936D01*
X148716304Y-102695451D01*
X148709904Y-102701714D01*
X148702246Y-102702083D01*
X147686581Y-102403668D01*
X147679609Y-102398047D01*
X147678212Y-102391562D01*
X147811132Y-100630261D01*
X147815172Y-100622269D01*
X147822199Y-100619456D01*
X148619707Y-100578657D01*
X148620305Y-100578642D01*
X149602284Y-100578642D01*
X149610557Y-100582069D01*
G37*
%TD.AperFunction*%
%TD*%
%TA.AperFunction,Conductor*%
%TO.N,DATA-5V*%
G36*
X149127872Y-97836159D02*
G01*
X149715359Y-98370447D01*
X149719174Y-98378549D01*
X149719053Y-98380868D01*
X149621516Y-99020065D01*
X149616881Y-99027726D01*
X149609950Y-99030000D01*
X148630050Y-99030000D01*
X148621777Y-99026573D01*
X148618484Y-99020065D01*
X148520946Y-98380868D01*
X148523086Y-98372173D01*
X148524634Y-98370453D01*
X149112128Y-97836158D01*
X149120554Y-97833128D01*
X149127872Y-97836159D01*
G37*
%TD.AperFunction*%
%TD*%
%TA.AperFunction,Conductor*%
%TO.N,DATA-5V*%
G36*
X147685835Y-102407210D02*
G01*
X147685905Y-102407278D01*
X148680690Y-103386950D01*
X148684180Y-103395196D01*
X148683771Y-103398352D01*
X148202344Y-105171383D01*
X148196869Y-105178469D01*
X148191053Y-105180017D01*
X147208755Y-105180017D01*
X147200482Y-105176590D01*
X147197530Y-105171617D01*
X146687733Y-103437813D01*
X146688687Y-103428910D01*
X146690521Y-103426408D01*
X146720505Y-103395196D01*
X147669294Y-102407541D01*
X147677495Y-102403949D01*
X147685835Y-102407210D01*
G37*
%TD.AperFunction*%
%TD*%
%TA.AperFunction,Conductor*%
%TO.N,CLK-5V*%
G36*
X146371937Y-97243222D02*
G01*
X146374040Y-97245375D01*
X146815715Y-97832970D01*
X146817946Y-97841642D01*
X146815715Y-97847030D01*
X146374040Y-98434624D01*
X146366329Y-98439178D01*
X146363320Y-98439214D01*
X145530333Y-98341215D01*
X145522517Y-98336845D01*
X145520000Y-98329595D01*
X145520000Y-97350404D01*
X145523427Y-97342131D01*
X145530332Y-97338784D01*
X146363322Y-97240785D01*
X146371937Y-97243222D01*
G37*
%TD.AperFunction*%
%TD*%
%TA.AperFunction,Conductor*%
%TO.N,CLK-5V*%
G36*
X142883318Y-99516250D02*
G01*
X142884349Y-99517166D01*
X143579131Y-100211948D01*
X143582514Y-100219205D01*
X143637140Y-100845890D01*
X143635199Y-100853426D01*
X142610222Y-102380695D01*
X142602766Y-102385655D01*
X142593987Y-102383890D01*
X142589376Y-102377777D01*
X142016256Y-100605938D01*
X142016970Y-100597013D01*
X142018195Y-100595101D01*
X142866888Y-99518196D01*
X142874699Y-99513820D01*
X142883318Y-99516250D01*
G37*
%TD.AperFunction*%
%TD*%
%TA.AperFunction,Conductor*%
%TO.N,Net-(R5-Pad2)*%
G36*
X149618223Y-94633427D02*
G01*
X149621516Y-94639935D01*
X149719053Y-95279130D01*
X149716913Y-95287825D01*
X149715359Y-95289551D01*
X149127872Y-95823840D01*
X149119446Y-95826871D01*
X149112128Y-95823840D01*
X148524640Y-95289551D01*
X148520825Y-95281449D01*
X148520946Y-95279130D01*
X148618484Y-94639935D01*
X148623120Y-94632274D01*
X148630050Y-94630000D01*
X149609950Y-94630000D01*
X149618223Y-94633427D01*
G37*
%TD.AperFunction*%
%TD*%
%TA.AperFunction,Conductor*%
%TO.N,Net-(J3-CC2)*%
G36*
X174037555Y-51923026D02*
G01*
X174039861Y-51924981D01*
X174573840Y-52512128D01*
X174576871Y-52520554D01*
X174573840Y-52527872D01*
X174039861Y-53115018D01*
X174031759Y-53118833D01*
X174028747Y-53118585D01*
X173579242Y-53021986D01*
X173571873Y-53016897D01*
X173570000Y-53010547D01*
X173570000Y-52029452D01*
X173573427Y-52021179D01*
X173579239Y-52018014D01*
X174028749Y-51921414D01*
X174037555Y-51923026D01*
G37*
%TD.AperFunction*%
%TD*%
%TA.AperFunction,Conductor*%
%TO.N,Net-(J3-CC1)*%
G36*
X173997594Y-54453031D02*
G01*
X173999814Y-54454929D01*
X174086276Y-54550000D01*
X174533840Y-55042128D01*
X174536871Y-55050554D01*
X174533840Y-55057872D01*
X173999817Y-55645067D01*
X173991715Y-55648882D01*
X173988800Y-55648654D01*
X173519339Y-55551924D01*
X173511927Y-55546898D01*
X173510000Y-55540465D01*
X173510000Y-54559534D01*
X173513427Y-54551261D01*
X173519336Y-54548076D01*
X173988801Y-54451345D01*
X173997594Y-54453031D01*
G37*
%TD.AperFunction*%
%TD*%
%TA.AperFunction,Conductor*%
%TO.N,IO05-Relay*%
G36*
X145935540Y-83401208D02*
G01*
X146846215Y-83777437D01*
X146852553Y-83783764D01*
X146852562Y-83783784D01*
X147228790Y-84694458D01*
X147228781Y-84703412D01*
X147223881Y-84709025D01*
X145797134Y-85543210D01*
X145788263Y-85544428D01*
X145782956Y-85541383D01*
X145088616Y-84847043D01*
X145085189Y-84838770D01*
X145086787Y-84832869D01*
X145920974Y-83406117D01*
X145928108Y-83400705D01*
X145935540Y-83401208D01*
G37*
%TD.AperFunction*%
%TD*%
%TA.AperFunction,Conductor*%
%TO.N,IO05-Relay*%
G36*
X148554453Y-87623696D02*
G01*
X148556194Y-87625203D01*
X149094198Y-88192824D01*
X149097402Y-88201186D01*
X149095059Y-88207903D01*
X148653772Y-88794981D01*
X148646061Y-88799535D01*
X148643732Y-88799631D01*
X147811013Y-88750647D01*
X147802955Y-88746740D01*
X147800000Y-88738967D01*
X147800000Y-87759859D01*
X147803427Y-87751586D01*
X147809714Y-87748328D01*
X148545718Y-87621721D01*
X148554453Y-87623696D01*
G37*
%TD.AperFunction*%
%TD*%
%TA.AperFunction,Conductor*%
%TO.N,IO8*%
G36*
X149961803Y-56966926D02*
G01*
X149961877Y-56967100D01*
X150339136Y-57875513D01*
X150339145Y-57884467D01*
X150339136Y-57884487D01*
X149961765Y-58793168D01*
X149955427Y-58799495D01*
X149946567Y-58799525D01*
X148597307Y-58252959D01*
X148590926Y-58246677D01*
X148590000Y-58242115D01*
X148590000Y-57557673D01*
X148593427Y-57549400D01*
X148597036Y-57546943D01*
X149946413Y-56960855D01*
X149955364Y-56960703D01*
X149961803Y-56966926D01*
G37*
%TD.AperFunction*%
%TD*%
%TA.AperFunction,Conductor*%
%TO.N,IO8*%
G36*
X148602368Y-57500773D02*
G01*
X149379030Y-57549314D01*
X149387073Y-57553250D01*
X149390000Y-57560991D01*
X149390000Y-58239008D01*
X149386573Y-58247281D01*
X149379030Y-58250685D01*
X148602398Y-58299225D01*
X148593927Y-58296321D01*
X148589991Y-58288278D01*
X148589969Y-58287608D01*
X148589000Y-57900000D01*
X148589968Y-57512419D01*
X148593416Y-57504157D01*
X148601697Y-57500751D01*
X148602368Y-57500773D01*
G37*
%TD.AperFunction*%
%TD*%
%TA.AperFunction,Conductor*%
%TO.N,IO9-boot*%
G36*
X151456238Y-60243582D02*
G01*
X151459998Y-60251709D01*
X151460008Y-60252176D01*
X151460703Y-61235849D01*
X151457282Y-61244124D01*
X151457268Y-61244138D01*
X150760827Y-61939188D01*
X150752550Y-61942607D01*
X150744642Y-61939519D01*
X149984738Y-61240707D01*
X149508526Y-60802779D01*
X149504757Y-60794659D01*
X149507835Y-60786249D01*
X149508149Y-60785921D01*
X149991292Y-60302778D01*
X149999087Y-60299362D01*
X151447833Y-60240494D01*
X151456238Y-60243582D01*
G37*
%TD.AperFunction*%
%TD*%
%TA.AperFunction,Conductor*%
%TO.N,IO9-boot*%
G36*
X149580583Y-59815960D02*
G01*
X149581048Y-59816457D01*
X149859897Y-60132486D01*
X150095900Y-60399956D01*
X150098804Y-60408427D01*
X150095400Y-60415970D01*
X149615970Y-60895400D01*
X149607697Y-60898827D01*
X149599956Y-60895900D01*
X149056034Y-60415970D01*
X149016470Y-60381060D01*
X149012535Y-60373019D01*
X149015439Y-60364548D01*
X149015900Y-60364055D01*
X149289293Y-60089293D01*
X149564038Y-59815917D01*
X149572318Y-59812512D01*
X149580583Y-59815960D01*
G37*
%TD.AperFunction*%
%TD*%
%TA.AperFunction,Conductor*%
%TO.N,IO02-Data-3.3V*%
G36*
X159488143Y-55422284D02*
G01*
X160397842Y-55798108D01*
X160401652Y-55800654D01*
X161097443Y-56497429D01*
X161100864Y-56505704D01*
X161097431Y-56513975D01*
X161096050Y-56515155D01*
X160260933Y-57123055D01*
X159916074Y-57374087D01*
X159903079Y-57383546D01*
X159896193Y-57385787D01*
X158915615Y-57385787D01*
X158907342Y-57382360D01*
X158903915Y-57374087D01*
X158904386Y-57370801D01*
X159154811Y-56515155D01*
X159472461Y-55429815D01*
X159478074Y-55422839D01*
X159486976Y-55421874D01*
X159488143Y-55422284D01*
G37*
%TD.AperFunction*%
%TD*%
%TA.AperFunction,Conductor*%
%TO.N,IO02-Data-3.3V*%
G36*
X167551937Y-51303222D02*
G01*
X167554040Y-51305375D01*
X167995715Y-51892970D01*
X167997946Y-51901642D01*
X167995715Y-51907030D01*
X167554040Y-52494624D01*
X167546329Y-52499178D01*
X167543320Y-52499214D01*
X166710333Y-52401215D01*
X166702517Y-52396845D01*
X166700000Y-52389595D01*
X166700000Y-51410404D01*
X166703427Y-51402131D01*
X166710332Y-51398784D01*
X167543322Y-51300785D01*
X167551937Y-51303222D01*
G37*
%TD.AperFunction*%
%TD*%
%TA.AperFunction,Conductor*%
%TO.N,IO04-Temperature*%
G36*
X139219244Y-86973427D02*
G01*
X139222289Y-86978734D01*
X139641295Y-88577456D01*
X139640077Y-88586327D01*
X139634464Y-88591227D01*
X138724487Y-88969136D01*
X138715533Y-88969145D01*
X138715513Y-88969136D01*
X137805535Y-88591227D01*
X137799208Y-88584889D01*
X137798704Y-88577456D01*
X138217711Y-86978734D01*
X138223124Y-86971600D01*
X138229029Y-86970000D01*
X139210971Y-86970000D01*
X139219244Y-86973427D01*
G37*
%TD.AperFunction*%
%TD*%
%TA.AperFunction,Conductor*%
%TO.N,IO04-Temperature*%
G36*
X140489902Y-84391756D02*
G01*
X140493329Y-84400029D01*
X140492231Y-84404977D01*
X139904230Y-85664969D01*
X139897626Y-85671017D01*
X139890386Y-85671263D01*
X139305604Y-85502616D01*
X139298604Y-85497031D01*
X139297920Y-85495556D01*
X139035050Y-84807589D01*
X139035298Y-84798640D01*
X139038246Y-84794635D01*
X139325301Y-84542049D01*
X139330744Y-84539361D01*
X139333231Y-84538867D01*
X139399552Y-84494552D01*
X139427632Y-84452527D01*
X139429614Y-84450262D01*
X139496686Y-84391244D01*
X139504415Y-84388329D01*
X140481629Y-84388329D01*
X140489902Y-84391756D01*
G37*
%TD.AperFunction*%
%TD*%
%TA.AperFunction,Conductor*%
%TO.N,IO04-Temperature*%
G36*
X139294427Y-85497686D02*
G01*
X139301693Y-85502919D01*
X139302382Y-85504206D01*
X139617627Y-86193147D01*
X139617953Y-86202096D01*
X139615821Y-86205688D01*
X139223498Y-86657350D01*
X139215486Y-86661348D01*
X139214665Y-86661377D01*
X138236776Y-86661377D01*
X138228503Y-86657950D01*
X138225076Y-86649677D01*
X138225796Y-86645635D01*
X138646505Y-85502919D01*
X138696421Y-85367338D01*
X138702495Y-85360760D01*
X138710083Y-85359994D01*
X139294427Y-85497686D01*
G37*
%TD.AperFunction*%
%TD*%
%TA.AperFunction,Conductor*%
%TO.N,Net-(U4-VIOUT)*%
G36*
X173845371Y-79806158D02*
G01*
X174431175Y-80338916D01*
X174434990Y-80347017D01*
X174433941Y-80352441D01*
X174140627Y-80993170D01*
X174134068Y-80999266D01*
X174129989Y-81000000D01*
X173545011Y-81000000D01*
X173536738Y-80996573D01*
X173534373Y-80993170D01*
X173241058Y-80352441D01*
X173240730Y-80343492D01*
X173243821Y-80338919D01*
X173829628Y-79806158D01*
X173838054Y-79803128D01*
X173845371Y-79806158D01*
G37*
%TD.AperFunction*%
%TD*%
%TA.AperFunction,Conductor*%
%TO.N,RX*%
G36*
X169962967Y-61021619D02*
G01*
X169965011Y-61024374D01*
X170917796Y-62805941D01*
X170918676Y-62814853D01*
X170912997Y-62821776D01*
X170911966Y-62822264D01*
X170002866Y-63199810D01*
X169998371Y-63200705D01*
X169013832Y-63200009D01*
X169005561Y-63196576D01*
X169002140Y-63188301D01*
X169002303Y-63186366D01*
X169249845Y-61721254D01*
X169253105Y-61714935D01*
X169946422Y-61021618D01*
X169954694Y-61018192D01*
X169962967Y-61021619D01*
G37*
%TD.AperFunction*%
%TD*%
%TA.AperFunction,Conductor*%
%TO.N,IO07-Button*%
G36*
X168598223Y-71203427D02*
G01*
X168601516Y-71209935D01*
X168699053Y-71849130D01*
X168696913Y-71857825D01*
X168695359Y-71859551D01*
X168107872Y-72393840D01*
X168099446Y-72396871D01*
X168092128Y-72393840D01*
X167504640Y-71859551D01*
X167500825Y-71851449D01*
X167500946Y-71849130D01*
X167598484Y-71209935D01*
X167603120Y-71202274D01*
X167610050Y-71200000D01*
X168589950Y-71200000D01*
X168598223Y-71203427D01*
G37*
%TD.AperFunction*%
%TD*%
%TA.AperFunction,Conductor*%
%TO.N,IO07-Button*%
G36*
X167442064Y-71903427D02*
G01*
X167445491Y-71911700D01*
X167445491Y-72893551D01*
X167442064Y-72901824D01*
X167440039Y-72903443D01*
X165994414Y-73816470D01*
X165985589Y-73817991D01*
X165978274Y-73812826D01*
X165977361Y-73811065D01*
X165599897Y-72902160D01*
X165599002Y-72897661D01*
X165599988Y-71911688D01*
X165603423Y-71903419D01*
X165611688Y-71900000D01*
X167433791Y-71900000D01*
X167442064Y-71903427D01*
G37*
%TD.AperFunction*%
%TD*%
%TA.AperFunction,Conductor*%
%TO.N,IO07-Button*%
G36*
X167651937Y-71803222D02*
G01*
X167654040Y-71805375D01*
X168095715Y-72392970D01*
X168097946Y-72401642D01*
X168095715Y-72407030D01*
X167654040Y-72994624D01*
X167646329Y-72999178D01*
X167643320Y-72999214D01*
X166810333Y-72901215D01*
X166802517Y-72896845D01*
X166800000Y-72889595D01*
X166800000Y-71910404D01*
X166803427Y-71902131D01*
X166810332Y-71898784D01*
X167643322Y-71800785D01*
X167651937Y-71803222D01*
G37*
%TD.AperFunction*%
%TD*%
%TA.AperFunction,Conductor*%
%TO.N,IO07-Button*%
G36*
X167238188Y-69813344D02*
G01*
X167839941Y-69898575D01*
X167847652Y-69903128D01*
X167850000Y-69910159D01*
X167850000Y-70889840D01*
X167846573Y-70898113D01*
X167839941Y-70901424D01*
X167238195Y-70986654D01*
X167229523Y-70984422D01*
X167228072Y-70983129D01*
X166681657Y-70408059D01*
X166678443Y-70399701D01*
X166681657Y-70391941D01*
X167139432Y-69910159D01*
X167228073Y-69816869D01*
X167236255Y-69813233D01*
X167238188Y-69813344D01*
G37*
%TD.AperFunction*%
%TD*%
%TA.AperFunction,Conductor*%
%TO.N,IO10*%
G36*
X167399301Y-61385416D02*
G01*
X167402327Y-61390654D01*
X167831219Y-62987410D01*
X167830056Y-62996289D01*
X167824407Y-63001250D01*
X166914487Y-63379136D01*
X166905533Y-63379145D01*
X166905513Y-63379136D01*
X165995483Y-63001205D01*
X165989156Y-62994867D01*
X165988636Y-62987496D01*
X166397746Y-61390785D01*
X166403119Y-61383621D01*
X166409080Y-61381989D01*
X167391028Y-61381989D01*
X167399301Y-61385416D01*
G37*
%TD.AperFunction*%
%TD*%
%TA.AperFunction,Conductor*%
%TO.N,IO03-CLK-3.3V*%
G36*
X155987940Y-84741201D02*
G01*
X156899252Y-85117693D01*
X156903066Y-85120242D01*
X157598550Y-85817118D01*
X157601969Y-85825395D01*
X157598534Y-85833664D01*
X157597540Y-85834549D01*
X156082004Y-87036790D01*
X156073393Y-87039247D01*
X156066460Y-87035897D01*
X155372088Y-86341525D01*
X155368661Y-86333252D01*
X155369428Y-86329084D01*
X155972542Y-84747843D01*
X155978691Y-84741337D01*
X155987643Y-84741083D01*
X155987940Y-84741201D01*
G37*
%TD.AperFunction*%
%TD*%
%TA.AperFunction,Conductor*%
%TO.N,IO03-CLK-3.3V*%
G36*
X157906514Y-83283438D02*
G01*
X157909941Y-83291711D01*
X157909941Y-83291770D01*
X157900765Y-85107663D01*
X157897296Y-85115919D01*
X157889077Y-85119304D01*
X156903045Y-85120290D01*
X156898546Y-85119395D01*
X155989725Y-84741966D01*
X155983398Y-84735628D01*
X155983407Y-84726674D01*
X155984355Y-84724859D01*
X156902467Y-83291770D01*
X156906548Y-83285400D01*
X156913897Y-83280282D01*
X156916400Y-83280011D01*
X157898241Y-83280011D01*
X157906514Y-83283438D01*
G37*
%TD.AperFunction*%
%TD*%
%TA.AperFunction,Conductor*%
%TO.N,TX*%
G36*
X166214885Y-58060382D02*
G01*
X166909237Y-58754734D01*
X166912664Y-58763007D01*
X166910898Y-58769188D01*
X166049117Y-60154264D01*
X166041837Y-60159478D01*
X166034716Y-60158897D01*
X165123784Y-59782562D01*
X165117446Y-59776235D01*
X165117437Y-59776215D01*
X164741328Y-58865828D01*
X164741337Y-58856877D01*
X164746541Y-58851092D01*
X166201016Y-58058381D01*
X166209917Y-58057432D01*
X166214885Y-58060382D01*
G37*
%TD.AperFunction*%
%TD*%
M02*
