%TF.GenerationSoftware,KiCad,Pcbnew,8.0.2*%
%TF.CreationDate,2024-08-19T20:28:07+02:00*%
%TF.ProjectId,TwinkleTron,5477696e-6b6c-4655-9472-6f6e2e6b6963,rev?*%
%TF.SameCoordinates,Original*%
%TF.FileFunction,Soldermask,Bot*%
%TF.FilePolarity,Negative*%
%FSLAX46Y46*%
G04 Gerber Fmt 4.6, Leading zero omitted, Abs format (unit mm)*
G04 Created by KiCad (PCBNEW 8.0.2) date 2024-08-19 20:28:07*
%MOMM*%
%LPD*%
G01*
G04 APERTURE LIST*
G04 Aperture macros list*
%AMRoundRect*
0 Rectangle with rounded corners*
0 $1 Rounding radius*
0 $2 $3 $4 $5 $6 $7 $8 $9 X,Y pos of 4 corners*
0 Add a 4 corners polygon primitive as box body*
4,1,4,$2,$3,$4,$5,$6,$7,$8,$9,$2,$3,0*
0 Add four circle primitives for the rounded corners*
1,1,$1+$1,$2,$3*
1,1,$1+$1,$4,$5*
1,1,$1+$1,$6,$7*
1,1,$1+$1,$8,$9*
0 Add four rect primitives between the rounded corners*
20,1,$1+$1,$2,$3,$4,$5,0*
20,1,$1+$1,$4,$5,$6,$7,0*
20,1,$1+$1,$6,$7,$8,$9,0*
20,1,$1+$1,$8,$9,$2,$3,0*%
G04 Aperture macros list end*
%ADD10RoundRect,0.250200X0.649800X-0.649800X0.649800X0.649800X-0.649800X0.649800X-0.649800X-0.649800X0*%
%ADD11C,1.800000*%
%ADD12C,1.854000*%
%ADD13RoundRect,0.102000X-0.825000X-0.825000X0.825000X-0.825000X0.825000X0.825000X-0.825000X0.825000X0*%
%ADD14RoundRect,0.249999X-0.790001X-1.550001X0.790001X-1.550001X0.790001X1.550001X-0.790001X1.550001X0*%
%ADD15O,2.080000X3.600000*%
%ADD16R,1.050000X1.500000*%
%ADD17O,1.050000X1.500000*%
%ADD18C,0.650000*%
%ADD19O,2.100000X1.000000*%
%ADD20O,1.600000X1.000000*%
%ADD21R,2.000000X2.000000*%
%ADD22C,2.000000*%
%ADD23RoundRect,0.250000X0.750000X-0.600000X0.750000X0.600000X-0.750000X0.600000X-0.750000X-0.600000X0*%
%ADD24O,2.000000X1.700000*%
%ADD25RoundRect,0.250000X-0.475000X0.337500X-0.475000X-0.337500X0.475000X-0.337500X0.475000X0.337500X0*%
%ADD26RoundRect,0.250000X-0.800000X0.450000X-0.800000X-0.450000X0.800000X-0.450000X0.800000X0.450000X0*%
%ADD27RoundRect,0.250000X0.450000X0.800000X-0.450000X0.800000X-0.450000X-0.800000X0.450000X-0.800000X0*%
%ADD28RoundRect,0.250000X-1.500000X-0.650000X1.500000X-0.650000X1.500000X0.650000X-1.500000X0.650000X0*%
%ADD29RoundRect,0.250000X0.450000X-0.350000X0.450000X0.350000X-0.450000X0.350000X-0.450000X-0.350000X0*%
%ADD30RoundRect,0.225000X0.375000X-0.225000X0.375000X0.225000X-0.375000X0.225000X-0.375000X-0.225000X0*%
%ADD31RoundRect,0.250000X-0.337500X-0.475000X0.337500X-0.475000X0.337500X0.475000X-0.337500X0.475000X0*%
%ADD32RoundRect,0.150000X-0.825000X-0.150000X0.825000X-0.150000X0.825000X0.150000X-0.825000X0.150000X0*%
%ADD33RoundRect,0.250000X0.350000X0.450000X-0.350000X0.450000X-0.350000X-0.450000X0.350000X-0.450000X0*%
%ADD34RoundRect,0.250000X-0.450000X0.350000X-0.450000X-0.350000X0.450000X-0.350000X0.450000X0.350000X0*%
%ADD35RoundRect,0.250000X-0.350000X-0.450000X0.350000X-0.450000X0.350000X0.450000X-0.350000X0.450000X0*%
%ADD36RoundRect,0.150000X0.587500X0.150000X-0.587500X0.150000X-0.587500X-0.150000X0.587500X-0.150000X0*%
%ADD37R,3.810000X4.240000*%
%ADD38RoundRect,0.250000X0.337500X0.475000X-0.337500X0.475000X-0.337500X-0.475000X0.337500X-0.475000X0*%
%ADD39RoundRect,0.250000X-0.450000X-0.800000X0.450000X-0.800000X0.450000X0.800000X-0.450000X0.800000X0*%
G04 APERTURE END LIST*
D10*
%TO.C,U5-O1*%
X174690000Y-67580000D03*
D11*
X174690000Y-65040000D03*
X174690000Y-62500000D03*
%TD*%
D12*
%TO.C,K1*%
X153280000Y-95030000D03*
X160280000Y-95030000D03*
X141780000Y-95030000D03*
D13*
X141780000Y-90330000D03*
%TD*%
D14*
%TO.C,J1*%
X142597500Y-102400000D03*
D15*
X147677500Y-102400000D03*
X152757500Y-102400000D03*
X157837500Y-102400000D03*
%TD*%
D16*
%TO.C,U4-O1*%
X138730000Y-83600000D03*
D17*
X140000000Y-83600000D03*
X141270000Y-83600000D03*
%TD*%
D18*
%TO.C,J3*%
X173350000Y-56690000D03*
X173350000Y-50910000D03*
D19*
X172820000Y-58120000D03*
D20*
X177000000Y-58120000D03*
D19*
X172820000Y-49480000D03*
D20*
X177000000Y-49480000D03*
%TD*%
D14*
%TO.C,J2*%
X165937500Y-102400000D03*
D15*
X171017500Y-102400000D03*
%TD*%
D21*
%TO.C,C7*%
X170070000Y-91700000D03*
D22*
X175070000Y-91700000D03*
%TD*%
D23*
%TO.C,J3-O1*%
X170550000Y-74350000D03*
D24*
X170550000Y-71850000D03*
%TD*%
D22*
%TO.C,TP18*%
X150810000Y-75830000D03*
%TD*%
D25*
%TO.C,C17*%
X169507500Y-77725000D03*
X169507500Y-79800000D03*
%TD*%
D26*
%TO.C,D4*%
X148070000Y-68800000D03*
X148070000Y-73200000D03*
%TD*%
D27*
%TO.C,D9*%
X144300000Y-99000000D03*
X139900000Y-99000000D03*
%TD*%
D22*
%TO.C,TP13*%
X156900707Y-85119293D03*
%TD*%
%TO.C,TP1*%
X176400000Y-79200000D03*
%TD*%
D28*
%TO.C,D7*%
X148700000Y-66000000D03*
X153700000Y-66000000D03*
%TD*%
D29*
%TO.C,R12*%
X175500000Y-88600000D03*
X175500000Y-86600000D03*
%TD*%
%TO.C,R15*%
X173837500Y-79800000D03*
X173837500Y-77800000D03*
%TD*%
D22*
%TO.C,TP5*%
X165600000Y-72900000D03*
%TD*%
D27*
%TO.C,D6*%
X170787500Y-66520000D03*
X166387500Y-66520000D03*
%TD*%
D30*
%TO.C,D3*%
X144130000Y-95090000D03*
X144130000Y-91790000D03*
%TD*%
D31*
%TO.C,C1*%
X141825000Y-45800000D03*
X143900000Y-45800000D03*
%TD*%
D29*
%TO.C,R8*%
X168000000Y-53900000D03*
X168000000Y-51900000D03*
%TD*%
D22*
%TO.C,TP20*%
X153270000Y-92030000D03*
%TD*%
D32*
%TO.C,U4*%
X166600000Y-87110000D03*
X166600000Y-85840000D03*
X166600000Y-84570000D03*
X166600000Y-83300000D03*
X171550000Y-83300000D03*
X171550000Y-84570000D03*
X171550000Y-85840000D03*
X171550000Y-87110000D03*
%TD*%
D33*
%TO.C,R10-O1*%
X141300000Y-85500000D03*
X139300000Y-85500000D03*
%TD*%
D34*
%TO.C,R16*%
X171707500Y-77800000D03*
X171707500Y-79800000D03*
%TD*%
D22*
%TO.C,TP15*%
X165120000Y-59780000D03*
%TD*%
D31*
%TO.C,C16*%
X175525000Y-82700000D03*
X177600000Y-82700000D03*
%TD*%
D35*
%TO.C,R13*%
X175525000Y-84800000D03*
X177525000Y-84800000D03*
%TD*%
D22*
%TO.C,TP9*%
X151460000Y-61240000D03*
%TD*%
D36*
%TO.C,Q1*%
X146937500Y-88250000D03*
X146937500Y-90150000D03*
X145062500Y-89200000D03*
%TD*%
D25*
%TO.C,C8*%
X150670000Y-69800000D03*
X150670000Y-71875000D03*
%TD*%
D29*
%TO.C,R5*%
X149120000Y-97830000D03*
X149120000Y-95830000D03*
%TD*%
D37*
%TO.C,F1*%
X165937500Y-97000000D03*
X165937500Y-90630000D03*
%TD*%
D34*
%TO.C,R12-O1*%
X168100000Y-72400000D03*
X168100000Y-74400000D03*
%TD*%
D33*
%TO.C,R2*%
X176540000Y-55050000D03*
X174540000Y-55050000D03*
%TD*%
D22*
%TO.C,TP19*%
X160200000Y-80860000D03*
%TD*%
D31*
%TO.C,C10*%
X141115000Y-58250000D03*
X143190000Y-58250000D03*
%TD*%
D22*
%TO.C,TP3*%
X160400000Y-55800000D03*
%TD*%
D34*
%TO.C,R9*%
X149100000Y-88200000D03*
X149100000Y-90200000D03*
%TD*%
D25*
%TO.C,C12*%
X157837500Y-105000000D03*
X157837500Y-107075000D03*
%TD*%
D33*
%TO.C,R10*%
X176580000Y-52520000D03*
X174580000Y-52520000D03*
%TD*%
D22*
%TO.C,TP6*%
X170000000Y-63200000D03*
%TD*%
%TO.C,TP17*%
X139030000Y-95030000D03*
%TD*%
%TO.C,TP14*%
X146850000Y-83780000D03*
%TD*%
D28*
%TO.C,D8*%
X153600000Y-50200000D03*
X158600000Y-50200000D03*
%TD*%
D22*
%TO.C,TP8*%
X150340000Y-57880000D03*
%TD*%
D34*
%TO.C,R4*%
X146820000Y-95840000D03*
X146820000Y-97840000D03*
%TD*%
D38*
%TO.C,C13-O1*%
X166675000Y-70400000D03*
X164600000Y-70400000D03*
%TD*%
D39*
%TO.C,D10*%
X147700000Y-105900000D03*
X152100000Y-105900000D03*
%TD*%
D22*
%TO.C,TP10*%
X166910000Y-63380000D03*
%TD*%
%TO.C,TP4*%
X138720000Y-88970000D03*
%TD*%
D31*
%TO.C,C2*%
X141825000Y-47800000D03*
X143900000Y-47800000D03*
%TD*%
M02*
