%TF.GenerationSoftware,KiCad,Pcbnew,8.0.2*%
%TF.CreationDate,2024-08-19T20:28:07+02:00*%
%TF.ProjectId,TwinkleTron,5477696e-6b6c-4655-9472-6f6e2e6b6963,rev?*%
%TF.SameCoordinates,Original*%
%TF.FileFunction,Paste,Top*%
%TF.FilePolarity,Positive*%
%FSLAX46Y46*%
G04 Gerber Fmt 4.6, Leading zero omitted, Abs format (unit mm)*
G04 Created by KiCad (PCBNEW 8.0.2) date 2024-08-19 20:28:07*
%MOMM*%
%LPD*%
G01*
G04 APERTURE LIST*
G04 Aperture macros list*
%AMRoundRect*
0 Rectangle with rounded corners*
0 $1 Rounding radius*
0 $2 $3 $4 $5 $6 $7 $8 $9 X,Y pos of 4 corners*
0 Add a 4 corners polygon primitive as box body*
4,1,4,$2,$3,$4,$5,$6,$7,$8,$9,$2,$3,0*
0 Add four circle primitives for the rounded corners*
1,1,$1+$1,$2,$3*
1,1,$1+$1,$4,$5*
1,1,$1+$1,$6,$7*
1,1,$1+$1,$8,$9*
0 Add four rect primitives between the rounded corners*
20,1,$1+$1,$2,$3,$4,$5,0*
20,1,$1+$1,$4,$5,$6,$7,0*
20,1,$1+$1,$6,$7,$8,$9,0*
20,1,$1+$1,$8,$9,$2,$3,0*%
G04 Aperture macros list end*
%ADD10RoundRect,0.250000X0.475000X-0.337500X0.475000X0.337500X-0.475000X0.337500X-0.475000X-0.337500X0*%
%ADD11RoundRect,0.250000X-0.350000X-0.450000X0.350000X-0.450000X0.350000X0.450000X-0.350000X0.450000X0*%
%ADD12RoundRect,0.250000X-0.475000X0.337500X-0.475000X-0.337500X0.475000X-0.337500X0.475000X0.337500X0*%
%ADD13RoundRect,0.250000X0.350000X0.450000X-0.350000X0.450000X-0.350000X-0.450000X0.350000X-0.450000X0*%
%ADD14R,1.500000X0.900000*%
%ADD15R,0.700000X0.700000*%
%ADD16RoundRect,0.375000X0.625000X0.375000X-0.625000X0.375000X-0.625000X-0.375000X0.625000X-0.375000X0*%
%ADD17RoundRect,0.500000X0.500000X1.400000X-0.500000X1.400000X-0.500000X-1.400000X0.500000X-1.400000X0*%
%ADD18RoundRect,0.250000X-0.450000X0.350000X-0.450000X-0.350000X0.450000X-0.350000X0.450000X0.350000X0*%
%ADD19RoundRect,0.162500X0.162500X-0.617500X0.162500X0.617500X-0.162500X0.617500X-0.162500X-0.617500X0*%
%ADD20RoundRect,0.250000X-0.337500X-0.475000X0.337500X-0.475000X0.337500X0.475000X-0.337500X0.475000X0*%
%ADD21R,3.400000X1.000000*%
%ADD22R,1.450000X0.600000*%
%ADD23R,1.450000X0.300000*%
%ADD24RoundRect,0.150000X0.150000X-0.825000X0.150000X0.825000X-0.150000X0.825000X-0.150000X-0.825000X0*%
%ADD25RoundRect,0.250000X0.650000X-1.500000X0.650000X1.500000X-0.650000X1.500000X-0.650000X-1.500000X0*%
%ADD26RoundRect,0.250000X-0.650000X1.500000X-0.650000X-1.500000X0.650000X-1.500000X0.650000X1.500000X0*%
%ADD27RoundRect,0.225000X-0.375000X0.225000X-0.375000X-0.225000X0.375000X-0.225000X0.375000X0.225000X0*%
%ADD28R,3.150000X1.780000*%
%ADD29RoundRect,0.200000X0.800000X-0.200000X0.800000X0.200000X-0.800000X0.200000X-0.800000X-0.200000X0*%
G04 APERTURE END LIST*
D10*
%TO.C,C13*%
X153050000Y-76225000D03*
X153050000Y-74150000D03*
%TD*%
D11*
%TO.C,R1*%
X141980000Y-50190000D03*
X143980000Y-50190000D03*
%TD*%
D12*
%TO.C,C9*%
X148660000Y-70562500D03*
X148660000Y-72637500D03*
%TD*%
D10*
%TO.C,C6*%
X162650000Y-70225000D03*
X162650000Y-68150000D03*
%TD*%
D13*
%TO.C,R11-O1*%
X170800000Y-66900000D03*
X168800000Y-66900000D03*
%TD*%
D14*
%TO.C,U1*%
X147200000Y-48900000D03*
X147200000Y-50400000D03*
X147200000Y-51900000D03*
X147200000Y-53400000D03*
X147200000Y-54900000D03*
X147200000Y-56400000D03*
X147200000Y-57900000D03*
X147200000Y-59400000D03*
X147200000Y-60900000D03*
X164700000Y-60900000D03*
X164700000Y-59400000D03*
X164700000Y-57900000D03*
X164700000Y-56400000D03*
X164700000Y-54900000D03*
X164700000Y-53400000D03*
X164700000Y-51900000D03*
X164700000Y-50400000D03*
X164700000Y-48900000D03*
D15*
X155810000Y-54000000D03*
X156910000Y-54000000D03*
X158010000Y-54000000D03*
X155810000Y-55100000D03*
X156910000Y-55100000D03*
X158010000Y-55100000D03*
X155810000Y-56200000D03*
X156910000Y-56200000D03*
X158010000Y-56200000D03*
%TD*%
D11*
%TO.C,R11*%
X160350000Y-81350000D03*
X162350000Y-81350000D03*
%TD*%
D16*
%TO.C,U3*%
X145640000Y-74190000D03*
X145640000Y-71890000D03*
D17*
X139340000Y-71890000D03*
D16*
X145640000Y-69590000D03*
%TD*%
D10*
%TO.C,C14*%
X165750000Y-70225000D03*
X165750000Y-68150000D03*
%TD*%
D18*
%TO.C,R7*%
X140610000Y-55600000D03*
X140610000Y-57600000D03*
%TD*%
D19*
%TO.C,U5*%
X158400000Y-76200000D03*
X159350000Y-76200000D03*
X160300000Y-76200000D03*
X160300000Y-73500000D03*
X159350000Y-73500000D03*
X158400000Y-73500000D03*
%TD*%
D18*
%TO.C,R6*%
X158220000Y-79520000D03*
X158220000Y-81520000D03*
%TD*%
D20*
%TO.C,C4*%
X146625000Y-78740000D03*
X148700000Y-78740000D03*
%TD*%
D10*
%TO.C,C5*%
X151450000Y-65387500D03*
X151450000Y-63312500D03*
%TD*%
D21*
%TO.C,L1*%
X153050000Y-69100000D03*
X153050000Y-67000000D03*
%TD*%
D18*
%TO.C,R3*%
X142810000Y-55600000D03*
X142810000Y-57600000D03*
%TD*%
D22*
%TO.C,J3*%
X171905000Y-57050000D03*
X171905000Y-56250000D03*
D23*
X171905000Y-55050000D03*
X171905000Y-54050000D03*
X171905000Y-53550000D03*
X171905000Y-52550000D03*
D22*
X171905000Y-51350000D03*
X171905000Y-50550000D03*
X171905000Y-50550000D03*
X171905000Y-51350000D03*
D23*
X171905000Y-52050000D03*
X171905000Y-53050000D03*
X171905000Y-54550000D03*
X171905000Y-55550000D03*
D22*
X171905000Y-56250000D03*
X171905000Y-57050000D03*
%TD*%
D24*
%TO.C,U6*%
X148690000Y-86690000D03*
X149960000Y-86690000D03*
X151230000Y-86690000D03*
X152500000Y-86690000D03*
X153770000Y-86690000D03*
X155040000Y-86690000D03*
X156310000Y-86690000D03*
X156310000Y-81740000D03*
X155040000Y-81740000D03*
X153770000Y-81740000D03*
X152500000Y-81740000D03*
X151230000Y-81740000D03*
X149960000Y-81740000D03*
X148690000Y-81740000D03*
%TD*%
D25*
%TO.C,D1*%
X158050000Y-70050000D03*
X158050000Y-65050000D03*
%TD*%
D26*
%TO.C,D2*%
X164000000Y-73100000D03*
X164000000Y-78100000D03*
%TD*%
D27*
%TO.C,D5*%
X156050000Y-76200000D03*
X156050000Y-79500000D03*
%TD*%
D20*
%TO.C,C11*%
X141960000Y-48000000D03*
X144035000Y-48000000D03*
%TD*%
D28*
%TO.C,F3*%
X165300000Y-86630000D03*
X165300000Y-81400000D03*
%TD*%
D29*
%TO.C,SW1*%
X140610000Y-63600000D03*
X140610000Y-59400000D03*
%TD*%
D10*
%TO.C,C15*%
X153900000Y-65400000D03*
X153900000Y-63325000D03*
%TD*%
M02*
