%TF.GenerationSoftware,KiCad,Pcbnew,8.0.2*%
%TF.CreationDate,2024-08-19T20:28:07+02:00*%
%TF.ProjectId,TwinkleTron,5477696e-6b6c-4655-9472-6f6e2e6b6963,rev?*%
%TF.SameCoordinates,Original*%
%TF.FileFunction,Legend,Top*%
%TF.FilePolarity,Positive*%
%FSLAX46Y46*%
G04 Gerber Fmt 4.6, Leading zero omitted, Abs format (unit mm)*
G04 Created by KiCad (PCBNEW 8.0.2) date 2024-08-19 20:28:07*
%MOMM*%
%LPD*%
G01*
G04 APERTURE LIST*
G04 Aperture macros list*
%AMRoundRect*
0 Rectangle with rounded corners*
0 $1 Rounding radius*
0 $2 $3 $4 $5 $6 $7 $8 $9 X,Y pos of 4 corners*
0 Add a 4 corners polygon primitive as box body*
4,1,4,$2,$3,$4,$5,$6,$7,$8,$9,$2,$3,0*
0 Add four circle primitives for the rounded corners*
1,1,$1+$1,$2,$3*
1,1,$1+$1,$4,$5*
1,1,$1+$1,$6,$7*
1,1,$1+$1,$8,$9*
0 Add four rect primitives between the rounded corners*
20,1,$1+$1,$2,$3,$4,$5,0*
20,1,$1+$1,$4,$5,$6,$7,0*
20,1,$1+$1,$6,$7,$8,$9,0*
20,1,$1+$1,$8,$9,$2,$3,0*%
%AMFreePoly0*
4,1,19,0.500000,-0.750000,0.000000,-0.750000,0.000000,-0.744911,-0.071157,-0.744911,-0.207708,-0.704816,-0.327430,-0.627875,-0.420627,-0.520320,-0.479746,-0.390866,-0.500000,-0.250000,-0.500000,0.250000,-0.479746,0.390866,-0.420627,0.520320,-0.327430,0.627875,-0.207708,0.704816,-0.071157,0.744911,0.000000,0.744911,0.000000,0.750000,0.500000,0.750000,0.500000,-0.750000,0.500000,-0.750000,
$1*%
%AMFreePoly1*
4,1,19,0.000000,0.744911,0.071157,0.744911,0.207708,0.704816,0.327430,0.627875,0.420627,0.520320,0.479746,0.390866,0.500000,0.250000,0.500000,-0.250000,0.479746,-0.390866,0.420627,-0.520320,0.327430,-0.627875,0.207708,-0.704816,0.071157,-0.744911,0.000000,-0.744911,0.000000,-0.750000,-0.500000,-0.750000,-0.500000,0.750000,0.000000,0.750000,0.000000,0.744911,0.000000,0.744911,
$1*%
G04 Aperture macros list end*
%ADD10C,0.000000*%
%ADD11C,0.300000*%
%ADD12C,0.150000*%
%ADD13C,0.250000*%
%ADD14C,0.120000*%
%ADD15C,0.127000*%
%ADD16C,0.200000*%
%ADD17C,0.152400*%
%ADD18RoundRect,0.250000X0.475000X-0.337500X0.475000X0.337500X-0.475000X0.337500X-0.475000X-0.337500X0*%
%ADD19RoundRect,0.250000X-0.350000X-0.450000X0.350000X-0.450000X0.350000X0.450000X-0.350000X0.450000X0*%
%ADD20RoundRect,0.250200X0.649800X-0.649800X0.649800X0.649800X-0.649800X0.649800X-0.649800X-0.649800X0*%
%ADD21C,1.800000*%
%ADD22RoundRect,0.250000X-0.475000X0.337500X-0.475000X-0.337500X0.475000X-0.337500X0.475000X0.337500X0*%
%ADD23RoundRect,0.250000X0.350000X0.450000X-0.350000X0.450000X-0.350000X-0.450000X0.350000X-0.450000X0*%
%ADD24C,2.000000*%
%ADD25RoundRect,0.102000X-0.750000X-0.450000X0.750000X-0.450000X0.750000X0.450000X-0.750000X0.450000X0*%
%ADD26RoundRect,0.102000X-0.350000X-0.350000X0.350000X-0.350000X0.350000X0.350000X-0.350000X0.350000X0*%
%ADD27C,1.854000*%
%ADD28RoundRect,0.102000X-0.825000X-0.825000X0.825000X-0.825000X0.825000X0.825000X-0.825000X0.825000X0*%
%ADD29RoundRect,0.375000X0.625000X0.375000X-0.625000X0.375000X-0.625000X-0.375000X0.625000X-0.375000X0*%
%ADD30RoundRect,0.500000X0.500000X1.400000X-0.500000X1.400000X-0.500000X-1.400000X0.500000X-1.400000X0*%
%ADD31RoundRect,0.250000X-0.450000X0.350000X-0.450000X-0.350000X0.450000X-0.350000X0.450000X0.350000X0*%
%ADD32RoundRect,0.162500X0.162500X-0.617500X0.162500X0.617500X-0.162500X0.617500X-0.162500X-0.617500X0*%
%ADD33RoundRect,0.249999X-0.790001X-1.550001X0.790001X-1.550001X0.790001X1.550001X-0.790001X1.550001X0*%
%ADD34O,2.080000X3.600000*%
%ADD35R,1.050000X1.500000*%
%ADD36O,1.050000X1.500000*%
%ADD37FreePoly0,180.000000*%
%ADD38FreePoly1,180.000000*%
%ADD39RoundRect,0.250000X-0.337500X-0.475000X0.337500X-0.475000X0.337500X0.475000X-0.337500X0.475000X0*%
%ADD40RoundRect,0.102000X1.700000X-0.500000X1.700000X0.500000X-1.700000X0.500000X-1.700000X-0.500000X0*%
%ADD41C,0.650000*%
%ADD42R,1.450000X0.600000*%
%ADD43R,1.450000X0.300000*%
%ADD44O,2.100000X1.000000*%
%ADD45O,1.600000X1.000000*%
%ADD46RoundRect,0.150000X0.150000X-0.825000X0.150000X0.825000X-0.150000X0.825000X-0.150000X-0.825000X0*%
%ADD47R,2.000000X2.000000*%
%ADD48RoundRect,0.250000X0.650000X-1.500000X0.650000X1.500000X-0.650000X1.500000X-0.650000X-1.500000X0*%
%ADD49RoundRect,0.250000X-0.650000X1.500000X-0.650000X-1.500000X0.650000X-1.500000X0.650000X1.500000X0*%
%ADD50RoundRect,0.225000X-0.375000X0.225000X-0.375000X-0.225000X0.375000X-0.225000X0.375000X0.225000X0*%
%ADD51RoundRect,0.250000X0.750000X-0.600000X0.750000X0.600000X-0.750000X0.600000X-0.750000X-0.600000X0*%
%ADD52O,2.000000X1.700000*%
%ADD53RoundRect,0.102000X1.575000X-0.890000X1.575000X0.890000X-1.575000X0.890000X-1.575000X-0.890000X0*%
%ADD54RoundRect,0.200000X0.800000X-0.200000X0.800000X0.200000X-0.800000X0.200000X-0.800000X-0.200000X0*%
G04 APERTURE END LIST*
D10*
G36*
X168920646Y-44680466D02*
G01*
X168956868Y-44683748D01*
X168992392Y-44689986D01*
X169027068Y-44699076D01*
X169060734Y-44710926D01*
X169093234Y-44725440D01*
X169124404Y-44742518D01*
X169154082Y-44762072D01*
X169182118Y-44783996D01*
X169208344Y-44808206D01*
X169232608Y-44834598D01*
X169254742Y-44863076D01*
X169274592Y-44893548D01*
X169291998Y-44925914D01*
X169299738Y-44942778D01*
X169306804Y-44960082D01*
X169930000Y-46580000D01*
X169934428Y-46590678D01*
X169939386Y-46601058D01*
X169944864Y-46611120D01*
X169950844Y-46620846D01*
X169957302Y-46630226D01*
X169964232Y-46639236D01*
X169971610Y-46647864D01*
X169979418Y-46656090D01*
X169987648Y-46663902D01*
X169996272Y-46671278D01*
X170005284Y-46678202D01*
X170014660Y-46684664D01*
X170024388Y-46690644D01*
X170034450Y-46696122D01*
X170044828Y-46701084D01*
X170055508Y-46705512D01*
X171675426Y-47328704D01*
X171691054Y-47335074D01*
X171706330Y-47341992D01*
X171721252Y-47349452D01*
X171735810Y-47357438D01*
X171749992Y-47365938D01*
X171763788Y-47374932D01*
X171777190Y-47384408D01*
X171790186Y-47394354D01*
X171802768Y-47404752D01*
X171814926Y-47415588D01*
X171826648Y-47426850D01*
X171837928Y-47438520D01*
X171848752Y-47450588D01*
X171859114Y-47463038D01*
X171868996Y-47475858D01*
X171878400Y-47489028D01*
X171887310Y-47502536D01*
X171895716Y-47516370D01*
X171903606Y-47530514D01*
X171910978Y-47544956D01*
X171917812Y-47559678D01*
X171924106Y-47574666D01*
X171929848Y-47589906D01*
X171935026Y-47605386D01*
X171939634Y-47621088D01*
X171943660Y-47637000D01*
X171947092Y-47653106D01*
X171949918Y-47669396D01*
X171952138Y-47685852D01*
X171953734Y-47702456D01*
X171954700Y-47719202D01*
X171955024Y-47736072D01*
X171953734Y-47769680D01*
X171949918Y-47802742D01*
X171943660Y-47835136D01*
X171935026Y-47866750D01*
X171924106Y-47897470D01*
X171910978Y-47927180D01*
X171895716Y-47955766D01*
X171878400Y-47983108D01*
X171859114Y-48009098D01*
X171837928Y-48033616D01*
X171814926Y-48056552D01*
X171790186Y-48077782D01*
X171763788Y-48097204D01*
X171735810Y-48114698D01*
X171706330Y-48130144D01*
X171675426Y-48143434D01*
X170055508Y-48766624D01*
X170044828Y-48771052D01*
X170034450Y-48776018D01*
X170024388Y-48781496D01*
X170014662Y-48787472D01*
X170005284Y-48793934D01*
X169996272Y-48800860D01*
X169987648Y-48808238D01*
X169979418Y-48816050D01*
X169971610Y-48824276D01*
X169964232Y-48832904D01*
X169957306Y-48841912D01*
X169950844Y-48851290D01*
X169944864Y-48861020D01*
X169939386Y-48871078D01*
X169934428Y-48881458D01*
X169930000Y-48892138D01*
X169306804Y-50512058D01*
X169300446Y-50527694D01*
X169293534Y-50542984D01*
X169286082Y-50557922D01*
X169278102Y-50572490D01*
X169269612Y-50586688D01*
X169260628Y-50600494D01*
X169251156Y-50613908D01*
X169241214Y-50626922D01*
X169230826Y-50639512D01*
X169219990Y-50651684D01*
X169208730Y-50663422D01*
X169197058Y-50674712D01*
X169184994Y-50685548D01*
X169172542Y-50695922D01*
X169159726Y-50705822D01*
X169146556Y-50715236D01*
X169133046Y-50724154D01*
X169119208Y-50732572D01*
X169105066Y-50740478D01*
X169090620Y-50747854D01*
X169075896Y-50754704D01*
X169060908Y-50761010D01*
X169045662Y-50766758D01*
X169030176Y-50771944D01*
X169014468Y-50776562D01*
X168998550Y-50780596D01*
X168982438Y-50784034D01*
X168966144Y-50786872D01*
X168949680Y-50789098D01*
X168933066Y-50790704D01*
X168916314Y-50791672D01*
X168899440Y-50792002D01*
X168865814Y-50790704D01*
X168832738Y-50786872D01*
X168800330Y-50780596D01*
X168768704Y-50771944D01*
X168737978Y-50761010D01*
X168708260Y-50747854D01*
X168679672Y-50732572D01*
X168652324Y-50715236D01*
X168626338Y-50695922D01*
X168601822Y-50674712D01*
X168578894Y-50651684D01*
X168557666Y-50626922D01*
X168538252Y-50600494D01*
X168520778Y-50572490D01*
X168505346Y-50542984D01*
X168492076Y-50512058D01*
X167868884Y-48892138D01*
X167864452Y-48881458D01*
X167859494Y-48871078D01*
X167854016Y-48861020D01*
X167848036Y-48851290D01*
X167841578Y-48841912D01*
X167834648Y-48832904D01*
X167827270Y-48824276D01*
X167819462Y-48816050D01*
X167811232Y-48808238D01*
X167802608Y-48800860D01*
X167793596Y-48793934D01*
X167784218Y-48787472D01*
X167774492Y-48781496D01*
X167764430Y-48776018D01*
X167754052Y-48771052D01*
X167743372Y-48766624D01*
X166123454Y-48143434D01*
X166107826Y-48137066D01*
X166092550Y-48130144D01*
X166077628Y-48122684D01*
X166063070Y-48114698D01*
X166048888Y-48106198D01*
X166035092Y-48097204D01*
X166021690Y-48087730D01*
X166008694Y-48077782D01*
X165996112Y-48067388D01*
X165983954Y-48056552D01*
X165972232Y-48045286D01*
X165960952Y-48033616D01*
X165950128Y-48021548D01*
X165939766Y-48009098D01*
X165929884Y-47996278D01*
X165920480Y-47983108D01*
X165911570Y-47969600D01*
X165903164Y-47955766D01*
X165895274Y-47941622D01*
X165887902Y-47927180D01*
X165881068Y-47912458D01*
X165874774Y-47897470D01*
X165869032Y-47882230D01*
X165863854Y-47866750D01*
X165859246Y-47851048D01*
X165855220Y-47835136D01*
X165851788Y-47819030D01*
X165848962Y-47802742D01*
X165846742Y-47786288D01*
X165845146Y-47769680D01*
X165844180Y-47752934D01*
X165843856Y-47736072D01*
X165845146Y-47702456D01*
X165848962Y-47669396D01*
X165855220Y-47637000D01*
X165863854Y-47605386D01*
X165874774Y-47574666D01*
X165887902Y-47544956D01*
X165903164Y-47516370D01*
X165920480Y-47489028D01*
X165939766Y-47463038D01*
X165960952Y-47438520D01*
X165983954Y-47415588D01*
X166008694Y-47394354D01*
X166035092Y-47374932D01*
X166063070Y-47357438D01*
X166092550Y-47341992D01*
X166123454Y-47328704D01*
X167743372Y-46705512D01*
X167754052Y-46701084D01*
X167764430Y-46696122D01*
X167774492Y-46690644D01*
X167784220Y-46684664D01*
X167793596Y-46678202D01*
X167802608Y-46671278D01*
X167811232Y-46663902D01*
X167819462Y-46656090D01*
X167827270Y-46647864D01*
X167834650Y-46639236D01*
X167841578Y-46630226D01*
X167848040Y-46620846D01*
X167854016Y-46611120D01*
X167859494Y-46601058D01*
X167864456Y-46590678D01*
X167868884Y-46580000D01*
X168487436Y-44971538D01*
X168499156Y-44943012D01*
X168512678Y-44915582D01*
X168527932Y-44889318D01*
X168544832Y-44864280D01*
X168563294Y-44840538D01*
X168583244Y-44818148D01*
X168604598Y-44797184D01*
X168627278Y-44777708D01*
X168651202Y-44759780D01*
X168676292Y-44743470D01*
X168702464Y-44728838D01*
X168729644Y-44715950D01*
X168757744Y-44704874D01*
X168786688Y-44695670D01*
X168816394Y-44688398D01*
X168846784Y-44683136D01*
X168865378Y-44681286D01*
X168883906Y-44680230D01*
X168920646Y-44680466D01*
G37*
D11*
X165173558Y-108177733D02*
X166697368Y-108177733D01*
X165935463Y-108939638D02*
X165935463Y-107415828D01*
X152373558Y-108177733D02*
X153897368Y-108177733D01*
D12*
X155940000Y-59049847D02*
X155940000Y-58287942D01*
X155749524Y-58478418D02*
X155940000Y-58287942D01*
X155940000Y-58287942D02*
X156130476Y-58478418D01*
X150178096Y-60659791D02*
X150178096Y-59659791D01*
X150178096Y-59659791D02*
X150511429Y-60374076D01*
X150511429Y-60374076D02*
X150844762Y-59659791D01*
X150844762Y-59659791D02*
X150844762Y-60659791D01*
X151273334Y-60374076D02*
X151749524Y-60374076D01*
X151178096Y-60659791D02*
X151511429Y-59659791D01*
X151511429Y-59659791D02*
X151844762Y-60659791D01*
X152701905Y-59707410D02*
X152606667Y-59659791D01*
X152606667Y-59659791D02*
X152463810Y-59659791D01*
X152463810Y-59659791D02*
X152320953Y-59707410D01*
X152320953Y-59707410D02*
X152225715Y-59802648D01*
X152225715Y-59802648D02*
X152178096Y-59897886D01*
X152178096Y-59897886D02*
X152130477Y-60088362D01*
X152130477Y-60088362D02*
X152130477Y-60231219D01*
X152130477Y-60231219D02*
X152178096Y-60421695D01*
X152178096Y-60421695D02*
X152225715Y-60516933D01*
X152225715Y-60516933D02*
X152320953Y-60612172D01*
X152320953Y-60612172D02*
X152463810Y-60659791D01*
X152463810Y-60659791D02*
X152559048Y-60659791D01*
X152559048Y-60659791D02*
X152701905Y-60612172D01*
X152701905Y-60612172D02*
X152749524Y-60564552D01*
X152749524Y-60564552D02*
X152749524Y-60231219D01*
X152749524Y-60231219D02*
X152559048Y-60231219D01*
X153178096Y-60659791D02*
X153178096Y-59659791D01*
X154225714Y-60564552D02*
X154178095Y-60612172D01*
X154178095Y-60612172D02*
X154035238Y-60659791D01*
X154035238Y-60659791D02*
X153940000Y-60659791D01*
X153940000Y-60659791D02*
X153797143Y-60612172D01*
X153797143Y-60612172D02*
X153701905Y-60516933D01*
X153701905Y-60516933D02*
X153654286Y-60421695D01*
X153654286Y-60421695D02*
X153606667Y-60231219D01*
X153606667Y-60231219D02*
X153606667Y-60088362D01*
X153606667Y-60088362D02*
X153654286Y-59897886D01*
X153654286Y-59897886D02*
X153701905Y-59802648D01*
X153701905Y-59802648D02*
X153797143Y-59707410D01*
X153797143Y-59707410D02*
X153940000Y-59659791D01*
X153940000Y-59659791D02*
X154035238Y-59659791D01*
X154035238Y-59659791D02*
X154178095Y-59707410D01*
X154178095Y-59707410D02*
X154225714Y-59755029D01*
X155416191Y-60659791D02*
X155416191Y-59659791D01*
X155892381Y-60659791D02*
X155892381Y-59659791D01*
X155892381Y-59659791D02*
X156463809Y-60659791D01*
X156463809Y-60659791D02*
X156463809Y-59659791D01*
X156892381Y-60612172D02*
X157035238Y-60659791D01*
X157035238Y-60659791D02*
X157273333Y-60659791D01*
X157273333Y-60659791D02*
X157368571Y-60612172D01*
X157368571Y-60612172D02*
X157416190Y-60564552D01*
X157416190Y-60564552D02*
X157463809Y-60469314D01*
X157463809Y-60469314D02*
X157463809Y-60374076D01*
X157463809Y-60374076D02*
X157416190Y-60278838D01*
X157416190Y-60278838D02*
X157368571Y-60231219D01*
X157368571Y-60231219D02*
X157273333Y-60183600D01*
X157273333Y-60183600D02*
X157082857Y-60135981D01*
X157082857Y-60135981D02*
X156987619Y-60088362D01*
X156987619Y-60088362D02*
X156940000Y-60040743D01*
X156940000Y-60040743D02*
X156892381Y-59945505D01*
X156892381Y-59945505D02*
X156892381Y-59850267D01*
X156892381Y-59850267D02*
X156940000Y-59755029D01*
X156940000Y-59755029D02*
X156987619Y-59707410D01*
X156987619Y-59707410D02*
X157082857Y-59659791D01*
X157082857Y-59659791D02*
X157320952Y-59659791D01*
X157320952Y-59659791D02*
X157463809Y-59707410D01*
X157892381Y-60659791D02*
X157892381Y-59659791D01*
X158368571Y-60659791D02*
X158368571Y-59659791D01*
X158368571Y-59659791D02*
X158606666Y-59659791D01*
X158606666Y-59659791D02*
X158749523Y-59707410D01*
X158749523Y-59707410D02*
X158844761Y-59802648D01*
X158844761Y-59802648D02*
X158892380Y-59897886D01*
X158892380Y-59897886D02*
X158939999Y-60088362D01*
X158939999Y-60088362D02*
X158939999Y-60231219D01*
X158939999Y-60231219D02*
X158892380Y-60421695D01*
X158892380Y-60421695D02*
X158844761Y-60516933D01*
X158844761Y-60516933D02*
X158749523Y-60612172D01*
X158749523Y-60612172D02*
X158606666Y-60659791D01*
X158606666Y-60659791D02*
X158368571Y-60659791D01*
X159368571Y-60135981D02*
X159701904Y-60135981D01*
X159844761Y-60659791D02*
X159368571Y-60659791D01*
X159368571Y-60659791D02*
X159368571Y-59659791D01*
X159368571Y-59659791D02*
X159844761Y-59659791D01*
X161082857Y-60612172D02*
X161082857Y-60659791D01*
X161082857Y-60659791D02*
X161035238Y-60755029D01*
X161035238Y-60755029D02*
X160987619Y-60802648D01*
X161035238Y-60040743D02*
X161082857Y-60088362D01*
X161082857Y-60088362D02*
X161035238Y-60135981D01*
X161035238Y-60135981D02*
X160987619Y-60088362D01*
X160987619Y-60088362D02*
X161035238Y-60040743D01*
X161035238Y-60040743D02*
X161035238Y-60135981D01*
X161416190Y-61040743D02*
X161463809Y-60993124D01*
X161463809Y-60993124D02*
X161559047Y-60850267D01*
X161559047Y-60850267D02*
X161606666Y-60755029D01*
X161606666Y-60755029D02*
X161654285Y-60612172D01*
X161654285Y-60612172D02*
X161701904Y-60374076D01*
X161701904Y-60374076D02*
X161701904Y-60183600D01*
X161701904Y-60183600D02*
X161654285Y-59945505D01*
X161654285Y-59945505D02*
X161606666Y-59802648D01*
X161606666Y-59802648D02*
X161559047Y-59707410D01*
X161559047Y-59707410D02*
X161463809Y-59564552D01*
X161463809Y-59564552D02*
X161416190Y-59516933D01*
D11*
X177376353Y-108597870D02*
X175676353Y-108597870D01*
X175676353Y-108597870D02*
X175676353Y-107950251D01*
X175676353Y-107950251D02*
X175757305Y-107788346D01*
X175757305Y-107788346D02*
X175838258Y-107707393D01*
X175838258Y-107707393D02*
X176000162Y-107626441D01*
X176000162Y-107626441D02*
X176243020Y-107626441D01*
X176243020Y-107626441D02*
X176404924Y-107707393D01*
X176404924Y-107707393D02*
X176485877Y-107788346D01*
X176485877Y-107788346D02*
X176566829Y-107950251D01*
X176566829Y-107950251D02*
X176566829Y-108597870D01*
X177376353Y-106655012D02*
X177295401Y-106816917D01*
X177295401Y-106816917D02*
X177214448Y-106897870D01*
X177214448Y-106897870D02*
X177052543Y-106978822D01*
X177052543Y-106978822D02*
X176566829Y-106978822D01*
X176566829Y-106978822D02*
X176404924Y-106897870D01*
X176404924Y-106897870D02*
X176323972Y-106816917D01*
X176323972Y-106816917D02*
X176243020Y-106655012D01*
X176243020Y-106655012D02*
X176243020Y-106412155D01*
X176243020Y-106412155D02*
X176323972Y-106250251D01*
X176323972Y-106250251D02*
X176404924Y-106169298D01*
X176404924Y-106169298D02*
X176566829Y-106088346D01*
X176566829Y-106088346D02*
X177052543Y-106088346D01*
X177052543Y-106088346D02*
X177214448Y-106169298D01*
X177214448Y-106169298D02*
X177295401Y-106250251D01*
X177295401Y-106250251D02*
X177376353Y-106412155D01*
X177376353Y-106412155D02*
X177376353Y-106655012D01*
X176243020Y-105521679D02*
X177376353Y-105197870D01*
X177376353Y-105197870D02*
X176566829Y-104874060D01*
X176566829Y-104874060D02*
X177376353Y-104550251D01*
X177376353Y-104550251D02*
X176243020Y-104226441D01*
X177295401Y-102931204D02*
X177376353Y-103093108D01*
X177376353Y-103093108D02*
X177376353Y-103416918D01*
X177376353Y-103416918D02*
X177295401Y-103578823D01*
X177295401Y-103578823D02*
X177133496Y-103659775D01*
X177133496Y-103659775D02*
X176485877Y-103659775D01*
X176485877Y-103659775D02*
X176323972Y-103578823D01*
X176323972Y-103578823D02*
X176243020Y-103416918D01*
X176243020Y-103416918D02*
X176243020Y-103093108D01*
X176243020Y-103093108D02*
X176323972Y-102931204D01*
X176323972Y-102931204D02*
X176485877Y-102850251D01*
X176485877Y-102850251D02*
X176647781Y-102850251D01*
X176647781Y-102850251D02*
X176809686Y-103659775D01*
X177376353Y-102121680D02*
X176243020Y-102121680D01*
X176566829Y-102121680D02*
X176404924Y-102040727D01*
X176404924Y-102040727D02*
X176323972Y-101959775D01*
X176323972Y-101959775D02*
X176243020Y-101797870D01*
X176243020Y-101797870D02*
X176243020Y-101635965D01*
X170473558Y-108277733D02*
X171997368Y-108277733D01*
X145473558Y-108939638D02*
X145473558Y-106939638D01*
X145473558Y-106939638D02*
X145949748Y-106939638D01*
X145949748Y-106939638D02*
X146235463Y-107034876D01*
X146235463Y-107034876D02*
X146425939Y-107225352D01*
X146425939Y-107225352D02*
X146521177Y-107415828D01*
X146521177Y-107415828D02*
X146616415Y-107796780D01*
X146616415Y-107796780D02*
X146616415Y-108082495D01*
X146616415Y-108082495D02*
X146521177Y-108463447D01*
X146521177Y-108463447D02*
X146425939Y-108653923D01*
X146425939Y-108653923D02*
X146235463Y-108844400D01*
X146235463Y-108844400D02*
X145949748Y-108939638D01*
X145949748Y-108939638D02*
X145473558Y-108939638D01*
X147378320Y-108368209D02*
X148330701Y-108368209D01*
X147187844Y-108939638D02*
X147854510Y-106939638D01*
X147854510Y-106939638D02*
X148521177Y-108939638D01*
X148902130Y-106939638D02*
X150044987Y-106939638D01*
X149473558Y-108939638D02*
X149473558Y-106939638D01*
X150616416Y-108368209D02*
X151568797Y-108368209D01*
X150425940Y-108939638D02*
X151092606Y-106939638D01*
X151092606Y-106939638D02*
X151759273Y-108939638D01*
D13*
X166964619Y-58097431D02*
X165964619Y-58097431D01*
X165964619Y-57430765D02*
X165964619Y-57240289D01*
X165964619Y-57240289D02*
X166012238Y-57145051D01*
X166012238Y-57145051D02*
X166107476Y-57049813D01*
X166107476Y-57049813D02*
X166297952Y-57002194D01*
X166297952Y-57002194D02*
X166631285Y-57002194D01*
X166631285Y-57002194D02*
X166821761Y-57049813D01*
X166821761Y-57049813D02*
X166917000Y-57145051D01*
X166917000Y-57145051D02*
X166964619Y-57240289D01*
X166964619Y-57240289D02*
X166964619Y-57430765D01*
X166964619Y-57430765D02*
X166917000Y-57526003D01*
X166917000Y-57526003D02*
X166821761Y-57621241D01*
X166821761Y-57621241D02*
X166631285Y-57668860D01*
X166631285Y-57668860D02*
X166297952Y-57668860D01*
X166297952Y-57668860D02*
X166107476Y-57621241D01*
X166107476Y-57621241D02*
X166012238Y-57526003D01*
X166012238Y-57526003D02*
X165964619Y-57430765D01*
X166964619Y-56049813D02*
X166964619Y-56621241D01*
X166964619Y-56335527D02*
X165964619Y-56335527D01*
X165964619Y-56335527D02*
X166107476Y-56430765D01*
X166107476Y-56430765D02*
X166202714Y-56526003D01*
X166202714Y-56526003D02*
X166250333Y-56621241D01*
X166393190Y-55478384D02*
X166345571Y-55573622D01*
X166345571Y-55573622D02*
X166297952Y-55621241D01*
X166297952Y-55621241D02*
X166202714Y-55668860D01*
X166202714Y-55668860D02*
X166155095Y-55668860D01*
X166155095Y-55668860D02*
X166059857Y-55621241D01*
X166059857Y-55621241D02*
X166012238Y-55573622D01*
X166012238Y-55573622D02*
X165964619Y-55478384D01*
X165964619Y-55478384D02*
X165964619Y-55287908D01*
X165964619Y-55287908D02*
X166012238Y-55192670D01*
X166012238Y-55192670D02*
X166059857Y-55145051D01*
X166059857Y-55145051D02*
X166155095Y-55097432D01*
X166155095Y-55097432D02*
X166202714Y-55097432D01*
X166202714Y-55097432D02*
X166297952Y-55145051D01*
X166297952Y-55145051D02*
X166345571Y-55192670D01*
X166345571Y-55192670D02*
X166393190Y-55287908D01*
X166393190Y-55287908D02*
X166393190Y-55478384D01*
X166393190Y-55478384D02*
X166440809Y-55573622D01*
X166440809Y-55573622D02*
X166488428Y-55621241D01*
X166488428Y-55621241D02*
X166583666Y-55668860D01*
X166583666Y-55668860D02*
X166774142Y-55668860D01*
X166774142Y-55668860D02*
X166869380Y-55621241D01*
X166869380Y-55621241D02*
X166917000Y-55573622D01*
X166917000Y-55573622D02*
X166964619Y-55478384D01*
X166964619Y-55478384D02*
X166964619Y-55287908D01*
X166964619Y-55287908D02*
X166917000Y-55192670D01*
X166917000Y-55192670D02*
X166869380Y-55145051D01*
X166869380Y-55145051D02*
X166774142Y-55097432D01*
X166774142Y-55097432D02*
X166583666Y-55097432D01*
X166583666Y-55097432D02*
X166488428Y-55145051D01*
X166488428Y-55145051D02*
X166440809Y-55192670D01*
X166440809Y-55192670D02*
X166393190Y-55287908D01*
X167297952Y-54430765D02*
X165869380Y-54430765D01*
X166964619Y-53716479D02*
X165964619Y-53716479D01*
X165964619Y-53049813D02*
X165964619Y-52859337D01*
X165964619Y-52859337D02*
X166012238Y-52764099D01*
X166012238Y-52764099D02*
X166107476Y-52668861D01*
X166107476Y-52668861D02*
X166297952Y-52621242D01*
X166297952Y-52621242D02*
X166631285Y-52621242D01*
X166631285Y-52621242D02*
X166821761Y-52668861D01*
X166821761Y-52668861D02*
X166917000Y-52764099D01*
X166917000Y-52764099D02*
X166964619Y-52859337D01*
X166964619Y-52859337D02*
X166964619Y-53049813D01*
X166964619Y-53049813D02*
X166917000Y-53145051D01*
X166917000Y-53145051D02*
X166821761Y-53240289D01*
X166821761Y-53240289D02*
X166631285Y-53287908D01*
X166631285Y-53287908D02*
X166297952Y-53287908D01*
X166297952Y-53287908D02*
X166107476Y-53240289D01*
X166107476Y-53240289D02*
X166012238Y-53145051D01*
X166012238Y-53145051D02*
X165964619Y-53049813D01*
X166964619Y-51668861D02*
X166964619Y-52240289D01*
X166964619Y-51954575D02*
X165964619Y-51954575D01*
X165964619Y-51954575D02*
X166107476Y-52049813D01*
X166107476Y-52049813D02*
X166202714Y-52145051D01*
X166202714Y-52145051D02*
X166250333Y-52240289D01*
X166964619Y-51192670D02*
X166964619Y-51002194D01*
X166964619Y-51002194D02*
X166917000Y-50906956D01*
X166917000Y-50906956D02*
X166869380Y-50859337D01*
X166869380Y-50859337D02*
X166726523Y-50764099D01*
X166726523Y-50764099D02*
X166536047Y-50716480D01*
X166536047Y-50716480D02*
X166155095Y-50716480D01*
X166155095Y-50716480D02*
X166059857Y-50764099D01*
X166059857Y-50764099D02*
X166012238Y-50811718D01*
X166012238Y-50811718D02*
X165964619Y-50906956D01*
X165964619Y-50906956D02*
X165964619Y-51097432D01*
X165964619Y-51097432D02*
X166012238Y-51192670D01*
X166012238Y-51192670D02*
X166059857Y-51240289D01*
X166059857Y-51240289D02*
X166155095Y-51287908D01*
X166155095Y-51287908D02*
X166393190Y-51287908D01*
X166393190Y-51287908D02*
X166488428Y-51240289D01*
X166488428Y-51240289D02*
X166536047Y-51192670D01*
X166536047Y-51192670D02*
X166583666Y-51097432D01*
X166583666Y-51097432D02*
X166583666Y-50906956D01*
X166583666Y-50906956D02*
X166536047Y-50811718D01*
X166536047Y-50811718D02*
X166488428Y-50764099D01*
X166488428Y-50764099D02*
X166393190Y-50716480D01*
D11*
X140716415Y-108749161D02*
X140621177Y-108844400D01*
X140621177Y-108844400D02*
X140335463Y-108939638D01*
X140335463Y-108939638D02*
X140144987Y-108939638D01*
X140144987Y-108939638D02*
X139859272Y-108844400D01*
X139859272Y-108844400D02*
X139668796Y-108653923D01*
X139668796Y-108653923D02*
X139573558Y-108463447D01*
X139573558Y-108463447D02*
X139478320Y-108082495D01*
X139478320Y-108082495D02*
X139478320Y-107796780D01*
X139478320Y-107796780D02*
X139573558Y-107415828D01*
X139573558Y-107415828D02*
X139668796Y-107225352D01*
X139668796Y-107225352D02*
X139859272Y-107034876D01*
X139859272Y-107034876D02*
X140144987Y-106939638D01*
X140144987Y-106939638D02*
X140335463Y-106939638D01*
X140335463Y-106939638D02*
X140621177Y-107034876D01*
X140621177Y-107034876D02*
X140716415Y-107130114D01*
X142525939Y-108939638D02*
X141573558Y-108939638D01*
X141573558Y-108939638D02*
X141573558Y-106939638D01*
X143192606Y-108939638D02*
X143192606Y-106939638D01*
X144335463Y-108939638D02*
X143478320Y-107796780D01*
X144335463Y-106939638D02*
X143192606Y-108082495D01*
X157073558Y-108177733D02*
X158597368Y-108177733D01*
X157835463Y-108939638D02*
X157835463Y-107415828D01*
X136576353Y-108840727D02*
X136576353Y-107869298D01*
X138276353Y-108355012D02*
X136576353Y-108355012D01*
X138276353Y-107059774D02*
X138195401Y-107221679D01*
X138195401Y-107221679D02*
X138114448Y-107302632D01*
X138114448Y-107302632D02*
X137952543Y-107383584D01*
X137952543Y-107383584D02*
X137466829Y-107383584D01*
X137466829Y-107383584D02*
X137304924Y-107302632D01*
X137304924Y-107302632D02*
X137223972Y-107221679D01*
X137223972Y-107221679D02*
X137143020Y-107059774D01*
X137143020Y-107059774D02*
X137143020Y-106816917D01*
X137143020Y-106816917D02*
X137223972Y-106655013D01*
X137223972Y-106655013D02*
X137304924Y-106574060D01*
X137304924Y-106574060D02*
X137466829Y-106493108D01*
X137466829Y-106493108D02*
X137952543Y-106493108D01*
X137952543Y-106493108D02*
X138114448Y-106574060D01*
X138114448Y-106574060D02*
X138195401Y-106655013D01*
X138195401Y-106655013D02*
X138276353Y-106816917D01*
X138276353Y-106816917D02*
X138276353Y-107059774D01*
X138276353Y-103659775D02*
X138276353Y-104469299D01*
X138276353Y-104469299D02*
X136576353Y-104469299D01*
X138195401Y-102445490D02*
X138276353Y-102607394D01*
X138276353Y-102607394D02*
X138276353Y-102931204D01*
X138276353Y-102931204D02*
X138195401Y-103093109D01*
X138195401Y-103093109D02*
X138033496Y-103174061D01*
X138033496Y-103174061D02*
X137385877Y-103174061D01*
X137385877Y-103174061D02*
X137223972Y-103093109D01*
X137223972Y-103093109D02*
X137143020Y-102931204D01*
X137143020Y-102931204D02*
X137143020Y-102607394D01*
X137143020Y-102607394D02*
X137223972Y-102445490D01*
X137223972Y-102445490D02*
X137385877Y-102364537D01*
X137385877Y-102364537D02*
X137547781Y-102364537D01*
X137547781Y-102364537D02*
X137709686Y-103174061D01*
X138276353Y-100907394D02*
X136576353Y-100907394D01*
X138195401Y-100907394D02*
X138276353Y-101069299D01*
X138276353Y-101069299D02*
X138276353Y-101393108D01*
X138276353Y-101393108D02*
X138195401Y-101555013D01*
X138195401Y-101555013D02*
X138114448Y-101635966D01*
X138114448Y-101635966D02*
X137952543Y-101716918D01*
X137952543Y-101716918D02*
X137466829Y-101716918D01*
X137466829Y-101716918D02*
X137304924Y-101635966D01*
X137304924Y-101635966D02*
X137223972Y-101555013D01*
X137223972Y-101555013D02*
X137143020Y-101393108D01*
X137143020Y-101393108D02*
X137143020Y-101069299D01*
X137143020Y-101069299D02*
X137223972Y-100907394D01*
X138195401Y-100178823D02*
X138276353Y-100016918D01*
X138276353Y-100016918D02*
X138276353Y-99693109D01*
X138276353Y-99693109D02*
X138195401Y-99531204D01*
X138195401Y-99531204D02*
X138033496Y-99450252D01*
X138033496Y-99450252D02*
X137952543Y-99450252D01*
X137952543Y-99450252D02*
X137790639Y-99531204D01*
X137790639Y-99531204D02*
X137709686Y-99693109D01*
X137709686Y-99693109D02*
X137709686Y-99935966D01*
X137709686Y-99935966D02*
X137628734Y-100097871D01*
X137628734Y-100097871D02*
X137466829Y-100178823D01*
X137466829Y-100178823D02*
X137385877Y-100178823D01*
X137385877Y-100178823D02*
X137223972Y-100097871D01*
X137223972Y-100097871D02*
X137143020Y-99935966D01*
X137143020Y-99935966D02*
X137143020Y-99693109D01*
X137143020Y-99693109D02*
X137223972Y-99531204D01*
D12*
X151759580Y-75802857D02*
X151807200Y-75850476D01*
X151807200Y-75850476D02*
X151854819Y-75993333D01*
X151854819Y-75993333D02*
X151854819Y-76088571D01*
X151854819Y-76088571D02*
X151807200Y-76231428D01*
X151807200Y-76231428D02*
X151711961Y-76326666D01*
X151711961Y-76326666D02*
X151616723Y-76374285D01*
X151616723Y-76374285D02*
X151426247Y-76421904D01*
X151426247Y-76421904D02*
X151283390Y-76421904D01*
X151283390Y-76421904D02*
X151092914Y-76374285D01*
X151092914Y-76374285D02*
X150997676Y-76326666D01*
X150997676Y-76326666D02*
X150902438Y-76231428D01*
X150902438Y-76231428D02*
X150854819Y-76088571D01*
X150854819Y-76088571D02*
X150854819Y-75993333D01*
X150854819Y-75993333D02*
X150902438Y-75850476D01*
X150902438Y-75850476D02*
X150950057Y-75802857D01*
X151854819Y-74850476D02*
X151854819Y-75421904D01*
X151854819Y-75136190D02*
X150854819Y-75136190D01*
X150854819Y-75136190D02*
X150997676Y-75231428D01*
X150997676Y-75231428D02*
X151092914Y-75326666D01*
X151092914Y-75326666D02*
X151140533Y-75421904D01*
X150854819Y-74517142D02*
X150854819Y-73898095D01*
X150854819Y-73898095D02*
X151235771Y-74231428D01*
X151235771Y-74231428D02*
X151235771Y-74088571D01*
X151235771Y-74088571D02*
X151283390Y-73993333D01*
X151283390Y-73993333D02*
X151331009Y-73945714D01*
X151331009Y-73945714D02*
X151426247Y-73898095D01*
X151426247Y-73898095D02*
X151664342Y-73898095D01*
X151664342Y-73898095D02*
X151759580Y-73945714D01*
X151759580Y-73945714D02*
X151807200Y-73993333D01*
X151807200Y-73993333D02*
X151854819Y-74088571D01*
X151854819Y-74088571D02*
X151854819Y-74374285D01*
X151854819Y-74374285D02*
X151807200Y-74469523D01*
X151807200Y-74469523D02*
X151759580Y-74517142D01*
X140013333Y-50644819D02*
X139680000Y-50168628D01*
X139441905Y-50644819D02*
X139441905Y-49644819D01*
X139441905Y-49644819D02*
X139822857Y-49644819D01*
X139822857Y-49644819D02*
X139918095Y-49692438D01*
X139918095Y-49692438D02*
X139965714Y-49740057D01*
X139965714Y-49740057D02*
X140013333Y-49835295D01*
X140013333Y-49835295D02*
X140013333Y-49978152D01*
X140013333Y-49978152D02*
X139965714Y-50073390D01*
X139965714Y-50073390D02*
X139918095Y-50121009D01*
X139918095Y-50121009D02*
X139822857Y-50168628D01*
X139822857Y-50168628D02*
X139441905Y-50168628D01*
X140965714Y-50644819D02*
X140394286Y-50644819D01*
X140680000Y-50644819D02*
X140680000Y-49644819D01*
X140680000Y-49644819D02*
X140584762Y-49787676D01*
X140584762Y-49787676D02*
X140489524Y-49882914D01*
X140489524Y-49882914D02*
X140394286Y-49930533D01*
X173509048Y-60334819D02*
X173509048Y-61144342D01*
X173509048Y-61144342D02*
X173556667Y-61239580D01*
X173556667Y-61239580D02*
X173604286Y-61287200D01*
X173604286Y-61287200D02*
X173699524Y-61334819D01*
X173699524Y-61334819D02*
X173890000Y-61334819D01*
X173890000Y-61334819D02*
X173985238Y-61287200D01*
X173985238Y-61287200D02*
X174032857Y-61239580D01*
X174032857Y-61239580D02*
X174080476Y-61144342D01*
X174080476Y-61144342D02*
X174080476Y-60334819D01*
X175032857Y-60334819D02*
X174556667Y-60334819D01*
X174556667Y-60334819D02*
X174509048Y-60811009D01*
X174509048Y-60811009D02*
X174556667Y-60763390D01*
X174556667Y-60763390D02*
X174651905Y-60715771D01*
X174651905Y-60715771D02*
X174890000Y-60715771D01*
X174890000Y-60715771D02*
X174985238Y-60763390D01*
X174985238Y-60763390D02*
X175032857Y-60811009D01*
X175032857Y-60811009D02*
X175080476Y-60906247D01*
X175080476Y-60906247D02*
X175080476Y-61144342D01*
X175080476Y-61144342D02*
X175032857Y-61239580D01*
X175032857Y-61239580D02*
X174985238Y-61287200D01*
X174985238Y-61287200D02*
X174890000Y-61334819D01*
X174890000Y-61334819D02*
X174651905Y-61334819D01*
X174651905Y-61334819D02*
X174556667Y-61287200D01*
X174556667Y-61287200D02*
X174509048Y-61239580D01*
X175509048Y-60953866D02*
X176270953Y-60953866D01*
X176937619Y-60334819D02*
X177128095Y-60334819D01*
X177128095Y-60334819D02*
X177223333Y-60382438D01*
X177223333Y-60382438D02*
X177318571Y-60477676D01*
X177318571Y-60477676D02*
X177366190Y-60668152D01*
X177366190Y-60668152D02*
X177366190Y-61001485D01*
X177366190Y-61001485D02*
X177318571Y-61191961D01*
X177318571Y-61191961D02*
X177223333Y-61287200D01*
X177223333Y-61287200D02*
X177128095Y-61334819D01*
X177128095Y-61334819D02*
X176937619Y-61334819D01*
X176937619Y-61334819D02*
X176842381Y-61287200D01*
X176842381Y-61287200D02*
X176747143Y-61191961D01*
X176747143Y-61191961D02*
X176699524Y-61001485D01*
X176699524Y-61001485D02*
X176699524Y-60668152D01*
X176699524Y-60668152D02*
X176747143Y-60477676D01*
X176747143Y-60477676D02*
X176842381Y-60382438D01*
X176842381Y-60382438D02*
X176937619Y-60334819D01*
X178318571Y-61334819D02*
X177747143Y-61334819D01*
X178032857Y-61334819D02*
X178032857Y-60334819D01*
X178032857Y-60334819D02*
X177937619Y-60477676D01*
X177937619Y-60477676D02*
X177842381Y-60572914D01*
X177842381Y-60572914D02*
X177747143Y-60620533D01*
X150699580Y-71766666D02*
X150747200Y-71814285D01*
X150747200Y-71814285D02*
X150794819Y-71957142D01*
X150794819Y-71957142D02*
X150794819Y-72052380D01*
X150794819Y-72052380D02*
X150747200Y-72195237D01*
X150747200Y-72195237D02*
X150651961Y-72290475D01*
X150651961Y-72290475D02*
X150556723Y-72338094D01*
X150556723Y-72338094D02*
X150366247Y-72385713D01*
X150366247Y-72385713D02*
X150223390Y-72385713D01*
X150223390Y-72385713D02*
X150032914Y-72338094D01*
X150032914Y-72338094D02*
X149937676Y-72290475D01*
X149937676Y-72290475D02*
X149842438Y-72195237D01*
X149842438Y-72195237D02*
X149794819Y-72052380D01*
X149794819Y-72052380D02*
X149794819Y-71957142D01*
X149794819Y-71957142D02*
X149842438Y-71814285D01*
X149842438Y-71814285D02*
X149890057Y-71766666D01*
X150794819Y-71290475D02*
X150794819Y-71099999D01*
X150794819Y-71099999D02*
X150747200Y-71004761D01*
X150747200Y-71004761D02*
X150699580Y-70957142D01*
X150699580Y-70957142D02*
X150556723Y-70861904D01*
X150556723Y-70861904D02*
X150366247Y-70814285D01*
X150366247Y-70814285D02*
X149985295Y-70814285D01*
X149985295Y-70814285D02*
X149890057Y-70861904D01*
X149890057Y-70861904D02*
X149842438Y-70909523D01*
X149842438Y-70909523D02*
X149794819Y-71004761D01*
X149794819Y-71004761D02*
X149794819Y-71195237D01*
X149794819Y-71195237D02*
X149842438Y-71290475D01*
X149842438Y-71290475D02*
X149890057Y-71338094D01*
X149890057Y-71338094D02*
X149985295Y-71385713D01*
X149985295Y-71385713D02*
X150223390Y-71385713D01*
X150223390Y-71385713D02*
X150318628Y-71338094D01*
X150318628Y-71338094D02*
X150366247Y-71290475D01*
X150366247Y-71290475D02*
X150413866Y-71195237D01*
X150413866Y-71195237D02*
X150413866Y-71004761D01*
X150413866Y-71004761D02*
X150366247Y-70909523D01*
X150366247Y-70909523D02*
X150318628Y-70861904D01*
X150318628Y-70861904D02*
X150223390Y-70814285D01*
X163059580Y-66666666D02*
X163107200Y-66714285D01*
X163107200Y-66714285D02*
X163154819Y-66857142D01*
X163154819Y-66857142D02*
X163154819Y-66952380D01*
X163154819Y-66952380D02*
X163107200Y-67095237D01*
X163107200Y-67095237D02*
X163011961Y-67190475D01*
X163011961Y-67190475D02*
X162916723Y-67238094D01*
X162916723Y-67238094D02*
X162726247Y-67285713D01*
X162726247Y-67285713D02*
X162583390Y-67285713D01*
X162583390Y-67285713D02*
X162392914Y-67238094D01*
X162392914Y-67238094D02*
X162297676Y-67190475D01*
X162297676Y-67190475D02*
X162202438Y-67095237D01*
X162202438Y-67095237D02*
X162154819Y-66952380D01*
X162154819Y-66952380D02*
X162154819Y-66857142D01*
X162154819Y-66857142D02*
X162202438Y-66714285D01*
X162202438Y-66714285D02*
X162250057Y-66666666D01*
X162154819Y-65809523D02*
X162154819Y-65999999D01*
X162154819Y-65999999D02*
X162202438Y-66095237D01*
X162202438Y-66095237D02*
X162250057Y-66142856D01*
X162250057Y-66142856D02*
X162392914Y-66238094D01*
X162392914Y-66238094D02*
X162583390Y-66285713D01*
X162583390Y-66285713D02*
X162964342Y-66285713D01*
X162964342Y-66285713D02*
X163059580Y-66238094D01*
X163059580Y-66238094D02*
X163107200Y-66190475D01*
X163107200Y-66190475D02*
X163154819Y-66095237D01*
X163154819Y-66095237D02*
X163154819Y-65904761D01*
X163154819Y-65904761D02*
X163107200Y-65809523D01*
X163107200Y-65809523D02*
X163059580Y-65761904D01*
X163059580Y-65761904D02*
X162964342Y-65714285D01*
X162964342Y-65714285D02*
X162726247Y-65714285D01*
X162726247Y-65714285D02*
X162631009Y-65761904D01*
X162631009Y-65761904D02*
X162583390Y-65809523D01*
X162583390Y-65809523D02*
X162535771Y-65904761D01*
X162535771Y-65904761D02*
X162535771Y-66095237D01*
X162535771Y-66095237D02*
X162583390Y-66190475D01*
X162583390Y-66190475D02*
X162631009Y-66238094D01*
X162631009Y-66238094D02*
X162726247Y-66285713D01*
X167658095Y-68894819D02*
X167324762Y-68418628D01*
X167086667Y-68894819D02*
X167086667Y-67894819D01*
X167086667Y-67894819D02*
X167467619Y-67894819D01*
X167467619Y-67894819D02*
X167562857Y-67942438D01*
X167562857Y-67942438D02*
X167610476Y-67990057D01*
X167610476Y-67990057D02*
X167658095Y-68085295D01*
X167658095Y-68085295D02*
X167658095Y-68228152D01*
X167658095Y-68228152D02*
X167610476Y-68323390D01*
X167610476Y-68323390D02*
X167562857Y-68371009D01*
X167562857Y-68371009D02*
X167467619Y-68418628D01*
X167467619Y-68418628D02*
X167086667Y-68418628D01*
X168610476Y-68894819D02*
X168039048Y-68894819D01*
X168324762Y-68894819D02*
X168324762Y-67894819D01*
X168324762Y-67894819D02*
X168229524Y-68037676D01*
X168229524Y-68037676D02*
X168134286Y-68132914D01*
X168134286Y-68132914D02*
X168039048Y-68180533D01*
X169562857Y-68894819D02*
X168991429Y-68894819D01*
X169277143Y-68894819D02*
X169277143Y-67894819D01*
X169277143Y-67894819D02*
X169181905Y-68037676D01*
X169181905Y-68037676D02*
X169086667Y-68132914D01*
X169086667Y-68132914D02*
X168991429Y-68180533D01*
X169991429Y-68513866D02*
X170753334Y-68513866D01*
X171420000Y-67894819D02*
X171610476Y-67894819D01*
X171610476Y-67894819D02*
X171705714Y-67942438D01*
X171705714Y-67942438D02*
X171800952Y-68037676D01*
X171800952Y-68037676D02*
X171848571Y-68228152D01*
X171848571Y-68228152D02*
X171848571Y-68561485D01*
X171848571Y-68561485D02*
X171800952Y-68751961D01*
X171800952Y-68751961D02*
X171705714Y-68847200D01*
X171705714Y-68847200D02*
X171610476Y-68894819D01*
X171610476Y-68894819D02*
X171420000Y-68894819D01*
X171420000Y-68894819D02*
X171324762Y-68847200D01*
X171324762Y-68847200D02*
X171229524Y-68751961D01*
X171229524Y-68751961D02*
X171181905Y-68561485D01*
X171181905Y-68561485D02*
X171181905Y-68228152D01*
X171181905Y-68228152D02*
X171229524Y-68037676D01*
X171229524Y-68037676D02*
X171324762Y-67942438D01*
X171324762Y-67942438D02*
X171420000Y-67894819D01*
X172800952Y-68894819D02*
X172229524Y-68894819D01*
X172515238Y-68894819D02*
X172515238Y-67894819D01*
X172515238Y-67894819D02*
X172420000Y-68037676D01*
X172420000Y-68037676D02*
X172324762Y-68132914D01*
X172324762Y-68132914D02*
X172229524Y-68180533D01*
X168542857Y-82254819D02*
X168542857Y-81254819D01*
X169209523Y-81254819D02*
X169399999Y-81254819D01*
X169399999Y-81254819D02*
X169495237Y-81302438D01*
X169495237Y-81302438D02*
X169590475Y-81397676D01*
X169590475Y-81397676D02*
X169638094Y-81588152D01*
X169638094Y-81588152D02*
X169638094Y-81921485D01*
X169638094Y-81921485D02*
X169590475Y-82111961D01*
X169590475Y-82111961D02*
X169495237Y-82207200D01*
X169495237Y-82207200D02*
X169399999Y-82254819D01*
X169399999Y-82254819D02*
X169209523Y-82254819D01*
X169209523Y-82254819D02*
X169114285Y-82207200D01*
X169114285Y-82207200D02*
X169019047Y-82111961D01*
X169019047Y-82111961D02*
X168971428Y-81921485D01*
X168971428Y-81921485D02*
X168971428Y-81588152D01*
X168971428Y-81588152D02*
X169019047Y-81397676D01*
X169019047Y-81397676D02*
X169114285Y-81302438D01*
X169114285Y-81302438D02*
X169209523Y-81254819D01*
X170257142Y-81254819D02*
X170352380Y-81254819D01*
X170352380Y-81254819D02*
X170447618Y-81302438D01*
X170447618Y-81302438D02*
X170495237Y-81350057D01*
X170495237Y-81350057D02*
X170542856Y-81445295D01*
X170542856Y-81445295D02*
X170590475Y-81635771D01*
X170590475Y-81635771D02*
X170590475Y-81873866D01*
X170590475Y-81873866D02*
X170542856Y-82064342D01*
X170542856Y-82064342D02*
X170495237Y-82159580D01*
X170495237Y-82159580D02*
X170447618Y-82207200D01*
X170447618Y-82207200D02*
X170352380Y-82254819D01*
X170352380Y-82254819D02*
X170257142Y-82254819D01*
X170257142Y-82254819D02*
X170161904Y-82207200D01*
X170161904Y-82207200D02*
X170114285Y-82159580D01*
X170114285Y-82159580D02*
X170066666Y-82064342D01*
X170066666Y-82064342D02*
X170019047Y-81873866D01*
X170019047Y-81873866D02*
X170019047Y-81635771D01*
X170019047Y-81635771D02*
X170066666Y-81445295D01*
X170066666Y-81445295D02*
X170114285Y-81350057D01*
X170114285Y-81350057D02*
X170161904Y-81302438D01*
X170161904Y-81302438D02*
X170257142Y-81254819D01*
X171209523Y-81254819D02*
X171304761Y-81254819D01*
X171304761Y-81254819D02*
X171399999Y-81302438D01*
X171399999Y-81302438D02*
X171447618Y-81350057D01*
X171447618Y-81350057D02*
X171495237Y-81445295D01*
X171495237Y-81445295D02*
X171542856Y-81635771D01*
X171542856Y-81635771D02*
X171542856Y-81873866D01*
X171542856Y-81873866D02*
X171495237Y-82064342D01*
X171495237Y-82064342D02*
X171447618Y-82159580D01*
X171447618Y-82159580D02*
X171399999Y-82207200D01*
X171399999Y-82207200D02*
X171304761Y-82254819D01*
X171304761Y-82254819D02*
X171209523Y-82254819D01*
X171209523Y-82254819D02*
X171114285Y-82207200D01*
X171114285Y-82207200D02*
X171066666Y-82159580D01*
X171066666Y-82159580D02*
X171019047Y-82064342D01*
X171019047Y-82064342D02*
X170971428Y-81873866D01*
X170971428Y-81873866D02*
X170971428Y-81635771D01*
X170971428Y-81635771D02*
X171019047Y-81445295D01*
X171019047Y-81445295D02*
X171066666Y-81350057D01*
X171066666Y-81350057D02*
X171114285Y-81302438D01*
X171114285Y-81302438D02*
X171209523Y-81254819D01*
X171971428Y-81873866D02*
X172733333Y-81873866D01*
X173066666Y-81254819D02*
X173399999Y-82254819D01*
X173399999Y-82254819D02*
X173733332Y-81254819D01*
X174209523Y-82254819D02*
X174114285Y-82207200D01*
X174114285Y-82207200D02*
X174066666Y-82159580D01*
X174066666Y-82159580D02*
X174019047Y-82064342D01*
X174019047Y-82064342D02*
X174019047Y-81778628D01*
X174019047Y-81778628D02*
X174066666Y-81683390D01*
X174066666Y-81683390D02*
X174114285Y-81635771D01*
X174114285Y-81635771D02*
X174209523Y-81588152D01*
X174209523Y-81588152D02*
X174352380Y-81588152D01*
X174352380Y-81588152D02*
X174447618Y-81635771D01*
X174447618Y-81635771D02*
X174495237Y-81683390D01*
X174495237Y-81683390D02*
X174542856Y-81778628D01*
X174542856Y-81778628D02*
X174542856Y-82064342D01*
X174542856Y-82064342D02*
X174495237Y-82159580D01*
X174495237Y-82159580D02*
X174447618Y-82207200D01*
X174447618Y-82207200D02*
X174352380Y-82254819D01*
X174352380Y-82254819D02*
X174209523Y-82254819D01*
X175114285Y-82254819D02*
X175019047Y-82207200D01*
X175019047Y-82207200D02*
X174971428Y-82111961D01*
X174971428Y-82111961D02*
X174971428Y-81254819D01*
X175352381Y-81588152D02*
X175733333Y-81588152D01*
X175495238Y-81254819D02*
X175495238Y-82111961D01*
X175495238Y-82111961D02*
X175542857Y-82207200D01*
X175542857Y-82207200D02*
X175638095Y-82254819D01*
X175638095Y-82254819D02*
X175733333Y-82254819D01*
X176495238Y-82254819D02*
X176495238Y-81731009D01*
X176495238Y-81731009D02*
X176447619Y-81635771D01*
X176447619Y-81635771D02*
X176352381Y-81588152D01*
X176352381Y-81588152D02*
X176161905Y-81588152D01*
X176161905Y-81588152D02*
X176066667Y-81635771D01*
X176495238Y-82207200D02*
X176400000Y-82254819D01*
X176400000Y-82254819D02*
X176161905Y-82254819D01*
X176161905Y-82254819D02*
X176066667Y-82207200D01*
X176066667Y-82207200D02*
X176019048Y-82111961D01*
X176019048Y-82111961D02*
X176019048Y-82016723D01*
X176019048Y-82016723D02*
X176066667Y-81921485D01*
X176066667Y-81921485D02*
X176161905Y-81873866D01*
X176161905Y-81873866D02*
X176400000Y-81873866D01*
X176400000Y-81873866D02*
X176495238Y-81826247D01*
X177400000Y-81588152D02*
X177400000Y-82397676D01*
X177400000Y-82397676D02*
X177352381Y-82492914D01*
X177352381Y-82492914D02*
X177304762Y-82540533D01*
X177304762Y-82540533D02*
X177209524Y-82588152D01*
X177209524Y-82588152D02*
X177066667Y-82588152D01*
X177066667Y-82588152D02*
X176971429Y-82540533D01*
X177400000Y-82207200D02*
X177304762Y-82254819D01*
X177304762Y-82254819D02*
X177114286Y-82254819D01*
X177114286Y-82254819D02*
X177019048Y-82207200D01*
X177019048Y-82207200D02*
X176971429Y-82159580D01*
X176971429Y-82159580D02*
X176923810Y-82064342D01*
X176923810Y-82064342D02*
X176923810Y-81778628D01*
X176923810Y-81778628D02*
X176971429Y-81683390D01*
X176971429Y-81683390D02*
X177019048Y-81635771D01*
X177019048Y-81635771D02*
X177114286Y-81588152D01*
X177114286Y-81588152D02*
X177304762Y-81588152D01*
X177304762Y-81588152D02*
X177400000Y-81635771D01*
X178257143Y-82207200D02*
X178161905Y-82254819D01*
X178161905Y-82254819D02*
X177971429Y-82254819D01*
X177971429Y-82254819D02*
X177876191Y-82207200D01*
X177876191Y-82207200D02*
X177828572Y-82111961D01*
X177828572Y-82111961D02*
X177828572Y-81731009D01*
X177828572Y-81731009D02*
X177876191Y-81635771D01*
X177876191Y-81635771D02*
X177971429Y-81588152D01*
X177971429Y-81588152D02*
X178161905Y-81588152D01*
X178161905Y-81588152D02*
X178257143Y-81635771D01*
X178257143Y-81635771D02*
X178304762Y-81731009D01*
X178304762Y-81731009D02*
X178304762Y-81826247D01*
X178304762Y-81826247D02*
X177828572Y-81921485D01*
X155238095Y-44154819D02*
X155238095Y-44964342D01*
X155238095Y-44964342D02*
X155285714Y-45059580D01*
X155285714Y-45059580D02*
X155333333Y-45107200D01*
X155333333Y-45107200D02*
X155428571Y-45154819D01*
X155428571Y-45154819D02*
X155619047Y-45154819D01*
X155619047Y-45154819D02*
X155714285Y-45107200D01*
X155714285Y-45107200D02*
X155761904Y-45059580D01*
X155761904Y-45059580D02*
X155809523Y-44964342D01*
X155809523Y-44964342D02*
X155809523Y-44154819D01*
X156809523Y-45154819D02*
X156238095Y-45154819D01*
X156523809Y-45154819D02*
X156523809Y-44154819D01*
X156523809Y-44154819D02*
X156428571Y-44297676D01*
X156428571Y-44297676D02*
X156333333Y-44392914D01*
X156333333Y-44392914D02*
X156238095Y-44440533D01*
X160707142Y-83454819D02*
X160373809Y-82978628D01*
X160135714Y-83454819D02*
X160135714Y-82454819D01*
X160135714Y-82454819D02*
X160516666Y-82454819D01*
X160516666Y-82454819D02*
X160611904Y-82502438D01*
X160611904Y-82502438D02*
X160659523Y-82550057D01*
X160659523Y-82550057D02*
X160707142Y-82645295D01*
X160707142Y-82645295D02*
X160707142Y-82788152D01*
X160707142Y-82788152D02*
X160659523Y-82883390D01*
X160659523Y-82883390D02*
X160611904Y-82931009D01*
X160611904Y-82931009D02*
X160516666Y-82978628D01*
X160516666Y-82978628D02*
X160135714Y-82978628D01*
X161659523Y-83454819D02*
X161088095Y-83454819D01*
X161373809Y-83454819D02*
X161373809Y-82454819D01*
X161373809Y-82454819D02*
X161278571Y-82597676D01*
X161278571Y-82597676D02*
X161183333Y-82692914D01*
X161183333Y-82692914D02*
X161088095Y-82740533D01*
X162611904Y-83454819D02*
X162040476Y-83454819D01*
X162326190Y-83454819D02*
X162326190Y-82454819D01*
X162326190Y-82454819D02*
X162230952Y-82597676D01*
X162230952Y-82597676D02*
X162135714Y-82692914D01*
X162135714Y-82692914D02*
X162040476Y-82740533D01*
X142916905Y-87749819D02*
X142916905Y-86749819D01*
X143488333Y-87749819D02*
X143059762Y-87178390D01*
X143488333Y-86749819D02*
X142916905Y-87321247D01*
X144440714Y-87749819D02*
X143869286Y-87749819D01*
X144155000Y-87749819D02*
X144155000Y-86749819D01*
X144155000Y-86749819D02*
X144059762Y-86892676D01*
X144059762Y-86892676D02*
X143964524Y-86987914D01*
X143964524Y-86987914D02*
X143869286Y-87035533D01*
X141728095Y-75844819D02*
X141728095Y-76654342D01*
X141728095Y-76654342D02*
X141775714Y-76749580D01*
X141775714Y-76749580D02*
X141823333Y-76797200D01*
X141823333Y-76797200D02*
X141918571Y-76844819D01*
X141918571Y-76844819D02*
X142109047Y-76844819D01*
X142109047Y-76844819D02*
X142204285Y-76797200D01*
X142204285Y-76797200D02*
X142251904Y-76749580D01*
X142251904Y-76749580D02*
X142299523Y-76654342D01*
X142299523Y-76654342D02*
X142299523Y-75844819D01*
X142680476Y-75844819D02*
X143299523Y-75844819D01*
X143299523Y-75844819D02*
X142966190Y-76225771D01*
X142966190Y-76225771D02*
X143109047Y-76225771D01*
X143109047Y-76225771D02*
X143204285Y-76273390D01*
X143204285Y-76273390D02*
X143251904Y-76321009D01*
X143251904Y-76321009D02*
X143299523Y-76416247D01*
X143299523Y-76416247D02*
X143299523Y-76654342D01*
X143299523Y-76654342D02*
X143251904Y-76749580D01*
X143251904Y-76749580D02*
X143204285Y-76797200D01*
X143204285Y-76797200D02*
X143109047Y-76844819D01*
X143109047Y-76844819D02*
X142823333Y-76844819D01*
X142823333Y-76844819D02*
X142728095Y-76797200D01*
X142728095Y-76797200D02*
X142680476Y-76749580D01*
X166159580Y-66642857D02*
X166207200Y-66690476D01*
X166207200Y-66690476D02*
X166254819Y-66833333D01*
X166254819Y-66833333D02*
X166254819Y-66928571D01*
X166254819Y-66928571D02*
X166207200Y-67071428D01*
X166207200Y-67071428D02*
X166111961Y-67166666D01*
X166111961Y-67166666D02*
X166016723Y-67214285D01*
X166016723Y-67214285D02*
X165826247Y-67261904D01*
X165826247Y-67261904D02*
X165683390Y-67261904D01*
X165683390Y-67261904D02*
X165492914Y-67214285D01*
X165492914Y-67214285D02*
X165397676Y-67166666D01*
X165397676Y-67166666D02*
X165302438Y-67071428D01*
X165302438Y-67071428D02*
X165254819Y-66928571D01*
X165254819Y-66928571D02*
X165254819Y-66833333D01*
X165254819Y-66833333D02*
X165302438Y-66690476D01*
X165302438Y-66690476D02*
X165350057Y-66642857D01*
X166254819Y-65690476D02*
X166254819Y-66261904D01*
X166254819Y-65976190D02*
X165254819Y-65976190D01*
X165254819Y-65976190D02*
X165397676Y-66071428D01*
X165397676Y-66071428D02*
X165492914Y-66166666D01*
X165492914Y-66166666D02*
X165540533Y-66261904D01*
X165588152Y-64833333D02*
X166254819Y-64833333D01*
X165207200Y-65071428D02*
X165921485Y-65309523D01*
X165921485Y-65309523D02*
X165921485Y-64690476D01*
X139364819Y-56766666D02*
X138888628Y-57099999D01*
X139364819Y-57338094D02*
X138364819Y-57338094D01*
X138364819Y-57338094D02*
X138364819Y-56957142D01*
X138364819Y-56957142D02*
X138412438Y-56861904D01*
X138412438Y-56861904D02*
X138460057Y-56814285D01*
X138460057Y-56814285D02*
X138555295Y-56766666D01*
X138555295Y-56766666D02*
X138698152Y-56766666D01*
X138698152Y-56766666D02*
X138793390Y-56814285D01*
X138793390Y-56814285D02*
X138841009Y-56861904D01*
X138841009Y-56861904D02*
X138888628Y-56957142D01*
X138888628Y-56957142D02*
X138888628Y-57338094D01*
X138364819Y-56433332D02*
X138364819Y-55766666D01*
X138364819Y-55766666D02*
X139364819Y-56195237D01*
X158338095Y-77554819D02*
X158338095Y-78364342D01*
X158338095Y-78364342D02*
X158385714Y-78459580D01*
X158385714Y-78459580D02*
X158433333Y-78507200D01*
X158433333Y-78507200D02*
X158528571Y-78554819D01*
X158528571Y-78554819D02*
X158719047Y-78554819D01*
X158719047Y-78554819D02*
X158814285Y-78507200D01*
X158814285Y-78507200D02*
X158861904Y-78459580D01*
X158861904Y-78459580D02*
X158909523Y-78364342D01*
X158909523Y-78364342D02*
X158909523Y-77554819D01*
X159861904Y-77554819D02*
X159385714Y-77554819D01*
X159385714Y-77554819D02*
X159338095Y-78031009D01*
X159338095Y-78031009D02*
X159385714Y-77983390D01*
X159385714Y-77983390D02*
X159480952Y-77935771D01*
X159480952Y-77935771D02*
X159719047Y-77935771D01*
X159719047Y-77935771D02*
X159814285Y-77983390D01*
X159814285Y-77983390D02*
X159861904Y-78031009D01*
X159861904Y-78031009D02*
X159909523Y-78126247D01*
X159909523Y-78126247D02*
X159909523Y-78364342D01*
X159909523Y-78364342D02*
X159861904Y-78459580D01*
X159861904Y-78459580D02*
X159814285Y-78507200D01*
X159814285Y-78507200D02*
X159719047Y-78554819D01*
X159719047Y-78554819D02*
X159480952Y-78554819D01*
X159480952Y-78554819D02*
X159385714Y-78507200D01*
X159385714Y-78507200D02*
X159338095Y-78459580D01*
X149866666Y-104154819D02*
X149866666Y-104869104D01*
X149866666Y-104869104D02*
X149819047Y-105011961D01*
X149819047Y-105011961D02*
X149723809Y-105107200D01*
X149723809Y-105107200D02*
X149580952Y-105154819D01*
X149580952Y-105154819D02*
X149485714Y-105154819D01*
X150866666Y-105154819D02*
X150295238Y-105154819D01*
X150580952Y-105154819D02*
X150580952Y-104154819D01*
X150580952Y-104154819D02*
X150485714Y-104297676D01*
X150485714Y-104297676D02*
X150390476Y-104392914D01*
X150390476Y-104392914D02*
X150295238Y-104440533D01*
X137619048Y-79494819D02*
X137619048Y-80304342D01*
X137619048Y-80304342D02*
X137666667Y-80399580D01*
X137666667Y-80399580D02*
X137714286Y-80447200D01*
X137714286Y-80447200D02*
X137809524Y-80494819D01*
X137809524Y-80494819D02*
X138000000Y-80494819D01*
X138000000Y-80494819D02*
X138095238Y-80447200D01*
X138095238Y-80447200D02*
X138142857Y-80399580D01*
X138142857Y-80399580D02*
X138190476Y-80304342D01*
X138190476Y-80304342D02*
X138190476Y-79494819D01*
X139095238Y-79828152D02*
X139095238Y-80494819D01*
X138857143Y-79447200D02*
X138619048Y-80161485D01*
X138619048Y-80161485D02*
X139238095Y-80161485D01*
X139619048Y-80113866D02*
X140380953Y-80113866D01*
X141047619Y-79494819D02*
X141238095Y-79494819D01*
X141238095Y-79494819D02*
X141333333Y-79542438D01*
X141333333Y-79542438D02*
X141428571Y-79637676D01*
X141428571Y-79637676D02*
X141476190Y-79828152D01*
X141476190Y-79828152D02*
X141476190Y-80161485D01*
X141476190Y-80161485D02*
X141428571Y-80351961D01*
X141428571Y-80351961D02*
X141333333Y-80447200D01*
X141333333Y-80447200D02*
X141238095Y-80494819D01*
X141238095Y-80494819D02*
X141047619Y-80494819D01*
X141047619Y-80494819D02*
X140952381Y-80447200D01*
X140952381Y-80447200D02*
X140857143Y-80351961D01*
X140857143Y-80351961D02*
X140809524Y-80161485D01*
X140809524Y-80161485D02*
X140809524Y-79828152D01*
X140809524Y-79828152D02*
X140857143Y-79637676D01*
X140857143Y-79637676D02*
X140952381Y-79542438D01*
X140952381Y-79542438D02*
X141047619Y-79494819D01*
X142428571Y-80494819D02*
X141857143Y-80494819D01*
X142142857Y-80494819D02*
X142142857Y-79494819D01*
X142142857Y-79494819D02*
X142047619Y-79637676D01*
X142047619Y-79637676D02*
X141952381Y-79732914D01*
X141952381Y-79732914D02*
X141857143Y-79780533D01*
X158554819Y-83466666D02*
X158078628Y-83799999D01*
X158554819Y-84038094D02*
X157554819Y-84038094D01*
X157554819Y-84038094D02*
X157554819Y-83657142D01*
X157554819Y-83657142D02*
X157602438Y-83561904D01*
X157602438Y-83561904D02*
X157650057Y-83514285D01*
X157650057Y-83514285D02*
X157745295Y-83466666D01*
X157745295Y-83466666D02*
X157888152Y-83466666D01*
X157888152Y-83466666D02*
X157983390Y-83514285D01*
X157983390Y-83514285D02*
X158031009Y-83561904D01*
X158031009Y-83561904D02*
X158078628Y-83657142D01*
X158078628Y-83657142D02*
X158078628Y-84038094D01*
X157554819Y-82609523D02*
X157554819Y-82799999D01*
X157554819Y-82799999D02*
X157602438Y-82895237D01*
X157602438Y-82895237D02*
X157650057Y-82942856D01*
X157650057Y-82942856D02*
X157792914Y-83038094D01*
X157792914Y-83038094D02*
X157983390Y-83085713D01*
X157983390Y-83085713D02*
X158364342Y-83085713D01*
X158364342Y-83085713D02*
X158459580Y-83038094D01*
X158459580Y-83038094D02*
X158507200Y-82990475D01*
X158507200Y-82990475D02*
X158554819Y-82895237D01*
X158554819Y-82895237D02*
X158554819Y-82704761D01*
X158554819Y-82704761D02*
X158507200Y-82609523D01*
X158507200Y-82609523D02*
X158459580Y-82561904D01*
X158459580Y-82561904D02*
X158364342Y-82514285D01*
X158364342Y-82514285D02*
X158126247Y-82514285D01*
X158126247Y-82514285D02*
X158031009Y-82561904D01*
X158031009Y-82561904D02*
X157983390Y-82609523D01*
X157983390Y-82609523D02*
X157935771Y-82704761D01*
X157935771Y-82704761D02*
X157935771Y-82895237D01*
X157935771Y-82895237D02*
X157983390Y-82990475D01*
X157983390Y-82990475D02*
X158031009Y-83038094D01*
X158031009Y-83038094D02*
X158126247Y-83085713D01*
X147495833Y-77419580D02*
X147448214Y-77467200D01*
X147448214Y-77467200D02*
X147305357Y-77514819D01*
X147305357Y-77514819D02*
X147210119Y-77514819D01*
X147210119Y-77514819D02*
X147067262Y-77467200D01*
X147067262Y-77467200D02*
X146972024Y-77371961D01*
X146972024Y-77371961D02*
X146924405Y-77276723D01*
X146924405Y-77276723D02*
X146876786Y-77086247D01*
X146876786Y-77086247D02*
X146876786Y-76943390D01*
X146876786Y-76943390D02*
X146924405Y-76752914D01*
X146924405Y-76752914D02*
X146972024Y-76657676D01*
X146972024Y-76657676D02*
X147067262Y-76562438D01*
X147067262Y-76562438D02*
X147210119Y-76514819D01*
X147210119Y-76514819D02*
X147305357Y-76514819D01*
X147305357Y-76514819D02*
X147448214Y-76562438D01*
X147448214Y-76562438D02*
X147495833Y-76610057D01*
X148352976Y-76848152D02*
X148352976Y-77514819D01*
X148114881Y-76467200D02*
X147876786Y-77181485D01*
X147876786Y-77181485D02*
X148495833Y-77181485D01*
X150159580Y-63466666D02*
X150207200Y-63514285D01*
X150207200Y-63514285D02*
X150254819Y-63657142D01*
X150254819Y-63657142D02*
X150254819Y-63752380D01*
X150254819Y-63752380D02*
X150207200Y-63895237D01*
X150207200Y-63895237D02*
X150111961Y-63990475D01*
X150111961Y-63990475D02*
X150016723Y-64038094D01*
X150016723Y-64038094D02*
X149826247Y-64085713D01*
X149826247Y-64085713D02*
X149683390Y-64085713D01*
X149683390Y-64085713D02*
X149492914Y-64038094D01*
X149492914Y-64038094D02*
X149397676Y-63990475D01*
X149397676Y-63990475D02*
X149302438Y-63895237D01*
X149302438Y-63895237D02*
X149254819Y-63752380D01*
X149254819Y-63752380D02*
X149254819Y-63657142D01*
X149254819Y-63657142D02*
X149302438Y-63514285D01*
X149302438Y-63514285D02*
X149350057Y-63466666D01*
X149254819Y-62561904D02*
X149254819Y-63038094D01*
X149254819Y-63038094D02*
X149731009Y-63085713D01*
X149731009Y-63085713D02*
X149683390Y-63038094D01*
X149683390Y-63038094D02*
X149635771Y-62942856D01*
X149635771Y-62942856D02*
X149635771Y-62704761D01*
X149635771Y-62704761D02*
X149683390Y-62609523D01*
X149683390Y-62609523D02*
X149731009Y-62561904D01*
X149731009Y-62561904D02*
X149826247Y-62514285D01*
X149826247Y-62514285D02*
X150064342Y-62514285D01*
X150064342Y-62514285D02*
X150159580Y-62561904D01*
X150159580Y-62561904D02*
X150207200Y-62609523D01*
X150207200Y-62609523D02*
X150254819Y-62704761D01*
X150254819Y-62704761D02*
X150254819Y-62942856D01*
X150254819Y-62942856D02*
X150207200Y-63038094D01*
X150207200Y-63038094D02*
X150159580Y-63085713D01*
X152933333Y-70954819D02*
X152457143Y-70954819D01*
X152457143Y-70954819D02*
X152457143Y-69954819D01*
X153790476Y-70954819D02*
X153219048Y-70954819D01*
X153504762Y-70954819D02*
X153504762Y-69954819D01*
X153504762Y-69954819D02*
X153409524Y-70097676D01*
X153409524Y-70097676D02*
X153314286Y-70192914D01*
X153314286Y-70192914D02*
X153219048Y-70240533D01*
X140700000Y-52973866D02*
X141461905Y-52973866D01*
X141080952Y-53354819D02*
X141080952Y-52592914D01*
X141842857Y-52354819D02*
X142461904Y-52354819D01*
X142461904Y-52354819D02*
X142128571Y-52735771D01*
X142128571Y-52735771D02*
X142271428Y-52735771D01*
X142271428Y-52735771D02*
X142366666Y-52783390D01*
X142366666Y-52783390D02*
X142414285Y-52831009D01*
X142414285Y-52831009D02*
X142461904Y-52926247D01*
X142461904Y-52926247D02*
X142461904Y-53164342D01*
X142461904Y-53164342D02*
X142414285Y-53259580D01*
X142414285Y-53259580D02*
X142366666Y-53307200D01*
X142366666Y-53307200D02*
X142271428Y-53354819D01*
X142271428Y-53354819D02*
X141985714Y-53354819D01*
X141985714Y-53354819D02*
X141890476Y-53307200D01*
X141890476Y-53307200D02*
X141842857Y-53259580D01*
X142890476Y-53259580D02*
X142938095Y-53307200D01*
X142938095Y-53307200D02*
X142890476Y-53354819D01*
X142890476Y-53354819D02*
X142842857Y-53307200D01*
X142842857Y-53307200D02*
X142890476Y-53259580D01*
X142890476Y-53259580D02*
X142890476Y-53354819D01*
X143271428Y-52354819D02*
X143890475Y-52354819D01*
X143890475Y-52354819D02*
X143557142Y-52735771D01*
X143557142Y-52735771D02*
X143699999Y-52735771D01*
X143699999Y-52735771D02*
X143795237Y-52783390D01*
X143795237Y-52783390D02*
X143842856Y-52831009D01*
X143842856Y-52831009D02*
X143890475Y-52926247D01*
X143890475Y-52926247D02*
X143890475Y-53164342D01*
X143890475Y-53164342D02*
X143842856Y-53259580D01*
X143842856Y-53259580D02*
X143795237Y-53307200D01*
X143795237Y-53307200D02*
X143699999Y-53354819D01*
X143699999Y-53354819D02*
X143414285Y-53354819D01*
X143414285Y-53354819D02*
X143319047Y-53307200D01*
X143319047Y-53307200D02*
X143271428Y-53259580D01*
X144176190Y-52354819D02*
X144509523Y-53354819D01*
X144509523Y-53354819D02*
X144842856Y-52354819D01*
X144914819Y-56766666D02*
X144438628Y-57099999D01*
X144914819Y-57338094D02*
X143914819Y-57338094D01*
X143914819Y-57338094D02*
X143914819Y-56957142D01*
X143914819Y-56957142D02*
X143962438Y-56861904D01*
X143962438Y-56861904D02*
X144010057Y-56814285D01*
X144010057Y-56814285D02*
X144105295Y-56766666D01*
X144105295Y-56766666D02*
X144248152Y-56766666D01*
X144248152Y-56766666D02*
X144343390Y-56814285D01*
X144343390Y-56814285D02*
X144391009Y-56861904D01*
X144391009Y-56861904D02*
X144438628Y-56957142D01*
X144438628Y-56957142D02*
X144438628Y-57338094D01*
X143914819Y-56433332D02*
X143914819Y-55814285D01*
X143914819Y-55814285D02*
X144295771Y-56147618D01*
X144295771Y-56147618D02*
X144295771Y-56004761D01*
X144295771Y-56004761D02*
X144343390Y-55909523D01*
X144343390Y-55909523D02*
X144391009Y-55861904D01*
X144391009Y-55861904D02*
X144486247Y-55814285D01*
X144486247Y-55814285D02*
X144724342Y-55814285D01*
X144724342Y-55814285D02*
X144819580Y-55861904D01*
X144819580Y-55861904D02*
X144867200Y-55909523D01*
X144867200Y-55909523D02*
X144914819Y-56004761D01*
X144914819Y-56004761D02*
X144914819Y-56290475D01*
X144914819Y-56290475D02*
X144867200Y-56385713D01*
X144867200Y-56385713D02*
X144819580Y-56433332D01*
X174366666Y-47754819D02*
X174366666Y-48469104D01*
X174366666Y-48469104D02*
X174319047Y-48611961D01*
X174319047Y-48611961D02*
X174223809Y-48707200D01*
X174223809Y-48707200D02*
X174080952Y-48754819D01*
X174080952Y-48754819D02*
X173985714Y-48754819D01*
X174747619Y-47754819D02*
X175366666Y-47754819D01*
X175366666Y-47754819D02*
X175033333Y-48135771D01*
X175033333Y-48135771D02*
X175176190Y-48135771D01*
X175176190Y-48135771D02*
X175271428Y-48183390D01*
X175271428Y-48183390D02*
X175319047Y-48231009D01*
X175319047Y-48231009D02*
X175366666Y-48326247D01*
X175366666Y-48326247D02*
X175366666Y-48564342D01*
X175366666Y-48564342D02*
X175319047Y-48659580D01*
X175319047Y-48659580D02*
X175271428Y-48707200D01*
X175271428Y-48707200D02*
X175176190Y-48754819D01*
X175176190Y-48754819D02*
X174890476Y-48754819D01*
X174890476Y-48754819D02*
X174795238Y-48707200D01*
X174795238Y-48707200D02*
X174747619Y-48659580D01*
X167952858Y-64234819D02*
X167952858Y-63234819D01*
X168619524Y-63234819D02*
X168810000Y-63234819D01*
X168810000Y-63234819D02*
X168905238Y-63282438D01*
X168905238Y-63282438D02*
X169000476Y-63377676D01*
X169000476Y-63377676D02*
X169048095Y-63568152D01*
X169048095Y-63568152D02*
X169048095Y-63901485D01*
X169048095Y-63901485D02*
X169000476Y-64091961D01*
X169000476Y-64091961D02*
X168905238Y-64187200D01*
X168905238Y-64187200D02*
X168810000Y-64234819D01*
X168810000Y-64234819D02*
X168619524Y-64234819D01*
X168619524Y-64234819D02*
X168524286Y-64187200D01*
X168524286Y-64187200D02*
X168429048Y-64091961D01*
X168429048Y-64091961D02*
X168381429Y-63901485D01*
X168381429Y-63901485D02*
X168381429Y-63568152D01*
X168381429Y-63568152D02*
X168429048Y-63377676D01*
X168429048Y-63377676D02*
X168524286Y-63282438D01*
X168524286Y-63282438D02*
X168619524Y-63234819D01*
X169905238Y-63234819D02*
X169714762Y-63234819D01*
X169714762Y-63234819D02*
X169619524Y-63282438D01*
X169619524Y-63282438D02*
X169571905Y-63330057D01*
X169571905Y-63330057D02*
X169476667Y-63472914D01*
X169476667Y-63472914D02*
X169429048Y-63663390D01*
X169429048Y-63663390D02*
X169429048Y-64044342D01*
X169429048Y-64044342D02*
X169476667Y-64139580D01*
X169476667Y-64139580D02*
X169524286Y-64187200D01*
X169524286Y-64187200D02*
X169619524Y-64234819D01*
X169619524Y-64234819D02*
X169810000Y-64234819D01*
X169810000Y-64234819D02*
X169905238Y-64187200D01*
X169905238Y-64187200D02*
X169952857Y-64139580D01*
X169952857Y-64139580D02*
X170000476Y-64044342D01*
X170000476Y-64044342D02*
X170000476Y-63806247D01*
X170000476Y-63806247D02*
X169952857Y-63711009D01*
X169952857Y-63711009D02*
X169905238Y-63663390D01*
X169905238Y-63663390D02*
X169810000Y-63615771D01*
X169810000Y-63615771D02*
X169619524Y-63615771D01*
X169619524Y-63615771D02*
X169524286Y-63663390D01*
X169524286Y-63663390D02*
X169476667Y-63711009D01*
X169476667Y-63711009D02*
X169429048Y-63806247D01*
X170429048Y-63853866D02*
X171190953Y-63853866D01*
X171667143Y-64234819D02*
X171667143Y-63234819D01*
X172714761Y-64234819D02*
X172381428Y-63758628D01*
X172143333Y-64234819D02*
X172143333Y-63234819D01*
X172143333Y-63234819D02*
X172524285Y-63234819D01*
X172524285Y-63234819D02*
X172619523Y-63282438D01*
X172619523Y-63282438D02*
X172667142Y-63330057D01*
X172667142Y-63330057D02*
X172714761Y-63425295D01*
X172714761Y-63425295D02*
X172714761Y-63568152D01*
X172714761Y-63568152D02*
X172667142Y-63663390D01*
X172667142Y-63663390D02*
X172619523Y-63711009D01*
X172619523Y-63711009D02*
X172524285Y-63758628D01*
X172524285Y-63758628D02*
X172143333Y-63758628D01*
X146674819Y-84976904D02*
X147484342Y-84976904D01*
X147484342Y-84976904D02*
X147579580Y-84929285D01*
X147579580Y-84929285D02*
X147627200Y-84881666D01*
X147627200Y-84881666D02*
X147674819Y-84786428D01*
X147674819Y-84786428D02*
X147674819Y-84595952D01*
X147674819Y-84595952D02*
X147627200Y-84500714D01*
X147627200Y-84500714D02*
X147579580Y-84453095D01*
X147579580Y-84453095D02*
X147484342Y-84405476D01*
X147484342Y-84405476D02*
X146674819Y-84405476D01*
X146674819Y-83500714D02*
X146674819Y-83691190D01*
X146674819Y-83691190D02*
X146722438Y-83786428D01*
X146722438Y-83786428D02*
X146770057Y-83834047D01*
X146770057Y-83834047D02*
X146912914Y-83929285D01*
X146912914Y-83929285D02*
X147103390Y-83976904D01*
X147103390Y-83976904D02*
X147484342Y-83976904D01*
X147484342Y-83976904D02*
X147579580Y-83929285D01*
X147579580Y-83929285D02*
X147627200Y-83881666D01*
X147627200Y-83881666D02*
X147674819Y-83786428D01*
X147674819Y-83786428D02*
X147674819Y-83595952D01*
X147674819Y-83595952D02*
X147627200Y-83500714D01*
X147627200Y-83500714D02*
X147579580Y-83453095D01*
X147579580Y-83453095D02*
X147484342Y-83405476D01*
X147484342Y-83405476D02*
X147246247Y-83405476D01*
X147246247Y-83405476D02*
X147151009Y-83453095D01*
X147151009Y-83453095D02*
X147103390Y-83500714D01*
X147103390Y-83500714D02*
X147055771Y-83595952D01*
X147055771Y-83595952D02*
X147055771Y-83786428D01*
X147055771Y-83786428D02*
X147103390Y-83881666D01*
X147103390Y-83881666D02*
X147151009Y-83929285D01*
X147151009Y-83929285D02*
X147246247Y-83976904D01*
X168166666Y-104254819D02*
X168166666Y-104969104D01*
X168166666Y-104969104D02*
X168119047Y-105111961D01*
X168119047Y-105111961D02*
X168023809Y-105207200D01*
X168023809Y-105207200D02*
X167880952Y-105254819D01*
X167880952Y-105254819D02*
X167785714Y-105254819D01*
X168595238Y-104350057D02*
X168642857Y-104302438D01*
X168642857Y-104302438D02*
X168738095Y-104254819D01*
X168738095Y-104254819D02*
X168976190Y-104254819D01*
X168976190Y-104254819D02*
X169071428Y-104302438D01*
X169071428Y-104302438D02*
X169119047Y-104350057D01*
X169119047Y-104350057D02*
X169166666Y-104445295D01*
X169166666Y-104445295D02*
X169166666Y-104540533D01*
X169166666Y-104540533D02*
X169119047Y-104683390D01*
X169119047Y-104683390D02*
X168547619Y-105254819D01*
X168547619Y-105254819D02*
X169166666Y-105254819D01*
X166033333Y-92059580D02*
X165985714Y-92107200D01*
X165985714Y-92107200D02*
X165842857Y-92154819D01*
X165842857Y-92154819D02*
X165747619Y-92154819D01*
X165747619Y-92154819D02*
X165604762Y-92107200D01*
X165604762Y-92107200D02*
X165509524Y-92011961D01*
X165509524Y-92011961D02*
X165461905Y-91916723D01*
X165461905Y-91916723D02*
X165414286Y-91726247D01*
X165414286Y-91726247D02*
X165414286Y-91583390D01*
X165414286Y-91583390D02*
X165461905Y-91392914D01*
X165461905Y-91392914D02*
X165509524Y-91297676D01*
X165509524Y-91297676D02*
X165604762Y-91202438D01*
X165604762Y-91202438D02*
X165747619Y-91154819D01*
X165747619Y-91154819D02*
X165842857Y-91154819D01*
X165842857Y-91154819D02*
X165985714Y-91202438D01*
X165985714Y-91202438D02*
X166033333Y-91250057D01*
X166366667Y-91154819D02*
X167033333Y-91154819D01*
X167033333Y-91154819D02*
X166604762Y-92154819D01*
X161054819Y-68338094D02*
X160054819Y-68338094D01*
X160054819Y-68338094D02*
X160054819Y-68099999D01*
X160054819Y-68099999D02*
X160102438Y-67957142D01*
X160102438Y-67957142D02*
X160197676Y-67861904D01*
X160197676Y-67861904D02*
X160292914Y-67814285D01*
X160292914Y-67814285D02*
X160483390Y-67766666D01*
X160483390Y-67766666D02*
X160626247Y-67766666D01*
X160626247Y-67766666D02*
X160816723Y-67814285D01*
X160816723Y-67814285D02*
X160911961Y-67861904D01*
X160911961Y-67861904D02*
X161007200Y-67957142D01*
X161007200Y-67957142D02*
X161054819Y-68099999D01*
X161054819Y-68099999D02*
X161054819Y-68338094D01*
X161054819Y-66814285D02*
X161054819Y-67385713D01*
X161054819Y-67099999D02*
X160054819Y-67099999D01*
X160054819Y-67099999D02*
X160197676Y-67195237D01*
X160197676Y-67195237D02*
X160292914Y-67290475D01*
X160292914Y-67290475D02*
X160340533Y-67385713D01*
X166954819Y-76338094D02*
X165954819Y-76338094D01*
X165954819Y-76338094D02*
X165954819Y-76099999D01*
X165954819Y-76099999D02*
X166002438Y-75957142D01*
X166002438Y-75957142D02*
X166097676Y-75861904D01*
X166097676Y-75861904D02*
X166192914Y-75814285D01*
X166192914Y-75814285D02*
X166383390Y-75766666D01*
X166383390Y-75766666D02*
X166526247Y-75766666D01*
X166526247Y-75766666D02*
X166716723Y-75814285D01*
X166716723Y-75814285D02*
X166811961Y-75861904D01*
X166811961Y-75861904D02*
X166907200Y-75957142D01*
X166907200Y-75957142D02*
X166954819Y-76099999D01*
X166954819Y-76099999D02*
X166954819Y-76338094D01*
X166050057Y-75385713D02*
X166002438Y-75338094D01*
X166002438Y-75338094D02*
X165954819Y-75242856D01*
X165954819Y-75242856D02*
X165954819Y-75004761D01*
X165954819Y-75004761D02*
X166002438Y-74909523D01*
X166002438Y-74909523D02*
X166050057Y-74861904D01*
X166050057Y-74861904D02*
X166145295Y-74814285D01*
X166145295Y-74814285D02*
X166240533Y-74814285D01*
X166240533Y-74814285D02*
X166383390Y-74861904D01*
X166383390Y-74861904D02*
X166954819Y-75433332D01*
X166954819Y-75433332D02*
X166954819Y-74814285D01*
X154754819Y-79538094D02*
X153754819Y-79538094D01*
X153754819Y-79538094D02*
X153754819Y-79299999D01*
X153754819Y-79299999D02*
X153802438Y-79157142D01*
X153802438Y-79157142D02*
X153897676Y-79061904D01*
X153897676Y-79061904D02*
X153992914Y-79014285D01*
X153992914Y-79014285D02*
X154183390Y-78966666D01*
X154183390Y-78966666D02*
X154326247Y-78966666D01*
X154326247Y-78966666D02*
X154516723Y-79014285D01*
X154516723Y-79014285D02*
X154611961Y-79061904D01*
X154611961Y-79061904D02*
X154707200Y-79157142D01*
X154707200Y-79157142D02*
X154754819Y-79299999D01*
X154754819Y-79299999D02*
X154754819Y-79538094D01*
X153754819Y-78061904D02*
X153754819Y-78538094D01*
X153754819Y-78538094D02*
X154231009Y-78585713D01*
X154231009Y-78585713D02*
X154183390Y-78538094D01*
X154183390Y-78538094D02*
X154135771Y-78442856D01*
X154135771Y-78442856D02*
X154135771Y-78204761D01*
X154135771Y-78204761D02*
X154183390Y-78109523D01*
X154183390Y-78109523D02*
X154231009Y-78061904D01*
X154231009Y-78061904D02*
X154326247Y-78014285D01*
X154326247Y-78014285D02*
X154564342Y-78014285D01*
X154564342Y-78014285D02*
X154659580Y-78061904D01*
X154659580Y-78061904D02*
X154707200Y-78109523D01*
X154707200Y-78109523D02*
X154754819Y-78204761D01*
X154754819Y-78204761D02*
X154754819Y-78442856D01*
X154754819Y-78442856D02*
X154707200Y-78538094D01*
X154707200Y-78538094D02*
X154659580Y-78585713D01*
X171884412Y-77255526D02*
X171884412Y-77969811D01*
X171884412Y-77969811D02*
X171836793Y-78112668D01*
X171836793Y-78112668D02*
X171741555Y-78207907D01*
X171741555Y-78207907D02*
X171598698Y-78255526D01*
X171598698Y-78255526D02*
X171503460Y-78255526D01*
X172265365Y-77255526D02*
X172884412Y-77255526D01*
X172884412Y-77255526D02*
X172551079Y-77636478D01*
X172551079Y-77636478D02*
X172693936Y-77636478D01*
X172693936Y-77636478D02*
X172789174Y-77684097D01*
X172789174Y-77684097D02*
X172836793Y-77731716D01*
X172836793Y-77731716D02*
X172884412Y-77826954D01*
X172884412Y-77826954D02*
X172884412Y-78065049D01*
X172884412Y-78065049D02*
X172836793Y-78160287D01*
X172836793Y-78160287D02*
X172789174Y-78207907D01*
X172789174Y-78207907D02*
X172693936Y-78255526D01*
X172693936Y-78255526D02*
X172408222Y-78255526D01*
X172408222Y-78255526D02*
X172312984Y-78207907D01*
X172312984Y-78207907D02*
X172265365Y-78160287D01*
X173312984Y-77874573D02*
X174074889Y-77874573D01*
X174741555Y-77255526D02*
X174932031Y-77255526D01*
X174932031Y-77255526D02*
X175027269Y-77303145D01*
X175027269Y-77303145D02*
X175122507Y-77398383D01*
X175122507Y-77398383D02*
X175170126Y-77588859D01*
X175170126Y-77588859D02*
X175170126Y-77922192D01*
X175170126Y-77922192D02*
X175122507Y-78112668D01*
X175122507Y-78112668D02*
X175027269Y-78207907D01*
X175027269Y-78207907D02*
X174932031Y-78255526D01*
X174932031Y-78255526D02*
X174741555Y-78255526D01*
X174741555Y-78255526D02*
X174646317Y-78207907D01*
X174646317Y-78207907D02*
X174551079Y-78112668D01*
X174551079Y-78112668D02*
X174503460Y-77922192D01*
X174503460Y-77922192D02*
X174503460Y-77588859D01*
X174503460Y-77588859D02*
X174551079Y-77398383D01*
X174551079Y-77398383D02*
X174646317Y-77303145D01*
X174646317Y-77303145D02*
X174741555Y-77255526D01*
X176122507Y-78255526D02*
X175551079Y-78255526D01*
X175836793Y-78255526D02*
X175836793Y-77255526D01*
X175836793Y-77255526D02*
X175741555Y-77398383D01*
X175741555Y-77398383D02*
X175646317Y-77493621D01*
X175646317Y-77493621D02*
X175551079Y-77541240D01*
X138954642Y-48359580D02*
X138907023Y-48407200D01*
X138907023Y-48407200D02*
X138764166Y-48454819D01*
X138764166Y-48454819D02*
X138668928Y-48454819D01*
X138668928Y-48454819D02*
X138526071Y-48407200D01*
X138526071Y-48407200D02*
X138430833Y-48311961D01*
X138430833Y-48311961D02*
X138383214Y-48216723D01*
X138383214Y-48216723D02*
X138335595Y-48026247D01*
X138335595Y-48026247D02*
X138335595Y-47883390D01*
X138335595Y-47883390D02*
X138383214Y-47692914D01*
X138383214Y-47692914D02*
X138430833Y-47597676D01*
X138430833Y-47597676D02*
X138526071Y-47502438D01*
X138526071Y-47502438D02*
X138668928Y-47454819D01*
X138668928Y-47454819D02*
X138764166Y-47454819D01*
X138764166Y-47454819D02*
X138907023Y-47502438D01*
X138907023Y-47502438D02*
X138954642Y-47550057D01*
X139907023Y-48454819D02*
X139335595Y-48454819D01*
X139621309Y-48454819D02*
X139621309Y-47454819D01*
X139621309Y-47454819D02*
X139526071Y-47597676D01*
X139526071Y-47597676D02*
X139430833Y-47692914D01*
X139430833Y-47692914D02*
X139335595Y-47740533D01*
X140859404Y-48454819D02*
X140287976Y-48454819D01*
X140573690Y-48454819D02*
X140573690Y-47454819D01*
X140573690Y-47454819D02*
X140478452Y-47597676D01*
X140478452Y-47597676D02*
X140383214Y-47692914D01*
X140383214Y-47692914D02*
X140287976Y-47740533D01*
X164431009Y-89033333D02*
X164431009Y-89366666D01*
X164954819Y-89366666D02*
X163954819Y-89366666D01*
X163954819Y-89366666D02*
X163954819Y-88890476D01*
X163954819Y-88604761D02*
X163954819Y-87985714D01*
X163954819Y-87985714D02*
X164335771Y-88319047D01*
X164335771Y-88319047D02*
X164335771Y-88176190D01*
X164335771Y-88176190D02*
X164383390Y-88080952D01*
X164383390Y-88080952D02*
X164431009Y-88033333D01*
X164431009Y-88033333D02*
X164526247Y-87985714D01*
X164526247Y-87985714D02*
X164764342Y-87985714D01*
X164764342Y-87985714D02*
X164859580Y-88033333D01*
X164859580Y-88033333D02*
X164907200Y-88080952D01*
X164907200Y-88080952D02*
X164954819Y-88176190D01*
X164954819Y-88176190D02*
X164954819Y-88461904D01*
X164954819Y-88461904D02*
X164907200Y-88557142D01*
X164907200Y-88557142D02*
X164859580Y-88604761D01*
X141017200Y-62833332D02*
X141064819Y-62690475D01*
X141064819Y-62690475D02*
X141064819Y-62452380D01*
X141064819Y-62452380D02*
X141017200Y-62357142D01*
X141017200Y-62357142D02*
X140969580Y-62309523D01*
X140969580Y-62309523D02*
X140874342Y-62261904D01*
X140874342Y-62261904D02*
X140779104Y-62261904D01*
X140779104Y-62261904D02*
X140683866Y-62309523D01*
X140683866Y-62309523D02*
X140636247Y-62357142D01*
X140636247Y-62357142D02*
X140588628Y-62452380D01*
X140588628Y-62452380D02*
X140541009Y-62642856D01*
X140541009Y-62642856D02*
X140493390Y-62738094D01*
X140493390Y-62738094D02*
X140445771Y-62785713D01*
X140445771Y-62785713D02*
X140350533Y-62833332D01*
X140350533Y-62833332D02*
X140255295Y-62833332D01*
X140255295Y-62833332D02*
X140160057Y-62785713D01*
X140160057Y-62785713D02*
X140112438Y-62738094D01*
X140112438Y-62738094D02*
X140064819Y-62642856D01*
X140064819Y-62642856D02*
X140064819Y-62404761D01*
X140064819Y-62404761D02*
X140112438Y-62261904D01*
X140064819Y-61928570D02*
X141064819Y-61690475D01*
X141064819Y-61690475D02*
X140350533Y-61499999D01*
X140350533Y-61499999D02*
X141064819Y-61309523D01*
X141064819Y-61309523D02*
X140064819Y-61071428D01*
X141064819Y-60166666D02*
X141064819Y-60738094D01*
X141064819Y-60452380D02*
X140064819Y-60452380D01*
X140064819Y-60452380D02*
X140207676Y-60547618D01*
X140207676Y-60547618D02*
X140302914Y-60642856D01*
X140302914Y-60642856D02*
X140350533Y-60738094D01*
X155959580Y-65042857D02*
X156007200Y-65090476D01*
X156007200Y-65090476D02*
X156054819Y-65233333D01*
X156054819Y-65233333D02*
X156054819Y-65328571D01*
X156054819Y-65328571D02*
X156007200Y-65471428D01*
X156007200Y-65471428D02*
X155911961Y-65566666D01*
X155911961Y-65566666D02*
X155816723Y-65614285D01*
X155816723Y-65614285D02*
X155626247Y-65661904D01*
X155626247Y-65661904D02*
X155483390Y-65661904D01*
X155483390Y-65661904D02*
X155292914Y-65614285D01*
X155292914Y-65614285D02*
X155197676Y-65566666D01*
X155197676Y-65566666D02*
X155102438Y-65471428D01*
X155102438Y-65471428D02*
X155054819Y-65328571D01*
X155054819Y-65328571D02*
X155054819Y-65233333D01*
X155054819Y-65233333D02*
X155102438Y-65090476D01*
X155102438Y-65090476D02*
X155150057Y-65042857D01*
X156054819Y-64090476D02*
X156054819Y-64661904D01*
X156054819Y-64376190D02*
X155054819Y-64376190D01*
X155054819Y-64376190D02*
X155197676Y-64471428D01*
X155197676Y-64471428D02*
X155292914Y-64566666D01*
X155292914Y-64566666D02*
X155340533Y-64661904D01*
X155054819Y-63185714D02*
X155054819Y-63661904D01*
X155054819Y-63661904D02*
X155531009Y-63709523D01*
X155531009Y-63709523D02*
X155483390Y-63661904D01*
X155483390Y-63661904D02*
X155435771Y-63566666D01*
X155435771Y-63566666D02*
X155435771Y-63328571D01*
X155435771Y-63328571D02*
X155483390Y-63233333D01*
X155483390Y-63233333D02*
X155531009Y-63185714D01*
X155531009Y-63185714D02*
X155626247Y-63138095D01*
X155626247Y-63138095D02*
X155864342Y-63138095D01*
X155864342Y-63138095D02*
X155959580Y-63185714D01*
X155959580Y-63185714D02*
X156007200Y-63233333D01*
X156007200Y-63233333D02*
X156054819Y-63328571D01*
X156054819Y-63328571D02*
X156054819Y-63566666D01*
X156054819Y-63566666D02*
X156007200Y-63661904D01*
X156007200Y-63661904D02*
X155959580Y-63709523D01*
D14*
%TO.C,C13*%
X152315000Y-75448752D02*
X152315000Y-74926248D01*
X153785000Y-75448752D02*
X153785000Y-74926248D01*
%TO.C,R1*%
X142752936Y-49455000D02*
X143207064Y-49455000D01*
X142752936Y-50925000D02*
X143207064Y-50925000D01*
%TO.C,U5-O1*%
X173180000Y-62440000D02*
X173180000Y-65040000D01*
X173530000Y-62440000D02*
X173180000Y-62440000D01*
X175850000Y-62440000D02*
X176190000Y-62440000D01*
X176190000Y-62440000D02*
X176190000Y-67530000D01*
X176190000Y-62940000D02*
G75*
G02*
X176191736Y-67139917I-100000J-2100000D01*
G01*
%TO.C,C9*%
X147925000Y-71338748D02*
X147925000Y-71861252D01*
X149395000Y-71338748D02*
X149395000Y-71861252D01*
%TO.C,C6*%
X161915000Y-69448752D02*
X161915000Y-68926248D01*
X163385000Y-69448752D02*
X163385000Y-68926248D01*
%TO.C,R11-O1*%
X170027064Y-66165000D02*
X169572936Y-66165000D01*
X170027064Y-67635000D02*
X169572936Y-67635000D01*
%TO.C,TP2*%
X177500000Y-83900000D02*
G75*
G02*
X175100000Y-83900000I-1200000J0D01*
G01*
X175100000Y-83900000D02*
G75*
G02*
X177500000Y-83900000I1200000J0D01*
G01*
D15*
%TO.C,U1*%
X146950000Y-41800000D02*
X146950000Y-48130000D01*
X146950000Y-61800000D02*
X146950000Y-61670000D01*
X146950000Y-61800000D02*
X164950000Y-61800000D01*
X164950000Y-41800000D02*
X146950000Y-41800000D01*
X164950000Y-48130000D02*
X164950000Y-41800000D01*
X164950000Y-61800000D02*
X164950000Y-61670000D01*
D14*
%TO.C,R11*%
X161122936Y-80615000D02*
X161577064Y-80615000D01*
X161122936Y-82085000D02*
X161577064Y-82085000D01*
D10*
%TO.C,G\u002A\u002A\u002A*%
G36*
X168302378Y-43719543D02*
G01*
X168302378Y-44460873D01*
X168208536Y-44460873D01*
X168114698Y-44460873D01*
X168114698Y-43719543D01*
X168114698Y-42978217D01*
X168208536Y-42978217D01*
X168302378Y-42978217D01*
X168302378Y-43719543D01*
G37*
G36*
X165927069Y-42979372D02*
G01*
X166460778Y-42980565D01*
X166462025Y-43113112D01*
X166463272Y-43245658D01*
X166242676Y-43245658D01*
X166022081Y-43245658D01*
X166022081Y-43853264D01*
X166022081Y-44460873D01*
X165925895Y-44460873D01*
X165829710Y-44460873D01*
X165829710Y-43853264D01*
X165829710Y-43245658D01*
X165611531Y-43245658D01*
X165393356Y-43245658D01*
X165393356Y-43111920D01*
X165393356Y-42978177D01*
X165927069Y-42979372D01*
G37*
G36*
X174979042Y-43111920D02*
G01*
X174979042Y-43245658D01*
X174760864Y-43245658D01*
X174542688Y-43245658D01*
X174542688Y-43853264D01*
X174542688Y-44460873D01*
X174446504Y-44460873D01*
X174350319Y-44460873D01*
X174350319Y-43853311D01*
X174350319Y-43245752D01*
X174130967Y-43244533D01*
X173911620Y-43243314D01*
X173911620Y-43111939D01*
X173911620Y-42980565D01*
X174445331Y-42979372D01*
X174979042Y-42978177D01*
X174979042Y-43111920D01*
G37*
G36*
X178327958Y-42979833D02*
G01*
X178353956Y-42981198D01*
X178384219Y-42982249D01*
X178413631Y-42982827D01*
X178424120Y-42982885D01*
X178474559Y-42982910D01*
X178474347Y-43723063D01*
X178474138Y-44463219D01*
X178454408Y-44441552D01*
X178448797Y-44435498D01*
X178437161Y-44423034D01*
X178419893Y-44404584D01*
X178397404Y-44380581D01*
X178370088Y-44351441D01*
X178338347Y-44317601D01*
X178302581Y-44279481D01*
X178263186Y-44237511D01*
X178220570Y-44192117D01*
X178175129Y-44143723D01*
X178127263Y-44092760D01*
X178077374Y-44039650D01*
X178025862Y-43984822D01*
X178014747Y-43972993D01*
X177594815Y-43526110D01*
X177593619Y-43993489D01*
X177592424Y-44460873D01*
X177498607Y-44460873D01*
X177404790Y-44460873D01*
X177405029Y-43725407D01*
X177405267Y-42989949D01*
X177459033Y-43046252D01*
X177469265Y-43057022D01*
X177485446Y-43074134D01*
X177507108Y-43097091D01*
X177533783Y-43125390D01*
X177564997Y-43158531D01*
X177600285Y-43196017D01*
X177639169Y-43237343D01*
X177681186Y-43282018D01*
X177725862Y-43329532D01*
X177772726Y-43379395D01*
X177821311Y-43431098D01*
X177871141Y-43484148D01*
X177896320Y-43510960D01*
X178279841Y-43919358D01*
X178281036Y-43448085D01*
X178282233Y-42976806D01*
X178327958Y-42979833D01*
G37*
G36*
X171001283Y-42979292D02*
G01*
X171096445Y-42980565D01*
X171098789Y-43517795D01*
X171099161Y-43600842D01*
X171099518Y-43675018D01*
X171099871Y-43740851D01*
X171100223Y-43798850D01*
X171100589Y-43849534D01*
X171100978Y-43893423D01*
X171101398Y-43931028D01*
X171101859Y-43962870D01*
X171102371Y-43989467D01*
X171102941Y-44011332D01*
X171103580Y-44028989D01*
X171104300Y-44042948D01*
X171105108Y-44053730D01*
X171106009Y-44061851D01*
X171107019Y-44067832D01*
X171108147Y-44072183D01*
X171108886Y-44074241D01*
X171126652Y-44112279D01*
X171146323Y-44142208D01*
X171168858Y-44165251D01*
X171192805Y-44181344D01*
X171217462Y-44194764D01*
X171502985Y-44197119D01*
X171788510Y-44199473D01*
X171788510Y-44330173D01*
X171788510Y-44460873D01*
X171496434Y-44460453D01*
X171432694Y-44460316D01*
X171377735Y-44460093D01*
X171330966Y-44459774D01*
X171291784Y-44459341D01*
X171259592Y-44458786D01*
X171233791Y-44458095D01*
X171213785Y-44457258D01*
X171198971Y-44456258D01*
X171188756Y-44455087D01*
X171183245Y-44453946D01*
X171133604Y-44434833D01*
X171088037Y-44407397D01*
X171046708Y-44371848D01*
X171009788Y-44328398D01*
X170977444Y-44277258D01*
X170949843Y-44218639D01*
X170927157Y-44152752D01*
X170919158Y-44123051D01*
X170917652Y-44116861D01*
X170916306Y-44110669D01*
X170915109Y-44103941D01*
X170914048Y-44096139D01*
X170913116Y-44086730D01*
X170912296Y-44075178D01*
X170911584Y-44060944D01*
X170910969Y-44043494D01*
X170910439Y-44022292D01*
X170909984Y-43996802D01*
X170909594Y-43966487D01*
X170909257Y-43930813D01*
X170908965Y-43889244D01*
X170908706Y-43841240D01*
X170908471Y-43786269D01*
X170908248Y-43723795D01*
X170908025Y-43653280D01*
X170907798Y-43574196D01*
X170907675Y-43530599D01*
X170906127Y-42978022D01*
X171001283Y-42979292D01*
G37*
G36*
X169382273Y-42979863D02*
G01*
X169406695Y-42981216D01*
X169435704Y-42982262D01*
X169464496Y-42982842D01*
X169476090Y-42982910D01*
X169526982Y-42982910D01*
X169526746Y-43720716D01*
X169526511Y-44458528D01*
X169470513Y-44399877D01*
X169459962Y-44388770D01*
X169443465Y-44371326D01*
X169421496Y-44348049D01*
X169394531Y-44319445D01*
X169363047Y-44286022D01*
X169327518Y-44248282D01*
X169288421Y-44206732D01*
X169246231Y-44161877D01*
X169201422Y-44114220D01*
X169154471Y-44064274D01*
X169105854Y-44012534D01*
X169056045Y-43959511D01*
X169033223Y-43935207D01*
X168651928Y-43529195D01*
X168650734Y-43995030D01*
X168649538Y-44460873D01*
X168553374Y-44460873D01*
X168457213Y-44460873D01*
X168457213Y-43723192D01*
X168457214Y-43625905D01*
X168457224Y-43537568D01*
X168457247Y-43457766D01*
X168457289Y-43386068D01*
X168457353Y-43322050D01*
X168457447Y-43265286D01*
X168457571Y-43215347D01*
X168457736Y-43171813D01*
X168457947Y-43134254D01*
X168458206Y-43102241D01*
X168458516Y-43075355D01*
X168458888Y-43053165D01*
X168459322Y-43035245D01*
X168459828Y-43021171D01*
X168460403Y-43010519D01*
X168461062Y-43002854D01*
X168461806Y-42997761D01*
X168462639Y-42994805D01*
X168463567Y-42993567D01*
X168464594Y-42993615D01*
X168465728Y-42994527D01*
X168465962Y-42994770D01*
X168473347Y-43002605D01*
X168486670Y-43016768D01*
X168505454Y-43036745D01*
X168529208Y-43062023D01*
X168557456Y-43092087D01*
X168589710Y-43126424D01*
X168625491Y-43164519D01*
X168664317Y-43205861D01*
X168705705Y-43249933D01*
X168749170Y-43296220D01*
X168794230Y-43344212D01*
X168840403Y-43393391D01*
X168887211Y-43443248D01*
X168934161Y-43493264D01*
X168980780Y-43542927D01*
X169026578Y-43591723D01*
X169060128Y-43627472D01*
X169336956Y-43922441D01*
X169338151Y-43449631D01*
X169339346Y-42976816D01*
X169382273Y-42979863D01*
G37*
G36*
X178798917Y-42012004D02*
G01*
X178799392Y-42012253D01*
X178800554Y-42013218D01*
X178801602Y-42015113D01*
X178802544Y-42018400D01*
X178803384Y-42023539D01*
X178804126Y-42030988D01*
X178804779Y-42041213D01*
X178805346Y-42054673D01*
X178805836Y-42071827D01*
X178806251Y-42093138D01*
X178806599Y-42119064D01*
X178806888Y-42150069D01*
X178807121Y-42186613D01*
X178807304Y-42229156D01*
X178807444Y-42278158D01*
X178807544Y-42334082D01*
X178807615Y-42397389D01*
X178807657Y-42468538D01*
X178807679Y-42547989D01*
X178807688Y-42636204D01*
X178807688Y-42668713D01*
X178807688Y-43320732D01*
X178785403Y-43320548D01*
X178768506Y-43319064D01*
X178753032Y-43315568D01*
X178749040Y-43314062D01*
X178740293Y-43309689D01*
X178732369Y-43304351D01*
X178724815Y-43297218D01*
X178717174Y-43287464D01*
X178708988Y-43274259D01*
X178699804Y-43256772D01*
X178689166Y-43234179D01*
X178676618Y-43205647D01*
X178661703Y-43170352D01*
X178643970Y-43127457D01*
X178636634Y-43109573D01*
X178617215Y-43062197D01*
X178600997Y-43022745D01*
X178587632Y-42990450D01*
X178576767Y-42964554D01*
X178568055Y-42944290D01*
X178561148Y-42928894D01*
X178555692Y-42917604D01*
X178551340Y-42909657D01*
X178547743Y-42904288D01*
X178544552Y-42900736D01*
X178541416Y-42898236D01*
X178539239Y-42896811D01*
X178532595Y-42893810D01*
X178518093Y-42888066D01*
X178496729Y-42879946D01*
X178469497Y-42869820D01*
X178437394Y-42858056D01*
X178401414Y-42845021D01*
X178362553Y-42831087D01*
X178345570Y-42825042D01*
X178300236Y-42808904D01*
X178262877Y-42795501D01*
X178232608Y-42784464D01*
X178208547Y-42775426D01*
X178189808Y-42768022D01*
X178175515Y-42761882D01*
X178164777Y-42756639D01*
X178156715Y-42751928D01*
X178150445Y-42747378D01*
X178145088Y-42742624D01*
X178143297Y-42740878D01*
X178125803Y-42717459D01*
X178116674Y-42691194D01*
X178116013Y-42663692D01*
X178123930Y-42636570D01*
X178135066Y-42618105D01*
X178139231Y-42612776D01*
X178143576Y-42608081D01*
X178149038Y-42603555D01*
X178156557Y-42598738D01*
X178167066Y-42593163D01*
X178181502Y-42586371D01*
X178200807Y-42577901D01*
X178225915Y-42567289D01*
X178257763Y-42554070D01*
X178297288Y-42537783D01*
X178300433Y-42536488D01*
X178335868Y-42521903D01*
X178371481Y-42507241D01*
X178405470Y-42493242D01*
X178436049Y-42480645D01*
X178461412Y-42470191D01*
X178478729Y-42463046D01*
X178500315Y-42453591D01*
X178518723Y-42444502D01*
X178532061Y-42436776D01*
X178538348Y-42431564D01*
X178541688Y-42424540D01*
X178547797Y-42409397D01*
X178556716Y-42386030D01*
X178568479Y-42354338D01*
X178583122Y-42314211D01*
X178600690Y-42265548D01*
X178621222Y-42208243D01*
X178644750Y-42142191D01*
X178650392Y-42126306D01*
X178660951Y-42097070D01*
X178669421Y-42075175D01*
X178676621Y-42059040D01*
X178683372Y-42047080D01*
X178690482Y-42037716D01*
X178698775Y-42029365D01*
X178701817Y-42026642D01*
X178724220Y-42012340D01*
X178749612Y-42004877D01*
X178775382Y-42004635D01*
X178798917Y-42012004D01*
G37*
G36*
X169869494Y-43356199D02*
G01*
X169869550Y-43431480D01*
X169869718Y-43498746D01*
X169869995Y-43557825D01*
X169870376Y-43608554D01*
X169870865Y-43650762D01*
X169871456Y-43684298D01*
X169872148Y-43708989D01*
X169872939Y-43724669D01*
X169873825Y-43731176D01*
X169874075Y-43731342D01*
X169877768Y-43727197D01*
X169886925Y-43716096D01*
X169901214Y-43698458D01*
X169920302Y-43674702D01*
X169943854Y-43645250D01*
X169971536Y-43610527D01*
X170003016Y-43570942D01*
X170037960Y-43526921D01*
X170076034Y-43478886D01*
X170116905Y-43427253D01*
X170160240Y-43372444D01*
X170205701Y-43314882D01*
X170252958Y-43254987D01*
X170301679Y-43193176D01*
X170351529Y-43129872D01*
X170359181Y-43120151D01*
X170470873Y-42978217D01*
X170611229Y-42978217D01*
X170646437Y-42978269D01*
X170678411Y-42978413D01*
X170706002Y-42978638D01*
X170728065Y-42978929D01*
X170743447Y-42979277D01*
X170751002Y-42979664D01*
X170751584Y-42979811D01*
X170748753Y-42983655D01*
X170740547Y-42994316D01*
X170727403Y-43011237D01*
X170709755Y-43033861D01*
X170688038Y-43061635D01*
X170662685Y-43094001D01*
X170634134Y-43130405D01*
X170602818Y-43170293D01*
X170569171Y-43213109D01*
X170533630Y-43258296D01*
X170519333Y-43276466D01*
X170483144Y-43322501D01*
X170448686Y-43366451D01*
X170416399Y-43407753D01*
X170386708Y-43445847D01*
X170360058Y-43480170D01*
X170336883Y-43510156D01*
X170317613Y-43535248D01*
X170302690Y-43554876D01*
X170292544Y-43568483D01*
X170287615Y-43575506D01*
X170287199Y-43576332D01*
X170289348Y-43581062D01*
X170295569Y-43593551D01*
X170305581Y-43613251D01*
X170319097Y-43639616D01*
X170335831Y-43672087D01*
X170355504Y-43710126D01*
X170377826Y-43753184D01*
X170402514Y-43800704D01*
X170429289Y-43852141D01*
X170457857Y-43906944D01*
X170487942Y-43964562D01*
X170516836Y-44019829D01*
X170746352Y-44458528D01*
X170632930Y-44459787D01*
X170601091Y-44460062D01*
X170572303Y-44460169D01*
X170547916Y-44460108D01*
X170529285Y-44459890D01*
X170517757Y-44459522D01*
X170514660Y-44459184D01*
X170511798Y-44454835D01*
X170504932Y-44442773D01*
X170494388Y-44423609D01*
X170480494Y-44397959D01*
X170463575Y-44366431D01*
X170443959Y-44329637D01*
X170421975Y-44288193D01*
X170397945Y-44242706D01*
X170372197Y-44193792D01*
X170345060Y-44142060D01*
X170326891Y-44107337D01*
X170299078Y-44054173D01*
X170272496Y-44003465D01*
X170247471Y-43955825D01*
X170224317Y-43911854D01*
X170203363Y-43872164D01*
X170184922Y-43837361D01*
X170169327Y-43808050D01*
X170156890Y-43784843D01*
X170147936Y-43768344D01*
X170142784Y-43759162D01*
X170141629Y-43757404D01*
X170138325Y-43760973D01*
X170129791Y-43771180D01*
X170116608Y-43787298D01*
X170099364Y-43808602D01*
X170078643Y-43834363D01*
X170055032Y-43863859D01*
X170029116Y-43896362D01*
X170004495Y-43927350D01*
X169869704Y-44097246D01*
X169869599Y-44279060D01*
X169869494Y-44460873D01*
X169775655Y-44460873D01*
X169681816Y-44460873D01*
X169681816Y-43719543D01*
X169681816Y-42978217D01*
X169775655Y-42978217D01*
X169869494Y-42978217D01*
X169869494Y-43356199D01*
G37*
G36*
X173013108Y-43111692D02*
G01*
X173013108Y-43245508D01*
X172607684Y-43246757D01*
X172202264Y-43248006D01*
X172184237Y-43262449D01*
X172167510Y-43278564D01*
X172154359Y-43297817D01*
X172144475Y-43321315D01*
X172137540Y-43350172D01*
X172133242Y-43385494D01*
X172131268Y-43428397D01*
X172131052Y-43450934D01*
X172131018Y-43517795D01*
X172475876Y-43517795D01*
X172820737Y-43517795D01*
X172820737Y-43649133D01*
X172820737Y-43780476D01*
X172477048Y-43781680D01*
X172133363Y-43782885D01*
X172133578Y-43940065D01*
X172133660Y-43982776D01*
X172133816Y-44017207D01*
X172134112Y-44044457D01*
X172134613Y-44065635D01*
X172135386Y-44081840D01*
X172136491Y-44094175D01*
X172137994Y-44103743D01*
X172139959Y-44111648D01*
X172142450Y-44118989D01*
X172144339Y-44123869D01*
X172157069Y-44148319D01*
X172173838Y-44169491D01*
X172192696Y-44185310D01*
X172209307Y-44193102D01*
X172217984Y-44194150D01*
X172236015Y-44195077D01*
X172263405Y-44195879D01*
X172300158Y-44196556D01*
X172346275Y-44197112D01*
X172401762Y-44197544D01*
X172466619Y-44197852D01*
X172540857Y-44198035D01*
X172620156Y-44198098D01*
X173013108Y-44198125D01*
X173013108Y-44329498D01*
X173013108Y-44460873D01*
X172606079Y-44460565D01*
X172532885Y-44460489D01*
X172468492Y-44460371D01*
X172412318Y-44460203D01*
X172363775Y-44459974D01*
X172322289Y-44459673D01*
X172287272Y-44459293D01*
X172258141Y-44458826D01*
X172234312Y-44458260D01*
X172215205Y-44457583D01*
X172200238Y-44456790D01*
X172188822Y-44455868D01*
X172180383Y-44454810D01*
X172174331Y-44453605D01*
X172173736Y-44453448D01*
X172142554Y-44442490D01*
X172113477Y-44426438D01*
X172084327Y-44403943D01*
X172064894Y-44385802D01*
X172032032Y-44348679D01*
X172004537Y-44307085D01*
X171981722Y-44259723D01*
X171962899Y-44205299D01*
X171956243Y-44180904D01*
X171954411Y-44173618D01*
X171952804Y-44166636D01*
X171951408Y-44159322D01*
X171950206Y-44151042D01*
X171949186Y-44141158D01*
X171948334Y-44129037D01*
X171947631Y-44114043D01*
X171947065Y-44095538D01*
X171946623Y-44072890D01*
X171946284Y-44045461D01*
X171946039Y-44012617D01*
X171945874Y-43973722D01*
X171945769Y-43928140D01*
X171945710Y-43875234D01*
X171945690Y-43814371D01*
X171945684Y-43744917D01*
X171945684Y-43726580D01*
X171945687Y-43652604D01*
X171945715Y-43587365D01*
X171945801Y-43530198D01*
X171945978Y-43480453D01*
X171946271Y-43437480D01*
X171946719Y-43400623D01*
X171947350Y-43369231D01*
X171948194Y-43342649D01*
X171949285Y-43320227D01*
X171950655Y-43301304D01*
X171952331Y-43285236D01*
X171954349Y-43271364D01*
X171956738Y-43259037D01*
X171959533Y-43247599D01*
X171962758Y-43236400D01*
X171966454Y-43224783D01*
X171970408Y-43212818D01*
X171991814Y-43159713D01*
X172018794Y-43111928D01*
X172050671Y-43070220D01*
X172086772Y-43035356D01*
X172126417Y-43008093D01*
X172168554Y-42989322D01*
X172173535Y-42987819D01*
X172179268Y-42986496D01*
X172186370Y-42985337D01*
X172195458Y-42984332D01*
X172207148Y-42983470D01*
X172222053Y-42982729D01*
X172240792Y-42982096D01*
X172263976Y-42981561D01*
X172292227Y-42981109D01*
X172326157Y-42980723D01*
X172366380Y-42980391D01*
X172413517Y-42980098D01*
X172468179Y-42979830D01*
X172530986Y-42979572D01*
X172602550Y-42979310D01*
X172603732Y-42979308D01*
X173013108Y-42977876D01*
X173013108Y-43111692D01*
G37*
G36*
X175477564Y-42982991D02*
G01*
X175546354Y-42983017D01*
X175606449Y-42983093D01*
X175658529Y-42983263D01*
X175703287Y-42983570D01*
X175741407Y-42984069D01*
X175773577Y-42984795D01*
X175800482Y-42985795D01*
X175822810Y-42987121D01*
X175841245Y-42988813D01*
X175856476Y-42990919D01*
X175869189Y-42993484D01*
X175880071Y-42996552D01*
X175889807Y-43000170D01*
X175899085Y-43004384D01*
X175908591Y-43009239D01*
X175913645Y-43011920D01*
X175953282Y-43038182D01*
X175989454Y-43072518D01*
X176021496Y-43114041D01*
X176048746Y-43161870D01*
X176070539Y-43215124D01*
X176073655Y-43224656D01*
X176086841Y-43278728D01*
X176094104Y-43336831D01*
X176095519Y-43396735D01*
X176091162Y-43456213D01*
X176081113Y-43513039D01*
X176065451Y-43564983D01*
X176061345Y-43575334D01*
X176039159Y-43621030D01*
X176012722Y-43662583D01*
X175982963Y-43699069D01*
X175950816Y-43729544D01*
X175917209Y-43753073D01*
X175883070Y-43768726D01*
X175864111Y-43773692D01*
X175853015Y-43777078D01*
X175848372Y-43781300D01*
X175848473Y-43782286D01*
X175850442Y-43787703D01*
X175855260Y-43801003D01*
X175862572Y-43821235D01*
X175872048Y-43847453D01*
X175883342Y-43878709D01*
X175896108Y-43914059D01*
X175910007Y-43952556D01*
X175917357Y-43972909D01*
X175934616Y-44020642D01*
X175953444Y-44072544D01*
X175973018Y-44126384D01*
X175992524Y-44179918D01*
X176011151Y-44230911D01*
X176028079Y-44277124D01*
X176039995Y-44309539D01*
X176053094Y-44345168D01*
X176065100Y-44377949D01*
X176075637Y-44406859D01*
X176084334Y-44430868D01*
X176090820Y-44448950D01*
X176094721Y-44460082D01*
X176095732Y-44463288D01*
X176091259Y-44463935D01*
X176078721Y-44464412D01*
X176059437Y-44464698D01*
X176034721Y-44464784D01*
X176005896Y-44464649D01*
X175989109Y-44464481D01*
X175882488Y-44463219D01*
X175778933Y-44183516D01*
X175759588Y-44131538D01*
X175741047Y-44082220D01*
X175723605Y-44036341D01*
X175707567Y-43994669D01*
X175693236Y-43957987D01*
X175680915Y-43927059D01*
X175670902Y-43902668D01*
X175663506Y-43885584D01*
X175659165Y-43876817D01*
X175640250Y-43850794D01*
X175616805Y-43826897D01*
X175591378Y-43807379D01*
X175566747Y-43794591D01*
X175557712Y-43791531D01*
X175548179Y-43789214D01*
X175536722Y-43787536D01*
X175521916Y-43786401D01*
X175502336Y-43785706D01*
X175476559Y-43785348D01*
X175443162Y-43785234D01*
X175433987Y-43785230D01*
X175326248Y-43785230D01*
X175326248Y-44125397D01*
X175326248Y-44465567D01*
X175230064Y-44465567D01*
X175133877Y-44465567D01*
X175133877Y-43724233D01*
X175133877Y-43523578D01*
X175326248Y-43523578D01*
X175576607Y-43521770D01*
X175826965Y-43519963D01*
X175849912Y-43505793D01*
X175863974Y-43495719D01*
X175874897Y-43483834D01*
X175885251Y-43467118D01*
X175889285Y-43459436D01*
X175897251Y-43443063D01*
X175902119Y-43429956D01*
X175904634Y-43416680D01*
X175905543Y-43399792D01*
X175905632Y-43384544D01*
X175905174Y-43362099D01*
X175903461Y-43345565D01*
X175899854Y-43331494D01*
X175893715Y-43316433D01*
X175892511Y-43313822D01*
X175881976Y-43292936D01*
X175872224Y-43278560D01*
X175861193Y-43268265D01*
X175846811Y-43259617D01*
X175846070Y-43259237D01*
X175841832Y-43257288D01*
X175836868Y-43255645D01*
X175830380Y-43254283D01*
X175821581Y-43253180D01*
X175809675Y-43252300D01*
X175793871Y-43251625D01*
X175773375Y-43251125D01*
X175747397Y-43250775D01*
X175715143Y-43250551D01*
X175675819Y-43250421D01*
X175628638Y-43250364D01*
X175577454Y-43250351D01*
X175326248Y-43250351D01*
X175326248Y-43386964D01*
X175326248Y-43523578D01*
X175133877Y-43523578D01*
X175133877Y-43386964D01*
X175133877Y-42982910D01*
X175477564Y-42982991D01*
G37*
G36*
X173831784Y-43957918D02*
G01*
X173858049Y-43968468D01*
X173878677Y-43984360D01*
X173887703Y-43994346D01*
X173894847Y-44005069D01*
X173901217Y-44018807D01*
X173907936Y-44037834D01*
X173913290Y-44055019D01*
X173919929Y-44076840D01*
X173925916Y-44096357D01*
X173930529Y-44111216D01*
X173932804Y-44118359D01*
X173935057Y-44125617D01*
X173939625Y-44140699D01*
X173946152Y-44162424D01*
X173954291Y-44189616D01*
X173963686Y-44221103D01*
X173973988Y-44255706D01*
X173979882Y-44275542D01*
X173994136Y-44322868D01*
X174006172Y-44361352D01*
X174016076Y-44391243D01*
X174023931Y-44412797D01*
X174029826Y-44426265D01*
X174033035Y-44431237D01*
X174039245Y-44435338D01*
X174053037Y-44442979D01*
X174073512Y-44453709D01*
X174099761Y-44467067D01*
X174130878Y-44482600D01*
X174165964Y-44499848D01*
X174204113Y-44518357D01*
X174234889Y-44533125D01*
X174274814Y-44552301D01*
X174312410Y-44570570D01*
X174346766Y-44587474D01*
X174376974Y-44602556D01*
X174402119Y-44615357D01*
X174421296Y-44625419D01*
X174433588Y-44632284D01*
X174437777Y-44635092D01*
X174455107Y-44657285D01*
X174464838Y-44682816D01*
X174467257Y-44709930D01*
X174462645Y-44736871D01*
X174451289Y-44761892D01*
X174433471Y-44783233D01*
X174411314Y-44798262D01*
X174403418Y-44801282D01*
X174387535Y-44806624D01*
X174364678Y-44813971D01*
X174335864Y-44823001D01*
X174302109Y-44833404D01*
X174264432Y-44844860D01*
X174223847Y-44857052D01*
X174198176Y-44864694D01*
X174148928Y-44879365D01*
X174107956Y-44891736D01*
X174074514Y-44902060D01*
X174047850Y-44910586D01*
X174027208Y-44917570D01*
X174011843Y-44923264D01*
X174001004Y-44927923D01*
X173993935Y-44931797D01*
X173990240Y-44934763D01*
X173985913Y-44941385D01*
X173978084Y-44955576D01*
X173967216Y-44976412D01*
X173953776Y-45002960D01*
X173938233Y-45034289D01*
X173921053Y-45069469D01*
X173902705Y-45107573D01*
X173890133Y-45133971D01*
X173871208Y-45173586D01*
X173853077Y-45210964D01*
X173836219Y-45245163D01*
X173821108Y-45275238D01*
X173808223Y-45300247D01*
X173798038Y-45319253D01*
X173791033Y-45331309D01*
X173788402Y-45334981D01*
X173765033Y-45353699D01*
X173738150Y-45363915D01*
X173713571Y-45366236D01*
X173694998Y-45364760D01*
X173678610Y-45361158D01*
X173672329Y-45358640D01*
X173653646Y-45346188D01*
X173636859Y-45330446D01*
X173625520Y-45314812D01*
X173622937Y-45307956D01*
X173617995Y-45293078D01*
X173611007Y-45271152D01*
X173602270Y-45243164D01*
X173592088Y-45210081D01*
X173580769Y-45172884D01*
X173568608Y-45132552D01*
X173559963Y-45103644D01*
X173547372Y-45061777D01*
X173535333Y-45022427D01*
X173524160Y-44986570D01*
X173514163Y-44955172D01*
X173505654Y-44929204D01*
X173498944Y-44909635D01*
X173494346Y-44897437D01*
X173492571Y-44893829D01*
X173486490Y-44889406D01*
X173472568Y-44881424D01*
X173451493Y-44870236D01*
X173423961Y-44856192D01*
X173390657Y-44839645D01*
X173352271Y-44820942D01*
X173309495Y-44800437D01*
X173296970Y-44794489D01*
X173257117Y-44775450D01*
X173219324Y-44757117D01*
X173184564Y-44739977D01*
X173153805Y-44724525D01*
X173128022Y-44711251D01*
X173108184Y-44700646D01*
X173095264Y-44693203D01*
X173091092Y-44690339D01*
X173071771Y-44668733D01*
X173059969Y-44643646D01*
X173055551Y-44616803D01*
X173058388Y-44589936D01*
X173068346Y-44564773D01*
X173085293Y-44543041D01*
X173103321Y-44529561D01*
X173111981Y-44525802D01*
X173128620Y-44519752D01*
X173152204Y-44511748D01*
X173181700Y-44502118D01*
X173216081Y-44491202D01*
X173254308Y-44479329D01*
X173295355Y-44466835D01*
X173322778Y-44458620D01*
X173375272Y-44442894D01*
X173419238Y-44429486D01*
X173455197Y-44418223D01*
X173483664Y-44408935D01*
X173505162Y-44401451D01*
X173520209Y-44395592D01*
X173529325Y-44391192D01*
X173532323Y-44389019D01*
X173536425Y-44382702D01*
X173544031Y-44368809D01*
X173554680Y-44348267D01*
X173567907Y-44322001D01*
X173583246Y-44290941D01*
X173600239Y-44256011D01*
X173618416Y-44218141D01*
X173630155Y-44193431D01*
X173648964Y-44153927D01*
X173666970Y-44116562D01*
X173683697Y-44082299D01*
X173698665Y-44052105D01*
X173711390Y-44026944D01*
X173721394Y-44007780D01*
X173728195Y-43995576D01*
X173730530Y-43992008D01*
X173751634Y-43972230D01*
X173776757Y-43959893D01*
X173804080Y-43955090D01*
X173831784Y-43957918D01*
G37*
G36*
X165492722Y-44240154D02*
G01*
X165497648Y-44241113D01*
X165505729Y-44242905D01*
X165512802Y-44244778D01*
X165519307Y-44247357D01*
X165525680Y-44251275D01*
X165532355Y-44257155D01*
X165539766Y-44265627D01*
X165548349Y-44277317D01*
X165558544Y-44292853D01*
X165570781Y-44312864D01*
X165585500Y-44337978D01*
X165603133Y-44368822D01*
X165624119Y-44406023D01*
X165648887Y-44450207D01*
X165674553Y-44496064D01*
X165690018Y-44523431D01*
X165704383Y-44548365D01*
X165716888Y-44569586D01*
X165726767Y-44585803D01*
X165733258Y-44595733D01*
X165734997Y-44597939D01*
X165742027Y-44601421D01*
X165757953Y-44606598D01*
X165782840Y-44613482D01*
X165816747Y-44622093D01*
X165859740Y-44632445D01*
X165911874Y-44644554D01*
X165918858Y-44646152D01*
X165958896Y-44655392D01*
X165996700Y-44664299D01*
X166031132Y-44672595D01*
X166061066Y-44679999D01*
X166085369Y-44686230D01*
X166102909Y-44691007D01*
X166112557Y-44694054D01*
X166113124Y-44694286D01*
X166134077Y-44708182D01*
X166149642Y-44728148D01*
X166158950Y-44752025D01*
X166161127Y-44777659D01*
X166156132Y-44800830D01*
X166151015Y-44812526D01*
X166144627Y-44822758D01*
X166135790Y-44832482D01*
X166123338Y-44842643D01*
X166106103Y-44854196D01*
X166082904Y-44868082D01*
X166052583Y-44885258D01*
X166050995Y-44886144D01*
X165997646Y-44915937D01*
X165951982Y-44941520D01*
X165913467Y-44963207D01*
X165881560Y-44981308D01*
X165855729Y-44996134D01*
X165835435Y-45007995D01*
X165820137Y-45017206D01*
X165809300Y-45024075D01*
X165802388Y-45028916D01*
X165798860Y-45032037D01*
X165798616Y-45032342D01*
X165793206Y-45042820D01*
X165789589Y-45054407D01*
X165786843Y-45066848D01*
X165782445Y-45086366D01*
X165776705Y-45111637D01*
X165769924Y-45141343D01*
X165762408Y-45174155D01*
X165754461Y-45208758D01*
X165746387Y-45243822D01*
X165738493Y-45278025D01*
X165731080Y-45310047D01*
X165724458Y-45338566D01*
X165718926Y-45362256D01*
X165714792Y-45379795D01*
X165712358Y-45389863D01*
X165712037Y-45391116D01*
X165703309Y-45410439D01*
X165688924Y-45429190D01*
X165671792Y-45443985D01*
X165662197Y-45449232D01*
X165641187Y-45454362D01*
X165617511Y-45454699D01*
X165596091Y-45450265D01*
X165592766Y-45448920D01*
X165581129Y-45442304D01*
X165569916Y-45432496D01*
X165558132Y-45418249D01*
X165544787Y-45398317D01*
X165528889Y-45371450D01*
X165523405Y-45361733D01*
X165510995Y-45339536D01*
X165495455Y-45311719D01*
X165478222Y-45280850D01*
X165460733Y-45249511D01*
X165447436Y-45225664D01*
X165427204Y-45189443D01*
X165410947Y-45160561D01*
X165398114Y-45138140D01*
X165388146Y-45121301D01*
X165380496Y-45109163D01*
X165374610Y-45100851D01*
X165369933Y-45095481D01*
X165365912Y-45092177D01*
X165362196Y-45090148D01*
X165355266Y-45088000D01*
X165340264Y-45084040D01*
X165318270Y-45078527D01*
X165290358Y-45071727D01*
X165257612Y-45063901D01*
X165221108Y-45055314D01*
X165181924Y-45046226D01*
X165177427Y-45045189D01*
X165137881Y-45035995D01*
X165100787Y-45027181D01*
X165067248Y-45019024D01*
X165038356Y-45011801D01*
X165015219Y-45005785D01*
X164998928Y-45001249D01*
X164990584Y-44998473D01*
X164990231Y-44998302D01*
X164978167Y-44989945D01*
X164966074Y-44978495D01*
X164964601Y-44976798D01*
X164958581Y-44968802D01*
X164954923Y-44960644D01*
X164953045Y-44949724D01*
X164952375Y-44933442D01*
X164952312Y-44921323D01*
X164952545Y-44901132D01*
X164953645Y-44887720D01*
X164956212Y-44878491D01*
X164960849Y-44870846D01*
X164965213Y-44865547D01*
X164974491Y-44857295D01*
X164989857Y-44846233D01*
X165009072Y-44833886D01*
X165027382Y-44823176D01*
X165082743Y-44792296D01*
X165130441Y-44765642D01*
X165171018Y-44742899D01*
X165205028Y-44723757D01*
X165233014Y-44707902D01*
X165255526Y-44695018D01*
X165273108Y-44684793D01*
X165286311Y-44676912D01*
X165295680Y-44671063D01*
X165301760Y-44666932D01*
X165305104Y-44664204D01*
X165305484Y-44663811D01*
X165308749Y-44656854D01*
X165313550Y-44642188D01*
X165319473Y-44621279D01*
X165326108Y-44595594D01*
X165333044Y-44566608D01*
X165334689Y-44559405D01*
X165347346Y-44503575D01*
X165358162Y-44456152D01*
X165367323Y-44416382D01*
X165375017Y-44383509D01*
X165381431Y-44356781D01*
X165386755Y-44335444D01*
X165391176Y-44318741D01*
X165394880Y-44305918D01*
X165398055Y-44296221D01*
X165400893Y-44288895D01*
X165403302Y-44283720D01*
X165418995Y-44262628D01*
X165440448Y-44247740D01*
X165465681Y-44239952D01*
X165492722Y-44240154D01*
G37*
G36*
X166866635Y-41825400D02*
G01*
X166872983Y-41825799D01*
X166879141Y-41826448D01*
X166885752Y-41827623D01*
X166893472Y-41829590D01*
X166902954Y-41832619D01*
X166914848Y-41836983D01*
X166929804Y-41842950D01*
X166948482Y-41850793D01*
X166971523Y-41860780D01*
X166999586Y-41873182D01*
X167033322Y-41888268D01*
X167073380Y-41906311D01*
X167120414Y-41927579D01*
X167175075Y-41952343D01*
X167199763Y-41963535D01*
X167232373Y-41977858D01*
X167259162Y-41988662D01*
X167279361Y-41995659D01*
X167292194Y-41998565D01*
X167293603Y-41998631D01*
X167304714Y-41996514D01*
X167323473Y-41990337D01*
X167349205Y-41980350D01*
X167381226Y-41966816D01*
X167396827Y-41959936D01*
X167457643Y-41932872D01*
X167510456Y-41909464D01*
X167555815Y-41889484D01*
X167594261Y-41872701D01*
X167626334Y-41858886D01*
X167652574Y-41847810D01*
X167673528Y-41839240D01*
X167689738Y-41832951D01*
X167701742Y-41828708D01*
X167710084Y-41826286D01*
X167713581Y-41825607D01*
X167741299Y-41826092D01*
X167767107Y-41834396D01*
X167789757Y-41849161D01*
X167807999Y-41869036D01*
X167820587Y-41892665D01*
X167826269Y-41918691D01*
X167823930Y-41945224D01*
X167820486Y-41955640D01*
X167813764Y-41973104D01*
X167804373Y-41996125D01*
X167792931Y-42023219D01*
X167780052Y-42052892D01*
X167771287Y-42072669D01*
X167755340Y-42108357D01*
X167738018Y-42147130D01*
X167720546Y-42186240D01*
X167704154Y-42222944D01*
X167690069Y-42254485D01*
X167687152Y-42261024D01*
X167675566Y-42287664D01*
X167665466Y-42312198D01*
X167657467Y-42333038D01*
X167652171Y-42348595D01*
X167650195Y-42357274D01*
X167650193Y-42357409D01*
X167652052Y-42365620D01*
X167657248Y-42380898D01*
X167665216Y-42401776D01*
X167675387Y-42426787D01*
X167687196Y-42454463D01*
X167691673Y-42464647D01*
X167707166Y-42499612D01*
X167724995Y-42539818D01*
X167743673Y-42581933D01*
X167761729Y-42622622D01*
X167776911Y-42656819D01*
X167793432Y-42694691D01*
X167806029Y-42725406D01*
X167815014Y-42750186D01*
X167820702Y-42770246D01*
X167823406Y-42786803D01*
X167823438Y-42801074D01*
X167821111Y-42814280D01*
X167819144Y-42820915D01*
X167806136Y-42846107D01*
X167786243Y-42866672D01*
X167761379Y-42881240D01*
X167733462Y-42888441D01*
X167724000Y-42888968D01*
X167718042Y-42888951D01*
X167712379Y-42888640D01*
X167706242Y-42887722D01*
X167698853Y-42885890D01*
X167689436Y-42882829D01*
X167677226Y-42878232D01*
X167661442Y-42871791D01*
X167641315Y-42863191D01*
X167616067Y-42852124D01*
X167584929Y-42838281D01*
X167547127Y-42821349D01*
X167501888Y-42801022D01*
X167478937Y-42790699D01*
X167433233Y-42770327D01*
X167392964Y-42752740D01*
X167358676Y-42738166D01*
X167330919Y-42726834D01*
X167310243Y-42718969D01*
X167297202Y-42714798D01*
X167293603Y-42714166D01*
X167279965Y-42716060D01*
X167260763Y-42721939D01*
X167239647Y-42730523D01*
X167198796Y-42748888D01*
X167156825Y-42767628D01*
X167114713Y-42786316D01*
X167073436Y-42804530D01*
X167033974Y-42821839D01*
X166997304Y-42837817D01*
X166964405Y-42852042D01*
X166936254Y-42864083D01*
X166913830Y-42873515D01*
X166898113Y-42879911D01*
X166890520Y-42882715D01*
X166866123Y-42887994D01*
X166844396Y-42887197D01*
X166832141Y-42884253D01*
X166806515Y-42872027D01*
X166785289Y-42853055D01*
X166769700Y-42829218D01*
X166760979Y-42802410D01*
X166760362Y-42774528D01*
X166760397Y-42774279D01*
X166762917Y-42765640D01*
X166768878Y-42749589D01*
X166777814Y-42727243D01*
X166789264Y-42699728D01*
X166802758Y-42668159D01*
X166817836Y-42633655D01*
X166831547Y-42602860D01*
X166854795Y-42551031D01*
X166874448Y-42507067D01*
X166890793Y-42470288D01*
X166904118Y-42440014D01*
X166914709Y-42415568D01*
X166922857Y-42396271D01*
X166928848Y-42381445D01*
X166932969Y-42370408D01*
X166935510Y-42362486D01*
X166936756Y-42356993D01*
X166937015Y-42353973D01*
X166935168Y-42347125D01*
X166929972Y-42332951D01*
X166921921Y-42312688D01*
X166911519Y-42287569D01*
X166899265Y-42258826D01*
X166885900Y-42228226D01*
X166869758Y-42191700D01*
X166852510Y-42152678D01*
X166835237Y-42113602D01*
X166819021Y-42076912D01*
X166804935Y-42045050D01*
X166798616Y-42030762D01*
X166786040Y-42002196D01*
X166776814Y-41980600D01*
X166770451Y-41964389D01*
X166766472Y-41951960D01*
X166764395Y-41941727D01*
X166763737Y-41932092D01*
X166764013Y-41921464D01*
X166764244Y-41917185D01*
X166766203Y-41897252D01*
X166770200Y-41882630D01*
X166777463Y-41869276D01*
X166779976Y-41865605D01*
X166800134Y-41843974D01*
X166824518Y-41830604D01*
X166853540Y-41825301D01*
X166866635Y-41825400D01*
G37*
G36*
X167958352Y-42988679D02*
G01*
X167957070Y-42994467D01*
X167953927Y-43008893D01*
X167949036Y-43031424D01*
X167942514Y-43061525D01*
X167934475Y-43098659D01*
X167925037Y-43142299D01*
X167914313Y-43191904D01*
X167902420Y-43246943D01*
X167889473Y-43306879D01*
X167875588Y-43371181D01*
X167860879Y-43439314D01*
X167845463Y-43510742D01*
X167829456Y-43584932D01*
X167819141Y-43632747D01*
X167797123Y-43734800D01*
X167777001Y-43828079D01*
X167758685Y-43912976D01*
X167742087Y-43989885D01*
X167727128Y-44059202D01*
X167713716Y-44121320D01*
X167701768Y-44176639D01*
X167691200Y-44225546D01*
X167681919Y-44268442D01*
X167673848Y-44305720D01*
X167666893Y-44337776D01*
X167660977Y-44365006D01*
X167656007Y-44387802D01*
X167651901Y-44406561D01*
X167648571Y-44421679D01*
X167645932Y-44433548D01*
X167643899Y-44442566D01*
X167642386Y-44449129D01*
X167641306Y-44453626D01*
X167640573Y-44456460D01*
X167640104Y-44458020D01*
X167639808Y-44458704D01*
X167639712Y-44458832D01*
X167637285Y-44455284D01*
X167631323Y-44444673D01*
X167622526Y-44428314D01*
X167611607Y-44407510D01*
X167600928Y-44386820D01*
X167581967Y-44349960D01*
X167561112Y-44309651D01*
X167538748Y-44266632D01*
X167515265Y-44221640D01*
X167491060Y-44175411D01*
X167466521Y-44128691D01*
X167442037Y-44082209D01*
X167418004Y-44036710D01*
X167394808Y-43992928D01*
X167372844Y-43951604D01*
X167352500Y-43913475D01*
X167334170Y-43879279D01*
X167318244Y-43849756D01*
X167305112Y-43825644D01*
X167295164Y-43807677D01*
X167288793Y-43796600D01*
X167286417Y-43793127D01*
X167283706Y-43797323D01*
X167277044Y-43809145D01*
X167266798Y-43827886D01*
X167253346Y-43852845D01*
X167237065Y-43883318D01*
X167218331Y-43918606D01*
X167197514Y-43958002D01*
X167174994Y-44000807D01*
X167151141Y-44046317D01*
X167144917Y-44058222D01*
X167110084Y-44124871D01*
X167079335Y-44183683D01*
X167052417Y-44235147D01*
X167029076Y-44279742D01*
X167009052Y-44317951D01*
X166992093Y-44350262D01*
X166977939Y-44377157D01*
X166966337Y-44399119D01*
X166957030Y-44416632D01*
X166949760Y-44430177D01*
X166944274Y-44440243D01*
X166940315Y-44447308D01*
X166937627Y-44451859D01*
X166935953Y-44454378D01*
X166935036Y-44455351D01*
X166934684Y-44455346D01*
X166934396Y-44454826D01*
X166933952Y-44453498D01*
X166933263Y-44450966D01*
X166932246Y-44446844D01*
X166930815Y-44440731D01*
X166928883Y-44432241D01*
X166926369Y-44420977D01*
X166923186Y-44406551D01*
X166919251Y-44388567D01*
X166914473Y-44366634D01*
X166908773Y-44340356D01*
X166902064Y-44309347D01*
X166894261Y-44273205D01*
X166885279Y-44231548D01*
X166875035Y-44183977D01*
X166863439Y-44130098D01*
X166850413Y-44069523D01*
X166835865Y-44001856D01*
X166819713Y-43926708D01*
X166801875Y-43843681D01*
X166782258Y-43752387D01*
X166760785Y-43652432D01*
X166753780Y-43619826D01*
X166737577Y-43544362D01*
X166721924Y-43471400D01*
X166706935Y-43401469D01*
X166692725Y-43335096D01*
X166679399Y-43272810D01*
X166667080Y-43215140D01*
X166655874Y-43162614D01*
X166645894Y-43115757D01*
X166637254Y-43075104D01*
X166630068Y-43041175D01*
X166624445Y-43014506D01*
X166620499Y-42995619D01*
X166618346Y-42985046D01*
X166617960Y-42982892D01*
X166622559Y-42981214D01*
X166635989Y-42979880D01*
X166657702Y-42978920D01*
X166687155Y-42978361D01*
X166716174Y-42978217D01*
X166749089Y-42978276D01*
X166773815Y-42978516D01*
X166791555Y-42979039D01*
X166803502Y-42979938D01*
X166810854Y-42981312D01*
X166814809Y-42983260D01*
X166816567Y-42985880D01*
X166816739Y-42986429D01*
X166818045Y-42992117D01*
X166821172Y-43006326D01*
X166825986Y-43028414D01*
X166832342Y-43057721D01*
X166840099Y-43093600D01*
X166849120Y-43135398D01*
X166859260Y-43182463D01*
X166870385Y-43234149D01*
X166882346Y-43289796D01*
X166895012Y-43348760D01*
X166908234Y-43410387D01*
X166911144Y-43423954D01*
X166924479Y-43486081D01*
X166937309Y-43545687D01*
X166949484Y-43602125D01*
X166960864Y-43654734D01*
X166971311Y-43702873D01*
X166980682Y-43745889D01*
X166988830Y-43783127D01*
X166995617Y-43813935D01*
X167000901Y-43837662D01*
X167004537Y-43853654D01*
X167006386Y-43861261D01*
X167006538Y-43861737D01*
X167008670Y-43861447D01*
X167013369Y-43855595D01*
X167020871Y-43843771D01*
X167031401Y-43825561D01*
X167045199Y-43800554D01*
X167062493Y-43768337D01*
X167083518Y-43728498D01*
X167105820Y-43685788D01*
X167127793Y-43643582D01*
X167150113Y-43600775D01*
X167172044Y-43558764D01*
X167192847Y-43518957D01*
X167211788Y-43482771D01*
X167228131Y-43451611D01*
X167241137Y-43426885D01*
X167244708Y-43420119D01*
X167287657Y-43338864D01*
X167301679Y-43363814D01*
X167306440Y-43372590D01*
X167315080Y-43388847D01*
X167327160Y-43411738D01*
X167342231Y-43440420D01*
X167359855Y-43474042D01*
X167379584Y-43511762D01*
X167400975Y-43552731D01*
X167423587Y-43596103D01*
X167439000Y-43625709D01*
X167461764Y-43669399D01*
X167483283Y-43710619D01*
X167503155Y-43748599D01*
X167520991Y-43782592D01*
X167536387Y-43811839D01*
X167548950Y-43835590D01*
X167558280Y-43853082D01*
X167563983Y-43863566D01*
X167565638Y-43866377D01*
X167567711Y-43863381D01*
X167571235Y-43852657D01*
X167575795Y-43835681D01*
X167580983Y-43813929D01*
X167583908Y-43800689D01*
X167587261Y-43785120D01*
X167592410Y-43761232D01*
X167599169Y-43729883D01*
X167607354Y-43691934D01*
X167616783Y-43648237D01*
X167627268Y-43599657D01*
X167638623Y-43547035D01*
X167650666Y-43491240D01*
X167663209Y-43433121D01*
X167676071Y-43373539D01*
X167679875Y-43355921D01*
X167760909Y-42980565D01*
X167860919Y-42979294D01*
X167960926Y-42978028D01*
X167958352Y-42988679D01*
G37*
G36*
X176811260Y-42985155D02*
G01*
X176867267Y-42998174D01*
X176921815Y-43019429D01*
X176974467Y-43048697D01*
X177024789Y-43085750D01*
X177072347Y-43130369D01*
X177116701Y-43182322D01*
X177157420Y-43241390D01*
X177194065Y-43307349D01*
X177211265Y-43344068D01*
X177241176Y-43423122D01*
X177263404Y-43506386D01*
X177277965Y-43592712D01*
X177284879Y-43680945D01*
X177284170Y-43769951D01*
X177275850Y-43858578D01*
X177259945Y-43945677D01*
X177236475Y-44030102D01*
X177205457Y-44110705D01*
X177197822Y-44127382D01*
X177165046Y-44188782D01*
X177126795Y-44246187D01*
X177084031Y-44298543D01*
X177037714Y-44344798D01*
X176988806Y-44383901D01*
X176938269Y-44414793D01*
X176933248Y-44417348D01*
X176877404Y-44440233D01*
X176819065Y-44454682D01*
X176759605Y-44460526D01*
X176700381Y-44457591D01*
X176664433Y-44451298D01*
X176607228Y-44433668D01*
X176551611Y-44407198D01*
X176498245Y-44372392D01*
X176447782Y-44329747D01*
X176400878Y-44279761D01*
X176358188Y-44222934D01*
X176351504Y-44212796D01*
X176313485Y-44146073D01*
X176293756Y-44101210D01*
X176545955Y-44101210D01*
X176558958Y-44114968D01*
X176576681Y-44130817D01*
X176600007Y-44147664D01*
X176625693Y-44163386D01*
X176650497Y-44175860D01*
X176654641Y-44177605D01*
X176699977Y-44191752D01*
X176744969Y-44196868D01*
X176791229Y-44193100D01*
X176801871Y-44191065D01*
X176823611Y-44185143D01*
X176847898Y-44176499D01*
X176867560Y-44167902D01*
X176884406Y-44158645D01*
X176902276Y-44147350D01*
X176919336Y-44135371D01*
X176933753Y-44124066D01*
X176943693Y-44114790D01*
X176947324Y-44108960D01*
X176944009Y-44104797D01*
X176934768Y-44095407D01*
X176920656Y-44081754D01*
X176902723Y-44064794D01*
X176882025Y-44045496D01*
X176859610Y-44024821D01*
X176836535Y-44003728D01*
X176813853Y-43983180D01*
X176792615Y-43964141D01*
X176773875Y-43947572D01*
X176758690Y-43934434D01*
X176748107Y-43925690D01*
X176743180Y-43922302D01*
X176743021Y-43922300D01*
X176738765Y-43925706D01*
X176728523Y-43934650D01*
X176713214Y-43948312D01*
X176693753Y-43965866D01*
X176671054Y-43986493D01*
X176646034Y-44009371D01*
X176642704Y-44012426D01*
X176545955Y-44101210D01*
X176293756Y-44101210D01*
X176280874Y-44071919D01*
X176253791Y-43990647D01*
X176232350Y-43902577D01*
X176228672Y-43883763D01*
X176225172Y-43858492D01*
X176222525Y-43825893D01*
X176220737Y-43787974D01*
X176219801Y-43746754D01*
X176219723Y-43704247D01*
X176219764Y-43702045D01*
X176408660Y-43702045D01*
X176409092Y-43737780D01*
X176410749Y-43773768D01*
X176413547Y-43807013D01*
X176416982Y-43832150D01*
X176431933Y-43895930D01*
X176453869Y-43958094D01*
X176474479Y-44002064D01*
X176485426Y-44021726D01*
X176496840Y-44040389D01*
X176507643Y-44056498D01*
X176516754Y-44068499D01*
X176523093Y-44074832D01*
X176525192Y-44075200D01*
X176526663Y-44070476D01*
X176530158Y-44057772D01*
X176535382Y-44038198D01*
X176542042Y-44012868D01*
X176549846Y-43982893D01*
X176558500Y-43949386D01*
X176562475Y-43933907D01*
X176571341Y-43898965D01*
X176579316Y-43866823D01*
X176586128Y-43838643D01*
X176591501Y-43815578D01*
X176595163Y-43798791D01*
X176596181Y-43793108D01*
X176891848Y-43793108D01*
X176893181Y-43799629D01*
X176896562Y-43814067D01*
X176901704Y-43835258D01*
X176908319Y-43862036D01*
X176916123Y-43893228D01*
X176924825Y-43927666D01*
X176929385Y-43945593D01*
X176939940Y-43987196D01*
X176948428Y-44020356D01*
X176955312Y-44045680D01*
X176961041Y-44063764D01*
X176966069Y-44075211D01*
X176970848Y-44080616D01*
X176975837Y-44080587D01*
X176981488Y-44075720D01*
X176988254Y-44066618D01*
X176996589Y-44053877D01*
X177003382Y-44043453D01*
X177037792Y-43982872D01*
X177064146Y-43917701D01*
X177082344Y-43848331D01*
X177092289Y-43775140D01*
X177093877Y-43698520D01*
X177093701Y-43693736D01*
X177092473Y-43669047D01*
X177090940Y-43647063D01*
X177089270Y-43629829D01*
X177087644Y-43619370D01*
X177087230Y-43617962D01*
X177085584Y-43615456D01*
X177082665Y-43614992D01*
X177077705Y-43617166D01*
X177069934Y-43622586D01*
X177058588Y-43631847D01*
X177042893Y-43645548D01*
X177022084Y-43664300D01*
X176995390Y-43688699D01*
X176987205Y-43696214D01*
X176954096Y-43726973D01*
X176927955Y-43752019D01*
X176908842Y-43771290D01*
X176896820Y-43784722D01*
X176891952Y-43792253D01*
X176891848Y-43793108D01*
X176596181Y-43793108D01*
X176596839Y-43789439D01*
X176596885Y-43788010D01*
X176593161Y-43783322D01*
X176583422Y-43773234D01*
X176568600Y-43758650D01*
X176549637Y-43740476D01*
X176527457Y-43719618D01*
X176505435Y-43699222D01*
X176415442Y-43616459D01*
X176411801Y-43643365D01*
X176409536Y-43669573D01*
X176408660Y-43702045D01*
X176219764Y-43702045D01*
X176220498Y-43662459D01*
X176222133Y-43623420D01*
X176224622Y-43589124D01*
X176226696Y-43572075D01*
X176424170Y-43572075D01*
X176428650Y-43572627D01*
X176441247Y-43573030D01*
X176460700Y-43573269D01*
X176485743Y-43573338D01*
X176515109Y-43573225D01*
X176539913Y-43573006D01*
X176655660Y-43571752D01*
X176696878Y-43412225D01*
X176706483Y-43374965D01*
X176715305Y-43340560D01*
X176723078Y-43310073D01*
X176729533Y-43284563D01*
X176734402Y-43265094D01*
X176737413Y-43252729D01*
X176738314Y-43248575D01*
X176737313Y-43248006D01*
X176750048Y-43248006D01*
X176791951Y-43411052D01*
X176833854Y-43574098D01*
X176955103Y-43574098D01*
X176993235Y-43574011D01*
X177022902Y-43573717D01*
X177045017Y-43573172D01*
X177060501Y-43572326D01*
X177070263Y-43571136D01*
X177075224Y-43569554D01*
X177076351Y-43567941D01*
X177074471Y-43557414D01*
X177069355Y-43540460D01*
X177061789Y-43519125D01*
X177052564Y-43495466D01*
X177042462Y-43471526D01*
X177032270Y-43449359D01*
X177026173Y-43437247D01*
X176995349Y-43387009D01*
X176959577Y-43343398D01*
X176919535Y-43306996D01*
X176875894Y-43278378D01*
X176829337Y-43258125D01*
X176810046Y-43252495D01*
X176791886Y-43248755D01*
X176774992Y-43246663D01*
X176765366Y-43246552D01*
X176750048Y-43248006D01*
X176737313Y-43248006D01*
X176734391Y-43246347D01*
X176723699Y-43246555D01*
X176708431Y-43248815D01*
X176690765Y-43252750D01*
X176672889Y-43257972D01*
X176662151Y-43261895D01*
X176613522Y-43286089D01*
X176569808Y-43317602D01*
X176530655Y-43356784D01*
X176495715Y-43403982D01*
X176466296Y-43456170D01*
X176459276Y-43471553D01*
X176451262Y-43491031D01*
X176443051Y-43512405D01*
X176435445Y-43533474D01*
X176429242Y-43552036D01*
X176425243Y-43565893D01*
X176424170Y-43572075D01*
X176226696Y-43572075D01*
X176227968Y-43561595D01*
X176228635Y-43557676D01*
X176247286Y-43473150D01*
X176271950Y-43393674D01*
X176302327Y-43319699D01*
X176338115Y-43251685D01*
X176379019Y-43190086D01*
X176424738Y-43135358D01*
X176474976Y-43087955D01*
X176529429Y-43048334D01*
X176581359Y-43019911D01*
X176638845Y-42997749D01*
X176696614Y-42984716D01*
X176754229Y-42980593D01*
X176811260Y-42985155D01*
G37*
D15*
%TO.C,K1*%
X140730000Y-89180000D02*
X140730000Y-89185000D01*
X140730000Y-91475000D02*
X140730000Y-93885000D01*
X140730000Y-96180000D02*
X140730000Y-96175000D01*
X140730000Y-96180000D02*
X161230000Y-96180000D01*
X161230000Y-89180000D02*
X140730000Y-89180000D01*
X161230000Y-93885000D02*
X161230000Y-89180000D01*
X161230000Y-96180000D02*
X161230000Y-96175000D01*
D16*
X140055000Y-90330000D02*
G75*
G02*
X139855000Y-90330000I-100000J0D01*
G01*
X139855000Y-90330000D02*
G75*
G02*
X140055000Y-90330000I100000J0D01*
G01*
D14*
%TO.C,U3*%
X140580000Y-68480000D02*
X140580000Y-69740000D01*
X140580000Y-75300000D02*
X140580000Y-74040000D01*
X144340000Y-68480000D02*
X140580000Y-68480000D01*
X144340000Y-75300000D02*
X140580000Y-75300000D01*
X145860000Y-75530000D02*
X145380000Y-75530000D01*
X145620000Y-75200000D01*
X145860000Y-75530000D01*
G36*
X145860000Y-75530000D02*
G01*
X145380000Y-75530000D01*
X145620000Y-75200000D01*
X145860000Y-75530000D01*
G37*
%TO.C,C14*%
X165015000Y-69448752D02*
X165015000Y-68926248D01*
X166485000Y-69448752D02*
X166485000Y-68926248D01*
%TO.C,R7*%
X139875000Y-56372936D02*
X139875000Y-56827064D01*
X141345000Y-56372936D02*
X141345000Y-56827064D01*
%TO.C,U5*%
X157740000Y-74750000D02*
X157740000Y-73950000D01*
X157740000Y-74750000D02*
X157740000Y-75550000D01*
X160960000Y-75750000D02*
X160960000Y-73950000D01*
X157790000Y-76050000D02*
X157460000Y-76290000D01*
X157460000Y-75810000D01*
X157790000Y-76050000D01*
G36*
X157790000Y-76050000D02*
G01*
X157460000Y-76290000D01*
X157460000Y-75810000D01*
X157790000Y-76050000D01*
G37*
%TO.C,J1*%
X138947500Y-100290000D02*
X138947500Y-112510000D01*
X138947500Y-109210000D02*
X161487500Y-109210000D01*
X138947500Y-111010000D02*
X138947500Y-109210000D01*
X138947500Y-112510000D02*
X161487500Y-112510000D01*
X141597500Y-112510000D02*
X143597500Y-112510000D01*
X141847500Y-111010000D02*
X141597500Y-112510000D01*
X142297500Y-99490000D02*
X142897500Y-99490000D01*
X142597500Y-100090000D02*
X142297500Y-99490000D01*
X142897500Y-99490000D02*
X142597500Y-100090000D01*
X143347500Y-111010000D02*
X141847500Y-111010000D01*
X143597500Y-112510000D02*
X143347500Y-111010000D01*
X146677500Y-112510000D02*
X148677500Y-112510000D01*
X146927500Y-111010000D02*
X146677500Y-112510000D01*
X148427500Y-111010000D02*
X146927500Y-111010000D01*
X148677500Y-112510000D02*
X148427500Y-111010000D01*
X151757500Y-112510000D02*
X153757500Y-112510000D01*
X152007500Y-111010000D02*
X151757500Y-112510000D01*
X153507500Y-111010000D02*
X152007500Y-111010000D01*
X153757500Y-112510000D02*
X153507500Y-111010000D01*
X156837500Y-112510000D02*
X158837500Y-112510000D01*
X157087500Y-111010000D02*
X156837500Y-112510000D01*
X158587500Y-111010000D02*
X157087500Y-111010000D01*
X158837500Y-112510000D02*
X158587500Y-111010000D01*
X161487500Y-100290000D02*
X138947500Y-100290000D01*
X161487500Y-109210000D02*
X161487500Y-111010000D01*
X161487500Y-111010000D02*
X138947500Y-111010000D01*
X161487500Y-112510000D02*
X161487500Y-100290000D01*
%TO.C,U4-O1*%
X138200000Y-85450000D02*
X141800000Y-85450000D01*
X138161522Y-85438478D02*
G75*
G02*
X140000000Y-80999999I1838478J1838478D01*
G01*
X140000000Y-81000000D02*
G75*
G02*
X141838478Y-85438478I0J-2600000D01*
G01*
%TO.C,USB2*%
X167290000Y-53350000D02*
X167290000Y-52750000D01*
X167990000Y-52050000D02*
X169390000Y-52050000D01*
X169390000Y-54050000D02*
X167990000Y-54050000D01*
X170090000Y-52750000D02*
X170090000Y-53350000D01*
X167290000Y-52750000D02*
G75*
G02*
X167990000Y-52050000I700000J0D01*
G01*
X167990000Y-54050000D02*
G75*
G02*
X167290000Y-53350000I0J700000D01*
G01*
X169390000Y-52050000D02*
G75*
G02*
X170090000Y-52750000I1J-699999D01*
G01*
X170090000Y-53350000D02*
G75*
G02*
X169390000Y-54050000I-699999J-1D01*
G01*
%TO.C,R6*%
X157485000Y-80292936D02*
X157485000Y-80747064D01*
X158955000Y-80292936D02*
X158955000Y-80747064D01*
%TO.C,C4*%
X147401248Y-78005000D02*
X147923752Y-78005000D01*
X147401248Y-79475000D02*
X147923752Y-79475000D01*
%TO.C,C5*%
X150715000Y-64611252D02*
X150715000Y-64088748D01*
X152185000Y-64611252D02*
X152185000Y-64088748D01*
D15*
%TO.C,L1*%
X151550000Y-68280000D02*
X151550000Y-67820000D01*
X154550000Y-68280000D02*
X154550000Y-67820000D01*
D14*
%TO.C,TP16*%
X140140000Y-52890000D02*
G75*
G02*
X137740000Y-52890000I-1200000J0D01*
G01*
X137740000Y-52890000D02*
G75*
G02*
X140140000Y-52890000I1200000J0D01*
G01*
%TO.C,R3*%
X142075000Y-56372936D02*
X142075000Y-56827064D01*
X143545000Y-56372936D02*
X143545000Y-56827064D01*
%TO.C,J3*%
X174050000Y-49100000D02*
X176050000Y-49100000D01*
X174050000Y-58500000D02*
X176050000Y-58500000D01*
X177950000Y-49100000D02*
X179850000Y-49100000D01*
X177950000Y-58500000D02*
X179850000Y-58500000D01*
X179850000Y-58500000D02*
X179850000Y-49100000D01*
%TO.C,TP7*%
X172400000Y-61900000D02*
G75*
G02*
X170000000Y-61900000I-1200000J0D01*
G01*
X170000000Y-61900000D02*
G75*
G02*
X172400000Y-61900000I1200000J0D01*
G01*
%TO.C,U6*%
X148065000Y-84215000D02*
X148065000Y-82265000D01*
X148065000Y-84215000D02*
X148065000Y-86165000D01*
X156935000Y-84215000D02*
X156935000Y-82265000D01*
X156935000Y-84215000D02*
X156935000Y-86165000D01*
X148130000Y-86915000D02*
X147800000Y-87155000D01*
X147800000Y-86675000D01*
X148130000Y-86915000D01*
G36*
X148130000Y-86915000D02*
G01*
X147800000Y-87155000D01*
X147800000Y-86675000D01*
X148130000Y-86915000D01*
G37*
%TO.C,J2*%
X162287500Y-100290000D02*
X162287500Y-112510000D01*
X162287500Y-109210000D02*
X174667500Y-109210000D01*
X162287500Y-111010000D02*
X162287500Y-109210000D01*
X162287500Y-112510000D02*
X174667500Y-112510000D01*
X164937500Y-112510000D02*
X166937500Y-112510000D01*
X165187500Y-111010000D02*
X164937500Y-112510000D01*
X165637500Y-99490000D02*
X166237500Y-99490000D01*
X165937500Y-100090000D02*
X165637500Y-99490000D01*
X166237500Y-99490000D02*
X165937500Y-100090000D01*
X166687500Y-111010000D02*
X165187500Y-111010000D01*
X166937500Y-112510000D02*
X166687500Y-111010000D01*
X170017500Y-112510000D02*
X172017500Y-112510000D01*
X170267500Y-111010000D02*
X170017500Y-112510000D01*
X171767500Y-111010000D02*
X170267500Y-111010000D01*
X172017500Y-112510000D02*
X171767500Y-111010000D01*
X174667500Y-100290000D02*
X162287500Y-100290000D01*
X174667500Y-109210000D02*
X174667500Y-111010000D01*
X174667500Y-111010000D02*
X162287500Y-111010000D01*
X174667500Y-112510000D02*
X174667500Y-100290000D01*
%TO.C,C7*%
X167090354Y-88825000D02*
X168090354Y-88825000D01*
X167590354Y-88325000D02*
X167590354Y-89325000D01*
X172570000Y-86620000D02*
X172570000Y-96780000D01*
X172610000Y-86620000D02*
X172610000Y-96780000D01*
X172650000Y-86620000D02*
X172650000Y-96780000D01*
X172690000Y-86621000D02*
X172690000Y-96779000D01*
X172730000Y-86622000D02*
X172730000Y-96778000D01*
X172770000Y-86623000D02*
X172770000Y-96777000D01*
X172810000Y-86625000D02*
X172810000Y-96775000D01*
X172850000Y-86627000D02*
X172850000Y-96773000D01*
X172890000Y-86630000D02*
X172890000Y-96770000D01*
X172930000Y-86632000D02*
X172930000Y-96768000D01*
X172970000Y-86635000D02*
X172970000Y-96765000D01*
X173010000Y-86638000D02*
X173010000Y-96762000D01*
X173050000Y-86642000D02*
X173050000Y-96758000D01*
X173090000Y-86646000D02*
X173090000Y-96754000D01*
X173130000Y-86650000D02*
X173130000Y-96750000D01*
X173170000Y-86655000D02*
X173170000Y-96745000D01*
X173210000Y-86660000D02*
X173210000Y-96740000D01*
X173250000Y-86665000D02*
X173250000Y-96735000D01*
X173291000Y-86670000D02*
X173291000Y-96730000D01*
X173331000Y-86676000D02*
X173331000Y-96724000D01*
X173371000Y-86682000D02*
X173371000Y-96718000D01*
X173411000Y-86689000D02*
X173411000Y-96711000D01*
X173451000Y-86696000D02*
X173451000Y-96704000D01*
X173491000Y-86703000D02*
X173491000Y-96697000D01*
X173531000Y-86710000D02*
X173531000Y-96690000D01*
X173571000Y-86718000D02*
X173571000Y-96682000D01*
X173611000Y-86726000D02*
X173611000Y-96674000D01*
X173651000Y-86735000D02*
X173651000Y-96665000D01*
X173691000Y-86744000D02*
X173691000Y-96656000D01*
X173731000Y-86753000D02*
X173731000Y-96647000D01*
X173771000Y-86762000D02*
X173771000Y-96638000D01*
X173811000Y-86772000D02*
X173811000Y-96628000D01*
X173851000Y-86782000D02*
X173851000Y-90459000D01*
X173851000Y-92941000D02*
X173851000Y-96618000D01*
X173891000Y-86793000D02*
X173891000Y-90459000D01*
X173891000Y-92941000D02*
X173891000Y-96607000D01*
X173931000Y-86803000D02*
X173931000Y-90459000D01*
X173931000Y-92941000D02*
X173931000Y-96597000D01*
X173971000Y-86815000D02*
X173971000Y-90459000D01*
X173971000Y-92941000D02*
X173971000Y-96585000D01*
X174011000Y-86826000D02*
X174011000Y-90459000D01*
X174011000Y-92941000D02*
X174011000Y-96574000D01*
X174051000Y-86838000D02*
X174051000Y-90459000D01*
X174051000Y-92941000D02*
X174051000Y-96562000D01*
X174091000Y-86850000D02*
X174091000Y-90459000D01*
X174091000Y-92941000D02*
X174091000Y-96550000D01*
X174131000Y-86863000D02*
X174131000Y-90459000D01*
X174131000Y-92941000D02*
X174131000Y-96537000D01*
X174171000Y-86876000D02*
X174171000Y-90459000D01*
X174171000Y-92941000D02*
X174171000Y-96524000D01*
X174211000Y-86889000D02*
X174211000Y-90459000D01*
X174211000Y-92941000D02*
X174211000Y-96511000D01*
X174251000Y-86903000D02*
X174251000Y-90459000D01*
X174251000Y-92941000D02*
X174251000Y-96497000D01*
X174291000Y-86917000D02*
X174291000Y-90459000D01*
X174291000Y-92941000D02*
X174291000Y-96483000D01*
X174331000Y-86932000D02*
X174331000Y-90459000D01*
X174331000Y-92941000D02*
X174331000Y-96468000D01*
X174371000Y-86946000D02*
X174371000Y-90459000D01*
X174371000Y-92941000D02*
X174371000Y-96454000D01*
X174411000Y-86962000D02*
X174411000Y-90459000D01*
X174411000Y-92941000D02*
X174411000Y-96438000D01*
X174451000Y-86977000D02*
X174451000Y-90459000D01*
X174451000Y-92941000D02*
X174451000Y-96423000D01*
X174491000Y-86993000D02*
X174491000Y-90459000D01*
X174491000Y-92941000D02*
X174491000Y-96407000D01*
X174531000Y-87010000D02*
X174531000Y-90459000D01*
X174531000Y-92941000D02*
X174531000Y-96390000D01*
X174571000Y-87026000D02*
X174571000Y-90459000D01*
X174571000Y-92941000D02*
X174571000Y-96374000D01*
X174611000Y-87043000D02*
X174611000Y-90459000D01*
X174611000Y-92941000D02*
X174611000Y-96357000D01*
X174651000Y-87061000D02*
X174651000Y-90459000D01*
X174651000Y-92941000D02*
X174651000Y-96339000D01*
X174691000Y-87079000D02*
X174691000Y-90459000D01*
X174691000Y-92941000D02*
X174691000Y-96321000D01*
X174731000Y-87097000D02*
X174731000Y-90459000D01*
X174731000Y-92941000D02*
X174731000Y-96303000D01*
X174771000Y-87116000D02*
X174771000Y-90459000D01*
X174771000Y-92941000D02*
X174771000Y-96284000D01*
X174811000Y-87136000D02*
X174811000Y-90459000D01*
X174811000Y-92941000D02*
X174811000Y-96264000D01*
X174851000Y-87155000D02*
X174851000Y-90459000D01*
X174851000Y-92941000D02*
X174851000Y-96245000D01*
X174891000Y-87175000D02*
X174891000Y-90459000D01*
X174891000Y-92941000D02*
X174891000Y-96225000D01*
X174931000Y-87196000D02*
X174931000Y-90459000D01*
X174931000Y-92941000D02*
X174931000Y-96204000D01*
X174971000Y-87217000D02*
X174971000Y-90459000D01*
X174971000Y-92941000D02*
X174971000Y-96183000D01*
X175011000Y-87238000D02*
X175011000Y-90459000D01*
X175011000Y-92941000D02*
X175011000Y-96162000D01*
X175051000Y-87260000D02*
X175051000Y-90459000D01*
X175051000Y-92941000D02*
X175051000Y-96140000D01*
X175091000Y-87283000D02*
X175091000Y-90459000D01*
X175091000Y-92941000D02*
X175091000Y-96117000D01*
X175131000Y-87305000D02*
X175131000Y-90459000D01*
X175131000Y-92941000D02*
X175131000Y-96095000D01*
X175171000Y-87329000D02*
X175171000Y-90459000D01*
X175171000Y-92941000D02*
X175171000Y-96071000D01*
X175211000Y-87353000D02*
X175211000Y-90459000D01*
X175211000Y-92941000D02*
X175211000Y-96047000D01*
X175251000Y-87377000D02*
X175251000Y-90459000D01*
X175251000Y-92941000D02*
X175251000Y-96023000D01*
X175291000Y-87402000D02*
X175291000Y-90459000D01*
X175291000Y-92941000D02*
X175291000Y-95998000D01*
X175331000Y-87427000D02*
X175331000Y-90459000D01*
X175331000Y-92941000D02*
X175331000Y-95973000D01*
X175371000Y-87453000D02*
X175371000Y-90459000D01*
X175371000Y-92941000D02*
X175371000Y-95947000D01*
X175411000Y-87479000D02*
X175411000Y-90459000D01*
X175411000Y-92941000D02*
X175411000Y-95921000D01*
X175451000Y-87506000D02*
X175451000Y-90459000D01*
X175451000Y-92941000D02*
X175451000Y-95894000D01*
X175491000Y-87534000D02*
X175491000Y-90459000D01*
X175491000Y-92941000D02*
X175491000Y-95866000D01*
X175531000Y-87562000D02*
X175531000Y-90459000D01*
X175531000Y-92941000D02*
X175531000Y-95838000D01*
X175571000Y-87590000D02*
X175571000Y-90459000D01*
X175571000Y-92941000D02*
X175571000Y-95810000D01*
X175611000Y-87620000D02*
X175611000Y-90459000D01*
X175611000Y-92941000D02*
X175611000Y-95780000D01*
X175651000Y-87650000D02*
X175651000Y-90459000D01*
X175651000Y-92941000D02*
X175651000Y-95750000D01*
X175691000Y-87680000D02*
X175691000Y-90459000D01*
X175691000Y-92941000D02*
X175691000Y-95720000D01*
X175731000Y-87711000D02*
X175731000Y-90459000D01*
X175731000Y-92941000D02*
X175731000Y-95689000D01*
X175771000Y-87743000D02*
X175771000Y-90459000D01*
X175771000Y-92941000D02*
X175771000Y-95657000D01*
X175811000Y-87775000D02*
X175811000Y-90459000D01*
X175811000Y-92941000D02*
X175811000Y-95625000D01*
X175851000Y-87808000D02*
X175851000Y-90459000D01*
X175851000Y-92941000D02*
X175851000Y-95592000D01*
X175891000Y-87842000D02*
X175891000Y-90459000D01*
X175891000Y-92941000D02*
X175891000Y-95558000D01*
X175931000Y-87876000D02*
X175931000Y-90459000D01*
X175931000Y-92941000D02*
X175931000Y-95524000D01*
X175971000Y-87911000D02*
X175971000Y-90459000D01*
X175971000Y-92941000D02*
X175971000Y-95489000D01*
X176011000Y-87947000D02*
X176011000Y-90459000D01*
X176011000Y-92941000D02*
X176011000Y-95453000D01*
X176051000Y-87984000D02*
X176051000Y-90459000D01*
X176051000Y-92941000D02*
X176051000Y-95416000D01*
X176091000Y-88021000D02*
X176091000Y-90459000D01*
X176091000Y-92941000D02*
X176091000Y-95379000D01*
X176131000Y-88060000D02*
X176131000Y-90459000D01*
X176131000Y-92941000D02*
X176131000Y-95340000D01*
X176171000Y-88099000D02*
X176171000Y-90459000D01*
X176171000Y-92941000D02*
X176171000Y-95301000D01*
X176211000Y-88139000D02*
X176211000Y-90459000D01*
X176211000Y-92941000D02*
X176211000Y-95261000D01*
X176251000Y-88180000D02*
X176251000Y-90459000D01*
X176251000Y-92941000D02*
X176251000Y-95220000D01*
X176291000Y-88222000D02*
X176291000Y-90459000D01*
X176291000Y-92941000D02*
X176291000Y-95178000D01*
X176331000Y-88264000D02*
X176331000Y-95136000D01*
X176371000Y-88308000D02*
X176371000Y-95092000D01*
X176411000Y-88353000D02*
X176411000Y-95047000D01*
X176451000Y-88399000D02*
X176451000Y-95001000D01*
X176491000Y-88446000D02*
X176491000Y-94954000D01*
X176531000Y-88494000D02*
X176531000Y-94906000D01*
X176571000Y-88544000D02*
X176571000Y-94856000D01*
X176611000Y-88594000D02*
X176611000Y-94806000D01*
X176651000Y-88646000D02*
X176651000Y-94754000D01*
X176691000Y-88700000D02*
X176691000Y-94700000D01*
X176731000Y-88755000D02*
X176731000Y-94645000D01*
X176771000Y-88811000D02*
X176771000Y-94589000D01*
X176811000Y-88870000D02*
X176811000Y-94530000D01*
X176851000Y-88930000D02*
X176851000Y-94470000D01*
X176891000Y-88991000D02*
X176891000Y-94409000D01*
X176931000Y-89055000D02*
X176931000Y-94345000D01*
X176971000Y-89121000D02*
X176971000Y-94279000D01*
X177011000Y-89190000D02*
X177011000Y-94210000D01*
X177051000Y-89261000D02*
X177051000Y-94139000D01*
X177091000Y-89335000D02*
X177091000Y-94065000D01*
X177131000Y-89411000D02*
X177131000Y-93989000D01*
X177171000Y-89491000D02*
X177171000Y-93909000D01*
X177211000Y-89575000D02*
X177211000Y-93825000D01*
X177251000Y-89663000D02*
X177251000Y-93737000D01*
X177291000Y-89756000D02*
X177291000Y-93644000D01*
X177331000Y-89854000D02*
X177331000Y-93546000D01*
X177371000Y-89958000D02*
X177371000Y-93442000D01*
X177411000Y-90070000D02*
X177411000Y-93330000D01*
X177451000Y-90190000D02*
X177451000Y-93210000D01*
X177491000Y-90322000D02*
X177491000Y-93078000D01*
X177531000Y-90470000D02*
X177531000Y-92930000D01*
X177571000Y-90638000D02*
X177571000Y-92762000D01*
X177611000Y-90838000D02*
X177611000Y-92562000D01*
X177651000Y-91101000D02*
X177651000Y-92299000D01*
X177690000Y-91700000D02*
G75*
G02*
X167450000Y-91700000I-5120000J0D01*
G01*
X167450000Y-91700000D02*
G75*
G02*
X177690000Y-91700000I5120000J0D01*
G01*
%TO.C,D1*%
X156400000Y-72060000D02*
X156400000Y-65050000D01*
X156400000Y-72060000D02*
X159700000Y-72060000D01*
X159700000Y-72060000D02*
X159700000Y-65050000D01*
%TO.C,D2*%
X162350000Y-71090000D02*
X162350000Y-78100000D01*
X165650000Y-71090000D02*
X162350000Y-71090000D01*
X165650000Y-71090000D02*
X165650000Y-78100000D01*
%TO.C,D5*%
X155050000Y-75490000D02*
X155050000Y-79500000D01*
X157050000Y-75490000D02*
X155050000Y-75490000D01*
X157050000Y-75490000D02*
X157050000Y-79500000D01*
%TO.C,J3-O1*%
X168140000Y-69290000D02*
X168140000Y-70710000D01*
X168140000Y-70710000D02*
X172640000Y-70710000D01*
X168140000Y-75490000D02*
X172640000Y-75490000D01*
X168140000Y-76910000D02*
X168140000Y-75490000D01*
X168450000Y-74050000D02*
X169050000Y-74350000D01*
X168450000Y-74650000D02*
X168450000Y-74050000D01*
X169050000Y-74350000D02*
X168450000Y-74650000D01*
X172640000Y-70710000D02*
X172640000Y-73100000D01*
X172640000Y-75490000D02*
X172640000Y-73100000D01*
X173750000Y-71600000D02*
X173750000Y-72100000D01*
X173750000Y-72100000D02*
X179250000Y-72100000D01*
X173750000Y-74100000D02*
X173750000Y-74600000D01*
X173750000Y-74600000D02*
X179250000Y-74600000D01*
X179250000Y-71600000D02*
X173750000Y-71600000D01*
X179250000Y-72100000D02*
X179250000Y-71600000D01*
X179250000Y-74100000D02*
X173750000Y-74100000D01*
X179250000Y-74600000D02*
X179250000Y-74100000D01*
X179860000Y-69290000D02*
X168140000Y-69290000D01*
X179860000Y-73100000D02*
X179860000Y-69290000D01*
X179860000Y-73100000D02*
X179860000Y-76910000D01*
X179860000Y-76910000D02*
X168140000Y-76910000D01*
%TO.C,C11*%
X142736248Y-47265000D02*
X143258752Y-47265000D01*
X142736248Y-48735000D02*
X143258752Y-48735000D01*
D15*
%TO.C,F3*%
X163680000Y-85415000D02*
X163680000Y-82615000D01*
X166920000Y-85415000D02*
X166920000Y-82615000D01*
D17*
X165650000Y-88095000D02*
G75*
G02*
X165350000Y-88095000I-150000J0D01*
G01*
X165350000Y-88095000D02*
G75*
G02*
X165650000Y-88095000I150000J0D01*
G01*
D14*
%TO.C,USB1*%
X167300000Y-56100000D02*
X167300000Y-55500000D01*
X168000000Y-54800000D02*
X169400000Y-54800000D01*
X169400000Y-56800000D02*
X168000000Y-56800000D01*
X170100000Y-55500000D02*
X170100000Y-56100000D01*
X167300000Y-55500000D02*
G75*
G02*
X168000000Y-54800000I700000J0D01*
G01*
X168000000Y-56800000D02*
G75*
G02*
X167300000Y-56100000I0J700000D01*
G01*
X169400000Y-54800000D02*
G75*
G02*
X170100000Y-55500000I1J-699999D01*
G01*
X170100000Y-56100000D02*
G75*
G02*
X169400000Y-56800000I-699999J-1D01*
G01*
%TO.C,SW1*%
X139040000Y-59430000D02*
X139340000Y-59430000D01*
X139040000Y-63570000D02*
X139040000Y-59430000D01*
X139340000Y-63570000D02*
X139040000Y-63570000D01*
X141880000Y-59430000D02*
X142180000Y-59430000D01*
X142180000Y-59430000D02*
X142180000Y-63570000D01*
X142180000Y-63570000D02*
X141880000Y-63570000D01*
%TO.C,C15*%
X153165000Y-64623752D02*
X153165000Y-64101248D01*
X154635000Y-64623752D02*
X154635000Y-64101248D01*
%TD*%
%LPC*%
D18*
%TO.C,C13*%
X153050000Y-76225000D03*
X153050000Y-74150000D03*
%TD*%
D19*
%TO.C,R1*%
X141980000Y-50190000D03*
X143980000Y-50190000D03*
%TD*%
D20*
%TO.C,U5-O1*%
X174690000Y-67580000D03*
D21*
X174690000Y-65040000D03*
X174690000Y-62500000D03*
%TD*%
D22*
%TO.C,C9*%
X148660000Y-70562500D03*
X148660000Y-72637500D03*
%TD*%
D18*
%TO.C,C6*%
X162650000Y-70225000D03*
X162650000Y-68150000D03*
%TD*%
D23*
%TO.C,R11-O1*%
X170800000Y-66900000D03*
X168800000Y-66900000D03*
%TD*%
D24*
%TO.C,TP2*%
X176300000Y-83900000D03*
%TD*%
D25*
%TO.C,U1*%
X147200000Y-48900000D03*
X147200000Y-50400000D03*
X147200000Y-51900000D03*
X147200000Y-53400000D03*
X147200000Y-54900000D03*
X147200000Y-56400000D03*
X147200000Y-57900000D03*
X147200000Y-59400000D03*
X147200000Y-60900000D03*
X164700000Y-60900000D03*
X164700000Y-59400000D03*
X164700000Y-57900000D03*
X164700000Y-56400000D03*
X164700000Y-54900000D03*
X164700000Y-53400000D03*
X164700000Y-51900000D03*
X164700000Y-50400000D03*
X164700000Y-48900000D03*
D26*
X155810000Y-54000000D03*
X156910000Y-54000000D03*
X158010000Y-54000000D03*
X155810000Y-55100000D03*
X156910000Y-55100000D03*
X158010000Y-55100000D03*
X155810000Y-56200000D03*
X156910000Y-56200000D03*
X158010000Y-56200000D03*
%TD*%
D19*
%TO.C,R11*%
X160350000Y-81350000D03*
X162350000Y-81350000D03*
%TD*%
D27*
%TO.C,K1*%
X153280000Y-95030000D03*
X160280000Y-95030000D03*
X141780000Y-95030000D03*
D28*
X141780000Y-90330000D03*
%TD*%
D29*
%TO.C,U3*%
X145640000Y-74190000D03*
X145640000Y-71890000D03*
D30*
X139340000Y-71890000D03*
D29*
X145640000Y-69590000D03*
%TD*%
D18*
%TO.C,C14*%
X165750000Y-70225000D03*
X165750000Y-68150000D03*
%TD*%
D31*
%TO.C,R7*%
X140610000Y-55600000D03*
X140610000Y-57600000D03*
%TD*%
D32*
%TO.C,U5*%
X158400000Y-76200000D03*
X159350000Y-76200000D03*
X160300000Y-76200000D03*
X160300000Y-73500000D03*
X159350000Y-73500000D03*
X158400000Y-73500000D03*
%TD*%
D33*
%TO.C,J1*%
X142597500Y-102400000D03*
D34*
X147677500Y-102400000D03*
X152757500Y-102400000D03*
X157837500Y-102400000D03*
%TD*%
D35*
%TO.C,U4-O1*%
X138730000Y-83600000D03*
D36*
X140000000Y-83600000D03*
X141270000Y-83600000D03*
%TD*%
D37*
%TO.C,USB2*%
X169340000Y-53050000D03*
D38*
X168040000Y-53050000D03*
%TD*%
D31*
%TO.C,R6*%
X158220000Y-79520000D03*
X158220000Y-81520000D03*
%TD*%
D39*
%TO.C,C4*%
X146625000Y-78740000D03*
X148700000Y-78740000D03*
%TD*%
D18*
%TO.C,C5*%
X151450000Y-65387500D03*
X151450000Y-63312500D03*
%TD*%
D40*
%TO.C,L1*%
X153050000Y-69100000D03*
X153050000Y-67000000D03*
%TD*%
D24*
%TO.C,TP16*%
X138940000Y-52890000D03*
%TD*%
D31*
%TO.C,R3*%
X142810000Y-55600000D03*
X142810000Y-57600000D03*
%TD*%
D41*
%TO.C,J3*%
X173350000Y-56690000D03*
X173350000Y-50910000D03*
D42*
X171905000Y-57050000D03*
X171905000Y-56250000D03*
D43*
X171905000Y-55050000D03*
X171905000Y-54050000D03*
X171905000Y-53550000D03*
X171905000Y-52550000D03*
D42*
X171905000Y-51350000D03*
X171905000Y-50550000D03*
X171905000Y-50550000D03*
X171905000Y-51350000D03*
D43*
X171905000Y-52050000D03*
X171905000Y-53050000D03*
X171905000Y-54550000D03*
X171905000Y-55550000D03*
D42*
X171905000Y-56250000D03*
X171905000Y-57050000D03*
D44*
X172820000Y-58120000D03*
D45*
X177000000Y-58120000D03*
D44*
X172820000Y-49480000D03*
D45*
X177000000Y-49480000D03*
%TD*%
D24*
%TO.C,TP7*%
X171200000Y-61900000D03*
%TD*%
D46*
%TO.C,U6*%
X148690000Y-86690000D03*
X149960000Y-86690000D03*
X151230000Y-86690000D03*
X152500000Y-86690000D03*
X153770000Y-86690000D03*
X155040000Y-86690000D03*
X156310000Y-86690000D03*
X156310000Y-81740000D03*
X155040000Y-81740000D03*
X153770000Y-81740000D03*
X152500000Y-81740000D03*
X151230000Y-81740000D03*
X149960000Y-81740000D03*
X148690000Y-81740000D03*
%TD*%
D33*
%TO.C,J2*%
X165937500Y-102400000D03*
D34*
X171017500Y-102400000D03*
%TD*%
D47*
%TO.C,C7*%
X170070000Y-91700000D03*
D24*
X175070000Y-91700000D03*
%TD*%
D48*
%TO.C,D1*%
X158050000Y-70050000D03*
X158050000Y-65050000D03*
%TD*%
D49*
%TO.C,D2*%
X164000000Y-73100000D03*
X164000000Y-78100000D03*
%TD*%
D50*
%TO.C,D5*%
X156050000Y-76200000D03*
X156050000Y-79500000D03*
%TD*%
D51*
%TO.C,J3-O1*%
X170550000Y-74350000D03*
D52*
X170550000Y-71850000D03*
%TD*%
D39*
%TO.C,C11*%
X141960000Y-48000000D03*
X144035000Y-48000000D03*
%TD*%
D53*
%TO.C,F3*%
X165300000Y-86630000D03*
X165300000Y-81400000D03*
%TD*%
D37*
%TO.C,USB1*%
X169350000Y-55800000D03*
D38*
X168050000Y-55800000D03*
%TD*%
D54*
%TO.C,SW1*%
X140610000Y-63600000D03*
X140610000Y-59400000D03*
%TD*%
D18*
%TO.C,C15*%
X153900000Y-65400000D03*
X153900000Y-63325000D03*
%TD*%
%LPD*%
M02*
